<svg xmlns="http://www.w3.org/2000/svg" viewBox="0 0 877.63 511.49"><defs><style>.cls-1,.cls-4{fill:#fff;}.cls-2,.cls-3{fill:none;}.cls-2,.cls-3,.cls-4{stroke:#fff;stroke-miterlimit:10;stroke-width:2px;}.cls-3{stroke-dasharray:11.87 11.87;}</style></defs><title>Aa1</title><g id="Calque_2" data-name="Calque 2"><g id="Calque_1-2" data-name="Calque 1"><path class="cls-1" d="M385.75,373.88H326.37l-28.13-51.05H129.14L101,373.88H41.64L178.1,128.73h70.84ZM213.52,169.7,153.1,279.43H274.28Z"/><path class="cls-1" d="M627.77,173.69Q656.24,184,670.66,207.2t14.75,62.51V373.88h-51v-25.7a376.83,376.83,0,0,1-64.93,23.27,273,273,0,0,1-67.72,8.33q-96.18,0-96.18-68.75,0-37.5,34-54.35t88.2-16.84q52.08,0,106.6,15.28-1.05-29.51-27.26-40.1t-58.86-10.59a365.25,365.25,0,0,0-51.73,3.82q-26.75,3.83-59,13.88l-14.94-38.54a518.94,518.94,0,0,1,65.81-15.1,424,424,0,0,1,66.49-5Q599.3,163.45,627.77,173.69ZM572.91,331a542.81,542.81,0,0,0,61.46-17.53V293q-52.44-14.24-102.09-14.24-72.22,0-72.22,30.91,0,17,14.06,22.92t43.58,5.9Q539.92,338.46,572.91,331Z"/><rect class="cls-2" x="1" y="1" width="831.2" height="509.49"/><line class="cls-2" x1="1" y1="127.96" x2="7" y2="127.96"/><line class="cls-3" x1="18.87" y1="127.96" x2="820.26" y2="127.96"/><line class="cls-2" x1="826.2" y1="127.96" x2="832.2" y2="127.96"/><line class="cls-2" x1="1" y1="169.86" x2="7" y2="169.86"/><line class="cls-3" x1="18.87" y1="169.86" x2="820.26" y2="169.86"/><line class="cls-2" x1="826.2" y1="169.86" x2="832.2" y2="169.86"/><line class="cls-2" x1="1" y1="374.96" x2="7" y2="374.96"/><line class="cls-3" x1="18.87" y1="374.96" x2="820.26" y2="374.96"/><line class="cls-2" x1="826.2" y1="374.96" x2="832.2" y2="374.96"/><rect class="cls-1" x="854.41" y="127.96" width="22.21" height="41.9"/><rect class="cls-1" x="832.2" y="169.86" width="22.21" height="41.9"/><rect class="cls-1" x="854.41" y="211.77" width="22.21" height="41.9"/><rect class="cls-1" x="832.2" y="253.67" width="22.21" height="41.9"/><rect class="cls-1" x="854.41" y="295.57" width="22.21" height="41.9"/><rect class="cls-1" x="832.2" y="337.48" width="22.21" height="41.9"/><rect class="cls-4" x="832.2" y="1" width="44.43" height="126.96"/><rect class="cls-4" x="832.2" y="379.38" width="44.43" height="131.11"/><rect x="832.2" y="374.96" width="44.43" height="4.45"/><rect class="cls-2" x="832.2" y="127.96" width="44.43" height="251.43"/></g></g></svg>