<?xml version="1.0" encoding="utf-8"?>
<!-- Generator: Adobe Illustrator 25.1.0, SVG Export Plug-In . SVG Version: 6.00 Build 0)  -->
<svg version="1.1" xmlns="http://www.w3.org/2000/svg" xmlns:xlink="http://www.w3.org/1999/xlink" x="0px" y="0px"
	 viewBox="0 0 1919.7 247.1" style="enable-background:new 0 0 1919.7 247.1;" xml:space="preserve">
<style type="text/css">
	.st0{fill:none;stroke:#E4E4E7;stroke-width:2;stroke-miterlimit:10;}
	.st1{fill:none;stroke:#000000;stroke-width:2.1776;stroke-miterlimit:10;}
	.st2{fill:#E95925;}
</style>
<g id="Calque_1">
	<line class="st0" x1="0" y1="246.1" x2="1919.7" y2="246.1"/>
	<line class="st0" x1="0" y1="1" x2="1919.7" y2="1"/>
	<line class="st0" x1="0" y1="42.5" x2="1919.7" y2="42.5"/>
	<line class="st1" x1="613" y1="123.6" x2="830.5" y2="123.6"/>
	<circle cx="613.3" cy="123.6" r="4.5"/>
	<line class="st1" x1="1289.4" y1="123.6" x2="1072" y2="123.6"/>
	<circle cx="1289.2" cy="123.6" r="4.5"/>
	<path d="M1620.8,177.4c0,21.5-6.7,38.4-20,50.5c-13.3,12.2-33.9,18.2-61.6,18.2h-212.8V1h208.7c27.1,0,46.6,5.7,58.5,17
		s17.9,26.1,17.9,44.5c0.1,11.2-2.5,22.3-7.6,32.3c-5.1,9.8-12.6,18-21.9,24C1607.9,131,1620.8,150.6,1620.8,177.4z M1379.5,44.4v58
		h137.2c9.7,0,17.1-0.5,22.2-1.4c4.9-0.8,9.4-3.6,12.3-7.6c3.1-4.2,4.7-10.9,4.7-20.1c0-9-1.6-15.6-4.7-19.8
		c-3-4.1-7.4-6.8-12.3-7.6c-5.1-0.9-12.5-1.4-22.2-1.4L1379.5,44.4z M1526,202.8c9.3,0,16.3-0.5,21.2-1.4c4.9-0.9,9.2-3.7,12-7.8
		c3.1-4.3,4.7-11.2,4.7-20.7c0-9.5-1.6-16.4-4.7-20.8c-2.8-4.2-7.1-7-12-8c-4.9-0.9-11.9-1.4-21.2-1.4h-146.5v60.1L1526,202.8z"/>
	<rect x="1326.4" y="44.4" class="st2" width="53.1" height="158.3"/>
	<path d="M643,246.1h-59.3l-28.1-51H386.4l-28.1,51h-59.4L435.4,1h70.8L643,246.1z M470.8,42l-60.4,109.7h121.2L470.8,42z"/>
	<polyline class="st2" points="583.7,246.1 643,246.1 506.2,1 447.9,1 	"/>
</g>
<g id="Calque_2">
	<g>
		<path d="M879.3,116.8v2.1h-9.2v3.3h8.3v2.1h-8.3v3.6h-2.4v-11.1H879.3z"/>
		<path d="M891.5,118.7h2.3v9.2h-2.3v-2.1c-0.6,0.8-1.4,1.4-2.2,1.8c-0.9,0.4-2,0.6-3.2,0.6c-1.7,0-2.9-0.4-3.8-1.1
			c-0.9-0.8-1.4-2-1.4-3.7v-4.7h2.3v4c0,1.2,0.3,2.1,0.8,2.6s1.5,0.8,2.9,0.8c1.4,0,2.5-0.3,3.4-1s1.3-1.6,1.3-2.9V118.7z
			 M883.9,115.7l3.3-1.3l3.3,1.3v1.7l-3.3-1.3l-3.3,1.3V115.7z"/>
		<path d="M904.8,120.7h-4.5v3.3c0,0.6,0.1,1.1,0.2,1.4c0.1,0.3,0.3,0.5,0.6,0.7c0.3,0.1,0.7,0.2,1.3,0.2c0.7,0,1.5-0.1,2.4-0.2v1.9
			c-1.1,0.2-2.1,0.3-2.9,0.3c-1,0-1.7-0.1-2.3-0.4s-1-0.6-1.2-1.2c-0.2-0.6-0.4-1.3-0.4-2.3v-3.7h-2.5v-1.9h2.5v-2.1l2.3-0.7v2.8
			h4.5V120.7z"/>
		<path d="M915.5,117.3c1.3-1.3,3.1-1.9,5.5-1.9v2c-1.6,0-2.8,0.5-3.7,1.4s-1.3,2.4-1.3,4.5c0,2.1,0.4,3.6,1.3,4.5
			c0.9,0.9,2.1,1.4,3.7,1.4v2c-2.4,0-4.2-0.6-5.5-1.9c-1.3-1.3-2-3.3-2-6C913.5,120.5,914.2,118.5,915.5,117.3z"/>
		<path d="M942.3,119.5c0.8,0.7,1.1,1.9,1.2,3.4v5.1h-2.3v-4.8c0-0.9-0.2-1.6-0.7-2.1c-0.4-0.4-1.2-0.7-2.2-0.7
			c-0.6,0-1.2,0.1-1.7,0.4c-0.5,0.2-1,0.6-1.3,1.1c-0.3,0.5-0.5,1.1-0.5,1.7v4.4h-2.3v-4.8c0-0.9-0.2-1.6-0.7-2.1
			c-0.5-0.4-1.2-0.7-2.2-0.7c-0.6,0-1.2,0.1-1.7,0.4c-0.5,0.2-1,0.6-1.3,1.1c-0.3,0.5-0.5,1.1-0.5,1.7v4.4h-2.3v-9.2h2.3v1.8
			c1.1-1.4,2.6-2.1,4.4-2.1c1,0,1.9,0.2,2.6,0.6c0.7,0.4,1.2,1,1.5,1.9c1.1-1.7,2.7-2.5,4.7-2.5
			C940.4,118.4,941.5,118.8,942.3,119.5z"/>
		<path d="M947.1,127c-1.2-0.8-1.7-2.1-1.7-3.7c0-1.6,0.6-2.8,1.7-3.7c1.2-0.8,2.8-1.3,4.8-1.3c2,0,3.6,0.4,4.8,1.3
			c1.2,0.8,1.7,2.1,1.7,3.7c0,1.6-0.6,2.8-1.7,3.7c-1.2,0.8-2.8,1.3-4.8,1.3C949.9,128.3,948.3,127.8,947.1,127z M955.9,123.3
			c0-2-1.3-3-4-3s-4,1-4,3c0,2,1.3,3,4,3S955.9,125.3,955.9,123.3z"/>
		<path d="M972.1,119.6c0.9,0.8,1.4,2,1.4,3.7v4.7h-2.3v-4c0-1.2-0.3-2.1-0.8-2.6s-1.5-0.8-2.9-0.8c-1.4,0-2.5,0.3-3.4,1
			c-0.8,0.7-1.3,1.6-1.3,2.9v3.7h-2.3v-9.2h2.3v2.1c0.6-0.8,1.4-1.4,2.2-1.8c0.9-0.4,2-0.6,3.2-0.6
			C969.9,118.4,971.2,118.8,972.1,119.6z"/>
		<path d="M984.2,120.7h-4.5v3.3c0,0.6,0.1,1.1,0.2,1.4c0.1,0.3,0.3,0.5,0.6,0.7c0.3,0.1,0.7,0.2,1.3,0.2c0.7,0,1.5-0.1,2.4-0.2v1.9
			c-1.1,0.2-2.1,0.3-2.9,0.3c-1,0-1.7-0.1-2.3-0.4s-1-0.6-1.2-1.2c-0.2-0.6-0.4-1.3-0.4-2.3v-3.7h-2.5v-1.9h2.5v-2.1l2.3-0.7v2.8
			h4.5V120.7z"/>
		<path d="M996.2,118.9c0.9,0.3,1.5,0.8,1.9,1.5c0.4,0.7,0.7,1.6,0.7,2.8v4.7h-2.3v-1.2c-1,0.5-2,0.8-2.9,1.1c-1,0.3-2,0.4-3.1,0.4
			c-2.9,0-4.4-1-4.4-3.1c0-1.1,0.5-2,1.5-2.5c1-0.5,2.4-0.8,4-0.8c1.6,0,3.2,0.2,4.8,0.7c0-0.9-0.4-1.5-1.2-1.8
			c-0.8-0.3-1.7-0.5-2.7-0.5c-0.8,0-1.5,0.1-2.3,0.2c-0.8,0.1-1.7,0.3-2.7,0.6l-0.7-1.7c1-0.3,2-0.5,3-0.7c1-0.2,2-0.2,3-0.2
			C994.3,118.4,995.4,118.6,996.2,118.9z M993.8,126c1-0.2,1.9-0.5,2.8-0.8v-0.9c-1.6-0.4-3.1-0.6-4.6-0.6c-2.2,0-3.3,0.5-3.3,1.4
			c0,0.5,0.2,0.9,0.6,1c0.4,0.2,1.1,0.3,2,0.3C991.9,126.3,992.8,126.2,993.8,126z"/>
		<path d="M1012.7,119.6c0.9,0.8,1.4,2,1.4,3.7v4.7h-2.3v-4c0-1.2-0.3-2.1-0.8-2.6s-1.5-0.8-2.9-0.8c-1.4,0-2.5,0.3-3.4,1
			c-0.8,0.7-1.3,1.6-1.3,2.9v3.7h-2.3v-9.2h2.3v2.1c0.6-0.8,1.4-1.4,2.2-1.8c0.9-0.4,2-0.6,3.2-0.6
			C1010.5,118.4,1011.8,118.8,1012.7,119.6z"/>
		<path d="M1024.9,120.7h-4.5v3.3c0,0.6,0.1,1.1,0.2,1.4c0.1,0.3,0.3,0.5,0.6,0.7c0.3,0.1,0.7,0.2,1.3,0.2c0.7,0,1.5-0.1,2.4-0.2
			v1.9c-1.1,0.2-2.1,0.3-2.9,0.3c-1,0-1.7-0.1-2.3-0.4s-1-0.6-1.2-1.2c-0.2-0.6-0.4-1.3-0.4-2.3v-3.7h-2.5v-1.9h2.5v-2.1l2.3-0.7
			v2.8h4.5V120.7z"/>
		<path d="M1032.8,129.2c-1.3,1.3-3.1,1.9-5.5,1.9v-2c1.6,0,2.8-0.5,3.6-1.4s1.3-2.4,1.3-4.5c0-2.1-0.4-3.6-1.3-4.5
			s-2.1-1.4-3.7-1.4v-2c2.4,0,4.2,0.6,5.5,1.9s2,3.3,2,5.9C1034.8,125.9,1034.1,127.9,1032.8,129.2z"/>
	</g>
</g>
</svg>
