<?xml version="1.0" encoding="utf-8"?>
<!-- Generator: Adobe Illustrator 25.1.0, SVG Export Plug-In . SVG Version: 6.00 Build 0)  -->
<svg version="1.1" xmlns="http://www.w3.org/2000/svg" xmlns:xlink="http://www.w3.org/1999/xlink" x="0px" y="0px"
	 viewBox="0 0 1919.7 621.1" style="enable-background:new 0 0 1919.7 621.1;" xml:space="preserve">
<style type="text/css">
	.st0{fill:none;stroke:#E95925;stroke-width:2;stroke-miterlimit:10;}
	.st1{fill:#E95925;}
	.st2{fill:none;stroke:#E4E4E7;stroke-width:2;stroke-miterlimit:10;}
</style>
<g id="Calque_1">
	<line class="st0" x1="686.5" y1="83.9" x2="686.2" y2="34.7"/>
	<path class="st1" d="M691,83.6c0,2.5-2,4.5-4.5,4.5c-2.5,0-4.5-2-4.5-4.5s2-4.5,4.5-4.5c0,0,0,0,0,0C689,79.1,691,81.1,691,83.6z"
		/>
	<line class="st0" x1="1223.3" y1="535.3" x2="1222.9" y2="584.5"/>
	<path class="st1" d="M1218.8,535.5c0-2.5,2-4.5,4.5-4.5c2.5,0,4.5,2,4.5,4.5c0,2.5-2,4.5-4.5,4.5c0,0,0,0,0,0
		C1220.7,540,1218.7,538,1218.8,535.5C1218.8,535.5,1218.8,535.5,1218.8,535.5z"/>
	<line class="st2" x1="0" y1="431.9" x2="1919.7" y2="431.9"/>
	<line class="st2" x1="0" y1="186.7" x2="1919.7" y2="186.7"/>
	<line class="st2" x1="0" y1="228.2" x2="1919.7" y2="228.2"/>
	<path d="M853.3,431.1H794l-28.1-51H596.7l-28.1,51h-59.4L645.7,186h70.8L853.3,431.1z M681.1,226.9l-60.4,109.7h121.2L681.1,226.9z
		"/>
	<path d="M1414.6,186v245.1h-53.5V233.5l-113.5,197.6h-49l-113.9-197.6v197.6h-53.1V186h83.7l107.6,184l107.7-184H1414.6z"/>
	<path class="st1" d="M686.4,82.4h-3.2c-3,0.1-5.9,0.3-8.8,0.6l0.2,2c3.9-0.4,7.8-0.7,11.8-0.7L686.4,82.4L686.4,82.4z M662.6,85.1
		l-1.8,0.4l0,0l-0.2,0.1l0,0l-0.2,0.1l0,0h0l0,0h-0.1H660h-0.1h-0.2h-0.1h-0.2l0,0h-1.6l0,0H656l0,0h-0.3l0,0h-0.1h-0.1l0,0l0,0H655
		h-0.1h-0.2h-0.1h-0.2l0,0h-0.3l0,0h-0.5l0,0h-0.2l0,0h-1l0,0H652h-0.1h-0.2h-0.1h-0.1l-0.2,0.1l0,0l0,0l0,0l0.7,1.9
		c3.6-0.4,7.3-0.6,11-0.6L662.6,85.1L662.6,85.1z M640,93.2c-3.6,1.8-7.1,3.8-10.4,5.9l1.1,1.7c3.3-2.1,6.7-4.1,10.2-5.8L640,93.2z
		 M619.9,106.2c-0.7,0.6-1.4,1.2-2.1,1.8l0,0l0,0l0,0l0,0l0,0l-0.1,0.1l0,0l0,0l0,0l0,0l0,0l0,0l0,0l-0.1,0.1l0,0l0,0l0,0l0,0l0,0
		l0,0l0,0l0,0l0,0l0,0l0,0l0,0l0,0l0,0l0,0l0,0l0,0l0,0l0,0l0,0l0,0l0,0l0,0l0,0l0,0l0,0l0,0l0,0l0,0l0,0l0,0l0,0l0,0l0,0l0,0l0,0
		l-0.1,0.1l0,0l0,0l0,0l0,0l0,0l0,0l0,0l-0.1,0.1l0,0l0,0l0,0l0,0l0,0l0,0l0,0l-0.1,0.1l0,0l0,0l0,0l0,0l0,0l0,0l0,0l-0.1,0.1l0,0
		l0,0l0,0c-1.3,1.2-2.6,2.5-3.9,3.7l0,0l0,0l0,0l-0.1,0.1l0,0l0,0l0,0l0,0l0,0l-0.1,0.1l0,0l0,0l0,0l0,0l0,0l0,0l0,0l0,0l0,0l0,0
		l0,0l0,0l0,0l0,0l0,0l0,0l0,0l-0.1,0.1l0,0l0,0l0,0l0,0l0,0l0,0l0,0l-0.1,0.1l0,0l-0.3,0.3l1.5,1.4c2.7-2.8,5.6-5.5,8.6-8
		L619.9,106.2L619.9,106.2z M603.3,123.5L603.3,123.5L603.3,123.5L603.3,123.5L603.3,123.5L603.3,123.5L603.3,123.5L603.3,123.5
		L603.3,123.5L603.3,123.5L603.3,123.5L603.3,123.5L603.3,123.5L603.3,123.5L603.3,123.5L603.3,123.5L603.3,123.5L603.3,123.5
		L603.3,123.5L603.3,123.5L603.3,123.5L603.3,123.5L603.3,123.5L603.3,123.5L603.3,123.5L603.3,123.5L603.3,123.5L603.3,123.5
		L603.3,123.5L603.3,123.5L603.3,123.5L603.3,123.5L603.3,123.5L603.3,123.5L603.3,123.5L603.3,123.5L603.3,123.5L603.3,123.5
		L603.3,123.5l-0.1,0.1l0,0l0,0l0,0l0,0l0,0l0,0l0,0v0.1l0,0l0,0l0,0l0,0l0,0l0,0l0,0v0.1l0,0l0,0l0,0l0,0l0,0l0,0l0,0l-0.1,0.1l0,0
		l0,0l0,0l0,0l0,0l0,0l0,0l-0.1,0.1l0,0l0,0l0,0l0,0l0,0l0,0l0,0l-0.1,0.1l0,0l0,0l0,0l0,0l0,0l0,0l0,0l0,0.1l0,0l0,0l0,0l0,0l0,0
		l0,0l0,0l-0.1,0.1l0,0l0,0l0,0l0,0l0,0l-0.1,0.1l0,0l0,0l0,0l0,0l0,0l0,0l0,0v0.1l0,0l0,0l0,0l0,0l0,0l0,0l0,0l-0.1,0.1l0,0l0,0
		l0,0l0,0l0,0l0,0l0,0c0,0-0.1,0.1-0.1,0.1l0,0l0,0l0,0l0,0l0,0l-0.1,0.1l0,0l0,0l0,0l0,0l0,0l-0.1,0.1l0,0l0,0l0,0l0,0l0,0
		l-0.1,0.1l0,0l0,0l0,0l0,0l0,0l-0.1,0.1l0,0l0,0l0,0l0,0l0,0c0,0-0.1,0.1-0.1,0.1l0,0l0,0l0,0l0,0l0,0l-0.1,0.2l0,0l0,0l0,0l0,0
		l0,0l-0.1,0.2l0,0l-0.1,0.2l0,0l0,0l0,0c0,0.1-0.1,0.1-0.1,0.2l0,0l-0.1,0.2l0,0l0,0l0,0l-0.1,0.2l0,0l0,0l0,0c-1,1.5-2,3.1-3,4.7
		l1.7,1c2-3.4,4.2-6.6,6.6-9.8l-1.6-1.2L603.3,123.5z M591.1,144.1c-0.3,0.6-0.5,1.2-0.8,1.9l0,0l0,0l0,0l0,0l0,0l-0.1,0.1l0,0l0,0
		l0,0v0.1l0,0v0.1v0.2l0,0l0,0l0,0l0,0l0,0l0,0v0.1v0.1l0,0l0,0l0,0l0,0l0,0l0,0l0,0l0,0.1l0,0l0,0l0,0l0,0l0,0l-0.1,0.2l0,0l0,0
		l0,0c-0.4,1-0.8,1.9-1.1,2.9l0,0l0,0l0,0v0.1l0,0l0,0l0,0l0,0l0,0l0,0l0,0v0.1l0,0l0,0l0,0l0,0l0,0l0,0l0,0l0,0l0,0l0,0l0,0l0,0
		l0,0v0.1l0,0l0,0l0,0v0.2l0,0v0.1l0,0l0,0l0,0l0,0l0,0l0,0l0,0l0,0l0,0v0.1l0,0l0,0l0,0l0,0l0,0l0,0l0,0c-0.4,1.1-0.8,2.2-1.1,3.3
		l1.9,0.6c1.2-3.7,2.6-7.4,4.2-11l-1.8-0.8L591.1,144.1z M583.9,166.9c-0.1,0.6-0.2,1.1-0.3,1.7l0,0v0.1l0,0l0,0l0,0v0.1l0,0v0.2
		l0,0l0,0l0,0l0,0l0,0l0,0l0,0l0,0l0,0v0.1l0,0l0,0l0,0v0.1l0,0v0.1l0,0l0,0l0,0l0,0l0,0v0.1l0,0v0.4l0,0v0.1l0,0v0.1l0,0v0.1l0,0
		l0,0l0,0v0.1l0,0l0,0l0,0l0,0l0,0c0,0,0,0.1,0,0.1l0,0l0,0l0,0l0,0l0,0l0,0l0,0l0,0l0,0v0.2l0,0l0,0l0,0l0,0l0,0v0.3l0,0l0,0l0,0
		c0,0.1,0,0.2,0,0.3l0,0l0,0l0,0c-0.2,1.2-0.3,2.4-0.5,3.6l0,0l0,0l0,0v0.2l0,0l0,0l0,0l0,0l0,0l0,0l0,0c0,0.1,0,0.1,0,0.2l0,0v0.1
		l0,0l0,0l0,0l0,0l0,0v0.1l0,0l0,0l0,0l0,0l0,0l0,0l0,0l0,0l0,0l0,0l0,0v0.1l0,0l0,0l0,0v1.6l0,0v0.4l0,0l0,0l0,0v0.2l0,0l0,0l0,0
		v0.1l0,0v0.1l0,0l0,0l0,0l0,0l0,0l0,0l0,0c0,0.1,0,0.1,0,0.2l0,0v0.1l0,0l0,0l0,0c0,0.2,0,0.4,0,0.6l2,0.1
		c0.3-3.9,0.8-7.8,1.5-11.7l-2-0.4L583.9,166.9z M584.1,190.8l-2,0.1c0.1,3.1,0.4,6.1,0.8,9.1l0,0c0,0.1,0,0.2,0,0.3l0,0l0,0l0,0
		l0,0l0,0l0,0l0,0v0.2l0,0l0,0l0,0v0.4l0,0v0.2l0,0l0,0l0,0l0,0l0,0v0.1l0,0l0,0l0,0l0,0l0,0v0.1l0,0c0.1,0.5,0.1,0.9,0.2,1.4l2-0.3
		c-0.6-3.9-1-7.8-1.1-11.7L584.1,190.8z M587.7,214l-1.9,0.5l0.1,0.2l0,0l0,0l0,0l0,0l0,0v0.1l0,0l0,0l0,0l0,0l0,0l0,0l0,0v0.2l0,0
		v0.1l0,0l0,0l0,0v0.1l0,0l0,0l0,0l0,0l0,0c0,0,0,0.1,0,0.1l0,0l0,0l0,0l0,0l0,0c1,3.4,2.1,6.7,3.5,10l1.8-0.8
		C589.8,221.2,588.7,217.6,587.7,214z M596.5,235.8l-1.8,1c1.9,3.5,4,6.9,6.3,10.2l1.6-1.1C600.5,242.6,598.4,239.2,596.5,235.8
		L596.5,235.8z M610.1,255l-1.5,1.3c2.7,3,5.5,5.8,8.5,8.5l1.3-1.5C615.5,260.6,612.7,257.9,610.1,255z M627.6,270.6l-1.2,1.6
		l0.8,0.5l0,0l0.2,0.1l0,0l0,0l0,0l0,0l0,0h0h0.1l0,0h0l0,0l0,0l0,0h0l0,0l0,0l0,0l0,0l0,0l0,0l0,0l0,0l0,0l0,0l0,0l0,0l0,0l0,0
		l0.1,0.1l0,0l0,0l0,0l0,0l0,0l0.2,0.1l0,0l0,0l0,0l0.2,0.1l0,0c2.6,1.7,5.3,3.3,8,4.8l1-1.8c-3.5-1.9-6.8-3.9-10-6.2L627.6,270.6z
		 M648.3,281.8l-0.7,1.9c2.7,1.1,5.3,2,8.1,2.9l0,0l0.2,0.1h0.1h0.2l0,0l0,0h0h0.1h0.2h0.1h1h0.1h0.2h0.1h0.1h0.2h0.1h0.2l0,0
		l0.4,0.1l0.5-1.9c-3.8-1-7.5-2.3-11.2-3.8L648.3,281.8z M670.9,287.9l-0.3,2c1.2,0.2,2.5,0.4,3.7,0.5h0.1h0.2h5.4
		c0.8,0,1.6,0.1,2.5,0.1l0.1-2c-3.9-0.1-7.8-0.5-11.7-1.1V287.9z M706.1,287.2c-3.9,0.8-7.7,1.3-11.7,1.6l0.2,2h0.5h1.5h0.2h0.1
		l1-0.1l0,0h0.3l0,0h0.3h0.1h0.3h0.1h0.2h0.2h0.1h0.2h0.1h0.9h0.1h0.5h0.2l0,0c1.7-0.2,3.4-0.5,5.1-0.9l-0.4-2L706.1,287.2z
		 M728.4,280c-3.6,1.6-7.3,3-11,4.2l0.6,1.9c1.1-0.4,2.2-0.7,3.2-1.1h0l0.2-0.1h0.1h0.1h0.7l0,0h0.1h0.1h0.1l0,0l0,0h0.1h0.1h0.1
		l0,0l0,0h0.1l0,0l0,0h0.1l0,0l0,0h0.1l0,0l0,0h0.1l0,0l0,0h0.1l0.1,0l0,0l0,0h0.1h0.1h0.1l0,0l0,0l0.1,0l0,0l0,0h0l0,0l0,0l0.1,0
		l0,0l0,0h0.1h0.1h0.1l0,0l0,0l0,0h0.2l0,0l0,0l0,0h0.1l0,0l0,0h0.1h0.7l0,0h0.1l0,0l0,0h0.1l0,0l0,0h0.1l0.1,0h0.9l0,0l0,0l0.2-0.1
		l0,0c0.7-0.3,1.3-0.6,2-0.9l-0.8-1.8L728.4,280z M748.6,268c-3.1,2.4-6.4,4.6-9.7,6.6l1,1.7c3.4-2.1,6.7-4.3,9.9-6.8L748.6,268z
		 M765.5,251.7c-2.5,3-5.2,5.9-8,8.6l1.4,1.4c2.4-2.4,4.8-4.8,7-7.4l0,0l0,0l0,0l0,0l0,0l0.1-0.1l0,0l0,0l0,0l0,0l0,0l0,0l0,0l0,0
		l0,0l0,0l0,0l0,0l0,0l0,0l0,0l0,0l0,0l0,0l0,0l0,0l0,0l0,0l0,0l0,0l0,0l0,0l0.1-0.1l0,0l0,0l0,0l0.5-0.6l-1.5-1.3L765.5,251.7z
		 M778.2,231.9c-1.7,3.5-3.7,6.9-5.8,10.2l1.7,1.1c2.2-3.4,4.1-6.9,5.9-10.5L778.2,231.9L778.2,231.9z M786.1,209.8
		c-0.9,3.8-2,7.6-3.3,11.3l1.9,0.7c0.5-1.3,0.9-2.6,1.3-3.9l0,0l0,0l0,0l0.1-0.2l0,0l0,0l0,0l0,0l0,0l0,0l0,0l0,0l0,0v-0.1l0,0l0,0
		l0,0l0,0l0,0l0,0l0,0l0,0l0,0l0,0l0,0V217l0,0v-0.3l0,0v-0.1l0,0v-0.2l0,0v-0.1l0,0l0,0l0,0l0,0l0,0c0.6-2,1.1-4,1.6-6l-1.9-0.4
		L786.1,209.8z M790.7,186.4h-2v0.3c0,3.8-0.2,7.7-0.6,11.5l2,0.2c0.2-1.4,0.3-2.8,0.4-4.3l0,0l0,0l0,0c0-0.1,0-0.2,0-0.3l0,0l0,0
		l0,0l0,0l0,0l0,0l0,0l0,0l0,0l0,0l0,0l0,0l0,0c0-0.1,0-0.1,0-0.2l0,0l0,0l0,0l0,0l0,0l0,0l0,0l0,0l0,0v-0.1l0,0l0,0l0,0
		c0,0,0-0.1,0-0.1l0,0l0,0l0,0v-0.1l0,0l0,0l0,0v-0.1l0,0l0,0l0,0v-1l0,0V192l0,0v-0.2l0,0v-0.4l0,0l0,0l0,0l0,0l0,0v-0.1l0,0v-0.2
		l0,0l0,0l0,0V190l0,0l0,0l0,0v-0.3l0,0l0,0l0,0v-0.1l0,0v-0.2l0,0v-0.1l0,0l0,0l0,0l0,0l0,0l0,0l0,0V189l0,0l0,0l0,0l0,0l0,0l0,0
		l0,0v-0.1l0,0v-0.4l0,0v-0.2l0,0v-0.2l0,0l0,0l0,0v-0.1l0,0v-0.4l0,0v-0.2l0,0V187l0,0v-0.1l0,0v-0.1l0,0v-0.4L790.7,186.4z
		 M787.9,162.7l-2,0.5c0.9,3.8,1.6,7.7,2,11.6l2-0.2l-0.1-1l0,0l0,0l0,0l0,0l0,0l0,0l0,0v-0.2l0,0l0,0l0,0v-0.1l0,0l0,0l0,0l0,0l0,0
		v-0.1v-0.4l0,0v-0.1l0,0v-0.1l0,0l0,0l0,0v-0.1l0,0v-0.1l0,0l0,0l0,0v-0.1l0,0l0,0l0,0l0,0l0,0l0,0l0,0l0,0l0,0v-0.1l0,0l0,0l0,0
		l0,0l0,0l0,0l0,0c0-0.1,0-0.1,0-0.2l0,0l0,0l0,0l0,0l0,0l0,0l0,0v-0.2l0,0l0,0l0,0c0-0.1,0-0.2,0-0.3l0,0l0,0l0,0
		c0-0.1,0-0.2,0-0.3l0,0l0,0l0,0c0-0.1,0-0.2,0-0.3l0,0l0,0l0,0l0-0.3l0,0c0-0.1,0-0.2,0-0.3l0,0c0-0.1,0-0.2,0-0.2l0,0V169l0,0l0,0
		l0,0v-0.2l0,0l0,0l0,0v-0.1l0,0c0-0.1,0-0.1,0-0.2l0,0l0,0l0,0l0,0l0,0l0,0l0,0v-0.2l0,0l0,0l0,0l0,0l0,0l0,0l0,0v-0.1l0,0l0,0l0,0
		l0,0l0,0v-0.1l0,0l0,0l0,0v-0.1l0,0l0,0l0,0l0,0l0,0V168l0,0l0,0l0,0l0,0l0,0v-0.1l0,0v-0.1l0,0v-0.3l0,0v-0.1l0,0l0,0l0,0l0,0l0,0
		l0,0l0,0l0,0l0,0v-0.1l0,0l0,0l0,0l0,0l0,0l0,0l0,0l0,0l0,0c0-0.1,0-0.1,0-0.2l0,0l0,0l0,0c-0.2-1.1-0.5-2.2-0.7-3.3L787.9,162.7z
		 M779.7,140.2L778,141c1.8,3.5,3.3,7.1,4.7,10.8l1.9-0.7l0,0l0,0l0,0l0,0l0,0l0,0l0,0l0,0l0,0V151l0,0l0,0l0,0v-0.4l0,0v-0.1l0,0
		l0,0l0,0l0,0l0,0l0,0l0,0l0,0l0,0v-0.1l0,0l0,0l0,0l0,0l0,0l0,0l0,0c0-0.1-0.1-0.1-0.1-0.2l0,0c-1.3-3.3-2.7-6.5-4.3-9.7
		L779.7,140.2z M766.6,120.2l-1.5,1.3c2.5,3,4.8,6.2,7,9.5l1.7-1.1C771.6,126.5,769.2,123.2,766.6,120.2L766.6,120.2z M749.3,103.6
		l-1.2,1.6c3.1,2.4,6.1,4.9,9,7.6l1.4-1.4l0,0l0,0l0,0l0,0l0,0l0,0l0,0l0,0l-0.1-0.1l0,0l0,0l0,0l0,0l0,0l0,0l0,0l-0.1-0.1l0,0l0,0
		l0,0l0,0l0,0l0,0l0,0l-0.1-0.1l0,0l0,0l0,0l0,0l0,0l0,0l0,0l-0.1-0.1l0,0l0,0l0,0l0,0l0,0l0,0l0,0l0,0l0,0l0,0l0,0l0,0l0,0l0,0l0,0
		l0,0l0,0l0,0l0,0l0,0l0,0l0,0l0,0l0,0l0,0l0,0l0,0l0,0l0,0l0,0l0,0l0,0l0,0l0,0l0,0l0,0l0,0l0,0l0,0l0,0l0,0l0,0l0,0l0,0l0,0l0,0
		l0,0l0,0l0,0h0l0,0l0,0l0,0l0,0l0,0l0,0l0,0l0,0l0,0l0,0l0,0l0,0l0,0l0,0l0,0l0,0l0,0l-0.1-0.1l0,0l0,0l0,0l0,0l0,0L758,111l0,0
		l0,0l0,0l0,0l0,0l0,0l0,0l-0.1-0.1l0,0l0,0l0,0l0,0l0,0l0,0l0,0L756,109l0,0l0,0l0,0l0,0l0,0l0,0l0,0l-0.1-0.1l0,0l0,0l0,0l0,0l0,0
		l-0.1-0.1l0,0l0,0l0,0l-0.2-0.1l0,0l0,0l0,0l-0.2-0.2l0,0c-1.9-1.7-3.9-3.3-5.9-4.8L749.3,103.6z M728.7,91.3l-0.8,1.8
		c3.6,1.6,7.1,3.4,10.5,5.4l1-1.7l-0.4-0.3l0,0l0,0l0,0l-0.1-0.1l0,0l0,0l0,0l0,0l0,0l0,0l0,0l0,0l0,0l0,0l0,0l0,0h-0.1l0,0h-0.1
		l0,0h-0.1l-0.1-0.1l0,0l0,0l0,0l0,0l0,0l-0.2-0.1l0,0l0,0l0,0c-3-1.7-6-3.2-9.1-4.6L728.7,91.3z M705.9,84.2l-0.4,2
		c3.9,0.7,7.7,1.6,11.4,2.8l0.6-1.9l-2.5-0.7l0,0l0,0l0,0h-0.1h-0.2h-0.1h-0.7h-0.1h-0.2h-0.1h-0.1h-0.2H713h-0.2h-0.1l-0.2-0.1l0,0
		l-1.5-1l0,0l-0.3-0.1l0,0l-0.2-0.1h-0.1h-0.2h-0.1H710h-0.2h-0.1H709h-0.1h-0.1h-0.2l0,0c-0.9-0.2-1.7-0.4-2.6-0.5L705.9,84.2z
		 M686.4,82.4v2c2.5,0,5,0.1,7.5,0.3l0.2-2c-2-0.2-3.9-0.2-5.9-0.3L686.4,82.4L686.4,82.4z"/>
	<path class="st1" d="M1223.1,327.5h-3.3c-2.7,0.1-5.5,0.3-8.2,0.6h-0.6l0.2,2c3.9-0.4,7.8-0.7,11.8-0.7v-2L1223.1,327.5z
		 M1199.3,330.3l-0.7,0.2h-0.1h-0.1h-0.2h-0.1h-0.8h-0.1h-0.1l0,0l0,0h-0.1h-0.1h-0.1h-0.1h-0.1h-0.1h-0.1l0,0l0,0h-0.1h-0.1h-0.1
		h-0.1h-0.1h-0.1h-0.1h-0.1h-0.2h-0.1h-0.1h-0.1h-0.1h-0.1h-0.2l0,0h-1.3l0,0h-0.2l0,0h-0.2h-0.1h-0.4h-0.1h-0.1l0,0l0,0h-0.1h-0.1
		h-0.1h-0.1l0,0l0,0l-0.2,0l0,0c-1.1,0.3-2.1,0.7-3.2,1.1l0.7,1.9c3.7-1.3,7.5-2.4,11.3-3.3l-0.5-2L1199.3,330.3z M1176.8,338.4
		c-1.8,0.9-3.6,1.9-5.3,2.9l0,0l0,0l0,0l-0.2,0.1l0,0l0,0l0,0l0,0l0,0l-0.1,0l0,0l0,0l0,0l0,0h-0.1l0,0l0,0l0,0h-0.1l0,0l0,0l0,0
		l0,0l0,0l0,0l0,0l0,0l0,0l0,0l-0.1,0.1l0,0l0,0l0,0l0,0l0,0c-1.3,0.8-2.7,1.6-4,2.5l1.1,1.7c3.3-2.1,6.7-4.1,10.2-5.8l-0.9-1.8
		L1176.8,338.4z M1156.7,351.4c-0.8,0.6-1.6,1.3-2.3,2l0,0l-0.1,0.1l0,0l0,0l0,0l0,0l0,0l0,0l0,0l-0.1,0.1l0,0l0,0l0,0l0,0l0,0l0,0
		l0,0l0,0l0,0l0,0l0,0l0,0l0,0l0,0l0,0l0,0l0,0l0,0l0,0l0,0l0,0l0,0l0,0l0,0l-0.1,0.1l0,0c-1.9,1.7-3.8,3.5-5.6,5.4l1.4,1.4
		c2.7-2.8,5.6-5.5,8.6-8l-1.3-1.5L1156.7,351.4z M1140.1,368.6c-2.4,3.2-4.7,6.5-6.7,9.9l1.7,1c2-3.4,4.2-6.6,6.6-9.8L1140.1,368.6
		L1140.1,368.6z M1127.8,389.2c-1.3,3-2.6,6.1-3.7,9.3l0,0l0,0l0,0v0.1l0,0l0,0l0,0l0,0l0,0l0,0l0,0l0,0l0,0l0,0l0,0l0,0v0.1l0,0
		l0,0l0,0v0.3l0,0v0.1l0,0l0,0l0,0l0,0l0,0l-0.3,0.8l1.9,0.6c1.2-3.7,2.6-7.4,4.2-11l-1.8-0.8L1127.8,389.2z M1120.6,412.1
		c-0.1,0.3-0.1,0.7-0.2,1l0,0l0,0l0,0l0,0l0,0l0,0l0,0c0,0,0,0.1,0,0.1v0.3l0,0v0.1l0,0l0,0l0,0l0,0l0,0l0,0l0,0v0.2l0,0l0,0l0,0
		l0,0l0,0c-0.6,3.2-1,6.5-1.2,9.8l2,0.1c0.3-3.9,0.8-7.8,1.5-11.7l-2-0.4L1120.6,412.1z M1120.8,435.9l-2,0.1c0.2,4,0.5,8,1.1,11.9
		l2-0.3C1121.4,443.7,1121,439.8,1120.8,435.9L1120.8,435.9z M1124.4,459.1l-1.9,0.5c0.8,2.9,1.7,5.8,2.8,8.6l0,0l0.2,0.5l0,0l0,0
		l0,0l0.1,0.2l0,0l0,0l0,0l0,0l0,0l0.1,0.2l0,0l0,0l0,0l0,0l0,0l0,0l0,0v0.1l0,0l0,0l0,0l0,0l0,0l0,0l0,0l0,0l0,0l0,0l0,0l0,0l0,0
		v0.1l0,0v0l0,0l0,0l0,0l0,0l0,0v0.8l0,0l0,0l0,0l0,0l0,0l0,0l0,0v0.2l0,0l0,0v0.4l0,0v0.1l0,0l0,0l0,0l0,0l0,0l0,0l1.8-0.8
		c-1.5-3.6-2.7-7.4-3.8-11.1L1124.4,459.1z M1133.2,480.8l-1.8,1c1.9,3.5,4,6.9,6.3,10.2l1.6-1.1
		C1137.2,487.6,1135.1,484.3,1133.2,480.8L1133.2,480.8z M1146.8,500l-1.5,1.3c2.7,3,5.5,5.8,8.5,8.5l1.3-1.5
		C1152.2,505.7,1149.4,503,1146.8,500z M1164.4,515.6l-1.2,1.6l0.6,0.4l0,0l0,0l0,0l0.1,0.1l0,0l0,0l0,0l0,0l0,0l0.1,0.1l0,0l0,0
		l0,0l0,0l0,0l0,0l0,0l0,0l0,0l0,0l0,0l0,0l0,0l0,0l0,0l0,0l0,0l0,0l0,0l0,0l0,0l0,0l0,0l0,0l0,0l0,0l0,0l0,0l0,0l0.1,0.1l0,0l0,0
		l0,0l0,0l0,0l0.1,0.1l0,0l0,0l0,0l0,0l0,0l0.2,0.1l0,0l0,0l0,0c2.6,1.7,5.3,3.3,8,4.8l0.9-1.8c-3.4-1.9-6.8-3.9-10-6.2
		L1164.4,515.6z M1185,526.8l-0.7,1.9c1.1,0.5,2.3,0.9,3.4,1.3l0,0l0,0l0,0l0.2,0.1l0,0l0,0l0,0l0.1,0h0.1l0,0l0,0h0.1h0.1h0.1l0,0
		l0,0l0,0l0,0l0,0h0.1h0.5l0,0h0.2l0,0h1.7l0,0h0.2h0.1h0.2l0,0h0.2l0,0l0,0h0.1h0.1h0.1h0.1h0.2l0,0l0,0l0,0l0.2,0h0.1
		c0.8,0.3,1.6,0.5,2.5,0.7l0.5-1.9c-3.8-1-7.5-2.3-11.2-3.8L1185,526.8z M1207.7,533l-0.3,2l2,0.3h0.1h0.2h0.2h0.1h2h0.2h0.6h0.2
		h0.2h0.2h0.1h0.2h0.1h0.2h0.1h0.2h0.1h0.2h0.1h0.3l0,0c1.4,0.1,2.8,0.2,4.3,0.2l0.1-2c-3.9-0.1-7.8-0.5-11.7-1.1L1207.7,533z
		 M1242.8,532.3c-3.9,0.8-7.7,1.3-11.7,1.6l0.2,2l2.4-0.2h0.8h0.2h0.1c2.8-0.3,5.6-0.7,8.3-1.3L1242.8,532.3L1242.8,532.3z
		 M1265.2,525.1c-3.6,1.6-7.3,3-11,4.2l0.6,1.9l2.2-0.7l0,0l0.2-0.1l0,0l0,0l0,0h0.1l0,0l0,0h0.1l0.1,0l0,0l0,0l0,0h0.1h0.1l0,0l0,0
		h0.1h0.1l0,0l0,0h0.1h0.2h0.1l0,0l0,0l0,0l0,0l0,0h0.1l0,0l0,0h0.1l0,0l0,0h0.1h0.1l0,0l0,0h0.1l0,0l0,0l0,0l0,0l0,0h0.1h0.1l0,0
		l0,0h0.1h0.1l0,0l0,0l0.1,0h0.1l0.1,0l0,0l0,0l0,0l0.2-0.1l0,0l0,0l0,0c1.4-0.5,2.8-1.1,4.2-1.7l0,0l0.2-0.1h0.1l0,0l0,0h0.1l0,0
		l0,0l0,0l0,0l0,0l0,0h0.2l0,0l0,0l0,0l0,0l0,0h0.2l-0.8-1.8L1265.2,525.1z M1285.3,513.1c-3.1,2.4-6.4,4.6-9.7,6.6l1,1.7
		c3.4-2.1,6.7-4.3,9.9-6.8L1285.3,513.1L1285.3,513.1z M1302.2,496.8c-2.5,3-5.2,5.9-8,8.6l1.4,1.4c1.5-1.4,2.9-2.9,4.3-4.4l0,0
		l0.1-0.1l0,0l0,0l0,0l0,0l0,0l0.1-0.1l0,0l0,0l0,0l0,0l0,0l0.1-0.1l0,0l0,0l0,0l0,0l0,0l0.1-0.1l0,0l0,0l0,0l0,0l0,0l0,0l0,0
		l0.1-0.1l0,0l0,0l0,0l0,0l0,0l0,0l0,0l0.1-0.1l0,0l0,0l0,0l0,0l0,0l0,0l0,0v0l0,0l0,0l0,0l0,0l0,0l0,0l0,0l0,0l0,0l0,0l0,0l0,0l0,0
		l0,0l0,0l0,0l0,0l0,0l0,0l0.1-0.1l0,0l0,0l0,0l0,0l0,0l0,0l0,0l0,0l0,0l0,0l0,0l0,0l0,0l0,0l0,0l0,0l0,0l0,0l0,0l0,0l0,0l0,0l0,0
		l0,0l0,0l0,0l0,0l0,0l0,0l0,0l0,0l0,0l0,0l0,0l0,0l0,0l0,0l0,0l0,0l0,0l0,0l0,0l0,0l0,0l0,0l0,0l0,0l0,0l0,0l0,0l0,0l0,0l0,0l0,0
		l0,0l0,0l0,0l0,0l0,0l0,0l0,0l0,0l0,0l0,0l0,0l0,0l0,0l0,0l0.1-0.1l0,0l0,0l0,0l0,0l0,0l0,0l0,0l0.1-0.1l0,0l0,0l0,0l0,0l0,0l0,0
		l0,0l0.1-0.1l0,0l0,0l0,0l0,0l0,0l0.1-0.1l0,0l0,0l0,0l0,0l0,0l0.1-0.1l0,0l0,0l0,0l0,0l0,0l0.1-0.1l0,0l0,0l0,0l0.5-0.6l-1.5-1.3
		L1302.2,496.8z M1314.9,477c-1.7,3.5-3.7,6.9-5.8,10.2l1.7,1.1c2.2-3.4,4.1-6.8,5.9-10.4L1314.9,477z M1322.8,454.9
		c-0.9,3.8-2,7.6-3.3,11.3l1.9,0.7l0,0v-0.1l0,0l0,0l0,0l0,0l0,0l0,0l0,0v-0.1l0,0l0,0l0,0l0,0l0,0l0,0l0,0v-0.1l0,0l0,0l0,0l0,0
		l0,0l0,0l0,0v-0.1l0,0l0,0l0,0l0,0l0,0l0,0l0,0c0,0,0-0.1,0-0.1l0,0l0,0l0,0l0,0l0,0l0,0l0,0l0.1-0.1l0,0l0,0l0,0l0,0l0,0l0,0l0,0
		V466l0,0l0,0l0,0l0,0l0,0l0,0l0,0v-0.1l0,0l0,0l0,0l0,0l0,0l0,0l0,0l0,0l0,0v-0.1l0,0l0,0l0,0l0,0l0,0l0,0l0,0v0l0,0v-0.1l0,0v-0.1
		l0,0l0,0l0,0l0,0l0,0v-0.1l0,0l0,0l0,0V464l0,0l0,0l0,0l0,0l0,0v-0.1l0,0l0,0l0,0v-0.1l0,0l0,0v-0.2l0,0v-0.1l0,0v-0.3l0,0v-0.2v0
		l0,0l0,0l0,0l0,0l0,0l0,0l0,0l0,0l0,0v-0.1l0,0l0,0l0,0l0,0l0,0l0.1-0.2l0,0l0,0l0,0c0.7-2.2,1.3-4.5,1.8-6.8l-2-0.5L1322.8,454.9z
		 M1327.4,431.5h-2v0.3c0,3.8-0.2,7.7-0.6,11.5l2,0.2c0.1-1.1,0.2-2.2,0.3-3.3l0,0l0,0l0,0l0,0l0,0v-0.3l0,0l0,0l0,0l0,0l0,0l0,0
		l0,0l0,0l0,0l0,0l0,0v-0.2l0,0l0,0l0,0l0,0l0,0l0,0l0,0l0,0l0,0l0,0l0,0l0,0l0,0l0,0l0,0V439l0,0v-0.1l0,0l0,0l0,0v-0.1l0,0v-0.2
		l0,0l0,0l0,0v-0.2l0,0l0,0l0,0V438l0,0v-0.9l0,0V437l0,0v-0.2l0,0v-0.1l0,0l0,0l0,0v-0.2l0,0v-0.2l0,0v0l0,0l0,0l0,0V436l0,0v-0.2
		l0,0v-0.1l0,0l0,0l0,0v0l0,0v-0.1l0,0v-0.3l0,0v-0.1l0,0v-0.1l0,0v-0.3l0,0l0,0l0,0v-0.1l0,0v-0.1l0,0v-0.2l0,0l0,0l0,0v-0.5l0,0
		v-0.2l0,0v-0.3l0,0l0,0l0,0v-0.4l0,0l0,0l0,0v-0.1l0,0v-0.4l0,0V432l0,0v-0.1l0,0v-0.4L1327.4,431.5z M1324.6,407.8l-1.9,0.5
		c0.9,3.8,1.6,7.7,2,11.6l2-0.2c-0.3-2.5-0.7-4.9-1.1-7.3l0,0l0,0l0,0c0-0.1,0-0.1,0-0.2l0,0l0,0l0,0l0,0l0,0v-0.2l0,0l0,0l0,0l0,0
		l0,0l0,0l0,0l0,0l0,0v-0.1v0l0,0l0,0l0,0V411l0,0l0,0l0,0l0,0l0,0v-0.2l0,0l0,0l0,0l0,0l0,0l0,0l0,0l0,0l0,0l0,0l0,0l0,0l0,0v-0.1
		l0,0l0,0l0,0l0,0l0,0l0,0l0,0v-0.2l0,0l0,0l0,0c-0.2-0.7-0.3-1.4-0.5-2.1L1324.6,407.8z M1316.5,385.2l-1.8,0.9
		c1.8,3.5,3.3,7.1,4.6,10.8l1.9-0.7c-0.1-0.3-0.2-0.5-0.3-0.8l0,0l0,0l0,0l0,0l0,0v-0.1l0,0l0,0l0,0l0,0l0,0l0,0l0,0l0,0l0,0l0,0
		l0,0l0,0l0,0v-0.1l0,0V395l0,0V395l0,0l0,0l0,0l0,0l0,0l0,0l0,0l0,0l0,0v-0.1l0,0l0,0l0,0l0,0l0,0l0,0l0,0c0,0,0-0.1-0.1-0.1l0,0
		l0,0l0,0l0,0l0,0c0-0.1,0-0.1-0.1-0.2l0,0l0,0l0,0l-0.1-0.2l0,0c-0.2-0.6-0.4-1.1-0.7-1.7l0,0l0,0l0,0l-0.1-0.2l0,0l0,0l0,0
		l-0.1-0.2l0,0l0,0l0,0l0,0l0,0l-0.1-0.1l0,0l0,0l0,0l0,0l0,0l0,0l0,0V392l0,0l0,0l0,0l0,0l0,0l0,0l0,0l0,0l0,0v-0.1l0,0l0,0l0,0
		l0,0l0,0v-0.1l0,0l0,0l0,0l0,0l0,0l0,0l0,0l0,0l0,0l0,0l0,0v-0.2l0,0l0,0l0,0v-0.2l0,0l0,0l0,0l0,0l0,0l0,0l0,0l0,0l0,0l0,0l0,0
		v-0.1l0,0l0,0l0,0l0,0l0,0l0,0l0,0v-0.1l0,0l0,0l0,0l0,0l0,0l0,0l0,0l-0.1-0.2l0,0l0,0l0,0c-0.6-1.2-1.2-2.5-1.8-3.7L1316.5,385.2z
		 M1303.4,365.2l-1.5,1.3c2.5,3,4.8,6.2,7,9.5l1.7-1.1l-0.6-0.9l0,0l0,0l0,0l-0.1-0.1l0,0l0,0l0,0l0,0l0,0l0,0l0,0l0,0l0,0v-0.1l0,0
		l0,0l0,0l0,0v-0.1l0,0l0,0l0,0l0,0l0,0l-0.1-0.1l0,0c-1.9-2.8-3.9-5.4-6-8L1303.4,365.2z M1286.1,348.7l-1.2,1.6
		c3.1,2.4,6.1,4.9,9,7.6l1.4-1.4l-0.8-0.7l0,0l0,0l0,0l0,0l0,0l-0.1-0.1l0,0l0,0l0,0l0,0l0,0l0,0l0,0l-0.1-0.1l0,0l0,0l0,0l0,0l0,0
		l0,0l0,0l0,0l0,0l0,0l0,0l0,0l0,0l0,0l0,0l0,0l0,0l0,0l0,0l0,0l0,0l0,0l0,0l0,0l0,0l0,0l0,0l0,0l-0.1-0.1l0,0l0,0l0,0l0,0l0,0
		l-0.1-0.1l0,0l0,0l0,0l0,0l0,0l-0.1-0.1l0,0l0,0l0,0l0,0l0,0l-0.2-0.1l0,0l-0.4-0.3l0,0l-0.2-0.2l0,0l-0.2-0.1l0,0l0,0l0,0
		l-0.2-0.2l0,0l-0.2-0.1l0,0l0,0l0,0l-0.1-0.1l0,0l0,0l0,0l0,0l0,0l0,0l0,0l-0.1-0.1l0,0l0,0l0,0l0,0l0,0l0,0l0,0v0l0,0l0,0l0,0l0,0
		l0,0l0,0l0,0l0,0l0,0l0,0l0,0l0,0l0,0l0,0l0,0l0,0l0,0l0,0l0,0l0,0l0,0l0,0l0,0l0,0l0,0l-0.1-0.1l0,0l0,0l0,0l0,0l0,0l0,0l0,0
		l-0.1-0.1l0,0l0,0l0,0l0,0l0,0l0,0l0,0l-0.1-0.1l0,0l0,0l0,0l0,0l0,0c-1.5-1.2-2.9-2.4-4.5-3.6L1286.1,348.7z M1265.4,336.5
		l-0.8,1.8c3.6,1.6,7.1,3.4,10.5,5.4l1-1.7C1272.6,340,1269.1,338.1,1265.4,336.5L1265.4,336.5z M1242.6,329.4l-0.4,2
		c3.9,0.7,7.7,1.7,11.4,2.9l0.6-1.9c-1.5-0.5-3-0.9-4.5-1.3l0,0h-0.2l0,0l0,0h-0.1h-0.1h-0.2h-0.1h-0.8h-0.1h-0.4h-0.2h-0.1l-0.2,0
		h-0.1l-0.2,0l0,0c-1.4-0.3-2.9-0.6-4.3-0.9L1242.6,329.4z M1223.1,327.6v2c2.5,0,5,0.1,7.4,0.3l0.1-2c-2.1-0.1-4.2-0.2-6.3-0.3
		L1223.1,327.6L1223.1,327.6z"/>
</g>
<g id="Calque_2">
	<g>
		<path class="st1" d="M636.4,6.4c1.5,0.7,2.6,1.8,3.5,3.2c0.8,1.4,1.2,3,1.2,4.9c0,1.9-0.4,3.5-1.2,4.9c-0.8,1.4-2,2.4-3.5,3.2
			c-1.5,0.7-3.2,1.1-5.2,1.1H617v7h-5.5V5.3h19.8C633.2,5.3,635,5.7,636.4,6.4z M629.4,18.9c1.2,0,2.1-0.1,2.9-0.2s1.5-0.5,2.1-1.2
			c0.6-0.6,0.9-1.6,0.9-3c0-1.3-0.3-2.3-0.9-3c-0.6-0.6-1.3-1-2.1-1.2s-1.8-0.2-2.9-0.2H617v8.7H629.4z"/>
		<path class="st1" d="M648.9,28.6c-2.7-1.9-4-4.7-4-8.4c0-3.7,1.3-6.5,4-8.4c2.7-1.9,6.3-2.9,10.9-2.9c4.6,0,8.2,1,10.9,2.9
			c2.7,1.9,4,4.7,4,8.4c0,3.7-1.3,6.5-4,8.4c-2.7,1.9-6.3,2.9-10.9,2.9C655.2,31.5,651.5,30.5,648.9,28.6z M669.1,20.2
			c0-4.5-3.1-6.8-9.3-6.8c-6.2,0-9.3,2.3-9.3,6.8c0,4.5,3.1,6.8,9.3,6.8C666,27,669.1,24.7,669.1,20.2z"/>
		<path class="st1" d="M679.6,7v-5h5.3v5H679.6z M679.6,30.7V9.6h5.3v21.1H679.6z"/>
		<path class="st1" d="M717.2,11.6c2.1,1.8,3.1,4.6,3.2,8.5v10.7h-5.3v-9.3c0-2.7-0.6-4.7-1.9-6c-1.3-1.3-3.5-1.9-6.6-1.9
			c-3.2,0-5.8,0.8-7.8,2.2c-1.9,1.5-2.9,3.7-2.9,6.6v8.4h-5.3V9.6h5.3v4.8c1.4-1.8,3.1-3.1,5.1-4.1c2-0.9,4.5-1.4,7.3-1.4
			C712.2,8.9,715.2,9.8,717.2,11.6z"/>
		<path class="st1" d="M745,14h-10.3v7.6c0,1.4,0.1,2.5,0.4,3.2c0.3,0.7,0.7,1.2,1.4,1.5c0.7,0.3,1.7,0.4,3.1,0.4
			c1.5,0,3.3-0.2,5.5-0.5v4.4c-2.5,0.4-4.8,0.6-6.7,0.6c-2.2,0-4-0.3-5.3-0.8c-1.3-0.6-2.2-1.5-2.8-2.8c-0.6-1.3-0.8-3.1-0.8-5.3V14
			h-5.8V9.6h5.8V4.9l5.3-1.7v6.4H745V14z"/>
		<path class="st1" d="M769.7,26.2c1.3-0.6,2.2-1.5,2.8-2.6h5.5c-0.6,2.5-2.2,4.4-4.6,5.8c-2.4,1.4-5.6,2.1-9.5,2.1
			c-4.6,0-8.2-1-10.9-2.9c-2.7-1.9-4-4.7-4-8.4c0-2.5,0.6-4.5,1.9-6.2c1.3-1.7,3-2.9,5.2-3.8c2.2-0.8,4.7-1.3,7.6-1.3
			c4.5,0,8.1,1,10.8,2.9s4,5.1,4,9.5h-23.8c0.2,2,1.2,3.4,2.7,4.4c1.6,0.9,3.8,1.4,6.7,1.4C766.5,27.1,768.4,26.8,769.7,26.2z
			 M754.9,17.6h17.6c-0.5-1.6-1.4-2.7-2.9-3.4c-1.5-0.7-3.5-1.1-6-1.1C758.8,13.1,755.9,14.6,754.9,17.6z"/>
	</g>
	<g>
		<path class="st1" d="M1157.3,616.1l11.7-21.2h6.2l-14.2,25.4h-7.3l-14.1-25.4h6.2L1157.3,616.1z"/>
		<path class="st1" d="M1194.7,615.8c1.3-0.6,2.2-1.5,2.8-2.6h5.5c-0.6,2.5-2.2,4.4-4.6,5.8c-2.4,1.4-5.6,2.1-9.5,2.1
			c-4.6,0-8.2-1-10.9-2.9s-4-4.7-4-8.4c0-2.5,0.6-4.5,1.9-6.2s3-2.9,5.2-3.8c2.2-0.8,4.7-1.3,7.6-1.3c4.5,0,8.1,1,10.8,2.9
			c2.6,2,4,5.1,4,9.5h-23.8c0.2,2,1.2,3.4,2.7,4.4c1.6,0.9,3.8,1.4,6.7,1.4C1191.5,616.7,1193.4,616.4,1194.7,615.8z M1179.9,607.2
			h17.6c-0.5-1.6-1.4-2.7-2.9-3.4c-1.5-0.7-3.5-1.1-6-1.1C1183.8,602.7,1180.9,604.2,1179.9,607.2z"/>
		<path class="st1" d="M1229,599.4v4.7c-1.1-0.3-2-0.5-2.9-0.6s-1.8-0.2-2.7-0.2c-1.6,0-3.2,0.3-4.8,0.9c-1.6,0.6-3.3,1.7-5.2,3.4
			v12.8h-5.3v-21.1h5.3v3.9c1.6-1.7,3.1-2.9,4.7-3.6c1.6-0.7,3.3-1,5.3-1C1225.5,598.5,1227.3,598.8,1229,599.4z"/>
		<path class="st1" d="M1254.2,603.7h-10.3v7.6c0,1.4,0.1,2.5,0.4,3.2c0.3,0.7,0.7,1.2,1.4,1.5c0.7,0.3,1.7,0.5,3.1,0.5
			c1.5,0,3.3-0.2,5.5-0.5v4.4c-2.5,0.4-4.8,0.6-6.7,0.6c-2.2,0-4-0.3-5.3-0.8s-2.2-1.5-2.8-2.8c-0.6-1.3-0.8-3.1-0.8-5.3v-8.5h-5.8
			v-4.4h5.8v-4.7l5.3-1.7v6.4h10.3V603.7z"/>
		<path class="st1" d="M1278.9,615.8c1.3-0.6,2.2-1.5,2.8-2.6h5.5c-0.6,2.5-2.2,4.4-4.6,5.8c-2.4,1.4-5.6,2.1-9.5,2.1
			c-4.6,0-8.2-1-10.9-2.9s-4-4.7-4-8.4c0-2.5,0.6-4.5,1.9-6.2s3-2.9,5.2-3.8c2.2-0.8,4.7-1.3,7.6-1.3c4.5,0,8.1,1,10.8,2.9
			c2.6,2,4,5.1,4,9.5h-23.8c0.2,2,1.2,3.4,2.7,4.4c1.6,0.9,3.8,1.4,6.7,1.4C1275.8,616.7,1277.6,616.4,1278.9,615.8z M1264.1,607.2
			h17.6c-0.5-1.6-1.4-2.7-2.9-3.4c-1.5-0.7-3.5-1.1-6-1.1C1268,602.7,1265.1,604.2,1264.1,607.2z"/>
		<path class="st1" d="M1296.4,620.4h-7.7l12.3-10.5l-12.3-10.5h7.7l8,7.3l8-7.3h7.7l-12.3,10.5l12.3,10.5h-7.7l-8-7.3L1296.4,620.4
			z"/>
	</g>
</g>
</svg>
