<svg xmlns="http://www.w3.org/2000/svg" xmlns:xlink="http://www.w3.org/1999/xlink" viewBox="0 0 1468.9 1120.91"><defs><style>.cls-1,.cls-10,.cls-11,.cls-12,.cls-4,.cls-5,.cls-8,.cls-9{fill:none;}.cls-2{clip-path:url(#clip-path);}.cls-3{opacity:0.6;}.cls-4{stroke:#1d1d1b;}.cls-10,.cls-11,.cls-12,.cls-4,.cls-5,.cls-8,.cls-9{stroke-miterlimit:10;}.cls-10,.cls-11,.cls-12,.cls-5,.cls-9{stroke:#818187;}.cls-6{fill:#e95925;}.cls-7{fill:#fff;}.cls-8{stroke:#000;stroke-width:4px;}.cls-10,.cls-9{stroke-width:0.75px;}.cls-10,.cls-12{stroke-dasharray:11.95 11.95;}.cls-11,.cls-12{stroke-width:0.5px;}</style><clipPath id="clip-path" transform="translate(0 65)"><rect class="cls-1" x="351.8" y="126.31" width="713" height="763.55" transform="translate(343.68 -283.68) rotate(29.62)"/></clipPath></defs><title>beton13</title><g id="Calque_2" data-name="Calque 2"><g id="Calque_1-2" data-name="Calque 1"><g class="cls-2"><image width="700" height="689" transform="translate(550.32 0) rotate(29.62) scale(1.19)" xlink:href="betonarm.png"/></g><g id="regle_10cm" data-name="regle 10cm" class="cls-3"><polyline class="cls-4" points="165.1 828.06 165.1 884.66 173.6 884.66 182 884.66 190.5 884.66 199 884.66 207.5 884.66 216 884.66 224.5 884.66 233 884.66 241.5 884.66 250 884.66"/><line class="cls-4" x1="173.6" y1="884.66" x2="173.6" y2="863.36"/><line class="cls-4" x1="182" y1="884.66" x2="182" y2="863.36"/><line class="cls-4" x1="190.5" y1="884.66" x2="190.5" y2="863.36"/><line class="cls-4" x1="199" y1="884.66" x2="199" y2="863.36"/><line class="cls-4" x1="216" y1="884.66" x2="216" y2="863.36"/><line class="cls-4" x1="224.5" y1="884.66" x2="224.5" y2="863.36"/><line class="cls-4" x1="233" y1="884.66" x2="233" y2="863.36"/><line class="cls-4" x1="241.5" y1="884.66" x2="241.5" y2="863.36"/><line class="cls-4" x1="207.5" y1="884.66" x2="207.5" y2="842.16"/><polyline class="cls-4" points="250 828.06 250 884.66 258.4 884.66 266.9 884.66 275.4 884.66 283.9 884.66 292.4 884.66 300.9 884.66 309.4 884.66 317.9 884.66 326.4 884.66 334.8 884.66"/><line class="cls-4" x1="258.4" y1="884.66" x2="258.4" y2="863.36"/><line class="cls-4" x1="266.9" y1="884.66" x2="266.9" y2="863.36"/><line class="cls-4" x1="275.4" y1="884.66" x2="275.4" y2="863.36"/><line class="cls-4" x1="283.9" y1="884.66" x2="283.9" y2="863.36"/><line class="cls-4" x1="300.9" y1="884.66" x2="300.9" y2="863.36"/><line class="cls-4" x1="309.4" y1="884.66" x2="309.4" y2="863.36"/><line class="cls-4" x1="317.9" y1="884.66" x2="317.9" y2="863.36"/><line class="cls-4" x1="326.4" y1="884.66" x2="326.4" y2="863.36"/><line class="cls-4" x1="292.4" y1="884.66" x2="292.4" y2="842.16"/><polyline class="cls-4" points="334.8 828.06 334.8 884.66 343.3 884.66 351.8 884.66 360.3 884.66 368.8 884.66 377.3 884.66 385.8 884.66 394.3 884.66 402.7 884.66 411.2 884.66 419.7 884.66"/><line class="cls-4" x1="343.3" y1="884.66" x2="343.3" y2="863.36"/><line class="cls-4" x1="351.8" y1="884.66" x2="351.8" y2="863.36"/><line class="cls-4" x1="360.3" y1="884.66" x2="360.3" y2="863.36"/><line class="cls-4" x1="368.8" y1="884.66" x2="368.8" y2="863.36"/><line class="cls-4" x1="385.8" y1="884.66" x2="385.8" y2="863.36"/><line class="cls-4" x1="394.3" y1="884.66" x2="394.3" y2="863.36"/><line class="cls-4" x1="402.7" y1="884.66" x2="402.7" y2="863.36"/><line class="cls-4" x1="411.2" y1="884.66" x2="411.2" y2="863.36"/><line class="cls-4" x1="377.3" y1="884.66" x2="377.3" y2="842.16"/><polyline class="cls-4" points="419.7 828.06 419.7 884.66 428.2 884.66 436.7 884.66 445.2 884.66 453.7 884.66 462.1 884.66 470.6 884.66 479.1 884.66 487.6 884.66 496.1 884.66 504.6 884.66"/><line class="cls-4" x1="428.2" y1="884.66" x2="428.2" y2="863.36"/><line class="cls-4" x1="436.7" y1="884.66" x2="436.7" y2="863.36"/><line class="cls-4" x1="445.2" y1="884.66" x2="445.2" y2="863.36"/><line class="cls-4" x1="453.7" y1="884.66" x2="453.7" y2="863.36"/><line class="cls-4" x1="470.6" y1="884.66" x2="470.7" y2="863.36"/><line class="cls-4" x1="479.1" y1="884.66" x2="479.1" y2="863.36"/><line class="cls-4" x1="487.6" y1="884.66" x2="487.6" y2="863.36"/><line class="cls-4" x1="496.1" y1="884.66" x2="496.1" y2="863.36"/><line class="cls-4" x1="462.1" y1="884.66" x2="462.1" y2="842.16"/><polyline class="cls-4" points="504.6 828.06 504.6 884.66 513.1 884.66 521.6 884.66 530.1 884.66 538.5 884.66 547 884.66 555.5 884.66 564 884.66 572.5 884.66 581 884.66 589.5 884.66"/><line class="cls-4" x1="513.1" y1="884.66" x2="513.1" y2="863.36"/><line class="cls-4" x1="521.6" y1="884.66" x2="521.6" y2="863.36"/><line class="cls-4" x1="530.1" y1="884.66" x2="530.1" y2="863.36"/><line class="cls-4" x1="538.5" y1="884.66" x2="538.5" y2="863.36"/><line class="cls-4" x1="555.5" y1="884.66" x2="555.5" y2="863.36"/><line class="cls-4" x1="564" y1="884.66" x2="564" y2="863.36"/><line class="cls-4" x1="572.5" y1="884.66" x2="572.5" y2="863.36"/><line class="cls-4" x1="581" y1="884.66" x2="581" y2="863.36"/><line class="cls-4" x1="547" y1="884.66" x2="547" y2="842.16"/><polyline class="cls-4" points="589.5 828.06 589.5 884.66 597.9 884.66 606.4 884.66 614.9 884.66 623.4 884.66 631.9 884.66 640.4 884.66 648.9 884.66 657.4 884.66 665.9 884.66 674.4 884.66"/><line class="cls-4" x1="597.9" y1="884.66" x2="598" y2="863.36"/><line class="cls-4" x1="606.4" y1="884.66" x2="606.4" y2="863.36"/><line class="cls-4" x1="614.9" y1="884.66" x2="614.9" y2="863.36"/><line class="cls-4" x1="623.4" y1="884.66" x2="623.4" y2="863.36"/><line class="cls-4" x1="640.4" y1="884.66" x2="640.4" y2="863.36"/><line class="cls-4" x1="648.9" y1="884.66" x2="648.9" y2="863.36"/><line class="cls-4" x1="657.4" y1="884.66" x2="657.4" y2="863.36"/><line class="cls-4" x1="665.9" y1="884.66" x2="665.9" y2="863.36"/><line class="cls-4" x1="631.9" y1="884.66" x2="631.9" y2="842.16"/><polyline class="cls-4" points="674.4 828.06 674.4 884.66 682.8 884.66 691.3 884.66 699.8 884.66 708.3 884.66 716.8 884.66 725.3 884.66 733.8 884.66 742.3 884.66 750.7 884.66 759.2 884.66"/><line class="cls-4" x1="682.8" y1="884.66" x2="682.8" y2="863.36"/><line class="cls-4" x1="691.3" y1="884.66" x2="691.3" y2="863.36"/><line class="cls-4" x1="699.8" y1="884.66" x2="699.8" y2="863.36"/><line class="cls-4" x1="708.3" y1="884.66" x2="708.3" y2="863.36"/><line class="cls-4" x1="725.3" y1="884.66" x2="725.3" y2="863.36"/><line class="cls-4" x1="733.8" y1="884.66" x2="733.8" y2="863.36"/><line class="cls-4" x1="742.2" y1="884.66" x2="742.2" y2="863.36"/><line class="cls-4" x1="750.7" y1="884.66" x2="750.7" y2="863.36"/><line class="cls-4" x1="716.8" y1="884.66" x2="716.8" y2="842.16"/><polyline class="cls-4" points="759.2 828.06 759.2 884.66 767.7 884.66 776.2 884.66 784.7 884.66 793.2 884.66 801.7 884.66 810.1 884.66 818.6 884.66 827.1 884.66 835.6 884.66 844.1 884.66"/><line class="cls-4" x1="767.7" y1="884.66" x2="767.7" y2="863.36"/><line class="cls-4" x1="776.2" y1="884.66" x2="776.2" y2="863.36"/><line class="cls-4" x1="784.7" y1="884.66" x2="784.7" y2="863.36"/><line class="cls-4" x1="793.2" y1="884.66" x2="793.2" y2="863.36"/><line class="cls-4" x1="810.1" y1="884.66" x2="810.2" y2="863.36"/><line class="cls-4" x1="818.6" y1="884.66" x2="818.6" y2="863.36"/><line class="cls-4" x1="827.1" y1="884.66" x2="827.1" y2="863.36"/><line class="cls-4" x1="835.6" y1="884.66" x2="835.6" y2="863.36"/><line class="cls-4" x1="801.7" y1="884.66" x2="801.7" y2="842.16"/><polyline class="cls-4" points="844.1 828.06 844.1 884.66 852.6 884.66 861.1 884.66 869.6 884.66 878.1 884.66 886.5 884.66 895 884.66 903.5 884.66 912 884.66 920.5 884.66 929 884.66"/><line class="cls-4" x1="852.6" y1="884.66" x2="852.6" y2="863.36"/><line class="cls-4" x1="861.1" y1="884.66" x2="861.1" y2="863.36"/><line class="cls-4" x1="869.6" y1="884.66" x2="869.6" y2="863.36"/><line class="cls-4" x1="878.1" y1="884.66" x2="878.1" y2="863.36"/><line class="cls-4" x1="895" y1="884.66" x2="895" y2="863.36"/><line class="cls-4" x1="903.5" y1="884.66" x2="903.5" y2="863.36"/><line class="cls-4" x1="912" y1="884.66" x2="912" y2="863.36"/><line class="cls-4" x1="920.5" y1="884.66" x2="920.5" y2="863.36"/><line class="cls-4" x1="886.5" y1="884.66" x2="886.5" y2="842.16"/><polyline class="cls-4" points="929 828.06 929 884.66 937.5 884.66 946 884.66 954.4 884.66 962.9 884.66 971.4 884.66 979.9 884.66 988.4 884.66 996.9 884.66 1005.4 884.66 1013.9 884.66"/><line class="cls-4" x1="937.5" y1="884.66" x2="937.5" y2="863.36"/><line class="cls-4" x1="946" y1="884.66" x2="946" y2="863.36"/><line class="cls-4" x1="954.4" y1="884.66" x2="954.4" y2="863.36"/><line class="cls-4" x1="962.9" y1="884.66" x2="962.9" y2="863.36"/><line class="cls-4" x1="979.9" y1="884.66" x2="979.9" y2="863.36"/><line class="cls-4" x1="988.4" y1="884.66" x2="988.4" y2="863.36"/><line class="cls-4" x1="996.9" y1="884.66" x2="996.9" y2="863.36"/><line class="cls-4" x1="1005.4" y1="884.66" x2="1005.4" y2="863.36"/><line class="cls-4" x1="971.4" y1="884.66" x2="971.4" y2="842.16"/><polyline class="cls-4" points="1005.4 828.06 1005.4 884.66 1013.8 884.66 1022.3 884.66 1030.8 884.66 1039.3 884.66 1047.8 884.66 1056.3 884.66 1064.8 884.66 1073.3 884.66 1081.8 884.66 1090.3 884.66"/><line class="cls-4" x1="1013.8" y1="884.66" x2="1013.9" y2="863.36"/><line class="cls-4" x1="1022.3" y1="884.66" x2="1022.3" y2="863.36"/><line class="cls-4" x1="1030.8" y1="884.66" x2="1030.8" y2="863.36"/><line class="cls-4" x1="1039.3" y1="884.66" x2="1039.3" y2="863.36"/><line class="cls-4" x1="1056.3" y1="884.66" x2="1056.3" y2="863.36"/><line class="cls-4" x1="1064.8" y1="884.66" x2="1064.8" y2="863.36"/><line class="cls-4" x1="1073.3" y1="884.66" x2="1073.3" y2="863.36"/><line class="cls-4" x1="1081.8" y1="884.66" x2="1081.8" y2="863.36"/><line class="cls-4" x1="1047.8" y1="884.66" x2="1047.8" y2="842.16"/><polyline class="cls-4" points="1081.8 828.06 1081.8 884.66 1090.2 884.66 1098.7 884.66 1107.2 884.66 1115.7 884.66 1124.2 884.66 1132.7 884.66 1141.2 884.66 1149.7 884.66 1158.2 884.66 1166.7 884.66"/><line class="cls-4" x1="1090.2" y1="884.66" x2="1090.2" y2="863.36"/><line class="cls-4" x1="1098.7" y1="884.66" x2="1098.7" y2="863.36"/><line class="cls-4" x1="1107.2" y1="884.66" x2="1107.2" y2="863.36"/><line class="cls-4" x1="1115.7" y1="884.66" x2="1115.7" y2="863.36"/><line class="cls-4" x1="1132.7" y1="884.66" x2="1132.7" y2="863.36"/><line class="cls-4" x1="1141.2" y1="884.66" x2="1141.2" y2="863.36"/><line class="cls-4" x1="1149.7" y1="884.66" x2="1149.7" y2="863.36"/><line class="cls-4" x1="1158.2" y1="884.66" x2="1158.2" y2="863.36"/><line class="cls-4" x1="1124.2" y1="884.66" x2="1124.2" y2="842.16"/><polyline class="cls-4" points="1158.2 828.06 1158.2 884.66 1166.6 884.66 1175.1 884.66 1183.6 884.66 1192.1 884.66 1200.6 884.66 1209.1 884.66 1217.6 884.66 1226.1 884.66 1234.6 884.66 1243 884.66 1243 828.06"/><line class="cls-4" x1="1166.6" y1="884.66" x2="1166.6" y2="863.36"/><line class="cls-4" x1="1175.1" y1="884.66" x2="1175.1" y2="863.36"/><line class="cls-4" x1="1183.6" y1="884.66" x2="1183.6" y2="863.36"/><line class="cls-4" x1="1192.1" y1="884.66" x2="1192.1" y2="863.36"/><line class="cls-4" x1="1209.1" y1="884.66" x2="1209.1" y2="863.36"/><line class="cls-4" x1="1217.6" y1="884.66" x2="1217.6" y2="863.36"/><line class="cls-4" x1="1226.1" y1="884.66" x2="1226.1" y2="863.36"/><line class="cls-4" x1="1234.6" y1="884.66" x2="1234.6" y2="863.36"/><line class="cls-4" x1="1200.6" y1="884.66" x2="1200.6" y2="842.16"/></g><g id="regle_10cm_300_2" data-name="regle 10cm 300 2" class="cls-3"><polyline class="cls-5" points="1348 675.76 1404.6 675.76 1404.6 667.36 1404.6 658.86 1404.6 650.36 1404.6 641.86 1404.6 633.36 1404.6 624.86 1404.6 616.36 1404.6 607.96 1404.6 599.46 1404.6 590.96"/><line class="cls-5" x1="1404.6" y1="667.36" x2="1383.4" y2="667.36"/><line class="cls-5" x1="1404.6" y1="658.86" x2="1383.4" y2="658.86"/><line class="cls-5" x1="1404.6" y1="650.36" x2="1383.4" y2="650.36"/><line class="cls-5" x1="1404.6" y1="641.86" x2="1383.4" y2="641.86"/><line class="cls-5" x1="1404.6" y1="624.86" x2="1383.4" y2="624.86"/><line class="cls-5" x1="1404.6" y1="616.36" x2="1383.4" y2="616.36"/><line class="cls-5" x1="1404.6" y1="607.96" x2="1383.4" y2="607.96"/><line class="cls-5" x1="1404.6" y1="599.46" x2="1383.4" y2="599.46"/><line class="cls-5" x1="1404.6" y1="633.36" x2="1362.1" y2="633.36"/><polyline class="cls-5" points="1348 599.46 1404.6 599.46 1404.6 590.96 1404.6 582.46 1404.6 573.96 1404.6 565.46 1404.6 556.96 1404.6 548.46 1404.6 540.06 1404.6 531.56 1404.6 523.06 1404.6 514.56"/><line class="cls-5" x1="1404.6" y1="590.96" x2="1383.4" y2="590.96"/><line class="cls-5" x1="1404.6" y1="582.46" x2="1383.4" y2="582.46"/><line class="cls-5" x1="1404.6" y1="573.96" x2="1383.4" y2="573.96"/><line class="cls-5" x1="1404.6" y1="565.46" x2="1383.4" y2="565.46"/><line class="cls-5" x1="1404.6" y1="548.46" x2="1383.4" y2="548.46"/><line class="cls-5" x1="1404.6" y1="540.06" x2="1383.4" y2="540.06"/><line class="cls-5" x1="1404.6" y1="531.56" x2="1383.4" y2="531.56"/><line class="cls-5" x1="1404.6" y1="523.06" x2="1383.4" y2="523.06"/><line class="cls-5" x1="1404.6" y1="556.96" x2="1362.1" y2="556.96"/><polyline class="cls-5" points="1348 523.06 1404.6 523.06 1404.6 514.56 1404.6 506.06 1404.6 497.56 1404.6 489.06 1404.6 480.56 1404.6 472.16 1404.6 463.66 1404.6 455.16 1404.6 446.66 1404.6 438.16"/><line class="cls-5" x1="1404.6" y1="514.56" x2="1383.4" y2="514.56"/><line class="cls-5" x1="1404.6" y1="506.06" x2="1383.4" y2="506.06"/><line class="cls-5" x1="1404.6" y1="497.56" x2="1383.4" y2="497.56"/><line class="cls-5" x1="1404.6" y1="489.06" x2="1383.4" y2="489.06"/><line class="cls-5" x1="1404.6" y1="472.16" x2="1383.4" y2="472.16"/><line class="cls-5" x1="1404.6" y1="463.66" x2="1383.4" y2="463.66"/><line class="cls-5" x1="1404.6" y1="455.16" x2="1383.4" y2="455.16"/><line class="cls-5" x1="1404.6" y1="446.66" x2="1383.4" y2="446.66"/><line class="cls-5" x1="1404.6" y1="480.56" x2="1362.1" y2="480.56"/><polyline class="cls-5" points="1348 446.66 1404.6 446.66 1404.6 438.16 1404.6 429.66 1404.6 421.16 1404.6 412.66 1404.6 404.26 1404.6 395.76 1404.6 387.26 1404.6 378.76 1404.6 370.26 1404.6 361.76 1348 361.76"/><line class="cls-5" x1="1404.6" y1="438.16" x2="1383.4" y2="438.16"/><line class="cls-5" x1="1404.6" y1="429.66" x2="1383.4" y2="429.66"/><line class="cls-5" x1="1404.6" y1="421.16" x2="1383.4" y2="421.16"/><line class="cls-5" x1="1404.6" y1="412.66" x2="1383.4" y2="412.66"/><line class="cls-5" x1="1404.6" y1="395.76" x2="1383.4" y2="395.76"/><line class="cls-5" x1="1404.6" y1="387.26" x2="1383.4" y2="387.26"/><line class="cls-5" x1="1404.6" y1="378.76" x2="1383.4" y2="378.76"/><line class="cls-5" x1="1404.6" y1="370.26" x2="1383.4" y2="370.26"/><line class="cls-5" x1="1404.6" y1="404.26" x2="1362.1" y2="404.26"/></g><path class="cls-6" d="M328.5,300.46v98.8H289.9v-59.8l-25.2,59.8H228.9l-25.4-59.9v59.9H164.9v-98.8h60.4l21.6,52.8,21.4-52.8Z" transform="translate(0 65)"/><path class="cls-6" d="M356.2,390.66c-8.4-7.2-12.7-17.2-12.7-30s4.2-22.7,12.7-29.8,20.8-10.8,37.1-10.8,28.7,3.6,37.1,10.8,12.7,17.1,12.7,29.8c0,8.4-1.9,15.7-5.6,21.8s-9.3,10.8-16.8,14.1-16.6,5-27.4,5C377,401.46,364.6,397.86,356.2,390.66Zm69-30c0-17.3-10.6-26-31.9-26-10.6,0-18.6,2.1-24,6.4s-8,10.8-8,19.6c0,17.5,10.7,26.2,32,26.2s32-8.8,31.9-26.2Z" transform="translate(0 65)"/><path class="cls-6" d="M554.1,359.36v-58.9h38.6v98.8H535.4l-38.9-58.9v58.9H457.9v-98.8h57.3Z" transform="translate(0 65)"/><path class="cls-6" d="M705.3,361.86c0,13.4-3.9,23.3-11.6,29.8s-19.9,9.7-36.4,9.7c-16.7,0-28.8-3.2-36.5-9.7s-11.5-16.4-11.5-29.8v-39.4h14v39.2a36.54,36.54,0,0,0,2.3,13.5c1.5,3.9,4.8,7.2,9.8,9.8s12.3,4,21.9,4,16.9-1.3,21.9-4,8.3-6,9.9-9.9a36,36,0,0,0,2.3-13.4v-39.2h13.8Z" transform="translate(0 65)"/><path class="cls-6" d="M885.7,300.46v98.8H847.1v-59.8l-25.2,59.8H786l-25.4-59.9v59.9H722v-98.8h60.4l21.5,52.8,21.4-52.8Z" transform="translate(0 65)"/><path class="cls-6" d="M983,322.56v12.2H916.2v20.1h64.6V367H916.2v20.2H983v12.1H902.2v-76.7Z" transform="translate(0 65)"/><path class="cls-6" d="M1094.9,359.36v-58.9h38.6v98.8h-57.3l-38.9-58.9v58.9H998.7v-98.8H1056Z" transform="translate(0 65)"/><path class="cls-6" d="M1242.9,322.56V335h-40v64.3H1189V335h-40v-12.4Z" transform="translate(0 65)"/><path class="cls-6" d="M335.9,512.46v28.6H272.8v7.8h60.4v25.9H272.8v7.8h63.1v28.7H234.2v-98.8Z" transform="translate(0 65)"/><path class="cls-6" d="M373.3,611.26H352.7L395.8,573l-43.1-38.4h20.6l32,28.7,32.1-28.7H458L414.8,573l43.2,38.3H437.4l-32.1-28.7Z" transform="translate(0 65)"/><path class="cls-6" d="M591.2,512.46v32.3H551.5v66.5H512.9v-66.5H473.1v-32.3Z" transform="translate(0 65)"/><path class="cls-6" d="M687.2,534.56v12.2H620.4v20.1H685V579H620.4v20.2h66.8v12.1H606.5v-76.7Z" transform="translate(0 65)"/><path class="cls-6" d="M799.1,571.36v-58.9h38.6v98.8H780.4l-38.9-58.9v58.9H702.9v-98.8h57.3Z" transform="translate(0 65)"/><path class="cls-6" d="M928.1,538.76a32.52,32.52,0,0,1,13.6,12.9q5.1,8.55,5.1,21.3c0,8.5-1.7,15.5-5.1,21.2a33.15,33.15,0,0,1-13.6,12.9,41.55,41.55,0,0,1-19,4.2H854.2v-76.7h54.9A41.55,41.55,0,0,1,928.1,538.76Zm-26,60c7,0,12.6-.7,16.8-2.2a17.45,17.45,0,0,0,9.7-7.8q3.3-5.55,3.3-15.9c0-6.9-1.1-12.2-3.3-16a17.12,17.12,0,0,0-9.7-7.8c-4.2-1.5-9.9-2.2-16.8-2.2H868.3v51.8Z" transform="translate(0 65)"/><path class="cls-6" d="M1064.1,512.46v28.6H1001v7.8h60.4v25.9H1001v7.8h63.1v28.7H962.4v-98.8Z" transform="translate(0 65)"/><path class="cls-6" d="M1154.9,538.76a32.52,32.52,0,0,1,13.6,12.9q5.1,8.55,5.1,21.3c0,8.5-1.7,15.5-5.1,21.2a33.15,33.15,0,0,1-13.6,12.9,41.55,41.55,0,0,1-19,4.2H1081v-76.7h54.9A41.55,41.55,0,0,1,1154.9,538.76Zm-26.1,60c7,0,12.6-.7,16.9-2.2a17.45,17.45,0,0,0,9.7-7.8q3.3-5.55,3.3-15.9c0-6.9-1.1-12.2-3.3-16a17.12,17.12,0,0,0-9.7-7.8c-4.3-1.5-9.9-2.2-16.9-2.2H1095v51.8Z" transform="translate(0 65)"/><path class="cls-7" d="M321.9,303v96.3h-21v-77.6l-44.6,77.6H237.1l-44.7-77.6v77.6H171.5V303h32.9l42.3,72.3L288.9,303Z" transform="translate(0 65)"/><path class="cls-7" d="M565.2,379.86V303h21v96.3H555.8l-70.5-76.9v76.9H464.4V303h30.5Z" transform="translate(0 65)"/><path class="cls-7" d="M879.1,303v96.3h-21v-77.6l-44.6,77.6H794.3l-44.7-77.6v77.6H728.7V303h32.9l42.3,72.3L846.2,303Z" transform="translate(0 65)"/><path class="cls-7" d="M1106,379.86V303h21v96.3h-30.4l-70.5-76.9v76.9h-20.9V303h30.4Z" transform="translate(0 65)"/><path class="cls-7" d="M335.5,515v17.5h-80v22h77.3V572H255.5v22h80v17.3H234.6V515Z" transform="translate(0 65)"/><path class="cls-7" d="M590.8,515v18.3H542.7v78h-21v-78H473.6V515Z" transform="translate(0 65)"/><path class="cls-7" d="M810.2,591.86V515h21v96.3H800.8l-70.5-76.9v76.9H709.4V515h30.4Z" transform="translate(0 65)"/><path class="cls-7" d="M1063.7,515v17.5h-80v22H1061V572H983.7v22h80v17.3H962.8V515Z" transform="translate(0 65)"/><polyline class="cls-8" points="2 261.46 2 121.16 142.1 121.16"/><polyline class="cls-8" points="141 1095.16 2 1095.16 2 954.86"/><polyline class="cls-8" points="1466.9 954.86 1466.9 1095.16 1315.7 1095.16"/><polyline class="cls-8" points="1315.7 121.16 1466.9 121.16 1466.9 261.36"/><path d="M1238.2,1029.56l9.6-16.2h.9l-10,16.8h-1l-10-16.8h.9Z" transform="translate(0 65)"/><path d="M1269.6,1020.66a6.77,6.77,0,0,1-2.6,1.8,34.47,34.47,0,0,1-4.2,1.4c-1.6.5-3,.9-4,1.3a7.32,7.32,0,0,0-2.6,1.7,4.32,4.32,0,0,0-1.3,2.6h15.7v.7h-16.5v-.2a4.72,4.72,0,0,1,1.2-3.2,8,8,0,0,1,2.8-2,32.55,32.55,0,0,1,4.4-1.5c1.7-.5,3-1,3.9-1.3a7.76,7.76,0,0,0,2.4-1.6,3.65,3.65,0,0,0-.2-5.2c-.2-.1-.3-.3-.5-.4a8.94,8.94,0,0,0-4.8-1.1,10.5,10.5,0,0,0-5.7,1.4,4.55,4.55,0,0,0-2,4h-.8a5,5,0,0,1,2.2-4.5,10.81,10.81,0,0,1,6.3-1.6,10,10,0,0,1,5.4,1.2,4.37,4.37,0,0,1,1.9,3.6A3.2,3.2,0,0,1,1269.6,1020.66Z" transform="translate(0 65)"/><path d="M1276.2,1030.26v-1.2h1.3v1.2Z" transform="translate(0 65)"/><path d="M1284.1,1029.56a7.71,7.71,0,0,1-3.1-3.1,9.57,9.57,0,0,1-1.1-4.7,9.2,9.2,0,0,1,1.1-4.6,7.71,7.71,0,0,1,3.1-3.1,10,10,0,0,1,9.2,0,7.71,7.71,0,0,1,3.1,3.1,9.2,9.2,0,0,1,1.1,4.6,9.84,9.84,0,0,1-1.1,4.7,7.71,7.71,0,0,1-3.1,3.1,10,10,0,0,1-9.2,0Zm8.8-.6a7.1,7.1,0,0,0,2.8-2.9,9.33,9.33,0,0,0,0-8.6,6.86,6.86,0,0,0-2.8-2.8,9.32,9.32,0,0,0-8.3,0,6.86,6.86,0,0,0-2.8,2.8,9.75,9.75,0,0,0,0,8.6,7.1,7.1,0,0,0,2.8,2.9,8.68,8.68,0,0,0,4.2,1,8.57,8.57,0,0,0,4.1-1Z" transform="translate(0 65)"/><path d="M1450.8,855a4.52,4.52,0,0,1,2-2.3,5.87,5.87,0,0,1,6,0,5.5,5.5,0,0,1,2,2.3,8.42,8.42,0,0,1,.7,3.5v10.3h5.4v.8h-16.8v-11A8.57,8.57,0,0,1,1450.8,855Zm10,3.5a6.64,6.64,0,0,0-1.3-4.3,5.07,5.07,0,0,0-7.2-.2l-.2.2a6.64,6.64,0,0,0-1.3,4.3v10.3h10Z" transform="translate(0 65)"/><path d="M1450.8,832.16a4.52,4.52,0,0,1,2-2.3,5.87,5.87,0,0,1,6,0,5.5,5.5,0,0,1,2,2.3,8.42,8.42,0,0,1,.7,3.5V846h5.4v.8h-16.8v-11A8.57,8.57,0,0,1,1450.8,832.16Zm10,3.5a6.64,6.64,0,0,0-1.3-4.3,5.07,5.07,0,0,0-7.2-.2l-.2.2a6.64,6.64,0,0,0-1.3,4.3V846h10Z" transform="translate(0 65)"/><path d="M203.3,53.76a4.58,4.58,0,0,1-2.1,3.9c-1.4.9-3.6,1.4-6.7,1.4s-5.3-.5-6.7-1.4a4.58,4.58,0,0,1-2.1-3.9c0-2.4,1.6-4,4.9-4.6-2.3-.6-3.5-1.8-3.5-3.6a3.56,3.56,0,0,1,1.7-3.1c1.1-.8,3-1.1,5.7-1.1,4.9,0,7.4,1.4,7.4,4.2,0,1.8-1.2,3-3.5,3.6C201.7,49.76,203.3,51.36,203.3,53.76Zm-2.7,3.4a3.86,3.86,0,0,0,1.9-3.3,3.53,3.53,0,0,0-2-3.1,18,18,0,0,0-12.1,0,3.53,3.53,0,0,0-2,3.1,3.63,3.63,0,0,0,1.9,3.3c1.3.8,3.3,1.2,6.1,1.2s4.9-.4,6.2-1.2Zm-6.1-8.3q6.6,0,6.6-3.3a2.88,2.88,0,0,0-1.6-2.6,14.34,14.34,0,0,0-10,0,2.88,2.88,0,0,0-1.6,2.6Q187.9,48.86,194.5,48.86Z" transform="translate(0 65)"/><path d="M233.8,57.76l7-15.9h.8l-7.4,16.8h-.9l-8.2-16.1-8.2,16.1H216l-7.4-16.8h.8l7,15.9,8.1-15.9h1Z" transform="translate(0 65)"/><path d="M244.3,58.56v-1.2h1.3v1.2Z" transform="translate(0 65)"/><path d="M266.1,51.26a3.61,3.61,0,0,1,1,2.8,4.06,4.06,0,0,1-2,3.7c-1.3.9-3.3,1.3-6,1.3a11,11,0,0,1-6.2-1.5,5,5,0,0,1-2.2-4.3h.8a4.25,4.25,0,0,0,2.2,3.9,11.74,11.74,0,0,0,5.8,1.3,9.8,9.8,0,0,0,5.1-1.1,3.38,3.38,0,0,0,1.8-3.3,2.8,2.8,0,0,0-1-2.4,5.6,5.6,0,0,0-2.9-1,31.33,31.33,0,0,0-5.3-.2v-.7a43.61,43.61,0,0,0,5.1-.3,6.3,6.3,0,0,0,2.9-1,2.8,2.8,0,0,0,1-2.4c0-2.6-2.3-3.9-6.8-3.9a11.1,11.1,0,0,0-5.9,1.3,4.28,4.28,0,0,0-2,3.9h-.8a5.1,5.1,0,0,1,2.1-4.4,11.4,11.4,0,0,1,6.2-1.5c2.7,0,4.7.4,5.9,1.2a3.74,3.74,0,0,1,1.9,3.3,4.1,4.1,0,0,1-.9,2.8,4.89,4.89,0,0,1-2.7,1.3A5.65,5.65,0,0,1,266.1,51.26Z" transform="translate(0 65)"/><path d="M287.3,43.36a7.52,7.52,0,0,1,2.1,5.7c0,3.7-.7,6.3-2.2,7.8a7.62,7.62,0,0,1-6.1,2.2,24.33,24.33,0,0,1-3.8-.3c-1.2-.2-2.5-.4-3.8-.7v-.7c1.7.3,3,.6,4,.8a17.74,17.74,0,0,0,3.2.2,10.08,10.08,0,0,0,4.5-.9,5.47,5.47,0,0,0,2.5-2.9,13.18,13.18,0,0,0,.8-5.2,6.48,6.48,0,0,1-2.8,3.1,11.72,11.72,0,0,1-5.5,1.3,11,11,0,0,1-5.9-1.4,6,6,0,0,1-.8-8.4l.9-.9a10.81,10.81,0,0,1,6.3-1.6C283.8,41.36,285.9,42,287.3,43.36Zm-2.8,8.9a7,7,0,0,0,2.8-1.9,4.19,4.19,0,0,0,1-2.8,5,5,0,0,0-.8-2.7,5.46,5.46,0,0,0-2.5-2,9.68,9.68,0,0,0-4.1-.8,10.84,10.84,0,0,0-5.8,1.4,4.55,4.55,0,0,0-2,4,4.94,4.94,0,0,0,1.8,4.1,9.43,9.43,0,0,0,5.5,1.4A11.41,11.41,0,0,0,284.5,52.26Z" transform="translate(0 65)"/><path d="M312,53.76a4.58,4.58,0,0,1-2.1,3.9c-1.4.9-3.6,1.4-6.7,1.4s-5.3-.5-6.7-1.4a4.58,4.58,0,0,1-2.1-3.9c0-2.4,1.6-4,4.9-4.6-2.3-.6-3.5-1.8-3.5-3.6a3.56,3.56,0,0,1,1.7-3.1c1.1-.8,3-1.1,5.7-1.1,4.9,0,7.3,1.4,7.3,4.2,0,1.8-1.1,3-3.5,3.6C310.4,49.76,312,51.36,312,53.76Zm-2.7,3.4a3.86,3.86,0,0,0,1.9-3.3,3.53,3.53,0,0,0-2-3.1,18,18,0,0,0-12.1,0,3.42,3.42,0,0,0-2,3.1,3.63,3.63,0,0,0,1.9,3.3c1.3.8,3.3,1.2,6.1,1.2S308,58,309.3,57.16Zm-6-8.3q6.6,0,6.6-3.3a2.88,2.88,0,0,0-1.6-2.6,14.34,14.34,0,0,0-10,0,2.88,2.88,0,0,0-1.6,2.6q0,3.3,6.6,3.3Z" transform="translate(0 65)"/><path d="M318.1,45.56a8.33,8.33,0,0,1,3.6-3.1,11.45,11.45,0,0,1,5.1-1.1,12.67,12.67,0,0,1,4.7.9,8.12,8.12,0,0,1,3.1,2.4,7.27,7.27,0,0,1,1.4,3.1h-.8a5.65,5.65,0,0,0-1.1-2.5,7.54,7.54,0,0,0-2.7-2.3,9,9,0,0,0-4.6-.9,11.25,11.25,0,0,0-5.1,1.2,7.47,7.47,0,0,0-3.1,3,8.5,8.5,0,0,0,0,8,7.23,7.23,0,0,0,3,3,11.25,11.25,0,0,0,5.1,1.2,23,23,0,0,0,4.5-.5,15.88,15.88,0,0,0,4-1.8v-4.6h-8.8v-.7h9.5v5.7a24.82,24.82,0,0,1-4.4,2,16.07,16.07,0,0,1-4.9.6,11.16,11.16,0,0,1-5.1-1.1A8.76,8.76,0,0,1,318,55a8.54,8.54,0,0,1-1.3-4.7A10.74,10.74,0,0,1,318.1,45.56Z" transform="translate(0 65)"/><line class="cls-9" x1="94.2" y1="365.46" x2="100.2" y2="365.46"/><line class="cls-10" x1="112.1" y1="365.46" x2="1301.6" y2="365.46"/><line class="cls-9" x1="1307.6" y1="365.46" x2="1313.6" y2="365.46"/><line class="cls-11" x1="94.2" y1="367.96" x2="100.2" y2="367.96"/><line class="cls-12" x1="112.1" y1="367.96" x2="1301.6" y2="367.96"/><line class="cls-11" x1="1307.6" y1="367.96" x2="1313.6" y2="367.96"/><line class="cls-11" x1="94.2" y1="579.96" x2="100.2" y2="579.96"/><line class="cls-12" x1="112.1" y1="579.96" x2="1301.6" y2="579.96"/><line class="cls-11" x1="1307.6" y1="579.96" x2="1313.6" y2="579.96"/><line class="cls-9" x1="94.2" y1="387.06" x2="100.2" y2="387.06"/><line class="cls-10" x1="112.1" y1="387.06" x2="1301.6" y2="387.06"/><line class="cls-9" x1="1307.6" y1="387.06" x2="1313.6" y2="387.06"/><line class="cls-9" x1="94.2" y1="577.46" x2="100.2" y2="577.46"/><line class="cls-10" x1="112.1" y1="577.46" x2="1301.6" y2="577.46"/><line class="cls-9" x1="1307.6" y1="577.46" x2="1313.6" y2="577.46"/><line class="cls-9" x1="94.2" y1="599.56" x2="100.2" y2="599.56"/><line class="cls-10" x1="112.1" y1="599.56" x2="1301.6" y2="599.56"/><line class="cls-9" x1="1307.6" y1="599.56" x2="1313.6" y2="599.56"/><line class="cls-9" x1="94.2" y1="676.26" x2="100.2" y2="676.26"/><line class="cls-10" x1="112.1" y1="676.26" x2="1301.6" y2="676.26"/><line class="cls-9" x1="1307.6" y1="676.26" x2="1313.6" y2="676.26"/><line class="cls-9" x1="94.2" y1="464.96" x2="100.2" y2="464.96"/><line class="cls-10" x1="112.1" y1="464.96" x2="1301.6" y2="464.96"/><line class="cls-9" x1="1307.6" y1="464.96" x2="1313.6" y2="464.96"/></g></g></svg>