<svg xmlns="http://www.w3.org/2000/svg" viewBox="0 0 1747.76 438.6"><defs><style>.cls-1,.cls-10,.cls-11,.cls-2,.cls-4,.cls-5,.cls-6,.cls-8,.cls-9{fill:none;}.cls-1{stroke:#e4e4e7;}.cls-1,.cls-10,.cls-11,.cls-2,.cls-4,.cls-5,.cls-6,.cls-7,.cls-8,.cls-9{stroke-miterlimit:10;}.cls-1,.cls-2,.cls-4,.cls-6,.cls-7{stroke-width:2px;}.cls-10,.cls-11,.cls-2,.cls-6,.cls-7,.cls-8,.cls-9{stroke:#000;}.cls-3{fill:#e95925;}.cls-4,.cls-5{stroke:#e95925;}.cls-6{stroke-dasharray:11.63 11.63;}.cls-7{fill:#fff;}.cls-9{stroke-dasharray:12.3 12.3;}.cls-10{stroke-dasharray:12.24 12.24;}.cls-11{stroke-dasharray:12.11 12.11;}</style></defs><title>c1</title><g id="Calque_2" data-name="Calque 2"><g id="Calque_1-2" data-name="Calque 1"><line class="cls-1" y1="92.36" x2="1747.76" y2="92.36"/><line class="cls-1" y1="126.66" x2="1747.76" y2="126.66"/><line class="cls-1" y1="339.36" x2="1747.76" y2="339.36"/><path d="M891.59,309.9a1.8,1.8,0,0,0,1.25,1.68,11.34,11.34,0,0,0,4.28.57,10.93,10.93,0,0,0,3.62-.42,1.41,1.41,0,0,0,1.06-1.31,1.08,1.08,0,0,0-.39-.92,3.21,3.21,0,0,0-1.43-.45c-.7-.1-1.83-.21-3.4-.32a23.55,23.55,0,0,1-4.35-.58,5,5,0,0,1-2.38-1.24,3.09,3.09,0,0,1-.78-2.21,2.94,2.94,0,0,1,1.92-2.84,13.45,13.45,0,0,1,5.48-.89,12.22,12.22,0,0,1,5.68,1.09,3.52,3.52,0,0,1,2.06,3.2h-3a1.51,1.51,0,0,0-.51-1.19,3.36,3.36,0,0,0-1.62-.65,17.22,17.22,0,0,0-2.91-.2,15.23,15.23,0,0,0-2.56.17,2.72,2.72,0,0,0-1.28.51,1.12,1.12,0,0,0-.36.87,1.06,1.06,0,0,0,.38.88,3,3,0,0,0,1.38.48c.67.12,1.68.22,3,.32a44.23,44.23,0,0,1,4.57.49,5.16,5.16,0,0,1,2.45,1.05,2.84,2.84,0,0,1,.92,2.31,3.23,3.23,0,0,1-2,3.2,13.85,13.85,0,0,1-5.58.9,14.85,14.85,0,0,1-6.25-1,3.8,3.8,0,0,1-2.28-3.47Z"/><path d="M916.68,305.69h-5.16v3.82a5,5,0,0,0,.19,1.6,1.21,1.21,0,0,0,.69.76,4,4,0,0,0,1.53.23,19.17,19.17,0,0,0,2.75-.24v2.22a20.75,20.75,0,0,1-3.36.32,7,7,0,0,1-2.64-.41,2.64,2.64,0,0,1-1.39-1.38,6.83,6.83,0,0,1-.42-2.67v-4.25H906v-2.2h2.91v-2.35l2.65-.83v3.18h5.16Z"/><path d="M929.79,303.55v2.36a8.82,8.82,0,0,0-2.79-.42,6.63,6.63,0,0,0-2.4.45,9.48,9.48,0,0,0-2.61,1.69V314h-2.64V303.49H922v2a7,7,0,0,1,2.36-1.81,6.49,6.49,0,0,1,2.65-.52A8.7,8.7,0,0,1,929.79,303.55Z"/><path d="M941.68,311.76a2.77,2.77,0,0,0,1.39-1.28h2.77a4.55,4.55,0,0,1-2.29,2.9,9.63,9.63,0,0,1-4.74,1,9.34,9.34,0,0,1-5.47-1.43,4.8,4.8,0,0,1-2-4.2,5.05,5.05,0,0,1,.94-3.12,5.7,5.7,0,0,1,2.6-1.89,10.63,10.63,0,0,1,3.78-.63A8.86,8.86,0,0,1,944,304.6a5.51,5.51,0,0,1,2,4.74H934.13a2.72,2.72,0,0,0,1.36,2.18,6.8,6.8,0,0,0,3.37.69A7,7,0,0,0,941.68,311.76Zm-7.41-4.29h8.8a2.7,2.7,0,0,0-1.45-1.72,6.86,6.86,0,0,0-3-.55Q935,305.2,934.27,307.47Z"/><path d="M950.65,310.48a1.56,1.56,0,0,0,.54,1.06,3.25,3.25,0,0,0,1.51.58,16.44,16.44,0,0,0,2.85.19,17,17,0,0,0,2.6-.14,2.56,2.56,0,0,0,1.18-.42,1.06,1.06,0,0,0,.3-.8.79.79,0,0,0-.31-.71,2.94,2.94,0,0,0-1.21-.36c-.59-.08-1.62-.18-3.09-.28a37.23,37.23,0,0,1-3.91-.44,4.53,4.53,0,0,1-2.11-.89,2.23,2.23,0,0,1-.73-1.79,2.65,2.65,0,0,1,1.84-2.6,17.25,17.25,0,0,1,10,0,3,3,0,0,1,2,2.7h-2.85a1.12,1.12,0,0,0-.5-.88,3.16,3.16,0,0,0-1.36-.42,20.16,20.16,0,0,0-2.49-.12,10.1,10.1,0,0,0-3,.3c-.57.19-.85.48-.85.85a.66.66,0,0,0,.31.6,3.84,3.84,0,0,0,1.22.34c.6.09,1.58.2,2.93.3l.67.06a34.23,34.23,0,0,1,3.56.43,4.18,4.18,0,0,1,2,.87,2.42,2.42,0,0,1,.74,1.92,2.82,2.82,0,0,1-1.71,2.81,12.77,12.77,0,0,1-5,.77,16.13,16.13,0,0,1-5.75-.83,3.2,3.2,0,0,1-2.16-3.09Z"/><path d="M967.17,310.48a1.56,1.56,0,0,0,.54,1.06,3.3,3.3,0,0,0,1.52.58,16.24,16.24,0,0,0,2.84.19,16.89,16.89,0,0,0,2.6-.14,2.52,2.52,0,0,0,1.18-.42,1.06,1.06,0,0,0,.31-.8.8.8,0,0,0-.32-.71,2.88,2.88,0,0,0-1.21-.36c-.59-.08-1.62-.18-3.08-.28a37.48,37.48,0,0,1-3.92-.44,4.44,4.44,0,0,1-2.1-.89,2.2,2.2,0,0,1-.73-1.79,2.64,2.64,0,0,1,1.83-2.6,17.29,17.29,0,0,1,10,0,3,3,0,0,1,2,2.7H975.8a1.15,1.15,0,0,0-.51-.88,3.12,3.12,0,0,0-1.36-.42,19.94,19.94,0,0,0-2.49-.12,10.07,10.07,0,0,0-3,.3c-.57.19-.86.48-.86.85a.67.67,0,0,0,.32.6,3.76,3.76,0,0,0,1.21.34c.6.09,1.58.2,2.94.3l.66.06a34.5,34.5,0,0,1,3.57.43,4.19,4.19,0,0,1,1.94.87,2.42,2.42,0,0,1,.74,1.92,2.83,2.83,0,0,1-1.7,2.81,12.86,12.86,0,0,1-5,.77,16,16,0,0,1-5.74-.83,3.2,3.2,0,0,1-2.16-3.09Z"/><line class="cls-2" x1="1109.62" y1="310" x2="993.32" y2="310"/><path d="M1109.4,305.49a4.51,4.51,0,1,1-4.52,4.51A4.51,4.51,0,0,1,1109.4,305.49Z"/><line class="cls-2" x1="900.93" y1="206.06" x2="771.4" y2="206.06"/><circle cx="900.71" cy="206.06" r="4.51"/><path d="M1144.19,156.29q38.2-27.42,104.52-27.43,58.33,0,93.93,21.53T1386.91,215H1332.4q-6.6-21.53-26.92-32.12t-56.77-10.59q-89.25,0-89.24,65.28t89.24,65.28q36.11,0,56.6-10.59t27.09-32.12h54.51q-8.69,42.7-44.27,64.41t-93.93,21.7q-66.33,0-104.52-27.43T1106,237.55Q1106,183.73,1144.19,156.29Z"/><path class="cls-3" d="M1208,176.78V131.86q-38.17,6.06-63.75,24.43Q1106,183.73,1106,237.54t38.2,81.25q25.58,18.38,63.75,24.44V298.3q-48.48-12.65-48.48-60.76T1208,176.78Z"/><path class="cls-4" d="M983.87,151.76Q945.67,179.2,945.67,233a127,127,0,0,0,2.27,24.63h55.17a71.42,71.42,0,0,1-4-24.63q0-48.1,48.48-60.76V127.33Q1009.45,133.39,983.87,151.76Z"/><line class="cls-5" x1="951.84" y1="233.01" x2="993.05" y2="233.01"/><polygon class="cls-3" points="952.57 235.51 948.25 233.01 952.57 230.52 952.57 235.51"/><polygon class="cls-3" points="992.32 235.51 996.64 233.01 992.32 230.52 992.32 235.51"/><line class="cls-5" x1="1000.83" y1="148.79" x2="1018.06" y2="179.02"/><polygon class="cls-3" points="999.03 150.65 999.05 145.67 1003.36 148.19 999.03 150.65"/><polygon class="cls-3" points="1015.53 179.62 1019.83 182.13 1019.86 177.15 1015.53 179.62"/><polyline class="cls-2" points="1078.23 268.6 1078.23 274.6 1072.23 274.6"/><line class="cls-6" x1="1060.6" y1="274.6" x2="926.86" y2="274.6"/><polyline class="cls-2" points="921.04 274.6 915.04 274.6 915.04 268.6"/><line class="cls-6" x1="915.04" y1="256.97" x2="915.04" y2="123.23"/><polyline class="cls-2" points="915.04 117.41 915.04 111.41 921.04 111.41"/><line class="cls-6" x1="932.67" y1="111.41" x2="1066.42" y2="111.41"/><polyline class="cls-2" points="1072.23 111.41 1078.23 111.41 1078.23 117.41"/><line class="cls-6" x1="1078.23" y1="129.04" x2="1078.23" y2="262.79"/><rect class="cls-7" x="360.85" y="1" width="410.55" height="436.6"/><rect class="cls-3" x="410.66" y="311.45" width="23.56" height="53.17"/><line class="cls-5" x1="414.25" y1="379.05" x2="718" y2="379.05"/><polygon class="cls-3" points="414.98 381.54 410.66 379.05 414.98 376.56 414.98 381.54"/><polygon class="cls-3" points="717.27 381.54 721.59 379.05 717.27 376.56 717.27 381.54"/><line class="cls-5" x1="414.25" y1="275.58" x2="676.79" y2="275.58"/><polygon class="cls-3" points="414.98 278.07 410.66 275.58 414.98 273.08 414.98 278.07"/><polygon class="cls-3" points="676.06 278.07 680.37 275.58 676.06 273.08 676.06 278.07"/><line class="cls-8" x1="410.66" y1="379.05" x2="410.66" y2="373.05"/><line class="cls-9" x1="410.66" y1="360.75" x2="410.66" y2="71.7"/><line class="cls-8" x1="410.66" y1="65.55" x2="410.66" y2="59.55"/><line class="cls-8" x1="721.59" y1="379.05" x2="721.59" y2="373.05"/><line class="cls-10" x1="721.59" y1="360.8" x2="721.59" y2="73.05"/><line class="cls-8" x1="721.59" y1="66.92" x2="721.59" y2="60.92"/><line class="cls-8" x1="680.68" y1="378.57" x2="680.68" y2="372.57"/><line class="cls-11" x1="680.68" y1="360.46" x2="680.68" y2="75.91"/><line class="cls-8" x1="680.68" y1="69.85" x2="680.68" y2="63.85"/><rect x="680.54" y="338.04" width="41.05" height="26.59"/><rect x="639.49" y="311.45" width="41.05" height="26.59"/><rect x="598.43" y="338.04" width="41.05" height="26.59"/><rect x="557.38" y="311.45" width="41.05" height="26.59"/><rect x="516.33" y="338.04" width="41.05" height="26.59"/><rect x="475.27" y="311.45" width="41.05" height="26.59"/><rect x="434.22" y="338.04" width="41.05" height="26.59"/></g></g></svg>