<svg xmlns="http://www.w3.org/2000/svg" viewBox="0 0 877.63 511.52"><defs><style>.cls-1,.cls-4{fill:#fff;}.cls-2,.cls-3{fill:none;}.cls-2,.cls-3,.cls-4{stroke:#fff;stroke-miterlimit:10;stroke-width:2px;}.cls-3{stroke-dasharray:11.87 11.87;}</style></defs><title>cq</title><g id="Calque_2" data-name="Calque 2"><g id="Calque_1-2" data-name="Calque 1"><path class="cls-1" d="M152,190.88q38.19-27.42,104.52-27.43,58.34,0,93.93,21.53t44.27,64.59H340.21q-6.6-21.52-26.91-32.12t-56.77-10.59q-89.25,0-89.24,65.28t89.24,65.28q36.11,0,56.6-10.59t27.08-32.12h54.52q-8.69,42.71-44.27,64.41t-93.93,21.7q-66.33,0-104.52-27.43t-38.2-81.25Q113.81,218.32,152,190.88Z"/><path class="cls-1" d="M663.49,170.4h51.39V457.21H663.49V338.81Q648.2,359.3,621.3,370.06t-63.72,10.76q-35.42,0-63.72-11.8T448.72,332.9q-16.85-24.3-16.84-60.76t16.84-60.77q16.83-24.3,45.14-36.11t63.72-11.81q36.79,0,63.72,10.77t42.19,31.25Zm-23.44,149q23.43-17,23.44-47.22,0-30.55-22.23-47.4T576.33,207.9q-43.07,0-66.5,16.84t-23.44,47.4q0,30.56,22.4,47.39t65.11,16.85Q616.61,336.38,640.05,319.36Z"/><rect class="cls-2" x="1" y="1" width="831.2" height="509.49"/><line class="cls-2" x1="1" y1="457.11" x2="7" y2="457.11"/><line class="cls-3" x1="18.87" y1="457.11" x2="820.26" y2="457.11"/><line class="cls-2" x1="826.2" y1="457.11" x2="832.2" y2="457.11"/><line class="cls-2" x1="1" y1="169.86" x2="7" y2="169.86"/><line class="cls-3" x1="18.87" y1="169.86" x2="820.26" y2="169.86"/><line class="cls-2" x1="826.2" y1="169.86" x2="832.2" y2="169.86"/><line class="cls-2" x1="1" y1="374.96" x2="7" y2="374.96"/><line class="cls-3" x1="18.87" y1="374.96" x2="820.26" y2="374.96"/><line class="cls-2" x1="826.2" y1="374.96" x2="832.2" y2="374.96"/><rect class="cls-1" x="854.41" y="379.41" width="22.21" height="41.9"/><rect class="cls-1" x="832.2" y="421.29" width="22.21" height="41.9"/><rect class="cls-1" x="832.2" y="169.86" width="22.21" height="41.9"/><rect class="cls-1" x="854.41" y="211.77" width="22.21" height="41.9"/><rect class="cls-1" x="832.2" y="253.67" width="22.21" height="41.9"/><rect class="cls-1" x="854.41" y="295.57" width="22.21" height="41.9"/><rect class="cls-1" x="832.2" y="337.48" width="22.21" height="41.9"/><rect class="cls-4" x="832.2" y="1" width="44.43" height="168.86"/><rect class="cls-4" x="832.2" y="463.19" width="44.43" height="47.32"/><rect x="832.2" y="457.11" width="44.43" height="6.08"/><rect class="cls-2" x="832.2" y="169.86" width="44.43" height="293.33"/></g></g></svg>