<?xml version="1.0" encoding="utf-8"?>
<!-- Generator: Adobe Illustrator 24.0.1, SVG Export Plug-In . SVG Version: 6.00 Build 0)  -->
<svg version="1.1" id="Calque_1" xmlns="http://www.w3.org/2000/svg" xmlns:xlink="http://www.w3.org/1999/xlink" x="0px" y="0px"
	 viewBox="0 0 3391.8 2016.9" style="enable-background:new 0 0 3391.8 2016.9;" xml:space="preserve">
<style type="text/css">
	.st0{fill:none;stroke:#FFFFFF;stroke-width:10;}
</style>
<g id="Calque_2_1_">
	<g id="Calque_10">
		<path class="st0" d="M1112.7,66.4c-13.1-20-32-35.2-56.8-45.7C1031.1,10.3,1001.3,5,966.5,5c-35,0-64.9,5.2-89.6,15.5
			S833.3,46,820.3,66c-13,20-19.6,44.2-19.6,72.7v1738.9c0,28.5,6.5,52.7,19.6,72.8c13,20.1,31.9,35.4,56.6,45.8
			c24.7,10.5,54.5,15.7,89.6,15.7c34.8,0,64.6-5.2,89.4-15.7c24.8-10.5,43.7-25.8,56.8-45.8c13.1-20.1,19.6-44.4,19.6-72.8V138.7
			C1132.3,110.5,1125.7,86.4,1112.7,66.4z M1040.6,1877.5c0,40.2-24.7,60.3-74.1,60.3s-74.1-20.1-74.1-60.3V138.7
			c0-18.3,5.6-32.9,16.8-43.6c11.2-10.7,30.3-16,57.3-16.1c27,0,46.1,5.3,57.3,16.1s16.8,25.2,16.8,43.6V1877.5z"/>
		<path class="st0" d="M2922.1,66.4c-13.1-20-32-35.2-56.8-45.7S2810.7,5,2775.9,5c-35,0-64.9,5.2-89.6,15.5
			c-24.7,10.3-43.6,25.5-56.6,45.5c-13.1,20-19.6,44.2-19.6,72.7v1738.9c0,28.5,6.5,52.7,19.6,72.8c13,20.1,31.9,35.4,56.6,45.8
			c24.7,10.5,54.5,15.7,89.6,15.7c34.8,0,64.6-5.2,89.4-15.7s43.7-25.8,56.8-45.8c13-20.1,19.6-44.4,19.6-72.8V138.7
			C2941.6,110.5,2935.1,86.4,2922.1,66.4z M2849.9,1877.5c0,40.2-24.7,60.3-74.1,60.3c-49.4,0-74.1-20.1-74.1-60.3V138.7
			c0-18.3,5.6-32.9,16.8-43.6s30.3-16,57.3-16.1c27,0,46.1,5.3,57.3,16.1s16.8,25.2,16.8,43.6V1877.5z"/>
		<path class="st0" d="M266,12.1v67H93.2v26.4H259v67H93.2V199H266v67H5V12.1H266z"/>
		<path class="st0" d="M549.2,205.3l90.7-193.3h93.8L612,266H486.4L364.8,12.1h93.8L549.2,205.3z"/>
		<polygon class="st0" points="266,301.9 266,368.9 93.2,368.9 93.2,395.3 259,395.3 259,462.4 93.2,462.4 93.2,488.8 266,488.8 
			266,555.8 5,555.8 5,301.9 		"/>
		<polygon class="st0" points="549.2,495.1 639.9,301.9 733.7,301.9 612,555.8 486.4,555.8 364.8,301.9 458.6,301.9 		"/>
		<polygon class="st0" points="266,591.7 266,658.7 93.2,658.7 93.2,685.2 259,685.2 259,752.2 93.2,752.2 93.2,778.6 266,778.6 
			266,845.6 5,845.6 5,591.7 		"/>
		<polygon class="st0" points="549.2,785 639.9,591.7 733.7,591.7 612,845.6 486.4,845.6 364.8,591.7 458.6,591.7 		"/>
		<polygon class="st0" points="266,881.5 266,948.5 93.2,948.5 93.2,975 259,975 259,1042 93.2,1042 93.2,1068.4 266,1068.4 
			266,1135.4 5,1135.4 5,881.5 		"/>
		<polygon class="st0" points="549.2,1074.8 639.9,881.5 733.7,881.5 612,1135.4 486.4,1135.4 364.8,881.5 458.6,881.5 		"/>
		<polygon class="st0" points="266,1171.3 266,1238.3 93.2,1238.3 93.2,1264.8 259,1264.8 259,1331.8 93.2,1331.8 93.2,1358.2 
			266,1358.2 266,1425.3 5,1425.3 5,1171.3 		"/>
		<polygon class="st0" points="549.2,1364.6 639.9,1171.3 733.7,1171.3 612,1425.3 486.4,1425.3 364.8,1171.3 458.6,1171.3 		"/>
		<polygon class="st0" points="266,1461.1 266,1528.1 93.2,1528.1 93.2,1554.6 259,1554.6 259,1621.6 93.2,1621.6 93.2,1648.1 
			266,1648.1 266,1715.1 5,1715.1 5,1461.1 		"/>
		<polygon class="st0" points="549.2,1654.4 639.9,1461.1 733.7,1461.1 612,1715.1 486.4,1715.1 364.8,1461.1 458.6,1461.1 		"/>
		<path class="st0" d="M266,1750.9v67H93.2v26.4H259v67H93.2v26.5H266v67H5v-253.9H266z"/>
		<path class="st0" d="M549.2,1944.2l90.7-193.3h93.8l-121.7,254H486.4l-121.7-253.9h93.8L549.2,1944.2z"/>
		<path class="st0" d="M1326.2,12.1v179.9H1492V266h-254V12.1H1326.2z"/>
		<path class="st0" d="M1901.2,142.2c0,43.5-12.5,76.2-37.6,98.1s-64.2,32.8-117.6,32.8c-53.6,0-92.9-10.9-117.8-32.6
			s-37.4-54.5-37.4-98.2V12.1h88.2v126.6c0,17.6,5,32.1,15,43.4s27.3,16.9,52,16.9s42-5.7,52-17.1c10-11.4,15-25.8,15-43.2V12.1
			h88.2L1901.2,142.2z"/>
		<path class="st0" d="M2310.3,12.1v74.1h-107.6V266h-88.2V86.1H2007V12.1H2310.3z"/>
		<path class="st0" d="M2416.1,12.1h88.2V266h-88.2V12.1z"/>
		<polygon class="st0" points="1326.2,301.9 1326.2,481.8 1492,481.8 1492,555.8 1238.1,555.8 1238.1,301.9 		"/>
		<path class="st0" d="M1901.2,432c0,43.5-12.5,76.2-37.6,98c-25,21.9-64.2,32.8-117.6,32.8c-53.6,0-92.9-10.9-117.8-32.6
			c-24.9-21.7-37.4-54.5-37.4-98.3V301.9h88.2v126.6c0,17.6,5,32.1,15,43.4s27.3,16.9,52,16.9c24.7,0,42-5.7,52-17.1
			c10-11.4,15-25.8,15-43.2V301.9h88.2L1901.2,432z"/>
		<polygon class="st0" points="2310.3,301.9 2310.3,375.9 2202.7,375.9 2202.7,555.8 2114.6,555.8 2114.6,375.9 2007,375.9 
			2007,301.9 		"/>
		<rect x="2416.1" y="301.9" class="st0" width="88.2" height="254"/>
		<polygon class="st0" points="1326.2,591.7 1326.2,771.6 1492,771.6 1492,845.6 1238.1,845.6 1238.1,591.7 		"/>
		<path class="st0" d="M1901.2,721.8c0,43.5-12.5,76.2-37.6,98c-25,21.8-64.2,32.8-117.6,32.8c-53.6,0-92.9-10.9-117.8-32.6
			c-24.9-21.7-37.4-54.5-37.4-98.2V591.7h88.2v126.6c0,17.6,5,32.1,15,43.4c10,11.3,27.3,16.9,52,16.9c24.7,0,42-5.7,52-17.1
			s15-25.8,15-43.2V591.7h88.2L1901.2,721.8z"/>
		<polygon class="st0" points="2310.3,591.7 2310.3,665.8 2202.7,665.8 2202.7,845.6 2114.6,845.6 2114.6,665.8 2007,665.8 
			2007,591.7 		"/>
		<rect x="2416.1" y="591.7" class="st0" width="88.2" height="254"/>
		<polygon class="st0" points="1326.2,881.5 1326.2,1061.4 1492,1061.4 1492,1135.4 1238.1,1135.4 1238.1,881.5 		"/>
		<path class="st0" d="M1901.2,1011.6c0,43.5-12.5,76.2-37.6,98.1s-64.2,32.8-117.6,32.8c-53.6,0-92.9-10.9-117.8-32.6
			c-24.9-21.7-37.4-54.5-37.4-98.2V881.5h88.2v126.6c0,17.6,5,32.1,15,43.4s27.3,16.9,52,16.9c24.7,0,42-5.7,52-17.1
			s15-25.8,15-43.2V881.5h88.2L1901.2,1011.6z"/>
		<polygon class="st0" points="2310.3,881.5 2310.3,955.6 2202.7,955.6 2202.7,1135.4 2114.6,1135.4 2114.6,955.6 2007,955.6 
			2007,881.5 		"/>
		<rect x="2416.1" y="881.5" class="st0" width="88.2" height="253.9"/>
		<polygon class="st0" points="1326.2,1171.3 1326.2,1351.2 1492,1351.2 1492,1425.3 1238.1,1425.3 1238.1,1171.3 		"/>
		<path class="st0" d="M1901.2,1301.4c0,43.5-12.5,76.2-37.6,98c-25,21.8-64.2,32.8-117.6,32.9c-53.6,0-92.9-10.9-117.8-32.6
			c-24.9-21.7-37.4-54.5-37.4-98.2v-130.2h88.2v126.6c0,17.6,5,32.1,15,43.4s27.3,16.9,52,16.9s42-5.7,52-17.1s15-25.8,15-43.2
			v-126.6h88.2L1901.2,1301.4z"/>
		<polygon class="st0" points="2310.3,1171.3 2310.3,1245.4 2202.7,1245.4 2202.7,1425.3 2114.6,1425.3 2114.6,1245.4 2007,1245.4 
			2007,1171.3 		"/>
		<rect x="2416.1" y="1171.3" class="st0" width="88.2" height="253.9"/>
		<polygon class="st0" points="1326.2,1461.1 1326.2,1641 1492,1641 1492,1715.1 1238.1,1715.1 1238.1,1461.1 		"/>
		<path class="st0" d="M1901.2,1591.3c0,43.5-12.5,76.2-37.6,98c-25,21.8-64.2,32.8-117.6,32.9c-53.6,0-92.9-10.9-117.8-32.6
			s-37.4-54.5-37.4-98.2v-130.2h88.2v126.6c0,17.6,5,32.1,15,43.4c10,11.3,27.3,16.9,52,16.9c24.7,0,42-5.7,52-17.1
			c10-11.4,15-25.8,15-43.2v-126.6h88.2L1901.2,1591.3z"/>
		<polygon class="st0" points="2310.3,1461.1 2310.3,1535.2 2202.7,1535.2 2202.7,1715.1 2114.6,1715.1 2114.6,1535.2 2007,1535.2 
			2007,1461.1 		"/>
		<rect x="2416.1" y="1461.1" class="st0" width="88.2" height="253.9"/>
		<path class="st0" d="M1326.2,1750.9v179.9H1492v74.1h-254v-253.9H1326.2z"/>
		<path class="st0" d="M1901.2,1881.1c0,43.5-12.5,76.2-37.6,98c-25,21.8-64.2,32.8-117.6,32.9c-53.6,0-92.9-10.9-117.8-32.6
			s-37.4-54.5-37.4-98.2v-130.2h88.2v126.6c0,17.6,5,32.1,15,43.4c10,11.3,27.3,16.9,52,16.9c24.7,0,42-5.7,52-17.1
			c10-11.4,15-25.8,15-43.2v-126.6h88.2L1901.2,1881.1z"/>
		<path class="st0" d="M2310.3,1750.9v74.1h-107.6v179.9h-88.2V1825H2007v-74.1L2310.3,1750.9z"/>
		<path class="st0" d="M2416.1,1750.9h88.2v253.9h-88.2V1750.9z"/>
		<path class="st0" d="M3298.6,179.9V12.1h88.2V266h-130.5L3135.6,98.1V266h-88.2V12.1H3178L3298.6,179.9z"/>
		<polygon class="st0" points="3298.6,469.8 3298.6,301.9 3386.8,301.9 3386.8,555.8 3256.3,555.8 3135.6,387.9 3135.6,555.8 
			3047.5,555.8 3047.5,301.9 3178,301.9 		"/>
		<polygon class="st0" points="3298.6,759.6 3298.6,591.7 3386.8,591.7 3386.8,845.6 3256.3,845.6 3135.6,677.7 3135.6,845.6 
			3047.5,845.6 3047.5,591.7 3178,591.7 		"/>
		<polygon class="st0" points="3298.6,1049.4 3298.6,881.5 3386.8,881.5 3386.8,1135.4 3256.3,1135.4 3135.6,967.5 3135.6,1135.4 
			3047.5,1135.4 3047.5,881.5 3178,881.5 		"/>
		<polygon class="st0" points="3298.6,1339.2 3298.6,1171.3 3386.8,1171.3 3386.8,1425.3 3256.3,1425.3 3135.6,1257.4 
			3135.6,1425.3 3047.5,1425.3 3047.5,1171.3 3178,1171.3 		"/>
		<polygon class="st0" points="3298.6,1629 3298.6,1461.1 3386.8,1461.1 3386.8,1715.1 3256.3,1715.1 3135.6,1547.2 3135.6,1715.1 
			3047.5,1715.1 3047.5,1461.1 3178,1461.1 		"/>
		<path class="st0" d="M3298.6,1918.8v-167.9h88.2v253.9h-130.5L3135.6,1837v167.9h-88.2v-254H3178L3298.6,1918.8z"/>
	</g>
</g>
</svg>
