<?xml version="1.0" encoding="utf-8"?>
<!-- Generator: Adobe Illustrator 24.0.1, SVG Export Plug-In . SVG Version: 6.00 Build 0)  -->
<svg version="1.1" id="Calque_1" xmlns="http://www.w3.org/2000/svg" xmlns:xlink="http://www.w3.org/1999/xlink" x="0px" y="0px"
	 viewBox="0 0 1151.4 760.8" style="enable-background:new 0 0 1151.4 760.8;" xml:space="preserve">
<style type="text/css">
	.st0{fill:none;stroke:#000000;stroke-miterlimit:10;}
	.st1{fill:none;stroke:#000000;stroke-width:2;stroke-miterlimit:10;}
</style>
<title>evolution11</title>
<g id="Calque_2_1_">
	<g id="Calque_6">
		<g>
			<g>
				<path d="M141.2,1.2l-25.9,50.4H97.6L71.7,1.2h14.5l20.2,40.8l20.2-40.8H141.2z"/>
			</g>
			<g>
				<path class="st0" d="M194.2,40.8v10.9h-47.5V40.8H164l0.1-23.8c-5.5,4.8-12.2,4.8-17.4,4.8V10.9c7.4,0,17.3,0,17.3-9.6h13v39.5
					H194.2z"/>
			</g>
			<g>
				<path class="st0" d="M212.7,42v9.6h-12.3V42H212.7z"/>
			</g>
			<g>
				<path class="st0" d="M215.7,26.4c0-16.7,9.5-25.9,29.5-25.9s29.5,9.2,29.5,25.9s-9.6,26-29.5,26S215.7,43.1,215.7,26.4z
					 M261.8,26.4c0-9.4-5.2-15-16.6-15s-16.6,5.6-16.6,15s5.2,15.1,16.6,15.1S261.8,35.8,261.8,26.4z"/>
			</g>
			<g>
				<path d="M104.1,138.7c-22.2,0-31.7-8.4-31.7-26V87.6h13v25.1c0,7.1,1.9,15.1,18.7,15.1s18.7-8.1,18.7-15.1V87.6h13v25.1
					C135.7,130.3,126.2,138.7,104.1,138.7z"/>
			</g>
			<g>
				<path d="M156.7,80.4V138h-12.3V80.4H156.7z"/>
			</g>
			<g>
				<path d="M182.3,105.9v12.2c0,8.2,1.6,10.3,9.1,10.3c3.7,0.1,7.4-0.2,11-0.7v9.9c-4.8,0.8-9.6,1.1-14.5,1.1c-11,0-18-4.1-18-13.5
					v-19.4h-11.1V95.6h11.2v-8.8l12.4-3.5v12.3h20.1v10.3H182.3z"/>
			</g>
			<g>
				<path d="M255.1,96.3v10.3c-3.5-0.9-7.2-1.4-10.9-1.4c-8.1-0.2-15.9,2.5-22.3,7.4V138h-12.3V95.6h12.3v7.2
					c6.3-5.7,13.8-7.9,21.8-7.9C247.5,94.9,251.4,95.4,255.1,96.3z"/>
			</g>
			<g>
				<path d="M314.7,116.6V138h-12.4v-5.3c-8,4-16.8,6.1-25.8,6c-11.9,0-19.3-3.8-19.3-13.4c0-11,12.1-14.5,25.6-14.5
					c6.6-0.1,13.2,1,19.5,3c0-8.1-10.4-8.7-16.1-8.7c-7.1,0-14.2,1-21,3.1l-4.4-9c8.4-2.8,17.2-4.3,26-4.4
					C304.5,94.9,314.6,100.6,314.7,116.6z M302.3,121.5c-5.8-1.8-11.9-2.7-18-2.6c-9.2,0-14.8,1.6-14.8,5.9s4.1,4.8,10.5,4.8
					c7.6-0.3,15.2-1.9,22.3-4.8V121.5z"/>
				<path d="M332.1,80.4V138h-12.3V80.4H332.1z"/>
			</g>
			<g>
				<path d="M351.5,80.4v10.7h-12.3V80.4H351.5z M351.5,95.6V138h-12.3V95.6H351.5z"/>
			</g>
			<g>
				<path d="M413.1,95.6v35.7c0,17.3-11.6,24.8-27.6,24.8c-9,0-17.9-1.2-26.6-3.4v-9.9c5,0.9,14.5,3,23.8,3c12.7,0,17.5-4.9,18-15.8
					c-4.3,4.8-11.5,7.6-21.5,7.6c-14.5,0-24.9-6.3-24.9-21.3s10.4-21.3,24.9-21.3c10.1,0,17.2,2.8,21.5,7.6v-6.8H413.1z
					 M400.7,116.2c0-7.8-5.4-11-17-11s-17.1,3.2-17.1,11s5.5,11,17.1,11S400.7,124,400.7,116.2z"/>
			</g>
			<g>
				<path d="M480,114.6l-0.1,23.4h-12.4v-18.8c0-9-3-13.7-13.2-13.7c-8.3,0-17.2,4.3-21,8.7V138H421V80.4h12.3V103
					c7.1-5.4,15.8-8.3,24.7-8.1C469.3,94.9,479.9,98.9,480,114.6z"/>
			</g>
			<g>
				<path d="M506.5,105.9v12.2c0,8.2,1.6,10.3,9.1,10.3c3.7,0.1,7.4-0.2,11-0.7v9.9c-4.8,0.8-9.6,1.1-14.5,1.1c-11,0-18-4.1-18-13.5
					v-19.4H483V95.6h11.2v-8.8l12.4-3.5v12.3h20.1v10.3H506.5z"/>
			</g>
			<g>
				<path d="M124.2,213.6v10.9H72.4V174h13v39.5L124.2,213.6z"/>
			</g>
			<g>
				<path d="M142.3,166.8v10.7H130v-10.7H142.3z M142.3,182v42.4H130V182L142.3,182z"/>
			</g>
			<g>
				<path d="M205.1,182v35.6c0,17.3-11.6,24.8-27.6,24.8c-9,0-17.9-1.2-26.6-3.4v-9.9c5,0.9,14.5,3,23.8,3c12.7,0,17.5-4.9,18-15.8
					c-4.3,4.8-11.4,7.6-21.5,7.6c-14.5,0-24.9-6.3-24.9-21.3s10.4-21.3,24.9-21.3c10.1,0,17.2,2.8,21.5,7.6V182H205.1z M192.7,202.6
					c0-7.8-5.4-11-17-11s-17.1,3.2-17.1,11s5.5,11,17.1,11S192.7,210.4,192.7,202.6L192.7,202.6z"/>
			</g>
			<g>
				<path d="M270.6,201l-0.1,23.5h-12.4v-18.8c0-9-3-13.7-13.2-13.7c-8.3,0-17.2,4.3-21,8.7v23.8h-12.3v-57.6h12.3v22.6
					c7.1-5.4,15.8-8.3,24.7-8.1C259.9,181.3,270.5,185.3,270.6,201z"/>
			</g>
			<g>
				<path d="M296.6,192.3v12.2c0,8.2,1.6,10.3,9.1,10.3c3.7,0.1,7.4-0.2,11-0.7v9.9c-4.8,0.8-9.6,1.1-14.5,1.1c-11,0-18-4.1-18-13.5
					v-19.4H273V182h11.2v-8.8l12.4-3.5V182h20.1v10.3L296.6,192.3z"/>
			</g>
			<g>
				<path d="M120.3,295.9l9.3,15h-15.3l-8.1-13.5H85.3v13.5h-13v-50.4H112c11.4,0,19.3,7.3,19.3,18.5
					C131.3,287.1,127.1,293.2,120.3,295.9z M85.3,286.5h23c3.9,0,9.9,0,9.9-7.6s-6-7.6-9.9-7.6h-23V286.5z"/>
			</g>
			<g>
				<path d="M180.2,295.6h12.2c-2.8,10.8-13.3,15.9-29,15.9c-16.1,0-28.6-6.3-28.6-21.9s12.2-22,29.4-22c16.1,0,29,5.5,29,24.8
					h-45.8c1.4,6.8,7.9,9,16.1,9C171.9,301.5,177.1,300,180.2,295.6z M147.8,284.7H180c-2.1-6-8.1-7.6-15.9-7.6
					C155.7,277,149.8,278.7,147.8,284.7z"/>
			</g>
			<g>
				<path d="M255.9,268.4v35.6c0,17.3-11.6,24.8-27.6,24.8c-9,0-17.9-1.2-26.6-3.4v-9.9c5,0.9,14.5,3,23.8,3
					c12.7,0,17.5-4.9,18-15.8c-4.3,4.8-11.4,7.6-21.5,7.6c-14.5,0-24.9-6.3-24.9-21.3s10.4-21.3,24.9-21.3c10.1,0,17.2,2.8,21.5,7.6
					v-6.8L255.9,268.4z M243.5,289c0-7.8-5.4-11-17-11s-17.1,3.2-17.1,11s5.5,11,17.1,11S243.5,296.8,243.5,289z"/>
			</g>
			<g>
				<path d="M320.6,268.4v42.4h-12.3v-7.4c-7.1,5.4-15.8,8.3-24.7,8.1c-11.3,0-21.9-4-22-19.6l0.1-23.5h12.4v18.8
					c0,9,3,13.7,13.2,13.7c8.3,0,17.2-4.3,21-8.7v-23.8H320.6z"/>
				<path d="M337.7,253.2v57.6h-12.3v-57.6H337.7z"/>
			</g>
			<g>
				<path d="M400.5,289.4v21.4h-12.4v-5.3c-8,4-16.8,6.1-25.8,6c-11.9,0-19.3-3.8-19.3-13.4c0-11,12.1-14.5,25.6-14.5
					c6.6-0.1,13.2,1,19.5,3c0-8.1-10.4-8.7-16.1-8.7c-7.1,0-14.2,1-21,3.1l-4.4-9c8.4-2.8,17.2-4.3,26-4.4
					C390.3,267.7,400.3,273.4,400.5,289.4z M388.1,294.3c-5.8-1.8-11.9-2.7-18-2.6c-9.2,0-14.8,1.6-14.8,5.9s4.1,4.8,10.5,4.8
					c7.6-0.3,15.2-1.9,22.3-4.8V294.3z"/>
			</g>
			<g>
				<path d="M451.5,269.1v10.3c-3.5-0.9-7.2-1.4-10.9-1.4c-8.1-0.2-15.9,2.5-22.3,7.4v25.4H406v-42.4h12.3v7.2
					c6.3-5.7,13.8-7.9,21.8-7.9C443.9,267.7,447.7,268.2,451.5,269.1z"/>
			</g>
			<g>
				<path d="M134.9,382.5c0,8.5-5,14.7-16.4,14.7H72.4v-50.4h44.3c11.4,0,15,5.8,15,13.3c-0.1,3.6-1.5,7.1-4,9.8
					C132.2,372.5,135,377.3,134.9,382.5z M85.3,366.6h26.8c3.5,0,6.6,0,6.6-5.3s-3.2-5.2-6.7-5.2H85.3V366.6z M121.9,381.9
					c0-5.3-3.2-5.3-6.6-5.3h-30v10.7h30C118.7,387.2,121.9,387.2,121.9,381.9L121.9,381.9z"/>
			</g>
			<g>
				<path d="M136.8,376c0-15.6,11.8-22,29.4-22s29.4,6.3,29.4,22s-11.9,21.9-29.4,21.9S136.8,391.6,136.8,376z M183.2,376
					c0-8.9-5.6-11.7-17-11.7s-17.1,2.8-17.1,11.7s5.6,11.6,17.1,11.6S183.2,384.8,183.2,376z"/>
				<path d="M211.9,339.6v57.6h-12.3v-57.6H211.9z"/>
			</g>
			<g>
				<path d="M275.9,339.6v57.6h-12.3v-6.6c-4.6,4.8-12,7.3-21.2,7.3c-13.6,0-25.3-5.7-25.3-21.9s11.7-22,25.3-22
					c9.1,0,16.6,2.5,21.2,7.4v-21.8H275.9z M263.6,376c0-8.4-6-11.7-17.1-11.7s-17,3.2-17,11.7s6,11.6,17,11.6
					S263.6,384.4,263.6,376z"/>
			</g>
			<g>
				<path d="M104.1,484.3c-22.2,0-31.7-8.4-31.7-26v-25.1h13v25.1c0,7.1,1.9,15.1,18.7,15.1s18.7-8.1,18.7-15.1v-25.1h13v25.1
					C135.7,475.9,126.2,484.3,104.1,484.3z"/>
				<path d="M154.2,426v57.6h-12.3V426H154.2z"/>
				<path d="M182,451.5v12.2c0,8.2,1.6,10.3,9.1,10.3c3.7,0.1,7.4-0.2,11-0.7v9.9c-4.8,0.8-9.6,1.1-14.5,1.1c-10.9,0-18-4.1-18-13.5
					v-19.4h-11.1v-10.3h11.2v-8.8l12.4-3.5v12.3h20.1v10.3L182,451.5z"/>
			</g>
			<g>
				<path d="M249.3,441.9v10.3c-3.5-0.9-7.2-1.4-10.9-1.4c-8.1-0.2-15.9,2.5-22.3,7.4v25.4h-12.3v-42.4h12.3v7.2
					c6.3-5.7,13.8-7.9,21.8-7.9C241.8,440.5,245.6,441,249.3,441.9z"/>
			</g>
			<g>
				<path d="M305.4,462.2v21.4H293v-5.3c-8,4-16.8,6.1-25.8,6c-11.9,0-19.3-3.8-19.3-13.4c0-11,12.1-14.5,25.6-14.5
					c6.6-0.1,13.2,1,19.5,3c0-8.1-10.4-8.7-16.1-8.7c-7.1,0-14.2,1-21,3.1l-4.4-9c8.4-2.8,17.2-4.3,26-4.4
					C295.1,440.5,305.2,446.2,305.4,462.2z M293,467.1c-5.8-1.8-11.9-2.7-18-2.6c-9.2,0-14.8,1.6-14.8,5.9s4.1,4.8,10.5,4.8
					c7.6-0.3,15.2-1.9,22.3-4.8V467.1z"/>
				<path d="M369.9,462.5c0,16.2-11.7,21.9-25.3,21.9c-9.1,0-16.6-2.5-21.2-7.3v6.6h-12.3V426h12.3v21.8c4.6-4.8,12-7.4,21.2-7.4
					C358.2,440.5,369.9,446.3,369.9,462.5z M357.5,462.5c0-8.4-6-11.7-17-11.7s-17.1,3.2-17.1,11.7s6,11.6,17.1,11.6
					S357.5,470.8,357.5,462.5L357.5,462.5z"/>
				<path d="M373.4,462.5c0-15.6,11.8-22,29.4-22s29.4,6.3,29.4,22s-11.9,21.9-29.4,21.9S373.4,478,373.4,462.5z M419.8,462.5
					c0-8.9-5.6-11.7-17-11.7s-17.1,2.8-17.1,11.7s5.6,11.6,17.1,11.6S419.8,471.2,419.8,462.5z"/>
				<path d="M449.1,426v57.6h-12.3V426H449.1z"/>
				<path d="M512.6,426v57.6h-12.3V477c-4.6,4.8-12,7.3-21.2,7.3c-13.6,0-25.3-5.7-25.3-21.9s11.7-22,25.3-22
					c9.1,0,16.6,2.5,21.2,7.4V426H512.6z M500.3,462.4c0-8.4-6-11.7-17.1-11.7s-17,3.2-17,11.7s6,11.6,17,11.6
					S500.3,470.8,500.3,462.4L500.3,462.4z"/>
			</g>
		</g>
		<g>
			<g>
				<path d="M739.3,1.2l-25.9,50.4h-17.7L669.8,1.2h14.5l20.2,40.8l20.2-40.8H739.3z"/>
			</g>
			<g>
				<path class="st0" d="M769.2,40.8h38.3v10.9H751v-6.5c0-21,44.2-16.3,44.2-27.7c0-4.2-2.7-6-13.8-6S765.2,13,765.2,21h-13
					c0-16.8,11.8-20.5,28.5-20.5c17.4,0,27.5,3.3,27.5,15.8C808.2,35.8,772.3,30.7,769.2,40.8z"/>
			</g>
			<g>
				<path class="st0" d="M832.4,42v9.6h-12.3V42H832.4z"/>
			</g>
			<g>
				<path class="st0" d="M835.5,26.4c0-16.7,9.5-25.9,29.5-25.9s29.5,9.2,29.5,25.9s-9.6,26-29.5,26S835.5,43.1,835.5,26.4z
					 M881.6,26.4c0-9.4-5.2-15-16.6-15s-16.6,5.6-16.6,15s5.2,15.1,16.5,15.1S881.6,35.8,881.6,26.4z"/>
			</g>
			<g>
				<path d="M730,87.6v2.2h-26.9V138h-2.3V89.8h-26.9v-2.2H730z"/>
			</g>
			<g>
				<path d="M776.9,97c3.3,1.5,5.9,4,7.5,7.3c1.7,3.4,2.6,8,2.7,13.8V138h-2.3v-19.9c0-5.2-0.7-9.4-2.2-12.5
					c-1.3-2.9-3.7-5.3-6.6-6.6c-3.6-1.5-7.5-2.1-11.4-2c-4.4-0.1-8.7,0.9-12.6,2.8c-3.7,1.7-6.8,4.4-9,7.8
					c-2.2,3.4-3.4,7.4-3.3,11.5V138h-2.3V80.4h2.3v28.7c2-4.5,5.5-8.2,9.8-10.6c4.7-2.6,9.9-3.9,15.2-3.8
					C768.8,94.7,773,95.4,776.9,97z"/>
			</g>
			<g>
				<path d="M800.7,87.6v-7.2h2.3v7.2H800.7z M800.7,138V96.3h2.3V138L800.7,138z"/>
				<path d="M857.1,97c3.3,1.5,5.9,4,7.5,7.3c1.7,3.4,2.6,8,2.7,13.8V138h-2.3v-19.9c0-5.2-0.7-9.4-2.2-12.5
					c-1.3-2.9-3.7-5.3-6.6-6.6c-3.6-1.5-7.5-2.1-11.4-2c-4.4-0.1-8.7,0.9-12.6,2.8c-3.7,1.7-6.8,4.4-9,7.8
					c-2.2,3.4-3.4,7.4-3.3,11.5V138h-2.3V96.3h2.3v12.9c2-4.5,5.4-8.2,9.8-10.6c4.7-2.6,9.9-3.9,15.2-3.8
					C849,94.7,853.2,95.4,857.1,97z"/>
			</g>
			<g>
				<path d="M678.5,174v46.6h41.4v3.8h-45.6V174H678.5z"/>
			</g>
			<g>
				<path d="M730.8,175v-8.1h4.2v8.1H730.8z M730.8,224.5v-41.8h4.2v41.8L730.8,224.5z"/>
			</g>
			<g>
				<path d="M795.8,182.7h4.2v39.1c0,7.1-1.9,12.4-5.6,16c-3.7,3.6-9.9,5.4-18.5,5.4c-3.6,0-6.9-0.1-9.8-0.4
					c-2.9-0.2-6.6-0.6-11-1.1l-4.6-0.6v-3.8l4.3,0.5c4.1,0.5,7.7,0.9,10.6,1.1s6.1,0.4,9.5,0.4c5.5,0,9.7-0.7,12.8-2.1
					c2.8-1.1,5.1-3.3,6.4-6c1.3-3.2,1.9-6.7,1.8-10.2v-6.5c-2,3.6-5,6.5-8.7,8.3c-4.5,2.1-9.4,3.1-14.3,2.9
					c-4.7,0.1-9.4-0.8-13.8-2.6c-3.7-1.6-6.9-4.2-9.1-7.6c-4.3-7.5-4.3-16.7,0-24.2c2.2-3.4,5.3-6.1,9.1-7.6
					c4.4-1.8,9.1-2.7,13.8-2.6c4.9-0.1,9.8,0.9,14.3,2.9c3.7,1.8,6.8,4.7,8.7,8.3L795.8,182.7z M789.7,217.2
					c4.1-3.2,6.1-7.8,6.1-13.7c0-5.9-2-10.5-6.1-13.7c-4-3.2-9.5-4.9-16.2-4.9s-12.2,1.6-16.3,4.8c-4.1,3.2-6.1,7.8-6.1,13.7
					c0,5.9,2,10.5,6.1,13.7c4.1,3.2,9.5,4.8,16.3,4.8S785.7,220.4,789.7,217.2z"/>
			</g>
			<g>
				<path d="M859.2,186.5c3.9,3.5,5.8,9.4,5.9,17.8v20.2H861v-19.7c0-4.8-0.7-8.6-2-11.4c-1.3-2.8-3.6-5-6.4-6.3
					c-3.6-1.5-7.4-2.1-11.2-2c-4.3-0.1-8.5,0.8-12.4,2.6c-3.6,1.6-6.6,4.1-8.8,7.4c-2.2,3.3-3.3,7.2-3.2,11.2v18.2h-4.2v-57.6h4.2
					V194c2.4-4,5.9-7.3,10.1-9.5c4.6-2.3,9.7-3.4,14.9-3.3C849.6,181.2,855.3,183,859.2,186.5z"/>
			</g>
			<g>
				<path d="M912.9,186.5h-23.1v22.9c0,3.6,0.4,6.4,1.3,8.2c0.7,1.7,2.2,3,3.9,3.6c2.5,0.7,5.1,1,7.6,0.9c1.5,0,3-0.1,4.4-0.2
					c1.5-0.1,3.4-0.4,5.9-0.8v3.7c-3.6,0.6-7.2,1-10.9,1.1c-3.2,0.1-6.5-0.3-9.6-1.3c-2.3-0.9-4.2-2.6-5.2-4.9
					c-1.1-2.4-1.7-5.8-1.7-10.3v-22.9h-13.2v-3.8h13.3v-11l4.2-2v13h23.1L912.9,186.5z"/>
			</g>
			<g>
				<path d="M734.3,296.7c0,4.4-1.4,7.9-4.1,10.4c-2.7,2.5-6.8,3.7-12.1,3.7H674v-50.4h43.6c5.3,0,9.1,1.2,11.5,3.6
					c2.4,2.5,3.7,5.8,3.6,9.2c0,2.2-0.4,4.4-1.4,6.5c-0.9,2-2.3,3.7-4.1,5C731.7,286.9,734.5,291.6,734.3,296.7z M681,266.8v15.4
					h34.1c1.8,0,3.6-0.1,5.4-0.5c1.3-0.3,2.5-1.1,3.3-2.2c0.9-1.5,1.3-3.2,1.2-5c0.1-1.7-0.3-3.5-1.2-5c-0.8-1.1-1.9-1.9-3.2-2.2
					c-1.8-0.4-3.7-0.5-5.5-0.5L681,266.8z M716.8,304.5c1.9,0,3.7-0.1,5.5-0.5c1.3-0.3,2.5-1.1,3.2-2.3c0.9-1.6,1.3-3.4,1.2-5.3
					c0.1-1.8-0.3-3.6-1.2-5.2c-0.8-1.1-1.9-1.9-3.2-2.2c-1.8-0.4-3.6-0.6-5.4-0.5H681v16L716.8,304.5z"/>
			</g>
			<g>
				<path d="M756.2,309.8c-4-1.4-7.6-4-10.1-7.5c-4.9-7.5-4.9-17.2,0-24.7c2.6-3.4,6.1-6,10.1-7.5c9.8-3.3,20.4-3.3,30.1,0
					c4.1,1.4,7.6,4,10.2,7.5c4.9,7.5,4.9,17.2,0,24.7c-2.6,3.4-6.1,6.1-10.2,7.5C776.6,313.1,766,313.1,756.2,309.8z M787,301.9
					c3.7-2.7,5.5-6.7,5.5-12c0-5.3-1.8-9.3-5.5-11.9c-3.7-2.7-8.9-4-15.8-4s-12.1,1.3-15.7,4c-3.7,2.7-5.5,6.6-5.5,12
					s1.8,9.3,5.5,12c3.7,2.7,8.9,4,15.7,4S783.3,304.6,787,301.9z"/>
			</g>
			<g>
				<path d="M823,309.8c-4-1.4-7.6-4-10.1-7.5c-4.9-7.5-4.9-17.2,0-24.7c2.6-3.4,6.1-6,10.1-7.5c9.8-3.3,20.4-3.3,30.1,0
					c4.1,1.4,7.6,4,10.2,7.5c4.9,7.5,4.9,17.2,0,24.7c-2.6,3.4-6.1,6.1-10.2,7.5C843.4,313.1,832.8,313.1,823,309.8L823,309.8z
					 M853.8,301.9c3.7-2.7,5.6-6.7,5.5-12c0-5.3-1.9-9.3-5.6-11.9c-3.7-2.7-8.9-4-15.8-4s-12.1,1.3-15.7,4c-3.7,2.7-5.5,6.6-5.5,12
					s1.8,9.3,5.5,12c3.7,2.7,8.9,4,15.7,4S850.1,304.6,853.8,301.9L853.8,301.9z"/>
			</g>
			<g>
				<path d="M918.9,269.1h12.6L904,287.3l27.5,23.5h-11l-22.6-19.5L885,300v10.9h-7v-57.6h7v38.3L918.9,269.1z"/>
			</g>
			<g>
				<path d="M718.4,382.3l9.3,15h-15.3l-8.1-13.5h-20.9v13.5h-13v-50.4H710c11.5,0,19.3,7.3,19.3,18.5
					C729.4,373.5,725.2,379.6,718.4,382.3z M683.4,372.9h23c3.9,0,9.9,0,9.9-7.6s-6-7.6-9.9-7.6h-23V372.9z"/>
			</g>
			<g>
				<path d="M782.3,382h12.2c-2.8,10.8-13.3,15.9-29,15.9c-16.1,0-28.7-6.3-28.7-21.9s12.2-22,29.4-22c16.1,0,29,5.5,29,24.8h-45.8
					c1.4,6.8,7.8,9,16,9C774,387.9,779.2,386.4,782.3,382z M749.9,371.1h32.2c-2.1-6-8.1-7.6-15.9-7.6
					C757.7,363.5,751.8,365.1,749.9,371.1L749.9,371.1z"/>
			</g>
			<g>
				<path d="M861.9,354.8v35.6c0,17.3-11.6,24.8-27.7,24.8c-9,0-17.9-1.2-26.6-3.4v-9.9c5,0.9,14.5,3,23.8,3
					c12.7,0,17.5-4.9,18-15.8c-4.3,4.8-11.5,7.6-21.5,7.6c-14.5,0-24.9-6.3-24.9-21.3s10.4-21.3,24.9-21.3c10.1,0,17.2,2.8,21.5,7.6
					v-6.8L861.9,354.8z M849.5,375.4c0-7.8-5.4-11-17-11s-17.1,3.2-17.1,11s5.5,11,17.1,11S849.5,383.2,849.5,375.4z"/>
			</g>
			<g>
				<path d="M932.1,354.8v42.4h-12.3v-7.4c-7.1,5.4-15.8,8.3-24.7,8.1c-11.3,0-21.9-4-22-19.6l0.2-23.5h12.3v18.8
					c0,9,3,13.7,13.2,13.7c8.3,0,17.2-4.3,21-8.7v-23.8H932.1z"/>
			</g>
			<g>
				<path d="M956.3,339.6v57.6H944v-57.6H956.3z"/>
			</g>
			<g>
				<path d="M1020.9,375.8v21.4h-12.4V392c-8,4-16.8,6.1-25.8,6c-11.9,0-19.3-3.8-19.3-13.4c0-11,12.1-14.5,25.6-14.5
					c6.6-0.1,13.2,1,19.5,3c0-8.1-10.4-8.7-16.1-8.7c-7.1,0-14.2,1-21,3.1l-4.4-9c8.4-2.8,17.2-4.3,26-4.4
					C1010.7,354.1,1020.8,359.8,1020.9,375.8z M1008.5,380.7c-5.8-1.8-11.9-2.7-18-2.6c-9.2,0-14.8,1.6-14.8,5.9s4.1,4.8,10.5,4.8
					c7.6-0.3,15.2-1.9,22.3-4.8V380.7z"/>
			</g>
			<g>
				<path d="M1076.6,355.5v10.3c-3.5-0.9-7.2-1.4-10.9-1.4c-8.1-0.2-15.9,2.5-22.3,7.4v25.4h-12.3v-42.4h12.3v7.2
					c6.3-5.7,13.8-7.9,21.8-7.9C1069,354.1,1072.8,354.6,1076.6,355.5z"/>
			</g>
			<g>
				<path d="M752.6,432.8v50.8h-11.1v-41l-23.5,41h-10.2l-23.6-41v41h-11v-50.8h17.3l22.3,38.2l22.3-38.2L752.6,432.8z"/>
			</g>
			<g>
				<path d="M803.8,474.5c2.4-1,4.4-2.8,5.6-5.1h11.1c-1.3,5-4.6,9.2-9.2,11.6c-4.8,2.7-11.2,4.1-19,4.1c-9.2,0-16.4-1.9-21.8-5.7
					c-5.4-3.8-8.1-9.4-8.1-16.8c-0.2-4.5,1.2-8.8,3.8-12.5c2.7-3.5,6.3-6.1,10.4-7.6c4.9-1.8,10-2.6,15.1-2.6c9.1,0,16.2,2,21.5,5.9
					c5.3,3.9,7.9,10.2,7.9,19h-47.5c0.3,3.6,2.3,6.9,5.5,8.7c3.2,1.8,7.7,2.7,13.5,2.7C797.4,476.3,801.2,475.7,803.8,474.5z
					 M774.1,457.3h35.2c-0.8-3-2.9-5.5-5.8-6.9c-3-1.5-6.9-2.2-11.9-2.2C781.9,448.3,776,451.3,774.1,457.3L774.1,457.3z"/>
			</g>
			<g>
				<path d="M876.9,426h10.6v57.6h-10.6v-7.3c-2.3,2.9-5.3,5.2-8.8,6.5c-4.2,1.6-8.7,2.3-13.2,2.2c-4.5,0.1-9-0.8-13.2-2.4
					c-3.8-1.5-7-4.1-9.4-7.5c-2.3-3.3-3.5-7.5-3.5-12.6c0-5.1,1.2-9.3,3.5-12.6c2.3-3.4,5.6-6,9.4-7.5c4.2-1.7,8.7-2.5,13.2-2.4
					c4.5-0.1,9,0.7,13.2,2.2c3.5,1.3,6.5,3.6,8.8,6.5V426z M872,472.3c5.4-4.1,6.5-11.9,2.3-17.3c-0.7-0.9-1.5-1.7-2.3-2.3
					c-3.2-2.3-7.8-3.5-13.8-3.5c-6,0-10.4,1.2-13.5,3.5c-5.4,4.5-6.2,12.6-1.6,18c0.5,0.6,1,1.1,1.6,1.6c3.1,2.3,7.6,3.5,13.5,3.5
					S868.7,474.7,872,472.3z"/>
			</g>
			<g>
				<path d="M898.6,436.1V426h10.6v10.1H898.6z M898.6,483.6v-42.2h10.6v42.2H898.6z"/>
			</g>
			<g>
				<path d="M969,441.4h10.6v42.2H969v-9.5c-2.7,3.5-6.2,6.3-10.2,8.1c-4.6,2-9.6,2.9-14.7,2.8c-7.6,0-13.5-1.8-17.6-5.3
					c-4.1-3.5-6.2-9.1-6.3-16.9v-21.5h10.7v18.5c0,5.4,1.3,9.4,3.8,12c2.5,2.6,6.9,3.9,13.1,3.9c6.5,0,11.6-1.5,15.5-4.5
					c3.9-3,5.8-7.4,5.8-13.1L969,441.4z"/>
				<path d="M1076.9,445c3.5,3.3,5.2,8.5,5.3,15.5v23.1h-10.7v-22c0-4.3-1-7.4-3.1-9.4s-5.4-3-10.2-3c-2.8,0-5.5,0.5-8,1.6
					c-2.4,1-4.5,2.7-6,4.9c-1.6,2.3-2.4,5.1-2.3,7.9v20h-10.6v-22c0-4.2-1-7.4-3.1-9.4s-5.5-3.1-10.2-3.1c-2.8,0-5.5,0.5-8,1.6
					c-2.4,1-4.5,2.7-6,4.9c-1.6,2.3-2.4,5.1-2.3,7.9v20h-10.6v-42.1h10.6v8.2c5-6.4,11.8-9.6,20.3-9.6c4.1-0.1,8.2,0.8,11.8,2.9
					c3.2,2,5.6,5.1,6.7,8.7c5.2-7.7,12.5-11.5,21.7-11.5C1068.5,440,1073.4,441.7,1076.9,445z"/>
			</g>
			<g>
				<path d="M731.3,555.1c0,8.3-5,14.9-16.4,14.9h-46.1v-50.4h43.9c11.5,0,15,5.2,15,12.8c-0.2,3.5-1.6,6.9-4,9.4
					C728.1,545,731.3,549.7,731.3,555.1z M687.5,537.3h17.3c1.9,0,4.2,0,4.2-2.7s-2.3-2.7-4.2-2.7h-17.3V537.3z M712.6,553.7
					c0-2.7-2.3-2.7-4.2-2.7h-20.9v5.3h20.9C710.3,556.3,712.6,556.3,712.6,553.7z"/>
			</g>
			<g>
				<path d="M736.8,548.4c0-16,11-22.3,29.4-22.3s29.4,6.3,29.4,22.3s-11,22.3-29.4,22.3S736.8,564.4,736.8,548.4z M778.3,548.4
					c0-6.3-4.4-7.9-12.1-7.9s-12.1,1.6-12.1,7.9s4.4,7.9,12.1,7.9S778.3,554.8,778.3,548.4z"/>
				<path d="M814.3,512.4V570H797v-57.6L814.3,512.4z"/>
			</g>
			<g>
				<path d="M886.8,512.4V570h-17.3v-5.9c-4.5,4.6-11.2,6.6-17.9,6.6c-11.2,0-23.6-4.9-23.6-22.3s12.5-22.3,23.6-22.3
					c6.7,0,13.3,2,17.9,6.6v-20.3H886.8z M869.5,548.4c0-6.3-4.4-7.9-12.1-7.9s-12.1,1.6-12.1,7.9s4.4,7.9,12.1,7.9
					S869.5,554.8,869.5,548.4z"/>
			</g>
			<g>
				<path d="M731.3,641.5c0,8.3-5,14.9-16.4,14.9h-46.1V606h43.9c11.5,0,15,5.2,15,12.8c-0.2,3.5-1.6,6.9-4,9.4
					C728.1,631.4,731.3,636,731.3,641.5z M687.5,623.7h17.3c1.9,0,4.2,0,4.2-2.7s-2.3-2.7-4.2-2.7h-17.3V623.7z M712.6,640.1
					c0-2.7-2.3-2.7-4.2-2.7h-20.9v5.3h20.9C710.3,642.7,712.6,642.7,712.6,640.1z"/>
			</g>
			<g>
				<path d="M753.6,598.8v57.6h-17.3v-57.6H753.6z"/>
				<path d="M813.3,635v21.4H796v-5.3c-6.7,4.9-14.2,6-21.7,6c-9.9,0-18.5-3.5-18.5-12.9c0-11.2,13-14.2,25.6-14.2
					c5-0.1,9.9,0.6,14.6,2.2c0-5.2-5.5-5.4-11.2-5.4c-6.7,0-13.3,0.8-19.8,2.2l-5.6-12.2c8.4-2.8,17.2-4.3,26-4.4
					C803,612.5,813.1,618.5,813.3,635z M796,640.5c-3.8-0.8-7.6-1.2-11.5-1.1c-8,0-11.5,0.7-11.5,3.5c0,2.4,2,2.7,6.4,2.7
					c5.7,0,11.3-1.2,16.5-3.3V640.5z"/>
			</g>
			<g>
				<path d="M857,612.5c17.1,0,27.8,5.5,29.2,19.1h-17.6c-1.4-3.7-5.4-4.7-11.6-4.7c-7.7,0-12.1,1.6-12.1,7.9s4.4,7.9,12.1,7.9
					c6.2,0,10.2-1,11.6-4.7h17.6c-1.4,13.6-12.2,19.1-29.2,19.1c-18.4,0-29.4-6.3-29.4-22.3S838.7,612.5,857,612.5z"/>
				<path d="M929,631.2l23.6,25.3h-22.3l-14.5-16.3l-10.2,7.4v8.8h-17.3v-57.6h17.3v29.8l20.3-15.4h26.6L929,631.2z"/>
			</g>
			<g>
				<path d="M735.8,692.4v50.4H717v-17.3h-29.5v17.3h-18.7v-50.4h18.7v17.3H717v-17.3H735.8z"/>
			</g>
			<g>
				<path d="M783.7,726.6h16.9c-2.2,11.5-11.5,16.9-29.2,16.9c-16.9,0-28.7-6.3-28.7-22.3s11.7-22.3,29.4-22.3s29.2,6.3,29.2,25.2
					h-41c1.4,4.6,6.3,5.8,11,5.8C777.7,729.9,780.2,729.4,783.7,726.6z M761.2,715.5h21.8c-1.9-3.9-6.3-4.3-10.9-4.3
					S763.1,711.6,761.2,715.5z"/>
			</g>
			<g>
				<path d="M866.7,721.4v21.4h-17.3v-5.3c-6.7,4.9-14.2,6-21.7,6c-9.9,0-18.5-3.5-18.5-12.9c0-11.2,13-14.2,25.6-14.2
					c5-0.1,9.9,0.6,14.6,2.2c0-5.2-5.5-5.4-11.2-5.4c-6.7,0-13.3,0.8-19.8,2.2l-5.6-12.2c8.4-2.8,17.2-4.3,26-4.4
					C856.5,698.9,866.5,705,866.7,721.4z M849.4,726.9c-3.8-0.8-7.6-1.2-11.5-1.1c-8,0-11.5,0.7-11.5,3.5c0,2.4,2,2.7,6.4,2.7
					c5.7,0,11.3-1.2,16.5-3.3L849.4,726.9z"/>
			</g>
			<g>
				<path d="M933.3,699.6l-18,43.2h-24.6l-18-43.2h18.7l11.6,30.2l11.5-30.2H933.3z"/>
			</g>
			<g>
				<path d="M1006.2,699.6l-24.6,61.2h-18.7l7.2-18h-7.9l-18-43.2h18.7l12.5,30l12-30L1006.2,699.6z"/>
			</g>
		</g>
		<g>
			<line class="st1" x1="614.9" y1="25.9" x2="344.5" y2="25.9"/>
			<polyline class="st1" points="1150.5,139.3 1150.5,25.9 955.4,25.9 			"/>
			<polyline class="st1" points="1070.8,717.2 1150.5,717.2 1150.5,603.9 			"/>
			<polyline class="st1" points="1,603.9 1,717.2 601.9,717.2 			"/>
			<polyline class="st1" points="50.3,25.9 1,25.9 1,139.3 			"/>
		</g>
	</g>
</g>
</svg>
