<svg xmlns="http://www.w3.org/2000/svg" viewBox="0 0 1849.97 1422.44"><defs><style>.cls-1{fill:#5c5c5c;}.cls-2{fill:#020202;}.cls-3{fill:#e95925;}.cls-10,.cls-11,.cls-12,.cls-13,.cls-14,.cls-15,.cls-16,.cls-17,.cls-18,.cls-19,.cls-20,.cls-21,.cls-22,.cls-23,.cls-24,.cls-25,.cls-26,.cls-27,.cls-28,.cls-29,.cls-30,.cls-31,.cls-32,.cls-33,.cls-34,.cls-35,.cls-36,.cls-37,.cls-38,.cls-39,.cls-4,.cls-40,.cls-41,.cls-42,.cls-43,.cls-44,.cls-45,.cls-46,.cls-47,.cls-48,.cls-49,.cls-5,.cls-50,.cls-51,.cls-52,.cls-53,.cls-54,.cls-6,.cls-7,.cls-8,.cls-9{fill:none;stroke-miterlimit:10;}.cls-4{stroke:#e95925;stroke-width:4px;}.cls-10,.cls-11,.cls-12,.cls-13,.cls-14,.cls-15,.cls-16,.cls-17,.cls-18,.cls-19,.cls-20,.cls-21,.cls-22,.cls-23,.cls-24,.cls-25,.cls-26,.cls-27,.cls-28,.cls-29,.cls-30,.cls-31,.cls-32,.cls-33,.cls-34,.cls-35,.cls-36,.cls-37,.cls-38,.cls-39,.cls-40,.cls-41,.cls-42,.cls-43,.cls-44,.cls-45,.cls-46,.cls-47,.cls-48,.cls-49,.cls-5,.cls-50,.cls-51,.cls-52,.cls-53,.cls-54,.cls-6,.cls-7,.cls-8,.cls-9{stroke:#000;stroke-width:2px;}.cls-6{stroke-dasharray:9.11 9.11;}.cls-7{stroke-dasharray:9.58 9.58;}.cls-8{stroke-dasharray:5.94 5.94;}.cls-9{stroke-dasharray:6.64 6.64;}.cls-10{stroke-dasharray:9.51 9.51;}.cls-11{stroke-dasharray:10.16 10.16;}.cls-12{stroke-dasharray:7.64 7.64;}.cls-13{stroke-dasharray:9.22 9.22;}.cls-14{stroke-dasharray:6.72 6.72;}.cls-15{stroke-dasharray:7.64 7.64;}.cls-16{stroke-dasharray:7.72 7.72;}.cls-17{stroke-dasharray:10.05 10.05;}.cls-18{stroke-dasharray:8.26 8.26;}.cls-19{stroke-dasharray:9.89 9.89;}.cls-20{stroke-dasharray:9.51 9.51;}.cls-21{stroke-dasharray:10.17 10.17;}.cls-22{stroke-dasharray:9.33 9.33;}.cls-23{stroke-dasharray:9.04 9.04;}.cls-24{stroke-dasharray:7.03 7.03;}.cls-25{stroke-dasharray:9.97 9.97;}.cls-26{stroke-dasharray:9.84 9.84;}.cls-27{stroke-dasharray:10.67 10.67;}.cls-28{stroke-dasharray:10.58 10.58;}.cls-29{stroke-dasharray:8.34 8.34;}.cls-30{stroke-dasharray:9.17 9.17;}.cls-31{stroke-dasharray:9.93 9.93;}.cls-32{stroke-dasharray:8.2 8.2;}.cls-33{stroke-dasharray:11.05 11.05;}.cls-34{stroke-dasharray:9.97 9.97;}.cls-35{stroke-dasharray:10.44 10.44;}.cls-36{stroke-dasharray:10.09 10.09;}.cls-37{stroke-dasharray:10.09 10.09;}.cls-38{stroke-dasharray:10.46 10.46;}.cls-39{stroke-dasharray:10.46 10.46;}.cls-40{stroke-dasharray:10.44 10.44;}.cls-41{stroke-dasharray:10.2 10.2;}.cls-42{stroke-dasharray:10.07 10.07;}.cls-43{stroke-dasharray:10.08 10.08;}.cls-44{stroke-dasharray:10.2 10.2;}.cls-45{stroke-dasharray:10.2 10.2;}.cls-46{stroke-dasharray:10.2 10.2;}.cls-47{stroke-dasharray:9.72 9.72;}.cls-48{stroke-dasharray:10.06 10.06;}.cls-49{stroke-dasharray:10.05 10.05;}.cls-50{stroke-dasharray:9.71 9.71;}.cls-51{stroke-dasharray:9.71 9.71;}.cls-52{stroke-dasharray:10.05 10.05;}.cls-53{stroke-dasharray:10.06 10.06;}.cls-54{stroke-dasharray:9.72 9.72;}</style></defs><g id="Calque_2" data-name="Calque 2"><g id="DIFF_GRAISSES_V1V2" data-name="DIFF GRAISSES V1V2"><path class="cls-1" d="M5.45,9.88V70.73H59.53v5H0V9.88Z"/><path class="cls-1" d="M73.73,11.1V.48h5.46V11.1Zm0,64.61V21.17h5.46V75.71Z"/><path class="cls-1" d="M158.65,21.17h5.46V72.23q0,13.83-7.29,20.88t-24.22,7.06q-7,0-12.79-.47t-14.39-1.51l-6-.75V92.55l5.54.66q8.1,1,13.88,1.5t12.46.47Q142,95.18,148,92.5a15.79,15.79,0,0,0,8.32-7.8q2.35-5.13,2.35-13.31V62.92a25.28,25.28,0,0,1-11.37,10.87q-7.62,3.81-18.72,3.81a44.22,44.22,0,0,1-18-3.39,26.17,26.17,0,0,1-11.85-10,28.82,28.82,0,0,1-4.18-15.8,28.85,28.85,0,0,1,4.18-15.8,26.17,26.17,0,0,1,11.85-10,44.39,44.39,0,0,1,18-3.38q11.1,0,18.72,3.81A25.31,25.31,0,0,1,158.65,34Zm-7.94,45.14q7.95-6.3,7.94-17.87t-7.94-17.87q-8-6.3-21.21-6.3t-21.3,6.3q-8,6.3-8,17.87t8,17.87q8,6.3,21.3,6.3T150.71,66.31Z"/><path class="cls-1" d="M241.46,26.15Q249,33,249.22,49.38V75.71h-5.45V50q0-9.31-2.69-14.91a16.61,16.61,0,0,0-8.32-8.18q-5.64-2.59-14.67-2.59a38.21,38.21,0,0,0-16.17,3.34,27.26,27.26,0,0,0-11.48,9.64,25.69,25.69,0,0,0-4.23,14.67V75.71h-5.46V.48h5.46V35.93a32.39,32.39,0,0,1,13.17-12.32,41.84,41.84,0,0,1,19.46-4.32Q233.89,19.29,241.46,26.15Z"/><path class="cls-1" d="M311.57,26.15H281.38V56.06q0,7.14,1.65,10.67a8.53,8.53,0,0,0,5.13,4.71,32.74,32.74,0,0,0,10,1.17c1.95,0,3.87-.09,5.79-.28s4.46-.53,7.66-1v4.89a90.56,90.56,0,0,1-14.2,1.42q-8,0-12.51-1.7a11.88,11.88,0,0,1-6.72-6.35q-2.2-4.65-2.21-13.49V26.15H258.62v-5h17.31V6.78l5.45-2.54V21.17h30.19Z"/><path class="cls-2" d="M1723.67,345.44l36.2-61.22h6.3L1727,350.05h-6.68l-39.12-65.83h6.2Z"/><path class="cls-2" d="M1814.42,284.22v60.85h25.67v5h-56.71v-5H1809l.09-55.21-23.7,10-2-5,25.3-10.63Z"/><path class="cls-3" d="M1723.67,571.5l36.2-61.22h6.3L1727,576.11h-6.68l-39.12-65.83h6.2Z"/><path class="cls-3" d="M1845.6,539.48a30.25,30.25,0,0,1-10.68,7.1,175,175,0,0,1-16.93,5.55q-9.4,2.73-14.9,4.79a31.51,31.51,0,0,0-9.55,5.55,13.29,13.29,0,0,0-4.7,8.65H1850v5h-67.53v-2.82a17.48,17.48,0,0,1,4.8-12.46,32.89,32.89,0,0,1,11.38-7.57,175.9,175.9,0,0,1,17.49-5.84q9.5-2.71,15.05-4.89a28.2,28.2,0,0,0,9.31-5.73,11.91,11.91,0,0,0,3.76-9q0-14.38-24.54-14.39-14,0-21.35,4.84T1791,532.66h-5.73q0-11.94,8.93-18.1t25.49-6.16q14.76,0,22.52,4.79t7.76,14.67A16.12,16.12,0,0,1,1845.6,539.48Z"/><path class="cls-2" d="M207.73,348.19H103.84L84.59,384.14H43.77l87.9-162.34h48L267.8,384.14H226.75ZM192.66,319.9l-36.87-69.34L118.68,319.9Z"/><path class="cls-1" d="M491.4,51.18a12.46,12.46,0,0,1,2.54,8.18V76.19H482V62.27a13.65,13.65,0,0,0-.76-5.22,4.4,4.4,0,0,0-2.67-2.44,17.91,17.91,0,0,0-5.79-.71H431.87V76.19h-12V10.08h49.38q12.14,0,18.85,4.84T494.79,30q0,12.78-10.82,17.3A11.4,11.4,0,0,1,491.4,51.18ZM431.87,20.71V43.37H466.1a47,47,0,0,0,7.95-.56,9.85,9.85,0,0,0,5.5-3.06q2.35-2.49,2.35-7.76t-2.35-7.66a9.85,9.85,0,0,0-5.5-3.06,46,46,0,0,0-7.95-.56Z"/><path class="cls-1" d="M560.85,65.28A15.74,15.74,0,0,0,568.71,58H581.4q-2.53,9.51-12,14.77T545.2,78.07q-17.69,0-28.22-7.38T506.45,48.83q0-9.69,4.94-16.27a29.36,29.36,0,0,1,13.49-9.83,54.15,54.15,0,0,1,19.37-3.25q17.5,0,27.75,7.53t10.25,24.73h-63q.93,8.37,7.48,12.23t18.57,3.85Q555.36,67.82,560.85,65.28ZM520,42.15H568.8a14.57,14.57,0,0,0-7.95-9.55q-6.15-3-16.6-3.05Q523.85,29.55,520,42.15Z"/><path class="cls-1" d="M657.49,21.36h11.75V69.14q0,16.36-9.12,23.93t-26.43,7.57a148.32,148.32,0,0,1-35-4.42l.37-9.87q9.78,1.88,16.7,2.91a98.73,98.73,0,0,0,14.62,1q10.35,0,16.22-2.54A15.87,15.87,0,0,0,655,80.14q2.49-5.07,2.5-13.35A26.27,26.27,0,0,1,646.15,75a46.59,46.59,0,0,1-17.25,2.87,49.34,49.34,0,0,1-18.25-3.2A28.34,28.34,0,0,1,597.81,65q-4.74-6.53-4.75-16.31t4.75-16.23a28.39,28.39,0,0,1,12.84-9.73,49.34,49.34,0,0,1,18.25-3.2,46.59,46.59,0,0,1,17.25,2.87,26.19,26.19,0,0,1,11.34,8.23Zm-6.68,41a16.19,16.19,0,0,0,6.68-13.73A16.1,16.1,0,0,0,650.81,35q-6.67-5-19.19-5t-19.18,5a16.1,16.1,0,0,0-6.68,13.64,16.19,16.19,0,0,0,6.68,13.73q6.67,5,19.18,5T650.81,62.37Z"/><path class="cls-1" d="M749.09,21.36h11.75V76.1H749.09V63.87a34.68,34.68,0,0,1-13.36,10.58q-8,3.63-19.28,3.62-15.13,0-23.42-7t-8.46-22.38V21.36h11.76V46.1q0,10.9,5.26,16.17t18.06,5.27q13.26,0,21.35-6.21t8.09-18.15Z"/><path class="cls-1" d="M777.11,76.19V1h11.76V76.19Z"/><path class="cls-1" d="M860.62,22.21a22.07,22.07,0,0,1,11.71,9q4,6.3,4.09,16.93v28H864.67V69.42a136.68,136.68,0,0,1-18.39,6.3A73.88,73.88,0,0,1,827.61,78q-13,0-19.51-4.66t-6.54-14.15q0-10.06,9.22-14.67t24.08-4.61a107.64,107.64,0,0,1,29.81,4.42q-.2-8.75-7.95-11.71a47.3,47.3,0,0,0-17-3,95,95,0,0,0-13.69,1,100.8,100.8,0,0,0-15.56,3.77l-4.33-9.31a132.7,132.7,0,0,1,17.35-4.24,103.84,103.84,0,0,1,17.35-1.41Q852.92,19.48,860.62,22.21ZM846.85,65.52A165.87,165.87,0,0,0,864.67,60V54.09a123.36,123.36,0,0,0-13.78-3.15,93,93,0,0,0-15.28-1.17q-10.07,0-15.71,2.25t-5.64,7.15q0,5.08,4.23,6.87t12.7,1.78A67.18,67.18,0,0,0,846.85,65.52Z"/><path class="cls-1" d="M944.42,21.55V32.09a57.25,57.25,0,0,0-14.58-2,37.1,37.1,0,0,0-12.79,2.3q-6.3,2.31-14.48,8.7V76.19H890.81V21.36h11.76v9.78A38.51,38.51,0,0,1,915.5,22a38,38,0,0,1,14.06-2.54A52.52,52.52,0,0,1,944.42,21.55Z"/><path class="cls-2" d="M730.6,349.58H633.42L616,384.14H570.11L653.83,221.8h56.36l83.95,162.34H748Zm-15.54-31.07-32.93-65.87L649,318.51Z"/><path class="cls-1" d="M1180.67,46.22a15.3,15.3,0,0,1,3.43,10.3q0,8.74-5.5,13.73t-17.16,5h-57.09V8.09h54.45q22.2,0,22.2,16.64a16.4,16.4,0,0,1-2.54,9.22,19,19,0,0,1-7.15,6.3A20.65,20.65,0,0,1,1180.67,46.22Zm-56.85-23.55v12.5h28.68a32.32,32.32,0,0,0,5-.28,4.2,4.2,0,0,0,2.73-1.64,7.11,7.11,0,0,0,1-4.28,7.31,7.31,0,0,0-1-4.38,4.16,4.16,0,0,0-2.73-1.64,32.32,32.32,0,0,0-5-.28Zm31.78,38a23.71,23.71,0,0,0,4.52-.33,4.32,4.32,0,0,0,2.63-1.69,7.31,7.31,0,0,0,1-4.38,7.06,7.06,0,0,0-1-4.32,4.39,4.39,0,0,0-2.63-1.65,23.71,23.71,0,0,0-4.52-.33h-31.78v12.7Z"/><path class="cls-1" d="M1202.86,69.36q-10.29-7.76-10.29-22t10.29-22.06q10.31-7.76,29.3-7.76t29.39,7.76q10.29,7.76,10.29,22.06t-10.29,22q-10.3,7.76-29.39,7.76T1202.86,69.36Zm44.86-10.53q5.13-3.72,5.13-11.52t-5.17-11.53q-5.17-3.7-15.52-3.71t-15.47,3.71q-5.13,3.72-5.13,11.53t5.13,11.52q5.11,3.7,15.47,3.71T1247.72,58.83Z"/><path class="cls-1" d="M1282.75,75.24V0h18.15V75.24Z"/><path class="cls-1" d="M1371.44,0h18.15V75.24h-18.15V65.36a24.9,24.9,0,0,1-11.19,8.84,41.93,41.93,0,0,1-16.09,2.92,41,41,0,0,1-16-3.06,26.2,26.2,0,0,1-11.8-9.73q-4.51-6.67-4.52-17t4.52-17a26.2,26.2,0,0,1,11.8-9.73,41,41,0,0,1,16-3.06,41.93,41.93,0,0,1,16.09,2.92,24.9,24.9,0,0,1,11.19,8.84Zm-5.22,58.17q5.22-3.72,5.22-10.86t-5.22-10.82Q1361,32.72,1351,32.73t-15,3.71q-5.07,3.72-5.08,10.87t5,10.86q5,3.7,15.1,3.71T1366.22,58.17Z"/><path class="cls-2" d="M1288.94,352.37h-83.72l-13.91,31.77H1135l75.61-162.34h73L1359,384.14h-56.12Zm-16.23-36.65-25.51-58.21-25.74,58.21Z"/><path class="cls-3" d="M260.61,614H245.08l-24.59-41.51H90.85L66.26,614H51l96.48-162.34H163.9ZM155.79,463,98.27,560h114.8Z"/><path class="cls-3" d="M795.3,614H761.68L741.5,578.77H623L602.81,614H569l94.39-163h37.57ZM682.13,475.57,637.6,553.26h89.06Z"/><path class="cls-3" d="M1365.36,614h-51.48l-15.77-31.31h-102L1180.29,614h-51.72l85.35-165.59h66.33Zm-118.27-132-32.71,64.71h65.41Z"/><path class="cls-1" d="M1739.52,445l20.4-34.24h4.27l-22.06,37H1737l-22.06-37h4.2Z"/><path class="cls-1" d="M1772.1,436a8.83,8.83,0,0,0,3.16,5.74,16.21,16.21,0,0,0,7.23,3,65.32,65.32,0,0,0,11.86.89,58.89,58.89,0,0,0,10.78-.77c2.59-.51,4.44-1.31,5.54-2.42a6.09,6.09,0,0,0,1.66-4.53,5.52,5.52,0,0,0-1.56-4.36,10.21,10.21,0,0,0-5.07-1.95q-3.51-.57-12.31-1.21a10.2,10.2,0,0,1-1.27-.06,109.44,109.44,0,0,1-13.1-1.6,14.11,14.11,0,0,1-6.83-3,7.56,7.56,0,0,1-2.2-5.81q0-5.93,5.65-8.19t16.29-2.26a62.67,62.67,0,0,1,11.67.92,16.37,16.37,0,0,1,7.61,3.41,10.75,10.75,0,0,1,3.54,6.95h-3.89a7.75,7.75,0,0,0-5.51-6.28c-3.12-1.08-7.71-1.62-13.74-1.62q-9.43,0-13.58,1.59t-4.15,5.36a4.39,4.39,0,0,0,1.66,3.73,13.71,13.71,0,0,0,5.55,1.94q3.89.71,12.3,1.4l2.75.26q7.9.7,11.76,1.43a12.22,12.22,0,0,1,6.09,2.78q2.23,2,2.23,6.25,0,6.18-5.26,8.79T1794.54,449a71.31,71.31,0,0,1-13.16-1.05,20.31,20.31,0,0,1-9.06-3.89,11.43,11.43,0,0,1-4.11-8.07Z"/><g id="V2"><path class="cls-4" d="M235.33,726.9v12.29H89.69v62.62h141v12.53h-141V877H235.33v12.29H76.24V726.9Z"/><path class="cls-4" d="M767.94,726.21v26H626v42.67H763.3V820.6H626v42.9H767.94v25.74H596.32v-163Z"/><path class="cls-4" d="M1332.78,723.65v37.57H1209.17v26.44h119v37.57h-119v26.44h123.61v37.57H1161.16V723.65Z"/><path class="cls-4" d="M249.25,1258.1v12.29H162.51v150H149.06v-150H62.32V1258.1Z"/><path class="cls-4" d="M781.85,1257.4v26.44H697v136.6H667.51v-136.6H582.4V1257.4Z"/><path class="cls-4" d="M1346.7,1254.85v40.82h-75.61v124.77h-48V1295.67h-75.84v-40.82Z"/><path class="cls-4" d="M76,1152.74H55.6l90.45-81.17L55.6,990.4H76l79.78,71.89,79.78-71.89H256l-90.45,81.17L256,1152.74H235.57l-79.78-71.9Z"/><path class="cls-4" d="M614.06,1152.74H570.22l91.61-81.4L570.22,989.7h43.84l68,61,68.18-61H794l-91.84,81.64,91.84,81.4H750.19l-68.18-61Z"/><path class="cls-4" d="M1194.32,1154.84h-65.63l85.81-82.79-85.81-82.8h65.63l52.65,53.11,52.65-53.11h65.63l-85.81,82.8,85.81,82.79h-65.63L1247,1101.73Z"/></g><g id="V1"><polyline class="cls-5" points="112.08 756.82 107.08 756.82 107.08 761.82"/><line class="cls-6" x1="107.08" y1="770.93" x2="107.08" y2="784.6"/><polyline class="cls-5" points="107.08 789.16 107.08 794.16 112.08 794.16"/><line class="cls-7" x1="121.66" y1="794.16" x2="231.81" y2="794.16"/><polyline class="cls-5" points="236.59 794.16 241.59 794.16 241.59 799.16"/><line class="cls-8" x1="241.59" y1="805.1" x2="241.59" y2="814.02"/><polyline class="cls-5" points="241.59 816.99 241.59 821.99 236.59 821.99"/><line class="cls-7" x1="227.02" y1="821.99" x2="116.87" y2="821.99"/><polyline class="cls-5" points="112.08 821.99 107.08 821.99 107.08 826.99"/><line class="cls-6" x1="107.08" y1="836.1" x2="107.08" y2="849.77"/><polyline class="cls-5" points="107.08 854.33 107.08 859.33 112.08 859.33"/><line class="cls-7" x1="121.66" y1="859.33" x2="231.81" y2="859.33"/><polyline class="cls-5" points="236.59 859.33 241.59 859.33 241.59 864.33"/><line class="cls-9" x1="241.59" y1="870.97" x2="241.59" y2="880.93"/><polyline class="cls-5" points="241.59 884.25 241.59 889.25 236.59 889.25"/><line class="cls-10" x1="227.09" y1="889.24" x2="79.73" y2="889.24"/><polyline class="cls-5" points="74.98 889.25 69.98 889.25 69.98 884.25"/><line class="cls-11" x1="69.98" y1="874.09" x2="69.98" y2="736.98"/><polyline class="cls-5" points="69.98 731.91 69.98 726.91 74.98 726.91"/><line class="cls-10" x1="84.48" y1="726.91" x2="231.84" y2="726.91"/><polyline class="cls-5" points="236.59 726.91 241.59 726.91 241.59 731.91"/><line class="cls-9" x1="241.59" y1="738.54" x2="241.59" y2="748.5"/><polyline class="cls-5" points="241.59 751.82 241.59 756.82 236.59 756.82"/><line class="cls-7" x1="227.02" y1="756.82" x2="116.87" y2="756.82"/><polyline class="cls-5" points="643.06 760.07 638.06 760.07 638.06 765.07"/><line class="cls-12" x1="638.06" y1="772.71" x2="638.06" y2="784.18"/><polyline class="cls-5" points="638.06 788 638.06 793 643.06 793"/><line class="cls-13" x1="652.28" y1="793" x2="758.32" y2="793"/><polyline class="cls-5" points="762.93 793 767.93 793 767.93 798"/><line class="cls-14" x1="767.93" y1="804.72" x2="767.93" y2="814.79"/><polyline class="cls-5" points="767.93 818.15 767.93 823.15 762.93 823.15"/><line class="cls-13" x1="753.71" y1="823.15" x2="647.67" y2="823.15"/><polyline class="cls-5" points="643.06 823.15 638.06 823.15 638.06 828.15"/><line class="cls-15" x1="638.06" y1="835.79" x2="638.06" y2="847.26"/><polyline class="cls-5" points="638.06 851.08 638.06 856.08 643.06 856.08"/><line class="cls-13" x1="652.28" y1="856.08" x2="758.32" y2="856.08"/><polyline class="cls-5" points="762.93 856.08 767.93 856.08 767.93 861.08"/><line class="cls-16" x1="767.93" y1="868.8" x2="767.93" y2="880.38"/><polyline class="cls-5" points="767.93 884.25 767.93 889.25 762.93 889.25"/><line class="cls-10" x1="753.43" y1="889.24" x2="606.07" y2="889.24"/><polyline class="cls-5" points="601.32 889.25 596.32 889.25 596.32 884.25"/><line class="cls-11" x1="596.32" y1="874.09" x2="596.32" y2="736.98"/><polyline class="cls-5" points="596.32 731.91 596.32 726.91 601.32 726.91"/><line class="cls-10" x1="610.82" y1="726.91" x2="758.18" y2="726.91"/><polyline class="cls-5" points="762.93 726.91 767.93 726.91 767.93 731.91"/><line class="cls-16" x1="767.93" y1="739.63" x2="767.93" y2="751.21"/><polyline class="cls-5" points="767.93 755.07 767.93 760.07 762.93 760.07"/><line class="cls-13" x1="753.71" y1="760.07" x2="647.67" y2="760.07"/><polyline class="cls-5" points="1217.18 766.56 1212.18 766.56 1212.18 771.56"/><polyline class="cls-5" points="1212.18 785.68 1212.18 790.68 1217.18 790.68"/><line class="cls-17" x1="1227.24" y1="790.68" x2="1322.75" y2="790.68"/><polyline class="cls-5" points="1327.78 790.68 1332.78 790.68 1332.78 795.68"/><line class="cls-18" x1="1332.78" y1="803.94" x2="1332.78" y2="816.34"/><polyline class="cls-5" points="1332.78 820.47 1332.78 825.47 1327.78 825.47"/><line class="cls-17" x1="1317.72" y1="825.47" x2="1222.21" y2="825.47"/><polyline class="cls-5" points="1217.18 825.47 1212.18 825.47 1212.18 830.47"/><polyline class="cls-5" points="1212.18 844.59 1212.18 849.59 1217.18 849.59"/><line class="cls-17" x1="1227.24" y1="849.59" x2="1322.75" y2="849.59"/><polyline class="cls-5" points="1327.78 849.59 1332.78 849.59 1332.78 854.59"/><line class="cls-19" x1="1332.78" y1="864.47" x2="1332.78" y2="879.3"/><polyline class="cls-5" points="1332.78 884.25 1332.78 889.25 1327.78 889.25"/><line class="cls-20" x1="1318.27" y1="889.24" x2="1170.92" y2="889.24"/><polyline class="cls-5" points="1166.16 889.25 1161.16 889.25 1161.16 884.25"/><line class="cls-11" x1="1161.16" y1="874.09" x2="1161.16" y2="736.98"/><polyline class="cls-5" points="1161.16 731.91 1161.16 726.91 1166.16 726.91"/><line class="cls-20" x1="1175.67" y1="726.91" x2="1323.02" y2="726.91"/><polyline class="cls-5" points="1327.78 726.91 1332.78 726.91 1332.78 731.91"/><line class="cls-19" x1="1332.78" y1="741.79" x2="1332.78" y2="756.62"/><polyline class="cls-5" points="1332.78 761.56 1332.78 766.56 1327.78 766.56"/><line class="cls-17" x1="1317.72" y1="766.56" x2="1222.21" y2="766.56"/><polyline class="cls-5" points="255.51 1284.18 255.51 1289.18 250.51 1289.18"/><line class="cls-21" x1="240.34" y1="1289.18" x2="184.42" y2="1289.18"/><polyline class="cls-5" points="179.34 1289.18 174.34 1289.18 174.34 1294.18"/><line class="cls-22" x1="174.34" y1="1303.51" x2="174.34" y2="1410.78"/><polyline class="cls-5" points="174.34 1415.44 174.34 1420.44 169.34 1420.44"/><line class="cls-23" x1="160.3" y1="1420.44" x2="146.75" y2="1420.44"/><polyline class="cls-5" points="142.23 1420.44 137.23 1420.44 137.23 1415.44"/><line class="cls-22" x1="137.23" y1="1406.11" x2="137.23" y2="1298.84"/><polyline class="cls-5" points="137.23 1294.18 137.23 1289.18 132.23 1289.18"/><line class="cls-21" x1="122.07" y1="1289.18" x2="66.15" y2="1289.18"/><polyline class="cls-5" points="61.06 1289.18 56.06 1289.18 56.06 1284.18"/><line class="cls-24" x1="56.06" y1="1277.15" x2="56.06" y2="1266.61"/><polyline class="cls-5" points="56.06 1263.1 56.06 1258.1 61.06 1258.1"/><line class="cls-25" x1="71.03" y1="1258.1" x2="245.52" y2="1258.1"/><polyline class="cls-5" points="250.51 1258.1 255.51 1258.1 255.51 1263.1"/><line class="cls-24" x1="255.51" y1="1270.13" x2="255.51" y2="1280.66"/><polyline class="cls-5" points="781.85 1288.12 781.85 1293.12 776.85 1293.12"/><line class="cls-26" x1="767.01" y1="1293.12" x2="712.92" y2="1293.12"/><polyline class="cls-5" points="708 1293.12 703 1293.12 703 1298.12"/><line class="cls-27" x1="703" y1="1308.79" x2="703" y2="1410.11"/><polyline class="cls-5" points="703 1415.44 703 1420.44 698 1420.44"/><line class="cls-28" x1="687.42" y1="1420.44" x2="671.54" y2="1420.44"/><polyline class="cls-5" points="666.25 1420.44 661.25 1420.44 661.25 1415.44"/><line class="cls-27" x1="661.25" y1="1404.77" x2="661.25" y2="1303.45"/><polyline class="cls-5" points="661.25 1298.12 661.25 1293.12 656.25 1293.12"/><line class="cls-26" x1="646.42" y1="1293.12" x2="592.32" y2="1293.12"/><polyline class="cls-5" points="587.4 1293.12 582.4 1293.12 582.4 1288.12"/><line class="cls-29" x1="582.4" y1="1279.78" x2="582.4" y2="1267.27"/><polyline class="cls-5" points="582.4 1263.1 582.4 1258.1 587.4 1258.1"/><line class="cls-25" x1="597.37" y1="1258.1" x2="771.86" y2="1258.1"/><polyline class="cls-5" points="776.85 1258.1 781.85 1258.1 781.85 1263.1"/><line class="cls-29" x1="781.85" y1="1271.44" x2="781.85" y2="1283.95"/><polyline class="cls-5" points="1346.69 1296.24 1346.69 1301.24 1341.69 1301.24"/><line class="cls-30" x1="1332.52" y1="1301.24" x2="1282.07" y2="1301.24"/><polyline class="cls-5" points="1277.48 1301.24 1272.48 1301.24 1272.48 1306.24"/><line class="cls-31" x1="1272.48" y1="1316.16" x2="1272.48" y2="1410.48"/><polyline class="cls-5" points="1272.48 1415.44 1272.48 1420.44 1267.48 1420.44"/><line class="cls-32" x1="1259.28" y1="1420.44" x2="1230.56" y2="1420.44"/><polyline class="cls-5" points="1226.46 1420.44 1221.46 1420.44 1221.46 1415.44"/><line class="cls-31" x1="1221.46" y1="1405.51" x2="1221.46" y2="1311.2"/><polyline class="cls-5" points="1221.46 1306.24 1221.46 1301.24 1216.46 1301.24"/><line class="cls-30" x1="1207.29" y1="1301.24" x2="1156.83" y2="1301.24"/><polyline class="cls-5" points="1152.25 1301.24 1147.25 1301.24 1147.25 1296.24"/><line class="cls-33" x1="1147.25" y1="1285.19" x2="1147.25" y2="1268.62"/><polyline class="cls-5" points="1147.25 1263.1 1147.25 1258.1 1152.25 1258.1"/><line class="cls-34" x1="1162.22" y1="1258.1" x2="1336.71" y2="1258.1"/><polyline class="cls-5" points="1341.69 1258.1 1346.69 1258.1 1346.69 1263.1"/><line class="cls-33" x1="1346.69" y1="1274.15" x2="1346.69" y2="1290.71"/><polyline class="cls-5" points="127.17 1074.82 130.97 1071.57 127.17 1068.32"/><line class="cls-35" x1="119.24" y1="1061.53" x2="43.88" y2="997.04"/><polyline class="cls-5" points="39.92 993.65 36.12 990.4 41.12 990.4"/><polyline class="cls-36" points="51.21 990.4 88.3 990.4 148.17 1041.83"/><polyline class="cls-5" points="151.99 1045.12 155.79 1048.38 159.57 1045.11"/><polyline class="cls-37" points="167.22 1038.52 223.04 990.4 265.41 990.4"/><polyline class="cls-5" points="270.45 990.4 275.45 990.4 271.65 993.65"/><line class="cls-38" x1="263.7" y1="1000.43" x2="188.15" y2="1064.93"/><polyline class="cls-5" points="184.17 1068.32 180.37 1071.57 184.17 1074.82"/><line class="cls-39" x1="192.13" y1="1081.6" x2="267.67" y2="1146.1"/><polyline class="cls-5" points="271.65 1149.49 275.45 1152.74 270.45 1152.74"/><polyline class="cls-37" points="260.36 1152.74 223.04 1152.74 163.4 1101.32"/><polyline class="cls-5" points="159.57 1098.03 155.79 1094.76 151.99 1098.02"/><polyline class="cls-36" points="144.34 1104.59 88.3 1152.74 46.16 1152.74"/><polyline class="cls-5" points="41.12 1152.74 36.12 1152.74 39.92 1149.49"/><line class="cls-40" x1="47.85" y1="1142.7" x2="123.21" y2="1078.21"/><polyline class="cls-5" points="650.1 1074.89 653.83 1071.57 650.1 1068.25"/><line class="cls-41" x1="642.47" y1="1061.47" x2="570.01" y2="997.11"/><polyline class="cls-5" points="566.2 993.72 562.46 990.4 567.46 990.4"/><polyline class="cls-42" points="577.53 990.4 619.97 990.4 674.65 1039.36"/><polyline class="cls-5" points="678.4 1042.72 682.13 1046.06 685.85 1042.72"/><polyline class="cls-43" points="693.34 1035.98 744.05 990.4 791.75 990.4"/><polyline class="cls-5" points="796.79 990.4 801.79 990.4 798.05 993.72"/><line class="cls-44" x1="790.43" y1="1000.5" x2="717.97" y2="1064.86"/><polyline class="cls-5" points="714.16 1068.25 710.42 1071.57 714.16 1074.89"/><line class="cls-45" x1="721.79" y1="1081.66" x2="794.24" y2="1146.03"/><polyline class="cls-5" points="798.05 1149.42 801.79 1152.74 796.79 1152.74"/><polyline class="cls-43" points="786.72 1152.74 744.05 1152.74 689.59 1103.79"/><polyline class="cls-5" points="685.85 1100.42 682.13 1097.08 678.4 1100.42"/><polyline class="cls-42" points="670.9 1107.14 619.97 1152.74 572.5 1152.74"/><polyline class="cls-5" points="567.46 1152.74 562.46 1152.74 566.2 1149.42"/><line class="cls-46" x1="573.82" y1="1142.64" x2="646.28" y2="1078.28"/><polyline class="cls-5" points="1207.89 1077.14 1211.49 1073.67 1207.89 1070.2"/><line class="cls-47" x1="1200.89" y1="1063.45" x2="1134.4" y2="999.35"/><polyline class="cls-5" points="1130.9 995.97 1127.3 992.5 1132.3 992.5"/><polyline class="cls-48" points="1142.36 992.5 1195.72 992.5 1239.86 1036.45"/><polyline class="cls-5" points="1243.43 1040 1246.97 1043.52 1250.52 1040"/><polyline class="cls-49" points="1257.66 1032.93 1298.45 992.5 1356.61 992.5"/><polyline class="cls-5" points="1361.64 992.5 1366.64 992.5 1363.04 995.98"/><line class="cls-50" x1="1356.06" y1="1002.73" x2="1289.77" y2="1066.82"/><polyline class="cls-5" points="1286.28 1070.2 1282.68 1073.67 1286.28 1077.15"/><line class="cls-51" x1="1293.26" y1="1083.89" x2="1359.55" y2="1147.99"/><polyline class="cls-5" points="1363.04 1151.37 1366.64 1154.84 1361.64 1154.84"/><polyline class="cls-52" points="1351.59 1154.84 1298.45 1154.84 1254.09 1110.88"/><polyline class="cls-5" points="1250.52 1107.34 1246.97 1103.82 1243.43 1107.35"/><polyline class="cls-53" points="1236.3 1114.44 1195.72 1154.84 1137.33 1154.84"/><polyline class="cls-5" points="1132.3 1154.84 1127.3 1154.84 1130.9 1151.37"/><line class="cls-54" x1="1137.9" y1="1144.62" x2="1204.39" y2="1080.52"/></g></g></g></svg>