<?xml version="1.0" encoding="utf-8"?>
<!-- Generator: Adobe Illustrator 25.1.0, SVG Export Plug-In . SVG Version: 6.00 Build 0)  -->
<svg version="1.1" xmlns="http://www.w3.org/2000/svg" xmlns:xlink="http://www.w3.org/1999/xlink" x="0px" y="0px"
	 viewBox="0 0 1921.7 359.3" style="enable-background:new 0 0 1921.7 359.3;" xml:space="preserve">
<style type="text/css">
	.st0{fill:none;stroke:#E4E4E7;stroke-width:2;stroke-miterlimit:10;}
	.st1{fill:none;stroke:#000000;stroke-width:2;stroke-miterlimit:10;}
	.st2{fill:#E95925;}
</style>
<g id="Calque_1">
	<line class="st0" x1="1.9" y1="283.6" x2="1921.7" y2="283.6"/>
	<line class="st0" x1="1.9" y1="38.5" x2="1921.7" y2="38.5"/>
	<line class="st0" x1="0" y1="1" x2="1919.7" y2="1"/>
	<line class="st0" x1="1.9" y1="80" x2="1921.7" y2="80"/>
	<path d="M1515.6,98.6c20,16.9,30.1,44.1,30.4,81.6v103.5h-51v-89.2c0-26.2-6.1-45.5-18.4-58s-33.3-18.8-63.2-18.8
		c-31.2,0-56.2,7.2-74.8,21.7c-18.6,14.5-28,35.6-28,63.4v80.9h-51V5.9h51V126c13.1-16.8,30-30.3,49.3-39.2
		c19.4-9,43.1-13.5,70.8-13.5C1467.2,73.2,1495.5,81.7,1515.6,98.6z"/>
	<line class="st1" x1="1550.2" y1="110.1" x2="1733.6" y2="110.1"/>
	<circle cx="1550.5" cy="110.1" r="4.5"/>
	<path class="st2" d="M1515.6,98.6c-20-16.9-48.3-25.3-84.9-25.3c-27.8,0-51.4,4.5-70.8,13.5c-19.3,8.9-36.2,22.4-49.3,39.2v76.7
		c0-27.8,9.3-48.9,28-63.4s43.6-21.7,74.8-21.7c29.9,0,50.9,6.2,63.2,18.8c5,5.2,9,11.3,11.7,18h55.8
		C1540.2,129.9,1530.7,111.3,1515.6,98.6z"/>
	<line class="st1" x1="804.2" y1="293.6" x2="620.8" y2="293.6"/>
	<path d="M803.9,289.1c2.5,0,4.5,2,4.5,4.5s-2,4.5-4.5,4.5c-2.5,0-4.5-2-4.5-4.5C799.4,291.2,801.4,289.1,803.9,289.1L803.9,289.1z"
		/>
	<path d="M963.8,79.8h48.9v169.5c-0.2,38.1-10.8,65.9-31.7,83.6s-51.9,26.4-92.8,26.4c-40.1,0-82.4-5.3-126.8-15.9l3.3-39.3l7.6,1.3
		c20.3,4,38.5,7,54.8,9.2c16.3,2.2,32.8,3.3,49.2,3.3c21.8,0,39-2.6,51.7-7.8c12.7-5.2,21.8-13.2,27.4-24c5.6-10.8,8.4-25,8.4-42.6
		v-5c-9.7,12.8-22.8,22.6-39.5,29.4c-16.6,6.7-36.3,10.1-59,10.1c-22.5,0-42.9-3.6-61.3-10.9s-33.1-18.6-44.1-34
		c-11-15.4-16.5-34.6-16.5-57.6c0-23.1,5.5-42.3,16.5-57.6s25.7-26.6,43.9-33.9c18.3-7.3,38.8-10.9,61.5-10.9
		c22.7,0,42.4,3.4,59,10.1c16.6,6.7,29.8,16.5,39.5,29.2L963.8,79.8z M942.3,219.9c14.3-10.6,21.5-25.3,21.5-44.3
		c0-18.9-7.2-33.7-21.5-44.3c-14.3-10.6-35.2-15.9-62.8-15.9s-48.4,5.3-62.8,15.9c-14.3,10.6-21.5,25.3-21.5,44.3
		c0,18.9,7.2,33.7,21.5,44.3c14.3,10.6,35.2,15.9,62.8,15.9C907.1,235.7,928,230.5,942.3,219.9z"/>
	<path class="st2" d="M956.7,283.6c-0.4,0.9-0.8,1.8-1.3,2.6c-5.6,10.8-14.8,18.8-27.4,24c-12.7,5.2-29.9,7.8-51.7,7.7
		c-16.5,0-32.9-1.1-49.2-3.3c-16.3-2.2-34.6-5.3-54.8-9.2l-7.6-1.3l-3.3,39.3c44.5,10.6,86.7,15.9,126.8,15.9
		c41,0,71.9-8.8,92.8-26.4c14-11.8,23.4-28.2,28.1-49.2H956.7z"/>
	<path d="M245.8,44.5c-6.9,2.4-11.6,6.3-14.1,11.7c-2.5,5.5-3.8,13.4-4,23.8l91-0.7l0.3,42.4l-91,0.7l1.2,161.1l-51.4,0.4
		l-1.2-161.1l-58.3,0.4L118,80.9l58.3-0.4v-5.6C175.9,26.1,202.7,1.4,256.6,1c11.3-0.1,21.2,0.1,29.7,0.5s19.1,1.2,31.8,2.5
		l0.3,38.5c-16.7-1.3-30.7-1.8-42-1.8C263,40.9,252.8,42.2,245.8,44.5z"/>
	<path class="st2" d="M286.3,1.5C277.9,1.1,268,0.9,256.6,1c-53.9,0.4-80.7,25-80.3,73.9v5.6l51.4-0.4c0.1-10.4,1.5-18.3,4-23.8
		c2.5-5.5,7.2-9.4,14.2-11.7c6.9-2.4,17.1-3.6,30.5-3.7c11.3-0.1,25.3,0.5,42,1.8L318.1,4C305.4,2.7,294.8,1.9,286.3,1.5z"/>
	<line class="st1" x1="274.8" y1="59.4" x2="458.1" y2="58.1"/>
	<path d="M275,64c-2.5,0-4.5-2-4.5-4.5s2-4.5,4.5-4.5c2.5,0,4.5,2,4.5,4.5c0,0,0,0,0,0C279.5,61.9,277.5,64,275,64z"/>
</g>
<g id="Calque_2">
	<g>
		<path d="M483.3,57.8c0,2.4-0.7,4.1-2,5.3c-1.3,1.2-3.3,1.7-6.1,1.7c-2.8,0-4.8-0.6-6.1-1.7c-1.3-1.2-2-2.9-2-5.3h2.9
			c0,0.8,0.1,1.5,0.4,2.2c0.2,0.6,0.7,1.2,1.5,1.6c0.7,0.4,1.8,0.7,3.3,0.7c1.4,0,2.5-0.2,3.3-0.7c0.8-0.4,1.2-1,1.5-1.6
			c0.2-0.6,0.4-1.4,0.4-2.1v-4.2h-6.6V51h9.6V57.8z"/>
		<path d="M497.5,53.4c1,0.4,1.8,1,2.4,1.9c0.5,0.9,0.8,2,0.8,3.5v5.8h-2.8v-1.4c-1.2,0.6-2.4,1-3.6,1.3c-1.2,0.3-2.5,0.5-3.7,0.5
			c-3.5,0-5.3-1.3-5.3-3.8c0-1.4,0.6-2.4,1.9-3s2.9-0.9,4.9-0.9c1.9,0,3.9,0.3,5.9,0.8c0-1.1-0.5-1.8-1.5-2.2
			c-1-0.4-2.1-0.6-3.3-0.6c-0.9,0-1.9,0.1-2.9,0.2c-1,0.1-2.1,0.4-3.3,0.8l-0.8-2.1c1.3-0.4,2.5-0.6,3.6-0.8s2.4-0.3,3.7-0.3
			C495.1,52.9,496.4,53.1,497.5,53.4z M494.4,62.1c1.2-0.3,2.3-0.6,3.4-1V60c-1.9-0.5-3.8-0.8-5.6-0.8c-2.7,0-4,0.6-4,1.7
			c0,0.6,0.3,1,0.8,1.3c0.5,0.2,1.3,0.3,2.4,0.3C492.2,62.5,493.2,62.4,494.4,62.1z"/>
		<path d="M526.2,54.2c0.9,0.9,1.4,2.3,1.4,4.1v6.2h-2.8v-5.9c0-1.1-0.3-2-0.8-2.5c-0.5-0.5-1.4-0.8-2.7-0.8c-0.8,0-1.5,0.1-2.1,0.4
			c-0.7,0.3-1.2,0.7-1.6,1.3c-0.4,0.6-0.6,1.3-0.6,2.1v5.3h-2.8v-5.9c0-1.1-0.3-2-0.8-2.5c-0.6-0.5-1.5-0.8-2.7-0.8
			c-0.8,0-1.5,0.1-2.1,0.4c-0.7,0.3-1.2,0.7-1.6,1.3c-0.4,0.6-0.6,1.3-0.6,2.1v5.3h-2.8V53.3h2.8v2.2c1.3-1.7,3.1-2.6,5.4-2.6
			c1.3,0,2.3,0.3,3.1,0.8c0.8,0.5,1.4,1.3,1.8,2.3c1.4-2,3.3-3.1,5.8-3.1C524,52.9,525.3,53.3,526.2,54.2z"/>
		<path d="M542.8,53.5c1,0.4,1.9,1.1,2.5,2s0.9,2,0.9,3.4c0,1.3-0.3,2.5-0.9,3.4c-0.6,0.9-1.5,1.6-2.5,2c-1,0.4-2.2,0.7-3.5,0.7
			c-1.4,0-2.5-0.2-3.5-0.6c-1-0.4-1.8-1-2.4-1.7v1.9h-2.8V49.2h2.8v6c0.6-0.8,1.4-1.3,2.4-1.7c1-0.4,2.2-0.6,3.5-0.6
			C540.6,52.9,541.8,53.1,542.8,53.5z M542,61.5c0.8-0.6,1.2-1.5,1.2-2.6c0-1.1-0.4-2-1.2-2.6s-2-0.9-3.6-0.9
			c-1.6,0-2.8,0.3-3.7,0.9c-0.9,0.6-1.3,1.5-1.3,2.6c0,1.1,0.4,2,1.3,2.6c0.9,0.6,2.1,0.9,3.7,0.9C540,62.4,541.2,62.1,542,61.5z"/>
		<path d="M560.4,53.4c1,0.4,1.8,1,2.4,1.9c0.5,0.9,0.8,2,0.8,3.5v5.8h-2.8v-1.4c-1.2,0.6-2.4,1-3.6,1.3c-1.2,0.3-2.5,0.5-3.7,0.5
			c-3.5,0-5.3-1.3-5.3-3.8c0-1.4,0.6-2.4,1.9-3s2.9-0.9,4.9-0.9c1.9,0,3.9,0.3,5.9,0.8c0-1.1-0.5-1.8-1.5-2.2
			c-1-0.4-2.1-0.6-3.3-0.6c-0.9,0-1.9,0.1-2.9,0.2c-1,0.1-2.1,0.4-3.3,0.8l-0.8-2.1c1.3-0.4,2.5-0.6,3.6-0.8s2.4-0.3,3.7-0.3
			C558,52.9,559.4,53.1,560.4,53.4z M557.4,62.1c1.2-0.3,2.3-0.6,3.4-1V60c-1.9-0.5-3.8-0.8-5.6-0.8c-2.7,0-4,0.6-4,1.7
			c0,0.6,0.3,1,0.8,1.3c0.5,0.2,1.3,0.3,2.4,0.3C555.1,62.5,556.2,62.4,557.4,62.1z"/>
		<path d="M578.8,53.3h2.8v9.8c0,2.2-0.6,3.8-1.8,4.9c-1.2,1-3,1.5-5.4,1.5c-2.3,0-4.8-0.3-7.4-0.9l0.2-2.3l0.4,0.1
			c1.2,0.2,2.2,0.4,3.2,0.5c0.9,0.1,1.9,0.2,2.9,0.2c1.3,0,2.3-0.2,3-0.5c0.7-0.3,1.3-0.8,1.6-1.4c0.3-0.6,0.5-1.5,0.5-2.5v-0.3
			c-0.6,0.7-1.3,1.3-2.3,1.7c-1,0.4-2.1,0.6-3.4,0.6c-1.3,0-2.5-0.2-3.6-0.6c-1.1-0.4-1.9-1.1-2.6-2c-0.6-0.9-1-2-1-3.3
			c0-1.3,0.3-2.5,1-3.3c0.6-0.9,1.5-1.5,2.6-2c1.1-0.4,2.3-0.6,3.6-0.6c1.3,0,2.5,0.2,3.4,0.6s1.7,1,2.3,1.7V53.3z M577.5,61.4
			c0.8-0.6,1.2-1.5,1.2-2.6c0-1.1-0.4-2-1.2-2.6s-2-0.9-3.6-0.9c-1.6,0-2.8,0.3-3.6,0.9c-0.8,0.6-1.2,1.5-1.2,2.6
			c0,1.1,0.4,2,1.2,2.6c0.8,0.6,2,0.9,3.6,0.9C575.5,62.3,576.7,62,577.5,61.4z"/>
		<path d="M595.2,62.1c0.7-0.3,1.2-0.8,1.5-1.4h3c-0.3,1.3-1.2,2.4-2.4,3.1c-1.3,0.7-3,1.1-5.1,1.1c-2.4,0-4.4-0.5-5.8-1.5
			s-2.2-2.5-2.2-4.5c0-1.3,0.3-2.4,1-3.3c0.7-0.9,1.6-1.6,2.8-2c1.2-0.4,2.5-0.7,4-0.7c2.4,0,4.3,0.5,5.7,1.6c1.4,1,2.1,2.7,2.1,5.1
			h-12.7c0.1,1.1,0.6,1.8,1.5,2.3c0.8,0.5,2,0.7,3.6,0.7C593.5,62.5,594.5,62.4,595.2,62.1z M587.3,57.5h9.4
			c-0.2-0.8-0.8-1.4-1.5-1.8c-0.8-0.4-1.8-0.6-3.2-0.6C589.4,55.1,587.8,55.9,587.3,57.5z"/>
		<path d="M613,60.7c0.1,0.5,0.2,0.9,0.6,1.1c0.3,0.3,0.9,0.5,1.6,0.6c0.7,0.1,1.8,0.2,3,0.2c1.2,0,2.2-0.1,2.8-0.2s1-0.3,1.3-0.5
			c0.2-0.2,0.3-0.5,0.3-0.9c0-0.3-0.1-0.6-0.3-0.8c-0.2-0.2-0.7-0.3-1.3-0.4c-0.6-0.1-1.7-0.2-3.3-0.3c-1.8-0.1-3.2-0.3-4.2-0.5
			c-1-0.2-1.7-0.5-2.2-0.9s-0.8-1.1-0.8-1.9c0-1.3,0.7-2.2,2-2.8c1.3-0.5,3.1-0.8,5.4-0.8c2.3,0,4.1,0.3,5.3,0.8
			c1.3,0.5,2,1.5,2.1,2.9h-3c0-0.4-0.2-0.7-0.5-0.9c-0.3-0.2-0.8-0.4-1.4-0.5c-0.6-0.1-1.5-0.1-2.7-0.1c-1.5,0-2.5,0.1-3.2,0.3
			c-0.6,0.2-0.9,0.5-0.9,0.9c0,0.3,0.1,0.5,0.3,0.6c0.2,0.1,0.7,0.3,1.3,0.4s1.7,0.2,3.1,0.3l0.7,0.1c1.7,0.1,2.9,0.3,3.8,0.5
			c0.9,0.2,1.5,0.5,2.1,0.9c0.5,0.5,0.8,1.1,0.8,2c0,1.4-0.6,2.4-1.8,3s-3,0.8-5.4,0.8c-2.6,0-4.6-0.3-6.1-0.9
			c-1.5-0.6-2.3-1.7-2.3-3.3H613z"/>
		<path d="M640.8,53.3h2.8v11.2h-2.8V62c-0.7,0.9-1.7,1.7-2.7,2.2s-2.4,0.7-3.9,0.7c-2,0-3.6-0.5-4.7-1.4c-1.1-0.9-1.7-2.4-1.7-4.5
			v-5.7h2.8v4.9c0,1.4,0.3,2.5,1,3.2c0.7,0.7,1.8,1,3.5,1c1.7,0,3.1-0.4,4.1-1.2c1-0.8,1.5-2,1.5-3.5V53.3z"/>
		<path d="M659,53.5c1,0.4,1.9,1.1,2.5,2c0.6,0.9,0.9,2,0.9,3.4c0,1.3-0.3,2.5-0.9,3.4c-0.6,0.9-1.5,1.6-2.5,2
			c-1,0.4-2.2,0.7-3.5,0.7c-1.4,0-2.5-0.2-3.5-0.6c-1-0.4-1.8-1-2.3-1.7v6.5h-2.8V53.3h2.8v1.9c0.6-0.8,1.3-1.3,2.3-1.7
			c1-0.4,2.2-0.6,3.5-0.6C656.8,52.9,657.9,53.1,659,53.5z M658.2,61.5c0.8-0.6,1.2-1.5,1.2-2.6c0-1.1-0.4-2-1.3-2.6
			c-0.9-0.6-2.1-0.9-3.7-0.9c-1.6,0-2.8,0.3-3.6,0.9s-1.2,1.5-1.2,2.6c0,1.1,0.4,2,1.3,2.6s2.1,0.9,3.7,0.9S657.3,62.1,658.2,61.5z"
			/>
		<path d="M675.5,62.1c0.7-0.3,1.2-0.8,1.5-1.4h3c-0.3,1.3-1.2,2.4-2.4,3.1c-1.3,0.7-3,1.1-5.1,1.1c-2.4,0-4.4-0.5-5.8-1.5
			s-2.2-2.5-2.2-4.5c0-1.3,0.3-2.4,1-3.3c0.7-0.9,1.6-1.6,2.8-2c1.2-0.4,2.5-0.7,4-0.7c2.4,0,4.3,0.5,5.7,1.6c1.4,1,2.1,2.7,2.1,5.1
			h-12.7c0.1,1.1,0.6,1.8,1.5,2.3c0.8,0.5,2,0.7,3.6,0.7C673.8,62.5,674.8,62.4,675.5,62.1z M667.6,57.5h9.4
			c-0.2-0.8-0.8-1.4-1.5-1.8c-0.8-0.4-1.8-0.6-3.2-0.6C669.7,55.1,668.1,55.9,667.6,57.5z M668.7,51.5v-2l7.5-1.5v2L668.7,51.5z"/>
		<path d="M693.8,53.3v2.5c-0.6-0.2-1.1-0.3-1.5-0.3s-0.9-0.1-1.4-0.1c-0.9,0-1.7,0.2-2.6,0.5c-0.8,0.3-1.8,0.9-2.8,1.8v6.8h-2.8
			V53.3h2.8v2.1c0.8-0.9,1.7-1.6,2.5-1.9c0.8-0.4,1.8-0.5,2.8-0.5C691.9,52.9,692.9,53,693.8,53.3z"/>
		<path d="M696.2,51.8v-2.7h2.8v2.7H696.2z M696.2,64.5V53.3h2.8v11.2H696.2z"/>
		<path d="M712.7,62.1c0.7-0.3,1.2-0.8,1.5-1.4h3c-0.3,1.3-1.2,2.4-2.4,3.1c-1.3,0.7-3,1.1-5.1,1.1c-2.4,0-4.4-0.5-5.8-1.5
			s-2.2-2.5-2.2-4.5c0-1.3,0.3-2.4,1-3.3c0.7-0.9,1.6-1.6,2.8-2c1.2-0.4,2.5-0.7,4-0.7c2.4,0,4.3,0.5,5.7,1.6c1.4,1,2.1,2.7,2.1,5.1
			h-12.7c0.1,1.1,0.6,1.8,1.5,2.3c0.8,0.5,2,0.7,3.6,0.7C711,62.5,712,62.4,712.7,62.1z M704.8,57.5h9.4c-0.2-0.8-0.8-1.4-1.5-1.8
			c-0.8-0.4-1.8-0.6-3.2-0.6C706.9,55.1,705.3,55.9,704.8,57.5z"/>
		<path d="M732.8,53.3h2.8v11.2h-2.8V62c-0.7,0.9-1.7,1.7-2.7,2.2s-2.4,0.7-3.9,0.7c-2,0-3.6-0.5-4.7-1.4c-1.1-0.9-1.7-2.4-1.7-4.5
			v-5.7h2.8v4.9c0,1.4,0.3,2.5,1,3.2c0.7,0.7,1.8,1,3.5,1c1.7,0,3.1-0.4,4.1-1.2c1-0.8,1.5-2,1.5-3.5V53.3z"/>
		<path d="M749.8,53.3v2.5c-0.6-0.2-1.1-0.3-1.5-0.3s-0.9-0.1-1.4-0.1c-0.9,0-1.7,0.2-2.6,0.5c-0.8,0.3-1.8,0.9-2.8,1.8v6.8h-2.8
			V53.3h2.8v2.1c0.8-0.9,1.7-1.6,2.5-1.9c0.8-0.4,1.8-0.5,2.8-0.5C748,52.9,749,53,749.8,53.3z"/>
	</g>
	<g>
		<path d="M362.3,292.7c0,2.4-0.7,4.1-2,5.3c-1.3,1.2-3.3,1.7-6.1,1.7c-2.8,0-4.8-0.6-6.1-1.7c-1.3-1.2-2-2.9-2-5.3h2.9
			c0,0.8,0.1,1.5,0.4,2.2s0.7,1.2,1.5,1.6c0.7,0.4,1.8,0.7,3.3,0.7c1.4,0,2.5-0.2,3.3-0.7c0.8-0.4,1.2-1,1.5-1.6
			c0.2-0.6,0.4-1.4,0.4-2.1v-4.2h-6.6v-2.6h9.6V292.7z"/>
		<path d="M376.4,288.3c1,0.4,1.8,1,2.4,1.9c0.5,0.9,0.8,2,0.8,3.5v5.8h-2.8V298c-1.2,0.5-2.4,1-3.6,1.3c-1.2,0.3-2.5,0.5-3.7,0.5
			c-3.5,0-5.3-1.3-5.3-3.8c0-1.4,0.6-2.4,1.9-3c1.3-0.6,2.9-0.9,4.9-0.9c1.9,0,3.9,0.3,5.9,0.8c0-1.1-0.5-1.8-1.5-2.2
			c-1-0.4-2.1-0.6-3.3-0.6c-0.9,0-1.9,0.1-2.9,0.2c-1,0.1-2.1,0.4-3.3,0.8l-0.8-2.1c1.3-0.4,2.5-0.6,3.6-0.8s2.4-0.3,3.7-0.3
			C374.1,287.8,375.4,288,376.4,288.3z M373.4,297c1.2-0.3,2.3-0.6,3.4-1v-1.1c-1.9-0.5-3.8-0.8-5.6-0.8c-2.7,0-4,0.6-4,1.7
			c0,0.6,0.3,1,0.8,1.3c0.5,0.2,1.3,0.3,2.4,0.3C371.2,297.4,372.2,297.3,373.4,297z"/>
		<path d="M405.2,289.1c0.9,0.9,1.4,2.3,1.4,4.1v6.2h-2.8v-5.9c0-1.1-0.3-2-0.8-2.5c-0.5-0.5-1.4-0.8-2.7-0.8
			c-0.8,0-1.5,0.1-2.1,0.4c-0.7,0.3-1.2,0.7-1.6,1.3c-0.4,0.6-0.6,1.3-0.6,2.1v5.3h-2.8v-5.9c0-1.1-0.3-2-0.8-2.5
			c-0.6-0.5-1.5-0.8-2.7-0.8c-0.8,0-1.5,0.1-2.1,0.4c-0.7,0.3-1.2,0.7-1.6,1.3c-0.4,0.6-0.6,1.3-0.6,2.1v5.3h-2.8v-11.2h2.8v2.2
			c1.3-1.7,3.1-2.6,5.4-2.6c1.3,0,2.3,0.3,3.1,0.8c0.8,0.5,1.4,1.3,1.8,2.3c1.4-2,3.3-3.1,5.8-3.1
			C403,287.8,404.3,288.2,405.2,289.1z"/>
		<path d="M421.8,288.4c1,0.4,1.9,1.1,2.5,2s0.9,2,0.9,3.4s-0.3,2.5-0.9,3.4s-1.5,1.6-2.5,2c-1,0.4-2.2,0.7-3.5,0.7
			c-1.4,0-2.5-0.2-3.5-0.6c-1-0.4-1.8-1-2.4-1.7v1.9h-2.8v-15.4h2.8v6c0.6-0.8,1.4-1.3,2.4-1.7c1-0.4,2.2-0.6,3.5-0.6
			C419.6,287.8,420.8,288,421.8,288.4z M421,296.4c0.8-0.6,1.2-1.5,1.2-2.6s-0.4-2-1.2-2.6c-0.8-0.6-2-0.9-3.6-0.9
			c-1.6,0-2.8,0.3-3.7,0.9c-0.9,0.6-1.3,1.5-1.3,2.6c0,1.1,0.4,2,1.3,2.6c0.9,0.6,2.1,0.9,3.7,0.9C419,297.3,420.2,297,421,296.4z"
			/>
		<path d="M439.4,288.3c1,0.4,1.8,1,2.4,1.9c0.5,0.9,0.8,2,0.8,3.5v5.8h-2.8V298c-1.2,0.5-2.4,1-3.6,1.3c-1.2,0.3-2.5,0.5-3.7,0.5
			c-3.5,0-5.3-1.3-5.3-3.8c0-1.4,0.6-2.4,1.9-3c1.3-0.6,2.9-0.9,4.9-0.9c1.9,0,3.9,0.3,5.9,0.8c0-1.1-0.5-1.8-1.5-2.2
			c-1-0.4-2.1-0.6-3.3-0.6c-0.9,0-1.9,0.1-2.9,0.2c-1,0.1-2.1,0.4-3.3,0.8l-0.8-2.1c1.3-0.4,2.5-0.6,3.6-0.8s2.4-0.3,3.7-0.3
			C437,287.8,438.3,288,439.4,288.3z M436.4,297c1.2-0.3,2.3-0.6,3.4-1v-1.1c-1.9-0.5-3.8-0.8-5.6-0.8c-2.7,0-4,0.6-4,1.7
			c0,0.6,0.3,1,0.8,1.3c0.5,0.2,1.3,0.3,2.4,0.3C434.1,297.4,435.1,297.3,436.4,297z"/>
		<path d="M457.8,288.2h2.8v9.8c0,2.2-0.6,3.8-1.8,4.9c-1.2,1-3,1.5-5.4,1.5c-2.3,0-4.8-0.3-7.4-0.9l0.2-2.3l0.4,0.1
			c1.2,0.2,2.2,0.4,3.2,0.5s1.9,0.2,2.9,0.2c1.3,0,2.3-0.2,3-0.5c0.7-0.3,1.3-0.8,1.6-1.4s0.5-1.5,0.5-2.5v-0.3
			c-0.6,0.7-1.3,1.3-2.3,1.7c-1,0.4-2.1,0.6-3.4,0.6c-1.3,0-2.5-0.2-3.6-0.6c-1.1-0.4-1.9-1.1-2.6-2c-0.6-0.9-1-2-1-3.3
			c0-1.3,0.3-2.5,1-3.3c0.6-0.9,1.5-1.5,2.6-2c1.1-0.4,2.3-0.6,3.6-0.6c1.3,0,2.5,0.2,3.4,0.6c1,0.4,1.7,1,2.3,1.7V288.2z
			 M456.5,296.3c0.8-0.6,1.2-1.5,1.2-2.6s-0.4-2-1.2-2.6s-2-0.9-3.6-0.9c-1.6,0-2.8,0.3-3.6,0.9c-0.8,0.6-1.2,1.5-1.2,2.6
			s0.4,2,1.2,2.6c0.8,0.6,2,0.9,3.6,0.9C454.5,297.2,455.7,296.9,456.5,296.3z"/>
		<path d="M474.2,297c0.7-0.3,1.2-0.8,1.5-1.4h3c-0.3,1.3-1.2,2.4-2.4,3.1c-1.3,0.7-3,1.1-5.1,1.1c-2.4,0-4.4-0.5-5.8-1.5
			c-1.4-1-2.2-2.5-2.2-4.5c0-1.3,0.3-2.4,1-3.3c0.7-0.9,1.6-1.6,2.8-2c1.2-0.4,2.5-0.7,4-0.7c2.4,0,4.3,0.5,5.7,1.6
			c1.4,1,2.1,2.7,2.1,5.1h-12.7c0.1,1.1,0.6,1.8,1.5,2.3c0.8,0.5,2,0.7,3.6,0.7C472.5,297.4,473.5,297.3,474.2,297z M466.3,292.4
			h9.4c-0.2-0.8-0.8-1.4-1.5-1.8c-0.8-0.4-1.8-0.6-3.2-0.6C468.3,290,466.8,290.8,466.3,292.4z"/>
		<path d="M489.2,286.7v-2.7h2.8v2.7H489.2z M489.2,299.4v-11.2h2.8v11.2H489.2z"/>
		<path d="M509.3,289.2c1.1,0.9,1.7,2.4,1.7,4.5v5.7h-2.8v-4.9c0-1.4-0.3-2.5-1-3.2c-0.7-0.7-1.8-1-3.5-1c-1.7,0-3.1,0.4-4.1,1.2
			c-1,0.8-1.5,2-1.5,3.5v4.5h-2.8v-11.2h2.8v2.5c0.7-0.9,1.7-1.7,2.7-2.2s2.4-0.7,3.9-0.7C506.7,287.8,508.2,288.2,509.3,289.2z"/>
		<path d="M520,286.2c-0.4,0.1-0.6,0.3-0.8,0.6c-0.1,0.3-0.2,0.7-0.2,1.3h5v2.3h-5v8.9h-2.8v-8.9h-3.2v-2.3h3.2v-0.3
			c0-2.7,1.5-4,4.5-4c0.6,0,1.2,0,1.6,0c0.5,0,1.1,0.1,1.8,0.2v2.1c-0.9-0.1-1.7-0.1-2.3-0.1C520.9,286,520.4,286.1,520,286.2z"/>
		<path d="M536.5,297c0.7-0.3,1.2-0.8,1.5-1.4h3c-0.3,1.3-1.2,2.4-2.4,3.1c-1.3,0.7-3,1.1-5.1,1.1c-2.4,0-4.4-0.5-5.8-1.5
			c-1.4-1-2.2-2.5-2.2-4.5c0-1.3,0.3-2.4,1-3.3c0.7-0.9,1.6-1.6,2.8-2c1.2-0.4,2.5-0.7,4-0.7c2.4,0,4.3,0.5,5.7,1.6
			c1.4,1,2.1,2.7,2.1,5.1h-12.7c0.1,1.1,0.6,1.8,1.5,2.3c0.8,0.5,2,0.7,3.6,0.7C534.8,297.4,535.8,297.3,536.5,297z M528.6,292.4
			h9.4c-0.2-0.8-0.8-1.4-1.5-1.8c-0.8-0.4-1.8-0.6-3.2-0.6C530.6,290,529.1,290.8,528.6,292.4z M529.6,286.4v-2l7.5-1.5v2
			L529.6,286.4z"/>
		<path d="M554.7,288.2v2.5c-0.6-0.2-1.1-0.3-1.5-0.3c-0.5-0.1-0.9-0.1-1.4-0.1c-0.9,0-1.7,0.2-2.6,0.5c-0.8,0.3-1.8,0.9-2.8,1.8
			v6.8h-2.8v-11.2h2.8v2.1c0.8-0.9,1.7-1.6,2.5-1.9c0.8-0.4,1.8-0.5,2.8-0.5C552.9,287.8,553.8,287.9,554.7,288.2z"/>
		<path d="M557.2,286.7v-2.7h2.8v2.7H557.2z M557.2,299.4v-11.2h2.8v11.2H557.2z"/>
		<path d="M573.6,297c0.7-0.3,1.2-0.8,1.5-1.4h3c-0.3,1.3-1.2,2.4-2.4,3.1c-1.3,0.7-3,1.1-5.1,1.1c-2.4,0-4.4-0.5-5.8-1.5
			c-1.4-1-2.2-2.5-2.2-4.5c0-1.3,0.3-2.4,1-3.3c0.7-0.9,1.6-1.6,2.8-2c1.2-0.4,2.5-0.7,4-0.7c2.4,0,4.3,0.5,5.7,1.6
			c1.4,1,2.1,2.7,2.1,5.1h-12.7c0.1,1.1,0.6,1.8,1.5,2.3c0.8,0.5,2,0.7,3.6,0.7C571.9,297.4,572.9,297.3,573.6,297z M565.7,292.4
			h9.4c-0.2-0.8-0.8-1.4-1.5-1.8c-0.8-0.4-1.8-0.6-3.2-0.6C567.8,290,566.3,290.8,565.7,292.4z"/>
		<path d="M593.7,288.2h2.8v11.2h-2.8v-2.5c-0.7,0.9-1.7,1.7-2.7,2.2s-2.4,0.7-3.9,0.7c-2,0-3.6-0.5-4.7-1.4
			c-1.1-0.9-1.7-2.4-1.7-4.5v-5.7h2.8v4.9c0,1.4,0.3,2.5,1,3.2c0.7,0.7,1.8,1,3.5,1c1.7,0,3.1-0.4,4.1-1.2c1-0.8,1.5-2,1.5-3.5
			V288.2z"/>
		<path d="M610.8,288.2v2.5c-0.6-0.2-1.1-0.3-1.5-0.3c-0.5-0.1-0.9-0.1-1.4-0.1c-0.9,0-1.7,0.2-2.6,0.5c-0.8,0.3-1.8,0.9-2.8,1.8
			v6.8h-2.8v-11.2h2.8v2.1c0.8-0.9,1.7-1.6,2.5-1.9c0.8-0.4,1.8-0.5,2.8-0.5C608.9,287.8,609.9,287.9,610.8,288.2z"/>
	</g>
	<g>
		<path d="M1757.8,103.8v2.5h-11.3v3.1h10.9v2.5h-10.9v3.1h11.3v2.5h-14.2v-13.5H1757.8z M1747.1,102v-2l7.5-1.5v2L1747.1,102z"/>
		<path d="M1773,106.3c1,0.4,1.9,1.1,2.5,2c0.6,0.9,0.9,2,0.9,3.4c0,1.3-0.3,2.5-0.9,3.4c-0.6,0.9-1.5,1.6-2.5,2s-2.2,0.7-3.5,0.7
			c-1.4,0-2.5-0.2-3.5-0.6c-1-0.4-1.8-1-2.3-1.7v6.5h-2.8v-15.9h2.8v1.9c0.6-0.8,1.3-1.3,2.3-1.7c1-0.4,2.2-0.6,3.5-0.6
			C1770.8,105.7,1771.9,105.9,1773,106.3z M1772.1,114.3c0.8-0.6,1.2-1.5,1.2-2.6c0-1.1-0.4-2-1.3-2.6c-0.9-0.6-2.1-0.9-3.7-0.9
			c-1.6,0-2.8,0.3-3.6,0.9c-0.8,0.6-1.2,1.5-1.2,2.6c0,1.1,0.4,2,1.3,2.6c0.9,0.6,2.1,0.9,3.7,0.9
			C1770.1,115.2,1771.3,114.9,1772.1,114.3z"/>
		<path d="M1790.5,106.2c1,0.4,1.8,1,2.4,1.9c0.5,0.9,0.8,2,0.8,3.5v5.8h-2.8v-1.4c-1.2,0.6-2.4,1-3.6,1.3c-1.2,0.3-2.5,0.5-3.7,0.5
			c-3.5,0-5.3-1.3-5.3-3.8c0-1.4,0.6-2.4,1.9-3c1.3-0.6,2.9-0.9,4.9-0.9c1.9,0,3.9,0.3,5.9,0.8c0-1.1-0.5-1.8-1.5-2.2
			s-2-0.6-3.3-0.6c-0.9,0-1.9,0.1-2.9,0.2c-1,0.1-2.1,0.4-3.3,0.8l-0.8-2.1c1.3-0.4,2.5-0.6,3.6-0.8c1.2-0.2,2.4-0.3,3.7-0.3
			C1788.1,105.7,1789.5,105.9,1790.5,106.2z M1787.5,114.9c1.2-0.3,2.3-0.6,3.4-1v-1.1c-1.9-0.5-3.8-0.8-5.6-0.8c-2.7,0-4,0.6-4,1.7
			c0,0.6,0.3,1,0.8,1.3s1.3,0.3,2.4,0.3C1785.3,115.3,1786.3,115.2,1787.5,114.9z"/>
		<path d="M1809.4,106.1h2.8v11.2h-2.8v-2.5c-0.7,0.9-1.7,1.7-2.7,2.2c-1.1,0.5-2.4,0.7-3.9,0.7c-2,0-3.6-0.5-4.7-1.4
			s-1.7-2.4-1.7-4.5v-5.7h2.8v4.9c0,1.4,0.3,2.5,1,3.2c0.7,0.7,1.8,1,3.5,1c1.7,0,3.1-0.4,4.1-1.2c1-0.8,1.5-2,1.5-3.5V106.1z"/>
		<path d="M1815.3,117.3V102h2.8v15.4H1815.3z"/>
		<path d="M1831.8,114.9c0.7-0.3,1.2-0.8,1.5-1.4h3c-0.3,1.3-1.2,2.4-2.4,3.1c-1.3,0.7-3,1.1-5.1,1.1c-2.4,0-4.4-0.5-5.8-1.5
			c-1.4-1-2.2-2.5-2.2-4.5c0-1.3,0.3-2.4,1-3.3s1.6-1.6,2.8-2c1.2-0.4,2.5-0.7,4-0.7c2.4,0,4.3,0.5,5.7,1.6c1.4,1,2.1,2.7,2.1,5.1
			h-12.7c0.1,1.1,0.6,1.8,1.5,2.3c0.8,0.5,2,0.7,3.6,0.7C1830.1,115.3,1831.1,115.2,1831.8,114.9z M1823.9,110.3h9.4
			c-0.2-0.8-0.8-1.4-1.5-1.8c-0.8-0.4-1.8-0.6-3.2-0.6C1825.9,107.9,1824.4,108.7,1823.9,110.3z"/>
	</g>
</g>
</svg>
