<svg xmlns="http://www.w3.org/2000/svg" viewBox="0 0 1267.93 828.44"><defs><style>.cls-1{fill:#e95925;}.cls-2,.cls-3,.cls-4,.cls-5,.cls-6,.cls-7{fill:none;stroke:#efefef;stroke-miterlimit:10;}.cls-3{stroke-dasharray:3.02 3.02;}.cls-4,.cls-5{stroke-dasharray:3;}.cls-5{stroke-width:2px;}.cls-6{stroke-width:5px;stroke-dasharray:7;}.cls-7{stroke-linecap:round;stroke-width:0.75px;stroke-dasharray:2;opacity:0.75;isolation:isolate;}</style></defs><title>nd2</title><g id="Calque_2" data-name="Calque 2"><g id="Calque_1-2" data-name="Calque 1"><path class="cls-1" d="M1267.93,827.94H960.41V434.08L734.5,827.94H533.43L307.52,434.08V827.94H0V0H378.49L634,473.11,889.44,0h378.49Z"/></g><g id="M"><g id="Calque_9" data-name="Calque 9"><polygon class="cls-2" points="866.98 427.94 855.71 427.94 859.77 417.94 825.43 417.94 829.49 427.94 723.69 427.94 727.75 417.94 693.41 417.94 697.48 427.94 570.69 427.94 574.75 417.94 540.38 417.94 544.45 427.94 438.69 427.94 442.75 417.94 408.41 417.94 412.48 427.94 401.2 427.94 396.72 412.94 871.21 412.94 866.98 427.94"/><line class="cls-2" x1="866.83" y1="415.94" x2="864.83" y2="415.94"/><line class="cls-3" x1="861.83" y1="415.94" x2="404.83" y2="415.94"/><line class="cls-2" x1="402.83" y1="415.94" x2="401.83" y2="415.94"/><rect class="cls-2" x="707.33" y="207.94" width="139" height="8"/><polyline class="cls-2" points="845.84 215.94 849.6 224.94 702.84 224.94 707.34 215.84"/><polyline class="cls-2" points="702.84 224.94 700.84 231.94 851.9 231.94 849.6 224.94"/><polyline class="cls-2" points="708.92 207.78 712.76 203.94 840.71 203.94 844.28 207.78"/><polygon class="cls-2" points="812.33 203.94 833.33 203.94 833.33 194.28 823.13 191.28 812.33 194.28 812.33 203.94"/><path class="cls-2" d="M822.85,167.39l-11,27Z"/><line class="cls-2" x1="822.85" y1="167.39" x2="833.26" y2="194.39"/><line class="cls-2" x1="701.33" y1="232.44" x2="701.33" y2="413.44"/><line class="cls-2" x1="852.33" y1="232.44" x2="852.33" y2="413.44"/><polyline class="cls-2" points="701.33 253.99 689.33 275.39 689.33 413.44"/><polyline class="cls-2" points="852.33 254.49 864.33 275.89 864.33 413.44"/><path class="cls-2" d="M742.33,412.44V290.5q10.5-38.55,21,0V412.44"/><path class="cls-2" d="M789.33,412.44V290.5q10.5-38.55,21,0V412.44"/><path class="cls-2" d="M737.33,413.44V286.64q16-43.72,32,0v125.8"/><path class="cls-2" d="M733.33,413.44V282.34q20-45.06,40,0v130.1"/><path class="cls-2" d="M784.33,413.44V286.64q16-43.72,32,0v125.8"/><path class="cls-2" d="M780.33,413.44V282.34q20-45.06,40,0v130.1"/><line class="cls-4" x1="713.83" y1="228.94" x2="839.83" y2="228.94"/><line class="cls-5" x1="713.83" y1="220.44" x2="839.83" y2="220.44"/><rect class="cls-2" x="421.33" y="207.94" width="139" height="8"/><polyline class="cls-2" points="422.08 215.94 418.33 224.94 565.08 224.94 560.58 215.84"/><polyline class="cls-2" points="565.08 224.94 567.08 231.94 416.03 231.94 418.33 224.94"/><polyline class="cls-2" points="559.01 207.78 555.17 203.94 427.22 203.94 423.65 207.78"/><polygon class="cls-2" points="456.33 203.94 435.33 203.94 435.33 194.28 445.53 191.28 456.33 194.28 456.33 203.94"/><path class="cls-2" d="M445.09,167.39l11,27Z"/><line class="cls-2" x1="445.08" y1="167.39" x2="434.67" y2="194.39"/><line class="cls-2" x1="567.33" y1="232.44" x2="567.33" y2="413.44"/><line class="cls-2" x1="416.33" y1="232.44" x2="416.33" y2="413.44"/><polyline class="cls-2" points="567.33 253.99 579.33 275.39 579.33 413.44"/><polyline class="cls-2" points="416.33 254.49 404.33 275.89 404.33 413.44"/><path class="cls-2" d="M525.33,412.44V290.5q-10.5-38.55-21,0V412.44"/><path class="cls-2" d="M478.33,412.44V290.5q-10.5-38.55-21,0V412.44"/><path class="cls-2" d="M531.33,413.44V286.63q-16-43.8-32,0V412.44"/><path class="cls-2" d="M535.33,413.44V282.34q-20-45.06-40,0v130.1"/><path class="cls-2" d="M484.33,413.44V286.63q-16-43.8-32,0V412.44"/><path class="cls-2" d="M488.33,413.44V282.34q-20-45.06-40,0v130.1"/><line class="cls-4" x1="428.83" y1="228.94" x2="553.83" y2="228.94"/><line class="cls-5" x1="428.83" y1="220.44" x2="554.83" y2="220.44"/><polyline class="cls-2" points="865.83 513.94 855.62 513.97 859.86 503.94 825.43 503.94 829.49 513.94 723.7 513.94 727.76 503.94 693.26 503.94 697.33 513.94 570.54 513.94 574.63 503.94 540.26 503.94 544.33 513.94 438.64 513.94 442.64 503.94 408.26 503.94 412.33 513.94 412.33 516.44"/><line class="cls-2" x1="438.33" y1="503.44" x2="438.33" y2="428.44"/><line class="cls-2" x1="412.33" y1="428.44" x2="412.33" y2="503.44"/><line class="cls-2" x1="570.33" y1="503.44" x2="570.33" y2="428.44"/><line class="cls-2" x1="544.33" y1="428.44" x2="544.33" y2="503.44"/><line class="cls-2" x1="723.33" y1="503.44" x2="723.33" y2="428.44"/><line class="cls-2" x1="697.33" y1="428.44" x2="697.33" y2="503.44"/><line class="cls-2" x1="855.33" y1="504.44" x2="855.33" y2="428.44"/><line class="cls-2" x1="829.33" y1="428.44" x2="829.33" y2="504.44"/><line class="cls-2" x1="438.33" y1="631.44" x2="438.33" y2="514.44"/><line class="cls-2" x1="412.33" y1="514.44" x2="412.33" y2="631.44"/><line class="cls-2" x1="570.33" y1="631.44" x2="570.33" y2="514.44"/><line class="cls-2" x1="544.33" y1="514.44" x2="544.33" y2="631.44"/><line class="cls-2" x1="723.33" y1="631.44" x2="723.33" y2="514.44"/><line class="cls-2" x1="697.33" y1="514.44" x2="697.33" y2="631.44"/><line class="cls-2" x1="855.33" y1="632.44" x2="855.33" y2="514.44"/><line class="cls-2" x1="829.33" y1="514.44" x2="829.33" y2="632.44"/><path class="cls-2" d="M667.38,548.23a46.81,46.81,0,1,0,13.71,33.09A46.81,46.81,0,0,0,667.38,548.23Zm-40.64,35.11a7.8,7.8,0,1,1,15.08-4,7.71,7.71,0,0,1,0,4,7.83,7.83,0,0,1-15.08,0Z"/><path class="cls-2" d="M642.09,580.94a8,8,0,0,1-.26,2,7.79,7.79,0,1,1-8-9.87,7.64,7.64,0,0,1,5.12,1.5,7.88,7.88,0,0,1,3.17,6.37Z"/><path class="cls-2" d="M656.88,575.27a22.68,22.68,0,0,0-2.33-5.65,23.34,23.34,0,0,0-3.72-4.85,23.64,23.64,0,0,0-4.85-3.71,22.48,22.48,0,0,0-5.64-2.34,23.28,23.28,0,0,0-12.12,0,22.64,22.64,0,0,0-5.64,2.34,23.13,23.13,0,0,0-8.56,8.56,22.64,22.64,0,0,0-2.34,5.64,23.28,23.28,0,0,0,0,12.12A22.48,22.48,0,0,0,614,593a23.3,23.3,0,0,0,8.56,8.57,22.64,22.64,0,0,0,5.64,2.34,23.71,23.71,0,0,0,12.12,0,22.64,22.64,0,0,0,5.64-2.34,23.38,23.38,0,0,0,8.57-8.57,22.61,22.61,0,0,0,2.33-5.64,23.4,23.4,0,0,0,.8-6.06A22.49,22.49,0,0,0,656.88,575.27ZM639.8,586.84a7.76,7.76,0,1,1,2.08-7.49,7.61,7.61,0,0,1-2.08,7.49Z"/><line class="cls-2" x1="634.33" y1="604.44" x2="634.33" y2="628.44"/><polyline class="cls-2" points="646.4 626.53 644.58 619.73 644.38 619 640.34 603.93 639.52 600.85 636.3 588.86"/><line class="cls-2" x1="645.99" y1="601.59" x2="657.69" y2="621.85"/><polyline class="cls-2" points="667.85 614.42 663.43 610 662.33 608.91 662.33 608.9 651.3 597.87 649.63 596.2 640.27 586.84"/><line class="cls-2" x1="654.55" y1="593.02" x2="674.82" y2="604.72"/><polyline class="cls-2" points="679.49 593.44 673.81 591.92 671.96 591.42 656.88 587.38 654.97 586.87 641.82 583.34"/><line class="cls-2" x1="657.83" y1="580.94" x2="680.83" y2="580.94"/><polyline class="cls-2" points="679.49 569.21 673.65 570.78 671.96 571.23 656.88 575.27 654.79 575.82 641.82 579.3"/><line class="cls-2" x1="654.55" y1="569.62" x2="674.82" y2="557.92"/><polyline class="cls-2" points="667.38 548.23 662.64 552.97 661.86 553.74 650.83 564.77 648.82 566.79 639.8 575.8"/><line class="cls-2" x1="645.99" y1="561.06" x2="657.69" y2="540.79"/><polyline class="cls-2" points="646.4 536.12 644.42 543.51 644.38 543.64 640.34 558.72 639.35 562.4 636.3 573.78"/><line class="cls-2" x1="634.33" y1="557.44" x2="634.33" y2="534.44"/><polyline class="cls-2" points="622.17 536.12 624.19 543.64 624.4 544.45 628.22 558.72 629.46 563.32 632.26 573.78"/><line class="cls-2" x1="622.59" y1="561.06" x2="610.89" y2="540.79"/><polyline class="cls-2" points="601.19 548.23 606.7 553.74 607.82 554.86 617.73 564.77 621.62 568.66 628.76 575.8"/><line class="cls-2" x1="614.02" y1="569.62" x2="593.76" y2="557.92"/><path class="cls-2" d="M642.09,580.94a8,8,0,0,1-.26,2,7.79,7.79,0,1,1-8-9.87,7.64,7.64,0,0,1,5.12,1.5,7.88,7.88,0,0,1,3.17,6.37Z"/><polyline class="cls-2" points="589.08 569.21 596.6 571.23 598.46 571.72 611.68 575.26 617.29 576.77 626.74 579.3"/><line class="cls-2" x1="610.83" y1="580.94" x2="587.83" y2="580.94"/><polyline class="cls-2" points="589.08 593.44 596.6 591.42 598.31 590.97 611.68 587.38 617.16 585.91 626.74 583.34"/><line class="cls-2" x1="614.02" y1="593.02" x2="593.76" y2="604.72"/><polyline class="cls-2" points="601.19 614.42 606.7 608.91 607.51 608.1 617.73 597.87 621.33 594.28 628.76 586.84"/><line class="cls-2" x1="622.59" y1="601.59" x2="610.89" y2="621.85"/><polyline class="cls-2" points="622.17 626.53 624.19 619 624.25 618.78 628.22 603.93 629.3 599.89 632.26 588.86"/><rect class="cls-2" x="410.33" y="632.94" width="445" height="12"/><polyline class="cls-2" points="410.77 644.01 400.29 651.94 410.77 651.94 866.4 651.94 855.71 644.01"/><polyline class="cls-2" points="412.33 652.44 412.33 827.94 855.33 827.94 855.33 652.44"/><path class="cls-2" d="M570.78,589.89a63.5,63.5,0,0,1,127,0"/><path class="cls-2" d="M570.78,556.17a72,72,0,0,1,126.7-.57"/><path class="cls-2" d="M819.33,632.44v-67.6s-19.14-30.07-43-30.07-43,30.07-43,30.07v67.6"/><path class="cls-2" d="M815.33,632.44V593.06s-2.15-19.52-17.54-19.52S780.33,593,780.33,593v39.46"/><path class="cls-2" d="M809.33,632.44V600.52s-1.48-15.72-12.05-15.72-11.95,15.65-11.95,15.65v32"/><path class="cls-2" d="M773.33,632.44V593.06s-2.15-19.52-17.54-19.52S738.33,593,738.33,593v39.46"/><path class="cls-2" d="M767.33,632.44V600.52s-1.48-15.72-12.05-15.72-11.95,15.65-11.95,15.65v32"/><path class="cls-2" d="M790.44,549.88a16,16,0,1,0,2.15,8A16,16,0,0,0,790.44,549.88Zm-1.81,15.06a11,11,0,1,1,.07,0Z"/><path class="cls-2" d="M776.33,543.94v10.49a3.48,3.48,0,0,0-1.7.45,3.43,3.43,0,0,0-1.26,1.25l-9.07-5.25a13.86,13.86,0,0,1,12-6.94Z"/><path class="cls-2" d="M773.18,557.89a3.52,3.52,0,0,0,.45,1.71l-9.07,5.24a13.88,13.88,0,0,1,0-13.91l9.07,5.25A3.52,3.52,0,0,0,773.18,557.89Z"/><path class="cls-2" d="M776.33,560.94v10.49a13.89,13.89,0,0,1-12-6.95l9.07-5.24a3.43,3.43,0,0,0,3,1.7Z"/><path class="cls-2" d="M788.33,564.84a13.89,13.89,0,0,1-12,6.95V561.3a3.48,3.48,0,0,0,1.7-.45,3.43,3.43,0,0,0,1.26-1.25Z"/><path class="cls-2" d="M790.49,557.89a13.89,13.89,0,0,1-1.86,7l-9.08-5.24a3.47,3.47,0,0,0,0-3.42l9.08-5.25A14,14,0,0,1,790.49,557.89Z"/><path class="cls-2" d="M788.37,550.93l-9.08,5.25a3.16,3.16,0,0,0-1.26-1.25,3.48,3.48,0,0,0-1.7-.45V544a13.86,13.86,0,0,1,12,6.94Z"/><line class="cls-2" x1="790.83" y1="565.94" x2="790.83" y2="565.94"/><line class="cls-2" x1="790.83" y1="549.94" x2="790.83" y2="549.94"/><path class="cls-2" d="M780,557.89a3.52,3.52,0,0,1-.45,1.71,3.43,3.43,0,0,1-5.92,0,3.47,3.47,0,0,1,0-3.42,3.43,3.43,0,0,1,4.66-1.25,3.16,3.16,0,0,1,1.26,1.25A3.52,3.52,0,0,1,780,557.89Z"/><line class="cls-2" x1="762.83" y1="549.94" x2="762.83" y2="549.94"/><line class="cls-2" x1="762.83" y1="565.94" x2="762.83" y2="565.94"/><path class="cls-2" d="M534.33,632.44v-67.6s-19.15-30.07-43-30.07-43,30.07-43,30.07v67.6"/><path class="cls-2" d="M530.33,632.44V593.07s-2.16-19.52-17.54-19.52S495.33,593,495.33,593v39.46"/><path class="cls-2" d="M524.33,632.44V600.52s-1.48-15.72-12.05-15.72-11.95,15.65-11.95,15.65v32"/><path class="cls-2" d="M488.33,632.44V593.07s-2.16-19.52-17.54-19.52S453.33,593,453.33,593v39.46"/><path class="cls-2" d="M482.33,632.44V600.51s-1.48-15.73-12.06-15.73-11.94,15.66-11.94,15.66v32"/><path class="cls-2" d="M505.43,549.88a16,16,0,1,0,2.15,8A15.74,15.74,0,0,0,505.43,549.88Zm-1.81,15.06a13.88,13.88,0,1,1-5.05-19,13.89,13.89,0,0,1,5.05,19Z"/><path class="cls-2" d="M491.33,544V554.5a3.48,3.48,0,0,0-1.7.45,3.43,3.43,0,0,0-1.26,1.25L479.3,551a14,14,0,0,1,5.09-5.09A13.74,13.74,0,0,1,491.33,544Z"/><path class="cls-2" d="M488.17,557.89a3.52,3.52,0,0,0,.45,1.71l-9.07,5.24a13.88,13.88,0,0,1,0-13.91l9.07,5.25A3.52,3.52,0,0,0,488.17,557.89Z"/><path class="cls-2" d="M491.33,560.94v10.49a13.75,13.75,0,0,1-6.94-1.86,14,14,0,0,1-5.09-5.09l9.07-5.24a3.43,3.43,0,0,0,3,1.7Z"/><path class="cls-2" d="M503.33,564.84a13.89,13.89,0,0,1-12,6.95V561.3a3.48,3.48,0,0,0,1.7-.45,3.43,3.43,0,0,0,1.26-1.25Z"/><path class="cls-2" d="M505.48,557.89a13.89,13.89,0,0,1-1.86,7l-9.08-5.24a3.47,3.47,0,0,0,0-3.42l9.08-5.25A14,14,0,0,1,505.48,557.89Z"/><path class="cls-2" d="M503.37,550.93l-9.08,5.25a3.16,3.16,0,0,0-1.26-1.25,3.48,3.48,0,0,0-1.7-.45V544a13.86,13.86,0,0,1,12,6.94Z"/><line class="cls-2" x1="505.83" y1="565.94" x2="505.83" y2="565.94"/><line class="cls-2" x1="505.83" y1="549.94" x2="505.83" y2="549.94"/><path class="cls-2" d="M495,557.89a3.52,3.52,0,0,1-.45,1.71,3.43,3.43,0,0,1-5.92,0,3.47,3.47,0,0,1,0-3.42,3.43,3.43,0,0,1,4.66-1.25,3.16,3.16,0,0,1,1.26,1.25A3.52,3.52,0,0,1,495,557.89Z"/><line class="cls-2" x1="477.83" y1="549.94" x2="477.83" y2="549.94"/><line class="cls-2" x1="477.83" y1="565.94" x2="477.83" y2="565.94"/><line class="cls-4" x1="546.83" y1="427.94" x2="567.83" y2="427.94"/><line class="cls-4" x1="414.83" y1="427.94" x2="435.83" y2="427.94"/><line class="cls-4" x1="699.83" y1="427.94" x2="720.83" y2="427.94"/><line class="cls-4" x1="831.83" y1="427.94" x2="852.83" y2="427.94"/><line class="cls-4" x1="831.83" y1="513.94" x2="852.83" y2="513.94"/><line class="cls-4" x1="699.83" y1="513.94" x2="720.83" y2="513.94"/><line class="cls-4" x1="546.83" y1="513.94" x2="567.83" y2="513.94"/><line class="cls-4" x1="414.83" y1="513.94" x2="435.83" y2="513.94"/><line class="cls-6" x1="425.83" y1="638.94" x2="839.83" y2="638.94"/><path class="cls-7" d="M466,532.84a6.1,6.1,0,0,1-6.1,6.1h-.1a6.68,6.68,0,0,1,.09,1.09,6.11,6.11,0,0,1-12.2.52V540a6.7,6.7,0,0,1,.1-1.09h-.6a5.22,5.22,0,0,1-4.47-2.39c-3.37-5.49,1.52-11.21,7-9.49a4.49,4.49,0,0,1,1,.49,6.16,6.16,0,0,1,3,6.39h.2a5.77,5.77,0,0,1-.1-1.1,6.11,6.11,0,0,1,12.2,0Z"/><path class="cls-7" d="M541.53,532.84a6.1,6.1,0,0,1-6.1,6.1h-.1a6.68,6.68,0,0,1,.09,1.09,6.11,6.11,0,0,1-12.2.52V540a6.7,6.7,0,0,1,.1-1.09h-.1a6.1,6.1,0,1,1,6.11-6.1,5.77,5.77,0,0,1-.1,1.1h.2a5.77,5.77,0,0,1-.1-1.1,6.11,6.11,0,0,1,12.2,0Z"/><path class="cls-7" d="M751,532.84a6.1,6.1,0,0,1-6.1,6.1h-.1a6.68,6.68,0,0,1,.09,1.09,6.11,6.11,0,0,1-12.2.52V540a6.7,6.7,0,0,1,.1-1.09h-.1a6.1,6.1,0,1,1,6.11-6.1,5.77,5.77,0,0,1-.1,1.1h.2a5.77,5.77,0,0,1-.1-1.1,6.11,6.11,0,0,1,12.2,0Z"/><path class="cls-7" d="M696,523.05a4.88,4.88,0,0,1-4.88,4.89H691a4.27,4.27,0,0,1,.08.87,5,5,0,0,1-7.44,4.24,4.46,4.46,0,0,1-2.33-4v-.25a4.27,4.27,0,0,1,.08-.87h-.34a4.44,4.44,0,0,1-4-2.32,4.94,4.94,0,0,1,4.22-7.45,4.88,4.88,0,0,1,4.88,4.88h0a4.4,4.4,0,0,1-.07.89h.16a5.27,5.27,0,0,1-.09-.89,4.9,4.9,0,0,1,9.78,0Z"/><path class="cls-7" d="M592.62,523.05a4.89,4.89,0,0,1-4.89,4.89h-.08a5.12,5.12,0,0,1,.08.87,4.89,4.89,0,1,1-9.77.46,3.53,3.53,0,0,1,0-.46,5.12,5.12,0,0,1,.08-.87h-.35a4.38,4.38,0,0,1-3.85-2.14,5,5,0,0,1,6-7.27,5.15,5.15,0,0,1,2.9,3.45,5.61,5.61,0,0,1,0,2h.16a4.4,4.4,0,0,1-.08-.89,4.89,4.89,0,0,1,9.77,0Z"/><path class="cls-7" d="M826.54,532.84a6.1,6.1,0,0,1-6.1,6.1h-.1a6.68,6.68,0,0,1,.09,1.09,6.11,6.11,0,0,1-12.2.52V540a6.7,6.7,0,0,1,.1-1.09h-.1a6.1,6.1,0,1,1,6.11-6.1,5.77,5.77,0,0,1-.1,1.1h.2a5.77,5.77,0,0,1-.1-1.1,6.11,6.11,0,0,1,12.2,0Z"/><path class="cls-2" d="M443.33,503.44v-46c0-8.35,10-8.35,10,0v50"/><path class="cls-2" d="M457.33,507.44v-50c0-8.35,10-8.35,10,0v50"/><path class="cls-2" d="M472.33,507.44v-50c0-8.35,10-8.35,10,0v50"/><path class="cls-2" d="M486.33,507.44V457.39c0-8.36,10-8.36,10,0v50.05"/><path class="cls-2" d="M501.33,507.44V457.39c0-8.36,10-8.36,10,0v50.05"/><path class="cls-2" d="M515.33,507.44V457.39c0-8.36,10-8.36,10,0v50.05"/><path class="cls-2" d="M530.33,507.44V457.39c0-8.36,10-8.36,10,0v46.05"/><path class="cls-2" d="M457.35,444.94a2.57,2.57,0,0,1,0,.48,2.1,2.1,0,0,1-1.44,1.71,2.17,2.17,0,0,1-2.85-1.91,1.31,1.31,0,0,1,0-.28,2.16,2.16,0,0,1,1.06-4,2.12,2.12,0,0,1,1.07.29,2.14,2.14,0,0,1,2.14,3.71Z"/><path class="cls-2" d="M471.9,444.94a2.57,2.57,0,0,1,0,.48,2.1,2.1,0,0,1-1.44,1.71,2.17,2.17,0,0,1-2.85-1.91,1.31,1.31,0,0,1,0-.28,2.16,2.16,0,0,1,1.06-4,2.12,2.12,0,0,1,1.07.29,2.14,2.14,0,0,1,2.14,3.71Z"/><path class="cls-2" d="M460.93,435.94a.67.67,0,0,1,0-.2,1.58,1.58,0,0,1,3.15,0v.2a2.65,2.65,0,0,1-2.35,3,1.58,1.58,0,0,1-.77-3Z"/><path class="cls-2" d="M446.38,435.94a.67.67,0,0,1,0-.2,1.57,1.57,0,0,1,3.14,0v.2a2.65,2.65,0,0,1-2.35,3,1.58,1.58,0,0,1-.77-3Z"/><path class="cls-2" d="M475.48,435.6a.67.67,0,0,1,0-.2,1.58,1.58,0,0,1,3.15,0v.2a1.61,1.61,0,0,1,.8,1.38,1.57,1.57,0,0,1-1.57,1.57h0a1.59,1.59,0,0,0-1.58,0,1.58,1.58,0,0,1-.77-3Z"/><path class="cls-2" d="M490,435.6a.67.67,0,0,1,0-.2,1.58,1.58,0,0,1,3.15,0v.2A1.61,1.61,0,0,1,494,437a1.57,1.57,0,0,1-1.57,1.57h0a1.59,1.59,0,0,0-1.58,0,1.58,1.58,0,0,1-.77-3Z"/><path class="cls-2" d="M504.58,436a.67.67,0,0,1,0-.2,1.58,1.58,0,0,1,3.15,0v.2a1.6,1.6,0,0,1,.8,1.38,1.57,1.57,0,0,1-1.57,1.57h0a1.57,1.57,0,0,0-1.57,0,1.58,1.58,0,0,1-.77-3Z"/><path class="cls-2" d="M519.09,436a.67.67,0,0,1,0-.2,1.58,1.58,0,0,1,3.15,0v.2a1.61,1.61,0,0,1,.85,1.41,1.57,1.57,0,0,1-1.57,1.57h0a1.57,1.57,0,0,0-1.57,0,1.58,1.58,0,0,1-.77-3Z"/><path class="cls-2" d="M534.42,435.6a.67.67,0,0,1,0-.2,1.58,1.58,0,0,1,3.15,0v.2a1.58,1.58,0,0,1-1.38,2.85l-.18-.11a1.55,1.55,0,0,1-.78.21,1.57,1.57,0,0,1-.77-3Z"/><path class="cls-2" d="M486.45,444.94a2.57,2.57,0,0,1,0,.48,2.1,2.1,0,0,1-1.44,1.71,2.17,2.17,0,0,1-2.85-1.91,1.31,1.31,0,0,1,0-.28,2.16,2.16,0,0,1,1.06-4,2.12,2.12,0,0,1,1.07.29,2.14,2.14,0,0,1,2.14,3.71Z"/><path class="cls-2" d="M501,445.16v.28a2.16,2.16,0,0,1-4.31,0,1.31,1.31,0,0,1,0-.28,2.16,2.16,0,1,1,1.91-3.87,1.55,1.55,0,0,1,.22.12,2.14,2.14,0,0,1,2.14,3.71Z"/><path class="cls-2" d="M515.55,445.16v.28a2.16,2.16,0,0,1-4.31,0,1.31,1.31,0,0,1,0-.28,2.16,2.16,0,1,1,1.91-3.87,1.55,1.55,0,0,1,.22.12,2.14,2.14,0,0,1,2.14,3.71Z"/><path class="cls-2" d="M530.09,445.16v.28a2.16,2.16,0,0,1-4.31,0,1.31,1.31,0,0,1,0-.28,2.16,2.16,0,1,1,1.91-3.87,1.55,1.55,0,0,1,.22.12,2.14,2.14,0,0,1,2.14,3.71Z"/><line class="cls-2" x1="440.83" y1="508.94" x2="542.83" y2="508.94"/><line class="cls-2" x1="543.83" y1="510.94" x2="439.83" y2="510.94"/><path class="cls-2" d="M578.33,509.44v-45c0-10,12-10,12,0v45"/><path class="cls-2" d="M595.33,509.44v-45c0-10,12-10,12,0v45"/><path class="cls-2" d="M611.33,509.44v-45c0-10,12-10,12,0v45"/><path class="cls-2" d="M627.33,509.44v-45c0-10,12-10,12,0v45"/><path class="cls-2" d="M644.33,509.44v-45c0-10,12-10,12,0v45"/><path class="cls-2" d="M660.33,509.44v-45c0-10,12-10,12,0v45"/><path class="cls-2" d="M677.33,509.44v-45c0-10,12-10,12,0v45"/><path class="cls-2" d="M596,451a2.67,2.67,0,0,1,0,.4,3.17,3.17,0,1,1-6.34,0,2.67,2.67,0,0,1,0-.4,3.18,3.18,0,1,1,2.84-5.69l.3.17a3.28,3.28,0,0,1,1.59-.42,3.17,3.17,0,0,1,3.17,3.17h0A3.2,3.2,0,0,1,596,451Z"/><path class="cls-2" d="M582.46,438l0-.06a2.32,2.32,0,1,1,4.6-.53,1.5,1.5,0,0,1,0,.3,1.41,1.41,0,0,1,0,.29,2.32,2.32,0,0,1-1.13,4.34,2.34,2.34,0,0,1-1.16-.31,2.41,2.41,0,0,1-2.47-.06,2.28,2.28,0,0,1-1-1.94h0A2.33,2.33,0,0,1,582.46,438Z"/><path class="cls-2" d="M598.76,438a1.41,1.41,0,0,1,0-.29,2.32,2.32,0,1,1,4.63-.3,1.5,1.5,0,0,1,0,.3V438a2.32,2.32,0,0,1-1.83,4.27,2.13,2.13,0,0,1-.46-.27,2.32,2.32,0,0,1-3.48-2,2.31,2.31,0,0,1,1.18-2Z"/><path class="cls-2" d="M615.46,438l0-.06a2.32,2.32,0,1,1,4.6-.53,1.5,1.5,0,0,1,0,.3,1.41,1.41,0,0,1,0,.29,2.32,2.32,0,0,1-1.13,4.34,2.34,2.34,0,0,1-1.16-.31,2.41,2.41,0,0,1-2.47-.06,2.28,2.28,0,0,1-1-1.94h0A2.33,2.33,0,0,1,615.46,438Z"/><path class="cls-2" d="M631.54,437.94a1.41,1.41,0,0,1,0-.29,2.32,2.32,0,0,1,4.63-.31,1.6,1.6,0,0,1,0,.31,1.41,1.41,0,0,1,0,.29,2.32,2.32,0,0,1-1.13,4.34,2.33,2.33,0,0,0-2.32,0,2.32,2.32,0,0,1-1.13-4.34Z"/><path class="cls-2" d="M647.92,437.94a1.41,1.41,0,0,1,0-.29,2.32,2.32,0,0,1,4.63-.31,1.6,1.6,0,0,1,0,.31v.29a2.32,2.32,0,0,1-1.14,4.34,2.31,2.31,0,0,0-2.31,0,2.32,2.32,0,0,1-1.14-4.34Z"/><path class="cls-2" d="M664.31,438a1.41,1.41,0,0,1,0-.29,2.32,2.32,0,1,1,4.63-.3,1.5,1.5,0,0,1,0,.3,1.41,1.41,0,0,1,0,.29,2.32,2.32,0,0,1-1.13,4.34,2.33,2.33,0,0,0-2.32,0,2.31,2.31,0,0,1-2.4-2.22V440A2.33,2.33,0,0,1,664.31,438Z"/><path class="cls-2" d="M680.7,437.94a1.41,1.41,0,0,1,0-.29,2.32,2.32,0,0,1,4.63-.31,1.6,1.6,0,0,1,0,.31,1.41,1.41,0,0,1,0,.29,2.32,2.32,0,0,1-1.13,4.34,2.33,2.33,0,0,0-2.32,0,2.32,2.32,0,0,1-1.13-4.34Z"/><line class="cls-2" x1="572.83" y1="508.94" x2="694.83" y2="508.94"/><line class="cls-2" x1="695.83" y1="510.94" x2="571.83" y2="510.94"/><path class="cls-2" d="M727.33,503.44V457.39c0-8.36,10-8.36,10,0v50.05"/><path class="cls-2" d="M742.33,507.44V457.39c0-8.36,10-8.36,10,0v50.05"/><path class="cls-2" d="M756.33,507.44V457.39c0-8.36,10-8.36,10,0v50.05"/><path class="cls-2" d="M771.33,507.44V457.39c0-8.36,10-8.36,10,0v50.05"/><path class="cls-2" d="M786.33,507.44V457.39c0-8.36,10-8.36,10,0v50.05"/><path class="cls-2" d="M800.33,507.44V457.39c0-8.36,10-8.36,10,0v50.05"/><path class="cls-2" d="M815.33,507.44V457.39c0-8.36,10-8.36,10,0v46.05"/><path class="cls-2" d="M742.09,445.16v.28a2.16,2.16,0,0,1-4.31,0,1.31,1.31,0,0,1,0-.28,2.16,2.16,0,1,1,1.91-3.87,1.55,1.55,0,0,1,.22.12,2.14,2.14,0,0,1,2.14,3.71Z"/><path class="cls-2" d="M756.66,444.94a2.57,2.57,0,0,1,0,.48,2.07,2.07,0,0,1-1.44,1.7,2.16,2.16,0,0,1-2.85-1.9,1.31,1.31,0,0,1,0-.28,3.23,3.23,0,1,1,4.27,0Z"/><path class="cls-2" d="M745.69,435.6a.67.67,0,0,1,0-.2,1.58,1.58,0,0,1,3.15,0v.2a1.61,1.61,0,0,1,.8,1.38,2.47,2.47,0,1,1-3.92-1.43Z"/><path class="cls-2" d="M731.14,436a.67.67,0,0,1,0-.2,1.58,1.58,0,0,1,3.15,0v.2a1.6,1.6,0,0,1,.8,1.41,1.57,1.57,0,0,1-1.57,1.57h0a1.57,1.57,0,0,0-1.57,0,1.58,1.58,0,0,1-.77-3Z"/><path class="cls-2" d="M760.24,435.94a.67.67,0,0,1,0-.2,1.58,1.58,0,0,1,3.15,0,.67.67,0,0,1,0,.2,1.57,1.57,0,0,1-.77,3,1.55,1.55,0,0,1-.78-.21,1.66,1.66,0,0,1-.79.21,1.57,1.57,0,0,1-.77-3Z"/><path class="cls-2" d="M774.79,435.94a.67.67,0,0,1,0-.2,1.58,1.58,0,0,1,3.15,0v.2a1.57,1.57,0,0,1-.77,3,1.55,1.55,0,0,1-.78-.21,1.66,1.66,0,0,1-.79.21,1.57,1.57,0,0,1-.77-3Z"/><path class="cls-2" d="M789.34,435.94a.67.67,0,0,1,0-.2,1.58,1.58,0,0,1,3.15,0v.2a1.57,1.57,0,0,1-.77,3,1.57,1.57,0,0,0-1.57,0,1.57,1.57,0,0,1-.77-3Z"/><path class="cls-2" d="M803.89,435.94a.67.67,0,0,1,0-.2,1.58,1.58,0,0,1,3.15,0v.2a1.57,1.57,0,0,1-.77,3,1.57,1.57,0,0,0-1.57,0,1.57,1.57,0,0,1-.77-3Z"/><path class="cls-2" d="M819.17,435.94a.67.67,0,0,1,0-.2,1.58,1.58,0,0,1,3.15,0v.2a1.58,1.58,0,0,1-.77,3,1.59,1.59,0,0,0-1.58,0,1.58,1.58,0,0,1-.77-3Z"/><path class="cls-2" d="M771.2,444.94a1.31,1.31,0,0,1,0,.28,2.16,2.16,0,1,1-4.32,0,1.31,1.31,0,0,1,0-.28,3.2,3.2,0,1,1,4.21,0Z"/><path class="cls-2" d="M785.75,444.94a1.31,1.31,0,0,1,0,.28,2.16,2.16,0,1,1-4.32,0,1.31,1.31,0,0,1,0-.28,3.23,3.23,0,1,1,4.26,0Z"/><path class="cls-2" d="M800.3,444.94a1.31,1.31,0,0,1,0,.28,2.16,2.16,0,0,1-4.32,0,1.31,1.31,0,0,1,0-.28,3.21,3.21,0,1,1,4.21,0Z"/><path class="cls-2" d="M814.85,444.94a1.31,1.31,0,0,1,0,.28,2.16,2.16,0,0,1-4.31,0,1.31,1.31,0,0,1,0-.28,3.23,3.23,0,1,1,4.26,0Z"/><line class="cls-2" x1="725.83" y1="508.94" x2="826.83" y2="508.94"/><line class="cls-2" x1="827.83" y1="510.94" x2="724.83" y2="510.94"/><path class="cls-2" d="M613.08,450.81l-.3.6a3.17,3.17,0,0,1-6.34,0l-.32-.58a3.18,3.18,0,0,1,3.16-5.51l.3.17a3.33,3.33,0,0,1,3.34.06,3.09,3.09,0,0,1,1.41,2.68h0A3.21,3.21,0,0,1,613.08,450.81Z"/><path class="cls-2" d="M628.76,451a2.81,2.81,0,0,1,0,.41,3.22,3.22,0,0,1-6.43,0h0a2.81,2.81,0,0,1,0-.41,3.22,3.22,0,1,1,2.88-5.77l.3.17a3.4,3.4,0,0,1,1.62-.42,3.2,3.2,0,0,1,3.2,3.2h0A3.25,3.25,0,0,1,628.76,451Z"/><path class="cls-2" d="M645.08,450.81l-.3.6a3.17,3.17,0,0,1-6.34,0l-.32-.58a3.18,3.18,0,0,1,3.16-5.51l.3.17a3.28,3.28,0,0,1,3.59.25,3.07,3.07,0,0,1,1.16,2.48v0A3.21,3.21,0,0,1,645.08,450.81Z"/><path class="cls-2" d="M662.08,450.81l-.3.6a3.17,3.17,0,0,1-6.34,0l-.3-.6a3.18,3.18,0,0,1,1.85-5.74,13.92,13.92,0,0,0,5.18.67,3.07,3.07,0,0,1,1.16,2.48v0A3.21,3.21,0,0,1,662.08,450.81Z"/><path class="cls-2" d="M678.08,450.81l-.3.6a3.17,3.17,0,0,1-6.34,0l-.31-.59a3.17,3.17,0,0,1,1.86-5.75,13.92,13.92,0,0,0,5.18.67,3.07,3.07,0,0,1,1.16,2.48v0A3.21,3.21,0,0,1,678.08,450.81Z"/><path class="cls-2" d="M581.33,508.44V467c0-8.77,7-8.77,7,0v41.43"/><path class="cls-2" d="M597.33,508.44V467c0-8.75,7-8.75,7,0v41.41"/><path class="cls-2" d="M614.33,508.44V467c0-8.77,7-8.77,7,0v41.43"/><path class="cls-2" d="M630.33,508.44V467c0-8.77,7-8.77,7,0v41.43"/><path class="cls-2" d="M646.33,508.44V467.15c0-8.69,7-8.69,7,0v41.29"/><path class="cls-2" d="M663.33,508.44V467c0-8.77,7-8.77,7,0l.13,41.43"/><path class="cls-2" d="M679.33,508.44V467c0-8.77,7-8.77,7,0v41.43"/><path class="cls-2" d="M697.33,827.94h-127V757.22a72.79,72.79,0,0,1,18.48-48.49c38.54-43.15,49.29-43,89.09-.17a72.76,72.76,0,0,1,19.43,49.58Z"/><path class="cls-2" d="M691.33,827.94h-115v-67a70.87,70.87,0,0,1,16.73-46c34.89-40.9,44.63-40.73,80.67-.17a70.75,70.75,0,0,1,17.6,47Z"/><path class="cls-2" d="M683.3,827.94h-99V764.73a70.77,70.77,0,0,1,14.43-43.33c30-38.58,38.41-38.42,69.42-.16,9.75,12,15.15,27.86,15.15,44.28Z"/><path class="cls-2" d="M677.33,827.94h-87V768.79c0-15,4.5-29.41,12.66-40.56,26.4-36.11,33.76-36,61-.15,8.57,11.25,13.31,26.07,13.31,41.44Z"/><path class="cls-2" d="M670.33,827.94h-73v-55.1c0-13.94,3.78-27.39,10.62-37.79,22.16-33.63,28.33-33.49,51.2-.13,7.2,10.48,11.18,24.28,11.18,38.6Z"/><path class="cls-2" d="M626.65,768.94H612a2.68,2.68,0,0,1-2.7,2.65h0v56.35h20V771.59A2.68,2.68,0,0,1,626.65,768.94Z"/><path class="cls-2" d="M656.65,768.94H642a2.68,2.68,0,0,1-2.7,2.65h0v56.35h20V771.59A2.69,2.69,0,0,1,656.65,768.94Z"/><path class="cls-2" d="M541.33,827.94h-88V778.8a50.64,50.64,0,0,1,12.8-33.66c26.69-30,34.13-29.87,61.7-.12a50.71,50.71,0,0,1,13.5,34.39Z"/><path class="cls-2" d="M537.28,827.94H457.33V781.37A49.19,49.19,0,0,1,469,749.43c24.28-28.43,31-28.31,56.12-.12a49.14,49.14,0,0,1,12.24,32.63Z"/><path class="cls-2" d="M531.33,827.94h-69V784a49,49,0,0,1,10-30.12c21-26.81,26.8-26.7,48.44-.11a48.92,48.92,0,0,1,10.56,30.77Z"/><path class="cls-2" d="M527.33,827.94h-61V786.83a47.76,47.76,0,0,1,8.88-28.19c18.51-25.09,23.67-25,42.78-.1a47.58,47.58,0,0,1,9.34,28.8Z"/><path class="cls-2" d="M522.33,827.94h-51V789.65a48.13,48.13,0,0,1,7.42-26.26c15.47-23.37,19.79-23.28,35.77-.1,5,7.29,7.81,16.88,7.81,26.83Z"/><path class="cls-2" d="M490.61,786.94h-8.3s-1.18,2.5-2.64,3h-.34v38h14V789.6A2.7,2.7,0,0,1,490.61,786.94Z"/><path class="cls-2" d="M511.61,786.94h-8.45s-1.18,2.5-2.64,3h-.19v38h14V789.6A2.7,2.7,0,0,1,511.61,786.94Z"/><path class="cls-2" d="M815.33,827.94h-88V778.8a50.71,50.71,0,0,1,12.8-33.66c26.71-30,34.16-29.87,61.73-.12a50.6,50.6,0,0,1,13.47,34.43Z"/><path class="cls-2" d="M811.33,827.94h-80V781.37A49.26,49.26,0,0,1,743,749.43c24.28-28.43,31-28.31,56.13-.12a49.19,49.19,0,0,1,12.24,32.63Z"/><path class="cls-2" d="M806.33,827.94h-69V784a49.08,49.08,0,0,1,10-30.12c21-26.81,26.8-26.7,48.44-.11a48.92,48.92,0,0,1,10.56,30.77Z"/><path class="cls-2" d="M802.35,827.94h-61V786.83a47.81,47.81,0,0,1,8.86-28.19c18.52-25.09,23.69-25,42.81-.1a47.57,47.57,0,0,1,9.33,28.8Z"/><path class="cls-2" d="M797.33,827.94h-51V789.65a48.06,48.06,0,0,1,7.43-26.26c15.47-23.37,19.78-23.28,35.77-.1,5,7.29,7.8,16.88,7.8,26.83Z"/><path class="cls-2" d="M765.33,786.94H757a2.67,2.67,0,0,1-2.65,2.66v38.34h14v-38.5a2.75,2.75,0,0,1-3-2.65Z"/><path class="cls-2" d="M786.61,786.94h-8.56a2.7,2.7,0,0,1-2.72,2.66v38.34h14V789.6A2.7,2.7,0,0,1,786.61,786.94Z"/></g></g></g></svg>