<svg xmlns="http://www.w3.org/2000/svg" viewBox="0 0 1822.85 1212.93"><defs><style>.cls-1{fill:#fff;}.cls-10,.cls-11,.cls-2,.cls-3,.cls-5,.cls-6,.cls-8,.cls-9{fill:none;}.cls-10,.cls-11,.cls-2,.cls-5,.cls-6,.cls-8,.cls-9{stroke:#fff;stroke-miterlimit:10;}.cls-2{stroke-width:1.51px;}.cls-4{opacity:0.6;}.cls-6{stroke-width:1.04px;}.cls-7{opacity:0.5;}.cls-8,.cls-9{stroke-width:0.75px;}.cls-11,.cls-9{stroke-dasharray:11.95 11.95;}.cls-10,.cls-11{stroke-width:0.5px;}</style></defs><title>img1</title><g id="Calque_2" data-name="Calque 2"><g id="Calque_1-2" data-name="Calque 1"><path class="cls-1" d="M406.53,305.82V427.69H358V353.36l-31.71,74.33H283L251.08,353.2v74.49h-48.5V304.57h75.23l26.84,65.94,26.62-64.69Z"/><path class="cls-2" d="M440.53,417q-15.73-13.44-15.74-37.31t15.74-37.1q15.72-13.37,46.13-13.36t46.12,13.36q15.75,13.36,15.74,37.1,0,15.75-6.91,27.07t-20.83,17.49q-13.92,6.21-34.12,6.21Q456.26,430.39,440.53,417Zm85.81-37.31q0-32.26-39.62-32.33-19.82,0-29.79,7.93T447,379.6q0,32.56,39.79,32.57t39.5-32.53Z"/><path class="cls-1" d="M686.33,378V304.57h48.5V427.69H663.71l-48.26-73.43v73.43H567V304.57h71.12Z"/><path class="cls-2" d="M875.32,380.9q0,25-14.37,37.05T815.65,430q-31.08,0-45.37-12T756,380.9v-49h17.41v48.71a45.52,45.52,0,0,0,2.84,16.75q2.85,7.26,12.18,12.22t27.19,5q17.86,0,27.2-5T855,397.33a44.45,44.45,0,0,0,2.91-16.61V331.93h17.41Z"/><path class="cls-1" d="M1099.2,305.82V427.69h-48.5V353.36L1019,427.69h-43.4L943.75,353.2v74.49h-48.5V304.57h75.4l26.8,65.94,26.63-64.69Z"/><path class="cls-2" d="M1219.82,331.93V348.1H1136.5V373h80.83v14.92H1136.5v24.87h83.32v14.93H1119.09V331.93Z"/><path class="cls-1" d="M1359.1,378V304.57h48.5V427.69h-71.12l-48.26-73.43v73.43h-48.5V304.57h71.13Z"/><path class="cls-2" d="M1543.15,333.18V348.1h-49.74v79.59H1476V348.1h-49.75V333.18Z"/><path d="M397.82,308.3V427.69H371.71V331.15L316,427.69H292L236.16,331.2v96.49H211.29V308.3H252l52.45,89.64,52.4-89.64Z"/><path d="M701.25,403.64V308.3h24.87V427.69H688.28l-87.76-95.34v95.34H575.65V308.3h37.94Z"/><path d="M1090.49,308.3V427.69h-26.11V331.15l-55.46,96.54H986l-56-96.49v96.49H904V307.06h40.68l52.56,90.81,52.58-89.57Z"/><path d="M1372.78,403.64V308.3h26.12V427.69h-37.85l-87.75-95.34v95.34h-26.12V308.3h37.9Z"/><path class="cls-1" d="M415.23,568.21v36.06H336.89v10H411.5v31.09H336.89v10h78.34v36.06H288.39V568.21Z"/><path class="cls-2" d="M461.7,691.32H436l53.82-47.8L436,595.57H461.7l39.95,35.82,40.05-35.82h25.74L513.5,643.52l53.9,47.8H541.66l-40-35.82Z"/><path class="cls-1" d="M732.34,568.21V608h-48.5v83.32h-48.5V608H585.6V568.21Z"/><path class="cls-2" d="M851.72,595.57v16.17H768.41v24.87h80.83v14.92H768.41V676.4h83.31v14.92H752.24V595.57Z"/><path class="cls-1" d="M991,641.64V568.21h48.5V691.32H968.39l-48.27-73.43v73.43h-48.5V568.21h71.11Z"/><path class="cls-2" d="M1151.62,600.88a40.28,40.28,0,0,1,17,16.08q6.36,10.74,6.34,26.56T1168.58,670a40.44,40.44,0,0,1-17,16.07,52.12,52.12,0,0,1-23.72,5.3h-68.5V595.57h68.52A52.27,52.27,0,0,1,1151.62,600.88ZM1119,676.43q13.08,0,21-2.72A21.58,21.58,0,0,0,1152.1,664q4.08-7,4.08-19.81t-4.08-20a21.45,21.45,0,0,0-12.06-9.73q-7.95-2.75-21-2.72h-42.2V676.4Z"/><path class="cls-1" d="M1320.55,568.21v36.06h-78.34v10h74.61v31.09h-74.61v10h78.34v36.06H1193.71V568.21Z"/><path class="cls-2" d="M1433.93,600.88a40.32,40.32,0,0,1,17,16.08q6.33,10.74,6.33,26.56T1450.88,670a40.41,40.41,0,0,1-17,16.07,52.13,52.13,0,0,1-23.73,5.3h-68.51V595.57h68.51A52.43,52.43,0,0,1,1433.93,600.88Zm-32.62,75.55q13.07,0,21-2.72a21.57,21.57,0,0,0,12.05-9.74q4.09-7,4.09-19.81t-4.09-20a21.47,21.47,0,0,0-12.05-9.73q-8-2.75-21-2.72H1359.1V676.4Z"/><path d="M415.23,571.94v21.14H315.75v27.36H411.5v21.14H315.75v28.6h99.48v21.14H289.63V571.94Z"/><path class="cls-3" d="M460.85,691.32H435.11l53.81-47.8-53.81-47.95h25.74l40,35.82,40-35.82h25.71l-53.94,47.95,53.94,47.8H540.81l-40-35.82Z"/><path d="M732.34,571.94v22.39H672.65v97H646.54v-97h-59.7V571.94Z"/><path d="M1004.68,667.28V571.94h26.12V691.32H993L905.2,596v95.33H879.08V571.94H917Z"/><path class="cls-3" d="M1152.87,600.88a40.34,40.34,0,0,1,17,16.08q6.33,10.74,6.34,26.56T1169.83,670a40.44,40.44,0,0,1-17,16.07,52.13,52.13,0,0,1-23.73,5.3h-68.5V595.57h68.53A52.33,52.33,0,0,1,1152.87,600.88Zm-32.59,75.55q13.07,0,21-2.72a21.54,21.54,0,0,0,12-9.74q4.1-7,4.09-19.81t-4.09-20a21.41,21.41,0,0,0-12-9.73q-8-2.75-21-2.72h-42.23V676.4Z"/><path d="M1320.55,571.94v21.14h-99.48v27.36h95.75v21.14h-95.75v28.6h99.48v21.14H1195V571.94Z"/><g id="regle_10cm" data-name="regle 10cm" class="cls-4"><polyline class="cls-5" points="203.2 880.35 203.2 950.61 213.75 950.61 224.29 950.61 234.85 950.61 245.41 950.61 255.97 950.61 266.52 950.61 277.08 950.61 287.64 950.61 298.2 950.61 308.28 950.61"/><line class="cls-5" x1="213.15" y1="949.99" x2="213.15" y2="923.87"/><line class="cls-5" x1="224.34" y1="949.99" x2="224.34" y2="923.87"/><line class="cls-5" x1="234.29" y1="949.99" x2="234.29" y2="923.87"/><line class="cls-5" x1="245.48" y1="949.99" x2="245.48" y2="923.87"/><line class="cls-5" x1="266.62" y1="949.99" x2="266.64" y2="923.87"/><line class="cls-5" x1="276.57" y1="949.99" x2="276.57" y2="923.87"/><line class="cls-5" x1="287.77" y1="949.99" x2="287.77" y2="923.87"/><line class="cls-5" x1="297.71" y1="949.99" x2="297.71" y2="923.87"/><line class="cls-5" x1="255.43" y1="949.99" x2="255.43" y2="897.76"/><polyline class="cls-5" points="308.91 880.35 308.91 950.61 319.45 950.61 330 950.61 340.56 950.61 351.11 950.61 361.67 950.61 372.23 950.61 382.79 950.61 393.34 950.61 403.9 950.61 413.99 950.61"/><line class="cls-5" x1="318.85" y1="949.99" x2="318.87" y2="923.87"/><line class="cls-5" x1="330.05" y1="949.99" x2="330.05" y2="923.87"/><line class="cls-5" x1="340" y1="949.99" x2="340" y2="923.87"/><line class="cls-5" x1="351.19" y1="949.99" x2="351.19" y2="923.87"/><line class="cls-5" x1="372.33" y1="949.99" x2="372.34" y2="923.87"/><line class="cls-5" x1="382.28" y1="949.99" x2="382.28" y2="923.87"/><line class="cls-5" x1="393.47" y1="949.99" x2="393.47" y2="923.87"/><line class="cls-5" x1="403.42" y1="949.99" x2="403.42" y2="923.87"/><line class="cls-5" x1="361.14" y1="949.99" x2="361.14" y2="897.76"/><polyline class="cls-5" points="414.61 880.35 414.61 950.61 425.14 950.61 435.7 950.61 446.26 950.61 456.82 950.61 467.37 950.61 477.93 950.61 488.49 950.61 499.05 950.61 509.61 950.61 519.69 950.61"/><line class="cls-5" x1="424.56" y1="949.99" x2="424.57" y2="923.87"/><line class="cls-5" x1="434.51" y1="949.99" x2="434.51" y2="923.87"/><line class="cls-5" x1="445.7" y1="949.99" x2="445.7" y2="923.87"/><line class="cls-5" x1="455.65" y1="949.99" x2="455.65" y2="923.87"/><line class="cls-5" x1="476.79" y1="949.99" x2="476.8" y2="923.87"/><line class="cls-5" x1="487.98" y1="949.99" x2="487.98" y2="923.87"/><line class="cls-5" x1="497.93" y1="949.99" x2="497.93" y2="923.87"/><line class="cls-5" x1="509.12" y1="949.99" x2="509.12" y2="923.87"/><line class="cls-5" x1="466.84" y1="949.99" x2="466.84" y2="897.76"/><polyline class="cls-5" points="519.07 880.35 519.07 950.61 529.6 950.61 540.16 950.61 550.72 950.61 561.28 950.61 571.83 950.61 582.39 950.61 592.95 950.61 603.51 950.61 614.07 950.61 624.15 950.61"/><line class="cls-5" x1="530.26" y1="949.99" x2="530.27" y2="923.87"/><line class="cls-5" x1="540.21" y1="949.99" x2="540.21" y2="923.87"/><line class="cls-5" x1="551.4" y1="949.99" x2="551.4" y2="923.87"/><line class="cls-5" x1="561.35" y1="949.99" x2="561.35" y2="923.87"/><line class="cls-5" x1="582.49" y1="949.99" x2="582.5" y2="923.87"/><line class="cls-5" x1="593.68" y1="949.99" x2="593.68" y2="923.87"/><line class="cls-5" x1="603.63" y1="949.99" x2="603.63" y2="923.87"/><line class="cls-5" x1="614.82" y1="949.99" x2="614.82" y2="923.87"/><line class="cls-5" x1="572.54" y1="949.99" x2="572.54" y2="897.76"/><polyline class="cls-5" points="624.77 880.35 624.77 950.61 635.31 950.61 645.86 950.61 656.42 950.61 666.98 950.61 677.54 950.61 688.1 950.61 698.65 950.61 709.21 950.61 719.77 950.61 729.86 950.61"/><line class="cls-5" x1="635.97" y1="949.99" x2="635.98" y2="923.87"/><line class="cls-5" x1="645.91" y1="949.99" x2="645.91" y2="923.87"/><line class="cls-5" x1="657.11" y1="949.99" x2="657.11" y2="923.87"/><line class="cls-5" x1="667.05" y1="949.99" x2="667.05" y2="923.87"/><line class="cls-5" x1="688.2" y1="949.99" x2="688.21" y2="923.87"/><line class="cls-5" x1="699.39" y1="949.99" x2="699.39" y2="923.87"/><line class="cls-5" x1="709.34" y1="949.99" x2="709.34" y2="923.87"/><line class="cls-5" x1="720.53" y1="949.99" x2="720.53" y2="923.87"/><line class="cls-5" x1="678.25" y1="949.99" x2="678.25" y2="897.76"/><polyline class="cls-5" points="730.48 880.35 730.48 950.61 741.01 950.61 751.57 950.61 762.13 950.61 772.68 950.61 783.24 950.61 793.8 950.61 804.36 950.61 814.91 950.61 825.47 950.61 835.56 950.61"/><line class="cls-5" x1="741.67" y1="949.99" x2="741.68" y2="923.87"/><line class="cls-5" x1="751.62" y1="949.99" x2="751.62" y2="923.87"/><line class="cls-5" x1="762.81" y1="949.99" x2="762.81" y2="923.87"/><line class="cls-5" x1="772.76" y1="949.99" x2="772.76" y2="923.87"/><line class="cls-5" x1="793.9" y1="949.99" x2="793.91" y2="923.87"/><line class="cls-5" x1="805.09" y1="949.99" x2="805.09" y2="923.87"/><line class="cls-5" x1="815.04" y1="949.99" x2="815.04" y2="923.87"/><line class="cls-5" x1="826.23" y1="949.99" x2="826.23" y2="923.87"/><line class="cls-5" x1="783.95" y1="949.99" x2="783.95" y2="897.76"/><polyline class="cls-5" points="836.18 880.35 836.18 950.61 846.71 950.61 857.27 950.61 867.83 950.61 878.39 950.61 888.95 950.61 899.5 950.61 910.06 950.61 920.62 950.61 931.16 950.61 941.26 950.61"/><line class="cls-5" x1="847.37" y1="949.99" x2="847.38" y2="923.87"/><line class="cls-5" x1="857.32" y1="949.99" x2="857.32" y2="923.87"/><line class="cls-5" x1="867.27" y1="949.99" x2="867.27" y2="923.87"/><line class="cls-5" x1="878.46" y1="949.99" x2="878.46" y2="923.87"/><line class="cls-5" x1="899.6" y1="949.99" x2="899.6" y2="923.87"/><line class="cls-5" x1="909.55" y1="949.99" x2="909.55" y2="923.87"/><line class="cls-5" x1="920.74" y1="949.99" x2="920.74" y2="923.87"/><line class="cls-5" x1="930.69" y1="949.99" x2="930.69" y2="923.87"/><line class="cls-5" x1="888.41" y1="949.99" x2="888.41" y2="897.76"/><polyline class="cls-5" points="941.88 880.35 941.88 950.61 952.43 950.61 962.99 950.61 973.54 950.61 984.1 950.61 994.65 950.61 1005.21 950.61 1015.76 950.61 1026.32 950.61 1036.88 950.61 1046.96 950.61"/><line class="cls-5" x1="951.83" y1="949.99" x2="951.84" y2="923.87"/><line class="cls-5" x1="963.02" y1="949.99" x2="963.02" y2="923.87"/><line class="cls-5" x1="972.97" y1="949.99" x2="972.97" y2="923.87"/><line class="cls-5" x1="984.17" y1="949.99" x2="984.17" y2="923.87"/><line class="cls-5" x1="1005.31" y1="949.99" x2="1005.32" y2="923.87"/><line class="cls-5" x1="1015.25" y1="949.99" x2="1015.25" y2="923.87"/><line class="cls-5" x1="1026.45" y1="949.99" x2="1026.45" y2="923.87"/><line class="cls-5" x1="1036.4" y1="949.99" x2="1036.4" y2="923.87"/><line class="cls-5" x1="994.11" y1="949.99" x2="994.11" y2="897.76"/><polyline class="cls-5" points="1047.59 880.35 1047.59 950.61 1058.13 950.61 1068.68 950.61 1079.24 950.61 1089.79 950.61 1100.35 950.61 1110.91 950.61 1121.47 950.61 1132.03 950.61 1142.58 950.61 1152.67 950.61"/><line class="cls-5" x1="1057.54" y1="949.99" x2="1057.54" y2="923.87"/><line class="cls-5" x1="1068.73" y1="949.99" x2="1068.73" y2="923.87"/><line class="cls-5" x1="1078.68" y1="949.99" x2="1078.68" y2="923.87"/><line class="cls-5" x1="1089.87" y1="949.99" x2="1089.87" y2="923.87"/><line class="cls-5" x1="1111.01" y1="949.99" x2="1111.02" y2="923.87"/><line class="cls-5" x1="1120.96" y1="949.99" x2="1120.96" y2="923.87"/><line class="cls-5" x1="1132.15" y1="949.99" x2="1132.15" y2="923.87"/><line class="cls-5" x1="1142.1" y1="949.99" x2="1142.1" y2="923.87"/><line class="cls-5" x1="1099.82" y1="949.99" x2="1099.82" y2="897.76"/><polyline class="cls-5" points="1153.29 880.35 1153.29 950.61 1163.84 950.61 1174.38 950.61 1184.94 950.61 1195.5 950.61 1206.06 950.61 1216.61 950.61 1227.17 950.61 1237.73 950.61 1248.29 950.61 1258.37 950.61"/><line class="cls-5" x1="1163.24" y1="949.99" x2="1163.25" y2="923.87"/><line class="cls-5" x1="1174.43" y1="949.99" x2="1174.43" y2="923.87"/><line class="cls-5" x1="1184.38" y1="949.99" x2="1184.38" y2="923.87"/><line class="cls-5" x1="1195.57" y1="949.99" x2="1195.57" y2="923.87"/><line class="cls-5" x1="1216.71" y1="949.99" x2="1216.73" y2="923.87"/><line class="cls-5" x1="1226.66" y1="949.99" x2="1226.66" y2="923.87"/><line class="cls-5" x1="1237.85" y1="949.99" x2="1237.85" y2="923.87"/><line class="cls-5" x1="1247.8" y1="949.99" x2="1247.8" y2="923.87"/><line class="cls-5" x1="1205.52" y1="949.99" x2="1205.52" y2="897.76"/><polyline class="cls-5" points="1247.8 880.35 1247.8 950.61 1258.34 950.61 1268.89 950.61 1279.45 950.61 1290.01 950.61 1300.57 950.61 1311.13 950.61 1321.68 950.61 1332.24 950.61 1342.8 950.61 1352.88 950.61"/><line class="cls-5" x1="1258.99" y1="949.99" x2="1259.01" y2="923.87"/><line class="cls-5" x1="1268.94" y1="949.99" x2="1268.94" y2="923.87"/><line class="cls-5" x1="1280.14" y1="949.99" x2="1280.14" y2="923.87"/><line class="cls-5" x1="1290.08" y1="949.99" x2="1290.08" y2="923.87"/><line class="cls-5" x1="1311.22" y1="949.99" x2="1311.24" y2="923.87"/><line class="cls-5" x1="1321.17" y1="949.99" x2="1321.17" y2="923.87"/><line class="cls-5" x1="1332.37" y1="949.99" x2="1332.37" y2="923.87"/><line class="cls-5" x1="1342.31" y1="949.99" x2="1342.31" y2="923.87"/><line class="cls-5" x1="1300.03" y1="949.99" x2="1300.03" y2="897.76"/><polyline class="cls-5" points="1342.31 880.35 1342.31 950.61 1352.85 950.61 1363.4 950.61 1373.96 950.61 1384.52 950.61 1395.08 950.61 1405.64 950.61 1416.19 950.61 1426.75 950.61 1437.31 950.61 1447.4 950.61"/><line class="cls-5" x1="1353.51" y1="949.99" x2="1353.52" y2="923.87"/><line class="cls-5" x1="1363.45" y1="949.99" x2="1363.45" y2="923.87"/><line class="cls-5" x1="1374.65" y1="949.99" x2="1374.65" y2="923.87"/><line class="cls-5" x1="1384.6" y1="949.99" x2="1384.6" y2="923.87"/><line class="cls-5" x1="1405.74" y1="949.99" x2="1405.75" y2="923.87"/><line class="cls-5" x1="1416.93" y1="949.99" x2="1416.93" y2="923.87"/><line class="cls-5" x1="1426.88" y1="949.99" x2="1426.88" y2="923.87"/><line class="cls-5" x1="1438.07" y1="949.99" x2="1438.07" y2="923.87"/><line class="cls-5" x1="1395.79" y1="949.99" x2="1395.79" y2="897.76"/><polyline class="cls-5" points="1438.07 880.35 1438.07 950.61 1448.62 950.61 1459.19 950.61 1469.76 950.61 1480.34 950.61 1490.91 950.61 1501.48 950.61 1512.05 950.61 1522.63 950.61 1533.2 950.61 1543.77 950.61 1543.77 880.35"/><line class="cls-5" x1="1448.02" y1="949.99" x2="1448.03" y2="923.87"/><line class="cls-5" x1="1459.21" y1="949.99" x2="1459.21" y2="923.87"/><line class="cls-5" x1="1469.16" y1="949.99" x2="1469.16" y2="923.87"/><line class="cls-5" x1="1480.35" y1="949.99" x2="1480.35" y2="923.87"/><line class="cls-5" x1="1501.49" y1="949.99" x2="1501.5" y2="923.87"/><line class="cls-5" x1="1511.44" y1="949.99" x2="1511.44" y2="923.87"/><line class="cls-5" x1="1522.63" y1="949.99" x2="1522.63" y2="923.87"/><line class="cls-5" x1="1532.58" y1="949.99" x2="1532.58" y2="923.87"/><line class="cls-5" x1="1490.3" y1="949.99" x2="1490.3" y2="897.76"/></g><g id="regle_10cm_300_2" data-name="regle 10cm 300 2" class="cls-4"><polyline class="cls-5" points="1673.73 690.7 1743.99 690.7 1743.99 680.17 1743.99 669.61 1743.99 659.05 1743.99 648.5 1743.99 637.94 1743.99 627.38 1743.99 616.82 1743.99 606.26 1743.99 595.71 1743.99 585.62"/><line class="cls-5" x1="1744.61" y1="680.75" x2="1718.49" y2="680.74"/><line class="cls-5" x1="1744.61" y1="669.56" x2="1718.49" y2="669.56"/><line class="cls-5" x1="1744.61" y1="659.61" x2="1718.49" y2="659.61"/><line class="cls-5" x1="1744.61" y1="648.42" x2="1718.49" y2="648.42"/><line class="cls-5" x1="1744.61" y1="627.28" x2="1718.49" y2="627.28"/><line class="cls-5" x1="1744.61" y1="617.33" x2="1718.49" y2="617.33"/><line class="cls-5" x1="1744.61" y1="606.14" x2="1718.49" y2="606.14"/><line class="cls-5" x1="1744.61" y1="596.19" x2="1718.49" y2="596.19"/><line class="cls-5" x1="1744.61" y1="638.47" x2="1691.14" y2="638.47"/><polyline class="cls-5" points="1673.73 596.19 1743.99 596.19 1743.99 585.66 1743.99 575.1 1743.99 564.54 1743.99 553.98 1743.99 543.43 1743.99 532.87 1743.99 522.31 1743.99 511.75 1743.99 501.19 1743.99 491.11"/><line class="cls-5" x1="1744.61" y1="585" x2="1718.49" y2="584.99"/><line class="cls-5" x1="1744.61" y1="575.05" x2="1718.49" y2="575.05"/><line class="cls-5" x1="1744.61" y1="563.86" x2="1718.49" y2="563.86"/><line class="cls-5" x1="1744.61" y1="553.91" x2="1718.49" y2="553.91"/><line class="cls-5" x1="1744.61" y1="532.77" x2="1718.49" y2="532.77"/><line class="cls-5" x1="1744.61" y1="521.58" x2="1718.49" y2="521.58"/><line class="cls-5" x1="1744.61" y1="511.63" x2="1718.49" y2="511.63"/><line class="cls-5" x1="1744.61" y1="500.44" x2="1718.49" y2="500.44"/><line class="cls-5" x1="1744.61" y1="542.72" x2="1691.14" y2="542.72"/><polyline class="cls-5" points="1673.73 500.44 1743.99 500.44 1743.99 489.9 1743.99 479.35 1743.99 468.79 1743.99 458.23 1743.99 447.67 1743.99 437.13 1743.99 426.57 1743.99 416.01 1743.99 405.45 1743.99 395.35"/><line class="cls-5" x1="1744.61" y1="490.49" x2="1718.49" y2="490.47"/><line class="cls-5" x1="1744.61" y1="479.3" x2="1718.49" y2="479.3"/><line class="cls-5" x1="1744.61" y1="469.35" x2="1718.49" y2="469.35"/><line class="cls-5" x1="1744.61" y1="458.15" x2="1718.49" y2="458.15"/><line class="cls-5" x1="1744.61" y1="437.01" x2="1718.49" y2="437.01"/><line class="cls-5" x1="1744.61" y1="427.07" x2="1718.49" y2="427.07"/><line class="cls-5" x1="1744.61" y1="415.87" x2="1718.49" y2="415.87"/><line class="cls-5" x1="1744.61" y1="405.92" x2="1718.49" y2="405.92"/><line class="cls-5" x1="1744.61" y1="448.21" x2="1691.14" y2="448.21"/><polyline class="cls-5" points="1673.73 405.92 1743.99 405.92 1743.99 395.36 1743.99 384.79 1743.99 374.22 1743.99 363.64 1743.99 353.07 1743.99 342.5 1743.99 331.94 1743.99 321.37 1743.99 310.79 1743.99 300.22 1673.73 300.22"/><line class="cls-5" x1="1744.61" y1="394.73" x2="1718.49" y2="394.72"/><line class="cls-5" x1="1744.61" y1="384.78" x2="1718.49" y2="384.78"/><line class="cls-5" x1="1744.61" y1="373.59" x2="1718.49" y2="373.59"/><line class="cls-5" x1="1744.61" y1="363.64" x2="1718.49" y2="363.64"/><line class="cls-5" x1="1744.61" y1="342.5" x2="1718.49" y2="342.49"/><line class="cls-5" x1="1744.61" y1="332.55" x2="1718.49" y2="332.55"/><line class="cls-5" x1="1744.61" y1="321.36" x2="1718.49" y2="321.36"/><line class="cls-5" x1="1744.61" y1="311.41" x2="1718.49" y2="311.41"/><line class="cls-5" x1="1744.61" y1="352.45" x2="1691.14" y2="352.45"/></g><polyline class="cls-5" points="0.5 175.24 0.5 0.52 175.22 0.52"/><polyline class="cls-5" points="173.98 1211.76 0.5 1211.76 0.5 1037.04"/><polyline class="cls-6" points="1822.33 1037.04 1822.33 1211.76 1633.93 1211.76"/><polyline class="cls-6" points="1633.93 0.52 1822.33 0.52 1822.33 175.24"/><path class="cls-1" d="M1537.45,1211.61l12.1-20.37h1.1l-12.58,21.14h-1.26l-12.59-21.14h1.09Z"/><path class="cls-1" d="M1576.36,1200.73a9.05,9.05,0,0,1-3.09,2.13,51.55,51.55,0,0,1-5,1.72c-1.94.56-3.55,1.1-4.73,1.57a9.78,9.78,0,0,0-3.07,1.95,4.7,4.7,0,0,0-1.49,3h19v1.24h-19.9v-.67a5.47,5.47,0,0,1,1.37-3.82,9.54,9.54,0,0,1,3.32-2.37,53.24,53.24,0,0,1,5.2-1.8c2-.59,3.56-1.18,4.67-1.6a8.82,8.82,0,0,0,2.87-1.88,4.38,4.38,0,0,0-.24-6.18,3.9,3.9,0,0,0-.61-.46,10.81,10.81,0,0,0-5.69-1.26,12,12,0,0,0-6.71,1.62,5.39,5.39,0,0,0-2.36,4.74H1559a6.27,6.27,0,0,1,2.57-5.34,12.46,12.46,0,0,1,7.47-1.9,11.68,11.68,0,0,1,6.39,1.47,4.87,4.87,0,0,1,2.22,4.3A4.76,4.76,0,0,1,1576.36,1200.73Z"/><path class="cls-1" d="M1585.43,1212.38v-1.24h1.25v1.24Z"/><path class="cls-1" d="M1594.14,1211.56a9.55,9.55,0,0,1-3.86-3.88,12,12,0,0,1-1.37-5.82,11.83,11.83,0,0,1,1.37-5.77,9.78,9.78,0,0,1,3.86-3.87,12.58,12.58,0,0,1,11.4,0,9.66,9.66,0,0,1,3.84,3.87,11.6,11.6,0,0,1,1.38,5.77,11.85,11.85,0,0,1-1.38,5.8,9.71,9.71,0,0,1-3.84,3.89,12.46,12.46,0,0,1-11.4,0Zm11.23-.42a8.94,8.94,0,0,0,3.55-3.56,12,12,0,0,0,0-10.72,8.87,8.87,0,0,0-3.55-3.53,11.32,11.32,0,0,0-10.32,0,8.79,8.79,0,0,0-3.53,3.52,10.74,10.74,0,0,0-1.24,5.36,10.94,10.94,0,0,0,1.24,5.38,8.65,8.65,0,0,0,3.53,3.56,10.66,10.66,0,0,0,5.16,1.24,10.5,10.5,0,0,0,5.21-1.25Z"/><path class="cls-1" d="M1801.44,994.05a6.5,6.5,0,0,1,2.4-2.9,7,7,0,0,1,7.18,0,6.42,6.42,0,0,1,2.39,2.9,10.8,10.8,0,0,1,.84,4.39v12.48h7.46v1.25h-21.14V998.49A10.7,10.7,0,0,1,1801.44,994.05Zm12.8,4.1a8.3,8.3,0,0,0-1.61-5.35,6.3,6.3,0,0,0-8.91-.3l-.3.3a8.3,8.3,0,0,0-1.61,5.35v12.77h12.44Z"/><path class="cls-1" d="M1801.44,966.7a6.55,6.55,0,0,1,2.4-2.9,7,7,0,0,1,7.18,0,6.47,6.47,0,0,1,2.39,2.9,10.75,10.75,0,0,1,.84,4.38v12.48h7.46v1.25h-21.14V971.13A10.65,10.65,0,0,1,1801.44,966.7Zm12.8,4.08a8.26,8.26,0,0,0-1.61-5.34,6.3,6.3,0,0,0-8.91-.3l-.3.3a8.31,8.31,0,0,0-1.61,5.34v12.78h12.44Z"/><path class="cls-1" d="M250.43,20.46a5.53,5.53,0,0,1-2.61,4.83c-1.75,1.17-4.52,1.77-8.32,1.77s-6.57-.6-8.31-1.77a5.5,5.5,0,0,1-2.61-4.83q0-4.55,6.09-5.7-4.32-1.11-4.3-4.51a4.43,4.43,0,0,1,2.07-3.86C233.83,5.45,236.18,5,239.5,5q9.13,0,9.14,5.28,0,3.4-4.31,4.51Q250.44,15.92,250.43,20.46Zm-3.36,4.16a4.71,4.71,0,0,0,2.4-4.16A4.21,4.21,0,0,0,247,16.61a21.82,21.82,0,0,0-15.07,0,4.2,4.2,0,0,0-2.42,3.85,4.67,4.67,0,0,0,2.4,4.16c1.6,1,4.12,1.54,7.56,1.54s6-.52,7.62-1.54ZM239.5,14.37q8.19,0,8.18-4.15A3.59,3.59,0,0,0,245.74,7,17.33,17.33,0,0,0,233.3,7a3.56,3.56,0,0,0-2,3.19C231.28,13,234.05,14.37,239.5,14.37Z"/><path class="cls-1" d="M288.48,24.92l8.81-20h1.06L289,26H288L277.69,5.78,267.42,26h-1.08L257.06,4.87h1.06l8.81,20.05,10.2-20h1.26Z"/><path class="cls-1" d="M302.07,26V24.77h1.24V26Z"/><path class="cls-1" d="M328.19,17.36a4.64,4.64,0,0,1,1.25,3.49A5.34,5.34,0,0,1,327,25.53c-1.63,1.08-4.15,1.63-7.59,1.64a13.73,13.73,0,0,1-7.84-1.92,6.26,6.26,0,0,1-2.78-5.45h1a5.27,5.27,0,0,0,2.72,4.89,14.45,14.45,0,0,0,7.24,1.58,13.13,13.13,0,0,0,6.46-1.38,4.4,4.4,0,0,0,2.31-4.09,3.69,3.69,0,0,0-1.26-3.05,7.21,7.21,0,0,0-3.58-1.25,52.79,52.79,0,0,0-6.65-.32v-.9a46.66,46.66,0,0,0,6.36-.34,7.17,7.17,0,0,0,3.57-1.25,3.56,3.56,0,0,0,1.25-3q0-4.87-8.57-4.87a13.63,13.63,0,0,0-7.35,1.61,5.38,5.38,0,0,0-2.51,4.86h-1a6.25,6.25,0,0,1,2.68-5.49A13.59,13.59,0,0,1,319.28,5q5.07,0,7.45,1.45a4.63,4.63,0,0,1,2.4,4.17,4.88,4.88,0,0,1-1.18,3.5,6.57,6.57,0,0,1-3.44,1.68A7.36,7.36,0,0,1,328.19,17.36Z"/><path class="cls-1" d="M355.17,7.51a9.39,9.39,0,0,1,2.62,7.1c0,4.59-.89,7.82-2.7,9.66a10,10,0,0,1-7.56,2.79,32.77,32.77,0,0,1-4.74-.35c-1.49-.22-3.06-.53-4.66-.91v-.89c2.06.43,3.73.76,5,1a25.93,25.93,0,0,0,4,.29A11.62,11.62,0,0,0,352.69,25a7.15,7.15,0,0,0,3.14-3.61,17.76,17.76,0,0,0,1-6.46,7.93,7.93,0,0,1-3.47,3.85,13.09,13.09,0,0,1-6.83,1.56,12.84,12.84,0,0,1-7.36-1.76,7.46,7.46,0,0,1-1-10.51A7.22,7.22,0,0,1,339.36,7a13.54,13.54,0,0,1,7.82-2Q352.55,5,355.17,7.51Zm-3.8,11.07a8.12,8.12,0,0,0,3.48-2.41,5.39,5.39,0,0,0,1.24-3.5,6,6,0,0,0-1-3.32A7.39,7.39,0,0,0,352,6.86a14.56,14.56,0,0,0-12.26.84,5.81,5.81,0,0,0-2.49,5,6,6,0,0,0,2.24,5.09,11.24,11.24,0,0,0,6.78,1.69A14,14,0,0,0,351.37,18.58Z"/><path class="cls-1" d="M385.65,20.46A5.51,5.51,0,0,1,383,25.29c-1.74,1.17-4.51,1.77-8.31,1.77s-6.57-.6-8.32-1.77a5.53,5.53,0,0,1-2.61-4.83c0-3,2-5,6.1-5.7-2.86-.73-4.31-2.24-4.31-4.51a4.46,4.46,0,0,1,2.08-3.86C369,5.45,371.35,5,374.68,5q9.12,0,9.13,5.28,0,3.4-4.29,4.51Q385.66,15.92,385.65,20.46Zm-3.35,4.16a4.71,4.71,0,0,0,2.4-4.16,4.22,4.22,0,0,0-2.43-3.85,21.82,21.82,0,0,0-15.07,0,4.21,4.21,0,0,0-2.49,3.85,4.72,4.72,0,0,0,2.4,4.16c1.61,1,4.13,1.54,7.57,1.54S380.69,25.64,382.3,24.62Zm-7.57-10.25q8.17,0,8.17-4.15A3.55,3.55,0,0,0,381,7a17.3,17.3,0,0,0-12.43,0,3.55,3.55,0,0,0-1.94,3.19c0,2.76,2.72,4.15,8.14,4.15Z"/><path class="cls-1" d="M393.24,10.22a10.74,10.74,0,0,1,4.43-3.88A14.6,14.6,0,0,1,404.05,5a13.66,13.66,0,0,1,5.84,1.15,9.93,9.93,0,0,1,3.82,3,16.42,16.42,0,0,1,1.7,3.24H414A8.22,8.22,0,0,0,412.65,9a9.19,9.19,0,0,0-3.48-3,12.25,12.25,0,0,0-5.85-1.25,12.68,12.68,0,0,0-6.5,1.59,10.3,10.3,0,0,0-4,4,11.26,11.26,0,0,0-1.28,5.35A11.75,11.75,0,0,0,392.84,21a9.83,9.83,0,0,0,3.84,4,12.3,12.3,0,0,0,6.46,1.57,20.22,20.22,0,0,0,5.74-.72A23.93,23.93,0,0,0,414,23.5V17.31h1.24v6.47a22.28,22.28,0,0,1-5.36,2.48,20.94,20.94,0,0,1-6,.8,14,14,0,0,1-6.3-1.38,10.45,10.45,0,0,1-4.37-3.88A10.72,10.72,0,0,1,391.6,16,10.37,10.37,0,0,1,393.24,10.22Z"/><g class="cls-7"><line class="cls-8" x1="114.29" y1="305.2" x2="121.75" y2="305.2"/><line class="cls-9" x1="136.67" y1="305.2" x2="1616.52" y2="305.2"/><line class="cls-8" x1="1623.98" y1="305.2" x2="1631.44" y2="305.2"/></g><g class="cls-7"><line class="cls-10" x1="114.29" y1="307.68" x2="121.75" y2="307.68"/><line class="cls-11" x1="136.67" y1="307.68" x2="1616.52" y2="307.68"/><line class="cls-10" x1="1623.98" y1="307.68" x2="1631.44" y2="307.68"/></g><g class="cls-7"><line class="cls-10" x1="114.29" y1="571.32" x2="121.75" y2="571.32"/><line class="cls-11" x1="136.67" y1="571.32" x2="1616.52" y2="571.32"/><line class="cls-10" x1="1623.98" y1="571.32" x2="1631.44" y2="571.32"/></g><g class="cls-7"><line class="cls-8" x1="114.29" y1="328.82" x2="121.75" y2="328.82"/><line class="cls-9" x1="136.67" y1="328.82" x2="1616.52" y2="328.82"/><line class="cls-8" x1="1623.98" y1="328.82" x2="1631.44" y2="328.82"/></g><g class="cls-7"><line class="cls-8" x1="114.29" y1="568.83" x2="121.75" y2="568.83"/><line class="cls-9" x1="136.67" y1="568.83" x2="1616.52" y2="568.83"/><line class="cls-8" x1="1623.98" y1="568.83" x2="1631.44" y2="568.83"/></g><g class="cls-7"><line class="cls-8" x1="114.29" y1="596.19" x2="121.75" y2="596.19"/><line class="cls-9" x1="136.67" y1="596.19" x2="1616.52" y2="596.19"/><line class="cls-8" x1="1623.98" y1="596.19" x2="1631.44" y2="596.19"/></g><g class="cls-7"><line class="cls-8" x1="114.29" y1="690.7" x2="121.75" y2="690.7"/><line class="cls-9" x1="136.67" y1="690.7" x2="1616.52" y2="690.7"/><line class="cls-8" x1="1623.98" y1="690.7" x2="1631.44" y2="690.7"/></g><g class="cls-7"><line class="cls-8" x1="114.29" y1="427.07" x2="121.75" y2="427.07"/><line class="cls-9" x1="136.67" y1="427.07" x2="1616.52" y2="427.07"/><line class="cls-8" x1="1623.98" y1="427.07" x2="1631.44" y2="427.07"/></g></g></g></svg>