<svg xmlns="http://www.w3.org/2000/svg" viewBox="0 0 964.82 666.74"><defs><style>.cls-1,.cls-10,.cls-11,.cls-12,.cls-13,.cls-14,.cls-15,.cls-2,.cls-3,.cls-4,.cls-5,.cls-6,.cls-7,.cls-8,.cls-9{fill:none;stroke-miterlimit:10;}.cls-1,.cls-2,.cls-3,.cls-4,.cls-5,.cls-6{stroke:#818187;}.cls-2{stroke-dasharray:3.02 3.02;}.cls-3,.cls-4{stroke-dasharray:3;}.cls-4{stroke-width:2px;}.cls-5{stroke-width:5px;stroke-dasharray:7;}.cls-6{stroke-linecap:round;stroke-width:0.75px;stroke-dasharray:2;opacity:0.75;isolation:isolate;}.cls-10,.cls-11,.cls-12,.cls-13,.cls-14,.cls-15,.cls-7,.cls-8,.cls-9{stroke:#fff;stroke-width:12px;}.cls-8{stroke-dasharray:61.03 61.03;}.cls-9{stroke-dasharray:48.75 48.75;}.cls-10{stroke-dasharray:41.36 41.36;}.cls-11{stroke-dasharray:34.37 34.37;}.cls-12{stroke-dasharray:51.39 51.39;}.cls-13{stroke-dasharray:47.28 47.28;}.cls-14{stroke-dasharray:50.23 50.23;}.cls-15{stroke-dasharray:50.23 50.23;}</style></defs><title>nd1</title><g id="Calque_2" data-name="Calque 2"><g id="M"><g id="Calque_9" data-name="Calque 9"><polygon class="cls-1" points="715.42 260.74 704.15 260.74 708.21 250.74 673.87 250.74 677.93 260.74 572.13 260.74 576.19 250.74 541.85 250.74 545.92 260.74 419.13 260.74 423.19 250.74 388.82 250.74 392.89 260.74 287.13 260.74 291.19 250.74 256.85 250.74 260.92 260.74 249.64 260.74 245.16 245.74 719.65 245.74 715.42 260.74"/><line class="cls-1" x1="715.27" y1="248.74" x2="713.27" y2="248.74"/><line class="cls-2" x1="710.27" y1="248.74" x2="253.27" y2="248.74"/><line class="cls-1" x1="251.27" y1="248.74" x2="250.27" y2="248.74"/><rect class="cls-1" x="555.77" y="40.74" width="139" height="8"/><polyline class="cls-1" points="694.28 48.74 698.04 57.74 551.28 57.74 555.78 48.64"/><polyline class="cls-1" points="551.28 57.74 549.28 64.74 700.34 64.74 698.04 57.74"/><polyline class="cls-1" points="557.36 40.58 561.2 36.74 689.15 36.74 692.72 40.58"/><polygon class="cls-1" points="660.77 36.74 681.77 36.74 681.77 27.08 671.57 24.08 660.77 27.08 660.77 36.74"/><path class="cls-1" d="M671.29.19l-11,27Z" transform="translate(0)"/><line class="cls-1" x1="671.29" y1="0.19" x2="681.7" y2="27.19"/><line class="cls-1" x1="549.77" y1="65.24" x2="549.77" y2="246.24"/><line class="cls-1" x1="700.77" y1="65.24" x2="700.77" y2="246.24"/><polyline class="cls-1" points="549.77 86.79 537.77 108.19 537.77 246.24"/><polyline class="cls-1" points="700.77 87.29 712.77 108.69 712.77 246.24"/><path class="cls-1" d="M590.77,245.24V123.3q10.51-38.55,21,0V245.24" transform="translate(0)"/><path class="cls-1" d="M637.77,245.24V123.3q10.51-38.55,21,0V245.24" transform="translate(0)"/><path class="cls-1" d="M585.77,246.24V119.44q16-43.74,32,0v125.8" transform="translate(0)"/><path class="cls-1" d="M581.77,246.24V115.14q20-45.06,40,0v130.1" transform="translate(0)"/><path class="cls-1" d="M632.77,246.24V119.44q16-43.74,32,0v125.8" transform="translate(0)"/><path class="cls-1" d="M628.77,246.24V115.14q20-45.06,40,0v130.1" transform="translate(0)"/><line class="cls-3" x1="562.27" y1="61.74" x2="688.27" y2="61.74"/><line class="cls-4" x1="562.27" y1="53.24" x2="688.27" y2="53.24"/><rect class="cls-1" x="269.77" y="40.74" width="139" height="8"/><polyline class="cls-1" points="270.52 48.74 266.77 57.74 413.52 57.74 409.02 48.64"/><polyline class="cls-1" points="413.52 57.74 415.52 64.74 264.47 64.74 266.77 57.74"/><polyline class="cls-1" points="407.45 40.58 403.61 36.74 275.66 36.74 272.09 40.58"/><polygon class="cls-1" points="304.77 36.74 283.77 36.74 283.77 27.08 293.97 24.08 304.77 27.08 304.77 36.74"/><path class="cls-1" d="M293.53.19l11,27Z" transform="translate(0)"/><line class="cls-1" x1="293.52" y1="0.19" x2="283.11" y2="27.19"/><line class="cls-1" x1="415.77" y1="65.24" x2="415.77" y2="246.24"/><line class="cls-1" x1="264.77" y1="65.24" x2="264.77" y2="246.24"/><polyline class="cls-1" points="415.77 86.79 427.77 108.19 427.77 246.24"/><polyline class="cls-1" points="264.77 87.29 252.77 108.69 252.77 246.24"/><path class="cls-1" d="M373.77,245.24V123.3q-10.49-38.55-21,0V245.24" transform="translate(0)"/><path class="cls-1" d="M326.77,245.24V123.3q-10.49-38.55-21,0V245.24" transform="translate(0)"/><path class="cls-1" d="M379.77,246.24V119.43q-16-43.8-32,0V245.24" transform="translate(0)"/><path class="cls-1" d="M383.77,246.24V115.14q-20-45.06-40,0v130.1" transform="translate(0)"/><path class="cls-1" d="M332.77,246.24V119.43q-16-43.8-32,0V245.24" transform="translate(0)"/><path class="cls-1" d="M336.77,246.24V115.14q-20-45.06-40,0v130.1" transform="translate(0)"/><line class="cls-3" x1="277.27" y1="61.74" x2="402.27" y2="61.74"/><line class="cls-4" x1="277.27" y1="53.24" x2="403.27" y2="53.24"/><polyline class="cls-1" points="714.27 346.74 704.06 346.77 708.31 336.74 673.87 336.74 677.93 346.74 572.14 346.74 576.2 336.74 541.7 336.74 545.77 346.74 418.98 346.74 423.07 336.74 388.7 336.74 392.77 346.74 287.08 346.74 291.08 336.74 256.7 336.74 260.77 346.74 260.77 349.24"/><line class="cls-1" x1="286.77" y1="336.24" x2="286.77" y2="261.24"/><line class="cls-1" x1="260.77" y1="261.24" x2="260.77" y2="336.24"/><line class="cls-1" x1="418.77" y1="336.24" x2="418.77" y2="261.24"/><line class="cls-1" x1="392.77" y1="261.24" x2="392.77" y2="336.24"/><line class="cls-1" x1="571.77" y1="336.24" x2="571.77" y2="261.24"/><line class="cls-1" x1="545.77" y1="261.24" x2="545.77" y2="336.24"/><line class="cls-1" x1="703.77" y1="337.24" x2="703.77" y2="261.24"/><line class="cls-1" x1="677.77" y1="261.24" x2="677.77" y2="337.24"/><line class="cls-1" x1="286.77" y1="464.24" x2="286.77" y2="347.24"/><line class="cls-1" x1="260.77" y1="347.24" x2="260.77" y2="464.24"/><line class="cls-1" x1="418.77" y1="464.24" x2="418.77" y2="347.24"/><line class="cls-1" x1="392.77" y1="347.24" x2="392.77" y2="464.24"/><line class="cls-1" x1="571.77" y1="464.24" x2="571.77" y2="347.24"/><line class="cls-1" x1="545.77" y1="347.24" x2="545.77" y2="464.24"/><line class="cls-1" x1="703.77" y1="465.24" x2="703.77" y2="347.24"/><line class="cls-1" x1="677.77" y1="347.24" x2="677.77" y2="465.24"/><path class="cls-1" d="M515.82,381a46.82,46.82,0,1,0,13.71,33.09A46.81,46.81,0,0,0,515.82,381Zm-40.64,35.11a7.88,7.88,0,1,1,2.08,3.5,7.8,7.8,0,0,1-2.08-3.5Z" transform="translate(0)"/><path class="cls-1" d="M490.53,413.74a8,8,0,0,1-.26,2,7.75,7.75,0,0,1-13,3.5,7.87,7.87,0,0,1,5.06-13.38,7.61,7.61,0,0,1,5.11,1.51,7.86,7.86,0,0,1,3.17,6.37Z" transform="translate(0)"/><path class="cls-1" d="M505.32,408.07a22.68,22.68,0,0,0-2.33-5.65,23.34,23.34,0,0,0-3.72-4.85,22.78,22.78,0,0,0-4.85-3.71,22.12,22.12,0,0,0-5.64-2.34,23.28,23.28,0,0,0-12.12,0,22.79,22.79,0,0,0-5.64,2.34,23.42,23.42,0,0,0-10.9,14.2,23.49,23.49,0,0,0,0,12.12,22.64,22.64,0,0,0,2.34,5.64,23.3,23.3,0,0,0,8.56,8.57,22.79,22.79,0,0,0,5.64,2.34,23.71,23.71,0,0,0,12.12,0,22.48,22.48,0,0,0,5.64-2.34,22.82,22.82,0,0,0,4.85-3.72,23.34,23.34,0,0,0,3.72-4.85,23.51,23.51,0,0,0,3.13-11.7A22.49,22.49,0,0,0,505.32,408.07Zm-17.08,11.57a7.62,7.62,0,1,1,2.08-3.5,7.81,7.81,0,0,1-2.08,3.5Z" transform="translate(0)"/><line class="cls-1" x1="482.77" y1="437.24" x2="482.77" y2="461.24"/><polyline class="cls-1" points="494.84 459.33 493.02 452.53 492.82 451.8 488.78 436.73 487.96 433.65 484.74 421.66"/><line class="cls-1" x1="494.43" y1="434.39" x2="506.13" y2="454.65"/><polyline class="cls-1" points="516.29 447.22 511.87 442.8 510.77 441.71 510.77 441.7 499.74 430.67 498.07 429 488.71 419.64"/><line class="cls-1" x1="502.99" y1="425.82" x2="523.26" y2="437.52"/><polyline class="cls-1" points="527.93 426.24 522.25 424.72 520.4 424.22 505.32 420.18 503.41 419.67 490.26 416.14"/><line class="cls-1" x1="506.27" y1="413.74" x2="529.27" y2="413.74"/><polyline class="cls-1" points="527.93 402.01 522.09 403.58 520.4 404.03 505.32 408.07 503.23 408.62 490.26 412.1"/><line class="cls-1" x1="502.99" y1="402.42" x2="523.26" y2="390.72"/><polyline class="cls-1" points="515.82 381.03 511.08 385.77 510.3 386.54 499.27 397.57 497.26 399.59 488.24 408.6"/><line class="cls-1" x1="494.43" y1="393.86" x2="506.13" y2="373.59"/><polyline class="cls-1" points="494.84 368.92 492.86 376.31 492.82 376.44 488.78 391.52 487.79 395.2 484.74 406.58"/><line class="cls-1" x1="482.77" y1="390.24" x2="482.77" y2="367.24"/><polyline class="cls-1" points="470.61 368.92 472.63 376.44 472.84 377.25 476.66 391.52 477.9 396.12 480.7 406.58"/><line class="cls-1" x1="471.03" y1="393.86" x2="459.33" y2="373.59"/><polyline class="cls-1" points="449.63 381.03 455.14 386.54 456.26 387.66 466.17 397.57 470.06 401.46 477.2 408.6"/><line class="cls-1" x1="462.46" y1="402.42" x2="442.2" y2="390.72"/><path class="cls-1" d="M490.53,413.74a8,8,0,0,1-.26,2,7.75,7.75,0,0,1-13,3.5,7.87,7.87,0,0,1,5.06-13.38,7.61,7.61,0,0,1,5.11,1.51,7.86,7.86,0,0,1,3.17,6.37Z" transform="translate(0)"/><polyline class="cls-1" points="437.52 402.01 445.04 404.03 446.9 404.52 460.12 408.06 465.73 409.57 475.18 412.1"/><line class="cls-1" x1="459.27" y1="413.74" x2="436.27" y2="413.74"/><polyline class="cls-1" points="437.52 426.24 445.04 424.22 446.75 423.77 460.12 420.18 465.6 418.71 475.18 416.14"/><line class="cls-1" x1="462.46" y1="425.82" x2="442.2" y2="437.52"/><polyline class="cls-1" points="449.63 447.22 455.14 441.71 455.95 440.9 466.17 430.67 469.77 427.08 477.2 419.64"/><line class="cls-1" x1="471.03" y1="434.39" x2="459.33" y2="454.65"/><polyline class="cls-1" points="470.61 459.33 472.63 451.8 472.69 451.58 476.66 436.73 477.74 432.69 480.7 421.66"/><rect class="cls-1" x="258.77" y="465.74" width="445" height="12"/><polyline class="cls-1" points="259.21 476.81 248.73 484.74 259.21 484.74 714.84 484.74 704.15 476.81"/><polyline class="cls-1" points="260.77 485.24 260.77 660.74 703.77 660.74 703.77 485.24"/><path class="cls-1" d="M419.22,422.69a63.5,63.5,0,0,1,127,0" transform="translate(0)"/><path class="cls-1" d="M419.22,389a72,72,0,0,1,126.7-.57" transform="translate(0)"/><path class="cls-1" d="M667.77,465.24v-67.6s-19.14-30.08-43-30.08-43,30.08-43,30.08v67.6" transform="translate(0)"/><path class="cls-1" d="M663.77,465.24V425.86s-2.15-19.52-17.54-19.52-17.46,19.43-17.46,19.43v39.47" transform="translate(0)"/><path class="cls-1" d="M657.77,465.24V433.32s-1.47-15.72-12-15.72-12,15.65-12,15.65v32" transform="translate(0)"/><path class="cls-1" d="M621.77,465.24V425.86s-2.15-19.52-17.54-19.52-17.46,19.43-17.46,19.43v39.47" transform="translate(0)"/><path class="cls-1" d="M615.77,465.24V433.32s-1.47-15.72-12-15.72-12,15.65-12,15.65v32" transform="translate(0)"/><path class="cls-1" d="M638.88,382.68a16,16,0,1,0,2.15,8A15.74,15.74,0,0,0,638.88,382.68Zm-1.81,15.06a11,11,0,1,1,.07,0Z" transform="translate(0)"/><path class="cls-1" d="M624.77,376.74v10.49a3.41,3.41,0,0,0-1.7.45,3.29,3.29,0,0,0-1.26,1.25l-9.07-5.25a13.87,13.87,0,0,1,12-6.94Z" transform="translate(0)"/><path class="cls-1" d="M621.62,390.69a3.52,3.52,0,0,0,.45,1.71L613,397.64a13.88,13.88,0,0,1,0-13.91l9.07,5.25A3.52,3.52,0,0,0,621.62,390.69Z" transform="translate(0)"/><path class="cls-1" d="M624.77,393.74v10.49a13.9,13.9,0,0,1-12-7l9.07-5.24a3.45,3.45,0,0,0,3,1.7Z" transform="translate(0)"/><path class="cls-1" d="M636.77,397.64a13.87,13.87,0,0,1-12,6.95V394.1a3.48,3.48,0,0,0,1.7-.45,3.36,3.36,0,0,0,1.26-1.25Z" transform="translate(0)"/><path class="cls-1" d="M638.93,390.69a13.69,13.69,0,0,1-1.86,6.95L628,392.4a3.47,3.47,0,0,0,0-3.42l9.08-5.25A13.82,13.82,0,0,1,638.93,390.69Z" transform="translate(0)"/><path class="cls-1" d="M636.81,383.73,627.73,389a3.16,3.16,0,0,0-1.26-1.25,3.48,3.48,0,0,0-1.7-.45V376.81a13.84,13.84,0,0,1,12,6.94Z" transform="translate(0)"/><line class="cls-1" x1="639.27" y1="398.74" x2="639.27" y2="398.74"/><line class="cls-1" x1="639.27" y1="382.74" x2="639.27" y2="382.74"/><path class="cls-1" d="M628.44,390.69a3.41,3.41,0,0,1-.45,1.71,3.36,3.36,0,0,1-1.26,1.25,3.43,3.43,0,0,1-4.66-1.25,3.47,3.47,0,0,1,0-3.42,3.36,3.36,0,0,1,1.26-1.25,3.44,3.44,0,0,1,3.4,0A3.16,3.16,0,0,1,628,389,3.41,3.41,0,0,1,628.44,390.69Z" transform="translate(0)"/><line class="cls-1" x1="611.27" y1="382.74" x2="611.27" y2="382.74"/><line class="cls-1" x1="611.27" y1="398.74" x2="611.27" y2="398.74"/><path class="cls-1" d="M382.77,465.24v-67.6s-19.14-30.07-43-30.07-43,30.07-43,30.07v67.6" transform="translate(0)"/><path class="cls-1" d="M378.77,465.24V425.87s-2.16-19.52-17.54-19.52-17.46,19.43-17.46,19.43v39.46" transform="translate(0)"/><path class="cls-1" d="M372.77,465.24V433.32s-1.47-15.72-12-15.72-12,15.65-12,15.65v32" transform="translate(0)"/><path class="cls-1" d="M336.77,465.24V425.87s-2.16-19.52-17.54-19.52-17.46,19.43-17.46,19.43v39.46" transform="translate(0)"/><path class="cls-1" d="M330.77,465.24V433.31s-1.47-15.73-12-15.73-12,15.66-12,15.66v32" transform="translate(0)"/><path class="cls-1" d="M353.87,382.68a16,16,0,1,0,2.15,8A15.74,15.74,0,0,0,353.87,382.68Zm-1.81,15.06a13.88,13.88,0,0,1-24-13.91,13.9,13.9,0,1,1,24.07,13.91Z" transform="translate(0)"/><path class="cls-1" d="M339.77,376.81V387.3a3.51,3.51,0,0,0-1.7.45,3.36,3.36,0,0,0-1.26,1.25l-9.07-5.25a14,14,0,0,1,5.09-5.09A13.77,13.77,0,0,1,339.77,376.81Z" transform="translate(0)"/><path class="cls-1" d="M336.61,390.69a3.52,3.52,0,0,0,.45,1.71L328,397.64a13.88,13.88,0,0,1,0-13.91l9.07,5.25A3.52,3.52,0,0,0,336.61,390.69Z" transform="translate(0)"/><path class="cls-1" d="M339.77,393.74v10.49a13.89,13.89,0,0,1-12-7l9.07-5.24a3.45,3.45,0,0,0,3,1.7Z" transform="translate(0)"/><path class="cls-1" d="M351.77,397.64a13.87,13.87,0,0,1-12,6.95V394.1a3.48,3.48,0,0,0,1.7-.45,3.36,3.36,0,0,0,1.26-1.25Z" transform="translate(0)"/><path class="cls-1" d="M353.92,390.69a13.69,13.69,0,0,1-1.86,6.95L343,392.4a3.47,3.47,0,0,0,0-3.42l9.08-5.25A13.82,13.82,0,0,1,353.92,390.69Z" transform="translate(0)"/><path class="cls-1" d="M351.81,383.73,342.73,389a3.16,3.16,0,0,0-1.26-1.25,3.48,3.48,0,0,0-1.7-.45V376.81a13.84,13.84,0,0,1,12,6.94Z" transform="translate(0)"/><line class="cls-1" x1="354.27" y1="398.74" x2="354.27" y2="398.74"/><line class="cls-1" x1="354.27" y1="382.74" x2="354.27" y2="382.74"/><path class="cls-1" d="M343.43,390.69a3.41,3.41,0,0,1-.45,1.71,3.36,3.36,0,0,1-1.26,1.25,3.43,3.43,0,0,1-4.66-1.25,3.47,3.47,0,0,1,0-3.42,3.36,3.36,0,0,1,1.26-1.25,3.44,3.44,0,0,1,3.4,0A3.16,3.16,0,0,1,343,389,3.41,3.41,0,0,1,343.43,390.69Z" transform="translate(0)"/><line class="cls-1" x1="326.27" y1="382.74" x2="326.27" y2="382.74"/><line class="cls-1" x1="326.27" y1="398.74" x2="326.27" y2="398.74"/><line class="cls-3" x1="395.27" y1="260.74" x2="416.27" y2="260.74"/><line class="cls-3" x1="263.27" y1="260.74" x2="284.27" y2="260.74"/><line class="cls-3" x1="548.27" y1="260.74" x2="569.27" y2="260.74"/><line class="cls-3" x1="680.27" y1="260.74" x2="701.27" y2="260.74"/><line class="cls-3" x1="680.27" y1="346.74" x2="701.27" y2="346.74"/><line class="cls-3" x1="548.27" y1="346.74" x2="569.27" y2="346.74"/><line class="cls-3" x1="395.27" y1="346.74" x2="416.27" y2="346.74"/><line class="cls-3" x1="263.27" y1="346.74" x2="284.27" y2="346.74"/><line class="cls-5" x1="274.27" y1="471.74" x2="688.27" y2="471.74"/><path class="cls-6" d="M314.48,365.64a6.1,6.1,0,0,1-6.09,6.1h-.11a6.59,6.59,0,0,1,.1,1.09,6.11,6.11,0,1,1-12.2.52,4.51,4.51,0,0,1,0-.52,5.67,5.67,0,0,1,.1-1.09h-.6a5.23,5.23,0,0,1-4.48-2.39c-3.37-5.49,1.52-11.21,7-9.49a4.56,4.56,0,0,1,1.05.49,6.17,6.17,0,0,1,3,6.39h.2a5.77,5.77,0,0,1-.1-1.1,6.11,6.11,0,0,1,12.2,0Z" transform="translate(0)"/><path class="cls-6" d="M390,365.64a6.1,6.1,0,0,1-6.09,6.1h-.11a6.59,6.59,0,0,1,.1,1.09,6.11,6.11,0,1,1-12.2.52,4.51,4.51,0,0,1,0-.52,5.67,5.67,0,0,1,.1-1.09h-.1a6.1,6.1,0,1,1,6.1-6.1,5.77,5.77,0,0,1-.1,1.1h.2a5.77,5.77,0,0,1-.1-1.1,6.11,6.11,0,0,1,12.2,0Z" transform="translate(0)"/><path class="cls-6" d="M599.48,365.64a6.1,6.1,0,0,1-6.09,6.1h-.11a6.59,6.59,0,0,1,.1,1.09,6.11,6.11,0,1,1-12.2.52,4.51,4.51,0,0,1,0-.52,5.67,5.67,0,0,1,.1-1.09h-.1a6.1,6.1,0,1,1,6.1-6.1,5.77,5.77,0,0,1-.1,1.1h.2a5.77,5.77,0,0,1-.1-1.1,6.11,6.11,0,0,1,12.2,0Z" transform="translate(0)"/><path class="cls-6" d="M544.44,355.85a4.89,4.89,0,0,1-4.89,4.89h-.08a5,5,0,0,1,.07.87,4.94,4.94,0,0,1-7.44,4.23,4.47,4.47,0,0,1-2.33-4v-.25a5,5,0,0,1,.08-.87h-.34a4.44,4.44,0,0,1-4-2.32,4.94,4.94,0,0,1,4.22-7.45,4.89,4.89,0,0,1,4.89,4.88h0a5.35,5.35,0,0,1-.08.89h.16a5.26,5.26,0,0,1-.08-.89,4.9,4.9,0,0,1,9.78,0Z" transform="translate(0)"/><path class="cls-6" d="M441.06,355.85a4.89,4.89,0,0,1-4.88,4.89h-.09a4.21,4.21,0,0,1,.09.87,4.9,4.9,0,1,1-9.78.46,3.53,3.53,0,0,1,0-.46,5,5,0,0,1,.08-.87h-.35a4.38,4.38,0,0,1-3.85-2.15,5,5,0,0,1,6-7.26,5.11,5.11,0,0,1,2.89,3.45,5.86,5.86,0,0,1,0,2h.15a5.35,5.35,0,0,1-.08-.89,4.89,4.89,0,0,1,9.77,0Z" transform="translate(0)"/><path class="cls-6" d="M675,365.64a6.1,6.1,0,0,1-6.09,6.1h-.11a6.59,6.59,0,0,1,.1,1.09,6.11,6.11,0,0,1-12.2.52,4.51,4.51,0,0,1,0-.52,5.67,5.67,0,0,1,.1-1.09h-.1a6.1,6.1,0,1,1,6.1-6.1,5.77,5.77,0,0,1-.1,1.1h.2a5.77,5.77,0,0,1-.1-1.1,6.11,6.11,0,0,1,12.2,0Z" transform="translate(0)"/><path class="cls-1" d="M291.77,336.24v-46c0-8.35,10-8.35,10,0v50" transform="translate(0)"/><path class="cls-1" d="M305.77,340.24v-50c0-8.35,10-8.35,10,0v50" transform="translate(0)"/><path class="cls-1" d="M320.77,340.24v-50c0-8.35,10-8.35,10,0v50" transform="translate(0)"/><path class="cls-1" d="M334.77,340.24V290.19c0-8.36,10-8.36,10,0v50.05" transform="translate(0)"/><path class="cls-1" d="M349.77,340.24V290.19c0-8.36,10-8.36,10,0v50.05" transform="translate(0)"/><path class="cls-1" d="M363.77,340.24V290.19c0-8.36,10-8.36,10,0v50.05" transform="translate(0)"/><path class="cls-1" d="M378.77,340.24V290.19c0-8.36,10-8.36,10,0v46.05" transform="translate(0)"/><path class="cls-1" d="M305.79,277.74a1.93,1.93,0,0,1,0,.48,2.09,2.09,0,0,1-1.44,1.7,2.17,2.17,0,0,1-2.85-1.9v-.28a2.16,2.16,0,0,1,1.06-4,2.1,2.1,0,0,1,1.07.29,2.14,2.14,0,0,1,2.14,3.71Z" transform="translate(0)"/><path class="cls-1" d="M320.34,277.74a1.93,1.93,0,0,1,0,.48,2.09,2.09,0,0,1-1.44,1.7A2.17,2.17,0,0,1,316,278v-.28a2.16,2.16,0,0,1,1.06-4,2.1,2.1,0,0,1,1.07.29,2.14,2.14,0,0,1,2.14,3.71Z" transform="translate(0)"/><path class="cls-1" d="M309.37,268.74v-.2a1.58,1.58,0,0,1,3.15,0,.67.67,0,0,1,0,.2,1.58,1.58,0,0,1,.74,2.11,1.59,1.59,0,0,1-1.51.89,1.7,1.7,0,0,1-.79-.21,1.66,1.66,0,0,1-.79.21,1.58,1.58,0,0,1-.77-3Z" transform="translate(0)"/><path class="cls-1" d="M294.82,268.74v-.2a1.57,1.57,0,1,1,3.14,0,.67.67,0,0,1,0,.2,1.58,1.58,0,0,1,.74,2.11,1.59,1.59,0,0,1-1.51.89,1.7,1.7,0,0,1-.79-.21,1.66,1.66,0,0,1-.79.21,1.58,1.58,0,0,1-.77-3Z" transform="translate(0)"/><path class="cls-1" d="M323.92,268.4v-.2a1.58,1.58,0,0,1,3.15,0,.67.67,0,0,1,0,.2,1.58,1.58,0,0,1-.77,3h0a1.58,1.58,0,0,1-.79-.21,1.66,1.66,0,0,1-.79.21,1.58,1.58,0,0,1-.77-3Z" transform="translate(0)"/><path class="cls-1" d="M338.47,268.4v-.2a1.58,1.58,0,0,1,3.15,0,.67.67,0,0,1,0,.2,1.58,1.58,0,0,1-.77,3h0a1.58,1.58,0,0,1-.79-.21,1.66,1.66,0,0,1-.79.21,1.58,1.58,0,0,1-.77-3Z" transform="translate(0)"/><path class="cls-1" d="M353,268.79v-.2a1.58,1.58,0,0,1,3.15,0,.67.67,0,0,1,0,.2,1.58,1.58,0,0,1-.77,2.95h0a1.57,1.57,0,0,0-1.57,0,1.58,1.58,0,0,1-.77-3Z" transform="translate(0)"/><path class="cls-1" d="M367.53,268.76v-.2a1.58,1.58,0,0,1,3.15,0,.67.67,0,0,1,0,.2,1.59,1.59,0,0,1,.85,1.41,1.57,1.57,0,0,1-1.57,1.57h0a1.57,1.57,0,0,0-1.57,0,1.58,1.58,0,0,1-.77-3Z" transform="translate(0)"/><path class="cls-1" d="M382.86,268.4a.67.67,0,0,1,0-.2,1.58,1.58,0,0,1,3.15,0,.67.67,0,0,1,0,.2,1.58,1.58,0,1,1-1.37,2.84l-.19-.1a1.6,1.6,0,1,1-1.55-2.79Z" transform="translate(0)"/><path class="cls-1" d="M334.89,277.74a1.93,1.93,0,0,1,0,.48,2.09,2.09,0,0,1-1.44,1.7,2.17,2.17,0,0,1-2.85-1.9,1.31,1.31,0,0,1,0-.28,2.16,2.16,0,0,1,1.06-4,2.1,2.1,0,0,1,1.07.29,2.14,2.14,0,0,1,2.14,3.71Z" transform="translate(0)"/><path class="cls-1" d="M349.44,278a1.31,1.31,0,0,1,0,.28,2.16,2.16,0,0,1-4.31,0,1.31,1.31,0,0,1,0-.28,2.16,2.16,0,0,1,1.91-3.88l.22.13a2.14,2.14,0,0,1,2.14,3.71Z" transform="translate(0)"/><path class="cls-1" d="M364,278a1.31,1.31,0,0,1,0,.28,2.16,2.16,0,0,1-4.31,0,1.31,1.31,0,0,1,0-.28,2.16,2.16,0,0,1,1.91-3.88l.22.13a2.14,2.14,0,0,1,2.14,3.71Z" transform="translate(0)"/><path class="cls-1" d="M378.53,278a1.31,1.31,0,0,1,0,.28,2.16,2.16,0,0,1-4.31,0,1.31,1.31,0,0,1,0-.28,2.16,2.16,0,0,1,1.91-3.88l.22.13a2.14,2.14,0,0,1,2.14,3.71Z" transform="translate(0)"/><line class="cls-1" x1="289.27" y1="341.74" x2="391.27" y2="341.74"/><line class="cls-1" x1="392.27" y1="343.74" x2="288.27" y2="343.74"/><path class="cls-1" d="M426.77,342.24v-45c0-10,12-10,12,0v45" transform="translate(0)"/><path class="cls-1" d="M443.77,342.24v-45c0-10,12-10,12,0v45" transform="translate(0)"/><path class="cls-1" d="M459.77,342.24v-45c0-10,12-10,12,0v45" transform="translate(0)"/><path class="cls-1" d="M475.77,342.24v-45c0-10,12-10,12,0v45" transform="translate(0)"/><path class="cls-1" d="M492.77,342.24v-45c0-10,12-10,12,0v45" transform="translate(0)"/><path class="cls-1" d="M508.77,342.24v-45c0-10,12-10,12,0v45" transform="translate(0)"/><path class="cls-1" d="M525.77,342.24v-45c0-10,12-10,12,0v45" transform="translate(0)"/><path class="cls-1" d="M444.44,283.81a2.67,2.67,0,0,1,0,.4,3.17,3.17,0,0,1-6.34,0,2.67,2.67,0,0,1,0-.4,3.18,3.18,0,0,1,2.84-5.69,2.14,2.14,0,0,1,.3.17,3.31,3.31,0,0,1,1.59-.42A3.17,3.17,0,0,1,446,281h0A3.19,3.19,0,0,1,444.44,283.81Z" transform="translate(0)"/><path class="cls-1" d="M430.9,270.81l0-.06a2.32,2.32,0,1,1,4.6-.54,1.6,1.6,0,0,1,0,.31,1.41,1.41,0,0,1,0,.29,2.32,2.32,0,0,1-1.13,4.34,7.76,7.76,0,0,0-3.62-.37,2.26,2.26,0,0,1-1-1.94h0A2.37,2.37,0,0,1,430.9,270.81Z" transform="translate(0)"/><path class="cls-1" d="M447.2,270.81v-.29a2.32,2.32,0,0,1,4.63-.31,1.6,1.6,0,0,1,0,.31,1.41,1.41,0,0,1,0,.29,2.32,2.32,0,0,1-1.82,4.26,2.68,2.68,0,0,1-.47-.26,2.45,2.45,0,0,1-1.16.31,2.32,2.32,0,0,1-1.14-4.34Z" transform="translate(0)"/><path class="cls-1" d="M463.9,270.81l0-.06a2.32,2.32,0,1,1,4.6-.54,1.6,1.6,0,0,1,0,.31,1.41,1.41,0,0,1,0,.29,2.32,2.32,0,0,1-1.13,4.34,7.76,7.76,0,0,0-3.62-.37,2.26,2.26,0,0,1-1-1.94h0A2.37,2.37,0,0,1,463.9,270.81Z" transform="translate(0)"/><path class="cls-1" d="M480,270.74a1.4,1.4,0,0,1,0-.29,2.32,2.32,0,0,1,4.63-.31,1.61,1.61,0,0,1,0,.31,1.4,1.4,0,0,1,0,.29,2.32,2.32,0,0,1-1.13,4.34,2.4,2.4,0,0,1-1.16-.31,2.45,2.45,0,0,1-1.16.31,2.32,2.32,0,0,1-1.13-4.34Z" transform="translate(0)"/><path class="cls-1" d="M496.36,270.74v-.29a2.32,2.32,0,0,1,4.63-.31,1.61,1.61,0,0,1,0,.31,1.4,1.4,0,0,1,0,.29,2.32,2.32,0,0,1-1.14,4.34,2.51,2.51,0,0,1-1.16-.31,2.41,2.41,0,0,1-1.15.31,2.32,2.32,0,0,1-1.14-4.34Z" transform="translate(0)"/><path class="cls-1" d="M512.75,270.81a1.41,1.41,0,0,1,0-.29,2.32,2.32,0,0,1,4.63-.31,1.6,1.6,0,0,1,0,.31,1.41,1.41,0,0,1,0,.29,2.32,2.32,0,0,1-1.13,4.34,2.4,2.4,0,0,1-1.16-.31,2.34,2.34,0,0,1-1.16.31,2.31,2.31,0,0,1-2.4-2.22v-.12A2.35,2.35,0,0,1,512.75,270.81Z" transform="translate(0)"/><path class="cls-1" d="M529.14,270.74a1.4,1.4,0,0,1,0-.29,2.32,2.32,0,0,1,4.63-.31,1.61,1.61,0,0,1,0,.31,1.4,1.4,0,0,1,0,.29,2.32,2.32,0,0,1-1.13,4.34,2.4,2.4,0,0,1-1.16-.31,2.45,2.45,0,0,1-1.16.31,2.32,2.32,0,0,1-1.13-4.34Z" transform="translate(0)"/><line class="cls-1" x1="421.27" y1="341.74" x2="543.27" y2="341.74"/><line class="cls-1" x1="544.27" y1="343.74" x2="420.27" y2="343.74"/><path class="cls-1" d="M575.77,336.24V290.19c0-8.36,10-8.36,10,0v50.05" transform="translate(0)"/><path class="cls-1" d="M590.77,340.24V290.19c0-8.36,10-8.36,10,0v50.05" transform="translate(0)"/><path class="cls-1" d="M604.77,340.24V290.19c0-8.36,10-8.36,10,0v50.05" transform="translate(0)"/><path class="cls-1" d="M619.77,340.24V290.19c0-8.36,10-8.36,10,0v50.05" transform="translate(0)"/><path class="cls-1" d="M634.77,340.24V290.19c0-8.36,10-8.36,10,0v50.05" transform="translate(0)"/><path class="cls-1" d="M648.77,340.24V290.19c0-8.36,10-8.36,10,0v50.05" transform="translate(0)"/><path class="cls-1" d="M663.77,340.24V290.19c0-8.36,10-8.36,10,0v46.05" transform="translate(0)"/><path class="cls-1" d="M590.53,278a1.31,1.31,0,0,1,0,.28,2.16,2.16,0,0,1-4.31,0,1.31,1.31,0,0,1,0-.28,2.16,2.16,0,0,1,1.91-3.88l.22.13a2.14,2.14,0,0,1,2.14,3.71Z" transform="translate(0)"/><path class="cls-1" d="M605.1,277.74a1.93,1.93,0,0,1,0,.48,2.09,2.09,0,0,1-1.43,1.7,2.17,2.17,0,0,1-2.86-1.9,1.31,1.31,0,0,1,0-.28,2.17,2.17,0,0,1-.71-3,272.58,272.58,0,0,0,3.92-1,2.16,2.16,0,0,1,1.06,4Z" transform="translate(0)"/><path class="cls-1" d="M594.13,268.4v-.2a1.58,1.58,0,0,1,3.15,0,.67.67,0,0,1,0,.2,1.58,1.58,0,0,1-.76,3,1.59,1.59,0,0,1-.8-.21,1.66,1.66,0,0,1-.79.21,1.57,1.57,0,0,1-.77-3Z" transform="translate(0)"/><path class="cls-1" d="M579.58,268.76v-.2a1.58,1.58,0,0,1,3.15,0,.67.67,0,0,1,0,.2,1.6,1.6,0,0,1-.77,3h0a1.57,1.57,0,0,0-1.57,0,1.58,1.58,0,0,1-.77-3Z" transform="translate(0)"/><path class="cls-1" d="M608.68,268.74v-.2a1.58,1.58,0,0,1,3.15,0,.67.67,0,0,1,0,.2,1.56,1.56,0,0,1,.8,2.07,1.58,1.58,0,0,1-1.57.93,1.66,1.66,0,0,1-.78-.21,1.79,1.79,0,0,1-.79.21,1.57,1.57,0,0,1-.77-3Z" transform="translate(0)"/><path class="cls-1" d="M623.23,268.74v-.2a1.58,1.58,0,0,1,3.15,0,.67.67,0,0,1,0,.2,1.56,1.56,0,0,1,.8,2.07,1.58,1.58,0,0,1-1.57.93,1.66,1.66,0,0,1-.78-.21,1.79,1.79,0,0,1-.79.21,1.57,1.57,0,0,1-.77-3Z" transform="translate(0)"/><path class="cls-1" d="M637.78,268.74v-.2a1.58,1.58,0,0,1,3.15,0,.67.67,0,0,1,0,.2,1.56,1.56,0,0,1,.8,2.07,1.58,1.58,0,0,1-1.57.93,1.82,1.82,0,0,1-.79-.21,1.71,1.71,0,0,1-.78.21,1.57,1.57,0,0,1-.77-3Z" transform="translate(0)"/><path class="cls-1" d="M652.33,268.74v-.2a1.58,1.58,0,0,1,3.15,0,.67.67,0,0,1,0,.2,1.56,1.56,0,0,1,.8,2.07,1.58,1.58,0,0,1-1.57.93,1.82,1.82,0,0,1-.79-.21,1.71,1.71,0,0,1-.78.21,1.57,1.57,0,0,1-.77-3Z" transform="translate(0)"/><path class="cls-1" d="M667.61,268.74v-.2a1.58,1.58,0,0,1,3.15,0,.67.67,0,0,1,0,.2,1.58,1.58,0,0,1,.74,2.11,1.59,1.59,0,0,1-1.51.89,1.59,1.59,0,0,0-1.58,0,1.58,1.58,0,0,1-.77-3Z" transform="translate(0)"/><path class="cls-1" d="M619.64,277.74a1.31,1.31,0,0,1,0,.28,2.16,2.16,0,1,1-4.32,0,1.31,1.31,0,0,1,0-.28,3.2,3.2,0,1,1,4.21,0Z" transform="translate(0)"/><path class="cls-1" d="M634.19,277.74a1.31,1.31,0,0,1,0,.28,2.16,2.16,0,0,1-4.32,0,1.31,1.31,0,0,1,0-.28,2.17,2.17,0,0,1-.71-3,272.58,272.58,0,0,0,3.92-1,2.16,2.16,0,0,1,1,4Z" transform="translate(0)"/><path class="cls-1" d="M648.74,277.74a1.31,1.31,0,0,1,0,.28,2.16,2.16,0,1,1-4.32,0,1.31,1.31,0,0,1,0-.28,2.17,2.17,0,0,1-.71-3,272.58,272.58,0,0,0,3.92-1,2.16,2.16,0,0,1,1,4Z" transform="translate(0)"/><path class="cls-1" d="M663.29,277.74a1.31,1.31,0,0,1,0,.28,2.16,2.16,0,0,1-4.31,0,1.31,1.31,0,0,1,0-.28,2.17,2.17,0,0,1-.71-3,272.58,272.58,0,0,0,3.92-1,2.16,2.16,0,0,1,1,4Z" transform="translate(0)"/><line class="cls-1" x1="574.27" y1="341.74" x2="675.27" y2="341.74"/><line class="cls-1" x1="676.27" y1="343.74" x2="573.27" y2="343.74"/><path class="cls-1" d="M461.52,283.61l-.3.6a3.17,3.17,0,0,1-6.34,0l-.31-.58a3.18,3.18,0,0,1,3.15-5.51,2.14,2.14,0,0,1,.3.17,3.33,3.33,0,0,1,3.34.06,3.09,3.09,0,0,1,1.41,2.68h0A3.21,3.21,0,0,1,461.52,283.61Z" transform="translate(0)"/><path class="cls-1" d="M477.2,283.83a2.67,2.67,0,0,1,0,.4,3.22,3.22,0,0,1-6.43,0h0a2.67,2.67,0,0,1,0-.4,3.22,3.22,0,0,1,2.88-5.77,3.07,3.07,0,0,1,.31.17,3.33,3.33,0,0,1,1.61-.42,3.2,3.2,0,0,1,3.2,3.2h0A3.23,3.23,0,0,1,477.2,283.83Z" transform="translate(0)"/><path class="cls-1" d="M493.52,283.61l-.3.6a3.17,3.17,0,0,1-6.34,0l-.31-.58a3.18,3.18,0,0,1,3.15-5.51,2.14,2.14,0,0,1,.3.17,3.28,3.28,0,0,1,3.59.25,3.06,3.06,0,0,1,1.16,2.48v0A3.21,3.21,0,0,1,493.52,283.61Z" transform="translate(0)"/><path class="cls-1" d="M510.52,283.61l-.3.6a3.17,3.17,0,0,1-6.34,0l-.3-.6a3.17,3.17,0,0,1,3.44-5.32,3.28,3.28,0,0,1,3.59.25,3.06,3.06,0,0,1,1.16,2.48v0A3.21,3.21,0,0,1,510.52,283.61Z" transform="translate(0)"/><path class="cls-1" d="M526.52,283.61l-.3.6a3.17,3.17,0,0,1-6.34,0l-.3-.6a3.16,3.16,0,0,1-.93-4.11,3.19,3.19,0,0,1,2.78-1.63,3.15,3.15,0,0,1,1.59.42,3.28,3.28,0,0,1,3.59.25,3.06,3.06,0,0,1,1.16,2.48v0A3.21,3.21,0,0,1,526.52,283.61Z" transform="translate(0)"/><path class="cls-1" d="M429.77,341.24V299.81c0-8.77,7-8.77,7,0v41.43" transform="translate(0)"/><path class="cls-1" d="M445.77,341.24V299.83c0-8.75,7-8.75,7,0v41.41" transform="translate(0)"/><path class="cls-1" d="M462.77,341.24V299.81c0-8.77,7-8.77,7,0v41.43" transform="translate(0)"/><path class="cls-1" d="M478.77,341.24V299.81c0-8.77,7-8.77,7,0v41.43" transform="translate(0)"/><path class="cls-1" d="M494.77,341.24V300c0-8.69,7-8.69,7,0v41.29" transform="translate(0)"/><path class="cls-1" d="M511.77,341.24V299.81c0-8.77,7-8.77,7,0l.13,41.43" transform="translate(0)"/><path class="cls-1" d="M527.77,341.24V299.81c0-8.77,7-8.77,7,0v41.43" transform="translate(0)"/><path class="cls-1" d="M545.77,660.74h-127V590a72.84,72.84,0,0,1,18.48-48.49c38.54-43.15,49.29-43,89.09-.17a72.7,72.7,0,0,1,19.43,49.58Z" transform="translate(0)"/><path class="cls-1" d="M539.77,660.74h-115v-67a70.88,70.88,0,0,1,16.74-46c34.89-40.9,44.62-40.73,80.66-.17a70.7,70.7,0,0,1,17.6,47Z" transform="translate(0)"/><path class="cls-1" d="M531.74,660.74h-99V597.53A70.81,70.81,0,0,1,447.2,554.2c30-38.58,38.41-38.42,69.42-.16,9.76,12,15.15,27.86,15.15,44.28Z" transform="translate(0)"/><path class="cls-1" d="M525.77,660.74h-87V601.59c0-15,4.51-29.41,12.67-40.56,26.39-36.11,33.75-36,61-.15,8.57,11.25,13.31,26.07,13.31,41.44Z" transform="translate(0)"/><path class="cls-1" d="M518.77,660.74h-73v-55.1c0-13.94,3.78-27.39,10.62-37.79,22.16-33.63,28.33-33.49,51.2-.13,7.2,10.48,11.18,24.28,11.18,38.6Z" transform="translate(0)"/><path class="cls-1" d="M475.1,601.74H460.47a2.68,2.68,0,0,1-2.7,2.65h0v56.35h20V604.39A2.68,2.68,0,0,1,475.1,601.74Z" transform="translate(0)"/><path class="cls-1" d="M505.1,601.74H490.47a2.68,2.68,0,0,1-2.7,2.65h0v56.35h20V604.39A2.68,2.68,0,0,1,505.1,601.74Z" transform="translate(0)"/><path class="cls-1" d="M389.77,660.74h-88V611.6a50.69,50.69,0,0,1,12.8-33.66c26.69-30,34.13-29.87,61.7-.12a50.64,50.64,0,0,1,13.5,34.39Z" transform="translate(0)"/><path class="cls-1" d="M385.72,660.74h-80V614.17a49.18,49.18,0,0,1,11.65-31.94c24.27-28.43,31.05-28.31,56.11-.12a49.09,49.09,0,0,1,12.24,32.63Z" transform="translate(0)"/><path class="cls-1" d="M379.77,660.74h-69V616.82a49,49,0,0,1,10-30.12c21-26.81,26.8-26.7,48.44-.11a48.86,48.86,0,0,1,10.56,30.77Z" transform="translate(0)"/><path class="cls-1" d="M375.77,660.74h-61V619.63a47.74,47.74,0,0,1,8.88-28.19c18.51-25.09,23.67-25,42.78-.1a47.51,47.51,0,0,1,9.34,28.8Z" transform="translate(0)"/><path class="cls-1" d="M370.77,660.74h-51V622.45a48.13,48.13,0,0,1,7.42-26.26c15.47-23.37,19.8-23.28,35.77-.1,5,7.29,7.81,16.88,7.81,26.83Z" transform="translate(0)"/><path class="cls-1" d="M339.06,619.74h-8.31s-1.17,2.49-2.64,3h-.34v38h14V622.39A2.68,2.68,0,0,1,339.06,619.74Z" transform="translate(0)"/><path class="cls-1" d="M360.06,619.74H351.6s-1.17,2.49-2.64,3h-.19v38h14V622.39A2.68,2.68,0,0,1,360.06,619.74Z" transform="translate(0)"/><path class="cls-1" d="M663.77,660.74h-88V611.6a50.7,50.7,0,0,1,12.81-33.66c26.71-30,34.15-29.87,61.72-.12a50.59,50.59,0,0,1,13.47,34.43Z" transform="translate(0)"/><path class="cls-1" d="M659.77,660.74h-80V614.17a49.25,49.25,0,0,1,11.64-31.94c24.27-28.43,31.05-28.31,56.12-.12a49.14,49.14,0,0,1,12.24,32.63Z" transform="translate(0)"/><path class="cls-1" d="M654.77,660.74h-69V616.82a49.14,49.14,0,0,1,10-30.12c21-26.81,26.8-26.7,48.44-.11a48.86,48.86,0,0,1,10.56,30.77Z" transform="translate(0)"/><path class="cls-1" d="M650.79,660.74h-61V619.63a47.81,47.81,0,0,1,8.86-28.19c18.52-25.09,23.69-25,42.81-.1a47.5,47.5,0,0,1,9.33,28.8Z" transform="translate(0)"/><path class="cls-1" d="M645.77,660.74h-51V622.45a48.06,48.06,0,0,1,7.43-26.26c15.47-23.37,19.79-23.28,35.77-.1,5,7.29,7.8,16.88,7.8,26.83Z" transform="translate(0)"/><path class="cls-1" d="M613.77,619.74h-8.35a2.65,2.65,0,0,1-2.65,2.65v38.35h14v-38.5a2.75,2.75,0,0,1-3-2.65Z" transform="translate(0)"/><path class="cls-1" d="M635.06,619.74h-8.57a2.69,2.69,0,0,1-2.72,2.65v38.35h14V622.39A2.68,2.68,0,0,1,635.06,619.74Z" transform="translate(0)"/></g><polyline class="cls-7" points="958.82 636.74 958.82 660.74 934.82 660.74"/><line class="cls-8" x1="873.78" y1="660.74" x2="782.24" y2="660.74"/><polyline class="cls-7" points="751.72 660.74 727.72 660.74 727.72 636.74"/><line class="cls-9" x1="727.72" y1="587.99" x2="727.72" y2="417.37"/><polyline class="cls-7" points="727.72 392.99 727.72 368.99 715.65 389.74"/><line class="cls-10" x1="694.85" y1="425.49" x2="580.43" y2="622.12"/><polyline class="cls-7" points="570.03 639.99 557.96 660.74 533.96 660.74"/><line class="cls-11" x1="499.59" y1="660.74" x2="448.04" y2="660.74"/><polyline class="cls-7" points="430.86 660.74 406.86 660.74 394.79 639.99"/><line class="cls-10" x1="373.98" y1="604.24" x2="259.57" y2="407.61"/><polyline class="cls-7" points="249.16 389.74 237.09 368.99 237.09 392.99"/><line class="cls-9" x1="237.09" y1="441.74" x2="237.09" y2="612.36"/><polyline class="cls-7" points="237.09 636.74 237.09 660.74 213.09 660.74"/><line class="cls-8" x1="152.06" y1="660.74" x2="60.52" y2="660.74"/><polyline class="cls-7" points="30 660.74 6 660.74 6 636.74"/><line class="cls-12" x1="6" y1="585.35" x2="6" y2="97.16"/><polyline class="cls-7" points="6 71.47 6 47.47 30 47.47"/><line class="cls-13" x1="77.28" y1="47.46" x2="242.78" y2="47.46"/><polyline class="cls-7" points="266.42 47.47 290.42 47.47 301.95 68.51"/><line class="cls-14" x1="326.09" y1="112.56" x2="458.81" y2="354.83"/><polyline class="cls-7" points="470.88 376.86 482.41 397.91 493.94 376.86"/><line class="cls-15" x1="518.07" y1="332.81" x2="650.8" y2="90.54"/><polyline class="cls-7" points="662.86 68.51 674.39 47.47 698.39 47.47"/><line class="cls-13" x1="745.68" y1="47.46" x2="911.17" y2="47.46"/><polyline class="cls-7" points="934.82 47.47 958.82 47.47 958.82 71.47"/><line class="cls-12" x1="958.82" y1="122.85" x2="958.82" y2="611.04"/></g></g></svg>