<svg xmlns="http://www.w3.org/2000/svg" viewBox="0 0 1466.9 989.8"><defs><style>.cls-1{opacity:0.6;}.cls-10,.cls-11,.cls-2,.cls-3,.cls-4,.cls-5,.cls-7,.cls-8,.cls-9{fill:none;stroke-miterlimit:10;}.cls-2,.cls-4{stroke:#1d1d1b;}.cls-10,.cls-11,.cls-3,.cls-8,.cls-9{stroke:#818187;}.cls-4,.cls-5{stroke-width:1.51px;}.cls-5,.cls-7{stroke:#000;}.cls-6{fill:#fff;}.cls-7{stroke-width:2px;}.cls-8,.cls-9{stroke-width:0.75px;}.cls-11,.cls-9{stroke-dasharray:11.95 11.95;}.cls-10,.cls-11{stroke-width:0.5px;}</style></defs><title>monument_H2</title><g id="Calque_2" data-name="Calque 2"><g id="Calque_1-2" data-name="Calque 1"><g id="regle_10cm" data-name="regle 10cm" class="cls-1"><polyline class="cls-2" points="164.1 721.7 164.1 778.3 172.6 778.3 181 778.3 189.5 778.3 198 778.3 206.5 778.3 215 778.3 223.5 778.3 232 778.3 240.5 778.3 249 778.3"/><line class="cls-2" x1="172.6" y1="778.3" x2="172.6" y2="757"/><line class="cls-2" x1="181" y1="778.3" x2="181" y2="757"/><line class="cls-2" x1="189.5" y1="778.3" x2="189.5" y2="757"/><line class="cls-2" x1="198" y1="778.3" x2="198" y2="757"/><line class="cls-2" x1="215" y1="778.3" x2="215" y2="757"/><line class="cls-2" x1="223.5" y1="778.3" x2="223.5" y2="757"/><line class="cls-2" x1="232" y1="778.3" x2="232" y2="757"/><line class="cls-2" x1="240.5" y1="778.3" x2="240.5" y2="757"/><line class="cls-2" x1="206.5" y1="778.3" x2="206.5" y2="735.8"/><polyline class="cls-2" points="249 721.7 249 778.3 257.4 778.3 265.9 778.3 274.4 778.3 282.9 778.3 291.4 778.3 299.9 778.3 308.4 778.3 316.9 778.3 325.4 778.3 333.8 778.3"/><line class="cls-2" x1="257.4" y1="778.3" x2="257.4" y2="757"/><line class="cls-2" x1="265.9" y1="778.3" x2="265.9" y2="757"/><line class="cls-2" x1="274.4" y1="778.3" x2="274.4" y2="757"/><line class="cls-2" x1="282.9" y1="778.3" x2="282.9" y2="757"/><line class="cls-2" x1="299.9" y1="778.3" x2="299.9" y2="757"/><line class="cls-2" x1="308.4" y1="778.3" x2="308.4" y2="757"/><line class="cls-2" x1="316.9" y1="778.3" x2="316.9" y2="757"/><line class="cls-2" x1="325.4" y1="778.3" x2="325.4" y2="757"/><line class="cls-2" x1="291.4" y1="778.3" x2="291.4" y2="735.8"/><polyline class="cls-2" points="333.8 721.7 333.8 778.3 342.3 778.3 350.8 778.3 359.3 778.3 367.8 778.3 376.3 778.3 384.8 778.3 393.3 778.3 401.7 778.3 410.2 778.3 418.7 778.3"/><line class="cls-2" x1="342.3" y1="778.3" x2="342.3" y2="757"/><line class="cls-2" x1="350.8" y1="778.3" x2="350.8" y2="757"/><line class="cls-2" x1="359.3" y1="778.3" x2="359.3" y2="757"/><line class="cls-2" x1="367.8" y1="778.3" x2="367.8" y2="757"/><line class="cls-2" x1="384.8" y1="778.3" x2="384.8" y2="757"/><line class="cls-2" x1="393.3" y1="778.3" x2="393.3" y2="757"/><line class="cls-2" x1="401.7" y1="778.3" x2="401.7" y2="757"/><line class="cls-2" x1="410.2" y1="778.3" x2="410.2" y2="757"/><line class="cls-2" x1="376.3" y1="778.3" x2="376.3" y2="735.8"/><polyline class="cls-2" points="418.7 721.7 418.7 778.3 427.2 778.3 435.7 778.3 444.2 778.3 452.7 778.3 461.1 778.3 469.6 778.3 478.1 778.3 486.6 778.3 495.1 778.3 503.6 778.3"/><line class="cls-2" x1="427.2" y1="778.3" x2="427.2" y2="757"/><line class="cls-2" x1="435.7" y1="778.3" x2="435.7" y2="757"/><line class="cls-2" x1="444.2" y1="778.3" x2="444.2" y2="757"/><line class="cls-2" x1="452.7" y1="778.3" x2="452.7" y2="757"/><line class="cls-2" x1="469.6" y1="778.3" x2="469.7" y2="757"/><line class="cls-2" x1="478.1" y1="778.3" x2="478.1" y2="757"/><line class="cls-2" x1="486.6" y1="778.3" x2="486.6" y2="757"/><line class="cls-2" x1="495.1" y1="778.3" x2="495.1" y2="757"/><line class="cls-2" x1="461.1" y1="778.3" x2="461.1" y2="735.8"/><polyline class="cls-2" points="503.6 721.7 503.6 778.3 512.1 778.3 520.6 778.3 529.1 778.3 537.5 778.3 546 778.3 554.5 778.3 563 778.3 571.5 778.3 580 778.3 588.5 778.3"/><line class="cls-2" x1="512.1" y1="778.3" x2="512.1" y2="757"/><line class="cls-2" x1="520.6" y1="778.3" x2="520.6" y2="757"/><line class="cls-2" x1="529.1" y1="778.3" x2="529.1" y2="757"/><line class="cls-2" x1="537.5" y1="778.3" x2="537.5" y2="757"/><line class="cls-2" x1="554.5" y1="778.3" x2="554.5" y2="757"/><line class="cls-2" x1="563" y1="778.3" x2="563" y2="757"/><line class="cls-2" x1="571.5" y1="778.3" x2="571.5" y2="757"/><line class="cls-2" x1="580" y1="778.3" x2="580" y2="757"/><line class="cls-2" x1="546" y1="778.3" x2="546" y2="735.8"/><polyline class="cls-2" points="588.5 721.7 588.5 778.3 596.9 778.3 605.4 778.3 613.9 778.3 622.4 778.3 630.9 778.3 639.4 778.3 647.9 778.3 656.4 778.3 664.9 778.3 673.4 778.3"/><line class="cls-2" x1="596.9" y1="778.3" x2="597" y2="757"/><line class="cls-2" x1="605.4" y1="778.3" x2="605.4" y2="757"/><line class="cls-2" x1="613.9" y1="778.3" x2="613.9" y2="757"/><line class="cls-2" x1="622.4" y1="778.3" x2="622.4" y2="757"/><line class="cls-2" x1="639.4" y1="778.3" x2="639.4" y2="757"/><line class="cls-2" x1="647.9" y1="778.3" x2="647.9" y2="757"/><line class="cls-2" x1="656.4" y1="778.3" x2="656.4" y2="757"/><line class="cls-2" x1="664.9" y1="778.3" x2="664.9" y2="757"/><line class="cls-2" x1="630.9" y1="778.3" x2="630.9" y2="735.8"/><polyline class="cls-2" points="673.4 721.7 673.4 778.3 681.8 778.3 690.3 778.3 698.8 778.3 707.3 778.3 715.8 778.3 724.3 778.3 732.8 778.3 741.3 778.3 749.7 778.3 758.2 778.3"/><line class="cls-2" x1="681.8" y1="778.3" x2="681.8" y2="757"/><line class="cls-2" x1="690.3" y1="778.3" x2="690.3" y2="757"/><line class="cls-2" x1="698.8" y1="778.3" x2="698.8" y2="757"/><line class="cls-2" x1="707.3" y1="778.3" x2="707.3" y2="757"/><line class="cls-2" x1="724.3" y1="778.3" x2="724.3" y2="757"/><line class="cls-2" x1="732.8" y1="778.3" x2="732.8" y2="757"/><line class="cls-2" x1="741.2" y1="778.3" x2="741.2" y2="757"/><line class="cls-2" x1="749.7" y1="778.3" x2="749.7" y2="757"/><line class="cls-2" x1="715.8" y1="778.3" x2="715.8" y2="735.8"/><polyline class="cls-2" points="758.2 721.7 758.2 778.3 766.7 778.3 775.2 778.3 783.7 778.3 792.2 778.3 800.7 778.3 809.1 778.3 817.6 778.3 826.1 778.3 834.6 778.3 843.1 778.3"/><line class="cls-2" x1="766.7" y1="778.3" x2="766.7" y2="757"/><line class="cls-2" x1="775.2" y1="778.3" x2="775.2" y2="757"/><line class="cls-2" x1="783.7" y1="778.3" x2="783.7" y2="757"/><line class="cls-2" x1="792.2" y1="778.3" x2="792.2" y2="757"/><line class="cls-2" x1="809.1" y1="778.3" x2="809.2" y2="757"/><line class="cls-2" x1="817.6" y1="778.3" x2="817.6" y2="757"/><line class="cls-2" x1="826.1" y1="778.3" x2="826.1" y2="757"/><line class="cls-2" x1="834.6" y1="778.3" x2="834.6" y2="757"/><line class="cls-2" x1="800.7" y1="778.3" x2="800.7" y2="735.8"/><polyline class="cls-2" points="843.1 721.7 843.1 778.3 851.6 778.3 860.1 778.3 868.6 778.3 877.1 778.3 885.5 778.3 894 778.3 902.5 778.3 911 778.3 919.5 778.3 928 778.3"/><line class="cls-2" x1="851.6" y1="778.3" x2="851.6" y2="757"/><line class="cls-2" x1="860.1" y1="778.3" x2="860.1" y2="757"/><line class="cls-2" x1="868.6" y1="778.3" x2="868.6" y2="757"/><line class="cls-2" x1="877.1" y1="778.3" x2="877.1" y2="757"/><line class="cls-2" x1="894" y1="778.3" x2="894" y2="757"/><line class="cls-2" x1="902.5" y1="778.3" x2="902.5" y2="757"/><line class="cls-2" x1="911" y1="778.3" x2="911" y2="757"/><line class="cls-2" x1="919.5" y1="778.3" x2="919.5" y2="757"/><line class="cls-2" x1="885.5" y1="778.3" x2="885.5" y2="735.8"/><polyline class="cls-2" points="928 721.7 928 778.3 936.5 778.3 945 778.3 953.4 778.3 961.9 778.3 970.4 778.3 978.9 778.3 987.4 778.3 995.9 778.3 1004.4 778.3 1012.9 778.3"/><line class="cls-2" x1="936.5" y1="778.3" x2="936.5" y2="757"/><line class="cls-2" x1="945" y1="778.3" x2="945" y2="757"/><line class="cls-2" x1="953.4" y1="778.3" x2="953.4" y2="757"/><line class="cls-2" x1="961.9" y1="778.3" x2="961.9" y2="757"/><line class="cls-2" x1="978.9" y1="778.3" x2="978.9" y2="757"/><line class="cls-2" x1="987.4" y1="778.3" x2="987.4" y2="757"/><line class="cls-2" x1="995.9" y1="778.3" x2="995.9" y2="757"/><line class="cls-2" x1="1004.4" y1="778.3" x2="1004.4" y2="757"/><line class="cls-2" x1="970.4" y1="778.3" x2="970.4" y2="735.8"/><polyline class="cls-2" points="1004.4 721.7 1004.4 778.3 1012.8 778.3 1021.3 778.3 1029.8 778.3 1038.3 778.3 1046.8 778.3 1055.3 778.3 1063.8 778.3 1072.3 778.3 1080.8 778.3 1089.3 778.3"/><line class="cls-2" x1="1012.8" y1="778.3" x2="1012.9" y2="757"/><line class="cls-2" x1="1021.3" y1="778.3" x2="1021.3" y2="757"/><line class="cls-2" x1="1029.8" y1="778.3" x2="1029.8" y2="757"/><line class="cls-2" x1="1038.3" y1="778.3" x2="1038.3" y2="757"/><line class="cls-2" x1="1055.3" y1="778.3" x2="1055.3" y2="757"/><line class="cls-2" x1="1063.8" y1="778.3" x2="1063.8" y2="757"/><line class="cls-2" x1="1072.3" y1="778.3" x2="1072.3" y2="757"/><line class="cls-2" x1="1080.8" y1="778.3" x2="1080.8" y2="757"/><line class="cls-2" x1="1046.8" y1="778.3" x2="1046.8" y2="735.8"/><polyline class="cls-2" points="1080.8 721.7 1080.8 778.3 1089.2 778.3 1097.7 778.3 1106.2 778.3 1114.7 778.3 1123.2 778.3 1131.7 778.3 1140.2 778.3 1148.7 778.3 1157.2 778.3 1165.7 778.3"/><line class="cls-2" x1="1089.2" y1="778.3" x2="1089.2" y2="757"/><line class="cls-2" x1="1097.7" y1="778.3" x2="1097.7" y2="757"/><line class="cls-2" x1="1106.2" y1="778.3" x2="1106.2" y2="757"/><line class="cls-2" x1="1114.7" y1="778.3" x2="1114.7" y2="757"/><line class="cls-2" x1="1131.7" y1="778.3" x2="1131.7" y2="757"/><line class="cls-2" x1="1140.2" y1="778.3" x2="1140.2" y2="757"/><line class="cls-2" x1="1148.7" y1="778.3" x2="1148.7" y2="757"/><line class="cls-2" x1="1157.2" y1="778.3" x2="1157.2" y2="757"/><line class="cls-2" x1="1123.2" y1="778.3" x2="1123.2" y2="735.8"/><polyline class="cls-2" points="1157.2 721.7 1157.2 778.3 1165.6 778.3 1174.1 778.3 1182.6 778.3 1191.1 778.3 1199.6 778.3 1208.1 778.3 1216.6 778.3 1225.1 778.3 1233.6 778.3 1242 778.3 1242 721.7"/><line class="cls-2" x1="1165.6" y1="778.3" x2="1165.6" y2="757"/><line class="cls-2" x1="1174.1" y1="778.3" x2="1174.1" y2="757"/><line class="cls-2" x1="1182.6" y1="778.3" x2="1182.6" y2="757"/><line class="cls-2" x1="1191.1" y1="778.3" x2="1191.1" y2="757"/><line class="cls-2" x1="1208.1" y1="778.3" x2="1208.1" y2="757"/><line class="cls-2" x1="1216.6" y1="778.3" x2="1216.6" y2="757"/><line class="cls-2" x1="1225.1" y1="778.3" x2="1225.1" y2="757"/><line class="cls-2" x1="1233.6" y1="778.3" x2="1233.6" y2="757"/><line class="cls-2" x1="1199.6" y1="778.3" x2="1199.6" y2="735.8"/></g><g id="regle_10cm_300_2" data-name="regle 10cm 300 2" class="cls-1"><polyline class="cls-3" points="1347 569.4 1403.6 569.4 1403.6 561 1403.6 552.5 1403.6 544 1403.6 535.5 1403.6 527 1403.6 518.5 1403.6 510 1403.6 501.6 1403.6 493.1 1403.6 484.6"/><line class="cls-3" x1="1403.6" y1="561" x2="1382.4" y2="561"/><line class="cls-3" x1="1403.6" y1="552.5" x2="1382.4" y2="552.5"/><line class="cls-3" x1="1403.6" y1="544" x2="1382.4" y2="544"/><line class="cls-3" x1="1403.6" y1="535.5" x2="1382.4" y2="535.5"/><line class="cls-3" x1="1403.6" y1="518.5" x2="1382.4" y2="518.5"/><line class="cls-3" x1="1403.6" y1="510" x2="1382.4" y2="510"/><line class="cls-3" x1="1403.6" y1="501.6" x2="1382.4" y2="501.6"/><line class="cls-3" x1="1403.6" y1="493.1" x2="1382.4" y2="493.1"/><line class="cls-3" x1="1403.6" y1="527" x2="1361.1" y2="527"/><polyline class="cls-3" points="1347 493.1 1403.6 493.1 1403.6 484.6 1403.6 476.1 1403.6 467.6 1403.6 459.1 1403.6 450.6 1403.6 442.1 1403.6 433.7 1403.6 425.2 1403.6 416.7 1403.6 408.2"/><line class="cls-3" x1="1403.6" y1="484.6" x2="1382.4" y2="484.6"/><line class="cls-3" x1="1403.6" y1="476.1" x2="1382.4" y2="476.1"/><line class="cls-3" x1="1403.6" y1="467.6" x2="1382.4" y2="467.6"/><line class="cls-3" x1="1403.6" y1="459.1" x2="1382.4" y2="459.1"/><line class="cls-3" x1="1403.6" y1="442.1" x2="1382.4" y2="442.1"/><line class="cls-3" x1="1403.6" y1="433.7" x2="1382.4" y2="433.7"/><line class="cls-3" x1="1403.6" y1="425.2" x2="1382.4" y2="425.2"/><line class="cls-3" x1="1403.6" y1="416.7" x2="1382.4" y2="416.7"/><line class="cls-3" x1="1403.6" y1="450.6" x2="1361.1" y2="450.6"/><polyline class="cls-3" points="1347 416.7 1403.6 416.7 1403.6 408.2 1403.6 399.7 1403.6 391.2 1403.6 382.7 1403.6 374.2 1403.6 365.8 1403.6 357.3 1403.6 348.8 1403.6 340.3 1403.6 331.8"/><line class="cls-3" x1="1403.6" y1="408.2" x2="1382.4" y2="408.2"/><line class="cls-3" x1="1403.6" y1="399.7" x2="1382.4" y2="399.7"/><line class="cls-3" x1="1403.6" y1="391.2" x2="1382.4" y2="391.2"/><line class="cls-3" x1="1403.6" y1="382.7" x2="1382.4" y2="382.7"/><line class="cls-3" x1="1403.6" y1="365.8" x2="1382.4" y2="365.8"/><line class="cls-3" x1="1403.6" y1="357.3" x2="1382.4" y2="357.3"/><line class="cls-3" x1="1403.6" y1="348.8" x2="1382.4" y2="348.8"/><line class="cls-3" x1="1403.6" y1="340.3" x2="1382.4" y2="340.3"/><line class="cls-3" x1="1403.6" y1="374.2" x2="1361.1" y2="374.2"/><polyline class="cls-3" points="1347 340.3 1403.6 340.3 1403.6 331.8 1403.6 323.3 1403.6 314.8 1403.6 306.3 1403.6 297.9 1403.6 289.4 1403.6 280.9 1403.6 272.4 1403.6 263.9 1403.6 255.4 1347 255.4"/><line class="cls-3" x1="1403.6" y1="331.8" x2="1382.4" y2="331.8"/><line class="cls-3" x1="1403.6" y1="323.3" x2="1382.4" y2="323.3"/><line class="cls-3" x1="1403.6" y1="314.8" x2="1382.4" y2="314.8"/><line class="cls-3" x1="1403.6" y1="306.3" x2="1382.4" y2="306.3"/><line class="cls-3" x1="1403.6" y1="289.4" x2="1382.4" y2="289.4"/><line class="cls-3" x1="1403.6" y1="280.9" x2="1382.4" y2="280.9"/><line class="cls-3" x1="1403.6" y1="272.4" x2="1382.4" y2="272.4"/><line class="cls-3" x1="1403.6" y1="263.9" x2="1382.4" y2="263.9"/><line class="cls-3" x1="1403.6" y1="297.9" x2="1361.1" y2="297.9"/></g><path d="M327.5,259.1v98.8H288.9V298.1l-25.2,59.8H227.9L202.5,298v59.9H163.9V259.1h60.4l21.6,52.8,21.4-52.8Z"/><path class="cls-4" d="M355.2,349.3c-8.4-7.2-12.7-17.2-12.7-30s4.2-22.7,12.7-29.8,20.8-10.8,37.1-10.8,28.7,3.6,37.1,10.8,12.7,17.1,12.7,29.8c0,8.4-1.9,15.7-5.6,21.8s-9.3,10.8-16.8,14.1-16.6,5-27.4,5C376,360.1,363.6,356.5,355.2,349.3Zm69-30c0-17.3-10.6-26-31.9-26-10.6,0-18.6,2.1-24,6.4s-8,10.8-8,19.6c0,17.5,10.7,26.2,32,26.2s32-8.8,31.9-26.2Z"/><path d="M553.1,318V259.1h38.6v98.8H534.4L495.5,299v58.9H456.9V259.1h57.3Z"/><path class="cls-4" d="M704.3,320.5c0,13.4-3.9,23.3-11.6,29.8s-19.9,9.7-36.4,9.7c-16.7,0-28.8-3.2-36.5-9.7s-11.5-16.4-11.5-29.8V281.1h14v39.2a36.54,36.54,0,0,0,2.3,13.5c1.5,3.9,4.8,7.2,9.8,9.8s12.3,4,21.9,4,16.9-1.3,21.9-4,8.3-6,9.9-9.9a36,36,0,0,0,2.3-13.4V281.1h13.8Z"/><path d="M884.7,259.1v98.8H846.1V298.1l-25.2,59.8H785L759.6,298v59.9H721V259.1h60.4l21.5,52.8,21.4-52.8Z"/><path class="cls-4" d="M982,281.2v12.2H915.2v20.1h64.6v12.1H915.2v20.2H982v12.1H901.2V281.2Z"/><path d="M1093.9,318V259.1h38.6v98.8h-57.3L1036.3,299v58.9H997.7V259.1H1055Z"/><path class="cls-5" d="M1241.9,281.2v12.4h-40v64.3H1188V293.6h-40V281.2Z"/><path d="M334.9,471.1v28.6H271.8v7.8h60.4v25.9H271.8v7.8h63.1v28.7H233.2V471.1Z"/><path class="cls-4" d="M372.3,569.9H351.7l43.1-38.3-43.1-38.4h20.6l32,28.7,32.1-28.7H457l-43.2,38.4L457,569.9H436.4l-32.1-28.7Z"/><path d="M590.2,471.1v32.3H550.5v66.5H511.9V503.4H472.1V471.1Z"/><path class="cls-4" d="M686.2,493.2v12.2H619.4v20.1H684v12.1H619.4v20.2h66.8v12.1H605.5V493.2Z"/><path d="M798.1,530V471.1h38.6v98.8H779.4L740.5,511v58.9H701.9V471.1h57.3Z"/><path class="cls-4" d="M927.1,497.4a32.52,32.52,0,0,1,13.6,12.9q5.1,8.55,5.1,21.3c0,8.5-1.7,15.5-5.1,21.2a33.15,33.15,0,0,1-13.6,12.9,41.55,41.55,0,0,1-19,4.2H853.2V493.2h54.9A41.55,41.55,0,0,1,927.1,497.4Zm-26,60c7,0,12.6-.7,16.8-2.2a17.45,17.45,0,0,0,9.7-7.8q3.3-5.55,3.3-15.9c0-6.9-1.1-12.2-3.3-16a17.12,17.12,0,0,0-9.7-7.8c-4.2-1.5-9.9-2.2-16.8-2.2H867.3v51.8Z"/><path d="M1063.1,471.1v28.6H1000v7.8h60.4v25.9H1000v7.8h63.1v28.7H961.4V471.1Z"/><path class="cls-4" d="M1153.9,497.4a32.52,32.52,0,0,1,13.6,12.9q5.1,8.55,5.1,21.3c0,8.5-1.7,15.5-5.1,21.2a33.15,33.15,0,0,1-13.6,12.9,41.55,41.55,0,0,1-19,4.2H1080V493.2h54.9A41.55,41.55,0,0,1,1153.9,497.4Zm-26.1,60c7,0,12.6-.7,16.9-2.2a17.45,17.45,0,0,0,9.7-7.8q3.3-5.55,3.3-15.9c0-6.9-1.1-12.2-3.3-16a17.12,17.12,0,0,0-9.7-7.8c-4.3-1.5-9.9-2.2-16.9-2.2H1094v51.8Z"/><path class="cls-6" d="M320.9,261.6v96.3h-21V280.3l-44.6,77.6H236.1l-44.7-77.6v77.6H170.5V261.6h32.9l42.3,72.3,42.2-72.3Z"/><path class="cls-6" d="M564.2,338.5V261.6h21v96.3H554.8L484.3,281v76.9H463.4V261.6h30.5Z"/><path class="cls-6" d="M878.1,261.6v96.3h-21V280.3l-44.6,77.6H793.3l-44.7-77.6v77.6H727.7V261.6h32.9l42.3,72.3,42.3-72.3Z"/><path class="cls-6" d="M1105,338.5V261.6h21v96.3h-30.4L1025.1,281v76.9h-20.9V261.6h30.4Z"/><path class="cls-6" d="M334.5,473.6v17.5h-80v22h77.3v17.5H254.5v22h80v17.3H233.6V473.6Z"/><path class="cls-6" d="M589.8,473.6v18.3H541.7v78h-21v-78H472.6V473.6Z"/><path class="cls-6" d="M809.2,550.5V473.6h21v96.3H799.8L729.3,493v76.9H708.4V473.6h30.4Z"/><path class="cls-6" d="M1062.7,473.6v17.5h-80v22H1060v17.5H982.7v22h80v17.3H961.8V473.6Z"/><polyline class="cls-7" points="1 155.1 1 14.8 141.1 14.8"/><polyline class="cls-7" points="140 988.8 1 988.8 1 848.5"/><polyline class="cls-7" points="1465.9 848.5 1465.9 988.8 1314.7 988.8"/><polyline class="cls-7" points="1314.7 14.8 1465.9 14.8 1465.9 155"/><path d="M1237.2,988.2l9.6-16.2h.9l-10,16.8h-1l-10-16.8h.9Z"/><path d="M1268.6,979.3a6.77,6.77,0,0,1-2.6,1.8,34.47,34.47,0,0,1-4.2,1.4c-1.6.5-3,.9-4,1.3a7.32,7.32,0,0,0-2.6,1.7,4.32,4.32,0,0,0-1.3,2.6h15.7v.7h-16.5v-.2a4.72,4.72,0,0,1,1.2-3.2,8,8,0,0,1,2.8-2,32.55,32.55,0,0,1,4.4-1.5c1.7-.5,3-1,3.9-1.3a7.76,7.76,0,0,0,2.4-1.6,3.65,3.65,0,0,0-.2-5.2c-.2-.1-.3-.3-.5-.4a8.94,8.94,0,0,0-4.8-1.1,10.5,10.5,0,0,0-5.7,1.4,4.55,4.55,0,0,0-2,4h-.8a5,5,0,0,1,2.2-4.5,10.81,10.81,0,0,1,6.3-1.6,10,10,0,0,1,5.4,1.2,4.37,4.37,0,0,1,1.9,3.6A3.2,3.2,0,0,1,1268.6,979.3Z"/><path d="M1275.2,988.9v-1.2h1.3v1.2Z"/><path d="M1283.1,988.2a7.71,7.71,0,0,1-3.1-3.1,9.57,9.57,0,0,1-1.1-4.7,9.2,9.2,0,0,1,1.1-4.6,7.71,7.71,0,0,1,3.1-3.1,10,10,0,0,1,9.2,0,7.71,7.71,0,0,1,3.1,3.1,9.2,9.2,0,0,1,1.1,4.6,9.84,9.84,0,0,1-1.1,4.7,7.71,7.71,0,0,1-3.1,3.1,10,10,0,0,1-9.2,0Zm8.8-.6a7.1,7.1,0,0,0,2.8-2.9,9.33,9.33,0,0,0,0-8.6,6.86,6.86,0,0,0-2.8-2.8,9.32,9.32,0,0,0-8.3,0,6.86,6.86,0,0,0-2.8,2.8,9.75,9.75,0,0,0,0,8.6,7.1,7.1,0,0,0,2.8,2.9,8.68,8.68,0,0,0,4.2,1,8.57,8.57,0,0,0,4.1-1Z"/><path d="M1449.8,813.6a4.52,4.52,0,0,1,2-2.3,5.87,5.87,0,0,1,6,0,5.5,5.5,0,0,1,2,2.3,8.42,8.42,0,0,1,.7,3.5v10.3h5.4v.8h-16.8v-11A8.57,8.57,0,0,1,1449.8,813.6Zm10,3.5a6.64,6.64,0,0,0-1.3-4.3,5.07,5.07,0,0,0-7.2-.2l-.2.2a6.64,6.64,0,0,0-1.3,4.3v10.3h10Z"/><path d="M1449.8,790.8a4.52,4.52,0,0,1,2-2.3,5.87,5.87,0,0,1,6,0,5.5,5.5,0,0,1,2,2.3,8.42,8.42,0,0,1,.7,3.5v10.3h5.4v.8h-16.8v-11A8.57,8.57,0,0,1,1449.8,790.8Zm10,3.5a6.64,6.64,0,0,0-1.3-4.3,5.07,5.07,0,0,0-7.2-.2l-.2.2a6.64,6.64,0,0,0-1.3,4.3v10.3h10Z"/><path d="M202.3,12.4a4.58,4.58,0,0,1-2.1,3.9c-1.4.9-3.6,1.4-6.7,1.4s-5.3-.5-6.7-1.4a4.58,4.58,0,0,1-2.1-3.9c0-2.4,1.6-4,4.9-4.6-2.3-.6-3.5-1.8-3.5-3.6a3.56,3.56,0,0,1,1.7-3.1c1.1-.8,3-1.1,5.7-1.1,4.9,0,7.4,1.4,7.4,4.2,0,1.8-1.2,3-3.5,3.6C200.7,8.4,202.3,10,202.3,12.4Zm-2.7,3.4a3.86,3.86,0,0,0,1.9-3.3,3.53,3.53,0,0,0-2-3.1,18,18,0,0,0-12.1,0,3.53,3.53,0,0,0-2,3.1,3.63,3.63,0,0,0,1.9,3.3c1.3.8,3.3,1.2,6.1,1.2s4.9-.4,6.2-1.2Zm-6.1-8.3q6.6,0,6.6-3.3a2.88,2.88,0,0,0-1.6-2.6,14.34,14.34,0,0,0-10,0,2.88,2.88,0,0,0-1.6,2.6Q186.9,7.5,193.5,7.5Z"/><path d="M232.8,16.4l7-15.9h.8l-7.4,16.8h-.9L224.1,1.2l-8.2,16.1H215L207.6.5h.8l7,15.9L223.5.5h1Z"/><path d="M243.3,17.2V16h1.3v1.2Z"/><path d="M265.1,9.9a3.61,3.61,0,0,1,1,2.8,4.06,4.06,0,0,1-2,3.7c-1.3.9-3.3,1.3-6,1.3a11,11,0,0,1-6.2-1.5,5,5,0,0,1-2.2-4.3h.8a4.25,4.25,0,0,0,2.2,3.9,11.74,11.74,0,0,0,5.8,1.3,9.8,9.8,0,0,0,5.1-1.1,3.38,3.38,0,0,0,1.8-3.3,2.8,2.8,0,0,0-1-2.4,5.6,5.6,0,0,0-2.9-1,31.33,31.33,0,0,0-5.3-.2V8.4a43.61,43.61,0,0,0,5.1-.3,6.3,6.3,0,0,0,2.9-1,2.8,2.8,0,0,0,1-2.4c0-2.6-2.3-3.9-6.8-3.9a11.1,11.1,0,0,0-5.9,1.3,4.28,4.28,0,0,0-2,3.9h-.8a5.1,5.1,0,0,1,2.1-4.4A11.4,11.4,0,0,1,258,.1c2.7,0,4.7.4,5.9,1.2a3.74,3.74,0,0,1,1.9,3.3,4.1,4.1,0,0,1-.9,2.8,4.89,4.89,0,0,1-2.7,1.3A5.65,5.65,0,0,1,265.1,9.9Z"/><path d="M286.3,2a7.52,7.52,0,0,1,2.1,5.7c0,3.7-.7,6.3-2.2,7.8a7.62,7.62,0,0,1-6.1,2.2,24.33,24.33,0,0,1-3.8-.3c-1.2-.2-2.5-.4-3.8-.7V16c1.7.3,3,.6,4,.8a17.74,17.74,0,0,0,3.2.2,10.08,10.08,0,0,0,4.5-.9,5.47,5.47,0,0,0,2.5-2.9,13.18,13.18,0,0,0,.8-5.2,6.48,6.48,0,0,1-2.8,3.1,11.72,11.72,0,0,1-5.5,1.3,11,11,0,0,1-5.9-1.4,6,6,0,0,1-.8-8.4l.9-.9A10.81,10.81,0,0,1,279.7.1C282.8,0,284.9.6,286.3,2Zm-2.8,8.9A7,7,0,0,0,286.3,9a4.19,4.19,0,0,0,1-2.8,5,5,0,0,0-.8-2.7,5.46,5.46,0,0,0-2.5-2,9.68,9.68,0,0,0-4.1-.8,10.84,10.84,0,0,0-5.8,1.4,4.55,4.55,0,0,0-2,4,4.94,4.94,0,0,0,1.8,4.1,9.43,9.43,0,0,0,5.5,1.4A11.41,11.41,0,0,0,283.5,10.9Z"/><path d="M311,12.4a4.58,4.58,0,0,1-2.1,3.9c-1.4.9-3.6,1.4-6.7,1.4s-5.3-.5-6.7-1.4a4.58,4.58,0,0,1-2.1-3.9c0-2.4,1.6-4,4.9-4.6-2.3-.6-3.5-1.8-3.5-3.6a3.56,3.56,0,0,1,1.7-3.1c1.1-.8,3-1.1,5.7-1.1,4.9,0,7.3,1.4,7.3,4.2,0,1.8-1.1,3-3.5,3.6C309.4,8.4,311,10,311,12.4Zm-2.7,3.4a3.86,3.86,0,0,0,1.9-3.3,3.53,3.53,0,0,0-2-3.1,18,18,0,0,0-12.1,0,3.42,3.42,0,0,0-2,3.1,3.63,3.63,0,0,0,1.9,3.3c1.3.8,3.3,1.2,6.1,1.2S307,16.6,308.3,15.8Zm-6-8.3q6.6,0,6.6-3.3a2.88,2.88,0,0,0-1.6-2.6,14.34,14.34,0,0,0-10,0,2.88,2.88,0,0,0-1.6,2.6q0,3.3,6.6,3.3Z"/><path d="M317.1,4.2a8.33,8.33,0,0,1,3.6-3.1A11.45,11.45,0,0,1,325.8,0a12.67,12.67,0,0,1,4.7.9,8.12,8.12,0,0,1,3.1,2.4A7.27,7.27,0,0,1,335,6.4h-.8a5.65,5.65,0,0,0-1.1-2.5,7.54,7.54,0,0,0-2.7-2.3,9,9,0,0,0-4.6-.9,11.25,11.25,0,0,0-5.1,1.2,7.47,7.47,0,0,0-3.1,3,7.92,7.92,0,0,0-1,4,7.92,7.92,0,0,0,1,4,7.23,7.23,0,0,0,3,3,11.25,11.25,0,0,0,5.1,1.2,23,23,0,0,0,4.5-.5,15.88,15.88,0,0,0,4-1.8V10.2h-8.8V9.5h9.5v5.7a24.82,24.82,0,0,1-4.4,2,16.07,16.07,0,0,1-4.9.6,11.16,11.16,0,0,1-5.1-1.1,8.76,8.76,0,0,1-3.5-3.1,8.54,8.54,0,0,1-1.3-4.7A10.74,10.74,0,0,1,317.1,4.2Z"/><line class="cls-8" x1="93.2" y1="259.1" x2="99.2" y2="259.1"/><line class="cls-9" x1="111.1" y1="259.1" x2="1300.6" y2="259.1"/><line class="cls-8" x1="1306.6" y1="259.1" x2="1312.6" y2="259.1"/><line class="cls-10" x1="93.2" y1="261.6" x2="99.2" y2="261.6"/><line class="cls-11" x1="111.1" y1="261.6" x2="1300.6" y2="261.6"/><line class="cls-10" x1="1306.6" y1="261.6" x2="1312.6" y2="261.6"/><line class="cls-10" x1="93.2" y1="473.6" x2="99.2" y2="473.6"/><line class="cls-11" x1="111.1" y1="473.6" x2="1300.6" y2="473.6"/><line class="cls-10" x1="1306.6" y1="473.6" x2="1312.6" y2="473.6"/><line class="cls-8" x1="93.2" y1="280.7" x2="99.2" y2="280.7"/><line class="cls-9" x1="111.1" y1="280.7" x2="1300.6" y2="280.7"/><line class="cls-8" x1="1306.6" y1="280.7" x2="1312.6" y2="280.7"/><line class="cls-8" x1="93.2" y1="471.1" x2="99.2" y2="471.1"/><line class="cls-9" x1="111.1" y1="471.1" x2="1300.6" y2="471.1"/><line class="cls-8" x1="1306.6" y1="471.1" x2="1312.6" y2="471.1"/><line class="cls-8" x1="93.2" y1="493.2" x2="99.2" y2="493.2"/><line class="cls-9" x1="111.1" y1="493.2" x2="1300.6" y2="493.2"/><line class="cls-8" x1="1306.6" y1="493.2" x2="1312.6" y2="493.2"/><line class="cls-8" x1="93.2" y1="569.9" x2="99.2" y2="569.9"/><line class="cls-9" x1="111.1" y1="569.9" x2="1300.6" y2="569.9"/><line class="cls-8" x1="1306.6" y1="569.9" x2="1312.6" y2="569.9"/><line class="cls-8" x1="93.2" y1="358.58" x2="99.2" y2="358.58"/><line class="cls-9" x1="111.1" y1="358.58" x2="1300.6" y2="358.58"/><line class="cls-8" x1="1306.6" y1="358.58" x2="1312.6" y2="358.58"/></g></g></svg>