<?xml version="1.0" encoding="utf-8"?>
<!-- Generator: Adobe Illustrator 25.1.0, SVG Export Plug-In . SVG Version: 6.00 Build 0)  -->
<svg version="1.1" id="Calque_1" xmlns="http://www.w3.org/2000/svg" xmlns:xlink="http://www.w3.org/1999/xlink" x="0px" y="0px"
	 viewBox="0 0 1747.9 915.2" style="enable-background:new 0 0 1747.9 915.2;" xml:space="preserve">
<style type="text/css">
	.st0{fill:#E95925;}
	.st1{fill:none;stroke:#000000;stroke-linecap:square;stroke-miterlimit:10;}
	.st2{fill:none;stroke:#000000;stroke-miterlimit:10;}
	.st3{fill:none;stroke:#1D1D1B;stroke-width:2;stroke-miterlimit:10;}
	.st4{fill:none;stroke:#000000;stroke-width:2;stroke-miterlimit:10;}
	.st5{fill:#E95925;stroke:#1D1D1B;stroke-width:2;stroke-miterlimit:10;}
	.st6{fill:#1D1D1B;}
</style>
<path d="M32.9,4.6C33,5.8,32.5,7,31.6,7.9c-1.2,0.8-2.6,1.2-4,1.1c-1.4,0.1-2.8-0.3-4-1.1c-0.9-0.8-1.4-2.1-1.3-3.3V0.2h1.8v4.3
	c0,0.5,0.1,0.9,0.2,1.4c0.2,0.4,0.6,0.8,1,1c0.7,0.3,1.4,0.4,2.2,0.4c0.7,0,1.5-0.1,2.2-0.4c0.4-0.2,0.8-0.6,1-1
	C30.9,5.5,31,5,31,4.6V0.2h1.8L32.9,4.6z"/>
<path d="M43.5,7V0.2h1.8v8.5h-2.7l-6.2-6.8v6.8h-1.8V0.2h2.7L43.5,7z"/>
<path d="M56,0.2v1.5h-7v1.9h6.8v1.5H49v1.9h7v1.5h-8.8V0.2H56z"/>
<path d="M74.4,8.7h-2l-1-1.7h-5.8l-1,1.8h-2l4.7-8.5h2.4L74.4,8.7z M68.4,1.7l-2,3.7h4.2L68.4,1.7z"/>
<path d="M84.9,5.6c0.2,0.3,0.4,0.7,0.3,1.1v2.1h-1.8V7.1c0-0.2,0-0.4-0.1-0.7c-0.1-0.1-0.2-0.3-0.3-0.3C82.8,6,82.5,6,82.3,6h-4.8
	v2.7h-1.8V0.2H82c0.9-0.1,1.7,0.2,2.5,0.6c0.6,0.5,0.9,1.2,0.9,2c0.1,0.9-0.5,1.8-1.3,2.2C84.4,5.1,84.7,5.3,84.9,5.6z M77.5,1.8
	v2.6h4.1c0.3,0,0.7,0,1-0.1C82.8,4.3,83,4.2,83.1,4c0.2-0.3,0.3-0.6,0.3-0.9c0-0.3-0.1-0.6-0.3-0.9C83,2,82.7,1.9,82.5,1.9
	c-0.3-0.1-0.7-0.1-1-0.1L77.5,1.8z"/>
<path d="M88.1,1.2c1.2-0.8,2.6-1.3,4-1.2c0.9,0,1.8,0.1,2.7,0.4c0.7,0.2,1.3,0.6,1.7,1.2c0.4,0.5,0.7,1.1,0.8,1.8h-2
	c-0.1-0.6-0.5-1-1-1.3c-0.7-0.3-1.4-0.5-2.2-0.5c-0.9-0.1-1.8,0.2-2.5,0.7c-0.6,0.5-0.9,1.3-0.9,2.1c-0.1,0.8,0.3,1.6,0.9,2.2
	c0.7,0.5,1.6,0.8,2.5,0.7c0.8,0,1.5-0.1,2.2-0.5c0.5-0.3,0.9-0.8,1-1.3h2c-0.1,0.7-0.3,1.3-0.8,1.8c-0.5,0.5-1.1,1-1.7,1.2
	C93.9,8.8,93,9,92.1,9c-1.4,0.1-2.8-0.3-4-1.2c-0.9-0.8-1.4-2.1-1.4-3.3C86.7,3.2,87.2,2,88.1,1.2z"/>
<path d="M107.4,3.7V0.2h1.8v8.5h-1.8V5.3h-6.7v3.4h-1.8V0.2h1.8v3.4H107.4z"/>
<path d="M111.1,0.2h1.8v8.5h-1.8V0.2z"/>
<path d="M124.7,0.2v1.6h-4.2v6.9h-1.8V1.9h-4.2V0.2H124.7z"/>
<path d="M135,0.2v1.5h-7v1.9h6.8v1.5H128v1.9h7v1.5h-8.9V0.2H135z"/>
<path d="M137.7,1.2c1.2-0.9,2.6-1.3,4-1.2c0.9,0,1.8,0.1,2.7,0.4c0.7,0.2,1.3,0.6,1.7,1.2c0.4,0.5,0.7,1.1,0.8,1.8h-2
	c-0.1-0.6-0.5-1-1-1.3c-0.7-0.3-1.4-0.5-2.2-0.5c-0.9-0.1-1.8,0.2-2.5,0.7c-0.6,0.5-0.9,1.3-0.9,2.1c-0.1,0.8,0.3,1.6,0.9,2.2
	c0.7,0.5,1.6,0.8,2.5,0.7c0.8,0,1.5-0.1,2.2-0.5c0.5-0.3,0.9-0.8,1-1.3h2c-0.1,0.7-0.3,1.3-0.8,1.8c-0.5,0.5-1.1,1-1.7,1.2
	c-0.9,0.3-1.8,0.5-2.7,0.4c-1.4,0.1-2.8-0.3-4-1.2c-0.9-0.8-1.4-2.1-1.4-3.3C136.3,3.2,136.8,2,137.7,1.2z"/>
<path d="M157.9,0.2v1.6h-4.2v6.9h-1.9V1.9h-4.2V0.2H157.9z"/>
<path d="M170,4.6c0.1,1.2-0.4,2.4-1.3,3.3c-1.2,0.8-2.6,1.2-4,1.1c-1.4,0.1-2.8-0.3-4-1.1c-0.9-0.9-1.4-2.1-1.3-3.3V0.2h1.8v4.3
	c0,0.5,0.1,0.9,0.2,1.4c0.2,0.4,0.6,0.8,1,1c0.7,0.3,1.4,0.4,2.2,0.4c0.7,0,1.5-0.1,2.2-0.4c0.4-0.2,0.8-0.6,1-1
	c0.2-0.4,0.3-0.9,0.2-1.4V0.2h1.8V4.6z"/>
<path d="M181,5.6c0.2,0.3,0.4,0.7,0.3,1.1v2.1h-1.9V7.1c0-0.2,0-0.4-0.1-0.7c-0.1-0.1-0.2-0.3-0.3-0.3C178.8,6,178.6,6,178.4,6h-4.8
	v2.7h-1.8V0.2h6.4c0.9-0.1,1.7,0.2,2.5,0.6c0.6,0.5,0.9,1.2,0.9,2c0.1,1-0.5,1.9-1.4,2.2C180.4,5.2,180.7,5.3,181,5.6z M173.5,1.8
	v2.6h4.1c0.3,0,0.6,0,0.9-0.1c0.2,0,0.5-0.2,0.6-0.3c0.2-0.2,0.3-0.6,0.3-0.9c0-0.3-0.1-0.6-0.3-0.9c-0.2-0.2-0.4-0.3-0.6-0.4
	c-0.3-0.1-0.6-0.1-0.9-0.1H173.5z"/>
<path d="M192.1,0.2v1.5h-7v1.9h6.8v1.5h-6.8v1.9h7v1.5h-8.9V0.2H192.1z"/>
<path d="M210.5,8.7h-2.1l-1-1.8h-5.9l-1,1.8h-2l4.7-8.5h2.4L210.5,8.7z M204.5,1.7l-2.1,3.8h4.2L204.5,1.7z"/>
<path d="M212.9,6c0,0.5,0.3,1,0.8,1.1c0.9,0.3,1.9,0.4,2.9,0.4c0.8,0,1.6-0.1,2.4-0.3c0.4-0.1,0.7-0.5,0.7-0.9
	c0-0.2-0.1-0.5-0.3-0.6c-0.3-0.2-0.6-0.3-0.9-0.3c-0.5-0.1-1.2-0.1-2.3-0.2c-1,0-1.9-0.2-2.9-0.4c-0.6-0.1-1.2-0.4-1.6-0.8
	c-0.4-0.4-0.6-0.9-0.5-1.5c0-0.9,0.5-1.6,1.3-1.9c1.2-0.4,2.4-0.6,3.6-0.6c1.3-0.1,2.6,0.2,3.8,0.7c0.8,0.4,1.4,1.2,1.4,2.1h-2
	c0-0.3-0.1-0.6-0.4-0.8c-0.3-0.2-0.7-0.4-1.1-0.4c-0.6-0.1-1.3-0.1-1.9-0.1c-0.6,0-1.1,0-1.7,0.1c-0.3,0-0.6,0.2-0.9,0.3
	c-0.2,0.1-0.2,0.4-0.2,0.6c0,0.2,0.1,0.4,0.2,0.6c0.3,0.2,0.6,0.3,0.9,0.3c0.4,0.1,1.1,0.1,2,0.2c1,0.1,2,0.2,3,0.3
	c0.6,0.1,1.2,0.3,1.6,0.7c0.4,0.4,0.7,1,0.6,1.5c0.1,0.9-0.5,1.8-1.3,2.1c-1.2,0.5-2.5,0.7-3.7,0.6c-1.4,0.1-2.8-0.2-4.2-0.7
	C211.5,7.9,211,7,210.9,6H212.9z"/>
<path d="M224.8,6c0,0.5,0.3,1,0.8,1.1c0.9,0.3,1.9,0.4,2.9,0.4c0.8,0,1.6,0,2.4-0.3c0.4-0.1,0.7-0.5,0.7-0.9c0-0.2-0.1-0.5-0.3-0.6
	c-0.3-0.2-0.6-0.3-1-0.3c-0.5-0.1-1.2-0.1-2.3-0.2c-1,0-1.9-0.2-2.9-0.4c-0.6-0.1-1.1-0.4-1.5-0.8c-0.4-0.4-0.5-0.9-0.5-1.5
	c0-0.9,0.5-1.6,1.3-1.9c1.2-0.4,2.4-0.6,3.6-0.6c1.3-0.1,2.6,0.2,3.8,0.7c0.8,0.4,1.4,1.2,1.4,2.1h-2c0-0.3-0.1-0.6-0.3-0.8
	c-0.3-0.2-0.7-0.4-1.1-0.4c-0.6-0.1-1.3-0.1-1.9-0.1c-0.6,0-1.1,0-1.7,0.1c-0.3,0-0.6,0.2-0.9,0.3c-0.2,0.1-0.2,0.4-0.2,0.6
	c0,0.2,0.1,0.4,0.2,0.6c0.3,0.2,0.6,0.3,0.9,0.3c0.4,0.1,1.1,0.1,2,0.2c1,0.1,2,0.2,3,0.3c0.6,0.1,1.2,0.3,1.6,0.7
	c0.4,0.4,0.7,1,0.6,1.6c0.1,0.9-0.5,1.8-1.3,2.1c-1.2,0.5-2.5,0.7-3.7,0.6c-1.4,0.1-2.8-0.2-4.2-0.7c-0.8-0.4-1.4-1.3-1.4-2.3H224.8
	z"/>
<path d="M244,0.2v1.5h-7v1.9h6.8v1.5H237v1.9h7v1.5h-8.9V0.2H244z"/>
<path d="M245.6,0.2h9.6v1.6l-6.8,5.2h6.8v1.6h-9.6V7.1l6.7-5.2h-6.7L245.6,0.2z"/>
<path d="M261.9,0.2h1.8v8.5h-1.8V0.2z"/>
<path d="M278.8,0.2v8.5H277V1.9l-4,6.8h-1.7l-3.9-6.8v6.8h-1.8V0.2h2.9l3.7,6.4l3.7-6.4H278.8z"/>
<path d="M289,0.6c0.5,0.2,0.9,0.6,1.2,1.1c0.3,0.5,0.4,1.1,0.4,1.6c0,0.6-0.1,1.1-0.4,1.6c-0.3,0.5-0.7,0.8-1.2,1.1
	c-0.5,0.3-1.1,0.4-1.7,0.4h-4.8v2.3h-1.8V0.2h6.6C287.9,0.2,288.5,0.4,289,0.6z M286.6,4.8c0.3,0,0.7,0,1-0.1
	c0.3-0.1,0.5-0.2,0.7-0.4c0.2-0.3,0.3-0.6,0.3-1c0-0.4-0.1-0.7-0.3-1c-0.2-0.2-0.4-0.3-0.7-0.4c-0.3-0.1-0.7-0.1-1-0.1h-4.1v2.9
	H286.6z"/>
<path d="M293.3,7.8c-0.9-0.8-1.5-2-1.4-3.3c-0.1-1.3,0.5-2.5,1.4-3.3c2.5-1.6,5.7-1.6,8.2,0c0.9,0.8,1.5,2,1.4,3.3
	c0,0.8-0.2,1.7-0.6,2.4c-0.4,0.7-1.1,1.2-1.8,1.5c-1,0.4-2,0.6-3,0.5C295.9,9.1,294.5,8.6,293.3,7.8z M300.9,4.5
	c0-1.9-1.2-2.8-3.5-2.8c-0.9-0.1-1.9,0.2-2.6,0.7c-0.6,0.5-0.9,1.3-0.9,2.1c0,1.9,1.2,2.9,3.5,2.9S300.9,6.4,300.9,4.5L300.9,4.5z"
	/>
<path d="M306.1,6c0,0.5,0.3,1,0.8,1.1c0.9,0.3,1.9,0.4,2.9,0.4c0.8,0,1.6,0,2.4-0.3c0.4-0.1,0.7-0.5,0.7-0.9c0-0.2-0.1-0.5-0.3-0.6
	c-0.3-0.2-0.6-0.3-1-0.3c-0.5-0.1-1.2-0.1-2.3-0.2c-1,0-1.9-0.2-2.9-0.4c-0.6-0.1-1.1-0.4-1.6-0.8c-0.4-0.4-0.5-0.9-0.5-1.5
	c0-0.9,0.5-1.6,1.3-1.9c1.2-0.4,2.4-0.6,3.6-0.6c1.3-0.1,2.6,0.2,3.8,0.7c0.8,0.4,1.4,1.2,1.4,2.1h-2c0-0.3-0.1-0.6-0.3-0.8
	c-0.3-0.2-0.7-0.4-1.1-0.4c-0.6-0.1-1.3-0.1-2-0.1c-0.6,0-1.1,0-1.7,0.1c-0.3,0-0.6,0.2-0.9,0.3c-0.2,0.1-0.2,0.4-0.2,0.6
	c0,0.2,0.1,0.4,0.2,0.6c0.3,0.2,0.6,0.3,0.9,0.3c0.4,0.1,1.1,0.1,2,0.2c1,0.1,2,0.2,3,0.3c0.6,0.1,1.2,0.3,1.6,0.7
	c0.4,0.4,0.7,1,0.6,1.6c0.1,0.9-0.5,1.8-1.3,2.1C312.3,8.8,311,9,309.7,9c-1.4,0.1-2.8-0.2-4.2-0.7c-0.9-0.4-1.4-1.3-1.4-2.3H306.1z
	"/>
<path d="M327.3,8.7h-2.1l-1-1.8h-5.8l-1,1.8h-2.1l4.8-8.5h2.5L327.3,8.7z M321.3,1.7l-2,3.7h4.2L321.3,1.7z"/>
<path d="M337.4,7V0.2h1.9v8.5h-2.7l-6.2-6.8v6.8h-1.8V0.2h2.7L337.4,7z"/>
<path d="M351,0.2v1.6h-4.2v6.9h-1.9V1.9h-4.2V0.2H351z"/>
<path d="M361.3,0.2v1.5h-7v1.9h6.8v1.5h-6.9v1.9h7v1.5h-8.9V0.2H361.3z"/>
<path d="M38.1,204c9.5,0,14.2,3.6,14.9,10.5h-6.2c-0.6-3.8-3.5-5.3-8.6-5.3c-6.2,0-8.8,2.2-8.8,7.1s2.6,7.1,8.8,7.1
	c5.1,0,8-1.5,8.6-5.4h6.2c-0.6,6.9-5.4,10.5-14.9,10.5c-10.5,0-15-4.4-15-12.3S27.6,204,38.1,204z"/>
<path d="M61.2,209.1v4.9h19v4.4h-19v4.8h19v4.9H55.1v-23.8h25.1v4.9L61.2,209.1z M74.3,198.8l-13.2,2.7v-4l13.2-2.7V198.8z"/>
<path d="M107,223v5.1H82.5v-23.8h6.1V223H107z"/>
<path d="M115.5,209.1v4.9h19v4.4h-19v4.8h19v4.9h-25.1v-23.8h25.1v4.9L115.5,209.1z M128.5,201.5l-13.2-2.7v-4l13.2,2.7V201.5z"/>
<path d="M166.2,221.1c0,4-2.3,6.9-7.8,6.9h-21.8v-23.8h20.9c5.4,0,7.1,2.8,7.1,6.2c0,1.7-0.7,3.4-1.9,4.6
	C165,216.4,166.3,218.7,166.2,221.1z M142.8,213.6h12.6c1.6,0,3.1,0,3.1-2.5s-1.5-2.4-3.2-2.4h-12.6V213.6z M160.1,220.9
	c0-2.5-1.5-2.5-3.1-2.5h-14.2v5H157C158.6,223.4,160.1,223.4,160.1,220.9z"/>
<path d="M190.9,221l4.4,7.1h-7.2l-3.8-6.4h-9.9v6.4h-6.1v-23.8h18.7c5.4,0,9.1,3.4,9.1,8.7C196.2,216.5,194.1,219.7,190.9,221z
	 M174.4,216.6h10.9c1.8,0,4.7,0,4.7-3.6s-2.9-3.6-4.7-3.6h-10.9V216.6z"/>
<path d="M204.2,209.1v4.9h19v4.4h-19v4.8h19v4.9h-25.1v-23.8h25.2v4.9L204.2,209.1z"/>
<path d="M269.1,213c0,5.3-3.7,8.7-9.1,8.7h-12.6v6.4h-6.1v-23.8H260C265.5,204.3,269.1,207.7,269.1,213z M263,213
	c0-3.6-2.9-3.6-4.7-3.6h-10.8v7.2h10.9C260.2,216.6,263,216.6,263,213z"/>
<path d="M270.8,216.2c0-7.9,4.5-12.2,15-12.2s15,4.4,15,12.2s-4.5,12.3-15,12.3S270.8,224.1,270.8,216.2z M294.6,216.2
	c0-4.8-2.5-7.1-8.8-7.1s-8.8,2.2-8.8,7.1s2.5,7.1,8.8,7.1S294.6,221,294.6,216.2z"/>
<path d="M318.1,228.4c-10.5,0-15-4-15-12.3v-11.9h6.1v11.9c0,3.3,0.9,7.1,8.8,7.1s8.8-3.8,8.8-7.1v-11.9h6.1v11.9
	C333,224.4,328.5,228.4,318.1,228.4z"/>
<path d="M358.2,221l4.4,7.1h-7.2l-3.8-6.4h-9.9v6.4h-6.1v-23.8h18.7c5.4,0,9.1,3.4,9.1,8.7C363.6,216.5,361.5,219.7,358.2,221z
	 M341.7,216.6h10.9c1.8,0,4.7,0,4.7-3.6s-2.9-3.6-4.7-3.6h-10.9L341.7,216.6z"/>
<path d="M387.3,219.9c0,2.5,2,3.7,9.8,3.7c6.4,0,8.4-0.7,8.4-2.6s-1.4-2.3-9.1-2.7c-10.4-0.5-14.5-2.1-14.5-7.4s5.3-6.9,14.2-6.9
	s14.4,2.2,14.4,8.1h-6.1c0-2.6-2.6-3.3-9-3.3c-6,0-7.4,0.6-7.4,2.4s1.4,2.2,8.4,2.6c9.4,0.5,15.2,1,15.2,7c0,6.4-6,7.6-14.8,7.6
	c-9.8,0-15.6-1.7-15.6-8.5L387.3,219.9z"/>
<path d="M608.7,399.9c0,2.5,2,3.7,9.8,3.7c6.4,0,8.4-0.7,8.4-2.6s-1.4-2.3-9.1-2.7c-10.4-0.5-14.5-2.1-14.5-7.4s5.3-6.9,14.2-6.9
	c8.9,0,14.4,2.2,14.4,8.1h-6.1c0-2.6-2.6-3.3-9-3.3c-6,0-7.4,0.6-7.4,2.4c0,1.8,1.4,2.2,8.4,2.6c9.4,0.5,15.2,1,15.2,7
	c0,6.4-6,7.6-14.8,7.6c-9.8,0-15.6-1.7-15.6-8.5L608.7,399.9z"/>
<path d="M413.1,216.2c0-7.9,4.5-12.2,15-12.2s15,4.4,15,12.2s-4.5,12.3-15,12.3S413.1,224.1,413.1,216.2z M436.9,216.2
	c0-4.8-2.5-7.1-8.8-7.1s-8.8,2.2-8.8,7.1s2.5,7.1,8.8,7.1S436.9,221,436.9,216.2L436.9,216.2z"/>
<path d="M475.9,204.3v23.8h-8.3l-16.2-17.9v17.9h-6.1v-23.8h8.3l16.3,17.9v-17.9H475.9z"/>
<path d="M526,204.3v23.8h-6.1v-9.3h-19.4v9.3h-6.1v-23.8h6.1v9.3h19.4v-9.3H526z"/>
<path d="M534.8,228.1h-6.1v-23.8h6.1V228.1z"/>
<path d="M543,219.9c0,2.5,2,3.7,9.8,3.7c6.4,0,8.4-0.7,8.4-2.6s-1.4-2.3-9.1-2.7c-10.4-0.5-14.5-2.1-14.5-7.4s5.3-6.9,14.2-6.9
	s14.4,2.2,14.4,8.1h-6.1c0-2.6-2.6-3.3-9-3.3c-6,0-7.4,0.6-7.4,2.4s1.4,2.2,8.4,2.6c9.4,0.5,15.2,1,15.2,7c0,6.4-6,7.6-14.8,7.6
	c-9.8,0-15.6-1.7-15.6-8.5L543,219.9z"/>
<path d="M596.5,209.4h-11.6v18.7h-6.1v-18.7h-11.6v-5.1h29.2V209.4z"/>
<path d="M597,216.2c0-7.9,4.5-12.2,15-12.2s15,4.4,15,12.2s-4.5,12.3-15,12.3S597,224.1,597,216.2z M620.8,216.2
	c0-4.8-2.5-7.1-8.8-7.1s-8.8,2.2-8.8,7.1s2.5,7.1,8.8,7.1S620.8,221,620.8,216.2L620.8,216.2z"/>
<path d="M635.3,228.1h-6.1v-23.8h6.1V228.1z"/>
<path d="M660.6,221l4.4,7.1h-7.2l-3.8-6.3h-9.8v6.4H638v-23.8h18.7c5.4,0,9.1,3.4,9.1,8.7C666,216.5,663.9,219.7,660.6,221z
	 M644.1,216.6H655c1.8,0,4.7,0,4.7-3.6s-2.9-3.6-4.7-3.6h-10.9V216.6z"/>
<path d="M673.9,209.1v4.9h19v4.4h-19v4.8h19v4.9h-25.1v-23.8H693v4.9L673.9,209.1z"/>
<path d="M29.6,269.1v4.9h19v4.4h-19v4.8h19v4.9H23.4v-23.8h25.1v4.9L29.6,269.1z"/>
<path d="M79.5,269.4H67.9v18.7h-6.1v-18.7H50.3v-5.1h29.2V269.4z"/>
<path d="M103.4,279.9c0,2.5,2,3.7,9.8,3.7c6.4,0,8.4-0.7,8.4-2.6s-1.4-2.3-9.1-2.7c-10.4-0.5-14.5-2.1-14.5-7.5s5.3-6.9,14.2-6.9
	s14.4,2.2,14.4,8.1h-6.1c0-2.6-2.6-3.3-9-3.3c-6,0-7.4,0.6-7.4,2.4s1.4,2.2,8.4,2.6c9.4,0.5,15.2,1,15.2,7c0,6.4-6,7.6-14.8,7.6
	c-9.8,0-15.6-1.7-15.6-8.5L103.4,279.9z"/>
<path d="M129.2,276.2c0-7.9,4.5-12.2,15-12.2s15,4.4,15,12.2s-4.5,12.3-15,12.3S129.2,284.1,129.2,276.2z M153,276.2
	c0-4.8-2.4-7.1-8.8-7.1s-8.8,2.2-8.8,7.1s2.5,7.1,8.8,7.1S153,281,153,276.2L153,276.2z"/>
<path d="M192,264.3v23.8h-8.3l-16.2-17.9v17.9h-6.1v-23.8h8.3l16.2,17.9v-17.9H192z"/>
<path class="st0" d="M233.7,283h-14.2l-2.6,5.1h-6.7l12.3-23.8h8.3l12.3,23.8h-6.8L233.7,283z M231.4,278.5l-4.8-9.7l-4.9,9.7H231.4
	z"/>
<path class="st0" d="M267.1,281l4.4,7.1h-7.2l-3.9-6.4h-9.9v6.4h-6.1v-23.8h18.7c5.4,0,9.1,3.4,9.1,8.7
	C272.4,276.5,270.3,279.7,267.1,281z M250.6,276.6h10.9c1.8,0,4.7,0,4.7-3.6s-2.9-3.6-4.7-3.6h-10.9L250.6,276.6z"/>
<path class="st0" d="M288.9,264c9.5,0,14.2,3.6,14.9,10.5h-6.2c-0.6-3.8-3.5-5.3-8.6-5.3c-6.2,0-8.8,2.2-8.8,7.1s2.7,7.1,8.8,7.1
	c5.1,0,8.1-1.5,8.6-5.4h6.2c-0.6,6.9-5.4,10.5-14.9,10.5c-10.5,0-15-4.4-15-12.3S278.4,264,288.9,264z"/>
<path class="st0" d="M337.6,264.3v23.8h-6.1v-9.3h-19.4v9.3h-6.1v-23.8h6.1v9.3h19.4v-9.3H337.6z"/>
<path class="st0" d="M346.4,288.1h-6.1v-23.8h6.1V288.1z"/>
<path class="st0" d="M377.6,269.4h-11.6v18.7H360v-18.7h-11.6v-5.1h29.2V269.4z"/>
<path class="st0" d="M385.8,269.1v4.9h19v4.4h-19v4.8h19v4.9h-25.1v-23.8h25.2v4.9L385.8,269.1z"/>
<path class="st0" d="M421.4,264c9.5,0,14.2,3.6,14.9,10.5h-6.2c-0.6-3.8-3.5-5.3-8.6-5.3c-6.2,0-8.8,2.2-8.8,7.1s2.6,7.1,8.8,7.1
	c5.1,0,8.1-1.5,8.6-5.4h6.2c-0.6,6.9-5.4,10.5-14.9,10.5c-10.5,0-15-4.4-15-12.3S411,264,421.4,264z"/>
<path class="st0" d="M465.9,269.4h-11.5v18.7h-6.1v-18.7h-11.6v-5.1h29.2L465.9,269.4z"/>
<path class="st0" d="M483,288.4c-10.5,0-15-4-15-12.3v-11.9h6.1v11.9c0,3.3,0.9,7.1,8.8,7.1s8.8-3.8,8.8-7.1v-11.9h6.2v11.9
	C498,284.4,493.5,288.4,483,288.4z"/>
<path class="st0" d="M523.2,281l4.4,7.1h-7.2l-3.8-6.4h-9.9v6.4h-6.1v-23.8h18.7c5.4,0,9.1,3.4,9.1,8.7
	C528.6,276.5,526.5,279.7,523.2,281z M506.7,276.6h10.9c1.8,0,4.7,0,4.7-3.6s-2.9-3.6-4.7-3.6h-10.9L506.7,276.6z"/>
<path class="st0" d="M536.5,269.1v4.9h19v4.4h-19v4.8h19v4.9h-25.1v-23.8h25.2v4.9L536.5,269.1z"/>
<path class="st0" d="M59.9,348.1h-6.1v-16.3l-9.9,16.3h-4.4l-9.9-16.3v16.3h-6.1v-23.8h8.3l10,16.8l10-16.8H60L59.9,348.1z"/>
<path class="st0" d="M61.9,336.2c0-7.9,4.5-12.2,14.9-12.2s15,4.4,15,12.2s-4.5,12.3-15,12.3S61.9,344.1,61.9,336.2z M85.7,336.2
	c0-4.8-2.4-7.1-8.8-7.1s-8.9,2.2-8.9,7.1s2.5,7.1,8.8,7.1S85.7,341,85.7,336.2z"/>
<path class="st0" d="M124.7,324.3v23.8h-8.3l-16.2-17.9v17.9h-6.1v-23.8h8.3l16.2,17.9v-17.9H124.7z"/>
<path class="st0" d="M142.4,348.4c-10.5,0-15-4-15-12.3v-11.9h6.1v11.9c0,3.3,0.9,7.1,8.8,7.1s8.8-3.8,8.8-7.1v-11.9h6.1v11.9
	C157.4,344.4,152.8,348.4,142.4,348.4z"/>
<path class="st0" d="M196.4,348.1h-6.1v-16.3l-9.9,16.3h-4.4l-9.9-16.3v16.3h-6.1v-23.8h8.3l10,16.8l10-16.8h8.3L196.4,348.1z"/>
<path class="st0" d="M205.2,329.1v4.9h19v4.4h-19v4.8h19v4.9h-25.1v-23.8h25.2v4.9L205.2,329.1z"/>
<path class="st0" d="M257.1,324.3v23.8h-8.3l-16.2-17.9v17.9h-6.1v-23.8h8.3l16.2,17.9v-17.9H257.1z"/>
<path class="st0" d="M282.1,343h-14.2l-2.5,5.1h-6.7l12.3-23.8h8.3l12.3,23.8h-6.8L282.1,343z M279.8,338.5l-4.8-9.6l-4.9,9.7
	L279.8,338.5z"/>
<path class="st0" d="M317.4,343v5.1h-24.5v-23.8h6.1V343H317.4z"/>
<path class="st0" d="M325.9,329.1v4.9h19v4.4h-19v4.8h19v4.9h-25.1v-23.8h25.2v4.9L325.9,329.1z"/>
<path d="M386.2,343H372l-2.5,5.1h-6.7l12.3-23.8h8.3l12.3,23.8h-6.8L386.2,343z M383.9,338.5l-4.8-9.7l-4.9,9.7H383.9z"/>
<path d="M409.6,348.4c-10.5,0-15-4-15-12.3v-11.9h6.1v11.9c0,3.3,0.9,7.1,8.8,7.1s8.8-3.8,8.8-7.1v-11.9h6.1v11.9
	C424.6,344.4,420.1,348.4,409.6,348.4z"/>
<path d="M471.9,336.2c0,8.1-5.4,11.9-11.6,11.9h-17.3v-23.8h17.3C466.5,324.3,471.9,328.1,471.9,336.2z M465.8,336.2
	c0-5.8-3.1-6.8-7.8-6.8h-8.8V343h8.8C462.6,343,465.8,342,465.8,336.2L465.8,336.2z"/>
<path d="M480.2,329.1v4.9h19v4.4h-19v4.8h19v4.9h-25.1v-23.8h25.1v4.9L480.2,329.1z"/>
<path d="M507.3,339.9c0,2.5,2,3.7,9.8,3.7c6.4,0,8.4-0.7,8.4-2.6s-1.4-2.3-9.1-2.7c-10.4-0.5-14.5-2.1-14.5-7.5s5.3-6.9,14.2-6.9
	s14.4,2.2,14.4,8.1h-6.1c0-2.6-2.6-3.3-9-3.3c-6,0-7.4,0.6-7.4,2.4s1.4,2.2,8.4,2.6c9.4,0.5,15.2,1,15.2,7c0,6.4-6,7.6-14.8,7.6
	c-9.8,0-15.6-1.7-15.6-8.5L507.3,339.9z"/>
<path d="M539.9,348.1h-6.1v-23.8h6.1V348.1z"/>
<path d="M556.6,335.3h15.1v12.8h-4.5l-0.3-3.7c-2.2,2.5-5.8,4.1-10.9,4.1c-8.8,0-14.2-4.4-14.2-12.2s5.4-12.2,15.2-12.2
	c9.5,0,14.3,3.7,14.7,9.6h-6.2c-0.3-1.8-2-4.5-8.4-4.5c-8,0-9,4.4-9,7.2s1.1,7.4,9,7.4c5.9,0,8.3-2.6,8.4-4.4h-8.9V335.3z"/>
<path d="M604.8,324.3v23.8h-8.3l-16.2-17.9v17.9h-6.1v-23.8h8.3l16.2,17.9v-17.9H604.8z"/>
<path d="M638.2,348.4c-10.5,0-15-4-15-12.3v-11.9h6.1v11.9c0,3.3,0.9,7.1,8.8,7.1s8.8-3.8,8.8-7.1v-11.9h6.1v11.9
	C653.2,344.4,648.6,348.4,638.2,348.4z"/>
<path d="M686.4,324.3v23.8H678l-16.2-17.9v17.9h-6.1v-23.8h8.3l16.3,17.9v-17.9H686.4z"/>
<path d="M695.2,348.1h-6.1v-23.8h6.1V348.1z"/>
<path d="M724.9,351.1l-4.1-4.1c-2.7,1-5.6,1.5-8.6,1.4c-10.5,0-15-4.4-15-12.3s4.5-12.2,15-12.2s15,4.4,15,12.2
	c0.1,2.4-0.5,4.8-1.7,6.9l3.7,3.7L724.9,351.1z M712.2,343.3c6.3,0,8.8-2.3,8.8-7.1s-2.5-7.1-8.8-7.1s-8.8,2.2-8.8,7.1
	S705.8,343.3,712.2,343.3L712.2,343.3z"/>
<path d="M744.5,348.4c-10.5,0-15-4-15-12.3v-11.9h6.1v11.9c0,3.3,0.9,7.1,8.8,7.1s8.8-3.8,8.8-7.1v-11.9h6.1v11.9
	C759.4,344.4,754.9,348.4,744.5,348.4z"/>
<path d="M768.1,329.1v4.9h19v4.4h-19v4.8h19v4.9H762v-23.8h25.2v4.9L768.1,329.1z"/>
<path d="M29.6,389.1v4.9h19v4.4h-19v4.8h19v4.9H23.4v-23.8h25.1v4.9L29.6,389.1z"/>
<path d="M79.5,389.4H67.9v18.7h-6.1v-18.7H50.3v-5.1h29.2V389.4z"/>
<path d="M103.4,399.9c0,2.5,2,3.7,9.8,3.7c6.4,0,8.4-0.7,8.4-2.6s-1.4-2.3-9.1-2.7c-10.4-0.5-14.5-2.1-14.5-7.5s5.3-6.9,14.2-6.9
	s14.4,2.2,14.4,8.1h-6.1c0-2.6-2.6-3.3-9-3.3c-6,0-7.4,0.6-7.4,2.4s1.4,2.2,8.4,2.6c9.4,0.5,15.2,1,15.2,7c0,6.4-6,7.6-14.8,7.6
	c-9.8,0-15.6-1.7-15.6-8.5L103.4,399.9z"/>
<path d="M125.5,384.3h7.4l9.1,10.8l9.1-10.8h7.4l-13.5,16v7.8H139v-7.8L125.5,384.3z"/>
<path d="M196.5,408.1h-6.1v-16.3l-9.9,16.3h-4.4l-9.9-16.3v16.3h-6.1v-23.8h8.3l10,16.8l10-16.8h8.3L196.5,408.1z"/>
<path d="M205.3,389.1v4.9h19v4.4h-19v4.8h19v4.9h-25.1v-23.8h25.1v4.9L205.3,389.1z M218.3,378.8l-13.2,2.7v-4l13.2-2.7V378.8z"/>
<path d="M255.3,389.4h-11.6v18.7h-6.1v-18.7H226v-5.1h29.2L255.3,389.4z"/>
<path d="M279.9,401l4.4,7.1h-7.2l-3.8-6.4h-9.9v6.4h-6.1v-23.8H276c5.4,0,9.1,3.4,9.1,8.7C285.3,396.5,283.2,399.7,279.9,401z
	 M263.4,396.6h10.9c1.8,0,4.7,0,4.7-3.6s-2.9-3.6-4.7-3.6h-10.9V396.6z"/>
<path d="M293.2,408.1h-6.1v-23.8h6.1V408.1z"/>
<path d="M322.9,411.1l-4.1-4.1c-2.7,1-5.6,1.5-8.6,1.4c-10.5,0-15-4.4-15-12.3s4.5-12.2,15-12.2s15,4.4,15,12.2
	c0.1,2.4-0.5,4.8-1.7,6.9l3.7,3.7L322.9,411.1z M310.2,403.3c6.4,0,8.8-2.3,8.8-7.1s-2.4-7.1-8.8-7.1s-8.8,2.2-8.8,7.1
	S303.9,403.3,310.2,403.3L310.2,403.3z"/>
<path d="M342.5,408.4c-10.5,0-15-4-15-12.3v-11.9h6.1v11.9c0,3.3,0.9,7.1,8.8,7.1s8.8-3.8,8.8-7.1v-11.9h6.1v11.9
	C357.5,404.4,352.9,408.4,342.5,408.4z"/>
<path d="M366.1,389.1v4.9h19v4.4h-19v4.8h19v4.9H360v-23.8h25.2v4.9L366.1,389.1z"/>
<path d="M393.6,403.5v4.6l-2.8,6.7H388l1.7-6.7h-2v-4.6H393.6z"/>
<path d="M444.5,384.3l-12.2,23.8h-8.4l-12.2-23.8h6.9l9.5,19.3l9.5-19.3H444.5z"/>
<path d="M452.1,389.1v4.9h19v4.4h-19v4.8h19v4.9H446v-23.8h25.1v4.9L452.1,389.1z"/>
<path d="M479.1,400c0,2.5,2,3.7,9.8,3.7c6.4,0,8.4-0.7,8.4-2.6s-1.4-2.3-9.1-2.7c-10.4-0.5-14.5-2.1-14.5-7.5s5.3-6.9,14.3-6.9
	s14.4,2.2,14.4,8.1h-6.1c0-2.6-2.6-3.3-9-3.3c-6,0-7.5,0.6-7.5,2.4s1.4,2.2,8.4,2.6c9.4,0.5,15.2,1,15.2,7c0,6.4-6,7.6-14.8,7.6
	c-9.8,0-15.6-1.7-15.6-8.5L479.1,400z"/>
<path d="M532.7,389.4h-11.6v18.7H515v-18.7h-11.6v-5.1h29.2V389.4z"/>
<path d="M540.8,408.1h-6.1v-23.8h6.1V408.1z"/>
<path d="M557.5,395.3h15.1v12.8h-4.5l-0.3-3.7c-2.2,2.5-5.8,4.1-10.9,4.1c-8.8,0-14.1-4.4-14.1-12.2S548.2,384,558,384
	c9.5,0,14.3,3.7,14.7,9.6h-6.2c-0.3-1.8-2-4.5-8.4-4.5c-8,0-9,4.4-9,7.2s1.1,7.4,9,7.4c5.9,0,8.3-2.6,8.4-4.4h-8.9L557.5,395.3z"/>
<path d="M581.1,389.1v4.9h19v4.4h-19v4.8h19v4.9H575v-23.8h25.2v4.9L581.1,389.1z"/>
<path d="M677.1,396.2c0,8.1-5.4,11.9-11.6,11.9h-17.3v-23.8h17.3C671.7,384.3,677.1,388.1,677.1,396.2z M671,396.2
	c0-5.8-3.1-6.8-7.8-6.8h-8.8V403h8.8C667.9,403,671,402,671,396.2L671,396.2z"/>
<path d="M685.5,389.1v4.9h19v4.4h-19v4.8h19v4.9h-25.1v-23.8h25.2v4.9L685.5,389.1z"/>
<path d="M47.9,463v5.1H23.4v-23.8h6.1V463H47.9z"/>
<path d="M56.1,454.5H51l-0.5-10.9h6.1L56.1,454.5z"/>
<path d="M74.5,468.4c-10.5,0-15-4-15-12.3v-11.9h6.1v11.9c0,3.3,0.9,7.1,8.8,7.1s8.8-3.8,8.8-7.1v-11.9h6.1v11.9
	C89.5,464.4,84.9,468.4,74.5,468.4z"/>
<path d="M114.7,461l4.4,7.1h-7.2l-3.8-6.3h-9.9v6.4H92v-23.8h18.7c5.4,0,9.1,3.4,9.1,8.7C120,456.5,117.9,459.7,114.7,461z
	 M98.1,456.6H109c1.8,0,4.7,0,4.7-3.6s-2.8-3.6-4.7-3.6H98.1V456.6z"/>
<path d="M127.3,459.9c0,2.5,2,3.7,9.8,3.7c6.4,0,8.4-0.7,8.4-2.6s-1.4-2.3-9.1-2.7c-10.4-0.5-14.5-2.1-14.5-7.5s5.3-6.9,14.2-6.9
	s14.4,2.2,14.4,8.1h-6.1c0-2.6-2.6-3.3-9-3.3c-6,0-7.4,0.6-7.4,2.4s1.4,2.2,8.4,2.6c9.4,0.5,15.2,1,15.2,7c0,6.4-6,7.6-14.8,7.6
	c-9.8,0-15.6-1.7-15.6-8.5L127.3,459.9z"/>
<path d="M159.3,459.9c0,2.5,2,3.7,9.8,3.7c6.4,0,8.4-0.7,8.4-2.6s-1.4-2.3-9.1-2.7c-10.4-0.5-14.5-2.1-14.5-7.5s5.3-6.9,14.2-6.9
	s14.4,2.2,14.4,8.1h-6.1c0-2.6-2.6-3.3-9-3.3c-6,0-7.4,0.6-7.4,2.4s1.4,2.2,8.4,2.6c9.4,0.5,15.2,1,15.2,7c0,6.4-6,7.6-14.8,7.6
	c-9.8,0-15.6-1.7-15.6-8.5L159.3,459.9z"/>
<path d="M216.4,444c9.5,0,14.2,3.6,14.9,10.5H225c-0.6-3.8-3.5-5.3-8.6-5.3c-6.2,0-8.8,2.2-8.8,7.1s2.6,7.1,8.8,7.1
	c5.1,0,8.1-1.5,8.6-5.4h6.2c-0.6,6.9-5.4,10.5-14.9,10.5c-10.5,0-15-4.4-15-12.3S205.9,444,216.4,444z"/>
<path d="M233.1,456.2c0-7.9,4.5-12.2,15-12.2s15,4.4,15,12.2s-4.5,12.3-15,12.3S233.1,464.1,233.1,456.2z M256.9,456.2
	c0-4.8-2.4-7.1-8.8-7.1s-8.8,2.2-8.8,7.1s2.5,7.1,8.8,7.1S256.9,461,256.9,456.2z"/>
<path d="M280.3,468.4c-10.5,0-15-4-15-12.3v-11.9h6.1v11.9c0,3.3,0.9,7.1,8.8,7.1s8.8-3.8,8.8-7.1v-11.9h6.1v11.9
	C295.3,464.4,290.8,468.4,280.3,468.4z"/>
<path d="M322.3,463v5.1h-24.5v-23.8h6.1V463H322.3z"/>
<path d="M330.8,449.1v4.9h19v4.4h-19v4.8h19v4.9h-25.1v-23.8h25.2v4.9L330.8,449.1z M343.9,438.8l-13.2,2.7v-4l13.2-2.7V438.8z"/>
<path d="M357.9,459.9c0,2.5,2,3.7,9.8,3.7c6.4,0,8.4-0.7,8.4-2.6s-1.4-2.3-9.1-2.7c-10.4-0.5-14.5-2.1-14.5-7.5s5.3-6.9,14.2-6.9
	s14.4,2.2,14.4,8.1H375c0-2.6-2.6-3.3-9-3.3c-6,0-7.5,0.6-7.5,2.4s1.4,2.2,8.4,2.6c9.4,0.5,15.2,1,15.2,7c0,6.4-6,7.6-14.8,7.6
	c-9.8,0-15.6-1.7-15.6-8.5L357.9,459.9z"/>
<path d="M429.1,456.2c0,8.1-5.4,11.9-11.6,11.9h-17.3v-23.8h17.3C423.7,444.3,429.1,448.1,429.1,456.2z M423,456.2
	c0-5.8-3.1-6.8-7.8-6.8h-8.8V463h8.8C419.8,463,423,462,423,456.2L423,456.2z"/>
<path d="M450.8,463h-14.2l-2.6,5.1h-6.7l12.3-23.8h8.3l12.3,23.8h-6.8L450.8,463z M448.5,458.5l-4.8-9.7l-4.9,9.7H448.5z"/>
<path d="M492.3,444.3v23.8h-8.3l-16.2-17.9v17.9h-6.1v-23.8h8.3l16.2,17.9v-17.9H492.3z"/>
<path d="M500.4,459.9c0,2.5,2,3.7,9.8,3.7c6.4,0,8.4-0.7,8.4-2.6s-1.4-2.3-9.1-2.7c-10.4-0.5-14.5-2.1-14.5-7.5s5.3-6.9,14.2-6.9
	c8.9,0,14.4,2.2,14.4,8.1h-6.1c0-2.6-2.6-3.3-9-3.3c-6,0-7.5,0.6-7.5,2.4s1.4,2.2,8.4,2.6c9.4,0.5,15.2,1,15.2,7
	c0,6.4-6,7.6-14.8,7.6c-9.8,0-15.6-1.7-15.6-8.5L500.4,459.9z"/>
<path d="M567.3,463v5.1h-24.5v-23.8h6.1V463H567.3z"/>
<path d="M575.8,449.1v4.9h19v4.4h-19v4.8h19v4.9h-25.1v-23.8h25.2v4.9L575.8,449.1z"/>
<path d="M642.4,461.1c0,4-2.3,6.9-7.8,6.9h-21.8v-23.8h20.9c5.4,0,7.1,2.8,7.1,6.2c0,1.7-0.7,3.4-1.9,4.6
	C641.2,456.4,642.5,458.7,642.4,461.1z M619,453.6h12.6c1.6,0,3.1,0,3.1-2.5s-1.5-2.5-3.2-2.5H619V453.6z M636.3,460.8
	c0-2.5-1.5-2.5-3.1-2.5H619v5h14.1C634.8,463.4,636.3,463.4,636.3,460.8L636.3,460.8z"/>
<path d="M650.6,449.1v4.9h19v4.4h-19v4.8h19v4.9h-25.1v-23.8h25.2v4.9L650.6,449.1z M663.6,438.8l-13.2,2.7v-4l13.2-2.7V438.8z"/>
<path d="M700.5,449.4H689v18.7h-6.1v-18.7h-11.6v-5.1h29.2V449.4z"/>
<path d="M701,456.2c0-7.9,4.5-12.2,15-12.2s15,4.4,15,12.2s-4.5,12.3-15,12.3S701,464.1,701,456.2z M724.8,456.2
	c0-4.8-2.5-7.1-8.8-7.1s-8.8,2.2-8.8,7.1s2.5,7.1,8.8,7.1S724.8,461,724.8,456.2z"/>
<path d="M763.8,444.3v23.8h-8.3l-16.2-17.9v17.9h-6.1v-23.8h8.3l16.2,17.9v-17.9H763.8z"/>
<path d="M772.6,463.5v4.6h-5.8v-4.6H772.6z"/>
<path d="M38.6,861.7c0,4-2.7,6-5.8,6h-8.6v-11.9h8.6C35.9,855.7,38.6,857.6,38.6,861.7z M35.5,861.7c0-2.9-1.6-3.4-3.9-3.4h-4.4v6.8
	h4.4C34,865,35.5,864.6,35.5,861.7z"/>
<path d="M47.3,867.8c-5.2,0-7.5-2-7.5-6.1v-5.9h3.1v5.9c0,1.7,0.5,3.6,4.4,3.6s4.4-1.9,4.4-3.6v-5.9h3.1v5.9
	C54.8,865.8,52.5,867.8,47.3,867.8z"/>
<path d="M75.3,864.1l2.2,3.5h-3.6l-1.9-3.2h-4.9v3.2H64v-11.9h9.3c2.3-0.2,4.4,1.5,4.5,3.9c0,0.2,0,0.3,0,0.5
	C78,861.8,77,863.5,75.3,864.1z M67.1,861.9h5.4c0.9,0,2.3,0,2.3-1.8s-1.4-1.8-2.3-1.8h-5.4V861.9z"/>
<path d="M86.5,867.8c-5.2,0-7.5-2-7.5-6.1v-5.9h3.1v5.9c0,1.7,0.4,3.6,4.4,3.6s4.4-1.9,4.4-3.6v-5.9H94v5.9
	C94,865.8,91.7,867.8,86.5,867.8z"/>
<path d="M98.1,863.5c0,1.3,1,1.8,4.9,1.8c3.2,0,4.2-0.4,4.2-1.3s-0.7-1.2-4.5-1.3c-5.2-0.2-7.2-1-7.2-3.7s2.7-3.5,7.1-3.5
	s7.2,1.1,7.2,4.1h-3.1c0-1.3-1.3-1.6-4.5-1.6c-3,0-3.7,0.3-3.7,1.2s0.7,1.1,4.2,1.3c4.7,0.2,7.6,0.5,7.6,3.5c0,3.2-3,3.8-7.4,3.8
	c-4.9,0-7.8-0.8-7.8-4.3L98.1,863.5z"/>
<path d="M114.2,863.5c0,1.3,1,1.8,4.9,1.8c3.2,0,4.2-0.4,4.2-1.3s-0.7-1.2-4.5-1.3c-5.2-0.2-7.2-1-7.2-3.7s2.7-3.5,7.1-3.5
	s7.2,1.1,7.2,4.1h-3.1c0-1.3-1.3-1.6-4.5-1.6c-3,0-3.7,0.3-3.7,1.2s0.7,1.1,4.2,1.3c4.7,0.2,7.6,0.5,7.6,3.5c0,3.2-3,3.8-7.4,3.8
	c-4.9,0-7.8-0.8-7.8-4.3L114.2,863.5z"/>
<path d="M130.5,858.2v2.4h9.5v2.2h-9.5v2.4h9.5v2.4h-12.6v-11.9H140v2.4L130.5,858.2z"/>
<path d="M159.3,862.6c-0.1-1.6-0.2-3.5-0.2-5H159c-0.4,1.3-0.9,2.8-1.4,4.3l-2,5.6h-1.1l-1.9-5.5c-0.6-1.6-1-3.1-1.3-4.5l0,0
	c0,1.4-0.1,3.3-0.2,5.1l-0.3,4.9h-1.4l0.8-11.5h1.9l1.9,5.5c0.5,1.4,0.9,2.7,1.2,3.9h0.1c0.3-1.2,0.7-2.4,1.2-3.9l2-5.5h1.9
	l0.7,11.5h-1.4L159.3,862.6z"/>
<path d="M173.4,861.8c0,4-2.4,6-5.3,6s-5.1-2.3-5.1-5.8c0-3.6,2.3-6,5.3-6S173.4,858.4,173.4,861.8z M164.5,862
	c0,2.5,1.3,4.6,3.7,4.6s3.7-2.2,3.7-4.8c0-2.3-1.2-4.7-3.6-4.7S164.5,859.4,164.5,862L164.5,862z"/>
<path d="M183.7,867.2c-1,0.4-2,0.6-3,0.5c-3.2,0-5.7-2-5.7-5.8c-0.2-3.1,2.2-5.8,5.4-6c0.2,0,0.4,0,0.6,0c0.9,0,1.9,0.1,2.7,0.5
	l-0.4,1.2c-0.7-0.3-1.5-0.5-2.3-0.5c-2.7,0-4.5,1.7-4.5,4.7c0,2.8,1.6,4.6,4.4,4.6c0.8,0,1.7-0.2,2.4-0.5L183.7,867.2z"/>
<path d="M187.3,856.2v5.1h0.5l3.9-5.1h1.8l-4.3,5.3c1.9,0.2,2.6,1.4,3.2,3c0.3,1.1,0.8,2.2,1.3,3.2H192c-0.4-0.9-0.7-1.8-1-2.7
	c-0.5-1.5-1.3-2.5-3.2-2.5h-0.5v5.2h-1.5v-11.5H187.3z"/>
<path d="M195.4,856.3c0.9-0.2,1.8-0.2,2.7-0.2c1.1-0.1,2.2,0.2,3.1,0.8c0.6,0.5,1,1.2,0.9,2c0,1.2-0.8,2.2-1.9,2.5l0,0
	c1.4,0.3,2.3,1.5,2.4,2.9c0,0.9-0.4,1.7-1,2.3c-1.2,0.8-2.6,1.2-4,1.1c-0.8,0-1.5,0-2.3-0.1L195.4,856.3z M196.9,861h1.3
	c1.6,0,2.5-0.8,2.5-1.9c0-1.3-1-1.9-2.5-1.9c-0.4,0-0.9,0-1.3,0.1V861z M196.9,866.5c0.4,0.1,0.8,0.1,1.2,0.1c1.5,0,2.9-0.6,2.9-2.2
	s-1.3-2.2-3-2.2h-1.2V866.5z"/>
<path d="M206.8,864l-1.2,3.6h-1.5l3.9-11.4h1.8l3.9,11.5h-1.6l-1.2-3.6L206.8,864z M210.6,862.8l-1.1-3.3c-0.2-0.8-0.4-1.4-0.6-2.1
	l0,0c-0.2,0.7-0.4,1.4-0.6,2.1l-1.1,3.3H210.6z"/>
<path d="M225.6,870.2h-3l4.4-14.8h3L225.6,870.2z"/>
<path d="M257.4,867.6h-3.1v-8.2l-4.9,8.2h-2.2l-4.9-8.2v8.2h-3.1v-11.9h4.1l5,8.4l5-8.4h4.1L257.4,867.6z"/>
<path d="M258.5,861.7c0-3.9,2.2-6.1,7.5-6.1s7.5,2.2,7.5,6.1s-2.3,6.1-7.5,6.1S258.5,865.6,258.5,861.7z M270.4,861.7
	c0-2.4-1.2-3.5-4.4-3.5s-4.4,1.1-4.4,3.5s1.2,3.6,4.4,3.6S270.4,864.1,270.4,861.7z"/>
<path d="M277.2,863.5c0,1.3,1,1.8,4.9,1.8c3.2,0,4.2-0.4,4.2-1.3s-0.7-1.2-4.5-1.3c-5.2-0.2-7.2-1-7.2-3.7s2.7-3.5,7.1-3.5
	s7.2,1.1,7.2,4.1h-3.1c0-1.3-1.3-1.6-4.5-1.6c-3,0-3.7,0.3-3.7,1.2s0.7,1.1,4.2,1.3c4.7,0.2,7.6,0.5,7.6,3.5c0,3.2-3,3.8-7.4,3.8
	c-4.9,0-7.8-0.8-7.8-4.3L277.2,863.5z"/>
<path d="M299.4,861l7.2,6.6h-4.2l-5.2-5l-3.6,2.7v2.3h-3.1v-11.9h3.1v6.2l8.5-6.2h4.6L299.4,861z"/>
<path d="M323.5,855.7l-6.1,11.9h-4.2l-6.1-11.9h3.4l4.8,9.6l4.8-9.6H323.5z"/>
<path d="M330.9,865.1h-7.1l-1.3,2.5h-3.4l6.1-11.9h4.1l6.1,11.9h-3.4L330.9,865.1z M329.8,862.8l-2.4-4.8l-2.4,4.8H329.8z"/>
<path d="M359.1,861.7c0,4-2.7,6-5.8,6h-8.6v-11.9h8.6C356.4,855.7,359.1,857.6,359.1,861.7z M356,861.7c0-2.9-1.6-3.4-3.9-3.4h-4.4
	v6.8h4.4C354.5,865,356,864.6,356,861.7L356,861.7z"/>
<path d="M367.8,867.8c-5.2,0-7.5-2-7.5-6.1v-5.9h3.1v5.9c0,1.7,0.5,3.6,4.4,3.6s4.4-1.9,4.4-3.6v-5.9h3.1v5.9
	C375.2,865.8,373,867.8,367.8,867.8z"/>
<path d="M395.8,864.1l2.2,3.5h-3.6l-1.9-3.2h-4.9v3.2h-3.1v-11.9h9.4c2.3-0.2,4.4,1.6,4.5,3.9c0,0.2,0,0.3,0,0.5
	C398.5,861.8,397.4,863.5,395.8,864.1z M387.5,861.9h5.5c0.9,0,2.3,0,2.3-1.8s-1.4-1.8-2.3-1.8h-5.4L387.5,861.9z"/>
<path d="M410.4,865.1h-7.1l-1.3,2.5h-3.4l6.1-11.9h4.1l6.1,11.9h-3.4L410.4,865.1z M409.2,862.8l-2.4-4.8l-2.4,4.8L409.2,862.8z"/>
<path d="M430.2,861.7c0,4-2.7,6-5.8,6h-8.6v-11.9h8.6C427.5,855.7,430.2,857.6,430.2,861.7z M427.1,861.7c0-2.9-1.6-3.4-3.9-3.4
	h-4.4v6.8h4.4C425.6,865,427.1,864.6,427.1,861.7z"/>
<path d="M434.4,867.6h-3.1v-11.9h3.1V867.6z"/>
<path d="M442.9,855.5c4.7,0,7.1,1.8,7.4,5.2h-3.1c-0.3-1.9-1.8-2.7-4.3-2.7c-3.1,0-4.4,1.1-4.4,3.5s1.3,3.6,4.4,3.6
	c2.5,0,4-0.8,4.3-2.7h3.1c-0.3,3.5-2.7,5.3-7.4,5.3c-5.2,0-7.5-2.2-7.5-6.1S437.6,855.5,442.9,855.5z"/>
<path d="M461.1,865.1H454l-1.3,2.5h-3.4l6.1-11.9h4.1l6.1,11.9h-3.4L461.1,865.1z M460,862.8l-2.4-4.8l-2.4,4.8L460,862.8z"/>
<path d="M478.8,865v2.6h-12.2v-11.9h3.1v9.3H478.8z"/>
<path d="M504.1,855.7l-6.1,11.9h-4.2l-6.1-11.9h3.4l4.8,9.6l4.8-9.6H504.1z"/>
<path d="M507.9,867.6h-3.1v-11.9h3.1V867.6z"/>
<path d="M512.3,858.2v2.4h9.5v2.2h-9.5v2.4h9.5v2.4h-12.6v-11.9h12.6v2.4L512.3,858.2z"/>
<path d="M530.6,867.8c-5.2,0-7.5-2-7.5-6.1v-5.9h3.1v5.9c0,1.7,0.5,3.6,4.4,3.6s4.4-1.9,4.4-3.6v-5.9h3.1v5.9
	C538.1,865.8,535.8,867.8,530.6,867.8z"/>
<path d="M545.5,861.7l-6.7-6h4.2l4.6,4.1l4.5-4.1h4.2l-6.7,6l6.7,6h-4.2l-4.5-4.1l-4.6,4h-4.2L545.5,861.7z"/>
<path d="M568.3,863.5c0,1.3,1,1.8,4.9,1.8c3.2,0,4.2-0.4,4.2-1.3s-0.7-1.2-4.5-1.3c-5.2-0.2-7.2-1-7.2-3.7s2.7-3.5,7.1-3.5
	s7.2,1.1,7.2,4.1h-3.1c0-1.3-1.3-1.6-4.5-1.6c-3,0-3.7,0.3-3.7,1.2s0.7,1.1,4.2,1.3c4.7,0.2,7.6,0.5,7.6,3.5c0,3.2-3,3.8-7.4,3.8
	c-4.9,0-7.8-0.8-7.8-4.3L568.3,863.5z"/>
<path d="M593.8,865v2.6h-12.2v-11.9h3.1v9.3H593.8z"/>
<path d="M606.4,865.1h-7.1l-1.2,2.5h-3.4l6.1-11.9h4.1l6.2,11.9h-3.4L606.4,865.1z M605.2,862.8l-2.4-4.8l-2.4,4.8L605.2,862.8z"/>
<path d="M623,855.7l-6.1,11.9h-4.2l-6.1-11.9h3.4l4.8,9.6l4.8-9.6H623z"/>
<path d="M626.8,858.2v2.4h9.5v2.2h-9.5v2.4h9.5v2.4h-12.6v-11.9h12.6v2.4L626.8,858.2z"/>
<path d="M35.8,889.1h-7.1l-1.3,2.5H24l6.1-11.9h4.2l6.2,11.9h-3.4L35.8,889.1z M34.7,886.8l-2.4-4.8l-2.4,4.8L34.7,886.8z"/>
<path d="M55.1,884.1c0.1,2.3-1.7,4.3-4.1,4.4c-0.2,0-0.3,0-0.5,0h-6.3v3.2h-3.1v-11.9h9.3c2.3-0.2,4.4,1.5,4.5,3.9
	C55.1,883.8,55.1,883.9,55.1,884.1z M52,884.1c0-1.8-1.4-1.8-2.3-1.8h-5.4v3.6h5.4C50.6,885.9,52,885.9,52,884.1L52,884.1z"/>
<path d="M70.1,884.1c0.1,2.3-1.7,4.3-4.1,4.4c-0.2,0-0.3,0-0.5,0h-6.3v3.2h-3.1v-11.9h9.4c2.3-0.2,4.4,1.5,4.5,3.9
	C70.1,883.8,70.1,883.9,70.1,884.1z M67,884.1c0-1.8-1.4-1.8-2.3-1.8h-5.4v3.6h5.4C65.6,885.9,67,885.9,67,884.1L67,884.1z"/>
<path d="M80.2,889.1h-7.1l-1.3,2.5h-3.4l6.1-11.9h4.1l6.2,11.9h-3.4L80.2,889.1z M79.1,886.8l-2.4-4.8l-2.4,4.8L79.1,886.8z"/>
<path d="M96.9,888.1l2.2,3.5h-3.6l-1.9-3.2h-4.9v3.2h-3.1v-11.9h9.3c2.3-0.2,4.4,1.5,4.5,3.9c0,0.2,0,0.3,0,0.5
	C99.6,885.8,98.6,887.5,96.9,888.1z M88.7,885.9h5.4c0.9,0,2.3,0,2.3-1.8s-1.4-1.8-2.3-1.8h-5.4V885.9z"/>
<path d="M103.6,882.2v2.4h9.5v2.2h-9.5v2.4h9.5v2.4h-12.6v-11.9h12.6v2.4L103.6,882.2z"/>
<path d="M129.5,879.7v11.9h-4.2l-8.1-8.9v8.9h-3.1v-11.9h4.2l8.1,8.9v-8.9H129.5z"/>
<path d="M145.1,882.3h-5.8v9.3h-3.1v-9.3h-5.8v-2.6h14.6V882.3z"/>
<path d="M149.2,882.2v2.4h9.5v2.2h-9.5v2.4h9.5v2.4h-12.6v-11.9h12.6v2.4L149.2,882.2z M155.7,877l-6.6,1.4v-2l6.6-1.4V877z"/>
<path d="M179.4,889.1h-7.1l-1.2,2.5h-3.4l6.1-11.9h4.1l6.1,11.9h-3.4L179.4,889.1z M178.2,886.8l-2.4-4.8l-2.4,4.8L178.2,886.8z"/>
<path d="M191.1,891.8c-5.2,0-7.5-2-7.5-6.1v-5.9h3.1v5.9c0,1.7,0.5,3.6,4.4,3.6s4.4-1.9,4.4-3.6v-5.9h3.1v5.9
	C198.6,889.8,196.3,891.8,191.1,891.8z"/>
<path d="M220,889v2.6h-12.2v-11.9h3.1v9.3H220z"/>
<path d="M232.6,889.1h-7.1l-1.3,2.5h-3.4l6.1-11.9h4.1l6.1,11.9h-3.4L232.6,889.1z M231.5,886.8l-2.4-4.8l-2.4,4.8L231.5,886.8z"/>
<path d="M249.3,882.3h-5.8v9.3h-3.1v-9.3h-5.8v-2.6h14.6V882.3z"/>
<path d="M253.3,891.6h-3.1v-11.9h3.1V891.6z"/>
<path d="M270,879.7v11.9h-4.2l-8.1-8.9v8.9h-3v-11.9h4.2l8.1,8.9v-8.9H270z"/>
<path d="M297.5,891.6h-3.1v-8.2l-5,8.2h-2.2l-4.9-8.2v8.2h-3.1v-11.9h4.1l5,8.4l5-8.4h4.1L297.5,891.6z"/>
<path d="M306.3,891.8c-5.2,0-7.5-2-7.5-6.1v-5.9h3.1v5.9c0,1.7,0.5,3.6,4.4,3.6s4.4-1.9,4.4-3.6v-5.9h3.1v5.9
	C313.8,889.8,311.5,891.8,306.3,891.8z"/>
<path d="M318,887.5c0,1.3,1,1.8,4.9,1.8c3.2,0,4.2-0.4,4.2-1.3s-0.7-1.2-4.5-1.3c-5.2-0.2-7.2-1-7.2-3.7s2.7-3.5,7.1-3.5
	s7.2,1.1,7.2,4.1h-3.1c0-1.3-1.3-1.6-4.5-1.6c-3,0-3.7,0.3-3.7,1.2s0.7,1.1,4.2,1.3c4.7,0.2,7.6,0.5,7.6,3.5c0,3.2-3,3.8-7.4,3.8
	c-4.9,0-7.8-0.8-7.8-4.3L318,887.5z"/>
<path d="M344.7,882.3H339v9.3h-3.1v-9.3h-5.8v-2.6h14.6L344.7,882.3z"/>
<path d="M353.3,891.8c-5.2,0-7.5-2-7.5-6.1v-5.9h3.1v5.9c0,1.7,0.5,3.6,4.4,3.6s4.4-1.9,4.4-3.6v-5.9h3.1v5.9
	C360.8,889.8,358.5,891.8,353.3,891.8z"/>
<path d="M365,887.5c0,1.3,1,1.8,4.9,1.8c3.2,0,4.2-0.4,4.2-1.3s-0.7-1.2-4.5-1.3c-5.2-0.2-7.2-1-7.2-3.7s2.7-3.5,7.1-3.5
	s7.2,1.1,7.2,4.1h-3.1c0-1.3-1.3-1.6-4.5-1.6c-3,0-3.7,0.3-3.7,1.2s0.7,1.1,4.2,1.3c4.7,0.2,7.6,0.5,7.6,3.5c0,3.2-3,3.8-7.4,3.8
	c-4.9,0-7.8-0.8-7.8-4.3L365,887.5z"/>
<path d="M381.3,884.2v2.3h-2.9v-2.3H381.3z M381.3,889.3v2.3h-2.9v-2.3H381.3z"/>
<path d="M408.8,891.6h-3.1v-8.2l-4.9,8.2h-2.2l-5-8.2v8.2h-3.1v-11.9h4.1l5,8.4l5-8.4h4.1L408.8,891.6z"/>
<path d="M409.8,885.7c0-3.9,2.2-6.1,7.5-6.1s7.5,2.2,7.5,6.1s-2.3,6.1-7.5,6.1S409.8,889.6,409.8,885.7z M421.7,885.7
	c0-2.4-1.2-3.5-4.4-3.5s-4.4,1.1-4.4,3.5s1.2,3.6,4.4,3.6S421.7,888.1,421.7,885.7L421.7,885.7z"/>
<path d="M433.4,891.8c-5.2,0-7.5-2-7.5-6.1v-5.9h3.1v5.9c0,1.7,0.5,3.6,4.4,3.6s4.4-1.9,4.4-3.6v-5.9h3.1v5.9
	C440.9,889.8,438.6,891.8,433.4,891.8z"/>
<path d="M445.2,891.6h-3.1v-11.9h3.1V891.6z"/>
<path d="M458.8,889v2.6h-12.2v-11.9h3.1v9.3H458.8z"/>
<path d="M472.2,889v2.6H460v-11.9h3.1v9.3H472.2z"/>
<path d="M476.5,882.2v2.4h9.5v2.2h-9.5v2.4h9.5v2.4h-12.6v-11.9H486v2.4L476.5,882.2z M483,877l-6.6,1.4v-2l6.6-1.4V877z"/>
<path d="M490.2,889.3v2.3h-2.9v-2.3H490.2z"/>
<path d="M785.1,880.3h13v5.1h-7.9l7.9,3.3v4.7l-7.9,3.3h7.9v5.1h-13v-8l7-2.8l-7-2.8V880.3z"/>
<path d="M797.7,874.8c-0.5,1.2-1.3,2.2-2.3,2.9c-1.1,0.7-2.4,1-3.8,1c-2,0.1-3.9-0.7-5.1-2.2c-1.3-1.8-1.9-4.1-1.8-6.3
	c0-1.6,0.2-3.1,0.8-4.6c0.5-1.2,1.3-2.3,2.3-3c2.3-1.3,5.2-1.3,7.5,0c1.1,0.7,1.9,1.8,2.3,3c0.6,1.5,0.8,3,0.8,4.6
	C798.6,871.7,798.3,873.3,797.7,874.8z M793.5,867.6c-0.5-0.5-1.2-0.7-1.9-0.7c-0.7,0-1.4,0.2-1.9,0.7c-0.9,1.6-0.9,3.6,0,5.2
	c0.5,0.5,1.2,0.7,1.9,0.7c0.7,0,1.4-0.2,1.9-0.7C794.5,871.1,794.5,869.1,793.5,867.6z"/>
<path d="M792.9,847.2h-7.8v-5.1h13v7.6l-7.8,5.1h7.8v5.1h-13v-7.6L792.9,847.2z"/>
<path d="M791.8,824.4c1.9-0.1,3.7,0.6,5,1.9c1.1,1.3,1.7,3.3,1.7,6s-0.5,4.8-1.7,6.1c-1.3,1.4-3.1,2.1-5,1.9h-6.7v-5h6.5
	c0.7,0,1.4-0.2,1.9-0.7c1-1.3,1-3.1,0-4.4c-0.5-0.5-1.2-0.7-1.9-0.7h-6.5v-5.1L791.8,824.4z"/>
<path d="M785.1,801h13v5.1h-7.9l7.9,3.3v4.7l-7.9,3.3h7.9v5.1h-13v-8l7-2.8l-7-2.8V801z"/>
<path d="M785.1,785.7h3.8v8.3h1v-8h3.4v8h1v-8.3h3.8v13.4h-13L785.1,785.7z"/>
<path d="M792.9,771.2h-7.8v-5.1h13v7.6l-7.8,5.1h7.8v5.1h-13v-7.6L792.9,771.2z"/>
<path d="M785.1,748.8h4.3v5.2h8.8v5.1h-8.8v5.2h-4.3V748.8z"/>
<path d="M798.2,730.8v5.4l-2.1,0.9v6.6l2.1,0.9v5.4l-13-6v-7.3L798.2,730.8z M788.7,740.4l3.8,1.7v-3.4L788.7,740.4z"/>
<path d="M785.1,724.5h8.8v-8.1h4.3v13.2h-13L785.1,724.5z"/>
<path d="M785.1,701.3h3.8v8.3h1v-8h3.4v8h1v-8.3h3.8v13.4h-13L785.1,701.3z"/>
<path d="M738.3,798.4c-0.4-0.2-0.6-0.4-0.8-0.8c-0.4-0.7-0.4-1.6,0-2.4c0.2-0.3,0.5-0.6,0.8-0.8c0.4-0.2,0.9-0.3,1.4-0.3
	c0.5,0,0.9,0.1,1.4,0.3c0.4,0.2,0.7,0.4,0.8,0.8c0.2,0.4,0.3,0.8,0.3,1.2c0,0.4-0.1,0.8-0.3,1.2c-0.2,0.3-0.5,0.6-0.8,0.8
	c-0.4,0.2-0.9,0.3-1.4,0.3C739.2,798.7,738.8,798.6,738.3,798.4z M740.8,797.5c0.5-0.6,0.5-1.5,0-2.2c-0.7-0.5-1.6-0.5-2.3,0
	c-0.3,0.3-0.4,0.7-0.4,1.1c0,0.4,0.1,0.8,0.4,1.1c0.3,0.3,0.7,0.4,1.1,0.4C740.1,797.9,740.5,797.8,740.8,797.5L740.8,797.5z"/>
<path d="M739.7,771.3v3.5h1.5v0.8h-4v-0.8h1.5v-2.6l-1.3,0.5l-0.3-0.8l1.5-0.5H739.7z"/>
<path d="M742.9,775.4c-0.4-0.2-0.7-0.4-0.8-0.8c-0.2-0.4-0.3-0.8-0.3-1.2c0-0.4,0.1-0.8,0.3-1.2c0.2-0.3,0.5-0.6,0.8-0.8
	c0.9-0.4,1.9-0.4,2.8,0c0.4,0.2,0.6,0.4,0.8,0.8c0.4,0.7,0.4,1.6,0,2.4c-0.2,0.3-0.5,0.6-0.8,0.8c-0.4,0.2-0.9,0.3-1.4,0.3
	C743.8,775.7,743.4,775.6,742.9,775.4z M745.5,774.5c0.3-0.3,0.4-0.7,0.4-1.1c0-0.4-0.1-0.8-0.4-1.1c-0.3-0.3-0.7-0.4-1.1-0.4
	c-0.4,0-0.8,0.1-1.1,0.4c-0.5,0.6-0.5,1.5,0,2.2c0.3,0.3,0.7,0.4,1.1,0.4C744.7,774.9,745.1,774.8,745.5,774.5L745.5,774.5z"/>
<path d="M741.6,750.3c-0.2,0.2-0.5,0.4-0.7,0.5c-0.4,0.1-0.7,0.2-1.1,0.3c-0.3,0.1-0.7,0.2-1,0.3c-0.2,0.1-0.3,0.2-0.4,0.4h3.6v0.8
	h-4.7v-0.5c0-0.3,0.1-0.6,0.3-0.8c0.2-0.2,0.5-0.4,0.7-0.5c0.3-0.1,0.7-0.2,1.1-0.4l0.8-0.2c0.2-0.1,0.3-0.2,0.5-0.3
	c0.1-0.1,0.2-0.2,0.2-0.4c0-0.2-0.1-0.4-0.3-0.4c-0.3-0.1-0.7-0.2-1-0.2c-0.4,0-0.7,0-1.1,0.2c-0.2,0.1-0.4,0.4-0.3,0.7h-1
	c0-0.5,0.2-1,0.7-1.2c0.5-0.3,1.1-0.4,1.7-0.4c0.6,0,1.1,0.1,1.6,0.3c0.5,0.3,0.7,1,0.4,1.6C741.7,750.2,741.6,750.2,741.6,750.3
	L741.6,750.3z"/>
<path d="M743.8,752.4c-0.4-0.2-0.6-0.4-0.8-0.8c-0.2-0.4-0.3-0.8-0.3-1.2c0-0.4,0.1-0.8,0.3-1.2c0.2-0.3,0.5-0.6,0.8-0.8
	c0.9-0.4,1.9-0.4,2.8,0c0.4,0.2,0.6,0.4,0.8,0.8c0.2,0.4,0.3,0.8,0.3,1.2c0,0.4-0.1,0.8-0.3,1.2c-0.2,0.3-0.5,0.6-0.8,0.8
	C745.7,752.8,744.7,752.8,743.8,752.4L743.8,752.4z M746.3,751.5c0.5-0.6,0.5-1.5,0-2.2c-0.3-0.3-0.7-0.4-1.1-0.4
	c-0.4,0-0.8,0.1-1.1,0.4c-0.3,0.3-0.4,0.7-0.4,1.1c0,0.4,0.1,0.8,0.4,1.1c0.3,0.3,0.7,0.4,1.1,0.4
	C745.6,751.9,746,751.8,746.3,751.5L746.3,751.5z"/>
<path d="M742,728.4c0,0.4-0.2,0.8-0.6,1c-0.5,0.2-1.1,0.4-1.7,0.3c-0.6,0-1.3-0.1-1.8-0.4c-0.4-0.2-0.7-0.7-0.7-1.2h1
	c0,0.2,0.1,0.4,0.2,0.5c0.1,0.1,0.3,0.2,0.5,0.3c0.3,0.1,0.6,0.1,0.9,0.1c0.3,0,0.5,0,0.8-0.1c0.2,0,0.3-0.1,0.4-0.2
	c0.1-0.1,0.1-0.2,0.1-0.3c0-0.1-0.1-0.3-0.2-0.4c-0.2-0.1-0.4-0.2-0.6-0.2c-0.4,0-0.7,0-1.1,0v-0.6c0.4,0,0.7,0,1.1,0
	c0.2,0,0.4-0.1,0.5-0.2c0.1-0.1,0.2-0.2,0.2-0.4c0-0.2-0.1-0.4-0.3-0.4c-0.3-0.1-0.7-0.2-1-0.1c-0.3,0-0.6,0-0.9,0.1
	c-0.2,0-0.4,0.1-0.5,0.3c-0.1,0.1-0.2,0.3-0.2,0.5h-0.9c0-0.5,0.2-1,0.7-1.2c1.1-0.5,2.4-0.5,3.5-0.1c0.4,0.2,0.6,0.6,0.6,1
	c-0.5,0.2-0.8,0.7-0.6,1.3c0.1,0.3,0.4,0.6,0.7,0.6L742,728.4z"/>
<path d="M743.9,729.4c-0.4-0.2-0.6-0.4-0.8-0.8c-0.4-0.7-0.4-1.6,0-2.4c0.2-0.3,0.5-0.6,0.8-0.8c0.9-0.4,1.9-0.4,2.8,0
	c0.4,0.2,0.6,0.4,0.8,0.8c0.2,0.4,0.3,0.8,0.3,1.2c0,0.4-0.1,0.8-0.3,1.2c-0.2,0.3-0.5,0.6-0.8,0.8c-0.4,0.2-0.9,0.3-1.4,0.3
	C744.8,729.7,744.3,729.6,743.9,729.4z M746.4,728.5c0.5-0.6,0.5-1.5,0-2.2c-0.3-0.3-0.7-0.4-1.1-0.4c-0.4,0-0.8,0.1-1.1,0.4
	c-0.3,0.3-0.4,0.7-0.4,1.1c0,0.4,0.1,0.8,0.4,1.1c0.3,0.3,0.7,0.4,1.1,0.4C745.7,728.9,746.1,728.8,746.4,728.5z"/>
<line class="st1" x1="731.3" y1="797.2" x2="731.3" y2="727.2"/>
<line class="st2" x1="731.6" y1="797.2" x2="715" y2="797.2"/>
<line class="st2" x1="731.6" y1="750.6" x2="715" y2="750.6"/>
<line class="st2" x1="731.6" y1="773.9" x2="715" y2="773.9"/>
<line class="st2" x1="731.6" y1="738.9" x2="722.2" y2="738.9"/>
<line class="st2" x1="731.6" y1="762.2" x2="722.2" y2="762.2"/>
<line class="st2" x1="731.6" y1="785.6" x2="722.2" y2="785.6"/>
<line class="st2" x1="731.6" y1="727.2" x2="715" y2="727.2"/>
<rect x="1" y="688.9" class="st3" width="766.5" height="144"/>
<rect x="1" y="688.9" class="st4" width="818" height="225.3"/>
<rect x="682.7" y="688.9" class="st4" width="84.8" height="144"/>
<rect x="682.7" y="832.9" class="st5" width="84.8" height="81.3"/>
<polygon class="st6" points="725.1,865.5 727.1,869.8 731.7,868.7 729.7,873 733.4,875.9 728.8,876.9 728.8,881.7 725.1,878.7 
	721.4,881.7 721.4,876.9 716.8,875.9 720.5,873 718.4,868.7 723,869.8 "/>
<line class="st4" x1="996.2" y1="128.2" x2="996.2" y2="218.4"/>
<line class="st4" x1="995.8" y1="128.2" x2="1075.7" y2="128.2"/>
<line class="st4" x1="1746.9" y1="128.2" x2="1746.9" y2="218.4"/>
<line class="st4" x1="1747.4" y1="128.2" x2="1667.5" y2="128.2"/>
<line class="st4" x1="1746.9" y1="750.2" x2="1746.9" y2="660.1"/>
<line class="st4" x1="1747.4" y1="750.2" x2="1667.5" y2="750.2"/>
<line class="st4" x1="996.2" y1="750.2" x2="996.2" y2="660.1"/>
<line class="st4" x1="995.8" y1="750.2" x2="1075.7" y2="750.2"/>
<path class="st6" d="M1365.9,773.6h9.6v1.6l-6.8,5.3h6.8v1.6h-9.6v-1.6l6.7-5.3h-6.7V773.6z"/>
<path class="st6" d="M1377.9,781.2c-0.9-0.8-1.5-2-1.4-3.3c-0.1-1.3,0.5-2.5,1.4-3.3c2.5-1.6,5.7-1.6,8.2,0c0.9,0.8,1.5,2,1.4,3.3
	c0,0.8-0.2,1.7-0.6,2.4c-0.4,0.7-1.1,1.2-1.8,1.5c-1,0.4-2,0.6-3,0.5C1380.6,782.4,1379.1,782,1377.9,781.2z M1385.5,777.9
	c0-1.9-1.2-2.9-3.5-2.9c-0.9-0.1-1.9,0.2-2.6,0.7c-0.6,0.5-0.9,1.3-0.9,2.2c0,1.9,1.2,2.9,3.5,2.9S1385.5,779.8,1385.5,777.9
	L1385.5,777.9z"/>
<path class="st6" d="M1397.9,780.4v-6.8h1.8v8.5h-2.7l-6.2-6.8v6.8h-1.9v-8.5h2.7L1397.9,780.4z"/>
<path class="st6" d="M1410.5,773.6v1.5h-7v1.9h6.8v1.5h-6.8v1.9h7v1.5h-8.9v-8.5H1410.5z"/>
<path class="st6" d="M1427.7,778c0.1,1.2-0.4,2.4-1.3,3.3c-2.5,1.4-5.5,1.4-8,0c-0.9-0.8-1.4-2.1-1.3-3.3v-4.3h1.8v4.3
	c0,0.5,0.1,0.9,0.2,1.4c0.2,0.4,0.6,0.8,1,1c1.4,0.5,3,0.5,4.4,0c0.4-0.2,0.8-0.6,1-1c0.2-0.4,0.3-0.9,0.2-1.4v-4.3h1.8L1427.7,778z
	"/>
<path class="st6" d="M1439.4,773.6v1.6h-4.2v6.9h-1.8v-6.9h-4.2v-1.6H1439.4z"/>
<path class="st6" d="M1454.1,773.6v8.5h-1.8v-6.8l-3.9,6.8h-1.7l-3.9-6.8v6.8h-1.8v-8.5h2.9l3.7,6.4l3.7-6.4H1454.1z"/>
<path class="st6" d="M1460.8,778.5V777h1.8v1.5H1460.8z M1460.8,782.1v-1.5h1.8v1.5H1460.8z"/>
<path class="st6" d="M1478.8,779.7c0,0.8-0.4,1.6-1.2,2c-1.1,0.5-2.3,0.7-3.4,0.6c-1.3,0.1-2.5-0.2-3.7-0.7
	c-0.8-0.5-1.3-1.4-1.3-2.4h1.9c0,0.4,0.1,0.7,0.3,1c0.3,0.3,0.6,0.4,1,0.5c0.6,0.1,1.2,0.2,1.8,0.1c0.5,0,1,0,1.6-0.1
	c0.3,0,0.6-0.2,0.8-0.4c0.2-0.2,0.3-0.4,0.3-0.7c0-0.3-0.1-0.6-0.3-0.8c-0.3-0.2-0.7-0.4-1.1-0.4c-0.7-0.1-1.5-0.1-2.2-0.1v-1.2
	c0.7,0,1.4,0,2.1-0.1c0.4,0,0.8-0.2,1.1-0.4c0.2-0.2,0.3-0.5,0.3-0.8c0-0.4-0.2-0.7-0.6-0.8c-0.6-0.2-1.3-0.3-2-0.3
	c-0.6,0-1.2,0-1.8,0.2c-0.4,0.1-0.7,0.2-1,0.5c-0.2,0.3-0.3,0.6-0.3,1h-1.9c0-1,0.5-1.9,1.3-2.4c1.1-0.6,2.4-0.8,3.7-0.8
	c1.1-0.1,2.3,0.2,3.3,0.6c0.7,0.3,1.2,1.1,1.2,1.9c0,0.9-0.6,1.7-1.5,1.9C1478.3,778.2,1478.8,778.8,1478.8,779.7z"/>
<path class="st6" d="M1480,773.6h8.9v1.5c-1,0.6-2,1.3-2.8,2.1c-0.7,0.6-1.2,1.4-1.6,2.2c-0.3,0.8-0.5,1.7-0.5,2.7h-1.9
	c0-1.4,0.3-2.7,1-3.9c0.8-1.3,2-2.4,3.4-3.1h-6.6V773.6z"/>
<path class="st6" d="M1501.1,778c0.1,1.2-0.4,2.4-1.3,3.3c-2.5,1.4-5.5,1.4-8,0c-0.9-0.8-1.4-2.1-1.3-3.3v-4.3h1.8v4.3
	c0,0.5,0.1,0.9,0.2,1.4c0.2,0.4,0.6,0.8,1,1c0.7,0.3,1.4,0.4,2.2,0.4c0.7,0,1.5-0.1,2.2-0.4c0.4-0.2,0.8-0.6,1-1
	c0.2-0.4,0.2-0.9,0.2-1.4v-4.3h1.8L1501.1,778z"/>
<path class="st6" d="M1368.5,800.1h-2.6l4.6-4.2l-4.6-4.2h2.6l3.2,3l3.3-3h2.7l-4.7,4.2l4.7,4.2h-2.7l-3.3-3L1368.5,800.1z"/>
<path class="st6" d="M1384.4,796.5V795h1.8v1.5H1384.4z M1384.4,800.1v-1.5h1.8v1.5H1384.4z"/>
<path class="st6" d="M1400.8,797.1h1.8v1.5h-1.8v1.5h-1.8v-1.5h-6.1v-1.5l6.1-5.5h1.8V797.1z M1398.9,793.5l-3.9,3.6h3.9V793.5z"/>
<path class="st6" d="M1409,791.6v6.9h3.1v1.5h-8v-1.5h3.1v-5.2l-2.5,0.9l-0.5-1.5l3.1-1.1H1409z"/>
<path class="st6" d="M1423,797.7c0,0.8-0.4,1.6-1.2,2c-1.1,0.5-2.3,0.7-3.4,0.6c-1.3,0.1-2.5-0.2-3.7-0.7c-0.8-0.5-1.3-1.4-1.3-2.4
	h1.9c0,0.4,0.1,0.7,0.3,1c0.3,0.3,0.6,0.4,1,0.5c0.6,0.1,1.2,0.2,1.8,0.1c0.5,0,1,0,1.6-0.1c0.3,0,0.6-0.2,0.8-0.4
	c0.2-0.2,0.3-0.4,0.3-0.7c0-0.3-0.1-0.6-0.3-0.8c-0.3-0.2-0.7-0.4-1.1-0.4c-0.7-0.1-1.5-0.1-2.2-0.1v-1.2c0.7,0,1.4,0,2.1-0.1
	c0.4,0,0.8-0.2,1.1-0.4c0.2-0.2,0.4-0.5,0.3-0.8c0-0.4-0.2-0.7-0.6-0.8c-0.6-0.2-1.3-0.3-2-0.3c-0.6,0-1.2,0-1.8,0.2
	c-0.4,0.1-0.7,0.2-1,0.5c-0.2,0.3-0.3,0.6-0.3,1h-1.9c0-1,0.5-1.9,1.3-2.4c1.1-0.6,2.4-0.8,3.7-0.8c1.1-0.1,2.3,0.2,3.3,0.6
	c0.7,0.3,1.2,1.1,1.2,1.9c0,0.9-0.6,1.7-1.5,1.9C1422.4,796.2,1423,796.8,1423,797.7z"/>
<path class="st6" d="M1429.6,791.6v6.9h3.1v1.5h-8v-1.5h3.1v-5.2l-2.5,0.9l-0.5-1.5l3.1-1.1H1429.6z"/>
<path class="st6" d="M1436.1,799.8c-0.7-0.3-1.3-0.9-1.7-1.6c-0.4-0.7-0.6-1.5-0.6-2.4c0-0.8,0.2-1.6,0.6-2.4c0.4-0.7,1-1.2,1.7-1.6
	c1.8-0.7,3.7-0.7,5.5,0c0.7,0.3,1.3,0.9,1.7,1.6c0.7,1.5,0.7,3.2,0,4.7c-0.4,0.7-1,1.2-1.7,1.6
	C1439.8,800.5,1437.8,800.5,1436.1,799.8L1436.1,799.8z M1441.1,798c0.6-0.6,0.8-1.4,0.8-2.2c0.1-0.8-0.2-1.6-0.8-2.2
	c-0.6-0.5-1.4-0.8-2.3-0.8c-0.8-0.1-1.6,0.2-2.3,0.8c-0.6,0.6-0.9,1.4-0.8,2.2c-0.1,0.8,0.2,1.6,0.8,2.2
	C1437.9,799,1439.7,799,1441.1,798z"/>
<path class="st6" d="M1454,794.9c0.7,0.5,1.1,1.4,1.1,2.2c0,0.9-0.4,1.8-1.2,2.3c-1,0.6-2.2,0.9-3.4,0.8c-1,0-1.9-0.1-2.9-0.4
	c-0.7-0.3-1.2-0.7-1.6-1.3c-0.4-0.8-0.6-1.6-0.5-2.5v-0.2c-0.1-1.3,0.4-2.6,1.4-3.5c1.1-0.7,2.4-1.1,3.8-1c0.6,0,1.3,0,1.9,0.1
	c0.5,0,1.2,0.1,1.8,0.2v1.5c-0.8-0.1-1.4-0.2-1.9-0.3s-1-0.1-1.6-0.1c-0.7,0-1.3,0-2,0.2c-0.4,0.1-0.8,0.3-1.1,0.7
	c-0.3,0.4-0.4,0.9-0.4,1.4c0.4-0.3,0.9-0.6,1.4-0.7c0.6-0.2,1.3-0.3,2-0.3C1452,794.1,1453.1,794.4,1454,794.9z M1452.5,798.4
	c0.4-0.3,0.7-0.7,0.6-1.2c0-0.5-0.2-1-0.6-1.2c-0.7-0.3-1.4-0.5-2.2-0.4c-1.9,0-2.8,0.5-2.8,1.6c0,0.5,0.2,1,0.7,1.2
	C1449.5,799,1451.1,799,1452.5,798.4L1452.5,798.4z"/>
<path class="st6" d="M1456.8,800.1v-1.5h1.8v1.5H1456.8z"/>
<path class="st6" d="M1470,795.8c0.1,1.3-0.4,2.6-1.4,3.5c-1.1,0.7-2.4,1.1-3.8,1c-0.6,0-1.3,0-1.9-0.1c-0.5-0.1-1.2-0.1-1.8-0.2
	v-1.5l0.5,0.1c0.6,0.1,1.1,0.2,1.5,0.2c0.5,0,0.9,0.1,1.4,0.1c0.7,0,1.3,0,1.9-0.2c0.4-0.1,0.8-0.3,1.1-0.7c0.3-0.4,0.4-0.9,0.4-1.4
	c-0.4,0.3-0.9,0.6-1.5,0.7c-0.6,0.2-1.3,0.3-2,0.3c-1.1,0.1-2.1-0.2-3-0.8c-0.7-0.5-1.1-1.3-1.1-2.2c0-0.9,0.4-1.8,1.2-2.3
	c1-0.6,2.2-0.9,3.4-0.8c1,0,1.9,0.1,2.9,0.4c0.7,0.2,1.2,0.7,1.6,1.3c0.4,0.8,0.6,1.6,0.5,2.5L1470,795.8L1470,795.8z M1468,794.5
	c0-1.1-0.9-1.6-2.8-1.7c-0.8-0.1-1.5,0.1-2.2,0.4c-0.7,0.5-0.8,1.5-0.3,2.1c0.1,0.1,0.2,0.2,0.3,0.3c0.7,0.3,1.4,0.5,2.2,0.4
	C1467.1,796.2,1468,795.6,1468,794.5z"/>
<path class="st6" d="M1481.3,797.8c0,0.8-0.4,1.5-1.2,1.9c-2.5,0.9-5.2,0.9-7.7,0c-0.7-0.4-1.2-1.1-1.1-1.9c0-1.1,0.7-1.8,2-2.2
	c-0.7-0.3-1.2-1-1.2-1.8c0-0.7,0.3-1.4,1-1.8c2-0.8,4.3-0.8,6.3,0c0.7,0.4,1,1.1,1,1.8c0,0.8-0.5,1.5-1.2,1.8
	C1480.6,796,1481.3,796.7,1481.3,797.8z M1478.6,798.6c0.4-0.1,0.7-0.6,0.7-1c0-0.4-0.2-0.9-0.7-1c-0.7-0.2-1.5-0.4-2.3-0.3
	c-0.8,0-1.6,0.1-2.3,0.3c-0.5,0.2-0.8,0.7-0.7,1.2c0.1,0.3,0.4,0.6,0.7,0.7C1475.5,798.9,1477.1,798.9,1478.6,798.6L1478.6,798.6z
	 M1474.5,793c-0.3,0.1-0.5,0.5-0.5,0.8c0,0.4,0.2,0.7,0.5,0.8c0.6,0.2,1.2,0.3,1.8,0.2c0.6,0,1.2,0,1.8-0.2c0.4-0.2,0.6-0.7,0.4-1.2
	c-0.1-0.2-0.2-0.4-0.4-0.4C1476.9,792.7,1475.7,792.7,1474.5,793L1474.5,793z"/>
<path class="st6" d="M1481.9,791.6h8.9v1.5c-1,0.6-2,1.3-2.8,2.1c-0.7,0.6-1.2,1.4-1.5,2.2c-0.3,0.8-0.5,1.7-0.5,2.7h-2
	c0-1.4,0.3-2.7,1-3.9c0.8-1.3,2-2.4,3.4-3.1h-6.6L1481.9,791.6z"/>
<path class="st6" d="M1497.2,791.6v6.9h3.1v1.5h-8v-1.5h3.1v-5.2l-2.5,0.9l-0.5-1.5l3.1-1.1H1497.2z"/>
<path class="st6" d="M1511.8,797.8c0,0.8-0.4,1.5-1.2,1.9c-2.5,0.9-5.2,0.9-7.7,0c-0.7-0.4-1.2-1.1-1.1-1.9c0-1.1,0.7-1.8,2-2.2
	c-1-0.4-1.5-1.6-1.1-2.6c0.2-0.4,0.5-0.8,0.9-1c2-0.8,4.3-0.8,6.3,0c0.7,0.4,1,1.1,1,1.8c0,0.8-0.5,1.5-1.2,1.8
	C1511.1,796,1511.8,796.7,1511.8,797.8z M1509.1,798.6c0.4-0.1,0.7-0.6,0.7-1c0-0.4-0.2-0.9-0.7-1c-0.7-0.2-1.5-0.4-2.3-0.3
	c-0.8,0-1.6,0.1-2.3,0.3c-0.4,0.1-0.7,0.6-0.7,1c0,0.4,0.2,0.9,0.7,1C1506,799,1507.6,799,1509.1,798.6L1509.1,798.6z M1505,793
	c-0.4,0.2-0.6,0.7-0.4,1.2c0.1,0.2,0.2,0.4,0.4,0.4c1.2,0.3,2.4,0.3,3.6,0c0.4-0.2,0.6-0.7,0.4-1.2c-0.1-0.2-0.2-0.4-0.4-0.4
	C1507.4,792.7,1506.2,792.7,1505,793z"/>
<path class="st6" d="M1521.1,794.5c0.5,0.2,1,0.5,1.3,1c0.3,0.5,0.5,1,0.4,1.5c0,1-0.4,1.9-1.2,2.4c-1,0.6-2.2,0.9-3.4,0.8
	c-1.2,0-2.4-0.2-3.6-0.7c-0.9-0.4-1.4-1.2-1.4-2.2h2c0,0.5,0.4,0.9,0.8,1c0.7,0.3,1.4,0.4,2.2,0.4c0.7,0.1,1.4-0.1,2-0.5
	c0.4-0.3,0.6-0.8,0.6-1.2c0-0.4-0.2-0.9-0.5-1.2c-0.5-0.3-1.2-0.5-1.8-0.4c-0.4,0-0.9,0.1-1.3,0.2c-0.6,0.2-1.1,0.4-1.6,0.6
	l-1.8-0.4l1-4.4h7.4v1.5h-6l-0.4,1.9c0.5-0.3,1.1-0.5,1.6-0.6c0.6-0.1,1.2-0.2,1.8-0.2C1519.9,794.2,1520.5,794.3,1521.1,794.5z"/>
<path class="st6" d="M1532.1,794.5c0.5,0.2,0.9,0.6,1.3,1c0.3,0.5,0.5,1,0.4,1.5c0,1-0.4,1.9-1.2,2.4c-1,0.6-2.2,0.9-3.4,0.8
	c-1.2,0.1-2.4-0.2-3.6-0.7c-0.9-0.4-1.4-1.2-1.4-2.2h2c0,0.5,0.4,0.9,0.8,1c0.7,0.3,1.4,0.4,2.2,0.4c0.7,0.1,1.4-0.1,2-0.5
	c0.4-0.3,0.6-0.8,0.6-1.2c0-0.5-0.2-0.9-0.5-1.2c-0.5-0.3-1.2-0.5-1.8-0.4c-0.4,0-0.9,0.1-1.3,0.2c-0.6,0.2-1.1,0.4-1.6,0.6
	l-1.8-0.4l1-4.4h7.4v1.5h-6l-0.4,1.9c1-0.5,2.2-0.8,3.4-0.8C1530.9,794.2,1531.6,794.3,1532.1,794.5z"/>
<path class="st6" d="M1544.9,795.8c0.1,1.3-0.4,2.6-1.4,3.5c-1.1,0.7-2.5,1.1-3.8,1c-0.6,0-1.2,0-1.9-0.1c-0.6-0.1-1.2-0.1-1.8-0.2
	v-1.5l0.5,0.1c0.6,0.1,1.1,0.2,1.5,0.2c0.5,0,0.9,0.1,1.4,0.1c0.7,0,1.3,0,1.9-0.2c0.4-0.1,0.8-0.3,1.1-0.7c0.3-0.4,0.5-0.9,0.5-1.4
	c-0.5,0.3-0.9,0.6-1.5,0.7c-0.6,0.2-1.3,0.3-2,0.3c-1.1,0.1-2.1-0.2-3-0.8c-0.7-0.5-1.1-1.3-1.1-2.2c0-0.9,0.4-1.8,1.2-2.3
	c1-0.6,2.2-0.9,3.4-0.8c1,0,2,0.1,2.9,0.4c0.7,0.2,1.2,0.7,1.6,1.3c0.4,0.8,0.6,1.6,0.5,2.5L1544.9,795.8L1544.9,795.8z
	 M1542.9,794.5c0-1.1-0.9-1.6-2.8-1.7c-0.7-0.1-1.5,0.1-2.2,0.4c-0.7,0.5-0.8,1.4-0.4,2.1c0.1,0.1,0.2,0.3,0.4,0.4
	c0.7,0.3,1.4,0.5,2.2,0.4C1542,796.2,1542.9,795.6,1542.9,794.5L1542.9,794.5z"/>
<path class="st6" d="M1371.8,813.7l3.5-4.1h2.4l-5,5.7v2.8h-1.9v-2.8l-5-5.7h2.4L1371.8,813.7z"/>
<path class="st6" d="M1384.3,814.5V813h1.8v1.5H1384.3z M1384.3,818.1v-1.5h1.8v1.5H1384.3z"/>
<path class="st6" d="M1401.2,812.9c0.7,0.5,1.1,1.4,1.1,2.2c0,0.9-0.4,1.8-1.2,2.3c-1,0.6-2.2,0.9-3.4,0.8c-1,0-1.9-0.1-2.9-0.4
	c-0.7-0.2-1.2-0.7-1.6-1.3c-0.4-0.8-0.6-1.6-0.5-2.5v-0.2c-0.1-1.3,0.4-2.6,1.4-3.5c1.1-0.7,2.4-1.1,3.8-1c0.6,0,1.2,0,1.9,0.1
	c0.5,0,1.2,0.1,1.8,0.2v1.5c-0.8-0.1-1.4-0.2-1.9-0.3s-1-0.1-1.6-0.1c-0.7,0-1.3,0-1.9,0.2c-0.4,0.1-0.8,0.3-1.1,0.7
	c-0.3,0.4-0.4,0.9-0.4,1.4c0.4-0.3,0.9-0.6,1.4-0.7c0.6-0.2,1.3-0.3,2-0.3C1399.3,812.1,1400.3,812.4,1401.2,812.9z M1399.7,816.4
	c0.4-0.3,0.7-0.7,0.7-1.2c0-0.5-0.2-1-0.7-1.2c-0.7-0.3-1.4-0.5-2.2-0.4c-1.9,0-2.8,0.5-2.8,1.6c0,0.5,0.2,1,0.7,1.2
	c0.7,0.3,1.4,0.5,2.1,0.4C1398.3,816.9,1399,816.8,1399.7,816.4z"/>
<path class="st6" d="M1409,809.6v6.9h3v1.5h-8v-1.5h3.1v-5.2l-2.5,0.9l-0.5-1.5l3.1-1.1H1409z"/>
<path class="st6" d="M1411.8,809.6h8.9v1.5c-1,0.6-2,1.3-2.8,2.1c-0.7,0.6-1.2,1.4-1.6,2.2c-0.3,0.8-0.5,1.7-0.5,2.7h-1.9
	c0-1.4,0.3-2.7,1-3.9c0.8-1.3,2-2.4,3.4-3.1h-6.6L1411.8,809.6z"/>
<path class="st6" d="M1431.5,813.8c0.1,1.3-0.4,2.6-1.4,3.5c-1.1,0.7-2.5,1.1-3.8,1c-0.6,0-1.2,0-1.9-0.1c-0.6-0.1-1.2-0.1-1.8-0.2
	v-1.5l0.5,0.1c0.6,0.1,1.1,0.2,1.5,0.2c0.5,0,0.9,0.1,1.4,0.1c0.7,0,1.3,0,1.9-0.2c0.4-0.1,0.8-0.3,1.1-0.7c0.3-0.4,0.5-0.9,0.5-1.4
	c-0.5,0.3-0.9,0.6-1.5,0.7c-0.6,0.2-1.3,0.3-2,0.3c-1.1,0.1-2.1-0.2-3-0.8c-0.7-0.5-1.1-1.3-1.1-2.2c0-0.9,0.4-1.8,1.2-2.3
	c1-0.6,2.2-0.9,3.4-0.8c1,0,1.9,0.1,2.9,0.4c0.7,0.2,1.3,0.7,1.6,1.3c0.4,0.8,0.6,1.6,0.5,2.5L1431.5,813.8L1431.5,813.8z
	 M1429.5,812.5c0-1.1-0.9-1.6-2.8-1.7c-0.7-0.1-1.5,0.1-2.2,0.4c-0.7,0.5-0.8,1.4-0.4,2.1c0.1,0.1,0.2,0.3,0.4,0.4
	c0.7,0.3,1.4,0.5,2.2,0.4C1428.6,814.2,1429.6,813.6,1429.5,812.5L1429.5,812.5z"/>
<path class="st6" d="M1442.8,815.7c0,0.8-0.4,1.6-1.2,2c-1.1,0.5-2.3,0.7-3.4,0.6c-1.3,0.1-2.6-0.2-3.7-0.7
	c-0.8-0.5-1.3-1.4-1.3-2.4h1.9c0,0.4,0.1,0.7,0.3,1c0.3,0.3,0.6,0.4,1,0.5c0.6,0.1,1.2,0.2,1.8,0.1c0.5,0,1,0,1.5-0.1
	c0.3,0,0.6-0.2,0.8-0.4c0.2-0.2,0.3-0.4,0.3-0.7c0-0.3-0.1-0.6-0.3-0.8c-0.3-0.2-0.7-0.4-1.1-0.4c-0.7-0.1-1.5-0.1-2.2-0.1v-1.2
	c0.7,0,1.4,0,2.1-0.1c0.4,0,0.8-0.2,1.1-0.4c0.2-0.2,0.4-0.5,0.3-0.8c0-0.4-0.2-0.7-0.6-0.8c-0.6-0.2-1.3-0.3-2-0.3
	c-0.6,0-1.2,0-1.8,0.2c-0.4,0.1-0.7,0.2-1,0.5c-0.2,0.3-0.3,0.6-0.3,1h-1.9c0-1,0.5-1.9,1.3-2.4c1.1-0.6,2.4-0.8,3.7-0.8
	c1.1-0.1,2.3,0.2,3.3,0.6c0.7,0.3,1.2,1.1,1.2,1.9c0,0.9-0.6,1.7-1.5,1.9C1442.3,814.2,1442.8,814.8,1442.8,815.7z"/>
<path class="st6" d="M1444,809.6h8.9v1.5c-1,0.6-2,1.3-2.8,2.1c-0.7,0.6-1.2,1.4-1.5,2.2c-0.3,0.8-0.5,1.7-0.5,2.7h-1.9
	c0-1.4,0.3-2.7,1-3.9c0.8-1.3,2-2.4,3.4-3.1h-6.6V809.6z"/>
<path class="st6" d="M1456.2,817.8c-0.7-0.3-1.3-0.9-1.7-1.6c-0.4-0.7-0.6-1.5-0.6-2.4c0-0.8,0.2-1.6,0.6-2.4c0.4-0.7,1-1.2,1.7-1.6
	c0.9-0.4,1.8-0.6,2.8-0.5c0.9,0,1.9,0.2,2.7,0.5c0.7,0.3,1.3,0.9,1.7,1.6c0.7,1.5,0.7,3.2,0,4.7c-0.4,0.7-1,1.2-1.7,1.6
	c-0.9,0.4-1.8,0.6-2.7,0.5C1458.1,818.4,1457.1,818.2,1456.2,817.8z M1461.2,816c0.6-0.6,0.8-1.4,0.8-2.2c0.1-0.8-0.2-1.6-0.8-2.2
	c-0.6-0.5-1.4-0.8-2.2-0.7c-0.8-0.1-1.6,0.2-2.3,0.8c-0.6,0.6-0.9,1.4-0.8,2.2c-0.1,0.8,0.2,1.6,0.8,2.2
	C1458.1,817.1,1459.9,817.1,1461.2,816L1461.2,816z"/>
<path class="st6" d="M1464.7,818.1v-1.5h1.8v1.5H1464.7z"/>
<path class="st6" d="M1467.8,809.6h8.9v1.5c-1,0.6-2,1.3-2.8,2.1c-0.7,0.6-1.2,1.4-1.5,2.2c-0.3,0.8-0.5,1.7-0.5,2.7h-1.9
	c0-1.4,0.3-2.7,1-3.9c0.8-1.3,2-2.4,3.4-3.1h-6.6L1467.8,809.6z"/>
<path class="st6" d="M1484.1,815.1h1.9v1.5h-1.8v1.5h-1.8v-1.5h-6v-1.5l6-5.5h1.8L1484.1,815.1z M1482.3,811.5l-3.9,3.6h3.9V811.5z"
	/>
<path class="st6" d="M1486.3,809.6h8.9v1.5c-1,0.6-2,1.3-2.8,2.1c-0.7,0.6-1.2,1.4-1.5,2.2c-0.3,0.8-0.5,1.7-0.5,2.7h-1.9
	c0-1.4,0.3-2.7,1-3.9c0.8-1.3,2-2.4,3.4-3.1h-6.6L1486.3,809.6z"/>
<path class="st6" d="M1506,813.8c0.1,1.3-0.4,2.6-1.4,3.5c-1.1,0.7-2.5,1.1-3.8,1c-0.6,0-1.2,0-1.9-0.1c-0.5-0.1-1.2-0.1-1.8-0.2
	v-1.5l0.5,0.1c0.6,0.1,1.1,0.2,1.5,0.2c0.5,0,0.9,0.1,1.4,0.1c0.6,0,1.3,0,1.9-0.2c0.4-0.1,0.8-0.3,1.1-0.7c0.3-0.4,0.4-0.9,0.4-1.4
	c-0.4,0.3-0.9,0.6-1.5,0.7c-0.6,0.2-1.3,0.3-2,0.3c-1.1,0.1-2.1-0.2-3-0.8c-0.7-0.5-1.1-1.3-1.1-2.2c0-0.9,0.4-1.8,1.2-2.3
	c1-0.6,2.2-0.9,3.4-0.8c1,0,1.9,0.1,2.9,0.4c0.7,0.2,1.2,0.7,1.6,1.3c0.4,0.8,0.6,1.6,0.5,2.5L1506,813.8L1506,813.8z M1504,812.5
	c0-1.1-0.9-1.6-2.8-1.7c-0.7-0.1-1.5,0.1-2.2,0.4c-0.7,0.5-0.8,1.5-0.3,2.1c0.1,0.1,0.2,0.2,0.3,0.3c0.7,0.3,1.4,0.5,2.2,0.4
	C1503.1,814.2,1504,813.6,1504,812.5z"/>
<path class="st6" d="M1507.1,809.6h8.9v1.5c-1,0.6-2,1.3-2.8,2.1c-0.7,0.6-1.2,1.4-1.5,2.2c-0.3,0.8-0.5,1.7-0.5,2.7h-1.9
	c0-1.4,0.3-2.7,1-3.9c0.8-1.3,2-2.4,3.4-3.1h-6.6L1507.1,809.6z"/>
<path class="st6" d="M1522.5,809.6v6.9h3.1v1.5h-8v-1.5h3.1v-5.2l-2.5,0.9l-0.5-1.5l3.1-1.1H1522.5z"/>
<path d="M996.8,773.6v6.9h6.3v1.6h-8.1v-8.5H996.8z"/>
<path d="M1016.4,782.1h-2l-1-1.8h-5.8l-1,1.8h-2l4.7-8.5h2.4L1016.4,782.1z M1010.4,775l-2.1,3.8h4.2L1010.4,775z"/>
<path d="M1025.2,773.6v1.6h-4.2v6.9h-1.8v-6.9h-4.2v-1.6H1025.2z"/>
<path d="M1026.6,773.6h1.8v8.5h-1.8V773.6z"/>
<path d="M1040.2,773.6v1.6h-4.2v6.9h-1.8v-6.9h-4.2v-1.6H1040.2z"/>
<path d="M1052.3,778c0.1,1.2-0.4,2.4-1.3,3.3c-2.5,1.4-5.5,1.4-8,0c-0.9-0.9-1.4-2.1-1.3-3.3v-4.3h1.8v4.3c0,0.5,0.1,0.9,0.2,1.4
	c0.2,0.4,0.6,0.8,1,1c0.7,0.3,1.4,0.4,2.2,0.4c0.7,0,1.5-0.1,2.2-0.4c0.4-0.2,0.8-0.6,1-1c0.2-0.4,0.3-0.9,0.2-1.4v-4.3h1.8
	L1052.3,778z"/>
<path d="M1062.2,774.1c0.6,0.3,1.1,0.8,1.5,1.4c0.4,0.7,0.6,1.5,0.6,2.3c0,0.8-0.2,1.6-0.6,2.3c-0.3,0.6-0.9,1.1-1.5,1.4
	c-0.6,0.3-1.4,0.5-2.1,0.5h-6.1v-8.5h6.1C1060.8,773.6,1061.5,773.8,1062.2,774.1z M1059.2,780.5c0.6,0,1.1-0.1,1.7-0.2
	c0.4-0.1,0.8-0.4,1-0.8c0.5-1,0.5-2.2,0-3.3c-0.2-0.4-0.6-0.7-1-0.8c-0.6-0.1-1.1-0.2-1.7-0.2h-3.4v5.3L1059.2,780.5z"/>
<path d="M1074.7,773.6v1.5h-7v1.9h6.8v1.5h-6.8v1.9h7v1.5h-8.9v-8.5H1074.7z"/>
<path d="M1081.3,778.5V777h1.8v1.5H1081.3z M1081.3,782.1v-1.5h1.8v1.5H1081.3z"/>
<path d="M1097.5,776.5c0.5,0.2,0.9,0.6,1.3,1c0.3,0.5,0.5,1,0.4,1.5c0,1-0.4,1.9-1.2,2.4c-1,0.6-2.2,0.9-3.4,0.8
	c-1.2,0.1-2.4-0.2-3.6-0.7c-0.9-0.4-1.4-1.2-1.4-2.2h2c0,0.5,0.4,0.9,0.8,1c0.7,0.3,1.4,0.4,2.2,0.4c0.7,0.1,1.4-0.1,2-0.5
	c0.4-0.3,0.6-0.8,0.6-1.2c0-0.5-0.2-0.9-0.5-1.2c-0.5-0.3-1.2-0.5-1.8-0.4c-0.4,0-0.9,0.1-1.3,0.2c-0.6,0.2-1.1,0.4-1.6,0.6
	l-1.8-0.4l1-4.4h7.4v1.5h-6l-0.4,1.9c1-0.5,2.2-0.8,3.4-0.8C1096.3,776.2,1097,776.3,1097.5,776.5z"/>
<path d="M1108.6,776.5c0.5,0.2,0.9,0.6,1.3,1c0.3,0.4,0.5,1,0.4,1.5c0,1-0.4,1.9-1.2,2.4c-1,0.6-2.2,0.9-3.4,0.8
	c-1.2,0.1-2.4-0.2-3.6-0.7c-0.9-0.4-1.4-1.2-1.4-2.2h2c0,0.5,0.4,0.9,0.8,1c0.7,0.3,1.4,0.4,2.2,0.4c0.7,0.1,1.4-0.1,2-0.5
	c0.4-0.3,0.6-0.8,0.6-1.2c0-0.5-0.2-0.9-0.5-1.2c-0.5-0.3-1.2-0.5-1.8-0.4c-0.4,0-0.9,0.1-1.3,0.2c-0.6,0.2-1.1,0.4-1.6,0.6
	l-1.8-0.4l1-4.4h7.4v1.5h-6l-0.4,1.9c1-0.5,2.2-0.8,3.4-0.8C1107.4,776.2,1108,776.3,1108.6,776.5z"/>
<path d="M1112,782.1v-1.5h1.8v1.5H1112z"/>
<path d="M1115.2,773.6h8.9v1.5c-1,0.6-2,1.3-2.8,2.1c-0.7,0.6-1.2,1.4-1.5,2.2c-0.3,0.8-0.5,1.7-0.5,2.7h-1.9c0-1.4,0.3-2.7,1-3.9
	c0.8-1.3,2-2.4,3.4-3.1h-6.6L1115.2,773.6z"/>
<path d="M1132.5,776.5c0.5,0.2,1,0.6,1.3,1c0.3,0.5,0.5,1,0.4,1.5c0,1-0.4,1.9-1.2,2.4c-1,0.6-2.2,0.9-3.4,0.8
	c-1.2,0.1-2.4-0.2-3.6-0.7c-0.9-0.4-1.4-1.2-1.4-2.2h2c0,0.5,0.4,0.9,0.8,1c0.7,0.3,1.4,0.4,2.2,0.4c0.7,0.1,1.4-0.1,2-0.5
	c0.4-0.3,0.6-0.8,0.6-1.2c0-0.5-0.2-0.9-0.5-1.2c-0.5-0.3-1.2-0.5-1.8-0.4c-0.4,0-0.9,0.1-1.3,0.2c-0.6,0.2-1.1,0.4-1.6,0.6
	l-1.8-0.4l1-4.4h7.4v1.5h-6l-0.4,1.9c1-0.5,2.2-0.8,3.4-0.8C1131.3,776.2,1132,776.3,1132.5,776.5z"/>
<path d="M1144.3,777.5c-0.4,0.4-0.9,0.7-1.4,0.9c-0.7,0.3-1.5,0.5-2.2,0.7c-0.7,0.2-1.3,0.4-2,0.6c-0.4,0.1-0.7,0.4-0.8,0.8h7.1v1.5
	h-9.4v-1c0-0.6,0.3-1.1,0.7-1.6c0.4-0.4,0.9-0.7,1.5-1c0.6-0.2,1.3-0.5,2.3-0.7c0.7-0.2,1.3-0.4,1.7-0.5c0.4-0.1,0.7-0.3,1-0.5
	c0.3-0.2,0.4-0.5,0.4-0.8c0-0.4-0.2-0.7-0.5-0.9c-0.6-0.2-1.2-0.3-1.9-0.3c-0.7,0-1.5,0.1-2.1,0.4c-0.5,0.3-0.7,0.8-0.7,1.3h-2
	c0-1,0.5-1.9,1.3-2.5c2.1-1,4.5-1,6.7-0.1c0.7,0.4,1.2,1.2,1.1,2C1144.9,776.6,1144.7,777.1,1144.3,777.5z"/>
<path d="M1155.4,777.5c-0.4,0.4-0.9,0.7-1.5,0.9c-0.7,0.3-1.5,0.5-2.2,0.7c-0.7,0.2-1.3,0.4-2,0.6c-0.4,0.1-0.7,0.4-0.8,0.8h7.1v1.5
	h-9.4v-1c0-0.6,0.3-1.1,0.7-1.6c0.4-0.4,0.9-0.7,1.5-1c0.6-0.2,1.3-0.5,2.3-0.7c0.7-0.2,1.3-0.4,1.7-0.5c0.4-0.1,0.7-0.3,1-0.5
	c0.3-0.2,0.4-0.5,0.4-0.8c0-0.4-0.2-0.7-0.5-0.9c-1.3-0.4-2.7-0.4-4,0.1c-0.5,0.3-0.7,0.8-0.7,1.3h-1.9c0-1,0.5-1.9,1.3-2.5
	c1.1-0.6,2.3-0.8,3.5-0.8c1.1-0.1,2.2,0.2,3.2,0.6c1.1,0.7,1.5,2.1,0.8,3.2C1155.7,777.3,1155.6,777.4,1155.4,777.5L1155.4,777.5z"
	/>
<path d="M1166.6,777.5c-0.4,0.4-0.9,0.7-1.5,0.9c-0.7,0.3-1.5,0.5-2.2,0.7c-0.7,0.2-1.3,0.4-2,0.6c-0.4,0.1-0.7,0.4-0.8,0.8h7.1v1.5
	h-9.4v-1c0-0.6,0.3-1.1,0.7-1.6c0.4-0.4,0.9-0.7,1.5-1c0.6-0.2,1.3-0.5,2.3-0.7c0.7-0.2,1.3-0.4,1.7-0.5c0.4-0.1,0.7-0.3,1-0.5
	c0.3-0.2,0.4-0.5,0.4-0.8c0-0.4-0.2-0.7-0.5-0.9c-0.6-0.2-1.2-0.3-1.9-0.3c-0.7,0-1.5,0.1-2.1,0.4c-0.5,0.3-0.7,0.8-0.7,1.3h-2
	c0-1,0.5-1.9,1.3-2.5c1.1-0.6,2.3-0.8,3.5-0.8c1.1-0.1,2.2,0.2,3.2,0.6c1.1,0.7,1.5,2.1,0.8,3.2
	C1166.8,777.3,1166.7,777.4,1166.6,777.5L1166.6,777.5z"/>
<path d="M1171,781.8c-0.7-0.3-1.3-0.9-1.7-1.6c-0.4-0.7-0.6-1.5-0.6-2.4c0-0.8,0.2-1.6,0.6-2.4c0.4-0.7,1-1.2,1.7-1.6
	c0.9-0.4,1.8-0.6,2.8-0.5c0.9,0,1.9,0.2,2.7,0.5c0.7,0.3,1.3,0.9,1.7,1.6c0.8,1.5,0.8,3.2,0,4.7c-0.4,0.7-1,1.2-1.7,1.6
	c-0.9,0.4-1.8,0.6-2.7,0.5C1172.8,782.4,1171.9,782.2,1171,781.8z M1176,780c0.6-0.6,0.9-1.4,0.8-2.2c0.1-0.8-0.2-1.6-0.8-2.2
	c-0.6-0.5-1.4-0.8-2.3-0.8c-0.8-0.1-1.6,0.2-2.3,0.8c-0.6,0.6-0.9,1.3-0.8,2.2c-0.1,0.8,0.2,1.6,0.8,2.2
	C1172.8,781,1174.7,781,1176,780z"/>
<path d="M1182.2,781.8c-0.7-0.3-1.3-0.9-1.7-1.6c-0.4-0.7-0.6-1.5-0.6-2.4c0-0.8,0.2-1.6,0.6-2.4c0.4-0.7,1-1.2,1.7-1.6
	c1.8-0.7,3.7-0.7,5.5,0c0.7,0.3,1.3,0.9,1.7,1.6c0.7,1.5,0.7,3.2,0,4.7c-0.4,0.7-1,1.2-1.7,1.6
	C1185.9,782.5,1183.9,782.5,1182.2,781.8L1182.2,781.8z M1187.2,780c0.6-0.6,0.9-1.4,0.8-2.2c0.1-0.8-0.2-1.6-0.8-2.2
	c-1.3-1-3.2-1-4.5,0c-0.6,0.6-0.9,1.4-0.8,2.2c-0.1,0.8,0.2,1.6,0.8,2.2C1184,781,1185.8,781,1187.2,780z"/>
<path d="M1192.5,778.3c-0.5-0.6-0.8-1.3-0.8-2.1c0-0.5,0.1-1,0.3-1.4c0.2-0.4,0.6-0.8,1-1.1c0.6-0.3,1.3-0.4,1.9-0.4
	c0.9-0.1,1.8,0.2,2.5,0.8c1,1.2,1,2.9,0,4.1C1196,779.4,1194,779.4,1192.5,778.3L1192.5,778.3z M1196.2,777.4
	c0.3-0.3,0.5-0.7,0.4-1.2c0-0.4-0.1-0.8-0.4-1.1c-0.7-0.5-1.7-0.5-2.4,0c-0.6,0.7-0.6,1.6,0,2.3C1194.5,778,1195.5,778,1196.2,777.4
	L1196.2,777.4z"/>
<path d="M996.8,791.6v6.9h6.3v1.6h-8.1v-8.5H996.8z"/>
<path d="M1005.4,799.2c-0.9-0.8-1.5-2-1.4-3.3c-0.1-1.3,0.5-2.5,1.4-3.3c2.5-1.6,5.7-1.6,8.2,0c0.9,0.8,1.5,2,1.4,3.3
	c0,0.8-0.2,1.7-0.6,2.4c-0.4,0.7-1.1,1.2-1.8,1.5c-1,0.4-2,0.6-3,0.5C1008,800.4,1006.5,800,1005.4,799.2z M1013,795.9
	c0-1.9-1.2-2.9-3.5-2.9c-0.9-0.1-1.9,0.2-2.6,0.7c-0.6,0.5-0.9,1.3-0.9,2.2c0,1.9,1.2,2.9,3.5,2.9S1013,797.8,1013,795.9L1013,795.9
	z"/>
<path d="M1025.3,798.4v-6.8h1.8v8.5h-2.7l-6.2-6.8v6.8h-1.8v-8.5h2.7L1025.3,798.4z"/>
<path d="M1029.3,793.5c0.5-0.7,1.1-1.2,1.9-1.5c0.9-0.4,1.9-0.6,2.9-0.5c0.9,0,1.8,0.1,2.6,0.4c0.7,0.2,1.3,0.6,1.7,1.2
	c0.4,0.5,0.7,1.1,0.7,1.7h-2c-0.1-0.5-0.5-1-1-1.2c-0.7-0.3-1.4-0.5-2.2-0.5c-0.7,0-1.5,0.1-2.1,0.5c-0.4,0.3-0.8,0.7-1,1.1
	c-0.2,0.4-0.3,0.9-0.3,1.3c0,0.5,0.1,0.9,0.3,1.3c0.2,0.5,0.6,0.9,1.1,1.1c0.7,0.3,1.5,0.5,2.2,0.5c1.1,0,2.2-0.2,3.2-0.6V797h-3.5
	v-1.4h5.2v3.4c-0.8,0.4-1.6,0.8-2.5,1c-0.8,0.2-1.7,0.3-2.5,0.3c-1,0-2-0.1-3-0.5c-0.8-0.3-1.4-0.9-1.9-1.5
	c-0.5-0.7-0.7-1.5-0.7-2.4C1028.6,795,1028.9,794.2,1029.3,793.5z"/>
<path d="M1040.9,791.6h1.8v8.5h-1.8V791.6z"/>
<path d="M1054.5,791.6v1.6h-4.2v6.9h-1.8v-6.9h-4.2v-1.6H1054.5z"/>
<path d="M1066.6,796c0.1,1.2-0.4,2.4-1.3,3.3c-2.5,1.4-5.5,1.4-8,0c-0.9-0.8-1.4-2-1.3-3.3v-4.3h1.8v4.3c0,0.5,0.1,0.9,0.2,1.4
	c0.2,0.4,0.6,0.8,1,1c1.4,0.5,3,0.5,4.4,0c0.4-0.2,0.8-0.6,1-1c0.2-0.4,0.3-0.9,0.2-1.4v-4.3h1.8L1066.6,796z"/>
<path d="M1076.4,792.1c0.6,0.3,1.1,0.8,1.5,1.4c0.4,0.7,0.6,1.5,0.6,2.3c0,0.8-0.2,1.6-0.6,2.3c-0.3,0.6-0.9,1.1-1.5,1.4
	c-0.6,0.3-1.4,0.5-2.1,0.5h-6.1v-8.5h6.1C1075.1,791.6,1075.8,791.8,1076.4,792.1z M1073.4,798.5c0.6,0,1.1-0.1,1.7-0.2
	c0.4-0.1,0.8-0.4,1-0.8c0.5-1,0.5-2.2,0-3.3c-0.2-0.4-0.6-0.7-1-0.8c-0.6-0.1-1.1-0.2-1.7-0.2h-3.4v5.3L1073.4,798.5z"/>
<path d="M1089,791.6v1.5h-7v1.9h6.8v1.5h-6.8v1.9h7v1.5h-8.9v-8.5H1089z"/>
<path d="M1095.6,796.5V795h1.8v1.5H1095.6z M1095.6,800.1v-1.5h1.8v1.5H1095.6z"/>
<path d="M1113.6,797.7c0,0.8-0.4,1.6-1.2,2c-1.1,0.5-2.3,0.7-3.4,0.6c-1.3,0.1-2.5-0.2-3.7-0.7c-0.8-0.5-1.4-1.4-1.3-2.4h1.9
	c0,0.4,0.1,0.7,0.3,1c0.3,0.3,0.6,0.4,1,0.5c0.6,0.1,1.2,0.2,1.8,0.1c0.5,0,1,0,1.6-0.1c0.3,0,0.6-0.2,0.8-0.4
	c0.2-0.2,0.3-0.4,0.3-0.7c0-0.3-0.1-0.6-0.3-0.8c-0.3-0.2-0.7-0.4-1.1-0.4c-0.7-0.1-1.5-0.1-2.2-0.1v-1.2c0.7,0,1.4,0,2.1-0.1
	c0.4,0,0.8-0.2,1.1-0.4c0.2-0.2,0.3-0.5,0.3-0.8c0-0.4-0.2-0.7-0.6-0.8c-0.6-0.2-1.3-0.3-2-0.3c-0.6,0-1.2,0-1.8,0.2
	c-0.4,0.1-0.7,0.2-1,0.5c-0.2,0.3-0.3,0.6-0.3,1h-1.9c0-1,0.5-1.9,1.3-2.4c1.1-0.6,2.4-0.8,3.7-0.8c1.1-0.1,2.3,0.2,3.3,0.6
	c0.7,0.3,1.2,1.1,1.2,1.9c0,0.9-0.6,1.7-1.5,1.9C1113.1,796.2,1113.6,796.8,1113.6,797.7z"/>
<path d="M1114.8,791.6h8.9v1.5c-1,0.6-2,1.3-2.8,2.1c-0.7,0.6-1.2,1.4-1.5,2.2c-0.3,0.8-0.5,1.7-0.5,2.7h-1.9c0-1.4,0.3-2.7,1-3.9
	c0.8-1.3,2-2.4,3.4-3.1h-6.6L1114.8,791.6z"/>
<path d="M1123.9,800.1v-1.5h1.8v1.5H1123.9z"/>
<path d="M1135.8,794.9c0.7,0.5,1.1,1.4,1.1,2.2c0,0.9-0.4,1.8-1.2,2.3c-1,0.6-2.2,0.9-3.4,0.8c-1,0-1.9-0.1-2.9-0.4
	c-0.7-0.2-1.2-0.7-1.6-1.3c-0.4-0.8-0.6-1.6-0.5-2.5v-0.2c-0.1-1.3,0.4-2.6,1.4-3.5c1.1-0.7,2.4-1.1,3.8-1c0.6,0,1.2,0,1.9,0.1
	c0.5,0,1.2,0.1,1.8,0.2v1.5c-0.8-0.1-1.4-0.2-1.9-0.3s-1-0.1-1.6-0.1c-0.7,0-1.3,0-1.9,0.2c-0.4,0.1-0.8,0.3-1.1,0.7
	c-0.3,0.4-0.4,0.9-0.4,1.4c0.4-0.3,0.9-0.6,1.4-0.7c0.6-0.2,1.3-0.3,2-0.3C1133.9,794.1,1134.9,794.4,1135.8,794.9z M1134.3,798.4
	c0.4-0.3,0.7-0.7,0.7-1.2c0-0.5-0.2-1-0.7-1.2c-0.7-0.3-1.4-0.5-2.2-0.4c-1.9,0-2.8,0.5-2.8,1.6c0,0.5,0.2,1,0.7,1.2
	c0.7,0.3,1.4,0.5,2.1,0.4C1132.9,798.9,1133.6,798.8,1134.3,798.4z"/>
<path d="M1143.6,791.6v6.9h3.1v1.5h-8v-1.5h3.1v-5.2l-2.5,0.9l-0.5-1.5l3.1-1.1H1143.6z"/>
<path d="M1155.7,794.5c0.5,0.2,0.9,0.6,1.3,1c0.3,0.5,0.5,1,0.4,1.5c0,1-0.4,1.9-1.2,2.4c-1,0.6-2.2,0.9-3.4,0.8
	c-1.2,0.1-2.4-0.2-3.6-0.7c-0.9-0.4-1.4-1.2-1.4-2.2h2c0,0.5,0.4,0.9,0.8,1c0.7,0.3,1.4,0.4,2.2,0.4c0.7,0.1,1.4-0.1,2-0.5
	c0.4-0.3,0.6-0.8,0.6-1.2c0-0.4-0.2-0.9-0.5-1.2c-0.5-0.3-1.2-0.5-1.8-0.4c-0.4,0-0.9,0.1-1.3,0.2c-0.6,0.2-1.1,0.4-1.6,0.6
	l-1.8-0.4l1-4.4h7.4v1.5h-6l-0.4,1.9c1.1-0.5,2.2-0.8,3.4-0.8C1154.5,794.2,1155.1,794.3,1155.7,794.5z"/>
<path d="M1166.7,794.5c0.5,0.2,0.9,0.6,1.3,1c0.3,0.5,0.5,1,0.4,1.5c0,1-0.4,1.9-1.2,2.4c-1,0.6-2.2,0.9-3.4,0.8
	c-1.2,0.1-2.4-0.2-3.6-0.7c-0.9-0.4-1.4-1.2-1.4-2.2h1.9c0,0.5,0.4,0.9,0.8,1c0.7,0.3,1.4,0.4,2.2,0.4c0.7,0.1,1.4-0.1,2-0.5
	c0.4-0.3,0.6-0.8,0.6-1.2c0-0.5-0.2-0.9-0.5-1.2c-0.5-0.3-1.2-0.5-1.8-0.4c-0.4,0-0.9,0.1-1.3,0.2c-0.6,0.2-1.1,0.4-1.6,0.6
	l-1.8-0.4l1-4.4h7.4v1.5h-6l-0.4,1.9c1-0.5,2.2-0.8,3.4-0.8C1165.5,794.2,1166.1,794.3,1166.7,794.5z"/>
<path d="M1178.4,794.9c0.7,0.5,1.1,1.4,1.1,2.2c0,0.9-0.4,1.8-1.2,2.3c-1,0.6-2.2,0.9-3.4,0.8c-1,0-1.9-0.1-2.9-0.4
	c-0.7-0.2-1.2-0.7-1.6-1.3c-0.4-0.8-0.6-1.6-0.5-2.5v-0.2c-0.1-1.3,0.4-2.6,1.4-3.5c1.1-0.7,2.4-1.1,3.8-1c0.6,0,1.3,0,1.9,0.1
	c0.5,0,1.2,0.1,1.8,0.2v1.5c-0.8-0.1-1.4-0.2-1.9-0.3s-1-0.1-1.6-0.1c-0.7,0-1.3,0-1.9,0.2c-0.4,0.1-0.8,0.3-1.1,0.7
	c-0.3,0.4-0.4,0.9-0.4,1.4c0.4-0.3,0.9-0.6,1.4-0.7c0.7-0.2,1.4-0.3,2.1-0.3C1176.5,794.2,1177.5,794.4,1178.4,794.9z M1176.9,798.4
	c0.4-0.3,0.7-0.7,0.6-1.2c0-0.5-0.2-1-0.6-1.2c-0.7-0.3-1.4-0.5-2.2-0.4c-1.9,0-2.8,0.5-2.8,1.6c0,0.5,0.2,1,0.7,1.2
	C1174,799,1175.5,799,1176.9,798.4L1176.9,798.4z"/>
<path d="M1183.2,799.8c-0.7-0.3-1.3-0.9-1.7-1.6c-0.4-0.7-0.6-1.5-0.6-2.4c0-0.8,0.2-1.6,0.6-2.4c0.4-0.7,1-1.2,1.7-1.6
	c1.8-0.7,3.7-0.7,5.5,0c0.7,0.3,1.3,0.9,1.7,1.6c0.7,1.5,0.7,3.2,0,4.7c-0.4,0.7-1,1.2-1.7,1.6C1187,800.5,1185,800.5,1183.2,799.8
	L1183.2,799.8z M1188.2,798c0.6-0.6,0.8-1.4,0.8-2.2c0.1-0.8-0.2-1.6-0.8-2.2c-1.3-1-3.2-1-4.5,0c-0.6,0.6-0.9,1.4-0.8,2.2
	c-0.1,0.8,0.2,1.6,0.8,2.2C1185.1,799,1186.9,799,1188.2,798z"/>
<path d="M1194.4,799.8c-0.7-0.3-1.3-0.9-1.7-1.6c-0.4-0.7-0.6-1.5-0.6-2.4c0-0.8,0.2-1.6,0.6-2.4c0.4-0.7,1-1.2,1.7-1.6
	c1.8-0.7,3.7-0.7,5.5,0c0.7,0.3,1.3,0.9,1.7,1.6c0.7,1.5,0.7,3.2,0,4.7c-0.4,0.7-1,1.2-1.7,1.6
	C1198.2,800.5,1196.2,800.5,1194.4,799.8L1194.4,799.8z M1199.4,798c0.6-0.6,0.8-1.4,0.8-2.2c0.1-0.8-0.2-1.6-0.8-2.2
	c-0.6-0.5-1.4-0.8-2.3-0.8c-0.8-0.1-1.6,0.2-2.3,0.8c-0.6,0.6-0.9,1.4-0.8,2.2c-0.1,0.8,0.2,1.6,0.8,2.2
	C1196.2,799,1198.1,799,1199.4,798z"/>
<path d="M1204.8,796.3c-0.5-0.6-0.8-1.3-0.8-2.1c0-0.5,0.1-1,0.3-1.4c0.2-0.5,0.6-0.8,1.1-1.1c0.6-0.3,1.2-0.4,1.9-0.4
	c0.9-0.1,1.8,0.2,2.5,0.8c1,1.2,1,2.9,0,4.1C1208.3,797.4,1206.3,797.4,1204.8,796.3L1204.8,796.3z M1208.5,795.4
	c0.6-0.7,0.6-1.6,0-2.3c-0.3-0.3-0.8-0.4-1.2-0.4c-0.4,0-0.9,0.1-1.2,0.4c-0.6,0.7-0.6,1.6,0,2.3c0.3,0.3,0.8,0.4,1.2,0.4
	C1207.7,795.9,1208.2,795.7,1208.5,795.4L1208.5,795.4z"/>
<path d="M996.8,827.6v6.9h6.3v1.6h-8.1v-8.5H996.8z"/>
<path d="M1016.4,836.1h-2l-1-1.8h-5.8l-1,1.8h-2l4.7-8.5h2.4L1016.4,836.1z M1010.4,829l-2.1,3.8h4.2L1010.4,829z"/>
<path d="M1025.2,827.6v1.6h-4.2v6.9h-1.8v-6.9h-4.2v-1.6H1025.2z"/>
<path d="M1026.6,827.6h1.8v8.5h-1.8V827.6z"/>
<path d="M1040.2,827.6v1.6h-4.2v6.9h-1.8v-6.9h-4.2v-1.6H1040.2z"/>
<path d="M1052.3,832c0.1,1.2-0.4,2.4-1.3,3.3c-2.5,1.4-5.5,1.4-8,0c-0.9-0.9-1.4-2.1-1.3-3.3v-4.3h1.8v4.3c0,0.5,0.1,0.9,0.2,1.4
	c0.2,0.4,0.6,0.8,1,1c0.7,0.3,1.4,0.4,2.2,0.4c0.7,0,1.5-0.1,2.2-0.4c0.4-0.2,0.8-0.6,1-1c0.2-0.4,0.3-0.9,0.2-1.4v-4.3h1.8
	L1052.3,832z"/>
<path d="M1062.2,828.1c0.6,0.3,1.1,0.8,1.5,1.4c0.4,0.7,0.6,1.5,0.6,2.3c0,0.8-0.2,1.6-0.6,2.3c-0.3,0.6-0.9,1.1-1.5,1.4
	c-0.6,0.3-1.4,0.5-2.1,0.5h-6.1v-8.5h6.1C1060.8,827.6,1061.5,827.8,1062.2,828.1z M1059.2,834.5c0.6,0,1.1-0.1,1.7-0.2
	c0.4-0.1,0.8-0.4,1-0.8c0.5-1,0.5-2.2,0-3.3c-0.2-0.4-0.6-0.7-1-0.8c-0.6-0.1-1.1-0.2-1.7-0.2h-3.4v5.3L1059.2,834.5z"/>
<path d="M1074.7,827.6v1.5h-7v1.9h6.8v1.5h-6.8v1.9h7v1.5h-8.9v-8.5H1074.7z"/>
<path d="M1081.3,832.5V831h1.8v1.5H1081.3z M1081.3,836.1v-1.5h1.8v1.5H1081.3z"/>
<path d="M1097.5,830.5c0.5,0.2,0.9,0.6,1.3,1c0.3,0.5,0.5,1,0.4,1.5c0,1-0.4,1.9-1.2,2.4c-1,0.6-2.2,0.9-3.4,0.8
	c-1.2,0.1-2.4-0.2-3.6-0.7c-0.9-0.4-1.4-1.2-1.4-2.2h2c0,0.5,0.4,0.9,0.8,1c0.7,0.3,1.4,0.4,2.2,0.4c0.7,0.1,1.4-0.1,2-0.5
	c0.4-0.3,0.6-0.8,0.6-1.2c0-0.5-0.2-0.9-0.5-1.2c-0.5-0.3-1.2-0.5-1.8-0.4c-0.4,0-0.9,0.1-1.3,0.2c-0.6,0.2-1.1,0.4-1.6,0.6
	l-1.8-0.4l1-4.4h7.4v1.5h-6l-0.4,1.9c1-0.5,2.2-0.8,3.4-0.8C1096.3,830.2,1097,830.3,1097.5,830.5z"/>
<path d="M1108.6,830.5c0.5,0.2,0.9,0.6,1.3,1c0.3,0.4,0.5,1,0.4,1.5c0,1-0.4,1.9-1.2,2.4c-1,0.6-2.2,0.9-3.4,0.8
	c-1.2,0.1-2.4-0.2-3.6-0.7c-0.9-0.4-1.4-1.2-1.4-2.2h2c0,0.5,0.4,0.9,0.8,1c0.7,0.3,1.4,0.4,2.2,0.4c0.7,0.1,1.4-0.1,2-0.5
	c0.4-0.3,0.6-0.8,0.6-1.2c0-0.5-0.2-0.9-0.5-1.2c-0.5-0.3-1.2-0.5-1.8-0.4c-0.4,0-0.9,0.1-1.3,0.2c-0.6,0.2-1.1,0.4-1.6,0.6
	l-1.8-0.4l1-4.4h7.4v1.5h-6l-0.4,1.9c1-0.5,2.2-0.8,3.4-0.8C1107.4,830.2,1108,830.3,1108.6,830.5z"/>
<path d="M1112.7,832.3c-0.5-0.6-0.8-1.3-0.8-2.1c0-0.5,0.1-1,0.3-1.4c0.2-0.4,0.6-0.8,1-1.1c0.6-0.3,1.3-0.4,1.9-0.4
	c0.9-0.1,1.8,0.2,2.5,0.8c1,1.2,1,2.9,0,4.1C1116.2,833.4,1114.2,833.4,1112.7,832.3L1112.7,832.3z M1116.5,831.4
	c0.6-0.7,0.6-1.6,0-2.3c-0.3-0.3-0.8-0.4-1.2-0.4c-0.4,0-0.9,0.1-1.2,0.4c-0.6,0.7-0.6,1.6,0,2.3c0.3,0.3,0.8,0.4,1.2,0.4
	C1115.7,831.9,1116.1,831.7,1116.5,831.4L1116.5,831.4z"/>
<path d="M1128.4,833.1h1.8v1.5h-1.8v1.5h-1.8v-1.5h-6v-1.5l6-5.5h1.8V833.1z M1126.5,829.5l-3.9,3.6h3.9V829.5z"/>
<path d="M1139.5,830.5c0.5,0.2,1,0.6,1.3,1c0.3,0.5,0.5,1,0.4,1.5c0,1-0.4,1.9-1.2,2.4c-1,0.6-2.2,0.9-3.4,0.8
	c-1.2,0.1-2.4-0.2-3.6-0.7c-0.9-0.4-1.4-1.2-1.4-2.2h2c0,0.5,0.4,0.9,0.8,1c0.7,0.3,1.4,0.4,2.2,0.4c0.7,0.1,1.4-0.1,2-0.5
	c0.4-0.3,0.6-0.8,0.6-1.2c0-0.5-0.2-0.9-0.5-1.2c-0.5-0.3-1.2-0.5-1.8-0.4c-0.4,0-0.9,0.1-1.3,0.2c-0.6,0.2-1.1,0.4-1.6,0.6
	l-1.8-0.4l1-4.4h7.4v1.5h-6l-0.4,1.9c1-0.5,2.2-0.8,3.4-0.8C1138.3,830.2,1138.9,830.3,1139.5,830.5z"/>
<path d="M1142.9,836.1v-1.5h1.8v1.5H1142.9z"/>
<path d="M1151.6,827.6v6.9h3.1v1.5h-8v-1.5h3.1v-5.2l-2.5,0.9l-0.5-1.5l3.1-1.1H1151.6z"/>
<path d="M1165.5,833.7c0,0.8-0.4,1.6-1.2,2c-1.1,0.5-2.3,0.7-3.4,0.6c-1.3,0.1-2.5-0.2-3.7-0.7c-0.8-0.5-1.3-1.4-1.3-2.4h1.9
	c0,0.4,0.1,0.7,0.3,1c0.3,0.3,0.6,0.4,1,0.5c0.6,0.1,1.2,0.2,1.8,0.1c0.5,0,1,0,1.6-0.1c0.3,0,0.6-0.2,0.8-0.4
	c0.2-0.2,0.3-0.4,0.3-0.7c0-0.3-0.1-0.6-0.3-0.8c-0.3-0.2-0.7-0.4-1.1-0.4c-0.7-0.1-1.5-0.1-2.2-0.1v-1.2c0.7,0,1.4,0,2.1-0.1
	c0.4,0,0.8-0.2,1.1-0.4c0.2-0.2,0.4-0.5,0.3-0.8c0-0.4-0.2-0.7-0.6-0.8c-0.6-0.2-1.3-0.3-2-0.3c-0.6,0-1.2,0-1.8,0.2
	c-0.4,0.1-0.7,0.2-1,0.5c-0.2,0.3-0.3,0.6-0.3,1h-1.9c0-1,0.5-1.9,1.3-2.4c1.1-0.6,2.4-0.8,3.7-0.8c1.1-0.1,2.3,0.2,3.3,0.6
	c0.7,0.3,1.2,1.1,1.2,1.9c0,0.9-0.6,1.7-1.5,1.9C1165,832.2,1165.5,832.8,1165.5,833.7z"/>
<path d="M1176.8,833.7c0,0.8-0.4,1.6-1.2,2c-1.1,0.5-2.3,0.7-3.4,0.6c-1.3,0.1-2.6-0.2-3.7-0.7c-0.8-0.5-1.3-1.4-1.3-2.4h1.9
	c0,0.4,0.1,0.7,0.3,1c0.3,0.3,0.6,0.4,1,0.5c0.6,0.1,1.2,0.2,1.8,0.1c0.5,0,1,0,1.6-0.1c0.3,0,0.6-0.2,0.8-0.4
	c0.4-0.4,0.4-1-0.1-1.4c0,0,0,0,0,0c-0.3-0.2-0.7-0.4-1.1-0.4c-0.7-0.1-1.5-0.1-2.2-0.1v-1.2c0.7,0,1.4,0,2.1-0.1
	c0.4,0,0.8-0.2,1.1-0.4c0.2-0.2,0.4-0.5,0.3-0.8c0-0.4-0.2-0.7-0.6-0.8c-0.6-0.2-1.3-0.3-2-0.3c-0.6,0-1.2,0-1.8,0.2
	c-0.4,0.1-0.7,0.2-1,0.5c-0.2,0.3-0.3,0.6-0.3,1h-1.9c0-1,0.5-1.9,1.3-2.4c1.1-0.6,2.4-0.8,3.7-0.8c1.1-0.1,2.3,0.2,3.3,0.6
	c0.7,0.3,1.2,1.1,1.2,1.9c0,0.9-0.6,1.7-1.5,1.9C1176.3,832.2,1176.8,832.8,1176.8,833.7z"/>
<path d="M1187.2,831.5c-0.4,0.4-0.9,0.7-1.5,0.9c-0.7,0.3-1.5,0.5-2.2,0.7c-0.7,0.2-1.3,0.4-2,0.6c-0.4,0.1-0.7,0.4-0.8,0.8h7.1v1.5
	h-9.4v-1c0-0.6,0.3-1.1,0.7-1.6c0.4-0.4,0.9-0.7,1.5-1c0.6-0.2,1.3-0.5,2.3-0.7c0.7-0.2,1.3-0.4,1.7-0.5c0.4-0.1,0.7-0.3,1-0.5
	c0.3-0.2,0.4-0.5,0.4-0.8c0-0.4-0.2-0.7-0.5-0.9c-1.3-0.4-2.7-0.4-4,0.1c-0.5,0.3-0.7,0.8-0.7,1.3h-2c0-1,0.5-1.9,1.3-2.5
	c1.1-0.6,2.3-0.8,3.5-0.8c1.1-0.1,2.2,0.2,3.2,0.6c1.1,0.7,1.5,2.1,0.8,3.2C1187.5,831.3,1187.4,831.4,1187.2,831.5L1187.2,831.5z"
	/>
<path d="M1188.8,827.7h6v8.4h-6V827.7z M1189.4,835l2-3.1l-2-3.1V835z M1193.9,828.3h-4.1l2,3.1L1193.9,828.3z M1193.9,835.5l-2-3.1
	l-2,3.1H1193.9z M1194.2,835v-6.1l-2,3.1L1194.2,835z"/>
<path d="M1209.4,834.4v-6.8h1.8v8.5h-2.7l-6.2-6.8v6.8h-1.8v-8.5h2.7L1209.4,834.4z"/>
<path d="M1214.2,835.2c-0.9-0.8-1.4-2-1.4-3.3c-0.1-1.2,0.4-2.5,1.4-3.3c2.5-1.6,5.7-1.6,8.2,0c0.9,0.8,1.5,2,1.4,3.3
	c0,0.8-0.2,1.7-0.6,2.4c-0.4,0.7-1.1,1.2-1.8,1.5c-1,0.4-2,0.6-3,0.5C1216.8,836.4,1215.4,836,1214.2,835.2z M1221.8,831.9
	c0-1.9-1.2-2.9-3.5-2.9c-0.9-0.1-1.9,0.2-2.6,0.7c-0.6,0.5-0.9,1.3-0.9,2.2c0,1.9,1.2,2.9,3.5,2.9
	C1220.6,834.7,1221.8,833.8,1221.8,831.9L1221.8,831.9z"/>
<path d="M1234.6,833c0.2,0.3,0.4,0.7,0.3,1.1v2.1h-1.8v-1.7c0-0.2,0-0.4-0.1-0.7c-0.1-0.1-0.2-0.3-0.3-0.3c-0.2-0.1-0.5-0.1-0.7-0.1
	h-4.8v2.7h-1.8v-8.5h6.4c0.9-0.1,1.7,0.2,2.5,0.6c0.6,0.5,0.9,1.2,0.9,2c0.1,1-0.5,1.9-1.4,2.2C1234,832.6,1234.3,832.7,1234.6,833z
	 M1227.1,829.2v2.6h4.1c0.3,0,0.6,0,0.9-0.1c0.2-0.1,0.5-0.2,0.6-0.3c0.2-0.3,0.3-0.6,0.3-0.9c0-0.3-0.1-0.6-0.3-0.9
	c-0.2-0.2-0.4-0.3-0.6-0.3c-0.3,0-0.6-0.1-0.9-0.1H1227.1z"/>
<path d="M1244.9,828.1c0.6,0.3,1.1,0.8,1.5,1.4c0.4,0.7,0.6,1.5,0.6,2.3c0,0.8-0.2,1.6-0.6,2.3c-0.3,0.6-0.9,1.1-1.5,1.4
	c-0.6,0.3-1.4,0.5-2.1,0.5h-6.1v-8.5h6.1C1243.6,827.6,1244.3,827.8,1244.9,828.1z M1241.9,834.5c0.6,0,1.1-0.1,1.7-0.2
	c0.4-0.1,0.8-0.4,1-0.8c0.5-1,0.5-2.2,0-3.3c-0.2-0.4-0.6-0.7-1-0.8c-0.6-0.1-1.1-0.2-1.7-0.2h-3.4v5.3L1241.9,834.5z"/>
<path d="M996.8,845.6v6.9h6.3v1.6h-8.1v-8.5H996.8z"/>
<path d="M1005.4,853.2c-0.9-0.8-1.5-2-1.4-3.3c-0.1-1.3,0.5-2.5,1.4-3.3c2.5-1.6,5.7-1.6,8.2,0c0.9,0.8,1.5,2,1.4,3.3
	c0,0.8-0.2,1.7-0.6,2.4c-0.4,0.7-1.1,1.2-1.8,1.5c-1,0.4-2,0.6-3,0.5C1008,854.4,1006.5,854,1005.4,853.2z M1013,849.9
	c0-1.9-1.2-2.9-3.5-2.9c-0.9-0.1-1.9,0.2-2.6,0.7c-0.6,0.5-0.9,1.3-0.9,2.2c0,1.9,1.2,2.9,3.5,2.9S1013,851.8,1013,849.9L1013,849.9
	z"/>
<path d="M1025.3,852.4v-6.8h1.8v8.5h-2.7l-6.2-6.8v6.8h-1.8v-8.5h2.7L1025.3,852.4z"/>
<path d="M1029.3,847.5c0.5-0.7,1.1-1.2,1.9-1.5c0.9-0.4,1.9-0.6,2.9-0.5c0.9,0,1.8,0.1,2.6,0.4c0.7,0.2,1.3,0.6,1.7,1.2
	c0.4,0.5,0.7,1.1,0.7,1.7h-2c-0.1-0.5-0.5-1-1-1.2c-0.7-0.3-1.4-0.5-2.2-0.5c-0.7,0-1.5,0.1-2.1,0.5c-0.4,0.3-0.8,0.7-1,1.1
	c-0.2,0.4-0.3,0.9-0.3,1.3c0,0.5,0.1,0.9,0.3,1.3c0.2,0.5,0.6,0.9,1.1,1.1c0.7,0.3,1.5,0.5,2.2,0.5c1.1,0,2.2-0.2,3.2-0.6V851h-3.5
	v-1.4h5.2v3.4c-0.8,0.4-1.6,0.8-2.5,1c-0.8,0.2-1.7,0.3-2.5,0.3c-1,0-2-0.1-3-0.5c-0.8-0.3-1.4-0.9-1.9-1.5
	c-0.5-0.7-0.7-1.5-0.7-2.4C1028.6,849,1028.9,848.2,1029.3,847.5z"/>
<path d="M1040.9,845.6h1.8v8.5h-1.8V845.6z"/>
<path d="M1054.5,845.6v1.6h-4.2v6.9h-1.8v-6.9h-4.2v-1.6H1054.5z"/>
<path d="M1066.6,850c0.1,1.2-0.4,2.4-1.3,3.3c-2.5,1.4-5.5,1.4-8,0c-0.9-0.8-1.4-2-1.3-3.3v-4.3h1.8v4.3c0,0.5,0.1,0.9,0.2,1.4
	c0.2,0.4,0.6,0.8,1,1c1.4,0.5,3,0.5,4.4,0c0.4-0.2,0.8-0.6,1-1c0.2-0.4,0.3-0.9,0.2-1.4v-4.3h1.8L1066.6,850z"/>
<path d="M1076.4,846.1c0.6,0.3,1.1,0.8,1.5,1.4c0.4,0.7,0.6,1.5,0.6,2.3c0,0.8-0.2,1.6-0.6,2.3c-0.3,0.6-0.9,1.1-1.5,1.4
	c-0.6,0.3-1.4,0.5-2.1,0.5h-6.1v-8.5h6.1C1075.1,845.6,1075.8,845.8,1076.4,846.1z M1073.4,852.5c0.6,0,1.1-0.1,1.7-0.2
	c0.4-0.1,0.8-0.4,1-0.8c0.5-1,0.5-2.2,0-3.3c-0.2-0.4-0.6-0.7-1-0.8c-0.6-0.1-1.1-0.2-1.7-0.2h-3.4v5.3L1073.4,852.5z"/>
<path d="M1089,845.6v1.5h-7v1.9h6.8v1.5h-6.8v1.9h7v1.5h-8.9v-8.5H1089z"/>
<path d="M1095.6,850.5V849h1.8v1.5H1095.6z M1095.6,854.1v-1.5h1.8v1.5H1095.6z"/>
<path d="M1113.6,851.7c0,0.8-0.4,1.6-1.2,2c-1.1,0.5-2.3,0.7-3.4,0.6c-1.3,0.1-2.5-0.2-3.7-0.7c-0.8-0.5-1.4-1.4-1.3-2.4h1.9
	c0,0.4,0.1,0.7,0.3,1c0.3,0.3,0.6,0.4,1,0.5c0.6,0.1,1.2,0.2,1.8,0.1c0.5,0,1,0,1.6-0.1c0.3,0,0.6-0.2,0.8-0.4
	c0.2-0.2,0.3-0.4,0.3-0.7c0-0.3-0.1-0.6-0.3-0.8c-0.3-0.2-0.7-0.4-1.1-0.4c-0.7-0.1-1.5-0.1-2.2-0.1v-1.2c0.7,0,1.4,0,2.1-0.1
	c0.4,0,0.8-0.2,1.1-0.4c0.2-0.2,0.3-0.5,0.3-0.8c0-0.4-0.2-0.7-0.6-0.8c-0.6-0.2-1.3-0.3-2-0.3c-0.6,0-1.2,0-1.8,0.2
	c-0.4,0.1-0.7,0.2-1,0.5c-0.2,0.3-0.3,0.6-0.3,1h-1.9c0-1,0.5-1.9,1.3-2.4c1.1-0.6,2.4-0.8,3.7-0.8c1.1-0.1,2.3,0.2,3.3,0.6
	c0.7,0.3,1.2,1.1,1.2,1.9c0,0.9-0.6,1.7-1.5,1.9C1113.1,850.2,1113.6,850.8,1113.6,851.7z"/>
<path d="M1114.8,845.6h8.9v1.5c-1,0.6-2,1.3-2.8,2.1c-0.7,0.6-1.2,1.4-1.5,2.2c-0.3,0.8-0.5,1.7-0.5,2.7h-1.9c0-1.4,0.3-2.7,1-3.9
	c0.8-1.3,2-2.4,3.4-3.1h-6.6L1114.8,845.6z"/>
<path d="M1126.1,850.3c-0.5-0.6-0.8-1.3-0.8-2.1c0-0.5,0.1-1,0.3-1.4c0.2-0.4,0.6-0.8,1-1.1c0.6-0.3,1.3-0.4,1.9-0.4
	c0.9-0.1,1.8,0.2,2.5,0.8c1,1.2,1,2.9,0,4.1C1129.6,851.4,1127.6,851.4,1126.1,850.3L1126.1,850.3z M1129.8,849.4
	c0.3-0.3,0.5-0.7,0.4-1.2c0-0.4-0.1-0.8-0.4-1.1c-0.7-0.5-1.7-0.5-2.4,0c-0.6,0.7-0.6,1.6,0,2.3C1128.1,850,1129.1,850,1129.8,849.4
	L1129.8,849.4z"/>
<path d="M1143.4,851.7c0,0.8-0.4,1.6-1.2,2c-1.1,0.5-2.3,0.7-3.4,0.6c-1.3,0.1-2.6-0.2-3.7-0.7c-0.8-0.5-1.3-1.4-1.3-2.4h1.9
	c0,0.4,0.1,0.7,0.3,1c0.3,0.3,0.6,0.4,1,0.5c0.6,0.1,1.2,0.2,1.8,0.1c0.5,0,1,0,1.5-0.1c0.3,0,0.6-0.2,0.8-0.4
	c0.2-0.2,0.3-0.4,0.3-0.7c0-0.3-0.1-0.6-0.3-0.8c-0.3-0.2-0.7-0.4-1.1-0.4c-0.7-0.1-1.5-0.1-2.2-0.1v-1.2c0.7,0,1.4,0,2.1-0.1
	c0.4,0,0.8-0.2,1.1-0.4c0.2-0.2,0.4-0.5,0.3-0.8c0-0.4-0.2-0.7-0.6-0.8c-0.6-0.2-1.3-0.3-2-0.3c-0.6,0-1.2,0-1.8,0.2
	c-0.4,0.1-0.7,0.2-1,0.5c-0.2,0.3-0.3,0.6-0.3,1h-1.9c0-1,0.5-1.9,1.3-2.4c1.1-0.6,2.4-0.8,3.7-0.8c1.1-0.1,2.3,0.2,3.3,0.6
	c0.7,0.3,1.2,1.1,1.2,1.9c0,0.9-0.6,1.7-1.5,1.9C1142.8,850.2,1143.4,850.8,1143.4,851.7z"/>
<path d="M1153.3,848.9c0.7,0.5,1.1,1.4,1.1,2.2c0,0.9-0.4,1.8-1.2,2.3c-1,0.6-2.2,0.9-3.4,0.8c-1,0-1.9-0.1-2.9-0.4
	c-0.7-0.2-1.2-0.7-1.6-1.3c-0.4-0.8-0.6-1.6-0.5-2.5v-0.2c-0.1-1.3,0.4-2.6,1.4-3.5c1.1-0.7,2.4-1.1,3.8-1c0.6,0,1.3,0,1.9,0.1
	c0.5,0,1.2,0.1,1.8,0.2v1.5c-0.8-0.1-1.4-0.2-1.9-0.3s-1-0.1-1.6-0.1c-0.7,0-1.3,0-1.9,0.2c-0.4,0.1-0.8,0.3-1.1,0.7
	c-0.3,0.4-0.4,0.9-0.4,1.4c0.4-0.3,0.9-0.6,1.4-0.7c0.6-0.2,1.3-0.3,2-0.3C1151.4,848.1,1152.4,848.4,1153.3,848.9z M1151.8,852.4
	c0.4-0.3,0.7-0.7,0.6-1.2c0-0.5-0.2-1-0.6-1.2c-0.7-0.3-1.4-0.5-2.2-0.4c-1.9,0-2.8,0.5-2.8,1.6c0,0.5,0.2,1,0.7,1.2
	C1148.9,853,1150.4,853,1151.8,852.4L1151.8,852.4z"/>
<path d="M1156.1,854.1v-1.5h1.8v1.5H1156.1z"/>
<path d="M1169.3,849.8c0.1,1.3-0.4,2.6-1.4,3.5c-1.1,0.7-2.4,1.1-3.8,1c-0.6,0-1.2,0-1.9-0.1c-0.6-0.1-1.2-0.1-1.8-0.2v-1.5l0.5,0.1
	c0.6,0.1,1.1,0.2,1.5,0.2c0.5,0,0.9,0.1,1.4,0.1c0.7,0,1.3,0,1.9-0.2c0.4-0.1,0.8-0.3,1.1-0.7c0.3-0.4,0.4-0.9,0.4-1.4
	c-0.4,0.3-0.9,0.6-1.5,0.7c-0.6,0.2-1.3,0.3-2,0.3c-1.1,0.1-2.1-0.2-3-0.8c-0.7-0.5-1.1-1.3-1.1-2.2c0-0.9,0.4-1.8,1.2-2.3
	c1-0.6,2.2-0.9,3.4-0.8c1,0,1.9,0.1,2.9,0.4c0.7,0.2,1.3,0.7,1.6,1.3c0.4,0.8,0.6,1.6,0.5,2.5L1169.3,849.8L1169.3,849.8z
	 M1167.3,848.5c0-1.1-0.9-1.6-2.8-1.7c-0.7-0.1-1.5,0.1-2.2,0.4c-0.7,0.5-0.8,1.4-0.4,2.1c0.1,0.1,0.2,0.3,0.4,0.4
	c0.7,0.3,1.4,0.5,2.2,0.4C1166.4,850.2,1167.3,849.6,1167.3,848.5L1167.3,848.5z"/>
<path d="M1180.6,851.7c0,0.8-0.4,1.6-1.2,2c-1.1,0.5-2.3,0.7-3.4,0.6c-1.3,0.1-2.5-0.2-3.7-0.7c-0.8-0.5-1.3-1.4-1.3-2.4h1.9
	c0,0.4,0.1,0.7,0.3,1c0.3,0.3,0.6,0.4,1,0.5c0.6,0.1,1.2,0.2,1.8,0.1c0.5,0,1,0,1.5-0.1c0.3,0,0.6-0.2,0.8-0.4
	c0.2-0.2,0.3-0.4,0.3-0.7c0-0.3-0.1-0.6-0.3-0.8c-0.3-0.2-0.7-0.4-1.1-0.4c-0.7-0.1-1.5-0.1-2.2-0.1v-1.2c0.7,0,1.4,0,2.1-0.1
	c0.4,0,0.8-0.2,1.1-0.4c0.2-0.2,0.4-0.5,0.3-0.8c0-0.4-0.2-0.7-0.6-0.8c-0.6-0.2-1.3-0.3-2-0.3c-0.6,0-1.2,0-1.8,0.2
	c-0.4,0.1-0.7,0.2-1,0.5c-0.2,0.3-0.3,0.6-0.3,1h-1.8c0-1,0.5-1.9,1.3-2.4c1.1-0.6,2.4-0.8,3.7-0.8c1.1-0.1,2.3,0.2,3.3,0.6
	c0.7,0.3,1.2,1.1,1.2,1.9c0,0.9-0.6,1.7-1.5,1.9C1180.1,850.2,1180.6,850.8,1180.6,851.7z"/>
<path d="M1191.9,851.7c0,0.8-0.4,1.6-1.2,2c-1.1,0.5-2.3,0.7-3.4,0.6c-1.3,0.1-2.5-0.2-3.7-0.7c-0.8-0.5-1.4-1.4-1.3-2.4h1.9
	c0,0.4,0.1,0.7,0.3,1c0.3,0.3,0.6,0.4,1,0.5c0.6,0.1,1.2,0.2,1.8,0.1c0.5,0,1,0,1.6-0.1c0.3,0,0.6-0.2,0.8-0.4
	c0.4-0.4,0.4-1-0.1-1.4c0,0,0,0,0,0c-0.3-0.2-0.7-0.4-1.1-0.4c-0.7-0.1-1.5-0.1-2.2-0.1v-1.2c0.7,0,1.4,0,2.1-0.1
	c0.4,0,0.8-0.2,1.1-0.4c0.2-0.2,0.3-0.5,0.3-0.8c0-0.4-0.2-0.7-0.6-0.8c-0.6-0.2-1.3-0.3-2-0.3c-0.6,0-1.2,0-1.8,0.2
	c-0.4,0.1-0.7,0.2-1,0.5c-0.2,0.3-0.3,0.6-0.3,1h-1.9c0-1,0.5-1.9,1.3-2.4c1.1-0.6,2.4-0.8,3.7-0.8c1.1-0.1,2.3,0.2,3.3,0.6
	c0.7,0.3,1.2,1.1,1.2,1.9c0,0.9-0.6,1.7-1.5,1.9C1191.4,850.2,1191.9,850.8,1191.9,851.7z"/>
<path d="M1201.9,848.9c0.7,0.5,1.1,1.4,1.1,2.2c0,0.9-0.4,1.8-1.2,2.3c-1,0.6-2.2,0.9-3.4,0.8c-1,0-1.9-0.1-2.9-0.4
	c-0.7-0.2-1.2-0.7-1.6-1.3c-0.4-0.8-0.6-1.6-0.5-2.5v-0.2c-0.1-1.3,0.4-2.6,1.4-3.5c1.1-0.7,2.4-1.1,3.8-1c0.6,0,1.3,0,1.9,0.1
	c0.5,0,1.2,0.1,1.8,0.2v1.5c-0.8-0.1-1.4-0.2-1.9-0.3s-1-0.1-1.6-0.1c-0.7,0-1.3,0-1.9,0.2c-0.4,0.1-0.8,0.3-1.1,0.7
	c-0.3,0.4-0.4,0.9-0.4,1.4c0.4-0.3,0.9-0.6,1.4-0.7c0.7-0.2,1.4-0.3,2.1-0.3C1199.9,848.2,1201,848.4,1201.9,848.9z M1200.4,852.4
	c0.4-0.3,0.7-0.7,0.6-1.2c0-0.5-0.2-1-0.6-1.2c-0.7-0.3-1.4-0.5-2.2-0.4c-1.9,0-2.8,0.5-2.8,1.6c0,0.5,0.2,1,0.7,1.2
	C1197.4,853,1199,853,1200.4,852.4L1200.4,852.4z"/>
<path d="M1203.9,845.7h6v8.4h-6V845.7z M1204.5,853l2-3.1l-2-3.1V853z M1209,846.3h-4.1l2,3.1L1209,846.3z M1209,853.5l-2-3.1
	l-2,3.1H1209z M1209.3,853v-6.1l-2,3.1L1209.3,853z"/>
<path d="M1224.6,845.6v1.5h-7v1.9h6.8v1.5h-6.8v1.9h7v1.5h-8.9v-8.5H1224.6z"/>
<path d="M1227.8,851.3c0,0.5,0.3,1,0.8,1.1c0.9,0.3,1.9,0.4,2.8,0.4c0.8,0,1.6-0.1,2.4-0.3c0.4-0.1,0.7-0.5,0.7-0.9
	c0-0.2-0.1-0.5-0.2-0.6c-0.3-0.2-0.6-0.3-1-0.3c-0.5-0.1-1.2-0.1-2.3-0.2c-1,0-1.9-0.2-2.9-0.4c-0.6-0.1-1.1-0.4-1.6-0.8
	c-0.4-0.4-0.6-0.9-0.5-1.5c0-0.8,0.5-1.6,1.3-1.9c1.2-0.4,2.4-0.6,3.7-0.6c1.3-0.1,2.6,0.2,3.8,0.7c0.8,0.4,1.4,1.2,1.4,2.1h-2
	c0-0.3-0.1-0.6-0.3-0.8c-0.3-0.2-0.7-0.4-1.1-0.4c-0.7-0.1-1.3-0.1-2-0.1c-0.6,0-1.1,0-1.7,0.1c-0.3,0-0.6,0.1-0.8,0.3
	c-0.2,0.2-0.3,0.4-0.2,0.6c0,0.2,0.1,0.4,0.2,0.6c0.3,0.2,0.6,0.3,0.9,0.3c0.7,0.1,1.3,0.2,2,0.2c1.3,0.1,2.4,0.2,3,0.3
	c0.6,0.1,1.2,0.3,1.6,0.7c0.4,0.4,0.7,1,0.6,1.5c0.1,0.9-0.5,1.8-1.3,2.1c-1.2,0.4-2.5,0.6-3.7,0.6c-1.4,0.1-2.8-0.2-4.2-0.7
	c-0.9-0.4-1.5-1.3-1.5-2.3L1227.8,851.3z"/>
<path d="M1247.5,845.6v1.6h-4.2v6.9h-1.8v-6.9h-4.2v-1.6H1247.5z"/>
<path d="M147.3,727v67.9h-29.2v-41.1L99,794.9H71.9l-19.2-41.2v41.2H23.5V727h45.7l16.3,36.3l16.2-36.3H147.3z"/>
<path d="M179.2,792.6c-7.3-2.7-12.9-6.8-16.8-12.2s-5.8-11.9-5.8-19.6c0-11.5,4.3-20.3,12.9-26.5c8.6-6.2,20.7-9.2,36.2-9.2
	c10.3,0,19.1,1.4,26.5,4.1c7.4,2.8,13,6.8,16.9,12.1c3.9,5.3,5.8,11.8,5.8,19.5c0,7.6-1.9,14.1-5.8,19.5c-3.9,5.4-9.5,9.5-16.9,12.2
	s-16.2,4.2-26.5,4.2C195.4,796.8,186.6,795.4,179.2,792.6z M220.5,770.8c2.7-2.6,4.2-6.2,4.1-9.9c0.2-3.7-1.3-7.3-4-9.8
	c-2.7-2.5-7.6-3.7-14.9-3.7s-12.2,1.2-14.8,3.7c-2.7,2.5-4.2,6.1-4,9.8c-0.2,3.7,1.3,7.4,4,9.9c2.7,2.5,7.6,3.8,14.8,3.8
	C212.9,774.5,217.9,773.3,220.5,770.8z"/>
<path d="M292.6,772.6c0,1.5,1.3,2.8,4,3.8s6.9,1.5,12.8,1.5c3.4,0.1,6.9-0.1,10.3-0.4c2.3-0.3,3.7-0.7,4.3-1.1
	c0.6-0.4,0.9-1,0.9-1.7c0.1-0.8-0.4-1.7-1.1-2.1c-1.5-0.6-3.2-1-4.9-1.2c-2.5-0.3-6.7-0.7-12.7-1.2c-10.1-0.7-18.2-1.9-24.5-3.7
	s-11-4.3-14.2-7.5c-3.2-3.3-4.9-7.8-4.7-12.4c0-4.4,1.9-8.7,5.2-11.6c3.5-3.2,8.4-5.7,14.8-7.4c7.3-1.8,14.7-2.7,22.2-2.5
	c14.8,0,26.2,2,34.1,6s12.2,9.7,12.9,17.1h-30.2c0-1.5-1.3-2.6-4-3.2c-4.1-0.8-8.2-1.1-12.3-1c-8.2,0-12.3,0.9-12.3,2.6
	c0,0.7,0.5,1.4,1.2,1.6c1.6,0.6,3.3,1,5,1.2c2.5,0.4,6.5,0.8,11.8,1.3c8.3,0.6,16.5,1.6,24.6,3.1c5.9,1.2,10.6,3.3,14.1,6.4
	s5.3,7.5,5.3,13.4c0,8.3-3.7,14.2-11.1,17.8c-7.4,3.6-18.5,5.3-33.3,5.3c-15.5,0-27.3-1.9-35.4-5.7s-12.5-10-13-18.5L292.6,772.6z"
	/>
<path d="M373.3,734c7.9-5.9,19.1-8.9,33.7-8.9c13.7,0,24.5,2.5,32.3,7.5c7.8,5,12.3,12.4,13.3,22.2h-31.1c-0.4-1.9-1.9-3.7-4.3-5.2
	s-5.9-2.3-10.2-2.3c-5.4,0-9.2,1.3-11.6,3.8c-2.4,2.6-3.7,6.1-3.6,9.7c-0.1,3.6,1.2,7.1,3.6,9.8c2.4,2.6,6.3,3.9,11.6,3.9
	c4.3,0,7.7-0.8,10.2-2.4c2.5-1.6,3.9-3.4,4.3-5.3h31.1c-1,9.9-5.4,17.3-13.3,22.4c-7.8,5-18.6,7.6-32.3,7.6c-14.5,0-25.7-3-33.6-9
	s-11.9-15-11.9-26.9C361.5,748.9,365.4,740,373.3,734z"/>
<path d="M483.6,792.6c-7.3-2.7-12.9-6.8-16.8-12.2s-5.8-11.9-5.8-19.6c0-11.5,4.3-20.3,12.9-26.5c8.6-6.2,20.7-9.2,36.2-9.2
	c10.2,0,19.1,1.4,26.5,4.1c7.4,2.8,13,6.8,16.9,12.1c3.9,5.3,5.8,11.8,5.8,19.5c0,7.6-2,14.1-5.8,19.5c-3.9,5.4-9.5,9.5-16.9,12.2
	s-16.2,4.2-26.5,4.2C499.7,796.8,490.9,795.4,483.6,792.6z M524.9,770.8c2.7-2.6,4.2-6.2,4.1-9.9c0.2-3.7-1.3-7.3-4-9.8
	c-2.7-2.5-7.6-3.7-14.9-3.7c-7.2,0-12.2,1.2-14.8,3.7c-2.7,2.5-4.2,6.1-4,9.8c-0.2,3.7,1.3,7.4,4,9.9c2.7,2.5,7.6,3.8,14.8,3.8
	C517.2,774.5,522.2,773.3,524.9,770.8z"/>
<path d="M660.2,761.8c0,11.7-3.7,20.4-11.2,26.3s-19,8.7-34.7,8.7c-15.8,0-27.3-2.9-34.7-8.7c-7.4-5.8-11.1-14.5-11.1-26.3V727h29.2
	v33.7c-0.1,3.7,1.3,7.3,3.9,9.9c2.6,2.6,6.8,3.9,12.8,3.9c5.9,0,10.2-1.3,12.7-3.9c2.6-2.7,3.9-6.2,3.8-9.9V727h29.3V761.8z"/>
</svg>
