<svg xmlns="http://www.w3.org/2000/svg" viewBox="0 0 961.82 665.24"><defs><style>.cls-1,.cls-10,.cls-11,.cls-12,.cls-13,.cls-14,.cls-15,.cls-2,.cls-3,.cls-4,.cls-5,.cls-6,.cls-7,.cls-8,.cls-9{fill:none;stroke-miterlimit:10;}.cls-1,.cls-2,.cls-3,.cls-4,.cls-5,.cls-6{stroke:#818187;}.cls-2{stroke-dasharray:3.02 3.02;}.cls-3,.cls-4{stroke-dasharray:3;}.cls-4{stroke-width:2px;}.cls-5{stroke-width:5px;stroke-dasharray:7;}.cls-6{stroke-linecap:round;stroke-width:0.75px;stroke-dasharray:2;opacity:0.75;isolation:isolate;}.cls-10,.cls-11,.cls-12,.cls-13,.cls-14,.cls-15,.cls-7,.cls-8,.cls-9{stroke:#fff;stroke-width:9px;}.cls-8{stroke-dasharray:61.03 61.03;}.cls-9{stroke-dasharray:48.75 48.75;}.cls-10{stroke-dasharray:41.36 41.36;}.cls-11{stroke-dasharray:34.37 34.37;}.cls-12{stroke-dasharray:51.39 51.39;}.cls-13{stroke-dasharray:47.28 47.28;}.cls-14{stroke-dasharray:50.23 50.23;}.cls-15{stroke-dasharray:50.23 50.23;}</style></defs><title>nd1_1</title><g id="Calque_2" data-name="Calque 2"><g id="M"><g id="Calque_9" data-name="Calque 9"><polygon class="cls-1" points="713.92 260.74 702.65 260.74 706.71 250.74 672.37 250.74 676.43 260.74 570.63 260.74 574.69 250.74 540.35 250.74 544.42 260.74 417.63 260.74 421.69 250.74 387.32 250.74 391.39 260.74 285.63 260.74 289.69 250.74 255.35 250.74 259.42 260.74 248.14 260.74 243.66 245.74 718.15 245.74 713.92 260.74"/><line class="cls-1" x1="713.77" y1="248.74" x2="711.77" y2="248.74"/><line class="cls-2" x1="708.77" y1="248.74" x2="251.77" y2="248.74"/><line class="cls-1" x1="249.77" y1="248.74" x2="248.77" y2="248.74"/><rect class="cls-1" x="554.27" y="40.74" width="139" height="8"/><polyline class="cls-1" points="692.78 48.74 696.54 57.74 549.78 57.74 554.28 48.64"/><polyline class="cls-1" points="549.78 57.74 547.78 64.74 698.84 64.74 696.54 57.74"/><polyline class="cls-1" points="555.86 40.58 559.7 36.74 687.65 36.74 691.22 40.58"/><polygon class="cls-1" points="659.27 36.74 680.27 36.74 680.27 27.08 670.07 24.08 659.27 27.08 659.27 36.74"/><path class="cls-1" d="M669.79.19l-11,27Z" transform="translate(0)"/><line class="cls-1" x1="669.79" y1="0.19" x2="680.2" y2="27.19"/><line class="cls-1" x1="548.27" y1="65.24" x2="548.27" y2="246.24"/><line class="cls-1" x1="699.27" y1="65.24" x2="699.27" y2="246.24"/><polyline class="cls-1" points="548.27 86.79 536.27 108.19 536.27 246.24"/><polyline class="cls-1" points="699.27 87.29 711.27 108.69 711.27 246.24"/><path class="cls-1" d="M589.27,245.24V123.3q10.51-38.55,21,0V245.24" transform="translate(0)"/><path class="cls-1" d="M636.27,245.24V123.3q10.51-38.55,21,0V245.24" transform="translate(0)"/><path class="cls-1" d="M584.27,246.24V119.44q16-43.74,32,0v125.8" transform="translate(0)"/><path class="cls-1" d="M580.27,246.24V115.14q20-45.06,40,0v130.1" transform="translate(0)"/><path class="cls-1" d="M631.27,246.24V119.44q16-43.74,32,0v125.8" transform="translate(0)"/><path class="cls-1" d="M627.27,246.24V115.14q20-45.06,40,0v130.1" transform="translate(0)"/><line class="cls-3" x1="560.77" y1="61.74" x2="686.77" y2="61.74"/><line class="cls-4" x1="560.77" y1="53.24" x2="686.77" y2="53.24"/><rect class="cls-1" x="268.27" y="40.74" width="139" height="8"/><polyline class="cls-1" points="269.02 48.74 265.27 57.74 412.02 57.74 407.52 48.64"/><polyline class="cls-1" points="412.02 57.74 414.02 64.74 262.97 64.74 265.27 57.74"/><polyline class="cls-1" points="405.95 40.58 402.11 36.74 274.16 36.74 270.59 40.58"/><polygon class="cls-1" points="303.27 36.74 282.27 36.74 282.27 27.08 292.47 24.08 303.27 27.08 303.27 36.74"/><path class="cls-1" d="M292,.19l11,27Z" transform="translate(0)"/><line class="cls-1" x1="292.02" y1="0.19" x2="281.61" y2="27.19"/><line class="cls-1" x1="414.27" y1="65.24" x2="414.27" y2="246.24"/><line class="cls-1" x1="263.27" y1="65.24" x2="263.27" y2="246.24"/><polyline class="cls-1" points="414.27 86.79 426.27 108.19 426.27 246.24"/><polyline class="cls-1" points="263.27 87.29 251.27 108.69 251.27 246.24"/><path class="cls-1" d="M372.27,245.24V123.3q-10.49-38.55-21,0V245.24" transform="translate(0)"/><path class="cls-1" d="M325.27,245.24V123.3q-10.49-38.55-21,0V245.24" transform="translate(0)"/><path class="cls-1" d="M378.27,246.24V119.43q-16-43.8-32,0V245.24" transform="translate(0)"/><path class="cls-1" d="M382.27,246.24V115.14q-20-45.06-40,0v130.1" transform="translate(0)"/><path class="cls-1" d="M331.27,246.24V119.43q-16-43.8-32,0V245.24" transform="translate(0)"/><path class="cls-1" d="M335.27,246.24V115.14q-20-45.06-40,0v130.1" transform="translate(0)"/><line class="cls-3" x1="275.77" y1="61.74" x2="400.77" y2="61.74"/><line class="cls-4" x1="275.77" y1="53.24" x2="401.77" y2="53.24"/><polyline class="cls-1" points="712.77 346.74 702.56 346.77 706.81 336.74 672.37 336.74 676.43 346.74 570.64 346.74 574.7 336.74 540.2 336.74 544.27 346.74 417.48 346.74 421.57 336.74 387.2 336.74 391.27 346.74 285.58 346.74 289.58 336.74 255.2 336.74 259.27 346.74 259.27 349.24"/><line class="cls-1" x1="285.27" y1="336.24" x2="285.27" y2="261.24"/><line class="cls-1" x1="259.27" y1="261.24" x2="259.27" y2="336.24"/><line class="cls-1" x1="417.27" y1="336.24" x2="417.27" y2="261.24"/><line class="cls-1" x1="391.27" y1="261.24" x2="391.27" y2="336.24"/><line class="cls-1" x1="570.27" y1="336.24" x2="570.27" y2="261.24"/><line class="cls-1" x1="544.27" y1="261.24" x2="544.27" y2="336.24"/><line class="cls-1" x1="702.27" y1="337.24" x2="702.27" y2="261.24"/><line class="cls-1" x1="676.27" y1="261.24" x2="676.27" y2="337.24"/><line class="cls-1" x1="285.27" y1="464.24" x2="285.27" y2="347.24"/><line class="cls-1" x1="259.27" y1="347.24" x2="259.27" y2="464.24"/><line class="cls-1" x1="417.27" y1="464.24" x2="417.27" y2="347.24"/><line class="cls-1" x1="391.27" y1="347.24" x2="391.27" y2="464.24"/><line class="cls-1" x1="570.27" y1="464.24" x2="570.27" y2="347.24"/><line class="cls-1" x1="544.27" y1="347.24" x2="544.27" y2="464.24"/><line class="cls-1" x1="702.27" y1="465.24" x2="702.27" y2="347.24"/><line class="cls-1" x1="676.27" y1="347.24" x2="676.27" y2="465.24"/><path class="cls-1" d="M514.32,381A46.82,46.82,0,1,0,528,414.12,46.81,46.81,0,0,0,514.32,381Zm-40.64,35.11a7.88,7.88,0,1,1,2.08,3.5,7.8,7.8,0,0,1-2.08-3.5Z" transform="translate(0)"/><path class="cls-1" d="M489,413.74a8,8,0,0,1-.26,2,7.75,7.75,0,0,1-13,3.5,7.87,7.87,0,0,1,5.06-13.38,7.61,7.61,0,0,1,5.11,1.51,7.86,7.86,0,0,1,3.17,6.37Z" transform="translate(0)"/><path class="cls-1" d="M503.82,408.07a22.68,22.68,0,0,0-2.33-5.65,23.34,23.34,0,0,0-3.72-4.85,22.78,22.78,0,0,0-4.85-3.71,22.12,22.12,0,0,0-5.64-2.34,23.28,23.28,0,0,0-12.12,0,22.79,22.79,0,0,0-5.64,2.34,23.42,23.42,0,0,0-10.9,14.2,23.49,23.49,0,0,0,0,12.12,22.64,22.64,0,0,0,2.34,5.64,23.3,23.3,0,0,0,8.56,8.57,22.79,22.79,0,0,0,5.64,2.34,23.71,23.71,0,0,0,12.12,0,22.48,22.48,0,0,0,5.64-2.34,22.82,22.82,0,0,0,4.85-3.72,23.34,23.34,0,0,0,3.72-4.85,23.51,23.51,0,0,0,3.13-11.7A22.49,22.49,0,0,0,503.82,408.07Zm-17.08,11.57a7.62,7.62,0,1,1,2.08-3.5,7.81,7.81,0,0,1-2.08,3.5Z" transform="translate(0)"/><line class="cls-1" x1="481.27" y1="437.24" x2="481.27" y2="461.24"/><polyline class="cls-1" points="493.34 459.33 491.52 452.53 491.32 451.8 487.28 436.73 486.46 433.65 483.24 421.66"/><line class="cls-1" x1="492.93" y1="434.39" x2="504.63" y2="454.65"/><polyline class="cls-1" points="514.79 447.22 510.37 442.8 509.27 441.71 509.27 441.7 498.24 430.67 496.57 429 487.21 419.64"/><line class="cls-1" x1="501.49" y1="425.82" x2="521.76" y2="437.52"/><polyline class="cls-1" points="526.43 426.24 520.75 424.72 518.9 424.22 503.82 420.18 501.91 419.67 488.76 416.14"/><line class="cls-1" x1="504.77" y1="413.74" x2="527.77" y2="413.74"/><polyline class="cls-1" points="526.43 402.01 520.59 403.58 518.9 404.03 503.82 408.07 501.73 408.62 488.76 412.1"/><line class="cls-1" x1="501.49" y1="402.42" x2="521.76" y2="390.72"/><polyline class="cls-1" points="514.32 381.03 509.58 385.77 508.8 386.54 497.77 397.57 495.76 399.59 486.74 408.6"/><line class="cls-1" x1="492.93" y1="393.86" x2="504.63" y2="373.59"/><polyline class="cls-1" points="493.34 368.92 491.36 376.31 491.32 376.44 487.28 391.52 486.29 395.2 483.24 406.58"/><line class="cls-1" x1="481.27" y1="390.24" x2="481.27" y2="367.24"/><polyline class="cls-1" points="469.11 368.92 471.13 376.44 471.34 377.25 475.16 391.52 476.4 396.12 479.2 406.58"/><line class="cls-1" x1="469.53" y1="393.86" x2="457.83" y2="373.59"/><polyline class="cls-1" points="448.13 381.03 453.64 386.54 454.76 387.66 464.67 397.57 468.56 401.46 475.7 408.6"/><line class="cls-1" x1="460.96" y1="402.42" x2="440.7" y2="390.72"/><path class="cls-1" d="M489,413.74a8,8,0,0,1-.26,2,7.75,7.75,0,0,1-13,3.5,7.87,7.87,0,0,1,5.06-13.38,7.61,7.61,0,0,1,5.11,1.51,7.86,7.86,0,0,1,3.17,6.37Z" transform="translate(0)"/><polyline class="cls-1" points="436.02 402.01 443.54 404.03 445.4 404.52 458.62 408.06 464.23 409.57 473.68 412.1"/><line class="cls-1" x1="457.77" y1="413.74" x2="434.77" y2="413.74"/><polyline class="cls-1" points="436.02 426.24 443.54 424.22 445.25 423.77 458.62 420.18 464.1 418.71 473.68 416.14"/><line class="cls-1" x1="460.96" y1="425.82" x2="440.7" y2="437.52"/><polyline class="cls-1" points="448.13 447.22 453.64 441.71 454.45 440.9 464.67 430.67 468.27 427.08 475.7 419.64"/><line class="cls-1" x1="469.53" y1="434.39" x2="457.83" y2="454.65"/><polyline class="cls-1" points="469.11 459.33 471.13 451.8 471.19 451.58 475.16 436.73 476.24 432.69 479.2 421.66"/><rect class="cls-1" x="257.27" y="465.74" width="445" height="12"/><polyline class="cls-1" points="257.71 476.81 247.23 484.74 257.71 484.74 713.34 484.74 702.65 476.81"/><polyline class="cls-1" points="259.27 485.24 259.27 660.74 702.27 660.74 702.27 485.24"/><path class="cls-1" d="M417.72,422.69a63.5,63.5,0,0,1,127,0" transform="translate(0)"/><path class="cls-1" d="M417.72,389a72,72,0,0,1,126.7-.57" transform="translate(0)"/><path class="cls-1" d="M666.27,465.24v-67.6s-19.14-30.08-43-30.08-43,30.08-43,30.08v67.6" transform="translate(0)"/><path class="cls-1" d="M662.27,465.24V425.86s-2.15-19.52-17.54-19.52-17.46,19.43-17.46,19.43v39.47" transform="translate(0)"/><path class="cls-1" d="M656.27,465.24V433.32s-1.47-15.72-12-15.72-12,15.65-12,15.65v32" transform="translate(0)"/><path class="cls-1" d="M620.27,465.24V425.86s-2.15-19.52-17.54-19.52-17.46,19.43-17.46,19.43v39.47" transform="translate(0)"/><path class="cls-1" d="M614.27,465.24V433.32s-1.47-15.72-12-15.72-12,15.65-12,15.65v32" transform="translate(0)"/><path class="cls-1" d="M637.38,382.68a16,16,0,1,0,2.15,8A15.74,15.74,0,0,0,637.38,382.68Zm-1.81,15.06a11,11,0,1,1,.07,0Z" transform="translate(0)"/><path class="cls-1" d="M623.27,376.74v10.49a3.41,3.41,0,0,0-1.7.45,3.29,3.29,0,0,0-1.26,1.25l-9.07-5.25a13.87,13.87,0,0,1,12-6.94Z" transform="translate(0)"/><path class="cls-1" d="M620.12,390.69a3.52,3.52,0,0,0,.45,1.71l-9.07,5.24a13.88,13.88,0,0,1,0-13.91l9.07,5.25A3.52,3.52,0,0,0,620.12,390.69Z" transform="translate(0)"/><path class="cls-1" d="M623.27,393.74v10.49a13.9,13.9,0,0,1-12-7l9.07-5.24a3.45,3.45,0,0,0,3,1.7Z" transform="translate(0)"/><path class="cls-1" d="M635.27,397.64a13.87,13.87,0,0,1-12,6.95V394.1a3.48,3.48,0,0,0,1.7-.45,3.36,3.36,0,0,0,1.26-1.25Z" transform="translate(0)"/><path class="cls-1" d="M637.43,390.69a13.69,13.69,0,0,1-1.86,6.95l-9.08-5.24a3.47,3.47,0,0,0,0-3.42l9.08-5.25A13.82,13.82,0,0,1,637.43,390.69Z" transform="translate(0)"/><path class="cls-1" d="M635.31,383.73,626.23,389a3.16,3.16,0,0,0-1.26-1.25,3.48,3.48,0,0,0-1.7-.45V376.81a13.84,13.84,0,0,1,12,6.94Z" transform="translate(0)"/><line class="cls-1" x1="637.77" y1="398.74" x2="637.77" y2="398.74"/><line class="cls-1" x1="637.77" y1="382.74" x2="637.77" y2="382.74"/><path class="cls-1" d="M626.94,390.69a3.41,3.41,0,0,1-.45,1.71,3.36,3.36,0,0,1-1.26,1.25,3.43,3.43,0,0,1-4.66-1.25,3.47,3.47,0,0,1,0-3.42,3.36,3.36,0,0,1,1.26-1.25,3.44,3.44,0,0,1,3.4,0,3.16,3.16,0,0,1,1.26,1.25A3.41,3.41,0,0,1,626.94,390.69Z" transform="translate(0)"/><line class="cls-1" x1="609.77" y1="382.74" x2="609.77" y2="382.74"/><line class="cls-1" x1="609.77" y1="398.74" x2="609.77" y2="398.74"/><path class="cls-1" d="M381.27,465.24v-67.6s-19.14-30.07-43-30.07-43,30.07-43,30.07v67.6" transform="translate(0)"/><path class="cls-1" d="M377.27,465.24V425.87s-2.16-19.52-17.54-19.52-17.46,19.43-17.46,19.43v39.46" transform="translate(0)"/><path class="cls-1" d="M371.27,465.24V433.32s-1.47-15.72-12-15.72-12,15.65-12,15.65v32" transform="translate(0)"/><path class="cls-1" d="M335.27,465.24V425.87s-2.16-19.52-17.54-19.52-17.46,19.43-17.46,19.43v39.46" transform="translate(0)"/><path class="cls-1" d="M329.27,465.24V433.31s-1.47-15.73-12-15.73-12,15.66-12,15.66v32" transform="translate(0)"/><path class="cls-1" d="M352.37,382.68a16,16,0,1,0,2.15,8A15.74,15.74,0,0,0,352.37,382.68Zm-1.81,15.06a13.88,13.88,0,0,1-24-13.91,13.9,13.9,0,1,1,24.07,13.91Z" transform="translate(0)"/><path class="cls-1" d="M338.27,376.81V387.3a3.51,3.51,0,0,0-1.7.45,3.36,3.36,0,0,0-1.26,1.25l-9.07-5.25a14,14,0,0,1,5.09-5.09A13.77,13.77,0,0,1,338.27,376.81Z" transform="translate(0)"/><path class="cls-1" d="M335.11,390.69a3.52,3.52,0,0,0,.45,1.71l-9.07,5.24a13.88,13.88,0,0,1,0-13.91l9.07,5.25A3.52,3.52,0,0,0,335.11,390.69Z" transform="translate(0)"/><path class="cls-1" d="M338.27,393.74v10.49a13.89,13.89,0,0,1-12-7l9.07-5.24a3.45,3.45,0,0,0,3,1.7Z" transform="translate(0)"/><path class="cls-1" d="M350.27,397.64a13.87,13.87,0,0,1-12,6.95V394.1a3.48,3.48,0,0,0,1.7-.45,3.36,3.36,0,0,0,1.26-1.25Z" transform="translate(0)"/><path class="cls-1" d="M352.42,390.69a13.69,13.69,0,0,1-1.86,6.95l-9.08-5.24a3.47,3.47,0,0,0,0-3.42l9.08-5.25A13.82,13.82,0,0,1,352.42,390.69Z" transform="translate(0)"/><path class="cls-1" d="M350.31,383.73,341.23,389a3.16,3.16,0,0,0-1.26-1.25,3.48,3.48,0,0,0-1.7-.45V376.81a13.84,13.84,0,0,1,12,6.94Z" transform="translate(0)"/><line class="cls-1" x1="352.77" y1="398.74" x2="352.77" y2="398.74"/><line class="cls-1" x1="352.77" y1="382.74" x2="352.77" y2="382.74"/><path class="cls-1" d="M341.93,390.69a3.41,3.41,0,0,1-.45,1.71,3.36,3.36,0,0,1-1.26,1.25,3.43,3.43,0,0,1-4.66-1.25,3.47,3.47,0,0,1,0-3.42,3.36,3.36,0,0,1,1.26-1.25,3.44,3.44,0,0,1,3.4,0,3.16,3.16,0,0,1,1.26,1.25A3.41,3.41,0,0,1,341.93,390.69Z" transform="translate(0)"/><line class="cls-1" x1="324.77" y1="382.74" x2="324.77" y2="382.74"/><line class="cls-1" x1="324.77" y1="398.74" x2="324.77" y2="398.74"/><line class="cls-3" x1="393.77" y1="260.74" x2="414.77" y2="260.74"/><line class="cls-3" x1="261.77" y1="260.74" x2="282.77" y2="260.74"/><line class="cls-3" x1="546.77" y1="260.74" x2="567.77" y2="260.74"/><line class="cls-3" x1="678.77" y1="260.74" x2="699.77" y2="260.74"/><line class="cls-3" x1="678.77" y1="346.74" x2="699.77" y2="346.74"/><line class="cls-3" x1="546.77" y1="346.74" x2="567.77" y2="346.74"/><line class="cls-3" x1="393.77" y1="346.74" x2="414.77" y2="346.74"/><line class="cls-3" x1="261.77" y1="346.74" x2="282.77" y2="346.74"/><line class="cls-5" x1="272.77" y1="471.74" x2="686.77" y2="471.74"/><path class="cls-6" d="M313,365.64a6.1,6.1,0,0,1-6.09,6.1h-.11a6.59,6.59,0,0,1,.1,1.09,6.11,6.11,0,1,1-12.2.52,4.51,4.51,0,0,1,0-.52,5.67,5.67,0,0,1,.1-1.09h-.6a5.23,5.23,0,0,1-4.48-2.39c-3.37-5.49,1.52-11.21,7-9.49a4.56,4.56,0,0,1,1.05.49,6.17,6.17,0,0,1,3,6.39h.2a5.77,5.77,0,0,1-.1-1.1,6.11,6.11,0,0,1,12.2,0Z" transform="translate(0)"/><path class="cls-6" d="M388.47,365.64a6.1,6.1,0,0,1-6.09,6.1h-.11a6.59,6.59,0,0,1,.1,1.09,6.11,6.11,0,1,1-12.2.52,4.51,4.51,0,0,1,0-.52,5.67,5.67,0,0,1,.1-1.09h-.1a6.1,6.1,0,1,1,6.1-6.1,5.77,5.77,0,0,1-.1,1.1h.2a5.77,5.77,0,0,1-.1-1.1,6.11,6.11,0,0,1,12.2,0Z" transform="translate(0)"/><path class="cls-6" d="M598,365.64a6.1,6.1,0,0,1-6.09,6.1h-.11a6.59,6.59,0,0,1,.1,1.09,6.11,6.11,0,1,1-12.2.52,4.51,4.51,0,0,1,0-.52,5.67,5.67,0,0,1,.1-1.09h-.1a6.1,6.1,0,1,1,6.1-6.1,5.77,5.77,0,0,1-.1,1.1h.2a5.77,5.77,0,0,1-.1-1.1,6.11,6.11,0,0,1,12.2,0Z" transform="translate(0)"/><path class="cls-6" d="M542.94,355.85a4.89,4.89,0,0,1-4.89,4.89H538a5,5,0,0,1,.07.87,4.94,4.94,0,0,1-7.44,4.23,4.47,4.47,0,0,1-2.33-4v-.25a5,5,0,0,1,.08-.87H528a4.44,4.44,0,0,1-4-2.32,4.94,4.94,0,0,1,4.22-7.45,4.89,4.89,0,0,1,4.89,4.88h0a5.35,5.35,0,0,1-.08.89h.16a5.26,5.26,0,0,1-.08-.89,4.9,4.9,0,0,1,9.78,0Z" transform="translate(0)"/><path class="cls-6" d="M439.56,355.85a4.89,4.89,0,0,1-4.88,4.89h-.09a4.21,4.21,0,0,1,.09.87,4.9,4.9,0,1,1-9.78.46,3.53,3.53,0,0,1,0-.46,5,5,0,0,1,.08-.87h-.35a4.38,4.38,0,0,1-3.85-2.15,5,5,0,0,1,6-7.26,5.11,5.11,0,0,1,2.89,3.45,5.86,5.86,0,0,1,0,2h.15a5.35,5.35,0,0,1-.08-.89,4.89,4.89,0,0,1,9.77,0Z" transform="translate(0)"/><path class="cls-6" d="M673.48,365.64a6.1,6.1,0,0,1-6.09,6.1h-.11a6.59,6.59,0,0,1,.1,1.09,6.11,6.11,0,0,1-12.2.52,4.51,4.51,0,0,1,0-.52,5.67,5.67,0,0,1,.1-1.09h-.1a6.1,6.1,0,1,1,6.1-6.1,5.77,5.77,0,0,1-.1,1.1h.2a5.77,5.77,0,0,1-.1-1.1,6.11,6.11,0,0,1,12.2,0Z" transform="translate(0)"/><path class="cls-1" d="M290.27,336.24v-46c0-8.35,10-8.35,10,0v50" transform="translate(0)"/><path class="cls-1" d="M304.27,340.24v-50c0-8.35,10-8.35,10,0v50" transform="translate(0)"/><path class="cls-1" d="M319.27,340.24v-50c0-8.35,10-8.35,10,0v50" transform="translate(0)"/><path class="cls-1" d="M333.27,340.24V290.19c0-8.36,10-8.36,10,0v50.05" transform="translate(0)"/><path class="cls-1" d="M348.27,340.24V290.19c0-8.36,10-8.36,10,0v50.05" transform="translate(0)"/><path class="cls-1" d="M362.27,340.24V290.19c0-8.36,10-8.36,10,0v50.05" transform="translate(0)"/><path class="cls-1" d="M377.27,340.24V290.19c0-8.36,10-8.36,10,0v46.05" transform="translate(0)"/><path class="cls-1" d="M304.29,277.74a1.93,1.93,0,0,1,0,.48,2.09,2.09,0,0,1-1.44,1.7A2.17,2.17,0,0,1,300,278v-.28a2.16,2.16,0,0,1,1.06-4,2.1,2.1,0,0,1,1.07.29,2.14,2.14,0,0,1,2.14,3.71Z" transform="translate(0)"/><path class="cls-1" d="M318.84,277.74a1.93,1.93,0,0,1,0,.48,2.09,2.09,0,0,1-1.44,1.7,2.17,2.17,0,0,1-2.85-1.9v-.28a2.16,2.16,0,0,1,1.06-4,2.1,2.1,0,0,1,1.07.29,2.14,2.14,0,0,1,2.14,3.71Z" transform="translate(0)"/><path class="cls-1" d="M307.87,268.74v-.2a1.58,1.58,0,0,1,3.15,0,.67.67,0,0,1,0,.2,1.58,1.58,0,0,1,.74,2.11,1.59,1.59,0,0,1-1.51.89,1.7,1.7,0,0,1-.79-.21,1.66,1.66,0,0,1-.79.21,1.58,1.58,0,0,1-.77-3Z" transform="translate(0)"/><path class="cls-1" d="M293.32,268.74v-.2a1.57,1.57,0,1,1,3.14,0,.67.67,0,0,1,0,.2,1.58,1.58,0,0,1,.74,2.11,1.59,1.59,0,0,1-1.51.89,1.7,1.7,0,0,1-.79-.21,1.66,1.66,0,0,1-.79.21,1.58,1.58,0,0,1-.77-3Z" transform="translate(0)"/><path class="cls-1" d="M322.42,268.4v-.2a1.58,1.58,0,0,1,3.15,0,.67.67,0,0,1,0,.2,1.58,1.58,0,0,1-.77,3h0a1.58,1.58,0,0,1-.79-.21,1.66,1.66,0,0,1-.79.21,1.58,1.58,0,0,1-.77-3Z" transform="translate(0)"/><path class="cls-1" d="M337,268.4v-.2a1.58,1.58,0,0,1,3.15,0,.67.67,0,0,1,0,.2,1.58,1.58,0,0,1-.77,3h0a1.58,1.58,0,0,1-.79-.21,1.66,1.66,0,0,1-.79.21,1.58,1.58,0,0,1-.77-3Z" transform="translate(0)"/><path class="cls-1" d="M351.52,268.79v-.2a1.58,1.58,0,0,1,3.15,0,.67.67,0,0,1,0,.2,1.58,1.58,0,0,1-.77,2.95h0a1.57,1.57,0,0,0-1.57,0,1.58,1.58,0,0,1-.77-3Z" transform="translate(0)"/><path class="cls-1" d="M366,268.76v-.2a1.58,1.58,0,0,1,3.15,0,.67.67,0,0,1,0,.2,1.59,1.59,0,0,1,.85,1.41,1.57,1.57,0,0,1-1.57,1.57h0a1.57,1.57,0,0,0-1.57,0,1.58,1.58,0,0,1-.77-3Z" transform="translate(0)"/><path class="cls-1" d="M381.36,268.4a.67.67,0,0,1,0-.2,1.58,1.58,0,0,1,3.15,0,.67.67,0,0,1,0,.2,1.58,1.58,0,1,1-1.37,2.84l-.19-.1a1.6,1.6,0,1,1-1.55-2.79Z" transform="translate(0)"/><path class="cls-1" d="M333.39,277.74a1.93,1.93,0,0,1,0,.48,2.09,2.09,0,0,1-1.44,1.7,2.17,2.17,0,0,1-2.85-1.9,1.31,1.31,0,0,1,0-.28,2.16,2.16,0,0,1,1.06-4,2.1,2.1,0,0,1,1.07.29,2.14,2.14,0,0,1,2.14,3.71Z" transform="translate(0)"/><path class="cls-1" d="M347.94,278a1.31,1.31,0,0,1,0,.28,2.16,2.16,0,0,1-4.31,0,1.31,1.31,0,0,1,0-.28,2.16,2.16,0,0,1,1.91-3.88l.22.13a2.14,2.14,0,0,1,2.14,3.71Z" transform="translate(0)"/><path class="cls-1" d="M362.49,278a1.31,1.31,0,0,1,0,.28,2.16,2.16,0,0,1-4.31,0,1.31,1.31,0,0,1,0-.28,2.16,2.16,0,0,1,1.91-3.88l.22.13a2.14,2.14,0,0,1,2.14,3.71Z" transform="translate(0)"/><path class="cls-1" d="M377,278a1.31,1.31,0,0,1,0,.28,2.16,2.16,0,0,1-4.31,0,1.31,1.31,0,0,1,0-.28,2.16,2.16,0,0,1,1.91-3.88l.22.13a2.14,2.14,0,0,1,2.14,3.71Z" transform="translate(0)"/><line class="cls-1" x1="287.77" y1="341.74" x2="389.77" y2="341.74"/><line class="cls-1" x1="390.77" y1="343.74" x2="286.77" y2="343.74"/><path class="cls-1" d="M425.27,342.24v-45c0-10,12-10,12,0v45" transform="translate(0)"/><path class="cls-1" d="M442.27,342.24v-45c0-10,12-10,12,0v45" transform="translate(0)"/><path class="cls-1" d="M458.27,342.24v-45c0-10,12-10,12,0v45" transform="translate(0)"/><path class="cls-1" d="M474.27,342.24v-45c0-10,12-10,12,0v45" transform="translate(0)"/><path class="cls-1" d="M491.27,342.24v-45c0-10,12-10,12,0v45" transform="translate(0)"/><path class="cls-1" d="M507.27,342.24v-45c0-10,12-10,12,0v45" transform="translate(0)"/><path class="cls-1" d="M524.27,342.24v-45c0-10,12-10,12,0v45" transform="translate(0)"/><path class="cls-1" d="M442.94,283.81a2.67,2.67,0,0,1,0,.4,3.17,3.17,0,0,1-6.34,0,2.67,2.67,0,0,1,0-.4,3.18,3.18,0,0,1,2.84-5.69,2.14,2.14,0,0,1,.3.17,3.31,3.31,0,0,1,1.59-.42A3.17,3.17,0,0,1,444.5,281h0A3.19,3.19,0,0,1,442.94,283.81Z" transform="translate(0)"/><path class="cls-1" d="M429.4,270.81l0-.06a2.32,2.32,0,1,1,4.6-.54,1.6,1.6,0,0,1,0,.31,1.41,1.41,0,0,1,0,.29,2.32,2.32,0,0,1-1.13,4.34,7.76,7.76,0,0,0-3.62-.37,2.26,2.26,0,0,1-1-1.94h0A2.37,2.37,0,0,1,429.4,270.81Z" transform="translate(0)"/><path class="cls-1" d="M445.7,270.81v-.29a2.32,2.32,0,0,1,4.63-.31,1.6,1.6,0,0,1,0,.31,1.41,1.41,0,0,1,0,.29,2.32,2.32,0,0,1-1.82,4.26,2.68,2.68,0,0,1-.47-.26,2.45,2.45,0,0,1-1.16.31,2.32,2.32,0,0,1-1.14-4.34Z" transform="translate(0)"/><path class="cls-1" d="M462.4,270.81l0-.06a2.32,2.32,0,1,1,4.6-.54,1.6,1.6,0,0,1,0,.31,1.41,1.41,0,0,1,0,.29,2.32,2.32,0,0,1-1.13,4.34,7.76,7.76,0,0,0-3.62-.37,2.26,2.26,0,0,1-1-1.94h0A2.37,2.37,0,0,1,462.4,270.81Z" transform="translate(0)"/><path class="cls-1" d="M478.48,270.74a1.4,1.4,0,0,1,0-.29,2.32,2.32,0,0,1,4.63-.31,1.61,1.61,0,0,1,0,.31,1.4,1.4,0,0,1,0,.29,2.32,2.32,0,0,1-1.13,4.34,2.4,2.4,0,0,1-1.16-.31,2.45,2.45,0,0,1-1.16.31,2.32,2.32,0,0,1-1.13-4.34Z" transform="translate(0)"/><path class="cls-1" d="M494.86,270.74v-.29a2.32,2.32,0,0,1,4.63-.31,1.61,1.61,0,0,1,0,.31,1.4,1.4,0,0,1,0,.29,2.32,2.32,0,0,1-1.14,4.34,2.51,2.51,0,0,1-1.16-.31,2.41,2.41,0,0,1-1.15.31,2.32,2.32,0,0,1-1.14-4.34Z" transform="translate(0)"/><path class="cls-1" d="M511.25,270.81a1.41,1.41,0,0,1,0-.29,2.32,2.32,0,0,1,4.63-.31,1.6,1.6,0,0,1,0,.31,1.41,1.41,0,0,1,0,.29,2.32,2.32,0,0,1-1.13,4.34,2.4,2.4,0,0,1-1.16-.31,2.34,2.34,0,0,1-1.16.31,2.31,2.31,0,0,1-2.4-2.22v-.12A2.35,2.35,0,0,1,511.25,270.81Z" transform="translate(0)"/><path class="cls-1" d="M527.64,270.74a1.4,1.4,0,0,1,0-.29,2.32,2.32,0,0,1,4.63-.31,1.61,1.61,0,0,1,0,.31,1.4,1.4,0,0,1,0,.29,2.32,2.32,0,0,1-1.13,4.34,2.4,2.4,0,0,1-1.16-.31,2.45,2.45,0,0,1-1.16.31,2.32,2.32,0,0,1-1.13-4.34Z" transform="translate(0)"/><line class="cls-1" x1="419.77" y1="341.74" x2="541.77" y2="341.74"/><line class="cls-1" x1="542.77" y1="343.74" x2="418.77" y2="343.74"/><path class="cls-1" d="M574.27,336.24V290.19c0-8.36,10-8.36,10,0v50.05" transform="translate(0)"/><path class="cls-1" d="M589.27,340.24V290.19c0-8.36,10-8.36,10,0v50.05" transform="translate(0)"/><path class="cls-1" d="M603.27,340.24V290.19c0-8.36,10-8.36,10,0v50.05" transform="translate(0)"/><path class="cls-1" d="M618.27,340.24V290.19c0-8.36,10-8.36,10,0v50.05" transform="translate(0)"/><path class="cls-1" d="M633.27,340.24V290.19c0-8.36,10-8.36,10,0v50.05" transform="translate(0)"/><path class="cls-1" d="M647.27,340.24V290.19c0-8.36,10-8.36,10,0v50.05" transform="translate(0)"/><path class="cls-1" d="M662.27,340.24V290.19c0-8.36,10-8.36,10,0v46.05" transform="translate(0)"/><path class="cls-1" d="M589,278a1.31,1.31,0,0,1,0,.28,2.16,2.16,0,0,1-4.31,0,1.31,1.31,0,0,1,0-.28,2.16,2.16,0,0,1,1.91-3.88l.22.13a2.14,2.14,0,0,1,2.14,3.71Z" transform="translate(0)"/><path class="cls-1" d="M603.6,277.74a1.93,1.93,0,0,1,0,.48,2.09,2.09,0,0,1-1.43,1.7,2.17,2.17,0,0,1-2.86-1.9,1.31,1.31,0,0,1,0-.28,2.17,2.17,0,0,1-.71-3,272.58,272.58,0,0,0,3.92-1,2.16,2.16,0,0,1,1.06,4Z" transform="translate(0)"/><path class="cls-1" d="M592.63,268.4v-.2a1.58,1.58,0,0,1,3.15,0,.67.67,0,0,1,0,.2,1.58,1.58,0,0,1-.76,3,1.59,1.59,0,0,1-.8-.21,1.66,1.66,0,0,1-.79.21,1.57,1.57,0,0,1-.77-3Z" transform="translate(0)"/><path class="cls-1" d="M578.08,268.76v-.2a1.58,1.58,0,0,1,3.15,0,.67.67,0,0,1,0,.2,1.6,1.6,0,0,1-.77,3h0a1.57,1.57,0,0,0-1.57,0,1.58,1.58,0,0,1-.77-3Z" transform="translate(0)"/><path class="cls-1" d="M607.18,268.74v-.2a1.58,1.58,0,0,1,3.15,0,.67.67,0,0,1,0,.2,1.56,1.56,0,0,1,.8,2.07,1.58,1.58,0,0,1-1.57.93,1.66,1.66,0,0,1-.78-.21,1.79,1.79,0,0,1-.79.21,1.57,1.57,0,0,1-.77-3Z" transform="translate(0)"/><path class="cls-1" d="M621.73,268.74v-.2a1.58,1.58,0,0,1,3.15,0,.67.67,0,0,1,0,.2,1.56,1.56,0,0,1,.8,2.07,1.58,1.58,0,0,1-1.57.93,1.66,1.66,0,0,1-.78-.21,1.79,1.79,0,0,1-.79.21,1.57,1.57,0,0,1-.77-3Z" transform="translate(0)"/><path class="cls-1" d="M636.28,268.74v-.2a1.58,1.58,0,0,1,3.15,0,.67.67,0,0,1,0,.2,1.56,1.56,0,0,1,.8,2.07,1.58,1.58,0,0,1-1.57.93,1.82,1.82,0,0,1-.79-.21,1.71,1.71,0,0,1-.78.21,1.57,1.57,0,0,1-.77-3Z" transform="translate(0)"/><path class="cls-1" d="M650.83,268.74v-.2a1.58,1.58,0,0,1,3.15,0,.67.67,0,0,1,0,.2,1.56,1.56,0,0,1,.8,2.07,1.58,1.58,0,0,1-1.57.93,1.82,1.82,0,0,1-.79-.21,1.71,1.71,0,0,1-.78.21,1.57,1.57,0,0,1-.77-3Z" transform="translate(0)"/><path class="cls-1" d="M666.11,268.74v-.2a1.58,1.58,0,0,1,3.15,0,.67.67,0,0,1,0,.2,1.58,1.58,0,0,1,.74,2.11,1.59,1.59,0,0,1-1.51.89,1.59,1.59,0,0,0-1.58,0,1.58,1.58,0,0,1-.77-3Z" transform="translate(0)"/><path class="cls-1" d="M618.14,277.74a1.31,1.31,0,0,1,0,.28,2.16,2.16,0,1,1-4.32,0,1.31,1.31,0,0,1,0-.28,3.2,3.2,0,1,1,4.21,0Z" transform="translate(0)"/><path class="cls-1" d="M632.69,277.74a1.31,1.31,0,0,1,0,.28,2.16,2.16,0,0,1-4.32,0,1.31,1.31,0,0,1,0-.28,2.17,2.17,0,0,1-.71-3,272.58,272.58,0,0,0,3.92-1,2.16,2.16,0,0,1,1,4Z" transform="translate(0)"/><path class="cls-1" d="M647.24,277.74a1.31,1.31,0,0,1,0,.28,2.16,2.16,0,1,1-4.32,0,1.31,1.31,0,0,1,0-.28,2.17,2.17,0,0,1-.71-3,272.58,272.58,0,0,0,3.92-1,2.16,2.16,0,0,1,1,4Z" transform="translate(0)"/><path class="cls-1" d="M661.79,277.74a1.31,1.31,0,0,1,0,.28,2.16,2.16,0,0,1-4.31,0,1.31,1.31,0,0,1,0-.28,2.17,2.17,0,0,1-.71-3,272.58,272.58,0,0,0,3.92-1,2.16,2.16,0,0,1,1,4Z" transform="translate(0)"/><line class="cls-1" x1="572.77" y1="341.74" x2="673.77" y2="341.74"/><line class="cls-1" x1="674.77" y1="343.74" x2="571.77" y2="343.74"/><path class="cls-1" d="M460,283.61l-.3.6a3.17,3.17,0,0,1-6.34,0l-.31-.58a3.18,3.18,0,0,1,3.15-5.51,2.14,2.14,0,0,1,.3.17,3.33,3.33,0,0,1,3.34.06,3.09,3.09,0,0,1,1.41,2.68h0A3.21,3.21,0,0,1,460,283.61Z" transform="translate(0)"/><path class="cls-1" d="M475.7,283.83a2.67,2.67,0,0,1,0,.4,3.22,3.22,0,0,1-6.43,0h0a2.67,2.67,0,0,1,0-.4,3.22,3.22,0,0,1,2.88-5.77,3.07,3.07,0,0,1,.31.17,3.33,3.33,0,0,1,1.61-.42,3.2,3.2,0,0,1,3.2,3.2h0A3.23,3.23,0,0,1,475.7,283.83Z" transform="translate(0)"/><path class="cls-1" d="M492,283.61l-.3.6a3.17,3.17,0,0,1-6.34,0l-.31-.58a3.18,3.18,0,0,1,3.15-5.51,2.14,2.14,0,0,1,.3.17,3.28,3.28,0,0,1,3.59.25,3.06,3.06,0,0,1,1.16,2.48v0A3.21,3.21,0,0,1,492,283.61Z" transform="translate(0)"/><path class="cls-1" d="M509,283.61l-.3.6a3.17,3.17,0,0,1-6.34,0l-.3-.6a3.17,3.17,0,0,1,3.44-5.32,3.28,3.28,0,0,1,3.59.25,3.06,3.06,0,0,1,1.16,2.48v0A3.21,3.21,0,0,1,509,283.61Z" transform="translate(0)"/><path class="cls-1" d="M525,283.61l-.3.6a3.17,3.17,0,0,1-6.34,0l-.3-.6a3.16,3.16,0,0,1-.93-4.11,3.19,3.19,0,0,1,2.78-1.63,3.15,3.15,0,0,1,1.59.42,3.28,3.28,0,0,1,3.59.25,3.06,3.06,0,0,1,1.16,2.48v0A3.21,3.21,0,0,1,525,283.61Z" transform="translate(0)"/><path class="cls-1" d="M428.27,341.24V299.81c0-8.77,7-8.77,7,0v41.43" transform="translate(0)"/><path class="cls-1" d="M444.27,341.24V299.83c0-8.75,7-8.75,7,0v41.41" transform="translate(0)"/><path class="cls-1" d="M461.27,341.24V299.81c0-8.77,7-8.77,7,0v41.43" transform="translate(0)"/><path class="cls-1" d="M477.27,341.24V299.81c0-8.77,7-8.77,7,0v41.43" transform="translate(0)"/><path class="cls-1" d="M493.27,341.24V300c0-8.69,7-8.69,7,0v41.29" transform="translate(0)"/><path class="cls-1" d="M510.27,341.24V299.81c0-8.77,7-8.77,7,0l.13,41.43" transform="translate(0)"/><path class="cls-1" d="M526.27,341.24V299.81c0-8.77,7-8.77,7,0v41.43" transform="translate(0)"/><path class="cls-1" d="M544.27,660.74h-127V590a72.84,72.84,0,0,1,18.48-48.49c38.54-43.15,49.29-43,89.09-.17a72.7,72.7,0,0,1,19.43,49.58Z" transform="translate(0)"/><path class="cls-1" d="M538.27,660.74h-115v-67a70.88,70.88,0,0,1,16.74-46c34.89-40.9,44.62-40.73,80.66-.17a70.7,70.7,0,0,1,17.6,47Z" transform="translate(0)"/><path class="cls-1" d="M530.24,660.74h-99V597.53A70.81,70.81,0,0,1,445.7,554.2c30-38.58,38.41-38.42,69.42-.16,9.76,12,15.15,27.86,15.15,44.28Z" transform="translate(0)"/><path class="cls-1" d="M524.27,660.74h-87V601.59c0-15,4.51-29.41,12.67-40.56,26.39-36.11,33.75-36,61-.15,8.57,11.25,13.31,26.07,13.31,41.44Z" transform="translate(0)"/><path class="cls-1" d="M517.27,660.74h-73v-55.1c0-13.94,3.78-27.39,10.62-37.79,22.16-33.63,28.33-33.49,51.2-.13,7.2,10.48,11.18,24.28,11.18,38.6Z" transform="translate(0)"/><path class="cls-1" d="M473.6,601.74H459a2.68,2.68,0,0,1-2.7,2.65h0v56.35h20V604.39A2.68,2.68,0,0,1,473.6,601.74Z" transform="translate(0)"/><path class="cls-1" d="M503.6,601.74H489a2.68,2.68,0,0,1-2.7,2.65h0v56.35h20V604.39A2.68,2.68,0,0,1,503.6,601.74Z" transform="translate(0)"/><path class="cls-1" d="M388.27,660.74h-88V611.6a50.69,50.69,0,0,1,12.8-33.66c26.69-30,34.13-29.87,61.7-.12a50.64,50.64,0,0,1,13.5,34.39Z" transform="translate(0)"/><path class="cls-1" d="M384.22,660.74h-80V614.17a49.18,49.18,0,0,1,11.65-31.94c24.27-28.43,31.05-28.31,56.11-.12a49.09,49.09,0,0,1,12.24,32.63Z" transform="translate(0)"/><path class="cls-1" d="M378.27,660.74h-69V616.82a49,49,0,0,1,10-30.12c21-26.81,26.8-26.7,48.44-.11a48.86,48.86,0,0,1,10.56,30.77Z" transform="translate(0)"/><path class="cls-1" d="M374.27,660.74h-61V619.63a47.74,47.74,0,0,1,8.88-28.19c18.51-25.09,23.67-25,42.78-.1a47.51,47.51,0,0,1,9.34,28.8Z" transform="translate(0)"/><path class="cls-1" d="M369.27,660.74h-51V622.45a48.13,48.13,0,0,1,7.42-26.26c15.47-23.37,19.8-23.28,35.77-.1,5,7.29,7.81,16.88,7.81,26.83Z" transform="translate(0)"/><path class="cls-1" d="M337.56,619.74h-8.31s-1.17,2.49-2.64,3h-.34v38h14V622.39A2.68,2.68,0,0,1,337.56,619.74Z" transform="translate(0)"/><path class="cls-1" d="M358.56,619.74H350.1s-1.17,2.49-2.64,3h-.19v38h14V622.39A2.68,2.68,0,0,1,358.56,619.74Z" transform="translate(0)"/><path class="cls-1" d="M662.27,660.74h-88V611.6a50.7,50.7,0,0,1,12.81-33.66c26.71-30,34.15-29.87,61.72-.12a50.59,50.59,0,0,1,13.47,34.43Z" transform="translate(0)"/><path class="cls-1" d="M658.27,660.74h-80V614.17a49.25,49.25,0,0,1,11.64-31.94c24.27-28.43,31.05-28.31,56.12-.12a49.14,49.14,0,0,1,12.24,32.63Z" transform="translate(0)"/><path class="cls-1" d="M653.27,660.74h-69V616.82a49.14,49.14,0,0,1,10-30.12c21-26.81,26.8-26.7,48.44-.11a48.86,48.86,0,0,1,10.56,30.77Z" transform="translate(0)"/><path class="cls-1" d="M649.29,660.74h-61V619.63a47.81,47.81,0,0,1,8.86-28.19c18.52-25.09,23.69-25,42.81-.1a47.5,47.5,0,0,1,9.33,28.8Z" transform="translate(0)"/><path class="cls-1" d="M644.27,660.74h-51V622.45a48.06,48.06,0,0,1,7.43-26.26c15.47-23.37,19.79-23.28,35.77-.1,5,7.29,7.8,16.88,7.8,26.83Z" transform="translate(0)"/><path class="cls-1" d="M612.27,619.74h-8.35a2.65,2.65,0,0,1-2.65,2.65v38.35h14v-38.5a2.75,2.75,0,0,1-3-2.65Z" transform="translate(0)"/><path class="cls-1" d="M633.56,619.74H625a2.69,2.69,0,0,1-2.72,2.65v38.35h14V622.39A2.68,2.68,0,0,1,633.56,619.74Z" transform="translate(0)"/></g><polyline class="cls-7" points="957.32 636.74 957.32 660.74 933.32 660.74"/><line class="cls-8" x1="872.28" y1="660.74" x2="780.74" y2="660.74"/><polyline class="cls-7" points="750.22 660.74 726.22 660.74 726.22 636.74"/><line class="cls-9" x1="726.22" y1="587.99" x2="726.22" y2="417.37"/><polyline class="cls-7" points="726.22 392.99 726.22 368.99 714.15 389.74"/><line class="cls-10" x1="693.35" y1="425.49" x2="578.93" y2="622.12"/><polyline class="cls-7" points="568.53 639.99 556.46 660.74 532.46 660.74"/><line class="cls-11" x1="498.09" y1="660.74" x2="446.54" y2="660.74"/><polyline class="cls-7" points="429.36 660.74 405.36 660.74 393.29 639.99"/><line class="cls-10" x1="372.48" y1="604.24" x2="258.07" y2="407.61"/><polyline class="cls-7" points="247.66 389.74 235.59 368.99 235.59 392.99"/><line class="cls-9" x1="235.59" y1="441.74" x2="235.59" y2="612.36"/><polyline class="cls-7" points="235.59 636.74 235.59 660.74 211.59 660.74"/><line class="cls-8" x1="150.56" y1="660.74" x2="59.02" y2="660.74"/><polyline class="cls-7" points="28.5 660.74 4.5 660.74 4.5 636.74"/><line class="cls-12" x1="4.5" y1="585.35" x2="4.5" y2="97.16"/><polyline class="cls-7" points="4.5 71.47 4.5 47.47 28.5 47.47"/><line class="cls-13" x1="75.78" y1="47.46" x2="241.28" y2="47.46"/><polyline class="cls-7" points="264.92 47.47 288.92 47.47 300.45 68.51"/><line class="cls-14" x1="324.59" y1="112.56" x2="457.31" y2="354.83"/><polyline class="cls-7" points="469.38 376.86 480.91 397.91 492.44 376.86"/><line class="cls-15" x1="516.57" y1="332.81" x2="649.3" y2="90.54"/><polyline class="cls-7" points="661.36 68.51 672.89 47.47 696.89 47.47"/><line class="cls-13" x1="744.18" y1="47.46" x2="909.67" y2="47.46"/><polyline class="cls-7" points="933.32 47.47 957.32 47.47 957.32 71.47"/><line class="cls-12" x1="957.32" y1="122.85" x2="957.32" y2="611.04"/></g></g></svg>