<svg xmlns="http://www.w3.org/2000/svg" viewBox="0 0 1747.92 920.28"><defs><style>.cls-1{fill:#fff;}.cls-2,.cls-6{fill:#e95925;}.cls-3,.cls-7{fill:#1d1d1b;}.cls-3,.cls-4,.cls-5,.cls-6{stroke:#fff;stroke-miterlimit:10;}.cls-4,.cls-5{fill:none;}.cls-5,.cls-6{stroke-width:2px;}</style></defs><title>petra-w_1</title><g id="Calque_2" data-name="Calque 2"><g id="Calque_1-2" data-name="Calque 1"><path class="cls-1" d="M32.87,7.63a4.11,4.11,0,0,1-1.27,3.29,6.14,6.14,0,0,1-4,1.08,6.21,6.21,0,0,1-4-1.07,4.11,4.11,0,0,1-1.26-3.3V3.29h1.83V7.6A3.68,3.68,0,0,0,24.39,9a2,2,0,0,0,1,1,4.64,4.64,0,0,0,2.19.41A4.57,4.57,0,0,0,29.77,10a2,2,0,0,0,1-1A3.49,3.49,0,0,0,31,7.6V3.29h1.85Z"/><path class="cls-1" d="M43.46,10.06V3.29h1.85v8.47H42.64L36.43,5v6.77H34.6V3.29h2.67Z"/><path class="cls-1" d="M56.05,3.29V4.82H49V6.76h6.8V8.29H49v1.93h7v1.54H47.17V3.29Z"/><path class="cls-1" d="M74.44,11.76H72.38l-1-1.76H65.57l-1,1.76H62.54l4.72-8.47h2.45Zm-6-7.06L66.4,8.5h4.18Z"/><path class="cls-1" d="M84.5,10.06V3.29h1.85v8.47H83.68L77.47,5v6.77H75.64V3.29h2.67Z"/><path class="cls-1" d="M89.25,4.21a6.07,6.07,0,0,1,4-1.16,7.5,7.5,0,0,1,2.66.42,4,4,0,0,1,1.73,1.19,3.45,3.45,0,0,1,.75,1.76h-2a1.93,1.93,0,0,0-1-1.29,4.29,4.29,0,0,0-2.19-.47,4,4,0,0,0-2.53.7,2.6,2.6,0,0,0-.89,2.15,2.63,2.63,0,0,0,.89,2.17,4,4,0,0,0,2.53.71,4.25,4.25,0,0,0,2.18-.48,2,2,0,0,0,1-1.32h2a3.56,3.56,0,0,1-.76,1.78,4.06,4.06,0,0,1-1.73,1.2,7.27,7.27,0,0,1-2.66.43,6,6,0,0,1-4-1.18,4.11,4.11,0,0,1-1.36-3.31A4.11,4.11,0,0,1,89.25,4.21Z"/><path class="cls-1" d="M99.94,3.29h1.83v8.47H99.94Z"/><path class="cls-1" d="M112.51,3.29V4.82h-7V6.76h6.8V8.29h-6.8v1.93h7v1.54h-8.88V3.29Z"/><path class="cls-1" d="M123,10.06V3.29h1.85v8.47H122.2L116,5v6.77h-1.83V3.29h2.67Z"/><path class="cls-1" d="M135.6,10.06V3.29h1.85v8.47h-2.68L128.57,5v6.77h-1.84V3.29h2.68Z"/><path class="cls-1" d="M148.19,3.29V4.82h-7.05V6.76H148V8.29h-6.81v1.93h7.05v1.54h-8.88V3.29Z"/><path class="cls-1" d="M156,4.21a6.07,6.07,0,0,1,4-1.16,7.5,7.5,0,0,1,2.66.42,4,4,0,0,1,1.73,1.19,3.45,3.45,0,0,1,.75,1.76h-2a1.9,1.9,0,0,0-1-1.29,4.29,4.29,0,0,0-2.19-.47,4,4,0,0,0-2.53.7,2.6,2.6,0,0,0-.88,2.15,2.63,2.63,0,0,0,.88,2.17,4,4,0,0,0,2.53.71,4.25,4.25,0,0,0,2.18-.48,2,2,0,0,0,1-1.32h2a3.56,3.56,0,0,1-.76,1.78,4.06,4.06,0,0,1-1.73,1.2,7.27,7.27,0,0,1-2.66.43,6,6,0,0,1-4-1.18,4.11,4.11,0,0,1-1.36-3.31A4.11,4.11,0,0,1,156,4.21Z"/><path class="cls-1" d="M166.73,3.29h1.83v8.47h-1.83Z"/><path class="cls-1" d="M180.34,3.29V4.9H176.1v6.86h-1.85V4.9H170V3.29Z"/><path class="cls-1" d="M190.66,3.29V4.82h-7V6.76h6.81V8.29h-6.81v1.93h7v1.54h-8.88V3.29ZM184,2.18V1l4.67-1V1.22Z"/><path class="cls-1" d="M209,11.76h-2L206,10h-5.84l-1,1.76h-2l4.71-8.47h2.45ZM203.09,4.7,201,8.5h4.19Z"/><path class="cls-1" d="M219.11,10.06V3.29H221v8.47h-2.68L212.08,5v6.77h-1.84V3.29h2.68Z"/><path class="cls-1" d="M232.73,3.29V4.9h-4.24v6.86h-1.85V4.9h-4.23V3.29Z"/><path class="cls-1" d="M234.17,3.29H236v8.47h-1.83Z"/><path class="cls-1" d="M247.28,10.64l.89.88-1,1.06L246,11.47a7.58,7.58,0,0,1-3,.53,6.15,6.15,0,0,1-4.08-1.19,4.09,4.09,0,0,1-1.39-3.3,4.06,4.06,0,0,1,1.39-3.28,7.64,7.64,0,0,1,8.16,0,4.06,4.06,0,0,1,1.39,3.28A4.15,4.15,0,0,1,247.28,10.64Zm-2.59-.48L243,8.53l1-1L246,9.34a2.87,2.87,0,0,0,.56-1.83q0-2.85-3.51-2.85a4.15,4.15,0,0,0-2.63.7,2.57,2.57,0,0,0-.88,2.15q0,2.88,3.51,2.88A5.17,5.17,0,0,0,244.69,10.16Z"/><path class="cls-1" d="M259.82,7.63a4.07,4.07,0,0,1-1.27,3.29,8,8,0,0,1-8,0,4.08,4.08,0,0,1-1.27-3.3V3.29h1.84V7.6A3.68,3.68,0,0,0,251.34,9a2.06,2.06,0,0,0,1,1,6.05,6.05,0,0,0,4.38,0,2,2,0,0,0,1-1A3.68,3.68,0,0,0,258,7.6V3.29h1.85Z"/><path class="cls-1" d="M270.43,3.29V4.82h-7V6.76h6.8V8.29h-6.8v1.93h7v1.54h-8.88V3.29Z"/><path class="cls-1" d="M288.82,11.76h-2.06l-1-1.76H280l-1,1.76h-2.06l4.72-8.47h2.45Zm-6-7.06-2.08,3.8H285Z"/><path class="cls-1" d="M300.19,9.38a2.25,2.25,0,0,1-.69,1.75,3.08,3.08,0,0,1-2.13.63H290V3.29h7.22a2.84,2.84,0,0,1,2,.59,2,2,0,0,1,.62,1.53,2.35,2.35,0,0,1-.27,1.12,2.2,2.2,0,0,1-.75.83A2.11,2.11,0,0,1,300.19,9.38Zm-8.34-4.59v2h4.74a3.86,3.86,0,0,0,.77,0,.67.67,0,0,0,.43-.26,1.24,1.24,0,0,0,.16-.7,1.19,1.19,0,0,0-.16-.68.67.67,0,0,0-.43-.26,3.86,3.86,0,0,0-.77,0Zm5.07,5.47a4.44,4.44,0,0,0,.73,0,.63.63,0,0,0,.41-.27,1.2,1.2,0,0,0,.16-.71,1.24,1.24,0,0,0-.16-.72.64.64,0,0,0-.41-.28,4.44,4.44,0,0,0-.73-.05h-5.07v2.08Z"/><path class="cls-1" d="M312.65,11.76h-2l-1-1.76h-5.84l-1,1.76h-2.05l4.71-8.47h2.45ZM306.7,4.7l-2.09,3.8h4.19Z"/><path class="cls-1" d="M322.72,10.06V3.29h1.84v8.47h-2.67L315.68,5v6.77h-1.83V3.29h2.67Z"/><path class="cls-1" d="M334.57,3.76a3.54,3.54,0,0,1,1.48,1.42,4.58,4.58,0,0,1,.55,2.34,4.62,4.62,0,0,1-.55,2.35,3.54,3.54,0,0,1-1.48,1.42,4.57,4.57,0,0,1-2.07.47h-6.08V3.29h6.08A4.44,4.44,0,0,1,334.57,3.76Zm-2.95,6.39a5.46,5.46,0,0,0,1.68-.21,1.75,1.75,0,0,0,1-.78,3.18,3.18,0,0,0,.34-1.64,3.22,3.22,0,0,0-.34-1.65,1.74,1.74,0,0,0-1-.77,5.5,5.5,0,0,0-1.68-.2h-3.36v5.25Z"/><path class="cls-1" d="M339.4,10.81a4.1,4.1,0,0,1-1.4-3.3,4.07,4.07,0,0,1,1.4-3.28,7.64,7.64,0,0,1,8.16,0A4.1,4.1,0,0,1,349,7.51a4.6,4.6,0,0,1-.61,2.4,4,4,0,0,1-1.85,1.54,7.29,7.29,0,0,1-3,.55A6.11,6.11,0,0,1,339.4,10.81ZM347,7.51q0-2.85-3.5-2.85a4.18,4.18,0,0,0-2.64.7A2.57,2.57,0,0,0,340,7.51q0,2.88,3.52,2.88T347,7.51Z"/><path class="cls-1" d="M359.35,10.06V3.29h1.85v8.47h-2.68L352.32,5v6.77h-1.84V3.29h2.68Z"/><path class="cls-1" d="M371.93,10.06V3.29h1.85v8.47H371.1L364.89,5v6.77h-1.83V3.29h2.68Z"/><path class="cls-1" d="M384.51,3.29V4.82h-7V6.76h6.81V8.29h-6.81v1.93h7v1.54h-8.87V3.29Zm-6.67-1.11V1l4.67-1V1.22Z"/><path class="cls-1" d="M395,3.29V4.82h-7V6.76h6.8V8.29H388v1.93h7v1.54h-8.88V3.29Z"/><path class="cls-1" d="M37.42,207c9.48,0,14.24,3.6,14.85,10.47H46.05c-.58-3.84-3.53-5.34-8.63-5.34-6.22,0-8.84,2.21-8.84,7.07s2.65,7.14,8.84,7.14c5.06,0,8-1.53,8.63-5.4h6.22c-.61,6.9-5.37,10.54-14.85,10.54-10.47,0-15-4.36-15-12.28S27,207,37.42,207Z"/><path class="cls-1" d="M60.61,212.2V217h19v4.42h-19v4.82h19v4.87H54.49v-23.8H79.64v4.86Zm13-10.37-13.22,2.72v-4l13.22-2.72Z"/><path class="cls-1" d="M106.33,226v5.14H81.86v-23.8H88V226Z"/><path class="cls-1" d="M114.84,212.2V217h19v4.42h-19v4.82h19v4.87H108.72v-23.8h25.15v4.86Zm13-7.65-13.22-2.72v-4l13.22,2.72Z"/><path class="cls-1" d="M165.59,224.2c0,4-2.34,6.94-7.75,6.94H136.09v-23.8H157c5.4,0,7.07,2.75,7.07,6.25a7,7,0,0,1-1.87,4.63A6.71,6.71,0,0,1,165.59,224.2Zm-23.38-7.51h12.64c1.63,0,3.13,0,3.13-2.48s-1.5-2.45-3.16-2.45H142.21Zm17.27,7.2c0-2.51-1.5-2.51-3.13-2.51H142.21v5h14.14C158,226.41,159.48,226.41,159.48,223.89Z"/><path class="cls-1" d="M190.25,224.06l4.38,7.08h-7.21l-3.84-6.36h-9.86v6.36H167.6v-23.8h18.7c5.41,0,9.11,3.43,9.11,8.74A8.1,8.1,0,0,1,190.25,224.06Zm-16.53-4.42H184.6c1.84,0,4.69,0,4.69-3.56s-2.85-3.61-4.69-3.61H173.72Z"/><path class="cls-1" d="M203.54,212.2V217h19v4.42h-19v4.82h19v4.87H197.42v-23.8h25.16v4.86Z"/><path class="cls-1" d="M268.51,216.08c0,5.3-3.7,8.7-9.11,8.7H246.82v6.36H240.7v-23.8h18.7C264.81,207.34,268.51,210.77,268.51,216.08Zm-6.12,0c0-3.61-2.85-3.61-4.69-3.61H246.82v7.17H257.7C259.54,219.64,262.39,219.64,262.39,216.08Z"/><path class="cls-1" d="M270.18,219.2c0-7.88,4.49-12.2,15-12.2s15,4.35,15,12.2-4.52,12.28-15,12.28S270.18,227.12,270.18,219.2Zm23.8,0c0-4.82-2.45-7.07-8.84-7.07s-8.84,2.21-8.84,7.07,2.48,7.14,8.84,7.14S294,224.06,294,219.2Z"/><path class="cls-1" d="M317.44,231.48c-10.47,0-15-4-15-12.28V207.34h6.12V219.2c0,3.34.92,7.14,8.84,7.14s8.84-3.84,8.84-7.14V207.34h6.12V219.2C332.4,227.46,327.88,231.48,317.44,231.48Z"/><path class="cls-1" d="M357.59,224.06l4.39,7.08h-7.21l-3.84-6.36h-9.86v6.36H335v-23.8h18.7c5.4,0,9.11,3.43,9.11,8.74A8.09,8.09,0,0,1,357.59,224.06Zm-16.52-4.42H352c1.84,0,4.69,0,4.69-3.56s-2.85-3.61-4.69-3.61H341.07Z"/><path class="cls-1" d="M386.66,222.94c0,2.52,2,3.67,9.8,3.67,6.42,0,8.36-.71,8.36-2.58s-1.36-2.31-9.08-2.69c-10.37-.47-14.48-2.1-14.48-7.44s5.34-6.9,14.24-6.9,14.42,2.24,14.42,8.12H403.8c0-2.61-2.62-3.26-9-3.26-6,0-7.44.58-7.44,2.35s1.43,2.17,8.36,2.58c9.38.51,15.2,1,15.2,7,0,6.35-6,7.65-14.82,7.65-9.76,0-15.57-1.67-15.57-8.54Z"/><path class="cls-1" d="M419.27,212.2V217h19v4.42h-19v4.82h19v4.87H413.15v-23.8h25.16v4.86Z"/><path class="cls-1" d="M446.3,222.94c0,2.52,2,3.67,9.79,3.67,6.43,0,8.37-.71,8.37-2.58s-1.37-2.31-9.08-2.69c-10.37-.47-14.48-2.1-14.48-7.44s5.33-6.9,14.24-6.9,14.41,2.24,14.41,8.12h-6.11c0-2.61-2.62-3.26-9-3.26-6,0-7.45.58-7.45,2.35s1.43,2.17,8.37,2.58c9.38.51,15.19,1,15.19,7,0,6.35-6,7.65-14.82,7.65-9.75,0-15.57-1.67-15.57-8.54Z"/><path class="cls-2" d="M525.14,231.14H519V214.82l-9.89,16.32h-4.42l-9.89-16.32v16.32H488.7v-23.8H497l10,16.79,10-16.79h8.26Z"/><path class="cls-2" d="M527.19,219.2c0-7.88,4.48-12.2,14.95-12.2s15,4.35,15,12.2-4.52,12.28-15,12.28S527.19,227.12,527.19,219.2Zm23.79,0c0-4.82-2.44-7.07-8.84-7.07s-8.83,2.21-8.83,7.07,2.48,7.14,8.83,7.14S551,224.06,551,219.2Z"/><path class="cls-2" d="M590,207.34v23.8h-8.33l-16.21-17.85v17.85h-6.12v-23.8h8.29l16.25,17.88V207.34Z"/><path class="cls-2" d="M607.66,231.48c-10.47,0-15-4-15-12.28V207.34h6.12V219.2c0,3.34.92,7.14,8.84,7.14s8.84-3.84,8.84-7.14V207.34h6.12V219.2C622.62,227.46,618.1,231.48,607.66,231.48Z"/><path class="cls-2" d="M661.62,231.14H655.5V214.82l-9.89,16.32h-4.42l-9.9-16.32v16.32h-6.11v-23.8h8.26l10,16.79,10-16.79h8.26Z"/><path class="cls-2" d="M670.46,212.2V217h19v4.42h-19v4.82h19v4.87H664.34v-23.8H689.5v4.86Z"/><path class="cls-2" d="M722.38,207.34v23.8h-8.33l-16.22-17.85v17.85h-6.12v-23.8H700l16.25,17.88V207.34Z"/><path class="cls-2" d="M753.62,212.47H742.06v18.67H736V212.47H724.39v-5.13h29.23Z"/><path class="cls-2" d="M760.49,222.94c0,2.52,2,3.67,9.8,3.67,6.42,0,8.36-.71,8.36-2.58s-1.36-2.31-9.08-2.69c-10.37-.47-14.48-2.1-14.48-7.44s5.34-6.9,14.24-6.9,14.42,2.24,14.42,8.12h-6.12c0-2.61-2.62-3.26-9-3.26-6,0-7.44.58-7.44,2.35s1.43,2.17,8.36,2.58c9.38.51,15.2,1,15.2,7,0,6.35-6,7.65-14.82,7.65-9.76,0-15.57-1.67-15.57-8.54Z"/><path class="cls-2" d="M28.92,272.47v6h17v5.17h-17v7.45H22.8v-23.8H48v5.13Z"/><path class="cls-2" d="M68.63,286.07H54.38l-2.55,5.07H45.1l12.27-23.8h8.27l12.3,23.8H71.18Zm-2.28-4.56-4.83-9.65-4.86,9.65Z"/><path class="cls-2" d="M83.35,282.94c0,2.52,2,3.67,9.79,3.67,6.43,0,8.37-.71,8.37-2.58s-1.36-2.31-9.08-2.69C82.06,280.87,78,279.24,78,273.9s5.33-6.9,14.24-6.9,14.42,2.24,14.42,8.12h-6.12c0-2.61-2.62-3.26-9-3.26-6,0-7.44.58-7.44,2.35s1.42,2.17,8.36,2.58c9.38.51,15.2,1,15.2,7,0,6.35-6,7.65-14.83,7.65-9.75,0-15.57-1.67-15.57-8.54Z"/><path class="cls-2" d="M136.87,272.47H125.31v18.67h-6.12V272.47H107.63v-5.13h29.24Z"/><path class="cls-2" d="M154,291.48c-10.47,0-15-4-15-12.28V267.34h6.12V279.2c0,3.34.92,7.14,8.84,7.14s8.84-3.84,8.84-7.14V267.34H169V279.2C169,287.46,164.47,291.48,154,291.48Z"/><path class="cls-2" d="M177.67,272.2V277h19v4.42h-19v4.82h19v4.87H171.55v-23.8h25.16v4.86Z"/><path class="cls-2" d="M214.25,291.48c-10.47,0-15-4-15-12.28V267.34h6.12V279.2c0,3.34.92,7.14,8.84,7.14s8.84-3.84,8.84-7.14V267.34h6.12V279.2C229.21,287.46,224.69,291.48,214.25,291.48Z"/><path class="cls-2" d="M244,279.24l-13.39-11.9h8.43l9.11,8.16,9.08-8.16h8.46l-13.39,11.9,13.39,11.9h-8.46L248.18,283l-9.11,8.16h-8.43Z"/><path class="cls-1" d="M298.47,267c9.48,0,14.24,3.6,14.85,10.47H307.1c-.58-3.84-3.53-5.34-8.63-5.34-6.22,0-8.84,2.21-8.84,7.07s2.65,7.14,8.84,7.14c5.06,0,8-1.53,8.63-5.4h6.22c-.61,6.9-5.37,10.54-14.85,10.54-10.47,0-15-4.36-15-12.28S288,267,298.47,267Z"/><path class="cls-1" d="M338.18,284.06l4.38,7.08h-7.2l-3.84-6.36h-9.86v6.36h-6.12v-23.8h18.7c5.4,0,9.11,3.43,9.11,8.74A8.11,8.11,0,0,1,338.18,284.06Zm-16.52-4.42h10.88c1.83,0,4.69,0,4.69-3.56s-2.86-3.61-4.69-3.61H321.66Z"/><path class="cls-1" d="M351.47,272.2V277h19v4.42h-19v4.82h19v4.87H345.36v-23.8h25.15v4.86Z"/><path class="cls-1" d="M388.06,291.48c-10.47,0-15-4-15-12.28V267.34h6.12V279.2c0,3.34.92,7.14,8.84,7.14s8.84-3.84,8.84-7.14V267.34H403V279.2C403,287.46,398.49,291.48,388.06,291.48Z"/><path class="cls-1" d="M411.35,282.94c0,2.52,2,3.67,9.79,3.67,6.43,0,8.36-.71,8.36-2.58s-1.36-2.31-9.07-2.69c-10.37-.47-14.49-2.1-14.49-7.44s5.34-6.9,14.25-6.9,14.41,2.24,14.41,8.12h-6.12c0-2.61-2.61-3.26-9-3.26-6,0-7.45.58-7.45,2.35s1.43,2.17,8.37,2.58c9.38.51,15.19,1,15.19,7,0,6.35-6,7.65-14.82,7.65-9.76,0-15.57-1.67-15.57-8.54Z"/><path class="cls-1" d="M444,272.2V277h19v4.42H444v4.82h19v4.87H437.84v-23.8H463v4.86ZM457,261.83l-13.23,2.72v-4L457,257.82Z"/><path class="cls-1" d="M471,282.94c0,2.52,2,3.67,9.79,3.67,6.42,0,8.36-.71,8.36-2.58s-1.36-2.31-9.08-2.69c-10.37-.47-14.48-2.1-14.48-7.44s5.34-6.9,14.24-6.9,14.42,2.24,14.42,8.12h-6.12c0-2.61-2.62-3.26-9-3.26-6,0-7.44.58-7.44,2.35s1.43,2.17,8.36,2.58c9.39.51,15.2,1,15.2,7,0,6.35-6,7.65-14.82,7.65-9.76,0-15.57-1.67-15.57-8.54Z"/><path class="cls-1" d="M542.21,279.24c0,8.09-5.4,11.9-11.56,11.9H513.38v-23.8h17.27C536.81,267.34,542.21,271.15,542.21,279.24Zm-6.12,0c0-5.78-3.12-6.77-7.75-6.77H519.5V286h8.84C533,286,536.09,285,536.09,279.24Z"/><path class="cls-1" d="M563.94,286.07H549.69l-2.55,5.07h-6.73l12.28-23.8H561l12.3,23.8h-6.76Zm-2.28-4.56-4.83-9.65L552,281.51Z"/><path class="cls-1" d="M605.39,267.34v23.8h-8.33l-16.22-17.85v17.85h-6.12v-23.8H583l16.26,17.88V267.34Z"/><path class="cls-1" d="M613.51,282.94c0,2.52,2,3.67,9.79,3.67,6.43,0,8.37-.71,8.37-2.58s-1.36-2.31-9.08-2.69c-10.37-.47-14.48-2.1-14.48-7.44s5.33-6.9,14.24-6.9,14.42,2.24,14.42,8.12h-6.12c0-2.61-2.62-3.26-9-3.26-6,0-7.44.58-7.44,2.35s1.42,2.17,8.36,2.58c9.38.51,15.2,1,15.2,7,0,6.35-6,7.65-14.83,7.65-9.75,0-15.57-1.67-15.57-8.54Z"/><path class="cls-1" d="M670.87,291.48c-10.47,0-15-4-15-12.28V267.34H662V279.2c0,3.34.92,7.14,8.84,7.14s8.84-3.84,8.84-7.14V267.34h6.12V279.2C685.83,287.46,681.31,291.48,670.87,291.48Z"/><path class="cls-1" d="M719.05,267.34v23.8h-8.33L694.5,273.29v17.85h-6.12v-23.8h8.3l16.25,17.88V267.34Z"/><path class="cls-1" d="M37.18,338.39H52.27v12.75H47.75l-.27-3.74c-2.24,2.44-5.81,4.08-10.88,4.08-8.77,0-14.14-4.36-14.14-12.24S27.83,327,37.62,327c9.52,0,14.28,3.7,14.65,9.62H46.05c-.34-1.8-2-4.49-8.43-4.49-7.95,0-9,4.39-9,7.24s1.12,7.38,9,7.38c5.92,0,8.3-2.58,8.43-4.38H37.18Z"/><path class="cls-1" d="M77.3,344.06l4.38,7.08h-7.2l-3.85-6.36H60.77v6.36H54.66v-23.8H73.35c5.41,0,9.12,3.43,9.12,8.74A8.11,8.11,0,0,1,77.3,344.06Zm-16.53-4.42H71.65c1.84,0,4.69,0,4.69-3.56s-2.85-3.61-4.69-3.61H60.77Z"/><path class="cls-1" d="M90.59,332.2V337h19v4.42h-19v4.82h19v4.87H84.47v-23.8h25.16v4.86Zm13.06-7.65-13.23-2.72v-4l13.23,2.72Z"/><path class="cls-1" d="M117.62,342.94c0,2.52,2,3.67,9.79,3.67,6.43,0,8.37-.71,8.37-2.58s-1.36-2.31-9.08-2.69c-10.37-.47-14.48-2.1-14.48-7.44s5.33-6.9,14.24-6.9,14.42,2.24,14.42,8.12h-6.12c0-2.61-2.62-3.26-9-3.26-6,0-7.44.58-7.44,2.35s1.42,2.17,8.36,2.58c9.38.51,15.2,1,15.2,7,0,6.35-6,7.65-14.83,7.65-9.75,0-15.57-1.67-15.57-8.54Z"/><path class="cls-1" d="M183.21,346.07H169l-2.55,5.07h-6.73L172,327.34h8.27l12.3,23.8h-6.76Zm-2.28-4.56-4.83-9.65-4.86,9.65Z"/><path class="cls-1" d="M206.63,351.48c-10.47,0-14.95-4-14.95-12.28V327.34h6.11V339.2c0,3.34.92,7.14,8.84,7.14s8.84-3.84,8.84-7.14V327.34h6.12V339.2C221.59,347.46,217.07,351.48,206.63,351.48Z"/><path class="cls-1" d="M236.42,339.24,223,327.34h8.43l9.12,8.16,9.07-8.16h8.47l-13.4,11.9,13.4,11.9h-8.47L240.57,343l-9.12,8.16H223Z"/><path class="cls-1" d="M290.85,327c9.49,0,14.25,3.6,14.86,10.47h-6.22c-.58-3.84-3.54-5.34-8.64-5.34-6.22,0-8.84,2.21-8.84,7.07s2.65,7.14,8.84,7.14c5.07,0,8.06-1.53,8.64-5.4h6.22c-.61,6.9-5.37,10.54-14.86,10.54-10.47,0-15-4.36-15-12.28S280.38,327,290.85,327Z"/><path class="cls-1" d="M307.58,339.2c0-7.88,4.49-12.2,15-12.2s15,4.35,15,12.2-4.52,12.28-15,12.28S307.58,347.12,307.58,339.2Zm23.8,0c0-4.82-2.45-7.07-8.84-7.07s-8.84,2.21-8.84,7.07,2.48,7.14,8.84,7.14S331.38,344.06,331.38,339.2Z"/><path class="cls-1" d="M354.84,351.48c-10.47,0-15-4-15-12.28V327.34H346V339.2c0,3.34.92,7.14,8.84,7.14s8.84-3.84,8.84-7.14V327.34h6.12V339.2C369.8,347.46,365.28,351.48,354.84,351.48Z"/><path class="cls-1" d="M386.76,327c9.49,0,14.25,3.6,14.86,10.47H395.4c-.58-3.84-3.54-5.34-8.64-5.34-6.22,0-8.83,2.21-8.83,7.07s2.65,7.14,8.83,7.14c5.07,0,8.06-1.53,8.64-5.4h6.22c-.61,6.9-5.37,10.54-14.86,10.54-10.47,0-14.95-4.36-14.95-12.28S376.29,327,386.76,327Z"/><path class="cls-1" d="M435.45,327.34v23.8h-6.12v-9.32H410v9.32h-6.12v-23.8H410v9.31h19.38v-9.31Z"/><path class="cls-1" d="M444.29,332.2V337h19v4.42h-19v4.82h19v4.87H438.17v-23.8h25.16v4.86Z"/><path class="cls-1" d="M471.32,342.94c0,2.52,2,3.67,9.79,3.67,6.43,0,8.37-.71,8.37-2.58s-1.36-2.31-9.08-2.69c-10.37-.47-14.48-2.1-14.48-7.44s5.34-6.9,14.24-6.9,14.42,2.24,14.42,8.12h-6.12c0-2.61-2.62-3.26-9-3.26-6,0-7.44.58-7.44,2.35s1.43,2.17,8.36,2.58c9.38.51,15.2,1,15.2,7,0,6.35-6,7.65-14.83,7.65-9.75,0-15.57-1.67-15.57-8.54Z"/><path class="cls-1" d="M550.17,351.14h-6.12V334.82l-9.9,16.32h-4.42l-9.89-16.32v16.32h-6.12v-23.8H522l10,16.79,10-16.79h8.27Z"/><path class="cls-1" d="M567.85,351.48c-10.47,0-15-4-15-12.28V327.34H559V339.2c0,3.34.92,7.14,8.84,7.14s8.84-3.84,8.84-7.14V327.34h6.12V339.2C582.81,347.46,578.29,351.48,567.85,351.48Z"/><path class="cls-1" d="M609.84,346v5.14H585.36v-23.8h6.12V346Z"/><path class="cls-1" d="M632.79,332.47H621.23v18.67h-6.12V332.47H603.55v-5.13h29.24Z"/><path class="cls-1" d="M640.91,351.14H634.8v-23.8h6.11Z"/><path class="cls-1" d="M657.91,327c9.49,0,14.25,3.6,14.86,10.47h-6.22c-.58-3.84-3.54-5.34-8.64-5.34-6.22,0-8.84,2.21-8.84,7.07s2.66,7.14,8.84,7.14c5.07,0,8.06-1.53,8.64-5.4h6.22c-.61,6.9-5.37,10.54-14.86,10.54-10.47,0-14.95-4.36-14.95-12.28S647.44,327,657.91,327Z"/><path class="cls-1" d="M674.64,339.2c0-7.88,4.49-12.2,15-12.2s15,4.35,15,12.2-4.52,12.28-15,12.28S674.64,347.12,674.64,339.2Zm23.8,0c0-4.82-2.45-7.07-8.84-7.07s-8.84,2.21-8.84,7.07,2.48,7.14,8.84,7.14S698.44,344.06,698.44,339.2Z"/><path class="cls-1" d="M735,337.16V342H707.83v-4.83Z"/><path class="cls-1" d="M47.28,406v5.14H22.8v-23.8h6.12V406Z"/><path class="cls-1" d="M48.16,399.2c0-7.88,4.49-12.2,15-12.2s15,4.35,15,12.2-4.52,12.28-15,12.28S48.16,407.12,48.16,399.2Zm23.8,0c0-4.82-2.45-7.07-8.84-7.07s-8.84,2.21-8.84,7.07,2.48,7.14,8.84,7.14S72,404.06,72,399.2Z"/><path class="cls-1" d="M102.93,404.06l4.39,7.08h-7.21l-3.84-6.36H86.41v6.36H80.29v-23.8H99c5.41,0,9.11,3.43,9.11,8.74A8.09,8.09,0,0,1,102.93,404.06Zm-16.52-4.42H97.29c1.84,0,4.69,0,4.69-3.56s-2.85-3.61-4.69-3.61H86.41Z"/><path class="cls-1" d="M116.23,392.2V397h19v4.42h-19v4.82h19v4.87H110.11v-23.8h25.16v4.86Z"/><path class="cls-1" d="M143.26,402.94c0,2.52,2,3.67,9.79,3.67,6.43,0,8.36-.71,8.36-2.58s-1.36-2.31-9.07-2.69c-10.37-.47-14.49-2.1-14.49-7.44s5.34-6.9,14.25-6.9,14.41,2.24,14.41,8.12h-6.12c0-2.61-2.61-3.26-9-3.26-6,0-7.45.58-7.45,2.35s1.43,2.17,8.37,2.58c9.38.51,15.19,1,15.19,7,0,6.35-6,7.65-14.82,7.65-9.76,0-15.57-1.67-15.57-8.54Z"/><path class="cls-1" d="M175.56,406.58v4.56h-5.81v-4.56Z"/><path class="cls-1" d="M218.5,406v5.14H194v-23.8h6.12V406Z"/><path class="cls-1" d="M227,392.2V397h19v4.42H227v4.82h19v4.87H220.88v-23.8H246v4.86Z"/><path class="cls-1" d="M254,402.94c0,2.52,2,3.67,9.79,3.67,6.43,0,8.37-.71,8.37-2.58s-1.36-2.31-9.08-2.69c-10.37-.47-14.48-2.1-14.48-7.44S254,387,262.87,387s14.42,2.24,14.42,8.12h-6.12c0-2.61-2.62-3.26-9-3.26-6,0-7.44.58-7.44,2.35s1.42,2.17,8.36,2.58c9.38.51,15.19,1,15.19,7,0,6.35-6,7.65-14.82,7.65-9.75,0-15.57-1.67-15.57-8.54Z"/><path class="cls-1" d="M302.55,392.47v6h17v5.17h-17v7.45h-6.12v-23.8h25.16v5.13Z"/><path class="cls-1" d="M342.26,406.07H328l-2.54,5.07h-6.74L331,387.34h8.26l12.3,23.8h-6.76ZM340,401.51l-4.83-9.65-4.86,9.65Z"/><path class="cls-1" d="M373.57,400.94h6.22c-.57,6.42-4.72,10-13,10.47l-.41,1.32c2-.64,6-1,6,2.35,0,3.88-5.51,4.52-10.74,3.88v-2.89c4.45.64,6.36,0,6.36-1.3,0-.81-.89-1.08-3.54-.47l-2-2,.38-.92c-9-.55-12.92-4.83-12.92-12.21,0-7.88,4.49-12.2,15-12.2,9.48,0,14.24,3.6,14.85,10.47h-6.22c-.57-3.84-3.53-5.34-8.63-5.34-6.22,0-8.84,2.21-8.84,7.07s2.65,7.14,8.84,7.14C370,406.34,373,404.81,373.57,400.94Z"/><path class="cls-1" d="M401.52,406.07H387.28l-2.55,5.07H378l12.27-23.8h8.26l12.31,23.8h-6.77Zm-2.28-4.56-4.82-9.65-4.87,9.65Z"/><path class="cls-1" d="M441.13,399.24c0,8.09-5.4,11.9-11.56,11.9H412.3v-23.8h17.27C435.73,387.34,441.13,391.15,441.13,399.24Zm-6.12,0c0-5.78-3.13-6.77-7.75-6.77h-8.84V406h8.84C431.88,406,435,405,435,399.24Z"/><path class="cls-1" d="M449.46,392.2V397h19v4.42h-19v4.82h19v4.87H443.34v-23.8H468.5v4.86Z"/><path class="cls-1" d="M476.49,402.94c0,2.52,2,3.67,9.79,3.67,6.43,0,8.37-.71,8.37-2.58s-1.36-2.31-9.08-2.69c-10.37-.47-14.48-2.1-14.48-7.44s5.34-6.9,14.24-6.9,14.42,2.24,14.42,8.12h-6.12c0-2.61-2.62-3.26-9-3.26-6,0-7.44.58-7.44,2.35s1.43,2.17,8.36,2.58c9.38.51,15.2,1,15.2,7,0,6.35-6,7.65-14.83,7.65-9.75,0-15.57-1.67-15.57-8.54Z"/><path class="cls-1" d="M542.08,406.07H527.83l-2.55,5.07h-6.73l12.27-23.8h8.27l12.3,23.8h-6.76Zm-.51-21.52-13.23-2.72v-4l13.23,2.72Zm-1.77,17L535,391.86l-4.86,9.65Z"/><path class="cls-1" d="M575.64,392.47v6h17v5.17h-17v7.45h-6.12v-23.8h25.15v5.13Z"/><path class="cls-1" d="M619.32,404.06l4.39,7.08H616.5l-3.84-6.36H602.8v6.36h-6.12v-23.8h18.7c5.41,0,9.11,3.43,9.11,8.74A8.09,8.09,0,0,1,619.32,404.06Zm-16.52-4.42h10.88c1.84,0,4.69,0,4.69-3.56s-2.85-3.61-4.69-3.61H602.8Z"/><path class="cls-1" d="M626.16,399.2c0-7.88,4.49-12.2,15-12.2s15,4.35,15,12.2-4.52,12.28-15,12.28S626.16,407.12,626.16,399.2Zm23.8,0c0-4.82-2.45-7.07-8.84-7.07s-8.84,2.21-8.84,7.07,2.48,7.14,8.84,7.14S650,404.06,650,399.2Z"/><path class="cls-1" d="M689,387.34v23.8h-8.33l-16.22-17.85v17.85h-6.12v-23.8h8.3l16.25,17.88V387.34Z"/><path class="cls-1" d="M720.2,392.47H708.64v18.67h-6.12V392.47H691v-5.13H720.2Z"/><path class="cls-1" d="M720.75,399.2c0-7.88,4.49-12.2,15-12.2s15,4.35,15,12.2-4.53,12.28-15,12.28S720.75,407.12,720.75,399.2Zm23.8,0c0-4.82-2.45-7.07-8.84-7.07s-8.84,2.21-8.84,7.07,2.48,7.14,8.84,7.14S744.55,404.06,744.55,399.2Z"/><path class="cls-1" d="M783.55,387.34v23.8h-8.33L759,393.29v17.85h-6.12v-23.8h8.3l16.25,17.88V387.34Z"/><path class="cls-1" d="M791.67,402.94c0,2.52,2,3.67,9.79,3.67,6.43,0,8.37-.71,8.37-2.58s-1.36-2.31-9.08-2.69c-10.37-.47-14.48-2.1-14.48-7.44s5.33-6.9,14.24-6.9,14.42,2.24,14.42,8.12h-6.12c0-2.61-2.62-3.26-9-3.26-6,0-7.44.58-7.44,2.35s1.42,2.17,8.36,2.58c9.38.51,15.2,1,15.2,7,0,6.35-6,7.65-14.83,7.65-9.75,0-15.57-1.67-15.57-8.54Z"/><path class="cls-1" d="M28.92,452.2V457H48v4.42h-19v4.82H48v4.87H22.8v-23.8H48v4.86Z"/><path class="cls-1" d="M78.86,452.47H67.3v18.67H61.18V452.47H49.62v-5.13H78.86Z"/><path class="cls-1" d="M111.6,447c9.49,0,14.25,3.6,14.86,10.47h-6.22c-.58-3.84-3.54-5.34-8.64-5.34-6.22,0-8.84,2.21-8.84,7.07s2.66,7.14,8.84,7.14c5.07,0,8.06-1.53,8.64-5.4h6.22c-.61,6.9-5.37,10.54-14.86,10.54-10.47,0-14.95-4.36-14.95-12.28S101.13,447,111.6,447Z"/><path class="cls-1" d="M128.33,459.2c0-7.88,4.49-12.2,15-12.2s15,4.35,15,12.2-4.52,12.28-15,12.28S128.33,467.12,128.33,459.2Zm23.8,0c0-4.82-2.45-7.07-8.84-7.07s-8.84,2.21-8.84,7.07,2.48,7.14,8.84,7.14S152.13,464.06,152.13,459.2Z"/><path class="cls-1" d="M184.94,466v5.14H160.46v-23.8h6.12V466Z"/><path class="cls-1" d="M185.83,459.2c0-7.88,4.49-12.2,15-12.2s15,4.35,15,12.2-4.53,12.28-15,12.28S185.83,467.12,185.83,459.2Zm23.8,0c0-4.82-2.45-7.07-8.84-7.07S192,454.34,192,459.2s2.48,7.14,8.84,7.14S209.63,464.06,209.63,459.2Z"/><path class="cls-1" d="M248.62,447.34v23.8h-8.33l-16.21-17.85v17.85H218v-23.8h8.29l16.25,17.88V447.34Z"/><path class="cls-1" d="M282,447.34v23.8h-8.33l-16.21-17.85v17.85h-6.12v-23.8h8.29l16.25,17.88V447.34Z"/><path class="cls-1" d="M290.85,452.2V457h19v4.42h-19v4.82h19v4.87H284.73v-23.8h25.16v4.86Z"/><path class="cls-1" d="M317.88,462.94c0,2.52,2,3.67,9.79,3.67,6.43,0,8.37-.71,8.37-2.58s-1.36-2.31-9.08-2.69c-10.37-.47-14.48-2.1-14.48-7.44s5.33-6.9,14.24-6.9,14.42,2.24,14.42,8.12H335c0-2.61-2.62-3.26-9-3.26-6,0-7.44.58-7.44,2.35s1.42,2.17,8.36,2.58c9.38.51,15.2,1,15.2,7,0,6.35-6,7.65-14.83,7.65-9.75,0-15.57-1.67-15.57-8.54Z"/><path class="cls-1" d="M391,447.34v23.8h-8.33L366.4,453.29v17.85h-6.12v-23.8h8.3l16.25,17.88V447.34Z"/><path class="cls-1" d="M399.79,452.2V457h19v4.42h-19v4.82h19v4.87H393.67v-23.8h25.16v4.86Z"/><path class="cls-1" d="M442.73,462.94c0,2.52,2,3.67,9.79,3.67,6.43,0,8.36-.71,8.36-2.58s-1.36-2.31-9.07-2.69c-10.37-.47-14.49-2.1-14.49-7.44s5.34-6.9,14.25-6.9S466,449.24,466,455.12h-6.12c0-2.61-2.61-3.26-9-3.26-6,0-7.45.58-7.45,2.35s1.43,2.17,8.37,2.58c9.38.51,15.19,1,15.19,7,0,6.35-6,7.65-14.82,7.65-9.76,0-15.57-1.67-15.57-8.54Z"/><path class="cls-1" d="M468.54,459.2c0-7.88,4.48-12.2,14.95-12.2s15,4.35,15,12.2-4.52,12.28-15,12.28S468.54,467.12,468.54,459.2Zm23.79,0c0-4.82-2.44-7.07-8.84-7.07s-8.83,2.21-8.83,7.07,2.48,7.14,8.83,7.14S492.33,464.06,492.33,459.2Z"/><path class="cls-1" d="M531.33,447.34v23.8H523l-16.21-17.85v17.85h-6.12v-23.8H509l16.25,17.88V447.34Z"/><path class="cls-1" d="M562.58,452.47H551v18.67H544.9V452.47H533.34v-5.13h29.24Z"/><path class="cls-1" d="M608.51,456.08c0,5.3-3.7,8.7-9.11,8.7H586.82v6.36H580.7v-23.8h18.7C604.81,447.34,608.51,450.77,608.51,456.08Zm-6.12,0c0-3.61-2.85-3.61-4.69-3.61H586.82v7.17H597.7C599.54,459.64,602.39,459.64,602.39,456.08Z"/><path class="cls-1" d="M628.71,466.07H614.46l-2.55,5.07h-6.73l12.28-23.8h8.26l12.3,23.8h-6.76Zm-2.28-4.56-4.83-9.65-4.86,9.65Z"/><path class="cls-1" d="M643.43,462.94c0,2.52,2,3.67,9.79,3.67,6.43,0,8.37-.71,8.37-2.58s-1.36-2.31-9.08-2.69c-10.37-.47-14.48-2.1-14.48-7.44s5.33-6.9,14.24-6.9,14.42,2.24,14.42,8.12h-6.12c0-2.61-2.62-3.26-9-3.26-6,0-7.44.58-7.44,2.35s1.42,2.17,8.36,2.58c9.38.51,15.2,1,15.2,7,0,6.35-6,7.65-14.83,7.65-9.75,0-15.57-1.67-15.57-8.54Z"/><path class="cls-1" d="M37.42,507c9.48,0,14.24,3.6,14.85,10.47H46.05c-.58-3.84-3.53-5.34-8.63-5.34-6.22,0-8.84,2.21-8.84,7.07s2.65,7.14,8.84,7.14c5.06,0,8-1.53,8.63-5.4h6.22c-.61,6.9-5.37,10.54-14.85,10.54-10.47,0-15-4.36-15-12.28S27,507,37.42,507Z"/><path class="cls-1" d="M54.15,519.2c0-7.88,4.48-12.2,14.95-12.2s15,4.35,15,12.2-4.52,12.28-15,12.28S54.15,527.12,54.15,519.2Zm23.79,0c0-4.82-2.44-7.07-8.84-7.07s-8.83,2.21-8.83,7.07,2.48,7.14,8.83,7.14S77.94,524.06,77.94,519.2Z"/><path class="cls-1" d="M116.94,507.34v23.8h-8.33L92.4,513.29v17.85H86.28v-23.8h8.29l16.25,17.88V507.34Z"/><path class="cls-1" d="M125.07,522.94c0,2.52,2,3.67,9.79,3.67,6.43,0,8.36-.71,8.36-2.58s-1.36-2.31-9.07-2.69c-10.37-.47-14.49-2.1-14.49-7.44S125,507,133.91,507s14.41,2.24,14.41,8.12H142.2c0-2.61-2.61-3.26-9-3.26-6,0-7.45.58-7.45,2.35s1.43,2.17,8.37,2.58c9.38.51,15.19,1,15.19,7,0,6.35-6,7.65-14.82,7.65-9.76,0-15.57-1.67-15.57-8.54Z"/><path class="cls-1" d="M178.58,512.47H167v18.67h-6.11V512.47H149.35v-5.13h29.23Z"/><path class="cls-1" d="M203.23,524.06l4.39,7.08h-7.21l-3.84-6.36h-9.86v6.36h-6.12v-23.8h18.7c5.41,0,9.11,3.43,9.11,8.74A8.09,8.09,0,0,1,203.23,524.06Zm-16.52-4.42h10.88c1.84,0,4.69,0,4.69-3.56s-2.85-3.61-4.69-3.61H186.71Z"/><path class="cls-1" d="M225.57,531.48c-10.47,0-15-4-15-12.28V507.34h6.12V519.2c0,3.34.92,7.14,8.84,7.14s8.84-3.84,8.84-7.14V507.34h6.12V519.2C240.53,527.46,236,531.48,225.57,531.48Z"/><path class="cls-1" d="M249.2,531.14h-6.11v-23.8h6.11Z"/><path class="cls-1" d="M280.45,512.47H268.89v18.67h-6.12V512.47H251.21v-5.13h29.24Z"/><path class="cls-1" d="M288.58,512.2V517h19v4.42h-19v4.82h19v4.87H282.46v-23.8h25.15v4.86Z"/><path class="cls-1" d="M315.61,522.94c0,2.52,2,3.67,9.79,3.67,6.42,0,8.36-.71,8.36-2.58s-1.36-2.31-9.08-2.69c-10.37-.47-14.48-2.1-14.48-7.44s5.34-6.9,14.24-6.9,14.42,2.24,14.42,8.12h-6.12c0-2.61-2.62-3.26-9-3.26-6,0-7.44.58-7.44,2.35s1.43,2.17,8.36,2.58c9.39.51,15.2,1,15.2,7,0,6.35-6,7.65-14.82,7.65-9.76,0-15.57-1.67-15.57-8.54Z"/><path class="cls-1" d="M347.91,526.58v4.56l-2.76,6.69h-2.79l1.74-6.69h-2v-4.56Z"/><path class="cls-1" d="M402.81,531.14h-6.12V514.82l-9.89,16.32h-4.42l-9.89-16.32v16.32h-6.12v-23.8h8.26l10,16.79,10-16.79h8.26Z"/><path class="cls-1" d="M427.8,526.07H413.56L411,531.14h-6.73l12.27-23.8h8.26l12.31,23.8h-6.77Zm-2.27-4.56-4.83-9.65-4.86,9.65Z"/><path class="cls-1" d="M444.7,531.14h-6.12v-23.8h6.12Z"/><path class="cls-1" d="M452.83,522.94c0,2.52,2,3.67,9.79,3.67,6.43,0,8.36-.71,8.36-2.58s-1.36-2.31-9.07-2.69c-10.37-.47-14.49-2.1-14.49-7.44s5.34-6.9,14.25-6.9,14.41,2.24,14.41,8.12H470c0-2.61-2.61-3.26-9-3.26-6,0-7.45.58-7.45,2.35s1.43,2.17,8.37,2.58c9.38.51,15.19,1,15.19,7,0,6.35-6,7.65-14.82,7.65-9.76,0-15.57-1.67-15.57-8.54Z"/><path class="cls-1" d="M524.12,512.47H512.56v18.67h-6.11V512.47H494.89v-5.13h29.23Z"/><path class="cls-1" d="M542.31,526.07H528.07l-2.55,5.07h-6.73l12.27-23.8h8.26l12.31,23.8h-6.77ZM540,521.51l-4.83-9.65-4.86,9.65Z"/><path class="cls-1" d="M559.22,531.14H553.1v-23.8h6.12Z"/><path class="cls-1" d="M586.41,526v5.14H561.94v-23.8h6.11V526Z"/><path class="cls-1" d="M613.27,526v5.14H588.8v-23.8h6.11V526Z"/><path class="cls-1" d="M621.77,512.2V517h19v4.42h-19v4.82h19v4.87H615.65v-23.8h25.16v4.86Zm13.06-10.37-13.23,2.72v-4l13.23-2.72Z"/><path class="cls-1" d="M649.14,512.2V517h19v4.42h-19v4.82h19v4.87H643v-23.8h25.15v4.86Z"/><path class="cls-1" d="M676.18,522.94c0,2.52,2,3.67,9.79,3.67,6.42,0,8.36-.71,8.36-2.58s-1.36-2.31-9.08-2.69c-10.37-.47-14.48-2.1-14.48-7.44S676.11,507,685,507s14.42,2.24,14.42,8.12h-6.12c0-2.61-2.62-3.26-9-3.26-6,0-7.44.58-7.44,2.35s1.43,2.17,8.36,2.58c9.39.51,15.2,1,15.2,7,0,6.35-6,7.65-14.82,7.65-9.76,0-15.57-1.67-15.57-8.54Z"/><path class="cls-1" d="M51.63,579.24c0,8.09-5.41,11.9-11.56,11.9H22.8v-23.8H40.07C46.22,567.34,51.63,571.15,51.63,579.24Zm-6.12,0c0-5.78-3.13-6.77-7.75-6.77H28.92V586h8.84C42.38,586,45.51,585,45.51,579.24Z"/><path class="cls-1" d="M73.35,586.07H59.11l-2.55,5.07H49.83l12.27-23.8h8.26l12.31,23.8H75.9Zm-2.27-4.56-4.83-9.65-4.86,9.65Z"/><path class="cls-1" d="M114.8,567.34v23.8h-8.33L90.25,573.29v17.85H84.14v-23.8h8.29l16.25,17.88V567.34Z"/><path class="cls-1" d="M122.93,582.94c0,2.52,2,3.67,9.79,3.67,6.42,0,8.36-.71,8.36-2.58s-1.36-2.31-9.07-2.69c-10.37-.47-14.49-2.1-14.49-7.44s5.34-6.9,14.25-6.9,14.41,2.24,14.41,8.12h-6.12c0-2.61-2.62-3.26-9-3.26-6,0-7.45.58-7.45,2.35s1.43,2.17,8.37,2.58c9.38.51,15.19,1,15.19,7,0,6.35-6,7.65-14.82,7.65-9.76,0-15.57-1.67-15.57-8.54Z"/><path class="cls-1" d="M189.8,586v5.14H165.33v-23.8h6.11V586Z"/><path class="cls-1" d="M215,586.07H200.75l-2.55,5.07h-6.73l12.27-23.8H212l12.3,23.8h-6.76Zm-2.28-4.56-4.83-9.65L203,581.51Z"/><path class="cls-1" d="M278.88,591.14h-6.12V574.82l-9.89,16.32h-4.42l-9.89-16.32v16.32h-6.12v-23.8h8.26l10,16.79,10-16.79h8.26Z"/><path class="cls-1" d="M303.87,586.07H289.63l-2.55,5.07h-6.73l12.27-23.8h8.26l12.31,23.8h-6.77Zm-2.28-4.56-4.82-9.65-4.86,9.65Z"/><path class="cls-1" d="M318.6,582.94c0,2.52,2,3.67,9.79,3.67,6.42,0,8.36-.71,8.36-2.58s-1.36-2.31-9.08-2.69c-10.37-.47-14.48-2.1-14.48-7.44s5.34-6.9,14.24-6.9,14.42,2.24,14.42,8.12h-6.12c0-2.61-2.62-3.26-9-3.26-6,0-7.45.58-7.45,2.35s1.43,2.17,8.36,2.58c9.39.51,15.2,1,15.2,7,0,6.35-6,7.65-14.82,7.65-9.76,0-15.57-1.67-15.57-8.54Z"/><path class="cls-1" d="M350.66,582.94c0,2.52,2,3.67,9.79,3.67,6.43,0,8.36-.71,8.36-2.58s-1.36-2.31-9.07-2.69c-10.37-.47-14.49-2.1-14.49-7.44s5.34-6.9,14.25-6.9,14.41,2.24,14.41,8.12h-6.12c0-2.61-2.61-3.26-9-3.26-6,0-7.45.58-7.45,2.35s1.43,2.17,8.37,2.58c9.38.51,15.19,1,15.19,7,0,6.35-6,7.65-14.82,7.65-9.76,0-15.57-1.67-15.57-8.54Z"/><path class="cls-1" d="M383.26,572.2V577h19v4.42h-19v4.82h19v4.87H377.14v-23.8H402.3v4.86Z"/><path class="cls-1" d="M449.26,579.24c0,8.09-5.41,11.9-11.56,11.9H420.43v-23.8H437.7C443.85,567.34,449.26,571.15,449.26,579.24Zm-6.12,0c0-5.78-3.13-6.77-7.76-6.77h-8.83V586h8.83C440,586,443.14,585,443.14,579.24Z"/><path class="cls-1" d="M457.59,572.2V577h19v4.42h-19v4.82h19v4.87H451.47v-23.8h25.16v4.86Z"/><path class="cls-1" d="M519.23,586v5.14H494.75v-23.8h6.12V586Z"/><path class="cls-1" d="M544.42,586.07H530.18l-2.55,5.07H520.9l12.27-23.8h8.26l12.31,23.8H547Zm-2.28-4.56-4.82-9.65-4.87,9.65Z"/><path class="cls-1" d="M594.5,584.06l4.39,7.08h-7.21l-3.84-6.36H578v6.36h-6.12v-23.8h18.7c5.4,0,9.11,3.43,9.11,8.74A8.09,8.09,0,0,1,594.5,584.06ZM578,579.64h10.88c1.83,0,4.69,0,4.69-3.56s-2.86-3.61-4.69-3.61H578Z"/><path class="cls-1" d="M601.34,579.2c0-7.88,4.49-12.2,15-12.2s15,4.35,15,12.2-4.53,12.28-15,12.28S601.34,587.12,601.34,579.2Zm23.8,0c0-4.82-2.45-7.07-8.84-7.07s-8.84,2.21-8.84,7.07,2.48,7.14,8.84,7.14S625.14,584.06,625.14,579.2Z"/><path class="cls-1" d="M648.09,567c9.48,0,14.24,3.6,14.85,10.47h-6.22c-.58-3.84-3.53-5.34-8.63-5.34-6.22,0-8.84,2.21-8.84,7.07s2.65,7.14,8.84,7.14c5.06,0,8-1.53,8.63-5.4h6.22c-.61,6.9-5.37,10.54-14.85,10.54-10.47,0-15-4.36-15-12.28S637.62,567,648.09,567Z"/><path class="cls-1" d="M696.77,567.34v23.8h-6.12v-9.32H671.28v9.32h-6.12v-23.8h6.12v9.31h19.37v-9.31Z"/><path class="cls-1" d="M705.62,572.2V577h19v4.42h-19v4.82h19v4.87H699.5v-23.8h25.15v4.86Z"/><path class="cls-1" d="M733.05,586.58v4.56h-5.81v-4.56Z"/><path class="cls-1" d="M38.61,888.26c0,4-2.7,6-5.78,6H24.2v-11.9h8.63C35.91,882.31,38.61,884.22,38.61,888.26Zm-3.06,0c0-2.89-1.56-3.38-3.87-3.38H27.26v6.76h4.42C34,891.64,35.55,891.15,35.55,888.26Z"/><path class="cls-1" d="M47.28,894.38c-5.23,0-7.48-2-7.48-6.13v-5.94h3.06v5.94c0,1.66.46,3.56,4.42,3.56s4.42-1.92,4.42-3.56v-5.94h3.06v5.94C54.76,892.38,52.5,894.38,47.28,894.38Z"/><path class="cls-1" d="M71.18,887.84h7.55v6.37H76.47l-.13-1.87a7.07,7.07,0,0,1-5.44,2c-4.39,0-7.08-2.17-7.08-6.12s2.69-6.12,7.59-6.12S78.55,884,78.73,887H75.62c-.17-.9-1-2.24-4.21-2.24-4,0-4.52,2.19-4.52,3.62s.56,3.69,4.52,3.69c3,0,4.14-1.29,4.21-2.19H71.18Z"/><path class="cls-1" d="M91.24,890.68l2.2,3.53H89.83L87.91,891H83v3.18H79.92v-11.9h9.35a4.22,4.22,0,0,1,4.56,4.37A4.06,4.06,0,0,1,91.24,890.68ZM83,888.47h5.44c.92,0,2.35,0,2.35-1.79s-1.43-1.8-2.35-1.8H83Z"/><path class="cls-1" d="M97.89,884.74v2.42h9.52v2.21H97.89v2.41h9.52v2.43H94.83v-11.9h12.58v2.43Z"/><path class="cls-1" d="M115.72,882.14c4.75,0,7.13,1.8,7.43,5.24H120c-.29-1.92-1.77-2.67-4.32-2.67-3.11,0-4.41,1.1-4.41,3.54s1.32,3.56,4.41,3.56c2.54,0,4-.76,4.32-2.7h3.11c-.3,3.45-2.68,5.27-7.43,5.27-5.23,0-7.47-2.17-7.47-6.13S110.49,882.14,115.72,882.14Z"/><path class="cls-1" d="M135.12,886.83v2.28h-2.91v-2.28Zm0,5.1v2.28h-2.91v-2.28Z"/><path class="cls-1" d="M153.11,894.21h-1.5V884h-5.22v10.2h-1.48V882.75h8.2Z"/><path class="cls-1" d="M156.22,882.75l-.6,2.64h-.88l.12-2.64Zm6.92,6.09H158.7V893h5v1.24H157.2V882.75h6.21V884H158.7v3.62h4.44Z"/><path class="cls-1" d="M168.36,884h-3.49v-1.26h8.48V884h-3.5v10.2h-1.49Z"/><path class="cls-1" d="M175,882.89a17,17,0,0,1,2.84-.22,4.71,4.71,0,0,1,3.21,1,3.09,3.09,0,0,1,1,2.4,3.39,3.39,0,0,1-.88,2.45,4.76,4.76,0,0,1-3.5,1.25,4.81,4.81,0,0,1-1.19-.1v4.59H175Zm1.48,5.53a5.23,5.23,0,0,0,1.22.11c1.79,0,2.87-.86,2.87-2.44s-1.07-2.25-2.7-2.25a6,6,0,0,0-1.39.12Z"/><path class="cls-1" d="M184.78,890.61l-1.19,3.6h-1.53L186,882.75h1.78l3.91,11.46h-1.58l-1.22-3.6Zm3.75-1.16-1.12-3.3c-.25-.74-.42-1.42-.59-2.09h0c-.17.68-.35,1.38-.58,2.08l-1.12,3.31Z"/><path class="cls-1" d="M203.51,896.76h-3L204.94,882h3Z"/><path class="cls-1" d="M231.07,886.68a4.21,4.21,0,0,1-4.56,4.35h-6.29v3.18h-3.06v-11.9h9.35A4.22,4.22,0,0,1,231.07,886.68Zm-3.06,0c0-1.8-1.43-1.8-2.35-1.8h-5.44v3.59h5.44C226.58,888.47,228,888.47,228,886.68Z"/><path class="cls-1" d="M235.23,884.74v2.42h9.52v2.21h-9.52v2.41h9.52v2.43H232.17v-11.9h12.58v2.43Zm6.53-5.18-6.61,1.36v-2l6.61-1.36Z"/><path class="cls-1" d="M260.2,884.88h-5.77v9.33h-3.06v-9.33h-5.78v-2.57H260.2Z"/><path class="cls-1" d="M272.53,890.68l2.19,3.53h-3.6L269.2,891h-4.93v3.18h-3.06v-11.9h9.35a4.22,4.22,0,0,1,4.55,4.37A4.06,4.06,0,0,1,272.53,890.68Zm-8.26-2.21h5.44c.92,0,2.34,0,2.34-1.79s-1.42-1.8-2.34-1.8h-5.44Z"/><path class="cls-1" d="M287.13,891.68H280l-1.27,2.53h-3.37l6.14-11.9h4.13l6.15,11.9h-3.38ZM286,889.4l-2.41-4.83-2.43,4.83Z"/><path class="cls-1" d="M295.8,891.93v2.28l-1.37,3.35H293l.87-3.35h-1v-2.28Z"/><path class="cls-1" d="M313.42,884.2l-4.42,5,4.42,5h-4l-4.42-5,4.42-5Zm6.18,0-4.42,5,4.42,5h-4l-4.42-5,4.42-5Z"/><path class="cls-1" d="M340.15,890.68l2.2,3.53h-3.61L336.82,891h-4.93v3.18h-3.06v-11.9h9.35a4.22,4.22,0,0,1,4.56,4.37A4.06,4.06,0,0,1,340.15,890.68Zm-8.26-2.21h5.44c.92,0,2.35,0,2.35-1.79s-1.43-1.8-2.35-1.8h-5.44Z"/><path class="cls-1" d="M343.57,888.25c0-4,2.25-6.11,7.48-6.11s7.48,2.18,7.48,6.11-2.26,6.13-7.48,6.13S343.57,892.21,343.57,888.25Zm11.9,0c0-2.42-1.22-3.54-4.42-3.54s-4.42,1.1-4.42,3.54,1.24,3.56,4.42,3.56S355.47,890.68,355.47,888.25Z"/><path class="cls-1" d="M367,882.14c4.74,0,7.12,1.8,7.43,5.24h-3.12c-.28-1.92-1.76-2.67-4.31-2.67-3.11,0-4.42,1.1-4.42,3.54s1.32,3.56,4.42,3.56c2.53,0,4-.76,4.31-2.7h3.12c-.31,3.45-2.69,5.27-7.43,5.27-5.24,0-7.48-2.17-7.48-6.13S361.71,882.14,367,882.14Z"/><path class="cls-1" d="M391.29,882.31v11.9h-3.06v-4.66h-9.69v4.66h-3.06v-11.9h3.06V887h9.69v-4.66Z"/><path class="cls-1" d="M395.71,884.74v2.42h9.52v2.21h-9.52v2.41h9.52v2.43H392.65v-11.9h12.58v2.43Z"/><path class="cls-1" d="M417.66,890.68l2.19,3.53h-3.6L414.33,891H409.4v3.18h-3.06v-11.9h9.35a4.22,4.22,0,0,1,4.55,4.37A4.06,4.06,0,0,1,417.66,890.68Zm-8.26-2.21h5.44c.92,0,2.34,0,2.34-1.79s-1.42-1.8-2.34-1.8H409.4Z"/><path class="cls-1" d="M438.08,889.21l-4.42,5h-4l4.41-5-4.41-5h4Zm6.18,0-4.42,5h-4l4.42-5-4.42-5h4Z"/><path class="cls-1" d="M456.55,884.74v2.42h9.52v2.21h-9.52v2.41h9.52v2.43H453.49v-11.9h12.58v2.43Z"/><path class="cls-1" d="M482.51,882.31v11.9h-4.16l-8.11-8.92v8.92h-3.06v-11.9h4.15l8.12,8.94v-8.94Z"/><path class="cls-1" d="M498.93,887.84h7.55v6.37h-2.26l-.14-1.87a7,7,0,0,1-5.44,2c-4.38,0-7.07-2.17-7.07-6.12s2.69-6.12,7.59-6.12c4.75,0,7.13,1.86,7.32,4.81h-3.11c-.17-.9-1-2.24-4.21-2.24-4,0-4.53,2.19-4.53,3.62s.56,3.69,4.53,3.69c2.95,0,4.14-1.29,4.21-2.19h-4.44Z"/><path class="cls-1" d="M519,890.68l2.2,3.53h-3.61L515.66,891h-4.93v3.18h-3.06v-11.9H517a4.22,4.22,0,0,1,4.56,4.37A4.06,4.06,0,0,1,519,890.68Zm-8.26-2.21h5.44c.92,0,2.35,0,2.35-1.79s-1.43-1.8-2.35-1.8h-5.44Z"/><path class="cls-1" d="M525.64,884.74v2.42h9.52v2.21h-9.52v2.41h9.52v2.43H522.58v-11.9h12.58v2.43Z"/><path class="cls-1" d="M543.47,882.14c4.75,0,7.13,1.8,7.43,5.24h-3.11c-.29-1.92-1.77-2.67-4.32-2.67-3.11,0-4.42,1.1-4.42,3.54s1.33,3.56,4.42,3.56c2.54,0,4-.76,4.32-2.7h3.11c-.3,3.45-2.68,5.27-7.43,5.27-5.23,0-7.48-2.17-7.48-6.13S538.24,882.14,543.47,882.14Z"/><path class="cls-1" d="M571.56,891.68h-7.13l-1.27,2.53h-3.37l6.14-11.9h4.13l6.16,11.9h-3.39Zm-1.14-2.28L568,884.57l-2.44,4.83Z"/><path class="cls-1" d="M592.28,882.31v11.9h-4.16L580,885.29v8.92H577v-11.9h4.15l8.12,8.94v-8.94Z"/><path class="cls-1" d="M600.78,882.14c4.74,0,7.12,1.8,7.43,5.24H605.1c-.29-1.92-1.77-2.67-4.32-2.67-3.11,0-4.42,1.1-4.42,3.54s1.33,3.56,4.42,3.56c2.53,0,4-.76,4.32-2.7h3.11c-.31,3.45-2.69,5.27-7.43,5.27-5.23,0-7.48-2.17-7.48-6.13S595.55,882.14,600.78,882.14Z"/><path class="cls-1" d="M612.38,894.21h-3.06v-11.9h3.06Z"/><path class="cls-1" d="M616.8,884.74v2.42h9.51v2.21H616.8v2.41h9.51v2.43H613.74v-11.9h12.57v2.43Z"/><path class="cls-1" d="M642.75,882.31v11.9h-4.16l-8.11-8.92v8.92h-3.06v-11.9h4.15l8.12,8.94v-8.94Z"/><path class="cls-1" d="M141.32,771.59c0,22.47-15.7,36.87-38.59,36.87H49.45v26.92H23.53V734.59h79.2C125.62,734.59,141.32,749.13,141.32,771.59Zm-25.92,0c0-15.26-12.1-15.26-19.87-15.26H49.45v30.38H95.53C103.3,786.71,115.4,786.71,115.4,771.59Z"/><path class="cls-1" d="M176.6,755.18v20.45h80.64v18.72H176.6v20.44h80.64v20.59H150.68V734.59H257.24v20.59Z"/><path class="cls-1" d="M388.13,756.33H339.18v79H313.26v-79h-49V734.59H388.13Z"/><path class="cls-1" d="M492.53,805.43l18.58,30H480.58l-16.27-26.92H422.55v26.92H396.63V734.59h79.2c22.9,0,38.59,14.54,38.59,37C514.42,788,506.07,800.1,492.53,805.43Zm-70-18.72h46.08c7.78,0,19.87,0,19.87-15.12s-12.09-15.26-19.87-15.26H422.55Z"/><path class="cls-1" d="M616.23,813.93H555.9l-10.8,21.45H516.59l52-100.79h35l52.13,100.79H627Zm-9.65-19.3-20.44-40.89-20.6,40.89Z"/><path class="cls-1" d="M785.14,876.85h4.27v8.33h1.24v-7.25h4.27v7.25h3.25v5.1h-13Z"/><path class="cls-1" d="M798.17,858v5.4l-2.12.94v6.57l2.12.94v5.4l-13-6v-7.33Zm-9.5,9.62,3.78,1.69v-3.37Z"/><path class="cls-1" d="M793.89,852.69c.29,0,.53-.23.73-.69a6,6,0,0,0,.3-2.22,15.31,15.31,0,0,0-.08-1.8,1.8,1.8,0,0,0-.22-.76.41.41,0,0,0-.33-.16.42.42,0,0,0-.4.2,2.5,2.5,0,0,0-.22.84c-.07.43-.15,1.17-.23,2.22a19.75,19.75,0,0,1-.71,4.27,5.32,5.32,0,0,1-1.45,2.47,3.51,3.51,0,0,1-2.38.82,3.09,3.09,0,0,1-2.22-.91,5.79,5.79,0,0,1-1.41-2.58,13.66,13.66,0,0,1-.49-3.88,12.39,12.39,0,0,1,1.15-5.94,3.94,3.94,0,0,1,3.28-2.25v5.28c-.29,0-.49.23-.62.69a8.67,8.67,0,0,0-.19,2.15c0,1.43.17,2.14.5,2.14a.34.34,0,0,0,.32-.2,3,3,0,0,0,.23-.88c.08-.44.16-1.12.25-2a34.44,34.44,0,0,1,.59-4.29,5.1,5.1,0,0,1,1.22-2.46,3.43,3.43,0,0,1,2.58-.92,3.57,3.57,0,0,1,3.42,2,12.89,12.89,0,0,1,1,5.81,13.87,13.87,0,0,1-1.09,6.18,4,4,0,0,1-3.55,2.26Z"/><path class="cls-1" d="M785.14,825.3h4.27v5.23h8.76v5.1h-8.76v5.25h-4.27Z"/><path class="cls-1" d="M791.82,807.69a6.29,6.29,0,0,1,5,1.95c1.12,1.29,1.67,3.31,1.67,6s-.55,4.77-1.66,6.06a6.3,6.3,0,0,1-5,1.94h-6.68v-5.1h6.46a2.75,2.75,0,0,0,1.91-.67,2.84,2.84,0,0,0,.76-2.23,2.5,2.5,0,0,0-2.67-2.88h-6.46v-5.11Z"/><path class="cls-1" d="M785.14,792.5h3.78v8.33h1v-8h3.42v8h1V792.5h3.78v13.43h-13Z"/><path class="cls-1" d="M791.82,774.57a6.29,6.29,0,0,1,5,1.95c1.12,1.29,1.67,3.31,1.67,6s-.55,4.77-1.66,6.06a6.3,6.3,0,0,1-5,1.94h-6.68v-5.1h6.46a2.75,2.75,0,0,0,1.91-.67,2.84,2.84,0,0,0,.76-2.23,2.5,2.5,0,0,0-2.67-2.88h-6.46v-5.11Z"/><path class="cls-1" d="M793.89,768c.29,0,.53-.23.73-.69a6,6,0,0,0,.3-2.22,15.31,15.31,0,0,0-.08-1.8,1.8,1.8,0,0,0-.22-.76.41.41,0,0,0-.33-.16.42.42,0,0,0-.4.2,2.5,2.5,0,0,0-.22.84c-.07.43-.15,1.17-.23,2.22a19.75,19.75,0,0,1-.71,4.27,5.32,5.32,0,0,1-1.45,2.47,3.51,3.51,0,0,1-2.38.82,3.09,3.09,0,0,1-2.22-.91,5.79,5.79,0,0,1-1.41-2.58,13.63,13.63,0,0,1-.49-3.87,12.43,12.43,0,0,1,1.15-6,3.94,3.94,0,0,1,3.28-2.25v5.28c-.29,0-.49.23-.62.69a8.67,8.67,0,0,0-.19,2.15c0,1.43.17,2.14.5,2.14a.34.34,0,0,0,.32-.2,3,3,0,0,0,.23-.88c.08-.44.16-1.12.25-2a34.44,34.44,0,0,1,.59-4.29,5.15,5.15,0,0,1,1.22-2.46,3.43,3.43,0,0,1,2.58-.92,3.57,3.57,0,0,1,3.42,1.95,12.89,12.89,0,0,1,1,5.81,13.87,13.87,0,0,1-1.09,6.18,4,4,0,0,1-3.55,2.26Z"/><path class="cls-1" d="M785.14,742h3.78v8.33h1v-8h3.42v8h1V742h3.78v13.43h-13Z"/><path class="cls-3" d="M738.32,836.63a2,2,0,0,1-.84-.79,2.48,2.48,0,0,1-.28-1.18,2.45,2.45,0,0,1,.28-1.18,1.87,1.87,0,0,1,.84-.78,3.17,3.17,0,0,1,1.38-.27,3.13,3.13,0,0,1,1.37.27,1.87,1.87,0,0,1,.84.78,2.63,2.63,0,0,1,0,2.36,1.87,1.87,0,0,1-.84.78,3,3,0,0,1-1.37.28A3.17,3.17,0,0,1,738.32,836.63Zm2.51-.89a1.4,1.4,0,0,0,.4-1.08,1.37,1.37,0,0,0-.4-1.07,1.59,1.59,0,0,0-1.13-.38,1.66,1.66,0,0,0-1.14.37,1.66,1.66,0,0,0,0,2.16,1.62,1.62,0,0,0,1.14.38A1.59,1.59,0,0,0,740.83,835.74Z"/><path class="cls-3" d="M739.72,807.31v3.47h1.53v.76h-4v-.76h1.54v-2.62l-1.27.45-.27-.76,1.54-.54Z"/><path class="cls-3" d="M742.94,811.39a1.88,1.88,0,0,1-.84-.78,2.41,2.41,0,0,1-.28-1.19,2.37,2.37,0,0,1,.28-1.18,1.88,1.88,0,0,1,.84-.78,3.13,3.13,0,0,1,1.37-.27,3.17,3.17,0,0,1,1.38.27,2,2,0,0,1,.84.78,2.37,2.37,0,0,1,.28,1.18,2.34,2.34,0,0,1-.28,1.18,1.87,1.87,0,0,1-.84.78,3,3,0,0,1-1.38.28A3.13,3.13,0,0,1,742.94,811.39Zm2.51-.89a1.64,1.64,0,0,0,0-2.15,1.62,1.62,0,0,0-1.14-.38,1.59,1.59,0,0,0-1.13.38,1.36,1.36,0,0,0-.4,1.07,1.4,1.4,0,0,0,.4,1.08,1.59,1.59,0,0,0,1.13.38A1.62,1.62,0,0,0,745.45,810.5Z"/><path class="cls-3" d="M741.64,784a2.21,2.21,0,0,1-.73.46,10.56,10.56,0,0,1-1.12.34,8,8,0,0,0-1,.31.67.67,0,0,0-.42.4h3.57v.77h-4.71v-.5a1.13,1.13,0,0,1,.34-.78,2.3,2.3,0,0,1,.74-.48c.29-.11.67-.23,1.13-.36s.64-.18.84-.25a1.64,1.64,0,0,0,.49-.27.51.51,0,0,0,.2-.4.49.49,0,0,0-.26-.44,2.94,2.94,0,0,0-2,.06.76.76,0,0,0-.34.67h-1a1.38,1.38,0,0,1,.67-1.23,3.45,3.45,0,0,1,1.74-.38,3.36,3.36,0,0,1,1.61.31,1.16,1.16,0,0,1,.26,1.77Z"/><path class="cls-3" d="M743.83,786.15a1.87,1.87,0,0,1-.84-.78,2.41,2.41,0,0,1-.28-1.19A2.37,2.37,0,0,1,743,783a1.91,1.91,0,0,1,.84-.77,3.52,3.52,0,0,1,2.75,0,1.87,1.87,0,0,1,.84.78,2.3,2.3,0,0,1,.28,1.17,2.34,2.34,0,0,1-.28,1.18,2,2,0,0,1-.84.79,3.52,3.52,0,0,1-2.75,0Zm2.51-.89a1.64,1.64,0,0,0,0-2.15,1.93,1.93,0,0,0-2.27,0,1.37,1.37,0,0,0-.4,1.07,1.42,1.42,0,0,0,.4,1.09,1.91,1.91,0,0,0,2.27,0Z"/><path class="cls-3" d="M742,759.89a1.06,1.06,0,0,1-.59,1,3.73,3.73,0,0,1-1.72.32,3.69,3.69,0,0,1-1.85-.37,1.35,1.35,0,0,1-.66-1.2h1a.74.74,0,0,0,.17.5,1,1,0,0,0,.5.25,4.32,4.32,0,0,0,.89.07,3.93,3.93,0,0,0,.77-.06.91.91,0,0,0,.42-.18.44.44,0,0,0,.13-.34.43.43,0,0,0-.17-.38,1.2,1.2,0,0,0-.56-.2,10,10,0,0,0-1.1,0v-.6a9.35,9.35,0,0,0,1.06,0,1.15,1.15,0,0,0,.54-.2.48.48,0,0,0-.11-.8,2.59,2.59,0,0,0-1-.13,3.72,3.72,0,0,0-.91.08.85.85,0,0,0-.48.26.74.74,0,0,0-.15.49h-.94a1.34,1.34,0,0,1,.67-1.2,3.79,3.79,0,0,1,1.83-.37,3.51,3.51,0,0,1,1.66.32,1,1,0,0,1-.17,1.9Q742,759.22,742,759.89Z"/><path class="cls-3" d="M743.89,760.91a1.87,1.87,0,0,1-.84-.78,2.37,2.37,0,0,1-.28-1.18,2.32,2.32,0,0,1,.28-1.18,1.87,1.87,0,0,1,.84-.78,3.52,3.52,0,0,1,2.75,0,1.87,1.87,0,0,1,.84.78,2.63,2.63,0,0,1,0,2.36,2,2,0,0,1-.84.78,3.52,3.52,0,0,1-2.75,0Zm2.51-.88a1.43,1.43,0,0,0,.4-1.08,1.4,1.4,0,0,0-.4-1.08,1.59,1.59,0,0,0-1.13-.37,1.61,1.61,0,0,0-1.14.37,1.66,1.66,0,0,0,0,2.16,1.61,1.61,0,0,0,1.14.37A1.59,1.59,0,0,0,746.4,760Z"/><path class="cls-3" d="M741.21,734.34h.93v.75h-.93v.74h-.92v-.74h-3v-.75l3-2.74h.92Zm-.92-1.79-2,1.79h2Z"/><path class="cls-3" d="M743.9,735.68a2,2,0,0,1-.84-.79,2.48,2.48,0,0,1-.28-1.18,2.42,2.42,0,0,1,.28-1.18,1.93,1.93,0,0,1,.84-.78,3.17,3.17,0,0,1,1.38-.28,3.12,3.12,0,0,1,1.37.28,2,2,0,0,1,.84.78,2.63,2.63,0,0,1,0,2.36,1.93,1.93,0,0,1-.84.78,3,3,0,0,1-1.37.28A3.17,3.17,0,0,1,743.9,735.68Zm2.51-.89a1.4,1.4,0,0,0,.4-1.08,1.37,1.37,0,0,0-.4-1.07,1.59,1.59,0,0,0-1.13-.38,1.61,1.61,0,0,0-1.14.37,1.66,1.66,0,0,0,0,2.16,1.62,1.62,0,0,0,1.14.38A1.59,1.59,0,0,0,746.41,734.79Z"/><line class="cls-4" x1="731.34" y1="836.29" x2="731.34" y2="733.55"/><line class="cls-4" x1="731.61" y1="835.79" x2="715.02" y2="835.79"/><line class="cls-4" x1="731.61" y1="784.76" x2="715.02" y2="784.76"/><line class="cls-4" x1="731.61" y1="810.28" x2="715.02" y2="810.28"/><line class="cls-4" x1="731.61" y1="733.73" x2="715.02" y2="733.73"/><line class="cls-4" x1="731.61" y1="746.49" x2="722.19" y2="746.49"/><line class="cls-4" x1="731.61" y1="772.01" x2="722.19" y2="772.01"/><line class="cls-4" x1="731.61" y1="797.52" x2="722.19" y2="797.52"/><line class="cls-4" x1="731.61" y1="823.04" x2="722.19" y2="823.04"/><line class="cls-4" x1="731.61" y1="759.25" x2="715.02" y2="759.25"/><rect class="cls-5" x="1" y="712.99" width="766.47" height="144"/><rect class="cls-5" x="1" y="712.99" width="818.04" height="206.3"/><rect class="cls-5" x="682.7" y="712.99" width="84.77" height="144"/><rect class="cls-6" x="682.7" y="856.99" width="84.77" height="62.3"/><rect class="cls-5" x="767.47" y="712.99" width="51.57" height="206.3"/><polygon class="cls-7" points="725.09 880.05 727.13 884.32 731.73 883.25 729.67 887.51 733.38 890.45 728.76 891.49 728.77 896.22 725.09 893.26 721.39 896.22 721.41 891.49 716.79 890.45 720.5 887.51 718.44 883.25 723.04 884.32 725.09 880.05"/><line class="cls-5" x1="996.25" y1="131.28" x2="996.25" y2="221.44"/><line class="cls-5" x1="995.78" y1="131.28" x2="1075.67" y2="131.28"/><line class="cls-5" x1="1746.92" y1="131.28" x2="1746.92" y2="221.44"/><line class="cls-5" x1="1747.39" y1="131.28" x2="1667.5" y2="131.28"/><line class="cls-5" x1="1746.92" y1="753.28" x2="1746.92" y2="663.13"/><line class="cls-5" x1="1747.39" y1="753.28" x2="1667.5" y2="753.28"/><line class="cls-5" x1="996.25" y1="753.28" x2="996.25" y2="663.13"/><line class="cls-5" x1="995.78" y1="753.28" x2="1075.67" y2="753.28"/><path class="cls-1" d="M1372.94,776.67h9.55v1.61l-6.76,5.26h6.76v1.6h-9.55v-1.6l6.74-5.26h-6.74Z"/><path class="cls-1" d="M1384.94,784.2a4.13,4.13,0,0,1-1.39-3.31,4.08,4.08,0,0,1,1.39-3.28,7.64,7.64,0,0,1,8.16,0,4.08,4.08,0,0,1,1.39,3.28,4.51,4.51,0,0,1-.61,2.4,4,4,0,0,1-1.84,1.55,7.52,7.52,0,0,1-3,.54A6.15,6.15,0,0,1,1384.94,784.2Zm7.58-3.31q0-2.85-3.5-2.85a4.18,4.18,0,0,0-2.64.7,2.61,2.61,0,0,0-.88,2.15c0,1.92,1.17,2.89,3.52,2.89S1392.52,782.81,1392.52,780.89Z"/><path class="cls-1" d="M1404.89,783.44v-6.77h1.85v8.47h-2.67l-6.21-6.76v6.76H1396v-8.47h2.67Z"/><path class="cls-1" d="M1417.48,776.67v1.54h-7v1.93h6.8v1.54h-6.8v1.93h7v1.53h-8.88v-8.47Z"/><path class="cls-1" d="M1434.65,781a4.05,4.05,0,0,1-1.27,3.28,8,8,0,0,1-8,0,4.09,4.09,0,0,1-1.27-3.29v-4.35h1.84V781a3.49,3.49,0,0,0,.25,1.37,2,2,0,0,0,1,1,6.05,6.05,0,0,0,4.38,0,2,2,0,0,0,1-1,3.68,3.68,0,0,0,.25-1.37v-4.31h1.84Z"/><path class="cls-1" d="M1446.41,776.67v1.61h-4.23v6.86h-1.85v-6.86h-4.24v-1.61Z"/><path class="cls-1" d="M1461.09,776.67v8.47h-1.85v-6.83l-3.92,6.83h-1.69l-3.94-6.83v6.83h-1.84v-8.47h2.9l3.72,6.36,3.72-6.36Z"/><path class="cls-1" d="M1467.8,781.54V780h1.8v1.5Zm0,3.6v-1.5h1.8v1.5Z"/><path class="cls-1" d="M1485.82,782.78a2.09,2.09,0,0,1-1.18,2,9.59,9.59,0,0,1-7.14-.1,2.67,2.67,0,0,1-1.32-2.39h1.93a1.37,1.37,0,0,0,.33,1,1.93,1.93,0,0,0,1,.51,9.26,9.26,0,0,0,1.76.14,8,8,0,0,0,1.55-.11,1.69,1.69,0,0,0,.84-.37.88.88,0,0,0,.27-.68.91.91,0,0,0-.35-.76,2.41,2.41,0,0,0-1.12-.39,17.28,17.28,0,0,0-2.19-.11v-1.19a16.2,16.2,0,0,0,2.11-.11,2.4,2.4,0,0,0,1.09-.39,1,1,0,0,0,.34-.77.87.87,0,0,0-.57-.84,5.11,5.11,0,0,0-2-.27,7.87,7.87,0,0,0-1.83.17,1.73,1.73,0,0,0-1,.52,1.49,1.49,0,0,0-.29,1h-1.89a2.63,2.63,0,0,1,1.34-2.38,7.33,7.33,0,0,1,3.65-.75,7.23,7.23,0,0,1,3.33.62,2,2,0,0,1,1.16,1.92,2,2,0,0,1-1.5,1.89Q1485.82,781.43,1485.82,782.78Z"/><path class="cls-1" d="M1495.81,780a2.51,2.51,0,0,1,1.08,2.23,2.71,2.71,0,0,1-1.17,2.36,5.94,5.94,0,0,1-3.39.81,8.06,8.06,0,0,1-2.87-.42,3,3,0,0,1-1.6-1.35,5.42,5.42,0,0,1-.54-2.5v-.17a4.2,4.2,0,0,1,1.42-3.47,6.13,6.13,0,0,1,3.78-1,17.29,17.29,0,0,1,1.88.09c.54.05,1.15.13,1.84.23v1.5c-.79-.12-1.42-.2-1.87-.25s-1-.07-1.56-.07a7.9,7.9,0,0,0-2,.19,2,2,0,0,0-1.12.68,2.55,2.55,0,0,0-.45,1.43,4.78,4.78,0,0,1,1.45-.71,6.66,6.66,0,0,1,2-.28A5.26,5.26,0,0,1,1495.81,780Zm-1.53,3.49a1.4,1.4,0,0,0,.64-1.24,1.38,1.38,0,0,0-.64-1.23,4.33,4.33,0,0,0-2.18-.4c-1.88,0-2.82.54-2.82,1.63a1.38,1.38,0,0,0,.69,1.23,5.8,5.8,0,0,0,4.31,0Z"/><path class="cls-1" d="M1508.11,782a1.6,1.6,0,0,1,.34,1.07v2.06h-1.85v-1.65a1.57,1.57,0,0,0-.09-.65.54.54,0,0,0-.33-.31,2.08,2.08,0,0,0-.7-.09h-4.83v2.7h-1.83v-8.47h6.38a4.1,4.1,0,0,1,2.47.64,2.25,2.25,0,0,1,.87,2,2.2,2.2,0,0,1-1.41,2.25A1.5,1.5,0,0,1,1508.11,782Zm-7.46-3.77v2.62h4.08a5,5,0,0,0,1-.07,1.09,1.09,0,0,0,.62-.34,1.27,1.27,0,0,0,.27-.9,1.25,1.25,0,0,0-.27-.89,1.05,1.05,0,0,0-.62-.35,6,6,0,0,0-1-.07Z"/><path class="cls-1" d="M1375.54,803.14h-2.64l4.63-4.23-4.63-4.24h2.64l3.25,3,3.26-3h2.65l-4.65,4.24,4.65,4.23h-2.65l-3.26-3Z"/><path class="cls-1" d="M1391.36,799.54V798h1.8v1.5Zm0,3.6v-1.5h1.8v1.5Z"/><path class="cls-1" d="M1399.53,794.67h8.92v1.54a13.92,13.92,0,0,0-2.8,2.06,6.72,6.72,0,0,0-1.54,2.21,6.85,6.85,0,0,0-.49,2.66h-1.93a7.54,7.54,0,0,1,1-3.86,8.81,8.81,0,0,1,3.42-3.07h-6.59Z"/><path class="cls-1" d="M1419.37,800.78a2.1,2.1,0,0,1-1.19,2,7.32,7.32,0,0,1-3.43.64,7.42,7.42,0,0,1-3.71-.74,2.64,2.64,0,0,1-1.31-2.39h1.92a1.33,1.33,0,0,0,.34,1,1.9,1.9,0,0,0,1,.51,9.3,9.3,0,0,0,1.77.14,7.91,7.91,0,0,0,1.54-.11,1.65,1.65,0,0,0,.84-.37.88.88,0,0,0,.27-.68.9.9,0,0,0-.34-.76,2.45,2.45,0,0,0-1.12-.39,17.46,17.46,0,0,0-2.2-.11v-1.19a16.09,16.09,0,0,0,2.11-.11,2.31,2.31,0,0,0,1.09-.39.92.92,0,0,0,.34-.77.87.87,0,0,0-.57-.84,5.07,5.07,0,0,0-2-.27,8,8,0,0,0-1.83.17,1.76,1.76,0,0,0-1,.52,1.55,1.55,0,0,0-.29,1h-1.89a2.65,2.65,0,0,1,1.34-2.38,7.35,7.35,0,0,1,3.66-.75,7.26,7.26,0,0,1,3.33.62,2.06,2.06,0,0,1,1.16,1.92,2,2,0,0,1-1.5,1.89Q1419.37,799.43,1419.37,800.78Z"/><path class="cls-1" d="M1430.89,800.83a2.08,2.08,0,0,1-1.15,1.89,11.56,11.56,0,0,1-7.7,0,2.08,2.08,0,0,1-1.14-1.89c0-1.09.67-1.83,2-2.22a1.92,1.92,0,0,1-1.21-1.8,1.94,1.94,0,0,1,1-1.8,8.93,8.93,0,0,1,6.33,0,1.94,1.94,0,0,1,1,1.8,1.89,1.89,0,0,1-1.22,1.79C1430.21,799,1430.89,799.74,1430.89,800.83Zm-2.68.81a1,1,0,0,0,.67-1,1,1,0,0,0-.67-1,6.23,6.23,0,0,0-2.32-.31,6,6,0,0,0-2.32.31,1,1,0,0,0,0,1.92,8.53,8.53,0,0,0,4.63,0Zm-4.09-5.58a.83.83,0,0,0-.53.81.82.82,0,0,0,.52.8,4.66,4.66,0,0,0,1.78.24,4.72,4.72,0,0,0,1.79-.24.88.88,0,0,0,0-1.61,6.43,6.43,0,0,0-3.55,0Z"/><path class="cls-1" d="M1442.48,800.83a2.07,2.07,0,0,1-1.15,1.89,11.56,11.56,0,0,1-7.7,0,2.08,2.08,0,0,1-1.14-1.89c0-1.09.68-1.83,2-2.22a1.92,1.92,0,0,1-1.21-1.8,1.94,1.94,0,0,1,1-1.8,8.93,8.93,0,0,1,6.33,0,1.94,1.94,0,0,1,1,1.8,1.88,1.88,0,0,1-1.22,1.79C1441.8,799,1442.48,799.74,1442.48,800.83Zm-2.68.81a1,1,0,0,0,.67-1,1,1,0,0,0-.67-1,6.2,6.2,0,0,0-2.31-.31,6,6,0,0,0-2.33.31,1,1,0,0,0,0,1.92,8.53,8.53,0,0,0,4.63,0Zm-4.09-5.58a.88.88,0,0,0,0,1.61,4.72,4.72,0,0,0,1.79.24,4.66,4.66,0,0,0,1.78-.24.82.82,0,0,0,.52-.8.83.83,0,0,0-.53-.81,6.43,6.43,0,0,0-3.55,0Z"/><path class="cls-1" d="M1453.65,800.78a2.09,2.09,0,0,1-1.18,2,9.59,9.59,0,0,1-7.14-.1,2.65,2.65,0,0,1-1.32-2.39h1.92a1.37,1.37,0,0,0,.34,1,1.89,1.89,0,0,0,1,.51,9.11,9.11,0,0,0,1.76.14,8,8,0,0,0,1.55-.11,1.73,1.73,0,0,0,.84-.37.88.88,0,0,0,.26-.68.9.9,0,0,0-.34-.76,2.45,2.45,0,0,0-1.12-.39,17.34,17.34,0,0,0-2.2-.11v-1.19a16.27,16.27,0,0,0,2.12-.11,2.4,2.4,0,0,0,1.09-.39.94.94,0,0,0,.33-.77.87.87,0,0,0-.56-.84,5.11,5.11,0,0,0-2-.27,7.87,7.87,0,0,0-1.83.17,1.69,1.69,0,0,0-1,.52,1.49,1.49,0,0,0-.3,1h-1.88a2.63,2.63,0,0,1,1.34-2.38,7.33,7.33,0,0,1,3.65-.75,7.23,7.23,0,0,1,3.33.62,2.06,2.06,0,0,1,1.16,1.92,2,2,0,0,1-1.5,1.89Q1453.65,799.43,1453.65,800.78Z"/><path class="cls-1" d="M1460.3,794.67v6.94h3.07v1.53h-8v-1.53h3.07v-5.23l-2.53.9-.54-1.53,3.08-1.08Z"/><path class="cls-1" d="M1465.31,803.14v-1.5h1.8v1.5Z"/><path class="cls-1" d="M1474,794.67v6.94H1477v1.53h-8v-1.53h3.07v-5.23l-2.53.9-.54-1.53,3.08-1.08Z"/><path class="cls-1" d="M1487.73,798.87a4.22,4.22,0,0,1-1.42,3.48,6.18,6.18,0,0,1-3.79,1,17.43,17.43,0,0,1-1.87-.08c-.54-.06-1.16-.14-1.85-.24v-1.5l.49.07c.61.09,1.13.15,1.55.19s.88.06,1.39.06a8.34,8.34,0,0,0,1.94-.18,2,2,0,0,0,1.12-.69,2.44,2.44,0,0,0,.46-1.42,4.79,4.79,0,0,1-1.47.7,6.66,6.66,0,0,1-2,.29,5.21,5.21,0,0,1-3-.75,2.53,2.53,0,0,1-1.08-2.23,2.69,2.69,0,0,1,1.17-2.35,5.8,5.8,0,0,1,3.37-.82,8.16,8.16,0,0,1,2.88.42,3,3,0,0,1,1.6,1.35,5.45,5.45,0,0,1,.54,2.5v.17Zm-2-1.29q0-1.65-2.82-1.65a4.25,4.25,0,0,0-2.17.41,1.51,1.51,0,0,0,0,2.47,4.25,4.25,0,0,0,2.17.41C1484.82,799.22,1485.76,798.67,1485.76,797.58Z"/><path class="cls-1" d="M1497,800.16h1.85v1.5H1497v1.48h-1.85v-1.48h-6v-1.5l6-5.49H1497Zm-1.85-3.57-3.93,3.57h3.93Z"/><path class="cls-1" d="M1510.05,800.78a2.09,2.09,0,0,1-1.18,2,9.59,9.59,0,0,1-7.14-.1,2.65,2.65,0,0,1-1.32-2.39h1.92a1.37,1.37,0,0,0,.34,1,1.89,1.89,0,0,0,1,.51,9.18,9.18,0,0,0,1.76.14,8,8,0,0,0,1.55-.11,1.73,1.73,0,0,0,.84-.37.88.88,0,0,0,.26-.68.9.9,0,0,0-.34-.76,2.45,2.45,0,0,0-1.12-.39,17.34,17.34,0,0,0-2.2-.11v-1.19a16.27,16.27,0,0,0,2.12-.11,2.4,2.4,0,0,0,1.09-.39.94.94,0,0,0,.33-.77.87.87,0,0,0-.56-.84,5.11,5.11,0,0,0-2-.27,7.87,7.87,0,0,0-1.83.17,1.69,1.69,0,0,0-1,.52,1.49,1.49,0,0,0-.3,1h-1.88a2.63,2.63,0,0,1,1.34-2.38,7.33,7.33,0,0,1,3.65-.75,7.23,7.23,0,0,1,3.33.62,2.06,2.06,0,0,1,1.16,1.92,2,2,0,0,1-1.5,1.89Q1510.05,799.43,1510.05,800.78Z"/><path class="cls-1" d="M1521.23,798.87a4.19,4.19,0,0,1-1.42,3.48,6.17,6.17,0,0,1-3.78,1,17.63,17.63,0,0,1-1.88-.08c-.54-.06-1.16-.14-1.85-.24v-1.5l.5.07c.61.09,1.12.15,1.54.19s.88.06,1.4.06a8.4,8.4,0,0,0,1.94-.18,2,2,0,0,0,1.12-.69,2.52,2.52,0,0,0,.45-1.42,4.79,4.79,0,0,1-1.47.7,6.61,6.61,0,0,1-2,.29,5.21,5.21,0,0,1-3-.75,2.53,2.53,0,0,1-1.08-2.23,2.69,2.69,0,0,1,1.17-2.35,5.84,5.84,0,0,1,3.38-.82,8.09,8.09,0,0,1,2.87.42,3,3,0,0,1,1.6,1.35,5.21,5.21,0,0,1,.54,2.5v.17Zm-2-1.29c0-1.1-.93-1.65-2.81-1.65a4.29,4.29,0,0,0-2.18.41,1.53,1.53,0,0,0,0,2.47,4.29,4.29,0,0,0,2.18.41C1518.33,799.22,1519.26,798.67,1519.26,797.58Z"/><path class="cls-1" d="M1530.53,800.16h1.85v1.5h-1.85v1.48h-1.85v-1.48h-6v-1.5l6-5.49h1.85Zm-1.85-3.57-3.93,3.57h3.93Z"/><path class="cls-1" d="M1542.4,798a2.51,2.51,0,0,1,1.08,2.23,2.71,2.71,0,0,1-1.17,2.36,5.94,5.94,0,0,1-3.39.81,8.09,8.09,0,0,1-2.87-.42,3,3,0,0,1-1.59-1.35,5.18,5.18,0,0,1-.54-2.5v-.17a4.19,4.19,0,0,1,1.41-3.47,6.17,6.17,0,0,1,3.78-1,17.16,17.16,0,0,1,1.88.09c.54.05,1.16.13,1.84.23v1.5c-.79-.12-1.41-.2-1.86-.25s-1-.07-1.57-.07a7.81,7.81,0,0,0-1.94.19,1.93,1.93,0,0,0-1.12.68,2.55,2.55,0,0,0-.45,1.43,4.72,4.72,0,0,1,1.44-.71,6.78,6.78,0,0,1,2.05-.28A5.25,5.25,0,0,1,1542.4,798Zm-1.53,3.49a1.38,1.38,0,0,0,.64-1.24,1.36,1.36,0,0,0-.64-1.23,4.31,4.31,0,0,0-2.18-.4c-1.88,0-2.82.54-2.82,1.63a1.38,1.38,0,0,0,.69,1.23,5.8,5.8,0,0,0,4.31,0Z"/><path class="cls-1" d="M1552.82,797.59a2.81,2.81,0,0,1,1.26,1,2.65,2.65,0,0,1,.45,1.53,2.76,2.76,0,0,1-1.22,2.42,5.88,5.88,0,0,1-3.36.84,7.88,7.88,0,0,1-3.55-.68,2.32,2.32,0,0,1-1.39-2.18h2a1.19,1.19,0,0,0,.8,1,5.29,5.29,0,0,0,2.19.36,3.48,3.48,0,0,0,2-.45,1.47,1.47,0,0,0,.63-1.25A1.37,1.37,0,0,0,1552,799a3,3,0,0,0-1.83-.42,5.42,5.42,0,0,0-1.32.16,9.43,9.43,0,0,0-1.63.64l-1.75-.37,1-4.36h7.44v1.5h-6l-.39,1.86a7.1,7.1,0,0,1,3.39-.79A4.83,4.83,0,0,1,1552.82,797.59Z"/><path class="cls-1" d="M1378.75,816.78l3.54-4.11h2.38l-5,5.68v2.79h-1.94v-2.79l-5-5.68h2.39Z"/><path class="cls-1" d="M1391.26,817.54V816h1.8v1.5Zm0,3.6v-1.5h1.8v1.5Z"/><path class="cls-1" d="M1409.29,818.78a2.1,2.1,0,0,1-1.19,2,7.29,7.29,0,0,1-3.43.64,7.42,7.42,0,0,1-3.71-.74,2.64,2.64,0,0,1-1.31-2.39h1.92a1.33,1.33,0,0,0,.34,1,1.9,1.9,0,0,0,1,.51,9.3,9.3,0,0,0,1.77.14,8.09,8.09,0,0,0,1.55-.11,1.73,1.73,0,0,0,.84-.37.91.91,0,0,0,.26-.68.9.9,0,0,0-.34-.76,2.45,2.45,0,0,0-1.12-.39,17.46,17.46,0,0,0-2.2-.11v-1.19a16.09,16.09,0,0,0,2.11-.11,2.31,2.31,0,0,0,1.09-.39.92.92,0,0,0,.34-.77.88.88,0,0,0-.56-.84,5.13,5.13,0,0,0-2-.27,8,8,0,0,0-1.83.17,1.76,1.76,0,0,0-1,.52,1.55,1.55,0,0,0-.29,1h-1.88a2.62,2.62,0,0,1,1.33-2.38,7.35,7.35,0,0,1,3.66-.75,7.23,7.23,0,0,1,3.33.62,2.06,2.06,0,0,1,1.16,1.92,2,2,0,0,1-1.5,1.89Q1409.29,817.43,1409.29,818.78Z"/><path class="cls-1" d="M1420.59,818.78a2.09,2.09,0,0,1-1.18,2,9.59,9.59,0,0,1-7.14-.1,2.65,2.65,0,0,1-1.32-2.39h1.92a1.37,1.37,0,0,0,.34,1,1.89,1.89,0,0,0,1,.51,9.18,9.18,0,0,0,1.76.14,8,8,0,0,0,1.55-.11,1.73,1.73,0,0,0,.84-.37.88.88,0,0,0,.26-.68.9.9,0,0,0-.34-.76,2.45,2.45,0,0,0-1.12-.39,17.34,17.34,0,0,0-2.2-.11v-1.19a16.27,16.27,0,0,0,2.12-.11,2.4,2.4,0,0,0,1.09-.39.94.94,0,0,0,.33-.77.87.87,0,0,0-.56-.84,5.11,5.11,0,0,0-2-.27,7.87,7.87,0,0,0-1.83.17,1.69,1.69,0,0,0-1,.52,1.49,1.49,0,0,0-.3,1H1411a2.63,2.63,0,0,1,1.34-2.38,7.33,7.33,0,0,1,3.65-.75,7.23,7.23,0,0,1,3.33.62,2.06,2.06,0,0,1,1.16,1.92,2,2,0,0,1-1.5,1.89Q1420.59,817.43,1420.59,818.78Z"/><path class="cls-1" d="M1430,815.59a2.81,2.81,0,0,1,1.26,1,2.65,2.65,0,0,1,.45,1.53,2.78,2.78,0,0,1-1.22,2.42,5.88,5.88,0,0,1-3.36.84,7.88,7.88,0,0,1-3.55-.68,2.33,2.33,0,0,1-1.4-2.18h2a1.18,1.18,0,0,0,.8,1,5.29,5.29,0,0,0,2.19.36,3.45,3.45,0,0,0,2-.45,1.47,1.47,0,0,0,.63-1.25,1.39,1.39,0,0,0-.53-1.16,3,3,0,0,0-1.83-.42,5.56,5.56,0,0,0-1.33.16,9.7,9.7,0,0,0-1.62.64l-1.75-.37,1-4.36h7.44v1.5h-6l-.39,1.86a7.14,7.14,0,0,1,1.62-.6,7.33,7.33,0,0,1,1.77-.19A4.86,4.86,0,0,1,1430,815.59Z"/><path class="cls-1" d="M1441.71,816a2.51,2.51,0,0,1,1.08,2.23,2.71,2.71,0,0,1-1.17,2.36,5.94,5.94,0,0,1-3.39.81,8.09,8.09,0,0,1-2.87-.42,3,3,0,0,1-1.59-1.35,5.18,5.18,0,0,1-.54-2.5v-.17a4.19,4.19,0,0,1,1.41-3.47,6.13,6.13,0,0,1,3.78-1,17.29,17.29,0,0,1,1.88.09c.54.05,1.15.13,1.84.23v1.5c-.79-.12-1.41-.2-1.86-.25s-1-.07-1.57-.07a7.76,7.76,0,0,0-1.94.19,2,2,0,0,0-1.13.68,2.55,2.55,0,0,0-.45,1.43,4.78,4.78,0,0,1,1.45-.71,6.78,6.78,0,0,1,2-.28A5.25,5.25,0,0,1,1441.71,816Zm-1.53,3.49a1.38,1.38,0,0,0,.64-1.24,1.36,1.36,0,0,0-.64-1.23,4.31,4.31,0,0,0-2.18-.4c-1.88,0-2.82.54-2.82,1.63a1.38,1.38,0,0,0,.69,1.23,5.8,5.8,0,0,0,4.31,0Z"/><path class="cls-1" d="M1453.76,816.87a4.22,4.22,0,0,1-1.42,3.48,6.18,6.18,0,0,1-3.79,1,17.43,17.43,0,0,1-1.87-.08c-.55-.06-1.16-.14-1.85-.24v-1.5l.49.07c.61.09,1.12.15,1.54.19s.89.06,1.4.06a8.34,8.34,0,0,0,1.94-.18,2,2,0,0,0,1.12-.69,2.44,2.44,0,0,0,.46-1.42,5,5,0,0,1-1.47.7,6.66,6.66,0,0,1-2,.29,5.25,5.25,0,0,1-3-.75,2.53,2.53,0,0,1-1.08-2.23,2.69,2.69,0,0,1,1.17-2.35,5.84,5.84,0,0,1,3.38-.82,8.19,8.19,0,0,1,2.88.42,3,3,0,0,1,1.6,1.35,5.45,5.45,0,0,1,.54,2.5v.17Zm-2-1.29q0-1.65-2.82-1.65a4.25,4.25,0,0,0-2.17.41,1.51,1.51,0,0,0,0,2.47,4.25,4.25,0,0,0,2.17.41C1450.85,817.22,1451.79,816.67,1451.79,815.58Z"/><path class="cls-1" d="M1465.09,818.78a2.1,2.1,0,0,1-1.19,2,7.29,7.29,0,0,1-3.43.64,7.42,7.42,0,0,1-3.71-.74,2.64,2.64,0,0,1-1.31-2.39h1.92a1.33,1.33,0,0,0,.34,1,1.9,1.9,0,0,0,1,.51,9.3,9.3,0,0,0,1.77.14,8.09,8.09,0,0,0,1.55-.11,1.73,1.73,0,0,0,.84-.37.91.91,0,0,0,.26-.68.9.9,0,0,0-.34-.76,2.45,2.45,0,0,0-1.12-.39,17.46,17.46,0,0,0-2.2-.11v-1.19a16.09,16.09,0,0,0,2.11-.11,2.31,2.31,0,0,0,1.09-.39.92.92,0,0,0,.34-.77.88.88,0,0,0-.56-.84,5.13,5.13,0,0,0-2-.27,8,8,0,0,0-1.83.17,1.76,1.76,0,0,0-1,.52,1.55,1.55,0,0,0-.29,1h-1.88a2.62,2.62,0,0,1,1.33-2.38,7.35,7.35,0,0,1,3.66-.75,7.23,7.23,0,0,1,3.33.62A2.06,2.06,0,0,1,1465,815a2,2,0,0,1-1.5,1.89Q1465.09,817.43,1465.09,818.78Z"/><path class="cls-1" d="M1476.27,816.87a4.22,4.22,0,0,1-1.42,3.48,6.18,6.18,0,0,1-3.79,1,17.43,17.43,0,0,1-1.87-.08c-.54-.06-1.16-.14-1.85-.24v-1.5l.49.07c.61.09,1.13.15,1.55.19s.88.06,1.39.06a8.34,8.34,0,0,0,1.94-.18,2,2,0,0,0,1.12-.69,2.44,2.44,0,0,0,.46-1.42,4.79,4.79,0,0,1-1.47.7,6.66,6.66,0,0,1-2,.29,5.21,5.21,0,0,1-3-.75,2.53,2.53,0,0,1-1.08-2.23,2.69,2.69,0,0,1,1.17-2.35,5.8,5.8,0,0,1,3.37-.82,8.16,8.16,0,0,1,2.88.42,3,3,0,0,1,1.6,1.35,5.45,5.45,0,0,1,.54,2.5v.17Zm-2-1.29q0-1.65-2.82-1.65a4.25,4.25,0,0,0-2.17.41,1.51,1.51,0,0,0,0,2.47,4.25,4.25,0,0,0,2.17.41C1473.36,817.22,1474.3,816.67,1474.3,815.58Z"/><path class="cls-1" d="M1477.88,821.14v-1.5h1.8v1.5Z"/><path class="cls-1" d="M1486.53,812.67v6.94h3.07v1.53h-8v-1.53h3.07v-5.23l-2.53.9-.54-1.53,3.09-1.08Z"/><path class="cls-1" d="M1499.5,816a2.51,2.51,0,0,1,1.08,2.23,2.71,2.71,0,0,1-1.17,2.36,5.94,5.94,0,0,1-3.39.81,8.09,8.09,0,0,1-2.87-.42,3,3,0,0,1-1.59-1.35,5.18,5.18,0,0,1-.54-2.5v-.17a4.19,4.19,0,0,1,1.41-3.47,6.17,6.17,0,0,1,3.78-1,17.16,17.16,0,0,1,1.88.09c.54.05,1.16.13,1.84.23v1.5c-.79-.12-1.41-.2-1.86-.25s-1-.07-1.57-.07a7.81,7.81,0,0,0-1.94.19,2,2,0,0,0-1.12.68,2.55,2.55,0,0,0-.45,1.43,4.72,4.72,0,0,1,1.44-.71,6.78,6.78,0,0,1,2-.28A5.25,5.25,0,0,1,1499.5,816Zm-1.53,3.49a1.38,1.38,0,0,0,.64-1.24A1.36,1.36,0,0,0,1498,817a4.31,4.31,0,0,0-2.18-.4c-1.88,0-2.82.54-2.82,1.63a1.38,1.38,0,0,0,.69,1.23,5.8,5.8,0,0,0,4.31,0Z"/><path class="cls-1" d="M1512.13,818.83a2.08,2.08,0,0,1-1.15,1.89,11.56,11.56,0,0,1-7.7,0,2.08,2.08,0,0,1-1.14-1.89c0-1.09.67-1.83,2-2.22a1.92,1.92,0,0,1-1.21-1.8,1.94,1.94,0,0,1,1-1.8,8.93,8.93,0,0,1,6.33,0,1.94,1.94,0,0,1,1,1.8,1.89,1.89,0,0,1-1.22,1.79C1511.45,817,1512.13,817.74,1512.13,818.83Zm-2.68.81a1,1,0,0,0,.67-1,1,1,0,0,0-.67-1,6.23,6.23,0,0,0-2.32-.31,6,6,0,0,0-2.32.31,1,1,0,0,0,0,1.92,8.53,8.53,0,0,0,4.63,0Zm-4.09-5.58a.83.83,0,0,0-.53.81.82.82,0,0,0,.52.8,4.66,4.66,0,0,0,1.78.24,4.72,4.72,0,0,0,1.79-.24.88.88,0,0,0,0-1.61,6.43,6.43,0,0,0-3.55,0Z"/><path class="cls-1" d="M1521.63,818.16h1.85v1.5h-1.85v1.48h-1.85v-1.48h-6v-1.5l6-5.49h1.85Zm-1.85-3.57-3.93,3.57h3.93Z"/><path class="cls-1" d="M1533.5,816a2.51,2.51,0,0,1,1.08,2.23,2.71,2.71,0,0,1-1.17,2.36,5.94,5.94,0,0,1-3.39.81,8.09,8.09,0,0,1-2.87-.42,3,3,0,0,1-1.6-1.35,5.42,5.42,0,0,1-.54-2.5v-.17a4.22,4.22,0,0,1,1.42-3.47,6.13,6.13,0,0,1,3.78-1,17.29,17.29,0,0,1,1.88.09c.54.05,1.15.13,1.84.23v1.5c-.79-.12-1.41-.2-1.87-.25s-1-.07-1.56-.07a7.9,7.9,0,0,0-2,.19,2,2,0,0,0-1.12.68,2.55,2.55,0,0,0-.45,1.43,4.78,4.78,0,0,1,1.45-.71,6.71,6.71,0,0,1,2-.28A5.26,5.26,0,0,1,1533.5,816Zm-1.53,3.49a1.38,1.38,0,0,0,.64-1.24A1.36,1.36,0,0,0,1532,817a4.33,4.33,0,0,0-2.18-.4c-1.88,0-2.82.54-2.82,1.63a1.38,1.38,0,0,0,.69,1.23,5.8,5.8,0,0,0,4.31,0Z"/><path class="cls-1" d="M1535.74,812.67h8.92v1.54a14.22,14.22,0,0,0-2.8,2.06,6.72,6.72,0,0,0-1.54,2.21,7,7,0,0,0-.49,2.66h-1.93a7.45,7.45,0,0,1,1-3.86,8.7,8.7,0,0,1,3.41-3.07h-6.59Z"/><path class="cls-1" d="M1555.29,818.83a2.07,2.07,0,0,1-1.15,1.89,11.53,11.53,0,0,1-7.69,0,2.08,2.08,0,0,1-1.14-1.89q0-1.64,2-2.22a2,2,0,0,1-.18-3.6,8.9,8.9,0,0,1,6.32,0,1.94,1.94,0,0,1,1,1.8,1.89,1.89,0,0,1-1.23,1.79C1554.61,817,1555.29,817.74,1555.29,818.83Zm-2.68.81a1,1,0,0,0,.68-1,1,1,0,0,0-.68-1,6.17,6.17,0,0,0-2.31-.31,6,6,0,0,0-2.32.31,1,1,0,0,0,0,1.92,8.53,8.53,0,0,0,4.63,0Zm-4.09-5.58a.88.88,0,0,0,0,1.61,6.72,6.72,0,0,0,3.56,0,.88.88,0,0,0,0-1.61,4.41,4.41,0,0,0-1.77-.25A4.47,4.47,0,0,0,1548.52,814.06Z"/><path class="cls-1" d="M996.77,776.67v6.87h6.3v1.6h-8.13v-8.47Z"/><path class="cls-1" d="M1016.38,785.14h-2l-1-1.76h-5.85l-1,1.76h-2l4.72-8.47h2.44Zm-6-7-2.09,3.79h4.19Z"/><path class="cls-1" d="M1025.17,776.67v1.61h-4.24v6.86h-1.85v-6.86h-4.23v-1.61Z"/><path class="cls-1" d="M1026.61,776.67h1.83v8.47h-1.83Z"/><path class="cls-1" d="M1040.21,776.67v1.61H1036v6.86h-1.85v-6.86h-4.24v-1.61Z"/><path class="cls-1" d="M1052.3,781a4.08,4.08,0,0,1-1.27,3.28,8,8,0,0,1-8,0,4.09,4.09,0,0,1-1.26-3.29v-4.35h1.83V781a3.68,3.68,0,0,0,.25,1.37,2,2,0,0,0,1,1,4.77,4.77,0,0,0,2.19.41,4.69,4.69,0,0,0,2.18-.41,2,2,0,0,0,1-1,3.49,3.49,0,0,0,.25-1.37v-4.31h1.85Z"/><path class="cls-1" d="M1062.17,777.14a3.55,3.55,0,0,1,1.48,1.42,5.27,5.27,0,0,1,0,4.69,3.57,3.57,0,0,1-1.48,1.43,4.56,4.56,0,0,1-2.07.46H1054v-8.47h6.07A4.57,4.57,0,0,1,1062.17,777.14Zm-3,6.4a5.91,5.91,0,0,0,1.69-.21,1.71,1.71,0,0,0,1-.79,3.14,3.14,0,0,0,.34-1.63,3.22,3.22,0,0,0-.34-1.65,1.73,1.73,0,0,0-1-.78,6,6,0,0,0-1.69-.2h-3.36v5.26Z"/><path class="cls-1" d="M1074.73,776.67v1.54h-7v1.93h6.81v1.54h-6.81v1.93h7v1.53h-8.88v-8.47Z"/><path class="cls-1" d="M1081.34,781.54V780h1.8v1.5Zm0,3.6v-1.5h1.8v1.5Z"/><path class="cls-1" d="M1099.36,782.78a2.09,2.09,0,0,1-1.18,2,9.59,9.59,0,0,1-7.14-.1,2.67,2.67,0,0,1-1.32-2.39h1.93a1.37,1.37,0,0,0,.33,1,1.93,1.93,0,0,0,1,.51,9.26,9.26,0,0,0,1.76.14,8,8,0,0,0,1.55-.11,1.69,1.69,0,0,0,.84-.37.88.88,0,0,0,.27-.68.91.91,0,0,0-.35-.76,2.41,2.41,0,0,0-1.12-.39,17.28,17.28,0,0,0-2.19-.11v-1.19a16.2,16.2,0,0,0,2.11-.11,2.4,2.4,0,0,0,1.09-.39,1,1,0,0,0,.34-.77.87.87,0,0,0-.57-.84,5.11,5.11,0,0,0-2-.27,7.87,7.87,0,0,0-1.83.17,1.76,1.76,0,0,0-1,.52,1.49,1.49,0,0,0-.29,1h-1.89a2.63,2.63,0,0,1,1.34-2.38,7.33,7.33,0,0,1,3.65-.75,7.23,7.23,0,0,1,3.33.62,2,2,0,0,1,1.16,1.92,2,2,0,0,1-1.5,1.89Q1099.36,781.43,1099.36,782.78Z"/><path class="cls-1" d="M1103.1,784.83a3.75,3.75,0,0,1-1.68-1.56,4.9,4.9,0,0,1-.56-2.38,4.78,4.78,0,0,1,.56-2.35,3.75,3.75,0,0,1,1.68-1.56,7.15,7.15,0,0,1,5.5,0,3.86,3.86,0,0,1,1.68,1.56,5.25,5.25,0,0,1,0,4.72,3.93,3.93,0,0,1-1.68,1.57,7.15,7.15,0,0,1-5.5,0Zm5-1.78a3.26,3.26,0,0,0,0-4.3,3.8,3.8,0,0,0-4.53,0,2.75,2.75,0,0,0-.81,2.14,2.81,2.81,0,0,0,.81,2.17,3.78,3.78,0,0,0,4.53,0Z"/><path class="cls-1" d="M1111.52,785.14v-1.5h1.8v1.5Z"/><path class="cls-1" d="M1124.61,782.78a2.09,2.09,0,0,1-1.18,2,9.59,9.59,0,0,1-7.14-.1,2.65,2.65,0,0,1-1.32-2.39h1.92a1.37,1.37,0,0,0,.34,1,1.89,1.89,0,0,0,1,.51,9.11,9.11,0,0,0,1.76.14,8,8,0,0,0,1.55-.11,1.73,1.73,0,0,0,.84-.37.88.88,0,0,0,.26-.68.9.9,0,0,0-.34-.76,2.45,2.45,0,0,0-1.12-.39,17.34,17.34,0,0,0-2.2-.11v-1.19a16.27,16.27,0,0,0,2.12-.11,2.4,2.4,0,0,0,1.09-.39.94.94,0,0,0,.33-.77.88.88,0,0,0-.56-.84,5.11,5.11,0,0,0-2-.27,7.87,7.87,0,0,0-1.83.17,1.69,1.69,0,0,0-1,.52,1.49,1.49,0,0,0-.3,1H1115a2.63,2.63,0,0,1,1.34-2.38,7.33,7.33,0,0,1,3.65-.75,7.23,7.23,0,0,1,3.33.62,2.06,2.06,0,0,1,1.16,1.92,2,2,0,0,1-1.5,1.89Q1124.61,781.43,1124.61,782.78Z"/><path class="cls-1" d="M1135,780.6a4,4,0,0,1-1.45.91c-.57.21-1.31.44-2.24.68a16.56,16.56,0,0,0-2,.62,1.34,1.34,0,0,0-.84.8h7.13v1.53h-9.41v-1a2.25,2.25,0,0,1,.68-1.56,4.37,4.37,0,0,1,1.49-1c.57-.22,1.32-.46,2.26-.72.71-.2,1.27-.37,1.66-.51a3.3,3.3,0,0,0,1-.53,1,1,0,0,0,.4-.81,1,1,0,0,0-.52-.87,4.13,4.13,0,0,0-1.89-.31,4.21,4.21,0,0,0-2.14.43,1.45,1.45,0,0,0-.68,1.33h-2a2.74,2.74,0,0,1,1.34-2.46,8.47,8.47,0,0,1,6.69-.14,2.3,2.3,0,0,1,.51,3.55Z"/><path class="cls-1" d="M1139.4,784.83a3.75,3.75,0,0,1-1.68-1.56,4.9,4.9,0,0,1-.56-2.38,4.78,4.78,0,0,1,.56-2.35,3.75,3.75,0,0,1,1.68-1.56,7.15,7.15,0,0,1,5.5,0,3.75,3.75,0,0,1,1.68,1.56,5.17,5.17,0,0,1,0,4.72,3.83,3.83,0,0,1-1.68,1.57,7.15,7.15,0,0,1-5.5,0Zm5-1.78a3.26,3.26,0,0,0,0-4.3,3.8,3.8,0,0,0-4.53,0,2.75,2.75,0,0,0-.81,2.14,2.81,2.81,0,0,0,.81,2.17,3.78,3.78,0,0,0,4.53,0Z"/><path class="cls-1" d="M1148,776.67h8.92v1.54a14.22,14.22,0,0,0-2.8,2.06,6.72,6.72,0,0,0-1.54,2.21,7,7,0,0,0-.49,2.66h-1.93a7.45,7.45,0,0,1,1-3.86,8.7,8.7,0,0,1,3.41-3.07H1148Z"/><path class="cls-1" d="M1166.8,780.6a4.06,4.06,0,0,1-1.46.91c-.56.21-1.31.44-2.23.68a16.83,16.83,0,0,0-2,.62,1.32,1.32,0,0,0-.83.8h7.13v1.53H1158v-1a2.25,2.25,0,0,1,.68-1.56,4.27,4.27,0,0,1,1.49-1c.57-.22,1.32-.46,2.26-.72.71-.2,1.26-.37,1.66-.51a3.3,3.3,0,0,0,1-.53,1,1,0,0,0,.4-.81.94.94,0,0,0-.53-.87,4.07,4.07,0,0,0-1.89-.31,4.17,4.17,0,0,0-2.13.43,1.46,1.46,0,0,0-.69,1.33h-2a2.74,2.74,0,0,1,1.34-2.46,8.47,8.47,0,0,1,6.69-.14,2.32,2.32,0,0,1,.51,3.55Z"/><path class="cls-1" d="M1171.19,784.83a3.75,3.75,0,0,1-1.68-1.56,4.9,4.9,0,0,1-.56-2.38,4.78,4.78,0,0,1,.56-2.35,3.75,3.75,0,0,1,1.68-1.56,7.15,7.15,0,0,1,5.5,0,3.86,3.86,0,0,1,1.68,1.56,5.25,5.25,0,0,1,0,4.72,3.93,3.93,0,0,1-1.68,1.57,7.15,7.15,0,0,1-5.5,0Zm5-1.78a3.29,3.29,0,0,0,0-4.3,3.81,3.81,0,0,0-4.54,0,2.78,2.78,0,0,0-.8,2.14,2.84,2.84,0,0,0,.8,2.17,3.22,3.22,0,0,0,2.27.75A3.16,3.16,0,0,0,1176.21,783.05Z"/><path class="cls-1" d="M1182.38,784.83a3.86,3.86,0,0,1-1.68-1.56,4.89,4.89,0,0,1-.55-2.38,4.77,4.77,0,0,1,.55-2.35,3.86,3.86,0,0,1,1.68-1.56,7.18,7.18,0,0,1,5.51,0,3.86,3.86,0,0,1,1.68,1.56,5.25,5.25,0,0,1,0,4.72,3.93,3.93,0,0,1-1.68,1.57,7.18,7.18,0,0,1-5.51,0Zm5-1.78a3.29,3.29,0,0,0,0-4.3,3.81,3.81,0,0,0-4.54,0,2.75,2.75,0,0,0-.8,2.14,2.8,2.8,0,0,0,.8,2.17,3.79,3.79,0,0,0,4.54,0Z"/><path class="cls-1" d="M1192.73,781.39a2.93,2.93,0,0,1-.78-2.07,3.25,3.25,0,0,1,.32-1.42,2.41,2.41,0,0,1,1.06-1.06,4,4,0,0,1,1.91-.41,3.3,3.3,0,0,1,2.52.84,3.11,3.11,0,0,1,0,4.12,4.19,4.19,0,0,1-5,0Zm3.73-.92a1.55,1.55,0,0,0,.43-1.15,1.52,1.52,0,0,0-.42-1.14,1.7,1.7,0,0,0-1.23-.4,1.67,1.67,0,0,0-1.21.4,1.52,1.52,0,0,0-.42,1.14,1.55,1.55,0,0,0,.42,1.15,1.63,1.63,0,0,0,1.21.41A1.65,1.65,0,0,0,1196.46,780.47Z"/><path class="cls-1" d="M996.77,794.67v6.87h6.3v1.6h-8.13v-8.47Z"/><path class="cls-1" d="M1005.37,802.2a4.13,4.13,0,0,1-1.4-3.31,4.09,4.09,0,0,1,1.4-3.28,7.64,7.64,0,0,1,8.16,0,4.11,4.11,0,0,1,1.39,3.28,4.6,4.6,0,0,1-.61,2.4,4,4,0,0,1-1.85,1.55,7.47,7.47,0,0,1-3,.54A6.11,6.11,0,0,1,1005.37,802.2Zm7.58-3.31q0-2.85-3.5-2.85a4.18,4.18,0,0,0-2.64.7,2.58,2.58,0,0,0-.88,2.15c0,1.92,1.17,2.89,3.52,2.89S1013,800.81,1013,798.89Z"/><path class="cls-1" d="M1025.32,801.44v-6.77h1.85v8.47h-2.68l-6.2-6.76v6.76h-1.84v-8.47h2.68Z"/><path class="cls-1" d="M1029.35,796.51a4.16,4.16,0,0,1,1.87-1.55,8.23,8.23,0,0,1,5.53-.1,4.12,4.12,0,0,1,1.74,1.17,3.2,3.2,0,0,1,.74,1.68h-2a1.83,1.83,0,0,0-1-1.22,4.39,4.39,0,0,0-2.16-.45,4.13,4.13,0,0,0-2.13.46,2.49,2.49,0,0,0-1,1.12,3.44,3.44,0,0,0-.28,1.32,3.18,3.18,0,0,0,.3,1.33,2.47,2.47,0,0,0,1.11,1.11,4.52,4.52,0,0,0,2.24.47,8.18,8.18,0,0,0,1.7-.15,7.4,7.4,0,0,0,1.48-.47v-1.18H1034v-1.39h5.2v3.43a11.33,11.33,0,0,1-2.47,1,9.8,9.8,0,0,1-2.5.29,7.49,7.49,0,0,1-3-.53,4.25,4.25,0,0,1-1.92-1.55,4.19,4.19,0,0,1-.67-2.39A4.35,4.35,0,0,1,1029.35,796.51Z"/><path class="cls-1" d="M1040.87,794.67h1.84v8.47h-1.84Z"/><path class="cls-1" d="M1054.48,794.67v1.61h-4.23v6.86h-1.85v-6.86h-4.24v-1.61Z"/><path class="cls-1" d="M1066.57,799a4.06,4.06,0,0,1-1.28,3.28,8,8,0,0,1-8,0A4.09,4.09,0,0,1,1056,799v-4.35h1.83V799a3.49,3.49,0,0,0,.25,1.37,2,2,0,0,0,1,1,6,6,0,0,0,4.37,0,2,2,0,0,0,1-1,3.49,3.49,0,0,0,.25-1.37v-4.31h1.85Z"/><path class="cls-1" d="M1076.44,795.14a3.6,3.6,0,0,1,1.48,1.42,5.27,5.27,0,0,1,0,4.69,3.63,3.63,0,0,1-1.48,1.43,4.56,4.56,0,0,1-2.07.46h-6.08v-8.47h6.08A4.57,4.57,0,0,1,1076.44,795.14Zm-3,6.4a5.91,5.91,0,0,0,1.69-.21,1.74,1.74,0,0,0,1-.79,3.14,3.14,0,0,0,.34-1.63,3.22,3.22,0,0,0-.34-1.65,1.77,1.77,0,0,0-1-.78,6,6,0,0,0-1.69-.2h-3.36v5.26Z"/><path class="cls-1" d="M1089,794.67v1.54h-7v1.93h6.8v1.54H1082v1.93h7v1.53h-8.88v-8.47Z"/><path class="cls-1" d="M1095.61,799.54V798h1.8v1.5Zm0,3.6v-1.5h1.8v1.5Z"/><path class="cls-1" d="M1113.63,800.78a2.09,2.09,0,0,1-1.18,2,9.59,9.59,0,0,1-7.14-.1,2.65,2.65,0,0,1-1.32-2.39h1.92a1.37,1.37,0,0,0,.34,1,1.89,1.89,0,0,0,1,.51,9.18,9.18,0,0,0,1.76.14,8,8,0,0,0,1.55-.11,1.73,1.73,0,0,0,.84-.37.88.88,0,0,0,.26-.68.9.9,0,0,0-.34-.76,2.45,2.45,0,0,0-1.12-.39,17.34,17.34,0,0,0-2.2-.11v-1.19a16.27,16.27,0,0,0,2.12-.11,2.4,2.4,0,0,0,1.09-.39.94.94,0,0,0,.33-.77.87.87,0,0,0-.56-.84,5.11,5.11,0,0,0-2-.27,7.87,7.87,0,0,0-1.83.17,1.69,1.69,0,0,0-1,.52,1.49,1.49,0,0,0-.3,1H1104a2.63,2.63,0,0,1,1.34-2.38,7.33,7.33,0,0,1,3.65-.75,7.23,7.23,0,0,1,3.33.62,2.06,2.06,0,0,1,1.16,1.92,2,2,0,0,1-1.5,1.89Q1113.63,799.43,1113.63,800.78Z"/><path class="cls-1" d="M1123,797.59a2.81,2.81,0,0,1,1.26,1,2.65,2.65,0,0,1,.45,1.53,2.78,2.78,0,0,1-1.22,2.42,5.88,5.88,0,0,1-3.36.84,7.88,7.88,0,0,1-3.55-.68,2.33,2.33,0,0,1-1.4-2.18h2a1.18,1.18,0,0,0,.8,1,5.29,5.29,0,0,0,2.19.36,3.45,3.45,0,0,0,2-.45,1.47,1.47,0,0,0,.63-1.25,1.39,1.39,0,0,0-.53-1.16,3,3,0,0,0-1.83-.42,5.56,5.56,0,0,0-1.33.16,9.7,9.7,0,0,0-1.62.64l-1.75-.37,1-4.36h7.44v1.5h-6l-.39,1.86a7.14,7.14,0,0,1,1.62-.6,7.33,7.33,0,0,1,1.77-.19A4.86,4.86,0,0,1,1123,797.59Z"/><path class="cls-1" d="M1126.47,803.14v-1.5h1.8v1.5Z"/><path class="cls-1" d="M1137.94,800.16h1.85v1.5h-1.85v1.48h-1.85v-1.48h-6v-1.5l6-5.49h1.85Zm-1.85-3.57-3.93,3.57h3.93Z"/><path class="cls-1" d="M1151.38,800.83a2.08,2.08,0,0,1-1.14,1.89,11.56,11.56,0,0,1-7.7,0,2.08,2.08,0,0,1-1.14-1.89q0-1.64,2-2.22a2,2,0,0,1-.18-3.6,8.9,8.9,0,0,1,6.32,0,1.93,1.93,0,0,1,1,1.8,1.89,1.89,0,0,1-1.23,1.79C1150.71,799,1151.38,799.74,1151.38,800.83Zm-2.67.81a1,1,0,0,0,.67-1,1,1,0,0,0-.67-1,6.23,6.23,0,0,0-2.32-.31,6,6,0,0,0-2.32.31,1,1,0,0,0-.67,1,1,1,0,0,0,.67,1,8.57,8.57,0,0,0,4.64,0Zm-4.1-5.58a.88.88,0,0,0,0,1.61,6.72,6.72,0,0,0,3.56,0,.88.88,0,0,0,0-1.61,6.46,6.46,0,0,0-3.56,0Z"/><path class="cls-1" d="M1162.55,800.78a2.09,2.09,0,0,1-1.18,2,9.59,9.59,0,0,1-7.14-.1,2.64,2.64,0,0,1-1.31-2.39h1.92a1.37,1.37,0,0,0,.33,1,1.93,1.93,0,0,0,1,.51,9.3,9.3,0,0,0,1.77.14,8,8,0,0,0,1.54-.11,1.65,1.65,0,0,0,.84-.37.88.88,0,0,0,.27-.68.93.93,0,0,0-.34-.76,2.5,2.5,0,0,0-1.13-.39,17.28,17.28,0,0,0-2.19-.11v-1.19a16.09,16.09,0,0,0,2.11-.11,2.35,2.35,0,0,0,1.09-.39.92.92,0,0,0,.34-.77.87.87,0,0,0-.57-.84,5.07,5.07,0,0,0-2-.27,8,8,0,0,0-1.83.17,1.76,1.76,0,0,0-1,.52,1.55,1.55,0,0,0-.29,1H1153a2.65,2.65,0,0,1,1.34-2.38,9.28,9.28,0,0,1,7-.13,2,2,0,0,1,1.15,1.92,2,2,0,0,1-1.5,1.89Q1162.55,799.43,1162.55,800.78Z"/><path class="cls-1" d="M1173.74,798.87a4.22,4.22,0,0,1-1.42,3.48,6.18,6.18,0,0,1-3.79,1,17.43,17.43,0,0,1-1.87-.08c-.55-.06-1.16-.14-1.85-.24v-1.5l.49.07c.61.09,1.12.15,1.54.19s.89.06,1.4.06a8.34,8.34,0,0,0,1.94-.18,2,2,0,0,0,1.12-.69,2.44,2.44,0,0,0,.46-1.42,5,5,0,0,1-1.47.7,6.68,6.68,0,0,1-2,.29,5.23,5.23,0,0,1-3-.75,2.53,2.53,0,0,1-1.08-2.23,2.69,2.69,0,0,1,1.17-2.35,5.84,5.84,0,0,1,3.38-.82,8.09,8.09,0,0,1,2.87.42,3,3,0,0,1,1.61,1.35,5.45,5.45,0,0,1,.54,2.5v.17Zm-2-1.29q0-1.65-2.82-1.65a4.25,4.25,0,0,0-2.17.41,1.51,1.51,0,0,0,0,2.47,4.25,4.25,0,0,0,2.17.41C1170.83,799.22,1171.77,798.67,1171.77,797.58Z"/><path class="cls-1" d="M1184.09,798.6a4,4,0,0,1-1.45.91c-.57.21-1.31.44-2.24.68a16.56,16.56,0,0,0-2,.62,1.34,1.34,0,0,0-.84.8h7.13v1.53h-9.41v-1a2.25,2.25,0,0,1,.68-1.56,4.37,4.37,0,0,1,1.49-1c.57-.22,1.32-.46,2.26-.72.71-.2,1.27-.37,1.66-.51a3.3,3.3,0,0,0,1-.53,1,1,0,0,0,.4-.81,1,1,0,0,0-.52-.87,4.13,4.13,0,0,0-1.89-.31,4.21,4.21,0,0,0-2.14.43,1.45,1.45,0,0,0-.68,1.33h-2a2.74,2.74,0,0,1,1.34-2.46,8.47,8.47,0,0,1,6.69-.14,2.3,2.3,0,0,1,.51,3.55Z"/><path class="cls-1" d="M1188.48,802.83a3.75,3.75,0,0,1-1.68-1.56,4.9,4.9,0,0,1-.56-2.38,4.78,4.78,0,0,1,.56-2.35,3.75,3.75,0,0,1,1.68-1.56,7.15,7.15,0,0,1,5.5,0,3.75,3.75,0,0,1,1.68,1.56,5.17,5.17,0,0,1,0,4.72,3.83,3.83,0,0,1-1.68,1.57,7.15,7.15,0,0,1-5.5,0Zm5-1.78a3.26,3.26,0,0,0,0-4.3,3.8,3.8,0,0,0-4.53,0,2.75,2.75,0,0,0-.81,2.14,2.81,2.81,0,0,0,.81,2.17,3.78,3.78,0,0,0,4.53,0Z"/><path class="cls-1" d="M1199.68,802.83a3.75,3.75,0,0,1-1.68-1.56,4.79,4.79,0,0,1-.56-2.38,4.67,4.67,0,0,1,.56-2.35,3.75,3.75,0,0,1,1.68-1.56,7.15,7.15,0,0,1,5.5,0,3.86,3.86,0,0,1,1.68,1.56,5.25,5.25,0,0,1,0,4.72,3.93,3.93,0,0,1-1.68,1.57,7.15,7.15,0,0,1-5.5,0Zm5-1.78a3.29,3.29,0,0,0,0-4.3,3.81,3.81,0,0,0-4.54,0,2.78,2.78,0,0,0-.8,2.14,2.84,2.84,0,0,0,.8,2.17,3.2,3.2,0,0,0,2.27.75A3.16,3.16,0,0,0,1204.7,801.05Z"/><path class="cls-1" d="M1210,799.39a2.93,2.93,0,0,1-.78-2.07,3.24,3.24,0,0,1,.31-1.42,2.46,2.46,0,0,1,1.06-1.06,4,4,0,0,1,1.91-.41,3.3,3.3,0,0,1,2.52.84,3.11,3.11,0,0,1,0,4.12,3.3,3.3,0,0,1-2.52.84A3.27,3.27,0,0,1,1210,799.39Zm3.72-.92a1.75,1.75,0,0,0,0-2.29,1.7,1.7,0,0,0-1.23-.4,1.68,1.68,0,0,0-1.21.4,1.52,1.52,0,0,0-.42,1.14,1.55,1.55,0,0,0,.42,1.15,2,2,0,0,0,2.43,0Z"/><path class="cls-1" d="M996.77,830.67v6.87h6.3v1.6h-8.13v-8.47Z"/><path class="cls-1" d="M1016.38,839.14h-2l-1-1.76h-5.85l-1,1.76h-2l4.72-8.47h2.44Zm-6-7-2.09,3.79h4.19Z"/><path class="cls-1" d="M1025.17,830.67v1.61h-4.24v6.86h-1.85v-6.86h-4.23v-1.61Z"/><path class="cls-1" d="M1026.61,830.67h1.83v8.47h-1.83Z"/><path class="cls-1" d="M1040.21,830.67v1.61H1036v6.86h-1.85v-6.86h-4.24v-1.61Z"/><path class="cls-1" d="M1052.3,835a4.08,4.08,0,0,1-1.27,3.28,8,8,0,0,1-8,0,4.09,4.09,0,0,1-1.26-3.29v-4.35h1.83V835a3.68,3.68,0,0,0,.25,1.37,2,2,0,0,0,1,1,4.77,4.77,0,0,0,2.19.41,4.69,4.69,0,0,0,2.18-.41,2,2,0,0,0,1-1,3.49,3.49,0,0,0,.25-1.37v-4.31h1.85Z"/><path class="cls-1" d="M1062.17,831.14a3.55,3.55,0,0,1,1.48,1.42,5.27,5.27,0,0,1,0,4.69,3.57,3.57,0,0,1-1.48,1.43,4.56,4.56,0,0,1-2.07.46H1054v-8.47h6.07A4.57,4.57,0,0,1,1062.17,831.14Zm-3,6.4a5.91,5.91,0,0,0,1.69-.21,1.71,1.71,0,0,0,1-.79,3.14,3.14,0,0,0,.34-1.63,3.22,3.22,0,0,0-.34-1.65,1.73,1.73,0,0,0-1-.78,6,6,0,0,0-1.69-.2h-3.36v5.26Z"/><path class="cls-1" d="M1074.73,830.67v1.54h-7v1.93h6.81v1.54h-6.81v1.93h7v1.53h-8.88v-8.47Z"/><path class="cls-1" d="M1081.34,835.54V834h1.8v1.5Zm0,3.6v-1.5h1.8v1.5Z"/><path class="cls-1" d="M1099.36,836.78a2.09,2.09,0,0,1-1.18,2,9.59,9.59,0,0,1-7.14-.1,2.67,2.67,0,0,1-1.32-2.39h1.93a1.37,1.37,0,0,0,.33,1,1.93,1.93,0,0,0,1,.51,9.26,9.26,0,0,0,1.76.14,8,8,0,0,0,1.55-.11,1.69,1.69,0,0,0,.84-.37.88.88,0,0,0,.27-.68.91.91,0,0,0-.35-.76,2.41,2.41,0,0,0-1.12-.39,17.28,17.28,0,0,0-2.19-.11v-1.19a16.2,16.2,0,0,0,2.11-.11,2.4,2.4,0,0,0,1.09-.39,1,1,0,0,0,.34-.77.87.87,0,0,0-.57-.84,5.11,5.11,0,0,0-2-.27,7.87,7.87,0,0,0-1.83.17,1.76,1.76,0,0,0-1,.52,1.49,1.49,0,0,0-.29,1h-1.89a2.63,2.63,0,0,1,1.34-2.38,7.33,7.33,0,0,1,3.65-.75,7.23,7.23,0,0,1,3.33.62,2,2,0,0,1,1.16,1.92,2,2,0,0,1-1.5,1.89Q1099.36,835.43,1099.36,836.78Z"/><path class="cls-1" d="M1103.1,838.83a3.75,3.75,0,0,1-1.68-1.56,4.9,4.9,0,0,1-.56-2.38,4.78,4.78,0,0,1,.56-2.35,3.75,3.75,0,0,1,1.68-1.56,7.15,7.15,0,0,1,5.5,0,3.86,3.86,0,0,1,1.68,1.56,5.25,5.25,0,0,1,0,4.72,3.93,3.93,0,0,1-1.68,1.57,7.15,7.15,0,0,1-5.5,0Zm5-1.78a3.26,3.26,0,0,0,0-4.3,3.8,3.8,0,0,0-4.53,0,2.75,2.75,0,0,0-.81,2.14,2.81,2.81,0,0,0,.81,2.17,3.78,3.78,0,0,0,4.53,0Z"/><path class="cls-1" d="M1113.45,835.39a2.93,2.93,0,0,1-.78-2.07,3.25,3.25,0,0,1,.32-1.42,2.39,2.39,0,0,1,1-1.06,4,4,0,0,1,1.92-.41,3.3,3.3,0,0,1,2.52.84,3.11,3.11,0,0,1,0,4.12,4.19,4.19,0,0,1-5,0Zm3.73-.92a1.55,1.55,0,0,0,.42-1.15,1.52,1.52,0,0,0-.42-1.14,1.69,1.69,0,0,0-1.22-.4,1.67,1.67,0,0,0-1.21.4,1.52,1.52,0,0,0-.42,1.14,1.55,1.55,0,0,0,.42,1.15,1.63,1.63,0,0,0,1.21.41A1.67,1.67,0,0,0,1117.18,834.47Z"/><path class="cls-1" d="M1126.11,830.67v6.94h3.07v1.53h-8v-1.53h3.07v-5.23l-2.53.9-.54-1.53,3.09-1.08Z"/><path class="cls-1" d="M1139.87,834.87a4.19,4.19,0,0,1-1.42,3.48,6.17,6.17,0,0,1-3.78,1,17.63,17.63,0,0,1-1.88-.08c-.54-.06-1.16-.14-1.85-.24v-1.5l.5.07c.61.09,1.12.15,1.54.19s.88.06,1.4.06a8.3,8.3,0,0,0,1.93-.18,2,2,0,0,0,1.13-.69,2.52,2.52,0,0,0,.45-1.42,4.79,4.79,0,0,1-1.47.7,6.61,6.61,0,0,1-2,.29,5.21,5.21,0,0,1-3-.75,2.53,2.53,0,0,1-1.08-2.23,2.69,2.69,0,0,1,1.17-2.35,5.84,5.84,0,0,1,3.38-.82,8.09,8.09,0,0,1,2.87.42,3,3,0,0,1,1.6,1.35,5.21,5.21,0,0,1,.54,2.5v.17Zm-2-1.29c0-1.1-.93-1.65-2.81-1.65a4.29,4.29,0,0,0-2.18.41,1.53,1.53,0,0,0,0,2.47,4.29,4.29,0,0,0,2.18.41C1137,835.22,1137.9,834.67,1137.9,833.58Z"/><path class="cls-1" d="M1141.48,839.14v-1.5h1.8v1.5Z"/><path class="cls-1" d="M1154,834.6a4.06,4.06,0,0,1-1.46.91,22.57,22.57,0,0,1-2.23.68,16.56,16.56,0,0,0-2,.62,1.34,1.34,0,0,0-.84.8h7.13v1.53h-9.41v-1a2.25,2.25,0,0,1,.68-1.56,4.37,4.37,0,0,1,1.49-1c.57-.22,1.32-.46,2.26-.72.71-.2,1.27-.37,1.66-.51a3.3,3.3,0,0,0,1-.53,1,1,0,0,0,.4-.81.94.94,0,0,0-.53-.87,4,4,0,0,0-1.88-.31,4.21,4.21,0,0,0-2.14.43,1.45,1.45,0,0,0-.68,1.33h-2a2.74,2.74,0,0,1,1.34-2.46,8.47,8.47,0,0,1,6.69-.14,2.3,2.3,0,0,1,.51,3.55Z"/><path class="cls-1" d="M1163.9,836.16h1.85v1.5h-1.85v1.48h-1.85v-1.48h-6v-1.5l6-5.49h1.85Zm-1.85-3.57-3.94,3.57h3.94Z"/><path class="cls-1" d="M1176.92,836.78a2.1,2.1,0,0,1-1.19,2,7.29,7.29,0,0,1-3.43.64,7.42,7.42,0,0,1-3.71-.74,2.64,2.64,0,0,1-1.31-2.39h1.92a1.33,1.33,0,0,0,.34,1,1.89,1.89,0,0,0,1,.51,9.11,9.11,0,0,0,1.76.14,8.09,8.09,0,0,0,1.55-.11,1.73,1.73,0,0,0,.84-.37.91.91,0,0,0,.26-.68.9.9,0,0,0-.34-.76,2.45,2.45,0,0,0-1.12-.39,17.46,17.46,0,0,0-2.2-.11v-1.19a16,16,0,0,0,2.11-.11,2.4,2.4,0,0,0,1.1-.39.94.94,0,0,0,.33-.77.88.88,0,0,0-.56-.84,5.11,5.11,0,0,0-2-.27,7.87,7.87,0,0,0-1.83.17,1.69,1.69,0,0,0-1,.52,1.49,1.49,0,0,0-.3,1h-1.88a2.64,2.64,0,0,1,1.33-2.38,7.35,7.35,0,0,1,3.66-.75,7.23,7.23,0,0,1,3.33.62,2.06,2.06,0,0,1,1.16,1.92,2,2,0,0,1-1.5,1.89Q1176.92,835.43,1176.92,836.78Z"/><path class="cls-1" d="M1187.32,834.6a4.06,4.06,0,0,1-1.46.91c-.56.21-1.31.44-2.23.68a16.83,16.83,0,0,0-2,.62,1.32,1.32,0,0,0-.83.8h7.13v1.53h-9.41v-1a2.25,2.25,0,0,1,.68-1.56,4.27,4.27,0,0,1,1.49-1c.57-.22,1.32-.46,2.26-.72.71-.2,1.26-.37,1.66-.51a3.3,3.3,0,0,0,1-.53,1,1,0,0,0,.4-.81.94.94,0,0,0-.53-.87,4.07,4.07,0,0,0-1.89-.31,4.17,4.17,0,0,0-2.13.43,1.46,1.46,0,0,0-.69,1.33h-2a2.74,2.74,0,0,1,1.34-2.46,8.47,8.47,0,0,1,6.69-.14,2.32,2.32,0,0,1,.51,3.55Z"/><path class="cls-1" d="M1190.44,830h1.85l-.76,4.06H1190Z"/><path class="cls-1" d="M1207.94,837.44v-6.77h1.85v8.47h-2.68l-6.21-6.76v6.76h-1.83v-8.47h2.68Z"/><path class="cls-1" d="M1212.71,838.2a4.13,4.13,0,0,1-1.39-3.31,4.08,4.08,0,0,1,1.39-3.28,7.64,7.64,0,0,1,8.16,0,4.08,4.08,0,0,1,1.39,3.28,4.51,4.51,0,0,1-.61,2.4,4,4,0,0,1-1.84,1.55,7.52,7.52,0,0,1-3,.54A6.15,6.15,0,0,1,1212.71,838.2Zm7.59-3.31q0-2.85-3.51-2.85a4.17,4.17,0,0,0-2.63.7,2.58,2.58,0,0,0-.88,2.15c0,1.92,1.17,2.89,3.51,2.89S1220.3,836.81,1220.3,834.89Z"/><path class="cls-1" d="M1233.09,836a1.6,1.6,0,0,1,.35,1.07v2.06h-1.85v-1.65a1.76,1.76,0,0,0-.09-.65.56.56,0,0,0-.33-.31,2.15,2.15,0,0,0-.71-.09h-4.82v2.7h-1.84v-8.47h6.39a4.07,4.07,0,0,1,2.46.64,2.25,2.25,0,0,1,.87,2,2.2,2.2,0,0,1-1.4,2.25A1.47,1.47,0,0,1,1233.09,836Zm-7.45-3.77v2.62h4.08a4.87,4.87,0,0,0,.94-.07,1.15,1.15,0,0,0,.63-.34,1.27,1.27,0,0,0,.26-.9,1.25,1.25,0,0,0-.26-.89,1.11,1.11,0,0,0-.63-.35,5.83,5.83,0,0,0-.94-.07Z"/><path class="cls-1" d="M1243.43,831.14a3.55,3.55,0,0,1,1.48,1.42,5.27,5.27,0,0,1,0,4.69,3.57,3.57,0,0,1-1.48,1.43,4.56,4.56,0,0,1-2.07.46h-6.08v-8.47h6.08A4.57,4.57,0,0,1,1243.43,831.14Zm-3,6.4a5.91,5.91,0,0,0,1.69-.21,1.74,1.74,0,0,0,1-.79,3.14,3.14,0,0,0,.34-1.63,3.22,3.22,0,0,0-.34-1.65,1.77,1.77,0,0,0-1-.78,6,6,0,0,0-1.69-.2h-3.36v5.26Z"/><path class="cls-1" d="M996.77,848.67v6.87h6.3v1.6h-8.13v-8.47Z"/><path class="cls-1" d="M1005.37,856.2a4.13,4.13,0,0,1-1.4-3.31,4.09,4.09,0,0,1,1.4-3.28,7.64,7.64,0,0,1,8.16,0,4.11,4.11,0,0,1,1.39,3.28,4.6,4.6,0,0,1-.61,2.4,4,4,0,0,1-1.85,1.55,7.47,7.47,0,0,1-3,.54A6.11,6.11,0,0,1,1005.37,856.2Zm7.58-3.31q0-2.85-3.5-2.85a4.18,4.18,0,0,0-2.64.7,2.58,2.58,0,0,0-.88,2.15c0,1.92,1.17,2.89,3.52,2.89S1013,854.81,1013,852.89Z"/><path class="cls-1" d="M1025.32,855.44v-6.77h1.85v8.47h-2.68l-6.2-6.76v6.76h-1.84v-8.47h2.68Z"/><path class="cls-1" d="M1029.35,850.51a4.16,4.16,0,0,1,1.87-1.55,8.23,8.23,0,0,1,5.53-.1,4.12,4.12,0,0,1,1.74,1.17,3.2,3.2,0,0,1,.74,1.68h-2a1.83,1.83,0,0,0-1-1.22,4.39,4.39,0,0,0-2.16-.45,4.13,4.13,0,0,0-2.13.46,2.49,2.49,0,0,0-1,1.12,3.44,3.44,0,0,0-.28,1.32,3.18,3.18,0,0,0,.3,1.33,2.47,2.47,0,0,0,1.11,1.11,4.52,4.52,0,0,0,2.24.47,8.18,8.18,0,0,0,1.7-.15,7.4,7.4,0,0,0,1.48-.47v-1.18H1034v-1.39h5.2v3.43a11.33,11.33,0,0,1-2.47,1,9.8,9.8,0,0,1-2.5.29,7.49,7.49,0,0,1-3-.53,4.25,4.25,0,0,1-1.92-1.55,4.19,4.19,0,0,1-.67-2.39A4.35,4.35,0,0,1,1029.35,850.51Z"/><path class="cls-1" d="M1040.87,848.67h1.84v8.47h-1.84Z"/><path class="cls-1" d="M1054.48,848.67v1.61h-4.23v6.86h-1.85v-6.86h-4.24v-1.61Z"/><path class="cls-1" d="M1066.57,853a4.06,4.06,0,0,1-1.28,3.28,8,8,0,0,1-8,0A4.09,4.09,0,0,1,1056,853v-4.35h1.83V853a3.49,3.49,0,0,0,.25,1.37,2,2,0,0,0,1,1,6,6,0,0,0,4.37,0,2,2,0,0,0,1-1,3.49,3.49,0,0,0,.25-1.37v-4.31h1.85Z"/><path class="cls-1" d="M1076.44,849.14a3.6,3.6,0,0,1,1.48,1.42,5.27,5.27,0,0,1,0,4.69,3.63,3.63,0,0,1-1.48,1.43,4.56,4.56,0,0,1-2.07.46h-6.08v-8.47h6.08A4.57,4.57,0,0,1,1076.44,849.14Zm-3,6.4a5.91,5.91,0,0,0,1.69-.21,1.74,1.74,0,0,0,1-.79,3.14,3.14,0,0,0,.34-1.63,3.22,3.22,0,0,0-.34-1.65,1.77,1.77,0,0,0-1-.78,6,6,0,0,0-1.69-.2h-3.36v5.26Z"/><path class="cls-1" d="M1089,848.67v1.54h-7v1.93h6.8v1.54H1082v1.93h7v1.53h-8.88v-8.47Z"/><path class="cls-1" d="M1095.61,853.54V852h1.8v1.5Zm0,3.6v-1.5h1.8v1.5Z"/><path class="cls-1" d="M1113.63,854.78a2.09,2.09,0,0,1-1.18,2,9.59,9.59,0,0,1-7.14-.1,2.65,2.65,0,0,1-1.32-2.39h1.92a1.37,1.37,0,0,0,.34,1,1.89,1.89,0,0,0,1,.51,9.18,9.18,0,0,0,1.76.14,8,8,0,0,0,1.55-.11,1.73,1.73,0,0,0,.84-.37.88.88,0,0,0,.26-.68.9.9,0,0,0-.34-.76,2.45,2.45,0,0,0-1.12-.39,17.34,17.34,0,0,0-2.2-.11v-1.19a16.27,16.27,0,0,0,2.12-.11,2.4,2.4,0,0,0,1.09-.39.94.94,0,0,0,.33-.77.87.87,0,0,0-.56-.84,5.11,5.11,0,0,0-2-.27,7.87,7.87,0,0,0-1.83.17,1.69,1.69,0,0,0-1,.52,1.49,1.49,0,0,0-.3,1H1104a2.63,2.63,0,0,1,1.34-2.38,7.33,7.33,0,0,1,3.65-.75,7.23,7.23,0,0,1,3.33.62,2.06,2.06,0,0,1,1.16,1.92,2,2,0,0,1-1.5,1.89Q1113.63,853.43,1113.63,854.78Z"/><path class="cls-1" d="M1123,851.59a2.81,2.81,0,0,1,1.26,1,2.65,2.65,0,0,1,.45,1.53,2.78,2.78,0,0,1-1.22,2.42,5.88,5.88,0,0,1-3.36.84,7.88,7.88,0,0,1-3.55-.68,2.33,2.33,0,0,1-1.4-2.18h2a1.18,1.18,0,0,0,.8,1,5.29,5.29,0,0,0,2.19.36,3.45,3.45,0,0,0,2-.45,1.47,1.47,0,0,0,.63-1.25,1.39,1.39,0,0,0-.53-1.16,3,3,0,0,0-1.83-.42,5.56,5.56,0,0,0-1.33.16,9.7,9.7,0,0,0-1.62.64l-1.75-.37,1-4.36h7.44v1.5h-6l-.39,1.86a7.14,7.14,0,0,1,1.62-.6,7.33,7.33,0,0,1,1.77-.19A4.86,4.86,0,0,1,1123,851.59Z"/><path class="cls-1" d="M1127.17,853.39a2.88,2.88,0,0,1-.78-2.07,3.24,3.24,0,0,1,.31-1.42,2.46,2.46,0,0,1,1.06-1.06,4,4,0,0,1,1.91-.41,3.3,3.3,0,0,1,2.52.84,3.11,3.11,0,0,1,0,4.12,3.3,3.3,0,0,1-2.52.84A3.25,3.25,0,0,1,1127.17,853.39Zm3.72-.92a1.75,1.75,0,0,0,0-2.29,1.7,1.7,0,0,0-1.23-.4,1.68,1.68,0,0,0-1.21.4,1.52,1.52,0,0,0-.42,1.14,1.55,1.55,0,0,0,.42,1.15,2,2,0,0,0,2.43,0Z"/><path class="cls-1" d="M1143.67,852.6a4.15,4.15,0,0,1-1.46.91c-.57.21-1.31.44-2.24.68a16.56,16.56,0,0,0-2,.62,1.34,1.34,0,0,0-.84.8h7.13v1.53h-9.41v-1a2.29,2.29,0,0,1,.68-1.56,4.37,4.37,0,0,1,1.49-1c.57-.22,1.33-.46,2.26-.72.71-.2,1.27-.37,1.66-.51a3.3,3.3,0,0,0,1-.53,1,1,0,0,0,.4-.81.94.94,0,0,0-.52-.87,4.13,4.13,0,0,0-1.89-.31,4.21,4.21,0,0,0-2.14.43,1.47,1.47,0,0,0-.68,1.33h-2a2.74,2.74,0,0,1,1.34-2.46,6.89,6.89,0,0,1,3.47-.76,6.81,6.81,0,0,1,3.22.62,2.31,2.31,0,0,1,.52,3.55Z"/><path class="cls-1" d="M1155.5,852.87a4.22,4.22,0,0,1-1.42,3.48,6.18,6.18,0,0,1-3.79,1,17.43,17.43,0,0,1-1.87-.08c-.55-.06-1.16-.14-1.85-.24v-1.5l.49.07c.61.09,1.12.15,1.54.19s.89.06,1.4.06a8.34,8.34,0,0,0,1.94-.18,2,2,0,0,0,1.12-.69,2.44,2.44,0,0,0,.46-1.42,5,5,0,0,1-1.47.7,6.68,6.68,0,0,1-2,.29,5.23,5.23,0,0,1-3-.75,2.53,2.53,0,0,1-1.08-2.23,2.69,2.69,0,0,1,1.17-2.35,5.84,5.84,0,0,1,3.38-.82,8.09,8.09,0,0,1,2.87.42,3,3,0,0,1,1.61,1.35,5.45,5.45,0,0,1,.54,2.5v.17Zm-2-1.29q0-1.65-2.82-1.65a4.22,4.22,0,0,0-2.17.41,1.51,1.51,0,0,0,0,2.47,4.22,4.22,0,0,0,2.17.41C1152.59,853.22,1153.53,852.67,1153.53,851.58Z"/><path class="cls-1" d="M1157.11,857.14v-1.5h1.8v1.5Z"/><path class="cls-1" d="M1162.15,856.83a3.75,3.75,0,0,1-1.68-1.56,4.9,4.9,0,0,1-.56-2.38,4.78,4.78,0,0,1,.56-2.35,3.75,3.75,0,0,1,1.68-1.56,6.34,6.34,0,0,1,2.76-.55,6.25,6.25,0,0,1,2.74.55,3.75,3.75,0,0,1,1.68,1.56,5.17,5.17,0,0,1,0,4.72,3.83,3.83,0,0,1-1.68,1.57,6.11,6.11,0,0,1-2.74.55A6.2,6.2,0,0,1,1162.15,856.83Zm5-1.78a3.26,3.26,0,0,0,0-4.3,3.8,3.8,0,0,0-4.53,0,2.75,2.75,0,0,0-.81,2.14,2.81,2.81,0,0,0,.81,2.17,3.19,3.19,0,0,0,2.27.75A3.14,3.14,0,0,0,1167.17,855.05Z"/><path class="cls-1" d="M1181.15,854.78a2.09,2.09,0,0,1-1.18,2,9.59,9.59,0,0,1-7.14-.1,2.64,2.64,0,0,1-1.31-2.39h1.92a1.37,1.37,0,0,0,.33,1,1.93,1.93,0,0,0,1,.51,9.3,9.3,0,0,0,1.77.14,8,8,0,0,0,1.54-.11,1.65,1.65,0,0,0,.84-.37.88.88,0,0,0,.27-.68.93.93,0,0,0-.34-.76,2.5,2.5,0,0,0-1.13-.39,17.28,17.28,0,0,0-2.19-.11v-1.19a16.09,16.09,0,0,0,2.11-.11,2.35,2.35,0,0,0,1.09-.39.92.92,0,0,0,.34-.77.87.87,0,0,0-.57-.84,5.07,5.07,0,0,0-2-.27,8,8,0,0,0-1.83.17,1.76,1.76,0,0,0-1,.52,1.55,1.55,0,0,0-.29,1h-1.89a2.65,2.65,0,0,1,1.34-2.38,9.28,9.28,0,0,1,7-.13A2,2,0,0,1,1181,851a2,2,0,0,1-1.5,1.89Q1181.15,853.43,1181.15,854.78Z"/><path class="cls-1" d="M1190.55,851.59a2.84,2.84,0,0,1,1.27,1,2.65,2.65,0,0,1,.45,1.53,2.77,2.77,0,0,1-1.23,2.42,5.84,5.84,0,0,1-3.36.84,7.91,7.91,0,0,1-3.55-.68,2.32,2.32,0,0,1-1.39-2.18h2a1.19,1.19,0,0,0,.8,1,5.29,5.29,0,0,0,2.19.36,3.46,3.46,0,0,0,2-.45,1.47,1.47,0,0,0,.63-1.25,1.37,1.37,0,0,0-.54-1.16,3,3,0,0,0-1.83-.42,5.42,5.42,0,0,0-1.32.16,9.43,9.43,0,0,0-1.63.64l-1.75-.37,1-4.36h7.44v1.5h-6l-.4,1.86a7.1,7.1,0,0,1,3.4-.79A4.78,4.78,0,0,1,1190.55,851.59Z"/><path class="cls-1" d="M1202.33,852.6a4,4,0,0,1-1.45.91c-.57.21-1.31.44-2.24.68a16.56,16.56,0,0,0-2,.62,1.34,1.34,0,0,0-.84.8h7.13v1.53h-9.41v-1a2.25,2.25,0,0,1,.68-1.56,4.37,4.37,0,0,1,1.49-1c.57-.22,1.32-.46,2.26-.72.71-.2,1.27-.37,1.66-.51a3.3,3.3,0,0,0,1-.53,1,1,0,0,0,.4-.81,1,1,0,0,0-.52-.87,4.13,4.13,0,0,0-1.89-.31,4.21,4.21,0,0,0-2.14.43,1.45,1.45,0,0,0-.68,1.33h-2a2.74,2.74,0,0,1,1.34-2.46,8.47,8.47,0,0,1,6.69-.14,2.3,2.3,0,0,1,.51,3.55Z"/><path class="cls-1" d="M1205.45,848h1.85l-.75,4.06H1205Z"/><path class="cls-1" d="M1223,848.67v1.54h-7v1.93h6.8v1.54h-6.8v1.93h7v1.53h-8.88v-8.47Z"/><path class="cls-1" d="M1226.15,854.38a1.2,1.2,0,0,0,.84,1.12,7.36,7.36,0,0,0,2.85.38,7.18,7.18,0,0,0,2.41-.28.94.94,0,0,0,.71-.87.75.75,0,0,0-.26-.62,2.23,2.23,0,0,0-1-.3c-.47-.06-1.22-.13-2.27-.21a15.18,15.18,0,0,1-2.9-.39,3.15,3.15,0,0,1-1.59-.83,2.05,2.05,0,0,1-.52-1.46,2,2,0,0,1,1.28-1.9,9,9,0,0,1,3.66-.59,8,8,0,0,1,3.78.73,2.36,2.36,0,0,1,1.38,2.13h-2a1,1,0,0,0-.34-.79,2.17,2.17,0,0,0-1.08-.44,11.19,11.19,0,0,0-1.94-.13,10.64,10.64,0,0,0-1.71.11,1.8,1.8,0,0,0-.85.34.75.75,0,0,0-.24.58.73.73,0,0,0,.25.59,2.13,2.13,0,0,0,.92.32,20.15,20.15,0,0,0,2,.21c1.35.1,2.36.21,3,.33a3.4,3.4,0,0,1,1.63.7,1.88,1.88,0,0,1,.62,1.54,2.15,2.15,0,0,1-1.32,2.13,9.23,9.23,0,0,1-3.72.6,9.89,9.89,0,0,1-4.17-.69,2.52,2.52,0,0,1-1.52-2.31Z"/><path class="cls-1" d="M1245.93,848.67v1.61h-4.24v6.86h-1.84v-6.86h-4.24v-1.61Z"/></g></g></svg>