<svg xmlns="http://www.w3.org/2000/svg" viewBox="0 0 427.23 212.04"><defs><style>.cls-1,.cls-6{fill:#fff;}.cls-2,.cls-3,.cls-4,.cls-5{fill:none;stroke:#fff;}.cls-3{stroke-dasharray:4 6;}.cls-4{stroke-dasharray:3 3;}.cls-5{stroke-dasharray:5 5;}.cls-6{font-size:12px;font-family:MyriadPro-Regular, Myriad Pro;}</style></defs><title>M vf</title><g id="Calque_2" data-name="Calque 2"><g id="M"><g id="Calque_2-2" data-name="Calque 2"><g id="Calque_1-2" data-name="Calque 1-2"><path class="cls-1" d="M367.72,37.62H322.91l-57,94.57L209,37.62H161.72v134h35V79.73l56.58,91.89h22.88l56.54-91.89v91.89h35Z"/><line class="cls-2" x1="384.22" y1="36.62" x2="384.22" y2="171.62"/><line class="cls-2" x1="45.22" y1="38.62" x2="45.22" y2="80.62"/><line class="cls-2" x1="45.22" y1="129.62" x2="45.22" y2="171.62"/><line class="cls-2" x1="161.72" y1="20.12" x2="208.72" y2="20.12"/><line class="cls-2" x1="332.72" y1="20.12" x2="368.72" y2="20.12"/><line class="cls-2" x1="367.72" y1="189.12" x2="161.72" y2="188.13"/><line class="cls-3" x1="139.72" y1="38.12" x2="50.72" y2="38.12"/><line class="cls-3" x1="139.72" y1="82.12" x2="49.72" y2="82.12"/><line class="cls-3" x1="139.72" y1="172.12" x2="50.72" y2="171.13"/><line class="cls-4" x1="382.72" y1="171.12" x2="368.72" y2="171.12"/><line class="cls-4" x1="382.72" y1="37.12" x2="368.72" y2="37.12"/><line class="cls-4" x1="208.22" y1="35.62" x2="208.22" y2="21.62"/><line class="cls-4" x1="368.22" y1="35.62" x2="368.22" y2="21.62"/><line class="cls-4" x1="162.22" y1="35.62" x2="162.22" y2="21.62"/><line class="cls-4" x1="333.22" y1="36.62" x2="333.22" y2="22.62"/><line class="cls-4" x1="162.22" y1="186.62" x2="162.22" y2="172.62"/><line class="cls-4" x1="367.22" y1="186.62" x2="367.22" y2="172.62"/><line class="cls-3" x1="139.72" y1="131.12" x2="49.72" y2="131.12"/><circle class="cls-5" cx="321.28" cy="39.56" r="18.5"/><circle class="cls-5" cx="331.28" cy="80.56" r="18.5"/><circle class="cls-5" cx="264.28" cy="130.56" r="18.5"/></g></g><text class="cls-6" transform="translate(309 15.04)">240°</text><text class="cls-6" transform="translate(171 10.04)">47 px</text><text class="cls-6" transform="translate(337 15.04)">36 px</text><text class="cls-6" transform="translate(394 105.04)">135 px</text><text class="cls-6" transform="translate(0 66.04)">42 px</text><text class="cls-6" transform="translate(0 153.04)">42 px</text><text class="cls-6" transform="translate(250 209.04)">206 px</text><text class="cls-6" transform="translate(315 121.04)">32°</text><text class="cls-6" transform="translate(260 106.04)">63°</text></g></g></svg>