<?xml version="1.0" encoding="utf-8"?>
<!-- Generator: Adobe Illustrator 25.1.0, SVG Export Plug-In . SVG Version: 6.00 Build 0)  -->
<svg version="1.1" xmlns="http://www.w3.org/2000/svg" xmlns:xlink="http://www.w3.org/1999/xlink" x="0px" y="0px"
	 viewBox="0 0 1808.8 537.6" style="enable-background:new 0 0 1808.8 537.6;" xml:space="preserve">
<style type="text/css">
	.st0{fill:#FFFFFF;}
	.st1{fill:none;stroke:#FFFFFF;stroke-width:2;stroke-miterlimit:10;}
	.st2{fill:none;stroke:#FFFFFF;stroke-width:2;stroke-miterlimit:10;stroke-dasharray:11.94,11.94;}
</style>
<g id="Calque_2">
</g>
<g id="Calque_1">
	<path class="st0" d="M439.5,109.5V159H309v211.4h-56.9V159H121.6v-49.5H439.5z"/>
	<path class="st0" d="M727.5,153.8h59.1l-126.4,231c-10.1,18.7-20.1,33.9-29.9,45.5c-9.4,11.3-21.2,20.4-34.4,26.8
		c-13.1,6.3-28.6,9.4-46.6,9.4c-12.2,0-24.3-0.7-36.4-2.2c-11.5-1.5-23.8-3.6-37.1-6.3v-45.8c23.9,5.4,45.2,8.1,63.9,8.1
		c10.8,0,20-1.3,27.5-3.9c7.5-2.6,14.4-7.3,20.7-14c6.3-6.8,12.7-16.4,19.4-29l1.5-3H580L461.7,153.8h59.9l102.8,188.5L727.5,153.8z
		"/>
	<path class="st0" d="M1057.9,159c20.2,8.4,36.3,21.2,48.2,38.4s17.9,38.8,17.9,64.7c0,25.9-6,47.4-17.9,64.7
		c-11.9,17.2-28,30.1-48.2,38.4c-20.2,8.4-42.9,12.6-68,12.6c-26.1,0-48.7-3.8-67.8-11.5c-19.1-7.6-34.1-18.7-44.9-33.3v126h-54.7
		V153.8h54.7v37.3c10.8-14.5,25.8-25.6,44.9-33.3s41.7-11.5,67.8-11.5C1015,146.4,1037.7,150.6,1057.9,159z M1041.8,312.6
		c15.9-12,23.8-28.8,23.8-50.5c0-21.7-8.3-38.5-25-50.4c-16.6-11.9-40.2-17.9-70.8-17.9c-30.3,0-53.3,6-69.1,17.9
		c-15.8,12-23.7,28.8-23.7,50.5c0,21.4,8.3,38.2,25,50.3c16.7,12.1,40.1,18.1,70.4,18.1C1002.8,330.5,1025.9,324.5,1041.8,312.6
		L1041.8,312.6z"/>
	<path class="st0" d="M1376.3,323.5c13.4-6.2,23-14.9,28.6-26.2h56.9c-6.7,25.6-22.4,45.5-47.1,59.5c-24.8,14-57.2,21.1-97.4,21.1
		c-47.1,0-84.5-9.8-112.2-29.4c-27.7-19.6-41.6-48.4-41.6-86.3c0-25.4,6.5-46.7,19.4-63.9s30.7-30.2,53.4-38.8
		c22.7-8.6,48.5-12.9,77.6-12.9c46.6,0,83.4,10,110.5,30.1s40.7,52.5,40.7,97.4h-244c2.5,20.5,11.8,35.4,28.1,44.7s39.3,14,69.1,14
		C1343.6,332.7,1362.9,329.6,1376.3,323.5z M1224.2,235.5H1405c-4.7-16-14.6-27.8-29.8-35.3c-15.2-7.5-35.6-11.3-61.2-11.3
		C1264,188.9,1234.1,204.5,1224.2,235.5L1224.2,235.5z"/>
	<line class="st1" x1="76" y1="69.3" x2="82" y2="69.3"/>
	<line class="st2" x1="94" y1="69.3" x2="1735.4" y2="69.3"/>
	<line class="st1" x1="1741.3" y1="69.3" x2="1747.3" y2="69.3"/>
	<line class="st1" x1="76" y1="108.4" x2="82" y2="108.4"/>
	<line class="st2" x1="94" y1="108.4" x2="1735.4" y2="108.4"/>
	<line class="st1" x1="1741.3" y1="108.4" x2="1747.3" y2="108.4"/>
	<line class="st1" x1="76" y1="153.6" x2="1747.3" y2="153.6"/>
	<line class="st1" x1="76" y1="459.5" x2="82" y2="459.5"/>
	<line class="st2" x1="94" y1="459.5" x2="1735.4" y2="459.5"/>
	<line class="st1" x1="1741.3" y1="459.5" x2="1747.3" y2="459.5"/>
	<line class="st1" x1="76" y1="371.2" x2="1747.3" y2="371.2"/>
	<line class="st1" x1="1529.6" y1="163.5" x2="1529.6" y2="360.8"/>
	<polygon class="st0" points="1524.6,165 1529.6,156.3 1534.5,165 	"/>
	<polygon class="st0" points="1524.6,359.3 1529.6,368 1534.5,359.3 	"/>
	<line class="st1" x1="1529.5" y1="381.2" x2="1529.5" y2="448.6"/>
	<polygon class="st0" points="1524.6,382.6 1529.6,374 1534.5,382.6 	"/>
	<polygon class="st0" points="1524.6,447.1 1529.6,455.8 1534.5,447.1 	"/>
	<line class="st1" x1="1747.3" y1="118.6" x2="1747.3" y2="360.2"/>
	<polygon class="st0" points="1742.3,120.1 1747.3,111.4 1752.3,120.1 	"/>
	<polygon class="st0" points="1742.3,358.8 1747.3,367.4 1752.3,358.8 	"/>
	<line class="st1" x1="62" y1="76.5" x2="62" y2="364"/>
	<polygon class="st0" points="57,78 62,69.3 67,78 	"/>
	<polygon class="st0" points="57,362.6 62,371.2 67,362.6 	"/>
	<path class="st0" d="M1806.8,2v533.6H2V2H1806.8 M1808.8,0H0v537.6h1808.8V0z"/>
</g>
<g id="Calque_3">
	<g>
		<g>
			<path class="st0" d="M1768.7,351.9h-5.4v-2.4h13.4v2.4h-5.4v8.9h5.4v2.4h-13.4v-2.4h5.4V351.9z"/>
			<path class="st0" d="M1765.7,337.4c0.4-0.9,1-1.5,1.8-1.9c0.8-0.4,2-0.7,3.4-0.7h5.7v2.3h-1.4c0.5,1,1,2,1.3,3s0.5,2,0.5,3.1
				c0,2.9-1.3,4.4-3.8,4.4c-1.4,0-2.4-0.5-3-1.5c-0.6-1-0.9-2.4-0.9-4c0-1.6,0.3-3.2,0.8-4.8c-1.1,0-1.8,0.4-2.2,1.2
				s-0.6,1.7-0.6,2.7c0,0.8,0.1,1.5,0.2,2.4c0.1,0.8,0.4,1.7,0.8,2.7l-2.1,0.7c-0.4-1-0.6-2-0.8-3c-0.2-1-0.3-2-0.3-3
				C1765.2,339.3,1765.3,338.2,1765.7,337.4z M1774.3,339.9c-0.3-1-0.6-1.9-1-2.8h-1.1c-0.5,1.6-0.8,3.1-0.8,4.6
				c0,2.2,0.6,3.3,1.7,3.3c0.6,0,1-0.2,1.3-0.6c0.2-0.4,0.3-1.1,0.3-2C1774.7,341.7,1774.6,340.9,1774.3,339.9z"/>
			<path class="st0" d="M1765.5,321.9v-2.3h11.1v2.3h-2.5c0.9,0.6,1.7,1.4,2.1,2.2c0.5,0.9,0.7,2,0.7,3.2c0,1.7-0.5,2.9-1.4,3.9
				c-0.9,0.9-2.4,1.4-4.5,1.4h-5.7v-2.3h4.9c1.4,0,2.5-0.3,3.2-0.8c0.7-0.6,1-1.5,1-2.9c0-1.4-0.4-2.6-1.2-3.4s-1.9-1.3-3.5-1.3
				H1765.5z"/>
			<path class="st0" d="M1767.8,308.5v4.5h4c0.7,0,1.3-0.1,1.7-0.2c0.4-0.1,0.6-0.3,0.8-0.6c0.2-0.3,0.2-0.7,0.2-1.3
				c0-0.7-0.1-1.5-0.2-2.4h2.3c0.2,1.1,0.3,2.1,0.3,3c0,1-0.1,1.7-0.4,2.3c-0.3,0.6-0.8,1-1.5,1.2c-0.7,0.2-1.6,0.4-2.8,0.4h-4.5
				v2.6h-2.3v-2.6h-2.5l-0.9-2.3h3.4v-4.5H1767.8z"/>
			<path class="st0" d="M1774.3,297.6c-0.3-0.6-0.8-1-1.3-1.2V294c1.3,0.3,2.3,1,3.1,2c0.7,1.1,1.1,2.4,1.1,4.2c0,2-0.5,3.6-1.5,4.8
				c-1,1.2-2.5,1.8-4.4,1.8c-1.3,0-2.4-0.3-3.3-0.8c-0.9-0.6-1.6-1.3-2-2.3s-0.7-2.1-0.7-3.3c0-2,0.5-3.6,1.5-4.7
				c1-1.2,2.7-1.7,5-1.7v10.4c1.1-0.1,1.8-0.5,2.3-1.2s0.7-1.7,0.7-3C1774.7,299,1774.6,298.2,1774.3,297.6z M1769.7,304.1v-7.7
				c-0.8,0.2-1.4,0.6-1.8,1.3c-0.4,0.6-0.6,1.5-0.6,2.6C1767.3,302.4,1768.1,303.7,1769.7,304.1z"/>
			<path class="st0" d="M1765.5,281.1v-2.3h11.1v2.3h-2.5c0.9,0.6,1.7,1.4,2.1,2.2c0.5,0.9,0.7,2,0.7,3.2c0,1.7-0.5,2.9-1.4,3.9
				c-0.9,0.9-2.4,1.4-4.5,1.4h-5.7v-2.3h4.9c1.4,0,2.5-0.3,3.2-0.8c0.7-0.6,1-1.5,1-2.9c0-1.4-0.4-2.6-1.2-3.4s-1.9-1.3-3.5-1.3
				H1765.5z"/>
			<path class="st0" d="M1765.6,267.1h2.5c-0.2,0.5-0.3,0.9-0.3,1.3c-0.1,0.4-0.1,0.8-0.1,1.2c0,0.7,0.2,1.4,0.5,2.1
				s0.9,1.4,1.8,2.3h6.8v2.3h-11.1v-2.3h2.1c-0.9-0.7-1.5-1.4-1.9-2.1s-0.5-1.5-0.5-2.3C1765.2,268.6,1765.3,267.8,1765.6,267.1z"/>
			<path class="st0" d="M1761.5,248.3v-2.3h15.2v2.3h-1.9c0.7,0.5,1.3,1.1,1.7,1.9c0.4,0.8,0.6,1.8,0.6,2.9c0,1.1-0.2,2-0.6,2.9
				c-0.4,0.9-1.1,1.5-2,2.1s-2,0.8-3.3,0.8s-2.4-0.3-3.3-0.8s-1.5-1.2-2-2.1c-0.4-0.9-0.6-1.8-0.6-2.9c0-1.1,0.2-2.1,0.6-2.9
				c0.4-0.8,1-1.5,1.7-1.9H1761.5z M1773.7,249.3c-0.6-0.7-1.5-1.1-2.6-1.1c-1.1,0-2,0.4-2.6,1.1s-0.9,1.7-0.9,3
				c0,1.3,0.3,2.3,0.9,3c0.6,0.7,1.5,1,2.6,1c1.1,0,2-0.3,2.6-1c0.6-0.7,0.9-1.7,0.9-3C1774.6,251,1774.3,250,1773.7,249.3z"/>
			<path class="st0" d="M1774.3,234.7c-0.3-0.6-0.8-1-1.3-1.2v-2.4c1.3,0.3,2.3,1,3.1,2s1.1,2.4,1.1,4.2c0,2-0.5,3.6-1.5,4.8
				c-1,1.2-2.5,1.8-4.4,1.8c-1.3,0-2.4-0.3-3.3-0.8s-1.6-1.3-2-2.3c-0.4-1-0.7-2.1-0.7-3.3c0-2,0.5-3.6,1.5-4.7c1-1.2,2.7-1.7,5-1.7
				v10.4c1.1-0.1,1.8-0.5,2.3-1.2c0.5-0.7,0.7-1.7,0.7-3C1774.7,236.1,1774.6,235.3,1774.3,234.7z M1769.7,241.2v-7.7
				c-0.8,0.2-1.4,0.6-1.8,1.3c-0.4,0.6-0.6,1.5-0.6,2.6C1767.3,239.5,1768.1,240.8,1769.7,241.2z"/>
			<path class="st0" d="M1766.7,220.8c-1-1.2-1.5-2.7-1.5-4.7c0-1.8,0.4-3.2,1.2-4.3s2-1.7,3.5-2v2.5c-0.8,0.2-1.4,0.6-1.8,1.2
				c-0.4,0.6-0.6,1.5-0.6,2.6c0,2.7,1.2,4.1,3.6,4.1c2.4,0,3.6-1.4,3.6-4.1c0-1.1-0.2-2-0.6-2.6s-1-1-1.8-1.2v-2.5
				c1.6,0.3,2.7,0.9,3.5,2c0.8,1.1,1.2,2.5,1.2,4.3c0,2-0.5,3.6-1.5,4.7c-1,1.2-2.5,1.7-4.4,1.7
				C1769.1,222.5,1767.7,222,1766.7,220.8z"/>
			<path class="st0" d="M1765.7,198.2c0.4-0.9,1-1.5,1.8-1.9s2-0.7,3.4-0.7h5.7v2.3h-1.4c0.5,1,1,2,1.3,3s0.5,2,0.5,3.1
				c0,2.9-1.3,4.4-3.8,4.4c-1.4,0-2.4-0.5-3-1.5c-0.6-1-0.9-2.4-0.9-4c0-1.6,0.3-3.2,0.8-4.8c-1.1,0-1.8,0.4-2.2,1.2
				s-0.6,1.7-0.6,2.7c0,0.8,0.1,1.5,0.2,2.4c0.1,0.8,0.4,1.7,0.8,2.7l-2.1,0.7c-0.4-1-0.6-2-0.8-3c-0.2-1-0.3-2-0.3-3
				C1765.2,200.1,1765.3,199,1765.7,198.2z M1774.3,200.7c-0.3-1-0.6-1.9-1-2.8h-1.1c-0.5,1.6-0.8,3.1-0.8,4.6
				c0,2.2,0.6,3.3,1.7,3.3c0.6,0,1-0.2,1.3-0.6c0.2-0.4,0.3-1.1,0.3-2C1774.7,202.5,1774.6,201.7,1774.3,200.7z"/>
			<path class="st0" d="M1765.8,183.2c0.4-0.9,1.1-1.5,2-2.1c0.9-0.5,2-0.8,3.3-0.8s2.4,0.3,3.3,0.8c0.9,0.5,1.5,1.2,2,2.1
				c0.4,0.9,0.6,1.8,0.6,2.9c0,1.1-0.2,2.1-0.6,2.9c-0.4,0.8-1,1.5-1.7,1.9h6.5v2.3h-15.7v-2.3h1.9c-0.7-0.5-1.3-1.1-1.7-1.9
				c-0.4-0.8-0.6-1.8-0.6-2.9C1765.2,185,1765.4,184.1,1765.8,183.2z M1773.7,183.9c-0.6-0.7-1.5-1-2.6-1c-1.1,0-2,0.4-2.6,1.1
				s-0.9,1.7-0.9,3c0,1.3,0.3,2.3,0.9,3c0.6,0.7,1.5,1,2.6,1c1.1,0,2-0.4,2.6-1.1c0.6-0.7,0.9-1.7,0.9-3S1774.3,184.6,1773.7,183.9z
				"/>
			<path class="st0" d="M1764.1,178.3h-2.7V176h2.7V178.3z M1776.7,178.3h-11.1V176h11.1V178.3z"/>
			<path class="st0" d="M1767.8,164.7v4.5h4c0.7,0,1.3-0.1,1.7-0.2s0.6-0.3,0.8-0.6s0.2-0.7,0.2-1.3c0-0.7-0.1-1.5-0.2-2.4h2.3
				c0.2,1.1,0.3,2.1,0.3,3c0,1-0.1,1.7-0.4,2.3c-0.3,0.6-0.8,1-1.5,1.2c-0.7,0.2-1.6,0.4-2.8,0.4h-4.5v2.6h-2.3v-2.6h-2.5l-0.9-2.3
				h3.4v-4.5H1767.8z"/>
			<path class="st0" d="M1765.7,152.7c0.4-0.9,1-1.5,1.8-1.9s2-0.7,3.4-0.7h5.7v2.3h-1.4c0.5,1,1,2,1.3,3s0.5,2,0.5,3.1
				c0,2.9-1.3,4.4-3.8,4.4c-1.4,0-2.4-0.5-3-1.5c-0.6-1-0.9-2.4-0.9-4c0-1.6,0.3-3.2,0.8-4.8c-1.1,0-1.8,0.4-2.2,1.2
				s-0.6,1.7-0.6,2.7c0,0.8,0.1,1.5,0.2,2.4c0.1,0.8,0.4,1.7,0.8,2.7l-2.1,0.7c-0.4-1-0.6-2-0.8-3c-0.2-1-0.3-2-0.3-3
				C1765.2,154.6,1765.3,153.5,1765.7,152.7z M1774.3,155.2c-0.3-1-0.6-1.9-1-2.8h-1.1c-0.5,1.6-0.8,3.1-0.8,4.6
				c0,2.2,0.6,3.3,1.7,3.3c0.6,0,1-0.2,1.3-0.6c0.2-0.4,0.3-1.1,0.3-2C1774.7,157,1774.6,156.1,1774.3,155.2z"/>
			<path class="st0" d="M1776.7,147.9h-15.2v-2.3h15.2V147.9z"/>
			<path class="st0" d="M1774.3,134.3c-0.3-0.6-0.8-1-1.3-1.2v-2.4c1.3,0.3,2.3,1,3.1,2s1.1,2.4,1.1,4.2c0,2-0.5,3.6-1.5,4.8
				c-1,1.2-2.5,1.8-4.4,1.8c-1.3,0-2.4-0.3-3.3-0.8s-1.6-1.3-2-2.3c-0.4-1-0.7-2.1-0.7-3.3c0-2,0.5-3.6,1.5-4.7c1-1.2,2.7-1.7,5-1.7
				V141c1.1-0.1,1.8-0.5,2.3-1.2c0.5-0.7,0.7-1.7,0.7-3C1774.7,135.7,1774.6,134.9,1774.3,134.3z M1769.7,140.8v-7.7
				c-0.8,0.2-1.4,0.6-1.8,1.3c-0.4,0.6-0.6,1.5-0.6,2.6C1767.3,139.1,1768.1,140.4,1769.7,140.8z"/>
		</g>
	</g>
	<g>
		<g>
			<path class="st0" d="M75.7,343.5v10.9H84v2.5H73.3v-13.4H75.7z"/>
			<path class="st0" d="M85.8,344.4v-2.7h2.3v2.7H85.8z M85.8,356.9v-11.1h2.3v11.1H85.8z"/>
			<path class="st0" d="M100.8,345.8h2.3v9.7c0,2.2-0.5,3.8-1.5,4.8c-1,1-2.5,1.5-4.4,1.5c-1.9,0-3.9-0.3-6.1-0.9l0.2-2.3l0.4,0.1
				c1,0.2,1.8,0.4,2.6,0.5s1.6,0.2,2.4,0.2c1,0,1.9-0.1,2.5-0.4c0.6-0.3,1-0.8,1.3-1.4c0.3-0.6,0.4-1.4,0.4-2.5v-0.3
				c-0.5,0.7-1.1,1.3-1.9,1.7c-0.8,0.4-1.7,0.6-2.8,0.6c-1.1,0-2-0.2-2.9-0.6c-0.9-0.4-1.6-1.1-2.1-2c-0.5-0.9-0.8-2-0.8-3.3
				c0-1.3,0.3-2.4,0.8-3.3c0.5-0.9,1.2-1.5,2.1-1.9s1.9-0.6,2.9-0.6s2,0.2,2.8,0.6c0.8,0.4,1.4,0.9,1.9,1.7V345.8z M99.8,353.8
				c0.7-0.6,1-1.5,1-2.5c0-1.1-0.3-1.9-1-2.5s-1.7-0.9-3-0.9c-1.3,0-2.3,0.3-3,0.9c-0.7,0.6-1,1.5-1,2.5c0,1.1,0.3,1.9,1,2.5
				c0.7,0.6,1.7,0.9,3,0.9C98.1,354.7,99.1,354.4,99.8,353.8z"/>
			<path class="st0" d="M117.3,346.8c0.9,0.9,1.4,2.4,1.4,4.5v5.7h-2.3V352c0-1.4-0.3-2.5-0.8-3.2c-0.6-0.7-1.5-1-2.9-1
				c-1.4,0-2.6,0.4-3.4,1.2c-0.8,0.8-1.3,1.9-1.3,3.5v4.4h-2.3v-11.1h2.3v2.5c0.6-0.9,1.4-1.7,2.2-2.1c0.9-0.5,2-0.7,3.2-0.7
				C115.1,345.4,116.4,345.9,117.3,346.8z"/>
			<path class="st0" d="M129.7,354.5c0.6-0.3,1-0.8,1.2-1.3h2.4c-0.3,1.3-1,2.3-2,3.1s-2.4,1.1-4.2,1.1c-2,0-3.6-0.5-4.8-1.5
				c-1.2-1-1.8-2.5-1.8-4.4c0-1.3,0.3-2.4,0.8-3.3s1.3-1.6,2.3-2c1-0.4,2.1-0.7,3.3-0.7c2,0,3.6,0.5,4.7,1.5c1.2,1,1.7,2.7,1.7,5
				h-10.4c0.1,1.1,0.5,1.8,1.2,2.3c0.7,0.5,1.7,0.7,3,0.7C128.3,355,129.2,354.8,129.7,354.5z M123.3,350h7.7
				c-0.2-0.8-0.6-1.4-1.3-1.8c-0.6-0.4-1.5-0.6-2.6-0.6C125,347.6,123.7,348.4,123.3,350z"/>
			<path class="st0" d="M152.5,341.7h2.3v15.2h-2.3V355c-0.5,0.7-1.1,1.3-1.9,1.7c-0.8,0.4-1.8,0.6-2.9,0.6c-1.1,0-2-0.2-2.9-0.6
				c-0.9-0.4-1.5-1.1-2.1-2s-0.8-2-0.8-3.3s0.3-2.4,0.8-3.3s1.2-1.5,2.1-2c0.9-0.4,1.8-0.6,2.9-0.6c1.1,0,2.1,0.2,2.9,0.6
				c0.8,0.4,1.5,1,1.9,1.7V341.7z M151.4,353.9c0.7-0.6,1.1-1.5,1.1-2.6c0-1.1-0.4-2-1.1-2.6s-1.7-0.9-3-0.9c-1.3,0-2.3,0.3-3,0.9
				c-0.7,0.6-1,1.5-1,2.6c0,1.1,0.3,2,1,2.6c0.7,0.6,1.7,0.9,3,0.9C149.7,354.9,150.7,354.5,151.4,353.9z"/>
			<path class="st0" d="M166,354.5c0.6-0.3,1-0.8,1.2-1.3h2.4c-0.3,1.3-1,2.3-2,3.1s-2.4,1.1-4.2,1.1c-2,0-3.6-0.5-4.8-1.5
				c-1.2-1-1.8-2.5-1.8-4.4c0-1.3,0.3-2.4,0.8-3.3s1.3-1.6,2.3-2c1-0.4,2.1-0.7,3.3-0.7c2,0,3.6,0.5,4.7,1.5c1.2,1,1.7,2.7,1.7,5
				h-10.4c0.1,1.1,0.5,1.8,1.2,2.3c0.7,0.5,1.7,0.7,3,0.7C164.6,355,165.4,354.8,166,354.5z M159.5,350h7.7
				c-0.2-0.8-0.6-1.4-1.3-1.8c-0.6-0.4-1.5-0.6-2.6-0.6C161.2,347.6,159.9,348.4,159.5,350z"/>
			<path class="st0" d="M188.4,346c0.9,0.4,1.5,1.1,2.1,2c0.5,0.9,0.8,2,0.8,3.3s-0.3,2.4-0.8,3.3c-0.5,0.9-1.2,1.5-2.1,2
				c-0.9,0.4-1.8,0.6-2.9,0.6c-1.1,0-2.1-0.2-2.9-0.6c-0.8-0.4-1.5-1-1.9-1.7v6.5h-2.3v-15.7h2.3v1.9c0.5-0.7,1.1-1.3,1.9-1.7
				c0.8-0.4,1.8-0.6,2.9-0.6C186.6,345.4,187.6,345.6,188.4,346z M187.8,353.9c0.7-0.6,1-1.5,1-2.6c0-1.1-0.4-2-1.1-2.6
				s-1.7-0.9-3-0.9c-1.3,0-2.3,0.3-3,0.9c-0.7,0.6-1,1.5-1,2.6c0,1.1,0.4,2,1.1,2.6c0.7,0.6,1.7,0.9,3,0.9S187.1,354.5,187.8,353.9z
				"/>
			<path class="st0" d="M193.4,344.4v-2.7h2.3v2.7H193.4z M193.4,356.9v-11.1h2.3v11.1H193.4z"/>
			<path class="st0" d="M206.9,354.5c0.6-0.3,1-0.8,1.2-1.3h2.4c-0.3,1.3-1,2.3-2,3.1s-2.4,1.1-4.2,1.1c-2,0-3.6-0.5-4.8-1.5
				c-1.2-1-1.8-2.5-1.8-4.4c0-1.3,0.3-2.4,0.8-3.3s1.3-1.6,2.3-2c1-0.4,2.1-0.7,3.3-0.7c2,0,3.6,0.5,4.7,1.5c1.2,1,1.7,2.7,1.7,5
				h-10.4c0.1,1.1,0.5,1.8,1.2,2.3c0.7,0.5,1.7,0.7,3,0.7C205.5,355,206.3,354.8,206.9,354.5z M200.4,350h7.7
				c-0.2-0.8-0.6-1.4-1.3-1.8c-0.6-0.4-1.5-0.6-2.6-0.6C202.1,347.6,200.8,348.4,200.4,350z"/>
			<path class="st0" d="M222.9,341.7h2.3v15.2h-2.3V355c-0.5,0.7-1.1,1.3-1.9,1.7c-0.8,0.4-1.8,0.6-2.9,0.6c-1.1,0-2-0.2-2.9-0.6
				c-0.9-0.4-1.5-1.1-2.1-2s-0.8-2-0.8-3.3s0.3-2.4,0.8-3.3s1.2-1.5,2.1-2c0.9-0.4,1.8-0.6,2.9-0.6c1.1,0,2.1,0.2,2.9,0.6
				c0.8,0.4,1.5,1,1.9,1.7V341.7z M221.9,353.9c0.7-0.6,1.1-1.5,1.1-2.6c0-1.1-0.4-2-1.1-2.6s-1.7-0.9-3-0.9c-1.3,0-2.3,0.3-3,0.9
				c-0.7,0.6-1,1.5-1,2.6c0,1.1,0.3,2,1,2.6c0.7,0.6,1.7,0.9,3,0.9C220.2,354.9,221.2,354.5,221.9,353.9z"/>
		</g>
	</g>
	<g>
		<path class="st0" d="M1552.1,259.4V254h2.4v13.4h-2.4v-5.4h-8.9v5.4h-2.4V254h2.4v5.4H1552.1z"/>
		<path class="st0" d="M1566.6,256.4c0.9,0.4,1.5,1,1.9,1.8c0.4,0.8,0.7,2,0.7,3.4v5.7h-2.3V266c-1,0.5-2,1-2.9,1.3
			c-1,0.3-2,0.5-3.1,0.5c-2.9,0-4.4-1.3-4.4-3.8c0-1.4,0.5-2.4,1.5-3c1-0.6,2.4-0.9,4-0.9c1.6,0,3.2,0.3,4.8,0.8
			c0-1.1-0.4-1.8-1.2-2.2c-0.8-0.4-1.7-0.6-2.7-0.6c-0.8,0-1.5,0.1-2.4,0.2c-0.8,0.1-1.7,0.4-2.7,0.8l-0.7-2.1c1-0.4,2-0.6,3-0.8
			c1-0.2,2-0.3,3-0.3C1564.6,255.9,1565.7,256,1566.6,256.4z M1564.1,265c1-0.3,1.9-0.6,2.8-1v-1.1c-1.6-0.5-3.1-0.8-4.6-0.8
			c-2.2,0-3.3,0.6-3.3,1.7c0,0.6,0.2,1,0.6,1.3c0.4,0.2,1.1,0.3,2,0.3C1562.3,265.4,1563.1,265.3,1564.1,265z"/>
		<path class="st0" d="M1582.1,256.2h2.3v11.1h-2.3v-2.5c-0.6,0.9-1.4,1.7-2.2,2.1c-0.9,0.5-2,0.7-3.2,0.7c-1.7,0-2.9-0.5-3.9-1.4
			c-0.9-0.9-1.4-2.4-1.4-4.5v-5.7h2.3v4.9c0,1.4,0.3,2.5,0.8,3.2c0.6,0.7,1.5,1,2.9,1c1.4,0,2.6-0.4,3.4-1.2s1.3-1.9,1.3-3.5V256.2z
			"/>
		<path class="st0" d="M1595.5,258.6h-4.5v4c0,0.7,0.1,1.3,0.2,1.7c0.1,0.4,0.3,0.6,0.6,0.8c0.3,0.2,0.7,0.2,1.3,0.2
			c0.7,0,1.5-0.1,2.4-0.2v2.3c-1.1,0.2-2.1,0.3-3,0.3c-1,0-1.7-0.1-2.3-0.4c-0.6-0.3-1-0.8-1.2-1.5c-0.2-0.7-0.4-1.6-0.4-2.8v-4.5
			h-2.6v-2.3h2.6v-2.5l2.3-0.9v3.4h4.5V258.6z"/>
		<path class="st0" d="M1606.3,265c0.6-0.3,1-0.8,1.2-1.3h2.4c-0.3,1.3-1,2.3-2,3.1c-1.1,0.7-2.4,1.1-4.2,1.1c-2,0-3.6-0.5-4.8-1.5
			c-1.2-1-1.8-2.5-1.8-4.4c0-1.3,0.3-2.4,0.8-3.3c0.6-0.9,1.3-1.6,2.3-2c1-0.4,2.1-0.7,3.3-0.7c2,0,3.6,0.5,4.7,1.5
			c1.2,1,1.7,2.7,1.7,5h-10.4c0.1,1.1,0.5,1.8,1.2,2.3c0.7,0.5,1.7,0.7,3,0.7C1604.9,265.4,1605.8,265.3,1606.3,265z M1599.9,260.4
			h7.7c-0.2-0.8-0.6-1.4-1.3-1.8c-0.6-0.4-1.5-0.6-2.6-0.6C1601.6,258,1600.3,258.8,1599.9,260.4z"/>
		<path class="st0" d="M1622.9,256.2h2.3v11.1h-2.3v-2.5c-0.6,0.9-1.4,1.7-2.2,2.1c-0.9,0.5-2,0.7-3.2,0.7c-1.7,0-2.9-0.5-3.9-1.4
			c-0.9-0.9-1.4-2.4-1.4-4.5v-5.7h2.3v4.9c0,1.4,0.3,2.5,0.8,3.2c0.6,0.7,1.5,1,2.9,1c1.4,0,2.6-0.4,3.4-1.2s1.3-1.9,1.3-3.5V256.2z
			"/>
		<path class="st0" d="M1636.9,256.3v2.5c-0.5-0.2-0.9-0.3-1.3-0.3c-0.4-0.1-0.8-0.1-1.2-0.1c-0.7,0-1.4,0.2-2.1,0.5
			c-0.7,0.3-1.4,0.9-2.3,1.8v6.8h-2.3v-11.1h2.3v2.1c0.7-0.9,1.4-1.5,2.1-1.9c0.7-0.4,1.5-0.5,2.3-0.5
			C1635.3,255.9,1636.2,256,1636.9,256.3z"/>
		<path class="st0" d="M1655.7,252.2h2.3v15.2h-2.3v-1.9c-0.5,0.7-1.1,1.3-1.9,1.7c-0.8,0.4-1.8,0.6-2.9,0.6c-1.1,0-2-0.2-2.9-0.6
			c-0.9-0.4-1.5-1.1-2.1-2c-0.5-0.9-0.8-2-0.8-3.3s0.3-2.4,0.8-3.3c0.5-0.9,1.2-1.5,2.1-2c0.9-0.4,1.8-0.6,2.9-0.6
			c1.1,0,2.1,0.2,2.9,0.6c0.8,0.4,1.5,1,1.9,1.7V252.2z M1654.7,264.4c0.7-0.6,1.1-1.5,1.1-2.6c0-1.1-0.4-2-1.1-2.6
			c-0.7-0.6-1.7-0.9-3-0.9c-1.3,0-2.3,0.3-3,0.9c-0.7,0.6-1,1.5-1,2.6s0.3,2,1,2.6c0.7,0.6,1.7,0.9,3,0.9
			C1652.9,265.3,1653.9,265,1654.7,264.4z"/>
		<path class="st0" d="M1661.2,252.8h2.4l-1,6.4h-2.1L1661.2,252.8z"/>
		<path class="st0" d="M1669.4,267.4h-3.4l5.4-5.6l-5.4-5.6h3.4l3.5,3.9l3.5-3.9h3.4l-5.4,5.6l5.4,5.6h-3.4l-3.5-3.9L1669.4,267.4z"
			/>
	</g>
	<g>
		<path class="st0" d="M1551.5,407.4c0.8,0.5,1.5,1.2,1.9,2.3c0.5,1,0.7,2.2,0.7,3.7c0,1.5-0.2,2.7-0.7,3.7c-0.5,1-1.1,1.8-1.9,2.3
			c-0.8,0.5-1.7,0.7-2.7,0.7h-8v-13.4h8C1549.8,406.7,1550.7,407,1551.5,407.4z M1547.7,417.6c0.9,0,1.7-0.1,2.2-0.3
			c0.6-0.2,1-0.6,1.3-1.2s0.4-1.5,0.4-2.6c0-1.1-0.1-2-0.4-2.6s-0.7-1-1.3-1.2c-0.6-0.2-1.3-0.3-2.2-0.3h-4.4v8.3H1547.7z"/>
		<path class="st0" d="M1565,417.7c0.6-0.3,1-0.8,1.2-1.3h2.4c-0.3,1.3-1,2.3-2,3.1c-1.1,0.7-2.4,1.1-4.2,1.1c-2,0-3.6-0.5-4.8-1.5
			c-1.2-1-1.8-2.5-1.8-4.4c0-1.3,0.3-2.4,0.8-3.3c0.6-0.9,1.3-1.6,2.3-2s2.1-0.7,3.3-0.7c2,0,3.6,0.5,4.7,1.5c1.2,1,1.7,2.7,1.7,5
			h-10.4c0.1,1.1,0.5,1.8,1.2,2.3s1.7,0.7,3,0.7C1563.6,418.2,1564.4,418,1565,417.7z M1558.5,413.2h7.7c-0.2-0.8-0.6-1.4-1.3-1.8
			c-0.6-0.4-1.5-0.6-2.6-0.6C1560.2,410.8,1558.9,411.6,1558.5,413.2z"/>
		<path class="st0" d="M1572.8,416.4c0,0.5,0.2,0.8,0.5,1.1c0.3,0.3,0.7,0.5,1.3,0.6c0.6,0.1,1.4,0.2,2.5,0.2c1,0,1.8,0,2.3-0.2
			s0.9-0.2,1-0.4c0.2-0.2,0.3-0.5,0.3-0.8c0-0.3-0.1-0.6-0.3-0.8c-0.2-0.2-0.5-0.3-1.1-0.4s-1.4-0.2-2.7-0.3
			c-1.5-0.1-2.6-0.3-3.4-0.5s-1.4-0.5-1.8-0.9c-0.4-0.4-0.6-1.1-0.6-1.9c0-1.3,0.5-2.2,1.6-2.7c1.1-0.5,2.5-0.8,4.4-0.8
			c1.9,0,3.3,0.3,4.4,0.8c1.1,0.5,1.6,1.5,1.7,2.9h-2.5c0-0.4-0.2-0.7-0.4-0.9c-0.3-0.2-0.7-0.4-1.2-0.4c-0.5-0.1-1.3-0.1-2.2-0.1
			c-1.2,0-2.1,0.1-2.6,0.3c-0.5,0.2-0.7,0.5-0.7,0.9c0,0.3,0.1,0.5,0.3,0.6c0.2,0.1,0.5,0.3,1.1,0.4c0.5,0.1,1.4,0.2,2.6,0.3
			l0.6,0.1c1.4,0.1,2.4,0.3,3.1,0.5c0.7,0.2,1.3,0.5,1.7,0.9c0.4,0.5,0.6,1.1,0.6,2c0,1.4-0.5,2.4-1.5,3c-1,0.5-2.5,0.8-4.4,0.8
			c-2.1,0-3.8-0.3-5-0.9c-1.2-0.6-1.9-1.7-1.9-3.3H1572.8z"/>
		<path class="st0" d="M1586.5,410.1c1.2-1,2.7-1.5,4.7-1.5c1.8,0,3.2,0.4,4.3,1.2s1.7,2,2,3.5h-2.5c-0.2-0.8-0.6-1.4-1.2-1.8
			c-0.6-0.4-1.5-0.6-2.6-0.6c-2.7,0-4.1,1.2-4.1,3.6c0,2.4,1.4,3.6,4.1,3.6c1.1,0,2-0.2,2.6-0.6c0.6-0.4,1-1,1.2-1.8h2.5
			c-0.3,1.6-0.9,2.7-2,3.5c-1.1,0.8-2.5,1.2-4.3,1.2c-2,0-3.6-0.5-4.7-1.5c-1.2-1-1.7-2.5-1.7-4.4
			C1584.8,412.6,1585.3,411.1,1586.5,410.1z"/>
		<path class="st0" d="M1608.3,417.7c0.6-0.3,1-0.8,1.2-1.3h2.4c-0.3,1.3-1,2.3-2,3.1c-1.1,0.7-2.4,1.1-4.2,1.1
			c-2,0-3.6-0.5-4.8-1.5c-1.2-1-1.8-2.5-1.8-4.4c0-1.3,0.3-2.4,0.8-3.3c0.6-0.9,1.3-1.6,2.3-2s2.1-0.7,3.3-0.7c2,0,3.6,0.5,4.7,1.5
			c1.2,1,1.7,2.7,1.7,5h-10.4c0.1,1.1,0.5,1.8,1.2,2.3s1.7,0.7,3,0.7C1606.9,418.2,1607.7,418,1608.3,417.7z M1601.8,413.2h7.7
			c-0.2-0.8-0.6-1.4-1.3-1.8c-0.6-0.4-1.5-0.6-2.6-0.6C1603.5,410.8,1602.2,411.6,1601.8,413.2z"/>
		<path class="st0" d="M1625.8,410c0.9,0.9,1.4,2.4,1.4,4.5v5.7h-2.3v-4.9c0-1.4-0.3-2.5-0.8-3.2c-0.6-0.7-1.5-1-2.9-1
			c-1.4,0-2.6,0.4-3.4,1.2c-0.8,0.8-1.3,1.9-1.3,3.5v4.4h-2.3V409h2.3v2.5c0.6-0.9,1.4-1.7,2.2-2.1c0.9-0.5,2-0.7,3.2-0.7
			C1623.6,408.6,1624.9,409.1,1625.8,410z"/>
		<path class="st0" d="M1639.7,404.9h2.3v15.2h-2.3v-1.9c-0.5,0.7-1.1,1.3-1.9,1.7c-0.8,0.4-1.8,0.6-2.9,0.6c-1.1,0-2-0.2-2.9-0.6
			c-0.9-0.4-1.5-1.1-2.1-2s-0.8-2-0.8-3.3s0.3-2.4,0.8-3.3s1.2-1.5,2.1-2s1.8-0.6,2.9-0.6c1.1,0,2.1,0.2,2.9,0.6
			c0.8,0.4,1.5,1,1.9,1.7V404.9z M1638.6,417.1c0.7-0.6,1.1-1.5,1.1-2.6c0-1.1-0.4-2-1.1-2.6s-1.7-0.9-3-0.9c-1.3,0-2.3,0.3-3,0.9
			s-1,1.5-1,2.6c0,1.1,0.3,2,1,2.6s1.7,0.9,3,0.9C1636.9,418.1,1637.9,417.8,1638.6,417.1z"/>
		<path class="st0" d="M1654.1,409.2c0.9,0.4,1.5,1,1.9,1.8c0.4,0.8,0.7,2,0.7,3.4v5.7h-2.3v-1.4c-1,0.5-2,1-3,1.3s-2,0.5-3.1,0.5
			c-2.9,0-4.4-1.3-4.4-3.8c0-1.4,0.5-2.4,1.5-3c1-0.6,2.4-0.9,4-0.9c1.6,0,3.2,0.3,4.8,0.8c0-1.1-0.4-1.8-1.2-2.2s-1.7-0.6-2.7-0.6
			c-0.8,0-1.5,0.1-2.4,0.2c-0.8,0.1-1.7,0.4-2.7,0.8l-0.7-2.1c1-0.4,2-0.6,3-0.8c1-0.2,2-0.3,3-0.3
			C1652.1,408.6,1653.2,408.8,1654.1,409.2z M1651.6,417.8c1-0.3,1.9-0.6,2.8-1v-1.1c-1.6-0.5-3.1-0.8-4.6-0.8
			c-2.2,0-3.3,0.6-3.3,1.7c0,0.6,0.2,1,0.6,1.3c0.4,0.2,1.1,0.3,2,0.3C1649.8,418.2,1650.6,418,1651.6,417.8z"/>
		<path class="st0" d="M1670.6,410c0.9,0.9,1.4,2.4,1.4,4.5v5.7h-2.3v-4.9c0-1.4-0.3-2.5-0.8-3.2c-0.6-0.7-1.5-1-2.9-1
			c-1.4,0-2.6,0.4-3.4,1.2c-0.8,0.8-1.3,1.9-1.3,3.5v4.4h-2.3V409h2.3v2.5c0.6-0.9,1.4-1.7,2.2-2.1c0.9-0.5,2-0.7,3.2-0.7
			C1668.4,408.6,1669.7,409.1,1670.6,410z"/>
		<path class="st0" d="M1682.8,411.3h-4.5v4c0,0.7,0.1,1.3,0.2,1.7c0.1,0.4,0.3,0.6,0.6,0.8c0.3,0.2,0.7,0.2,1.3,0.2
			c0.7,0,1.5-0.1,2.4-0.2v2.3c-1.1,0.2-2.1,0.3-3,0.3c-1,0-1.7-0.1-2.3-0.4c-0.6-0.3-1-0.8-1.2-1.5c-0.2-0.7-0.4-1.6-0.4-2.8v-4.5
			h-2.6V409h2.6v-2.5l2.3-0.9v3.4h4.5V411.3z"/>
		<path class="st0" d="M1693.6,417.7c0.6-0.3,1-0.8,1.2-1.3h2.4c-0.3,1.3-1,2.3-2,3.1c-1.1,0.7-2.4,1.1-4.2,1.1
			c-2,0-3.6-0.5-4.8-1.5c-1.2-1-1.8-2.5-1.8-4.4c0-1.3,0.3-2.4,0.8-3.3c0.6-0.9,1.3-1.6,2.3-2s2.1-0.7,3.3-0.7c2,0,3.6,0.5,4.7,1.5
			c1.2,1,1.7,2.7,1.7,5H1687c0.1,1.1,0.5,1.8,1.2,2.3s1.7,0.7,3,0.7C1692.2,418.2,1693.1,418,1693.6,417.7z M1687.2,413.2h7.7
			c-0.2-0.8-0.6-1.4-1.3-1.8c-0.6-0.4-1.5-0.6-2.6-0.6C1688.9,410.8,1687.6,411.6,1687.2,413.2z"/>
	</g>
	<g>
		<g>
			<path class="st0" d="M47,276.4v2.7l-2.8,1.3v7.7l2.8,1.3v2.7l-13.4-6.2v-3.2L47,276.4z M35.8,284.2l6,2.7v-5.5L35.8,284.2z"/>
			<path class="st0" d="M43.2,273.1c0.5,0,0.8-0.2,1.1-0.5c0.3-0.3,0.5-0.7,0.6-1.3c0.1-0.6,0.2-1.4,0.2-2.5c0-1-0.1-1.8-0.2-2.3
				c-0.1-0.5-0.2-0.9-0.4-1c-0.2-0.2-0.5-0.3-0.8-0.3c-0.3,0-0.6,0.1-0.8,0.3c-0.2,0.2-0.3,0.5-0.4,1.1c-0.1,0.5-0.2,1.4-0.3,2.7
				c-0.1,1.5-0.3,2.6-0.5,3.4c-0.2,0.8-0.5,1.4-0.9,1.8c-0.4,0.4-1.1,0.6-1.9,0.6c-1.3,0-2.2-0.5-2.7-1.6c-0.5-1.1-0.8-2.5-0.8-4.4
				c0-1.9,0.3-3.3,0.8-4.4s1.5-1.6,2.9-1.7v2.5c-0.4,0-0.7,0.2-0.9,0.4c-0.2,0.3-0.4,0.7-0.4,1.2c-0.1,0.5-0.1,1.3-0.1,2.2
				c0,1.2,0.1,2.1,0.3,2.6c0.2,0.5,0.5,0.7,0.9,0.7c0.3,0,0.5-0.1,0.6-0.3c0.1-0.2,0.3-0.5,0.4-1.1c0.1-0.5,0.2-1.4,0.3-2.6l0.1-0.6
				c0.1-1.4,0.3-2.4,0.5-3.1c0.2-0.7,0.5-1.3,0.9-1.7c0.4-0.4,1.1-0.6,2-0.6c1.4,0,2.4,0.5,3,1.5c0.5,1,0.8,2.5,0.8,4.4
				c0,2.1-0.3,3.8-0.9,5c-0.6,1.2-1.7,1.9-3.3,1.9V273.1z"/>
			<path class="st0" d="M37,259.4c-1-1.2-1.5-2.7-1.5-4.7c0-1.8,0.4-3.2,1.2-4.3c0.8-1.1,2-1.7,3.5-2v2.5c-0.8,0.2-1.4,0.6-1.8,1.2
				c-0.4,0.6-0.6,1.5-0.6,2.6c0,2.7,1.2,4.1,3.6,4.1s3.6-1.4,3.6-4.1c0-1.1-0.2-2-0.6-2.6c-0.4-0.6-1-1-1.8-1.2v-2.5
				c1.6,0.3,2.7,0.9,3.5,2c0.8,1.1,1.2,2.5,1.2,4.3c0,2-0.5,3.6-1.5,4.7c-1,1.2-2.5,1.7-4.4,1.7S38,260.6,37,259.4z"/>
			<path class="st0" d="M44.6,237.6c-0.3-0.6-0.8-1-1.3-1.2V234c1.3,0.3,2.3,1,3.1,2c0.7,1.1,1.1,2.4,1.1,4.2c0,2-0.5,3.6-1.5,4.8
				c-1,1.2-2.5,1.8-4.4,1.8c-1.3,0-2.4-0.3-3.3-0.8c-0.9-0.6-1.6-1.3-2-2.3c-0.4-1-0.7-2.1-0.7-3.3c0-2,0.5-3.6,1.5-4.7
				c1-1.2,2.7-1.7,5-1.7v10.4c1.1-0.1,1.8-0.5,2.3-1.2c0.5-0.7,0.7-1.7,0.7-3C45.1,239,44.9,238.2,44.6,237.6z M40.1,244.1v-7.7
				c-0.8,0.2-1.4,0.6-1.8,1.3c-0.4,0.6-0.6,1.5-0.6,2.6C37.7,242.4,38.5,243.7,40.1,244.1z"/>
			<path class="st0" d="M36.9,220.1c0.9-0.9,2.4-1.4,4.5-1.4H47v2.3h-4.9c-1.4,0-2.5,0.3-3.2,0.8s-1,1.5-1,2.9
				c0,1.4,0.4,2.6,1.2,3.4c0.8,0.8,1.9,1.3,3.5,1.3H47v2.3H35.9v-2.3h2.5c-0.9-0.6-1.7-1.4-2.1-2.2c-0.5-0.9-0.7-2-0.7-3.2
				C35.5,222.3,35.9,221.1,36.9,220.1z"/>
			<path class="st0" d="M31.8,206.3v-2.3H47v2.3h-1.9c0.7,0.5,1.3,1.1,1.7,1.9c0.4,0.8,0.6,1.8,0.6,2.9c0,1.1-0.2,2-0.6,2.9
				c-0.4,0.9-1.1,1.5-2,2.1c-0.9,0.5-2,0.8-3.3,0.8s-2.4-0.3-3.3-0.8c-0.9-0.5-1.5-1.2-2-2.1c-0.4-0.9-0.6-1.8-0.6-2.9
				c0-1.1,0.2-2.1,0.6-2.9c0.4-0.8,1-1.5,1.7-1.9H31.8z M44,207.3c-0.6-0.7-1.5-1.1-2.6-1.1c-1.1,0-2,0.4-2.6,1.1
				c-0.6,0.7-0.9,1.7-0.9,3c0,1.3,0.3,2.3,0.9,3c0.6,0.7,1.5,1,2.6,1s2-0.3,2.6-1c0.6-0.7,0.9-1.7,0.9-3C44.9,209,44.6,208,44,207.3
				z"/>
			<path class="st0" d="M36,191.8c0.4-0.9,1-1.5,1.8-1.9c0.8-0.4,2-0.7,3.4-0.7H47v2.3h-1.4c0.5,1,1,2,1.3,3c0.3,1,0.5,2,0.5,3.1
				c0,2.9-1.3,4.4-3.8,4.4c-1.4,0-2.4-0.5-3-1.5c-0.6-1-0.9-2.4-0.9-4c0-1.6,0.3-3.2,0.8-4.8c-1.1,0-1.8,0.4-2.2,1.2
				s-0.6,1.7-0.6,2.7c0,0.8,0.1,1.5,0.2,2.4c0.1,0.8,0.4,1.7,0.8,2.7l-2.1,0.7c-0.4-1-0.6-2-0.8-3c-0.2-1-0.3-2-0.3-3
				C35.5,193.8,35.7,192.7,36,191.8z M44.6,194.3c-0.3-1-0.6-1.9-1-2.8h-1.1c-0.5,1.6-0.8,3.1-0.8,4.6c0,2.2,0.6,3.3,1.7,3.3
				c0.6,0,1-0.2,1.3-0.6c0.2-0.4,0.3-1.1,0.3-2C45.1,196.2,44.9,195.3,44.6,194.3z"/>
			<path class="st0" d="M36.9,175.3c0.9-0.9,2.4-1.4,4.5-1.4H47v2.3h-4.9c-1.4,0-2.5,0.3-3.2,0.8s-1,1.5-1,2.9
				c0,1.4,0.4,2.6,1.2,3.4c0.8,0.8,1.9,1.3,3.5,1.3H47v2.3H35.9v-2.3h2.5c-0.9-0.6-1.7-1.4-2.1-2.2c-0.5-0.9-0.7-2-0.7-3.2
				C35.5,177.5,35.9,176.2,36.9,175.3z"/>
			<path class="st0" d="M38.2,163.1v4.5h4c0.7,0,1.3-0.1,1.7-0.2c0.4-0.1,0.6-0.3,0.8-0.6c0.2-0.3,0.2-0.7,0.2-1.3
				c0-0.7-0.1-1.5-0.2-2.4H47c0.2,1.1,0.3,2.1,0.3,3c0,1-0.1,1.7-0.4,2.3c-0.3,0.6-0.8,1-1.5,1.2c-0.7,0.2-1.6,0.4-2.8,0.4h-4.5v2.6
				h-2.3V170h-2.5l-0.9-2.3h3.4v-4.5H38.2z"/>
			<path class="st0" d="M44.6,152.3c-0.3-0.6-0.8-1-1.3-1.2v-2.4c1.3,0.3,2.3,1,3.1,2c0.7,1.1,1.1,2.4,1.1,4.2c0,2-0.5,3.6-1.5,4.8
				c-1,1.2-2.5,1.8-4.4,1.8c-1.3,0-2.4-0.3-3.3-0.8c-0.9-0.6-1.6-1.3-2-2.3c-0.4-1-0.7-2.1-0.7-3.3c0-2,0.5-3.6,1.5-4.7
				c1-1.2,2.7-1.7,5-1.7v10.4c1.1-0.1,1.8-0.5,2.3-1.2c0.5-0.7,0.7-1.7,0.7-3C45.1,153.7,44.9,152.9,44.6,152.3z M40.1,158.8v-7.7
				c-0.8,0.2-1.4,0.6-1.8,1.3c-0.4,0.6-0.6,1.5-0.6,2.6C37.7,157.1,38.5,158.4,40.1,158.8z"/>
		</g>
	</g>
</g>
</svg>
