<svg xmlns="http://www.w3.org/2000/svg" viewBox="0 0 1242.72 725.58"><defs><style>.cls-1{isolation:isolate;}.cls-2{fill:none;stroke:#fff;stroke-width:3px;}.cls-3{fill:#fff;}.cls-4{fill:#e95925;}</style></defs><title>typeface</title><g id="Calque_2" data-name="Calque 2"><g id="mask"><g id="Typeface" class="cls-1"><g class="cls-1"><path class="cls-2" d="M137.52,40.38v20.1h-53v85.8H61.47V60.48H8.52V40.38Z"/><path class="cls-2" d="M258.87,58.38h24l-51.3,93.75a107.15,107.15,0,0,1-12.15,18.45,42.28,42.28,0,0,1-13.95,10.88,43.35,43.35,0,0,1-18.9,3.82,115.47,115.47,0,0,1-14.77-.9q-7-.9-15.08-2.55v-18.6a118.77,118.77,0,0,0,25.95,3.3A35,35,0,0,0,193.85,165a20.67,20.67,0,0,0,8.4-5.71,56.12,56.12,0,0,0,7.87-11.77l.6-1.2H199l-48-87.9h24.3l41.7,76.5Z"/><path class="cls-2" d="M397.47,60.48a43.58,43.58,0,0,1,19.58,15.6q7.26,10.5,7.27,26.25t-7.27,26.25a43.58,43.58,0,0,1-19.58,15.6,71.44,71.44,0,0,1-27.6,5.1q-15.9,0-27.52-4.65a41.11,41.11,0,0,1-18.23-13.5v51.15h-22.2V58.38h22.2V73.53A41.11,41.11,0,0,1,342.35,60q11.61-4.65,27.52-4.65A71.44,71.44,0,0,1,397.47,60.48ZM391,122.81q9.68-7.28,9.67-20.48T390.5,81.86q-10.12-7.27-28.73-7.28-18.45,0-28,7.28t-9.6,20.47q0,13,10.13,20.4t28.57,7.35Q381.27,130.08,391,122.81Z"/><path class="cls-2" d="M531.19,127.23q8.17-3.75,11.63-10.65h23.1q-4,15.6-19.13,24.15t-39.52,8.55q-28.65,0-45.53-11.92t-16.87-35q0-15.45,7.87-25.95t21.68-15.75q13.8-5.25,31.5-5.25,28.35,0,44.85,12.23t16.5,39.52h-99q1.5,12.45,11.4,18.15t28.05,5.7Q523,131,531.19,127.23Zm-61.72-35.7h73.35a22.4,22.4,0,0,0-12.08-14.32q-9.22-4.58-24.82-4.58Q475.47,72.63,469.47,91.53Z"/><path class="cls-2" d="M636.27,43.08a9.75,9.75,0,0,0-6.15,5q-1.65,3.53-1.8,10.27h39.3v18.3h-39.3v69.6h-22.2V76.68h-25.2V58.38h25.2V56q0-31.65,35-31.65,7.35,0,12.82.3t13.73,1.2V42.48q-10.8-.9-18.15-.9Q640.77,41.58,636.27,43.08Z"/><path class="cls-2" d="M781.32,59.81q12.3,4.42,18.52,14.47t6.38,27v45H784.17v-11.1a162.7,162.7,0,0,1-28,10,117.78,117.78,0,0,1-29.25,3.6q-41.55,0-41.55-29.7,0-16.2,14.7-23.47t38.1-7.28a170.21,170.21,0,0,1,46,6.6q-.45-12.75-11.78-17.32A67.32,67.32,0,0,0,747,73.08a158,158,0,0,0-22.35,1.65,164.82,164.82,0,0,0-25.5,6l-6.45-16.65a223.62,223.62,0,0,1,28.42-6.52,183.55,183.55,0,0,1,28.73-2.18Q769,55.38,781.32,59.81Zm-23.7,67.94a233.68,233.68,0,0,0,26.55-7.57v-8.85a168,168,0,0,0-44.1-6.15q-31.2,0-31.2,13.35,0,7.35,6.07,9.9T733.77,131Q743.37,131,757.62,127.75Z"/><path class="cls-2" d="M845.82,67.23Q862.32,55.38,891,55.38q25.2,0,40.57,9.3t19.13,27.9H927.12a22.57,22.57,0,0,0-11.63-13.87q-8.78-4.58-24.52-4.58-38.55,0-38.55,28.2T891,130.53q15.6,0,24.45-4.57a22.54,22.54,0,0,0,11.7-13.88h23.55q-3.75,18.45-19.13,27.83T891,149.28q-28.65,0-45.15-11.85t-16.5-35.1Q829.32,79.08,845.82,67.23Z"/><path class="cls-2" d="M1057.54,127.23q8.18-3.75,11.63-10.65h23.1q-4.05,15.6-19.13,24.15t-39.52,8.55q-28.66,0-45.53-11.92t-16.87-35q0-15.45,7.87-25.95t21.68-15.75q13.79-5.25,31.5-5.25,28.35,0,44.85,12.23t16.5,39.52h-99q1.49,12.45,11.4,18.15t28,5.7Q1049.37,131,1057.54,127.23Zm-61.72-35.7h73.35a22.43,22.43,0,0,0-12.08-14.32q-9.22-4.58-24.82-4.58Q1001.81,72.63,995.82,91.53Z"/></g></g><g id="Monument" class="cls-1"><g class="cls-1"><path class="cls-3" d="M175.47,200.88v105.9h-23.1V221.43l-49.05,85.35H82.17L33,221.43v85.35H10V200.88H46.17l46.5,79.5,46.5-79.5Z"/><path class="cls-3" d="M216.8,297.78q-16.58-12-16.58-34.95t16.58-34.95q16.56-12,45.52-12,28.8,0,45.45,12t16.65,34.95q0,22.95-16.65,34.95t-45.45,12Q233.37,309.78,216.8,297.78Zm84.07-34.95q0-28.2-38.55-28.2t-38.55,28.2q0,28.2,38.55,28.2T300.87,262.83Z"/><path class="cls-3" d="M459.34,226.83q13,10.95,13.13,35.25v44.7H450.42V268.23q0-17-7.95-25.05t-27.3-8.1q-20.25,0-32.33,9.38t-12.07,27.37v34.95h-22v-87.9h22v19.8a57.5,57.5,0,0,1,21.3-17q12.6-5.85,30.6-5.85Q446.37,215.88,459.34,226.83Z"/><path class="cls-3" d="M601.77,218.88h22.05v87.9H601.77V287a57.5,57.5,0,0,1-21.3,16.95q-12.6,5.85-30.6,5.85-23.7,0-36.67-10.95t-13.13-35.25v-44.7h22.2v38.55q0,16.95,7.88,25.05t27.22,8.1q20.25,0,32.33-9.37t12.07-27.38Z"/><path class="cls-3" d="M831.05,226.31q10.86,10.42,11,32.32v48.15h-22.2V261q0-13.35-6.37-19.65t-21.23-6.3a40.89,40.89,0,0,0-16.57,3.38,29.37,29.37,0,0,0-12.53,10.2,27.8,27.8,0,0,0-4.8,16.42v41.7h-22V261q0-13.2-6.45-19.57t-21.3-6.38A40.89,40.89,0,0,0,692,238.46a29.37,29.37,0,0,0-12.53,10.2,27.8,27.8,0,0,0-4.8,16.42v41.7h-22v-87.9h22V236q15.6-20.1,42.3-20.1,14.7,0,24.53,5.93t14,18.07q16.35-24,45.15-24Q820.17,215.88,831.05,226.31Z"/><path class="cls-3" d="M951.65,287.73q8.16-3.75,11.62-10.65h23.1q-4.05,15.6-19.12,24.15t-39.53,8.55q-28.65,0-45.52-11.92t-16.88-35q0-15.45,7.88-25.95t21.67-15.75q13.8-5.25,31.5-5.25,28.35,0,44.85,12.23t16.5,39.52h-99q1.5,12.45,11.4,18.15t28,5.7Q943.47,291.48,951.65,287.73ZM889.92,252h73.35a22.39,22.39,0,0,0-12.07-14.32q-9.23-4.58-24.83-4.58Q895.92,233.13,889.92,252Z"/><path class="cls-3" d="M1122.49,226.83q13,10.95,13.13,35.25v44.7h-22V268.23q0-17-8-25.05t-27.3-8.1q-20.25,0-32.33,9.38t-12.07,27.37v34.95h-22.05v-87.9h22.05v19.8a57.5,57.5,0,0,1,21.3-17q12.6-5.85,30.6-5.85Q1109.52,215.88,1122.49,226.83Z"/><path class="cls-3" d="M1242.72,237.18h-43V269q0,8.85,1.58,13.35a10.41,10.41,0,0,0,5.77,6.38q4.2,1.88,12.75,1.87a164.6,164.6,0,0,0,23-1.95v18.45a168,168,0,0,1-28,2.7q-14,0-22-3.45a21.38,21.38,0,0,1-11.55-11.47q-3.54-8-3.53-22.28v-35.4h-24.3v-18.3h24.3V199.23l22.05-6.9v26.55h43Z"/></g></g><g id="Extended" class="cls-1"><g class="cls-1"><path class="cls-3" d="M121,358.88v19.2H33v24.15H118v19.2H33v24.15H121v19.2H10V358.88Z"/><path class="cls-3" d="M172.17,464.78h-32.1l51.3-43.95-51.3-43.95h32.1l33.45,30.6,33.45-30.6h32.25l-51.45,43.95,51.45,43.95H239.07l-33.45-30.6Z"/><path class="cls-3" d="M376.77,395.18h-43V427q0,8.85,1.58,13.35a10.41,10.41,0,0,0,5.77,6.38q4.2,1.88,12.75,1.87a164.6,164.6,0,0,0,22.95-1.95v18.45a168,168,0,0,1-28,2.7q-14,0-22-3.45a21.38,21.38,0,0,1-11.55-11.47q-3.54-8-3.53-22.28v-35.4h-24.3v-18.3h24.3V357.23l22.05-6.9v26.55h43Z"/><path class="cls-3" d="M484.25,445.73q8.16-3.75,11.62-10.65H519q-4.05,15.6-19.12,24.15t-39.53,8.55q-28.65,0-45.52-11.92t-16.88-35q0-15.45,7.88-25.95t21.67-15.75q13.8-5.25,31.5-5.25,28.35,0,44.85,12.23t16.5,39.52h-99q1.5,12.45,11.4,18.15t28,5.7Q476.07,449.48,484.25,445.73ZM422.52,410h73.35a22.39,22.39,0,0,0-12.07-14.32q-9.23-4.57-24.83-4.58Q428.52,391.13,422.52,410Z"/><path class="cls-3" d="M655.09,384.83q13,10.95,13.13,35.25v44.7H646.17V426.23q0-17-7.95-25.05t-27.3-8.1q-20.25,0-32.33,9.38t-12.07,27.37v34.95h-22v-87.9h22v19.8a57.5,57.5,0,0,1,21.3-16.95q12.6-5.85,30.6-5.85Q642.12,373.88,655.09,384.83Z"/><path class="cls-3" d="M791.67,344.78h22.05v120H791.67V449.63a42.24,42.24,0,0,1-18.37,13.5q-11.62,4.65-27.53,4.65a70.86,70.86,0,0,1-27.52-5.1,43.46,43.46,0,0,1-19.5-15.6q-7.29-10.5-7.28-26.25t7.28-26.25a43.46,43.46,0,0,1,19.5-15.6,70.86,70.86,0,0,1,27.52-5.1q15.9,0,27.53,4.65A42.24,42.24,0,0,1,791.67,392Zm-10.12,96.45q10.13-7.35,10.12-20.4t-10.12-20.47q-10.12-7.28-28.73-7.28-18.45,0-28.05,7.28t-9.6,20.47q0,13.2,9.6,20.48t28.05,7.27Q771.42,448.58,781.55,441.23Z"/><path class="cls-3" d="M924.8,445.73Q933,442,936.42,435.08h23.1q-4,15.6-19.12,24.15t-39.53,8.55q-28.65,0-45.52-11.92t-16.88-35q0-15.45,7.88-25.95T868,379.13q13.8-5.25,31.5-5.25,28.35,0,44.85,12.23t16.5,39.52h-99q1.5,12.45,11.4,18.15t28.05,5.7Q916.62,449.48,924.8,445.73ZM863.07,410h73.35a22.39,22.39,0,0,0-12.07-14.32q-9.23-4.57-24.83-4.58Q869.07,391.13,863.07,410Z"/><path class="cls-3" d="M1081.62,344.78h22.05v120h-22.05V449.63a42.21,42.21,0,0,1-18.38,13.5q-11.62,4.65-27.52,4.65a70.91,70.91,0,0,1-27.53-5.1,43.57,43.57,0,0,1-19.5-15.6q-7.28-10.5-7.27-26.25t7.27-26.25a43.57,43.57,0,0,1,19.5-15.6,70.91,70.91,0,0,1,27.53-5.1q15.9,0,27.52,4.65a42.21,42.21,0,0,1,18.38,13.5Zm-10.13,96.45q10.13-7.35,10.13-20.4t-10.13-20.47q-10.12-7.28-28.72-7.28t-28,7.28q-9.6,7.27-9.6,20.47t9.6,20.48q9.6,7.28,28,7.27Q1061.37,448.58,1071.49,441.23Z"/></g></g><g id="Conçue_par_Mat_Desjardins_pour_sa_fonderie_Pangram_Pangram" data-name="Conçue par Mat Desjardins pour sa fonderie Pangram Pangram" class="cls-1"><g class="cls-1"><path class="cls-3" d="M3.41,650.91Q6.8,648,13.44,648a18.49,18.49,0,0,1,6.64,1.07A10.13,10.13,0,0,1,24.41,652a8.66,8.66,0,0,1,1.87,4.41h-5a4.68,4.68,0,0,0-2.4-3.22A10.73,10.73,0,0,0,13.44,652a10,10,0,0,0-6.35,1.77,6.5,6.5,0,0,0-2.2,5.37,6.59,6.59,0,0,0,2.2,5.42,9.9,9.9,0,0,0,6.35,1.78,10.56,10.56,0,0,0,5.45-1.21,4.8,4.8,0,0,0,2.41-3.29h5a9.05,9.05,0,0,1-1.9,4.44,10.12,10.12,0,0,1-4.33,3,18.26,18.26,0,0,1-6.64,1.08q-6.63,0-10-2.94c-2.28-2-3.41-4.72-3.41-8.28S1.13,652.85,3.41,650.91Z"/><path class="cls-3" d="M33.74,668a9,9,0,0,1,0-14c2.2-1.6,5.24-2.4,9.1-2.4s6.87.8,9.09,2.4a9,9,0,0,1,0,14q-3.33,2.4-9.09,2.4C39,670.38,35.94,669.58,33.74,668Zm16.81-7q0-5.64-7.71-5.64T35.13,661q0,5.64,7.71,5.64T50.55,661Z"/><path class="cls-3" d="M82.25,653.79c1.72,1.46,2.6,3.81,2.62,7.05v8.94H80.46v-7.71q0-3.39-1.59-5t-5.46-1.62a10.28,10.28,0,0,0-6.47,1.88,6.5,6.5,0,0,0-2.41,5.47v7H60.12V652.2h4.41v4a11.5,11.5,0,0,1,4.26-3.39,14.46,14.46,0,0,1,6.12-1.17C78.07,651.6,80.51,652.33,82.25,653.79Z"/><path class="cls-3" d="M106.74,665.71a4.47,4.47,0,0,0,2.34-2.77h4.71a8.06,8.06,0,0,1-3.62,5.43,14.79,14.79,0,0,1-7.63,2l-.36,1.71a5.59,5.59,0,0,1,2.4-.48,3.75,3.75,0,0,1,2.19.59,1.86,1.86,0,0,1,.84,1.63,2.62,2.62,0,0,1-1.8,2.48,11.78,11.78,0,0,1-4.65.79,26.3,26.3,0,0,1-3-.21v-2.52a27,27,0,0,0,3.75.36q1.92,0,1.92-.87,0-.69-1-.69a4.72,4.72,0,0,0-1.8.45l-2.07-.78.51-2.58a12.36,12.36,0,0,1-7.27-2.8A8.22,8.22,0,0,1,89.52,661a8.09,8.09,0,0,1,3.3-7q3.3-2.37,9-2.37a15.51,15.51,0,0,1,8.11,1.86,8.08,8.08,0,0,1,3.83,5.58h-4.71a4.51,4.51,0,0,0-2.33-2.77,10.74,10.74,0,0,0-4.9-.92q-7.71,0-7.71,5.64t7.71,5.64A10.65,10.65,0,0,0,106.74,665.71Z"/><path class="cls-3" d="M138.87,652.2h4.41v17.58h-4.41v-4a11.5,11.5,0,0,1-4.26,3.39,14.46,14.46,0,0,1-6.12,1.17c-3.16,0-5.61-.73-7.33-2.19s-2.61-3.81-2.63-7.05V652.2H123v7.71a7,7,0,0,0,1.57,5q1.58,1.62,5.45,1.62a10.3,10.3,0,0,0,6.47-1.87,6.52,6.52,0,0,0,2.41-5.48Z"/><path class="cls-3" d="M165.38,666a4.63,4.63,0,0,0,2.32-2.13h4.62a7.64,7.64,0,0,1-3.82,4.83,16,16,0,0,1-7.91,1.71c-3.82,0-6.85-.8-9.1-2.38a8,8,0,0,1-3.38-7,8.41,8.41,0,0,1,1.58-5.19,9.46,9.46,0,0,1,4.33-3.15,17.63,17.63,0,0,1,6.3-1c3.78,0,6.77.82,9,2.44s3.3,4.27,3.3,7.91h-19.8a4.56,4.56,0,0,0,2.28,3.63,11.35,11.35,0,0,0,5.61,1.14A11.64,11.64,0,0,0,165.38,666ZM153,658.83H167.7a4.54,4.54,0,0,0-2.41-2.87,11.46,11.46,0,0,0-5-.91Q154.23,655.05,153,658.83Z"/><path class="cls-3" d="M209.85,652.62a8.69,8.69,0,0,1,3.91,3.12,10.17,10.17,0,0,1,0,10.5,8.69,8.69,0,0,1-3.91,3.12,14.29,14.29,0,0,1-5.52,1,14.72,14.72,0,0,1-5.5-.93,8.19,8.19,0,0,1-3.65-2.7V677h-4.44V652.2h4.44v3a8.19,8.19,0,0,1,3.65-2.7,14.72,14.72,0,0,1,5.5-.93A14.29,14.29,0,0,1,209.85,652.62Zm-1.31,12.46a4.81,4.81,0,0,0,1.94-4.09,4.74,4.74,0,0,0-2-4.09,9.72,9.72,0,0,0-5.74-1.46,9.18,9.18,0,0,0-5.61,1.46,4.83,4.83,0,0,0-1.92,4.09,4.76,4.76,0,0,0,2,4.08,9.62,9.62,0,0,0,5.72,1.47A9.16,9.16,0,0,0,208.54,665.08Z"/><path class="cls-3" d="M238.2,652.49a6.94,6.94,0,0,1,3.7,2.89,10.36,10.36,0,0,1,1.28,5.4v9h-4.41v-2.22a32.54,32.54,0,0,1-5.61,2,23.56,23.56,0,0,1-5.85.72q-8.31,0-8.31-5.94a4.88,4.88,0,0,1,2.94-4.69,17.21,17.21,0,0,1,7.62-1.46,34,34,0,0,1,9.21,1.32,3.57,3.57,0,0,0-2.35-3.46,13.53,13.53,0,0,0-5.09-.92,31.61,31.61,0,0,0-4.47.33,33,33,0,0,0-5.1,1.2l-1.29-3.33a44.63,44.63,0,0,1,5.68-1.3,36.73,36.73,0,0,1,5.75-.44A18.88,18.88,0,0,1,238.2,652.49Zm-4.74,13.59a47.13,47.13,0,0,0,5.31-1.52v-1.77a33.59,33.59,0,0,0-8.82-1.23q-6.24,0-6.24,2.67a1.94,1.94,0,0,0,1.21,2,10.38,10.38,0,0,0,3.77.51A22.28,22.28,0,0,0,233.46,666.08Z"/><path class="cls-3" d="M265.8,652.29v3.93a16.83,16.83,0,0,0-2.39-.54,16.18,16.18,0,0,0-2.26-.15,11,11,0,0,0-4,.75,15.51,15.51,0,0,0-4.35,2.82v10.68H248.4V652.2h4.41v3.27a11.68,11.68,0,0,1,3.93-3,11,11,0,0,1,4.41-.86A14.66,14.66,0,0,1,265.8,652.29Z"/><path class="cls-3" d="M316.86,648.6v21.18h-4.62V652.71l-9.81,17.07H298.2l-9.84-17.07v17.07h-4.59V648.6H291l9.3,15.9,9.3-15.9Z"/><path class="cls-3" d="M340.71,652.49a6.94,6.94,0,0,1,3.7,2.89,10.36,10.36,0,0,1,1.28,5.4v9h-4.41v-2.22a32.54,32.54,0,0,1-5.61,2,23.56,23.56,0,0,1-5.85.72q-8.31,0-8.31-5.94a4.88,4.88,0,0,1,2.94-4.69,17.21,17.21,0,0,1,7.62-1.46,34,34,0,0,1,9.21,1.32,3.57,3.57,0,0,0-2.36-3.46,13.44,13.44,0,0,0-5.08-.92,31.61,31.61,0,0,0-4.47.33,33,33,0,0,0-5.1,1.2L323,653.34a44.63,44.63,0,0,1,5.68-1.3,36.73,36.73,0,0,1,5.75-.44A18.88,18.88,0,0,1,340.71,652.49ZM336,666.08a47.13,47.13,0,0,0,5.31-1.52v-1.77a33.59,33.59,0,0,0-8.82-1.23q-6.24,0-6.24,2.67a1.94,1.94,0,0,0,1.21,2,10.38,10.38,0,0,0,3.77.51A22.28,22.28,0,0,0,336,666.08Z"/><path class="cls-3" d="M366.6,655.86H358v6.36a8.59,8.59,0,0,0,.31,2.67,2.1,2.1,0,0,0,1.16,1.28,6.59,6.59,0,0,0,2.55.37,32.92,32.92,0,0,0,4.59-.39v3.69a33.61,33.61,0,0,1-5.61.54,11.41,11.41,0,0,1-4.4-.69,4.28,4.28,0,0,1-2.31-2.29,11.39,11.39,0,0,1-.7-4.46v-7.08h-4.86V652.2h4.86v-3.93l4.41-1.38v5.31h8.61Z"/><path class="cls-3" d="M405.31,649.77a8.82,8.82,0,0,1,3.71,3.56,13.15,13.15,0,0,1,0,11.73,8.8,8.8,0,0,1-3.71,3.55,11.33,11.33,0,0,1-5.17,1.17H385V648.6h15.18A11.33,11.33,0,0,1,405.31,649.77Zm-7.36,16a14.2,14.2,0,0,0,4.21-.52,4.35,4.35,0,0,0,2.46-2,10.25,10.25,0,0,0,0-8.22,4.3,4.3,0,0,0-2.46-1.94,14.24,14.24,0,0,0-4.21-.51h-8.4v13.14Z"/><path class="cls-3" d="M431.77,666a4.65,4.65,0,0,0,2.33-2.13h4.62a7.62,7.62,0,0,1-3.83,4.83,15.93,15.93,0,0,1-7.9,1.71c-3.82,0-6.86-.8-9.11-2.38a8,8,0,0,1-3.37-7,8.4,8.4,0,0,1,1.57-5.19,9.49,9.49,0,0,1,4.34-3.15,17.63,17.63,0,0,1,6.3-1c3.78,0,6.77.82,9,2.44s3.3,4.27,3.3,7.91h-19.8a4.56,4.56,0,0,0,2.28,3.63,11.35,11.35,0,0,0,5.61,1.14A11.59,11.59,0,0,0,431.77,666Zm-12.34-7.14H434.1a4.52,4.52,0,0,0-2.42-2.87,11.41,11.41,0,0,0-5-.91Q420.63,655.05,419.43,658.83Z"/><path class="cls-3" d="M447.63,663.84a2.59,2.59,0,0,0,.9,1.77,5.34,5.34,0,0,0,2.52,1,27.85,27.85,0,0,0,4.74.32,28.79,28.79,0,0,0,4.33-.24,4,4,0,0,0,2-.7,1.73,1.73,0,0,0,.51-1.34,1.35,1.35,0,0,0-.53-1.18,5,5,0,0,0-2-.59c-1-.14-2.7-.3-5.14-.48a60.57,60.57,0,0,1-6.53-.73,7.51,7.51,0,0,1-3.51-1.47,3.71,3.71,0,0,1-1.21-3,4.39,4.39,0,0,1,3.06-4.33,28.8,28.8,0,0,1,16.72,0,5,5,0,0,1,3.29,4.5H462a1.9,1.9,0,0,0-.84-1.47,5.33,5.33,0,0,0-2.27-.7,34.08,34.08,0,0,0-4.15-.2,16.91,16.91,0,0,0-4.94.5c-.95.33-1.42.8-1.42,1.42a1.09,1.09,0,0,0,.52,1,6.1,6.1,0,0,0,2,.57q1.5.24,4.89.51l1.11.09q3.93.33,5.94.72a6.93,6.93,0,0,1,3.24,1.45,4,4,0,0,1,1.23,3.2,4.7,4.7,0,0,1-2.84,4.68q-2.83,1.29-8.41,1.29a26.45,26.45,0,0,1-9.57-1.39,5.32,5.32,0,0,1-3.6-5.15Z"/><path class="cls-3" d="M476.64,669a15.35,15.35,0,0,1-.62,4.74,5.33,5.33,0,0,1-2.13,2.87,7.43,7.43,0,0,1-4.15,1,30.85,30.85,0,0,1-5.31-.45v-3.6l1.9.21a17.73,17.73,0,0,0,1.79.09,6.55,6.55,0,0,0,2.61-.39,2.16,2.16,0,0,0,1.15-1.44,12.46,12.46,0,0,0,.32-3.3V652.2h4.44Zm-4.44-19v-4.2h4.44V650Z"/><path class="cls-3" d="M500.31,652.49a6.94,6.94,0,0,1,3.7,2.89,10.36,10.36,0,0,1,1.28,5.4v9h-4.41v-2.22a32.54,32.54,0,0,1-5.61,2,23.56,23.56,0,0,1-5.85.72q-8.31,0-8.31-5.94a4.88,4.88,0,0,1,2.94-4.69,17.21,17.21,0,0,1,7.62-1.46,34,34,0,0,1,9.21,1.32,3.57,3.57,0,0,0-2.36-3.46,13.44,13.44,0,0,0-5.08-.92,31.61,31.61,0,0,0-4.47.33,33,33,0,0,0-5.1,1.2l-1.29-3.33a44.63,44.63,0,0,1,5.68-1.3,36.73,36.73,0,0,1,5.75-.44A18.88,18.88,0,0,1,500.31,652.49Zm-4.74,13.59a47.13,47.13,0,0,0,5.31-1.52v-1.77a33.59,33.59,0,0,0-8.82-1.23q-6.24,0-6.24,2.67a1.94,1.94,0,0,0,1.21,2,10.38,10.38,0,0,0,3.77.51A22.28,22.28,0,0,0,495.57,666.08Z"/><path class="cls-3" d="M527.91,652.29v3.93a16.83,16.83,0,0,0-2.39-.54,16.18,16.18,0,0,0-2.26-.15,11,11,0,0,0-4,.75,15.51,15.51,0,0,0-4.35,2.82v10.68h-4.41V652.2h4.41v3.27a11.68,11.68,0,0,1,3.93-3,11,11,0,0,1,4.41-.86A14.66,14.66,0,0,1,527.91,652.29Z"/><path class="cls-3" d="M551.4,645.78h4.41v24H551.4v-3a8.45,8.45,0,0,1-3.68,2.7,14.76,14.76,0,0,1-5.5.93,14.2,14.2,0,0,1-5.51-1,8.71,8.71,0,0,1-3.9-3.12,10.23,10.23,0,0,1,0-10.5,8.71,8.71,0,0,1,3.9-3.12,14.2,14.2,0,0,1,5.51-1,14.76,14.76,0,0,1,5.5.93,8.45,8.45,0,0,1,3.68,2.7Zm-2,19.29a5.13,5.13,0,0,0,0-8.17,9.72,9.72,0,0,0-5.74-1.46A9.18,9.18,0,0,0,538,656.9a5.32,5.32,0,0,0,0,8.18,9.11,9.11,0,0,0,5.61,1.46A9.64,9.64,0,0,0,549.37,665.07Z"/><path class="cls-3" d="M561.36,650v-4.2h4.41V650Zm0,19.8V652.2h4.41v17.58Z"/><path class="cls-3" d="M593.65,653.79q2.6,2.19,2.63,7.05v8.94h-4.41v-7.71q0-3.39-1.59-5t-5.46-1.62a10.28,10.28,0,0,0-6.47,1.88,6.5,6.5,0,0,0-2.41,5.47v7h-4.41V652.2h4.41v4a11.5,11.5,0,0,1,4.26-3.39,14.46,14.46,0,0,1,6.12-1.17Q591.06,651.6,593.65,653.79Z"/><path class="cls-3" d="M605.46,663.84a2.59,2.59,0,0,0,.9,1.77,5.34,5.34,0,0,0,2.52,1,27.85,27.85,0,0,0,4.74.32,28.79,28.79,0,0,0,4.33-.24,4,4,0,0,0,2-.7,1.73,1.73,0,0,0,.51-1.34,1.35,1.35,0,0,0-.53-1.18,5,5,0,0,0-2-.59c-1-.14-2.7-.3-5.14-.48a60.57,60.57,0,0,1-6.53-.73,7.51,7.51,0,0,1-3.51-1.47,3.71,3.71,0,0,1-1.21-3,4.39,4.39,0,0,1,3.06-4.33,28.8,28.8,0,0,1,16.72,0,5,5,0,0,1,3.29,4.5h-4.74a1.9,1.9,0,0,0-.84-1.47,5.33,5.33,0,0,0-2.27-.7,34.08,34.08,0,0,0-4.15-.2,16.91,16.91,0,0,0-4.94.5c-1,.33-1.42.8-1.42,1.42a1.09,1.09,0,0,0,.52,1,6.1,6.1,0,0,0,2,.57q1.5.24,4.89.51l1.11.09q3.93.33,5.94.72a6.93,6.93,0,0,1,3.24,1.45,4,4,0,0,1,1.23,3.2,4.7,4.7,0,0,1-2.84,4.68q-2.83,1.29-8.41,1.29a26.45,26.45,0,0,1-9.57-1.39,5.32,5.32,0,0,1-3.6-5.15Z"/></g><g class="cls-1"><path class="cls-3" d="M19.41,700.62a8.77,8.77,0,0,1,3.92,3.12,10.23,10.23,0,0,1,0,10.5,8.77,8.77,0,0,1-3.92,3.12,14.29,14.29,0,0,1-5.52,1,14.72,14.72,0,0,1-5.5-.93,8.19,8.19,0,0,1-3.65-2.7V725H.3V700.2H4.74v3a8.19,8.19,0,0,1,3.65-2.7,14.72,14.72,0,0,1,5.5-.93A14.29,14.29,0,0,1,19.41,700.62ZM18.1,713.08A4.78,4.78,0,0,0,20,709a4.72,4.72,0,0,0-2-4.09,9.7,9.7,0,0,0-5.74-1.46,9.18,9.18,0,0,0-5.61,1.46A4.83,4.83,0,0,0,4.74,709a4.78,4.78,0,0,0,2,4.08,9.64,9.64,0,0,0,5.72,1.47A9.14,9.14,0,0,0,18.1,713.08Z"/><path class="cls-3" d="M32.2,716a9,9,0,0,1,0-14q3.31-2.4,9.11-2.4T50.4,702a9,9,0,0,1,0,14q-3.33,2.4-9.09,2.4T32.2,716ZM49,709q0-5.64-7.71-5.64T33.6,709q0,5.64,7.71,5.64T49,709Z"/><path class="cls-3" d="M78.84,700.2h4.41v17.58H78.84v-4a11.5,11.5,0,0,1-4.26,3.39,14.46,14.46,0,0,1-6.12,1.17c-3.16,0-5.61-.73-7.33-2.19s-2.61-3.81-2.63-7.05V700.2h4.44v7.71q0,3.39,1.57,5c1.06,1.08,2.87,1.62,5.45,1.62a10.25,10.25,0,0,0,6.46-1.87,6.52,6.52,0,0,0,2.42-5.48Z"/><path class="cls-3" d="M106.41,700.29v3.93a16.83,16.83,0,0,0-2.39-.54,16.18,16.18,0,0,0-2.26-.15,11,11,0,0,0-4,.75,15.51,15.51,0,0,0-4.35,2.82v10.68H89V700.2h4.41v3.27a11.68,11.68,0,0,1,3.93-3,11,11,0,0,1,4.41-.86A14.66,14.66,0,0,1,106.41,700.29Z"/><path class="cls-3" d="M128.7,711.84a2.59,2.59,0,0,0,.9,1.77,5.34,5.34,0,0,0,2.52,1,27.85,27.85,0,0,0,4.74.32,28.79,28.79,0,0,0,4.33-.24,4,4,0,0,0,2-.7,1.73,1.73,0,0,0,.51-1.34,1.35,1.35,0,0,0-.53-1.18,5,5,0,0,0-2-.59c-1-.14-2.7-.3-5.14-.48a60.57,60.57,0,0,1-6.53-.73,7.51,7.51,0,0,1-3.51-1.47,3.71,3.71,0,0,1-1.21-3,4.39,4.39,0,0,1,3.06-4.33,22.77,22.77,0,0,1,8.37-1.25,22.73,22.73,0,0,1,8.35,1.23,5,5,0,0,1,3.29,4.5h-4.74a1.9,1.9,0,0,0-.84-1.47,5.33,5.33,0,0,0-2.27-.7,34.08,34.08,0,0,0-4.15-.2,16.91,16.91,0,0,0-4.94.5c-1,.33-1.42.8-1.42,1.42a1.09,1.09,0,0,0,.52,1,6.1,6.1,0,0,0,2,.57q1.5.24,4.89.51L138,707q3.93.33,5.94.72a6.93,6.93,0,0,1,3.24,1.45,4,4,0,0,1,1.23,3.2,4.7,4.7,0,0,1-2.84,4.68q-2.83,1.29-8.41,1.29a26.45,26.45,0,0,1-9.57-1.39,5.32,5.32,0,0,1-3.6-5.15Z"/><path class="cls-3" d="M171.33,700.49a6.94,6.94,0,0,1,3.7,2.89,10.36,10.36,0,0,1,1.28,5.4v9H171.9v-2.22a32.54,32.54,0,0,1-5.61,2,23.56,23.56,0,0,1-5.85.72q-8.31,0-8.31-5.94a4.88,4.88,0,0,1,2.94-4.69,17.21,17.21,0,0,1,7.62-1.46,34,34,0,0,1,9.21,1.32,3.57,3.57,0,0,0-2.36-3.46,13.44,13.44,0,0,0-5.08-.92,31.61,31.61,0,0,0-4.47.33,33,33,0,0,0-5.1,1.2l-1.29-3.33a44.63,44.63,0,0,1,5.68-1.3,36.73,36.73,0,0,1,5.75-.44A18.88,18.88,0,0,1,171.33,700.49Zm-4.74,13.59a47.13,47.13,0,0,0,5.31-1.52v-1.77a33.59,33.59,0,0,0-8.82-1.23q-6.24,0-6.24,2.67a1.94,1.94,0,0,0,1.21,2,10.38,10.38,0,0,0,3.77.51A22.28,22.28,0,0,0,166.59,714.08Z"/><path class="cls-3" d="M205.26,697.14a2,2,0,0,0-1.23,1,5.27,5.27,0,0,0-.36,2.05h7.86v3.66h-7.86v13.92h-4.44V703.86h-5V700.2h5v-.48q0-6.33,7-6.33c1,0,1.83,0,2.56.06s1.65.12,2.75.24V697q-2.16-.18-3.63-.18A8.83,8.83,0,0,0,205.26,697.14Z"/><path class="cls-3" d="M218,716a9,9,0,0,1,0-14q3.31-2.4,9.11-2.4t9.09,2.4a9,9,0,0,1,0,14q-3.33,2.4-9.09,2.4T218,716Zm16.82-7q0-5.64-7.71-5.64T219.39,709q0,5.64,7.71,5.64T234.81,709Z"/><path class="cls-3" d="M266.5,701.79q2.6,2.19,2.63,7.05v8.94h-4.41v-7.71q0-3.39-1.59-5t-5.46-1.62a10.28,10.28,0,0,0-6.47,1.88,6.5,6.5,0,0,0-2.41,5.47v7h-4.41V700.2h4.41v4a11.5,11.5,0,0,1,4.26-3.39,14.46,14.46,0,0,1,6.12-1.17Q263.91,699.6,266.5,701.79Z"/><path class="cls-3" d="M293.82,693.78h4.41v24h-4.41v-3a8.45,8.45,0,0,1-3.68,2.7,14.76,14.76,0,0,1-5.5.93,14.2,14.2,0,0,1-5.51-1,8.71,8.71,0,0,1-3.9-3.12,10.23,10.23,0,0,1,0-10.5,8.71,8.71,0,0,1,3.9-3.12,14.2,14.2,0,0,1,5.51-1,14.76,14.76,0,0,1,5.5.93,8.45,8.45,0,0,1,3.68,2.7Zm-2,19.29a5.13,5.13,0,0,0,0-8.17,9.72,9.72,0,0,0-5.74-1.46,9.18,9.18,0,0,0-5.61,1.46,5.32,5.32,0,0,0,0,8.18,9.11,9.11,0,0,0,5.61,1.46A9.64,9.64,0,0,0,291.79,713.07Z"/><path class="cls-3" d="M320.44,714a4.65,4.65,0,0,0,2.33-2.13h4.62a7.62,7.62,0,0,1-3.83,4.83,15.93,15.93,0,0,1-7.9,1.71c-3.82,0-6.86-.8-9.11-2.38a8,8,0,0,1-3.37-7,8.4,8.4,0,0,1,1.57-5.19,9.49,9.49,0,0,1,4.34-3.15,17.63,17.63,0,0,1,6.3-1c3.78,0,6.77.82,9,2.44s3.3,4.27,3.3,7.91h-19.8a4.56,4.56,0,0,0,2.28,3.63,11.35,11.35,0,0,0,5.61,1.14A11.59,11.59,0,0,0,320.44,714Zm-12.34-7.14h14.67a4.52,4.52,0,0,0-2.42-2.87,11.41,11.41,0,0,0-5-.91Q309.3,703.05,308.1,706.83Z"/><path class="cls-3" d="M349.89,700.29v3.93a16.83,16.83,0,0,0-2.39-.54,16.18,16.18,0,0,0-2.26-.15,11,11,0,0,0-4,.75,15.51,15.51,0,0,0-4.35,2.82v10.68h-4.41V700.2h4.41v3.27a11.68,11.68,0,0,1,3.93-3,11,11,0,0,1,4.41-.86A14.66,14.66,0,0,1,349.89,700.29Z"/><path class="cls-3" d="M354.63,698v-4.2H359V698Zm0,19.8V700.2H359v17.58Z"/><path class="cls-3" d="M381.25,714a4.65,4.65,0,0,0,2.33-2.13h4.62a7.62,7.62,0,0,1-3.83,4.83,15.93,15.93,0,0,1-7.9,1.71c-3.82,0-6.86-.8-9.11-2.38a8,8,0,0,1-3.37-7,8.4,8.4,0,0,1,1.57-5.19,9.49,9.49,0,0,1,4.34-3.15,17.63,17.63,0,0,1,6.3-1c3.78,0,6.77.82,9,2.44s3.3,4.27,3.3,7.91h-19.8a4.56,4.56,0,0,0,2.28,3.63,11.35,11.35,0,0,0,5.61,1.14A11.59,11.59,0,0,0,381.25,714Zm-12.34-7.14h14.67a4.52,4.52,0,0,0-2.42-2.87,11.41,11.41,0,0,0-5-.91Q370.11,703.05,368.91,706.83Z"/><path class="cls-3" d="M427.41,697.52a6.66,6.66,0,0,1,2.88,2.65,8.77,8.77,0,0,1,0,8.21,6.7,6.7,0,0,1-2.88,2.64,9.67,9.67,0,0,1-4.32.91H411.21v5.85h-4.59V696.6h16.47A9.67,9.67,0,0,1,427.41,697.52Zm-5.91,10.39a13.87,13.87,0,0,0,2.43-.18,3.07,3.07,0,0,0,1.74-1,3.48,3.48,0,0,0,.75-2.47,3.56,3.56,0,0,0-.75-2.49,3.09,3.09,0,0,0-1.74-1,13.87,13.87,0,0,0-2.43-.18H411.21v7.29Z"/><path class="cls-3" d="M453.57,700.49a6.94,6.94,0,0,1,3.7,2.89,10.36,10.36,0,0,1,1.28,5.4v9h-4.41v-2.22a32.54,32.54,0,0,1-5.61,2,23.56,23.56,0,0,1-5.85.72q-8.31,0-8.31-5.94a4.88,4.88,0,0,1,2.94-4.69,17.21,17.21,0,0,1,7.62-1.46,34,34,0,0,1,9.21,1.32,3.57,3.57,0,0,0-2.36-3.46,13.44,13.44,0,0,0-5.08-.92,31.61,31.61,0,0,0-4.47.33,33,33,0,0,0-5.1,1.2l-1.29-3.33a44.63,44.63,0,0,1,5.68-1.3,36.73,36.73,0,0,1,5.75-.44A18.88,18.88,0,0,1,453.57,700.49Zm-4.74,13.59a47.13,47.13,0,0,0,5.31-1.52v-1.77a33.59,33.59,0,0,0-8.82-1.23q-6.24,0-6.24,2.67a1.94,1.94,0,0,0,1.21,2,10.38,10.38,0,0,0,3.77.51A22.28,22.28,0,0,0,448.83,714.08Z"/><path class="cls-3" d="M485.89,701.79q2.6,2.19,2.63,7.05v8.94h-4.41v-7.71q0-3.39-1.59-5t-5.46-1.62a10.28,10.28,0,0,0-6.47,1.88,6.5,6.5,0,0,0-2.41,5.47v7h-4.41V700.2h4.41v4a11.5,11.5,0,0,1,4.26-3.39,14.46,14.46,0,0,1,6.12-1.17Q483.3,699.6,485.89,701.79Z"/><path class="cls-3" d="M513.18,700.2h4.44v15.39q0,5.19-2.88,7.59t-8.43,2.4a49.87,49.87,0,0,1-11.52-1.44l.3-3.57.69.12q2.76.54,5,.84a33.34,33.34,0,0,0,4.47.3,12.91,12.91,0,0,0,4.69-.7,4.68,4.68,0,0,0,2.49-2.18,8.4,8.4,0,0,0,.77-3.87v-.45a8.29,8.29,0,0,1-3.59,2.66,14.23,14.23,0,0,1-5.35.91,15,15,0,0,1-5.57-1,8.91,8.91,0,0,1,0-16.62,15,15,0,0,1,5.58-1,14.23,14.23,0,0,1,5.35.92,8.27,8.27,0,0,1,3.59,2.65Zm-1.95,12.72a5.12,5.12,0,0,0,0-8,12,12,0,0,0-11.4,0,5.12,5.12,0,0,0,0,8,12,12,0,0,0,11.4,0Z"/><path class="cls-3" d="M540.78,700.29v3.93a16.83,16.83,0,0,0-2.39-.54,16.18,16.18,0,0,0-2.26-.15,11,11,0,0,0-4,.75,15.51,15.51,0,0,0-4.35,2.82v10.68h-4.41V700.2h4.41v3.27a11.68,11.68,0,0,1,3.93-3,11,11,0,0,1,4.41-.86A14.66,14.66,0,0,1,540.78,700.29Z"/><path class="cls-3" d="M563.34,700.49a6.94,6.94,0,0,1,3.7,2.89,10.36,10.36,0,0,1,1.28,5.4v9h-4.41v-2.22a32.54,32.54,0,0,1-5.61,2,23.56,23.56,0,0,1-5.85.72q-8.31,0-8.31-5.94a4.88,4.88,0,0,1,2.94-4.69,17.21,17.21,0,0,1,7.62-1.46,34,34,0,0,1,9.21,1.32,3.57,3.57,0,0,0-2.36-3.46,13.44,13.44,0,0,0-5.08-.92,31.61,31.61,0,0,0-4.47.33,33,33,0,0,0-5.1,1.2l-1.29-3.33a44.63,44.63,0,0,1,5.68-1.3,36.73,36.73,0,0,1,5.75-.44A18.88,18.88,0,0,1,563.34,700.49Zm-4.74,13.59a47.13,47.13,0,0,0,5.31-1.52v-1.77a33.59,33.59,0,0,0-8.82-1.23q-6.24,0-6.24,2.67a1.94,1.94,0,0,0,1.21,2,10.38,10.38,0,0,0,3.77.51A22.28,22.28,0,0,0,558.6,714.08Z"/><path class="cls-3" d="M609.22,701.69q2.17,2.09,2.21,6.46v9.63H607v-9.15a5.32,5.32,0,0,0-1.28-3.93c-.85-.84-2.26-1.26-4.24-1.26a8.22,8.22,0,0,0-3.32.68,5.87,5.87,0,0,0-2.5,2,5.55,5.55,0,0,0-1,3.28v8.34h-4.41v-9.15a5.32,5.32,0,0,0-1.29-3.92,6,6,0,0,0-4.26-1.27,8.22,8.22,0,0,0-3.32.68,5.87,5.87,0,0,0-2.5,2,5.55,5.55,0,0,0-1,3.28v8.34h-4.41V700.2H578v3.42a10.14,10.14,0,0,1,8.46-4,9.34,9.34,0,0,1,4.9,1.19,6.53,6.53,0,0,1,2.81,3.61,10.35,10.35,0,0,1,9-4.8A8.41,8.41,0,0,1,609.22,701.69Z"/><path class="cls-3" d="M650.79,697.52a6.66,6.66,0,0,1,2.88,2.65,8.77,8.77,0,0,1,0,8.21,6.7,6.7,0,0,1-2.88,2.64,9.73,9.73,0,0,1-4.32.91H634.58v5.85H630V696.6h16.47A9.73,9.73,0,0,1,650.79,697.52Zm-5.91,10.39a14,14,0,0,0,2.43-.18,3.07,3.07,0,0,0,1.74-1,3.52,3.52,0,0,0,.75-2.47,3.61,3.61,0,0,0-.75-2.49,3.09,3.09,0,0,0-1.74-1,14,14,0,0,0-2.43-.18h-10.3v7.29Z"/><path class="cls-3" d="M676.94,700.49a7,7,0,0,1,3.71,2.89,10.27,10.27,0,0,1,1.27,5.4v9h-4.41v-2.22a32.44,32.44,0,0,1-5.6,2,23.61,23.61,0,0,1-5.85.72c-5.55,0-8.31-2-8.31-5.94a4.88,4.88,0,0,1,2.93-4.69,17.26,17.26,0,0,1,7.63-1.46,33.92,33.92,0,0,1,9.2,1.32,3.54,3.54,0,0,0-2.35-3.46,13.48,13.48,0,0,0-5.08-.92,31.86,31.86,0,0,0-4.48.33,33.5,33.5,0,0,0-5.1,1.2l-1.29-3.33a44.77,44.77,0,0,1,5.69-1.3,36.73,36.73,0,0,1,5.75-.44A18.82,18.82,0,0,1,676.94,700.49Zm-4.73,13.59a47,47,0,0,0,5.3-1.52v-1.77a33.53,33.53,0,0,0-8.82-1.23c-4.16,0-6.23.89-6.23,2.67a1.94,1.94,0,0,0,1.21,2,10.35,10.35,0,0,0,3.76.51A22.44,22.44,0,0,0,672.21,714.08Z"/><path class="cls-3" d="M709.27,701.79c1.73,1.46,2.6,3.81,2.63,7.05v8.94h-4.41v-7.71a7,7,0,0,0-1.59-5q-1.6-1.62-5.47-1.62a10.27,10.27,0,0,0-6.46,1.88,6.5,6.5,0,0,0-2.42,5.47v7h-4.4V700.2h4.4v4a11.45,11.45,0,0,1,4.27-3.39,14.42,14.42,0,0,1,6.11-1.17Q706.67,699.6,709.27,701.79Z"/><path class="cls-3" d="M736.56,700.2H741v15.39c0,3.46-1,6-2.88,7.59s-4.71,2.4-8.43,2.4a49.8,49.8,0,0,1-11.52-1.44l.3-3.57.69.12q2.76.54,5,.84a33.34,33.34,0,0,0,4.47.3,12.94,12.94,0,0,0,4.69-.7,4.68,4.68,0,0,0,2.49-2.18,8.4,8.4,0,0,0,.77-3.87v-.45a8.35,8.35,0,0,1-3.59,2.66,14.27,14.27,0,0,1-5.35.91,15,15,0,0,1-5.57-1,8.42,8.42,0,0,1-5.5-8.31,8.65,8.65,0,0,1,1.5-5.23,8.81,8.81,0,0,1,4-3.08,15,15,0,0,1,5.58-1,14.26,14.26,0,0,1,5.35.92,8.33,8.33,0,0,1,3.59,2.65Zm-1.95,12.72a5.12,5.12,0,0,0,0-8,12,12,0,0,0-11.4,0,5.1,5.1,0,0,0,0,8,12,12,0,0,0,11.4,0Z"/><path class="cls-3" d="M764.16,700.29v3.93a17.14,17.14,0,0,0-2.39-.54,16.33,16.33,0,0,0-2.27-.15,11,11,0,0,0-4,.75,15.34,15.34,0,0,0-4.34,2.82v10.68h-4.42V700.2h4.42v3.27a11.56,11.56,0,0,1,3.92-3,11,11,0,0,1,4.41-.86A14.76,14.76,0,0,1,764.16,700.29Z"/><path class="cls-3" d="M786.71,700.49a7,7,0,0,1,3.71,2.89,10.36,10.36,0,0,1,1.27,5.4v9h-4.41v-2.22a32.54,32.54,0,0,1-5.61,2,23.53,23.53,0,0,1-5.84.72q-8.33,0-8.32-5.94a4.88,4.88,0,0,1,2.94-4.69,17.26,17.26,0,0,1,7.63-1.46,34,34,0,0,1,9.2,1.32,3.56,3.56,0,0,0-2.35-3.46,13.5,13.5,0,0,0-5.09-.92,31.83,31.83,0,0,0-4.47.33,33,33,0,0,0-5.1,1.2L769,701.34a44.77,44.77,0,0,1,5.69-1.3,36.73,36.73,0,0,1,5.75-.44A18.86,18.86,0,0,1,786.71,700.49ZM782,714.08a47.13,47.13,0,0,0,5.31-1.52v-1.77a33.59,33.59,0,0,0-8.82-1.23q-6.24,0-6.24,2.67a2,2,0,0,0,1.22,2,10.32,10.32,0,0,0,3.76.51A22.28,22.28,0,0,0,782,714.08Z"/><path class="cls-3" d="M832.6,701.69q2.17,2.09,2.2,6.46v9.63h-4.44v-9.15a5.32,5.32,0,0,0-1.27-3.93c-.85-.84-2.27-1.26-4.25-1.26a8.17,8.17,0,0,0-3.31.68,5.9,5.9,0,0,0-2.51,2,5.55,5.55,0,0,0-1,3.28v8.34h-4.41v-9.15a5.32,5.32,0,0,0-1.29-3.92,6,6,0,0,0-4.26-1.27,8.17,8.17,0,0,0-3.31.68,5.9,5.9,0,0,0-2.51,2,5.55,5.55,0,0,0-1,3.28v8.34h-4.4V700.2h4.4v3.42a10.14,10.14,0,0,1,8.46-4,9.37,9.37,0,0,1,4.91,1.19,6.52,6.52,0,0,1,2.8,3.61,10.35,10.35,0,0,1,9-4.8A8.44,8.44,0,0,1,832.6,701.69Z"/></g></g><g id="v2.0" class="cls-1"><g class="cls-1"><path class="cls-4" d="M1090.9,19.17l8.16-15h4.8l-9.63,17.58h-6.72l-9.6-17.58h4.8Z"/><path class="cls-4" d="M1131.07,10.41a10.36,10.36,0,0,1-3.65,2.3,57.18,57.18,0,0,1-5.59,1.69,38.33,38.33,0,0,0-5.06,1.56,3.23,3.23,0,0,0-2.08,2h17.82v3.84H1109V19.29a5.66,5.66,0,0,1,1.69-3.9,11.2,11.2,0,0,1,3.73-2.37,57,57,0,0,1,5.65-1.8c1.78-.5,3.17-.92,4.15-1.27a8.09,8.09,0,0,0,2.48-1.34,2.5,2.5,0,0,0,1-2,2.38,2.38,0,0,0-1.3-2.19,14.49,14.49,0,0,0-10.07.32A3.62,3.62,0,0,0,1114.6,8h-4.89a6.83,6.83,0,0,1,3.35-6.13A17,17,0,0,1,1121.74,0c3.48,0,6.16.52,8,1.54a5.26,5.26,0,0,1,2.82,5A5.22,5.22,0,0,1,1131.07,10.41Z"/><path class="cls-4" d="M1138.36,21.78V18h4.5v3.75Z"/><path class="cls-4" d="M1151.88,21a9.33,9.33,0,0,1-4.21-3.92,12.16,12.16,0,0,1-1.39-5.92,12,12,0,0,1,1.39-5.89,9.43,9.43,0,0,1,4.21-3.89,17.82,17.82,0,0,1,13.75,0,9.47,9.47,0,0,1,4.2,3.9,11.84,11.84,0,0,1,1.41,5.88,11.91,11.91,0,0,1-1.41,5.91,9.57,9.57,0,0,1-4.2,3.92,15.26,15.26,0,0,1-6.87,1.39A15.48,15.48,0,0,1,1151.88,21Zm12.55-4.44a7.05,7.05,0,0,0,2-5.4,7,7,0,0,0-2-5.35,9.53,9.53,0,0,0-11.34,0,7,7,0,0,0-2,5.37,7.06,7.06,0,0,0,2,5.42,9.49,9.49,0,0,0,11.34,0Z"/></g></g></g></g></svg>